<svg height="512pt" viewBox="0 -46 512.00027 512" width="512pt" xmlns="http://www.w3.org/2000/svg"><g fill="#e9c1a4"><path d="m492.035156 147.097656c-5.109375-.292968-10.226562-.382812-15.261718-.199218l.980468 14.492187c2.597656.859375 4.035156 1.378906 4.035156 1.378906zm0 0"/><path d="m324.824219 272.691406c6.300781 2.863282 13.328125 5.316406 21.101562 6.925782l-7.085937-13.207032c-4.800782 2.417969-9.46875 4.496094-14.015625 6.28125zm0 0"/><path d="m422.738281 44.046875.457031-6.480469 1.953126-27.566406c-148.023438 5.449219-83.277344 100.25-119.320313 130.257812 4.183594 24.449219-.359375 42.082032-9.683594 53.652344-28.722656 35.648438-102.828125 13.726563-107.035156-43.90625-22.164063 17.972656-35.234375 42.121094-67.910156 39.980469 31.953125 36.222656 68.429687 14.558594 68.429687 14.558594l-12.433594 83.644531c12.71875-6.148438 22.359376-18.859375 29.367188-37.398438 11.0625 8.90625 32.746094 27.691407 65.828125 30.496094 15.082031 1.28125 32.539063-.773437 52.433594-8.589844 4.546875-1.785156 9.214843-3.863281 14.015625-6.28125l7.085937 13.207032 37.539063 69.972656c7.257812-1.820312 14.480468-3.769531 21.664062-5.851562l-4.597656-67.75-8.164062-120.300782-.59375-8.761718-.003907-.027344c34.8125-1.28125 73.59375 10.402344 85.984375 14.492187l-.980468-14.492187c5.035156-.1875 10.152343-.097656 15.261718.195312l9.964844-15.238281c-17.898438-28.382813-58.867188-74.207031-79.261719-87.8125zm0 0"/></g><path d="m307.253906 152.707031c-.214844-3.9375-.675781-8.082031-1.421875-12.449219-3.59375 2.988282-8.1875 5.335938-14.09375 6.886719-6.15625 1.617188-11.867187 2.847657-17.230469 3.78125-15.761718 2.746094-28.328124 2.769531-38.996093 1.28125 2.894531 27.429688 21.792969 46.441407 43.65625 54.558594 17.28125-7.542969 29.65625-24.992187 28.085937-54.058594zm0 0" fill="#55d08f"/><path d="m460.550781 324.824219c-18.148437 7.175781-36.644531 13.488281-55.421875 18.917969-7.183594 2.078124-14.40625 4.027343-21.664062 5.847656-32.601563 8.171875-65.9375 13.714844-99.652344 16.566406-9.976562.84375-19.984375 1.464844-30.019531 1.835938-46.160157 1.699218-92.25-1.691407-137.34375-9.996094-.238281 8.300781 5.320312 17.007812 18.128906 21.035156 48.378906 15.214844 98.488281 24.898438 149.242187 28.886719 66.429688-5.226563 131.5625-20.203125 192.996094-44.367188 10.105469-3.972656 16.261719-9.644531 19.15625-15.535156 7.898438-16.089844-8.535156-33.820313-35.421875-23.191406zm0 0" fill="#ff3d53"/><path d="m478.375 172.167969c4.363281 1.585937 9.246094-.039063 11.785156-3.925781l20.210938-30.914063c2.140625-3.273437 2.175781-7.496094.085937-10.804687-16.105469-25.542969-53.878906-69.246094-77.351562-87.316407l2.019531-28.5c.199219-2.832031-.8125-5.613281-2.785156-7.65625s-4.726563-3.1484372-7.558594-3.0429685c-109.011719 4.0117185-112.453125 56.7070315-114.96875 95.1835935-1.238281 18.960938-2.429688 30.664063-10.242188 37.269532-.019531.015624-.042968.039062-.0625.054687-2.617187 2.195313-5.972656 3.820313-10.3125 4.957031-44.230468 11.609375-63.757812 3.511719-84.429687-5.066406-11.65625-4.835938-23.707031-9.835938-39.574219-10.855469-44.402344-2.84375-66.023437 18.351563-83.398437 35.386719-13.890625 13.625-24.867188 24.386719-44.945313 23.070312-4.039062-.257812-7.84375 1.9375-9.628906 5.570313-1.785156 3.636719-1.203125 7.988281 1.476562 11.023437 19.203126 21.765626 40.167969 25.1875 54.375 24.222657 3.3125-.222657 6.398438-.6875 9.214844-1.285157l-17.675781 118.925782c-8.714844-2.273438-17.390625-4.714844-26.007813-7.371094-5.207031-1.601562-10.308593-2.417969-15.164062-2.417969-17.191406 0-30.8125 10.53125-33.128906 25.609375-1.929688 12.574219 4.996094 28.050782 24.820312 34.285156 66.335938 20.859376 135.457032 31.4375 205.4375 31.4375 8.410156 0 16.9375-.15625 25.34375-.464843 77.503906-2.851563 153.058594-18.5625 224.566406-46.6875 23.511719-9.25 29.25-26.273438 27.019532-38.042969-2.632813-13.882812-15.273438-23.210938-31.457032-23.210938-6.132812 0-12.582031 1.320313-19.164062 3.921876-14.039062 5.550781-28.25 10.566406-42.617188 15.050781l-11.785156-173.679688c36.863282 1.273438 75.484375 15.121094 75.902344 15.273438zm-184.097656-15.351563c1.066406-.28125 2.09375-.585937 3.097656-.90625.417969 17.585938-5.054688 30.714844-16.167969 38.355469-14.183593 9.753906-36.75 9.058594-54.875-1.695313-15.542969-9.222656-24.957031-23.664062-26.984375-40.761718 21.234375 8.769531 45.914063 17.875 94.929688 5.007812zm169.949218 177.308594c4.234376-1.671875 8.207032-2.523438 11.8125-2.523438 6.375 0 11.007813 2.722657 11.808594 6.9375.871094 4.597657-3.332031 11.238282-14.691406 15.707032-69.398438 27.296875-142.738281 42.542968-217.980469 45.3125-8.160156.296875-16.441406.453125-24.609375.453125-67.945312 0-135.046875-10.269531-199.4375-30.519531-7.601562-2.390626-11.835937-7.054688-11.050781-12.171876.660156-4.300781 5.046875-8.640624 13.355469-8.640624 2.859375 0 5.980468.511718 9.273437 1.53125 12.382813 3.816406 24.871094 7.226562 37.445313 10.273437.238281.066406.476562.121094.722656.171875 9.191406 2.214844 18.425781 4.226562 27.707031 6.03125.152344.035156.304688.0625.460938.089844 39.902343 7.722656 80.558593 11.640625 121.519531 11.640625 7.832031 0 15.773438-.148438 23.597656-.433594 72.527344-2.671875 143.203125-17.425781 210.066406-43.859375zm-122.164062-40.550781c0 .003906.003906.003906.003906.007812l26.464844 49.328125c-37.597656 8.59375-76.070312 13.648438-115.105469 15.085938-7.582031.277344-15.273437.421875-22.863281.421875-35.429688 0-70.621094-3.023438-105.269531-8.992188l21.945312-47.824219c21.183594 3.191407 46.3125-2.050781 63.242188-34.960937 9.777343 7.332031 23.34375 15.984375 41.058593 20.976563 26.054688 7.34375 53.929688 4.609374 82.972657-8.117188zm46.515625 44.398437-40.925781-76.289062s-.003906 0-.003906-.003906l-7.359376-13.722657c-2.609374-4.863281-8.671874-6.695312-13.539062-4.082031-4.867188 2.609375-6.695312 8.671875-4.085938 13.539062l2.359376 4.398438c-58.296876 24.855469-93.25-3.46875-110.492188-17.441406l-1.699219-1.371094c-2.496093-2.011719-5.804687-2.703125-8.894531-1.859375-3.09375.839844-5.597656 3.113281-6.730469 6.113281-11.183593 29.59375-27.613281 39.859375-53.265625 33.285156-4.683594-1.203124-9.558594 1.121094-11.574218 5.515626l-27.320313 59.539062c-3.648437-.753906-7.289063-1.542969-10.925781-2.367188l20.398437-137.214843c.566407-3.820313-1.113281-7.625-4.316406-9.773438-3.207031-2.152343-7.363281-2.265625-10.683594-.296875-.070312.042969-7.359375 4.21875-17.800781 4.925782-7.433594.507812-14.5-.882813-21.136719-4.144532 14.46875-5.160156 24.960938-15.449218 35.21875-25.507812 16.773438-16.445313 32.617188-31.988282 68.113281-29.707032 5.449219.351563 10.335938 1.296876 15.023438 2.632813-.15625 27.359375 13.363281 51.492187 37.191406 65.628906 12.789063 7.589844 27.078125 11.394531 40.753906 11.394531 13.050782 0 25.546876-3.464843 35.660157-10.417968 11.367187-7.816406 29.066406-26.726563 23.933593-66.828125 11.011719-12.515625 12.207032-30.734375 13.296876-47.425781 2.355468-36.015626 4.589843-70.121094 84.605468-75.902344l-1.613281 22.75c-.253906 3.585937 1.4375 7.03125 4.425781 9.027344 17.648438 11.773437 53.925782 51.589843 72.859375 79.496093l-12.402343 18.96875c-15.550782-4.933593-52.324219-15.175781-86.242188-13.929687-2.703125.101562-5.253906 1.292968-7.0625 3.300781-1.8125 2.011719-2.730469 4.671875-2.546875 7.371094l12.8125 188.765625c-2.011719.558594-4.019531 1.101562-6.03125 1.632812zm0 0"/><path d="m411.863281 95.082031c6.136719-.222656 10.914063-5.058593 10.671875-10.796875-.242187-5.738281-5.410156-10.207031-11.546875-9.980468-6.136719.222656-10.917969 5.058593-10.675781 10.796874.242188 5.738282 5.414062 10.207032 11.550781 9.980469zm0 0"/><path d="m326.601562 222.449219c-2.601562-4.871094-8.660156-6.710938-13.53125-4.109375-4.871093 2.601562-6.710937 8.660156-4.109374 13.53125l.109374.207031c1.800782 3.371094 5.257813 5.292969 8.832032 5.292969 1.589844 0 3.203125-.378906 4.699218-1.179688 4.875-2.601562 6.714844-8.660156 4.113282-13.53125zm0 0"/></svg>