<svg height="512pt" viewBox="0 0 512 512.001" width="512pt" xmlns="http://www.w3.org/2000/svg"><g fill-rule="evenodd"><path d="m127.917969 274.722656c14.707031-28.433594 35.363281-59.167968 60.949219-89.964844h-30.179688l-82.8125 107.28125zm0 0" fill="#55d08f"/><path d="m261.390625 227.984375-157.367187 157.367187c-6.222657 6.21875-6.222657 16.402344 0 22.625 6.222656 6.222657 16.402343 6.222657 22.628906 0l40.582031-40.582031 26.675781-26.679687 90.109375-90.105469c6.21875-6.222656 6.21875-16.40625-.003906-22.625-6.222656-6.222656-16.40625-6.222656-22.625 0zm0 0" fill="#55d08f"/><path d="m354.871094 380.941406v-39.292968c-32.445313 27.519531-64.960938 49.613281-94.921875 65.105468l-21.246094 63.859375zm0 0" fill="#55d08f"/><path d="m221.8125 368.617188-27.902344-27.898438-26.679687 26.679688 15.960937 15.960937c6.566406 6.566406 17.3125 6.566406 23.882813 0zm0 0" fill="#e9c1a4"/><path d="m144.605469 344.769531 26.679687-26.679687-27.902344-27.902344-14.738281 14.738281c-6.566406 6.566407-6.566406 17.316407 0 23.882813zm0 0" fill="#e9c1a4"/></g><path d="m424.519531 87.480469c-9.519531-9.515625-16.699219-20.925781-21.195312-33.332031-33.851563 21.484374-69.609375 50.140624-103.996094 84.527343-6.113281 6.113281-12.042969 12.269531-17.789063 18.453125-36.984374 39.804688-66.128906 80.644532-85.242187 117.59375l9.175781 9.175782 55.917969-55.914063c6.222656-6.222656 16.402344-6.222656 22.625 0s6.222656 16.40625.003906 22.625l-55.917969 55.917969-34.191406 34.1875 43.367188 43.367187c13.820312-7.148437 28.183594-15.703125 42.835937-25.542969 24.519531-16.46875 49.84375-36.550781 74.761719-59.699218 6.179688-5.742188 12.335938-11.675782 18.449219-17.789063 56.835937-56.835937 98.054687-117.421875 117.019531-166.941406-24.644531.410156-48.398438-9.199219-65.824219-26.628906zm-40.511719 97.078125c-15.621093 15.621094-40.945312 15.621094-56.566406 0s-15.621094-40.949219 0-56.566406c15.621094-15.621094 40.945313-15.621094 56.566406 0 15.621094 15.617187 15.621094 40.945312 0 56.566406zm0 0" fill="#e6e6e6"/><path d="m351.617188 152.164062c-11.296876 11.296876-14.417969 27.664063-9.378907 41.773438 14.105469 5.039062 30.476563 1.917969 41.769531-9.378906 11.296876-11.296875 14.417969-27.664063 9.378907-41.769532-14.105469-5.042968-30.476563-1.921874-41.769531 9.375zm0 0" fill="#83d8ef" fill-rule="evenodd"/><path d="m428.230469 51.996094c-.289063 17.355468 4.398437 34.265625 13.277343 48.839844 14.574219 8.878906 31.484376 13.5625 48.835938 13.273437 10.886719-28.417969 14.429688-53.183594 9.402344-71.511719-18.328125-5.027344-43.09375-1.484375-71.515625 9.398438zm0 0" fill="#ff3d53" fill-rule="evenodd"/><path d="m355.726562 106.273438c-13.355468 0-25.910156 5.203124-35.355468 14.648437-9.445313 9.441406-14.644532 22-14.644532 35.351563 0 13.355468 5.199219 25.914062 14.644532 35.355468 9.445312 9.445313 22 14.644532 35.355468 14.644532 13.355469 0 25.910157-5.199219 35.355469-14.644532 9.441407-9.441406 14.644531-22 14.644531-35.355468 0-13.355469-5.203124-25.910157-14.644531-35.351563-9.445312-9.445313-22-14.648437-35.355469-14.648437zm21.210938 71.214843c-5.664062 5.667969-13.199219 8.785157-21.210938 8.785157-8.015624 0-15.550781-3.121094-21.214843-8.785157-5.667969-5.667969-8.785157-13.199219-8.785157-21.214843 0-8.011719 3.117188-15.546876 8.785157-21.210938 5.664062-5.667969 13.199219-8.789062 21.214843-8.789062 8.011719 0 15.546876 3.121093 21.210938 8.789062 5.667969 5.664062 8.789062 13.199219 8.789062 21.210938 0 8.015624-3.121093 15.546874-8.789062 21.214843zm0 0"/><path d="m499.648438 117.769531c17.550781-45.8125 16.339843-81.59375-3.742188-101.675781-10.679688-10.679688-25.691406-16.09375-44.617188-16.09375-58.199218 0-147.460937 51.65625-227.410156 131.605469-5.113281 5.113281-10.128906 10.292969-15.042968 15.523437h-77.777344c-3.101563 0-6.023438 1.4375-7.917969 3.890625l-121.054687 156.828125c-2.6875 3.480469-2.785157 8.308594-.238282 11.898438 1.910156 2.691406 4.976563 4.210937 8.15625 4.210937 1.050782 0 2.113282-.167969 3.152344-.511719l112.058594-37.28125 4.023437 4.023438-7.667969 7.667969c-5.0625 5.066406-7.851562 11.816406-7.851562 19.011719 0 7.195312 2.789062 13.945312 7.851562 19.011718l8.890626 8.890625-33.511719 33.511719c-4.898438 4.898438-7.59375 11.425781-7.59375 18.382812 0 6.957032 2.695312 13.488282 7.597656 18.386719 4.898437 4.898438 11.425781 7.59375 18.382813 7.59375 6.957031 0 13.488281-2.695312 18.386718-7.59375l33.511719-33.511719 8.886719 8.890626c5.066406 5.0625 11.816406 7.851562 19.011718 7.851562 7.195313 0 13.945313-2.789062 19.011719-7.851562l7.667969-7.667969 4.027344 4.023437-37.285156 112.058594c-1.386719 4.175781.113281 8.765625 3.703124 11.3125 1.734376 1.230469 3.761719 1.84375 5.785157 1.84375 2.160156 0 4.316406-.695312 6.113281-2.082031l156.828125-121.058594c2.453125-1.890625 3.890625-4.816406 3.890625-7.914063v-77.78125c5.226562-4.914062 10.410156-9.925781 15.523438-15.042968 50.707031-50.707032 90.914062-106.054688 113.21875-155.847656 2.1875-4.890626 4.183593-9.679688 5.980468-14.367188.015625-.046875.035156-.089844.050782-.136719zm-17.882813-87.535156c13.160156 13.160156 13.59375 39.464844 1.664063 73.683594-19.394532-1.316407-38.015626-9.679688-51.839844-23.507813-13.84375-13.839844-22.195313-32.464844-23.507813-51.902344 15.9375-5.546874 30.550781-8.507812 43.207031-8.507812 13.429688 0 23.683594 3.445312 30.476563 10.234375zm-345.792969 136.894531h54.792969c-28.613281 32.953125-52.71875 67.167969-69.824219 99.378906l-82.996094 27.613282zm-.257812 154.609375c-2.640625-2.640625-2.640625-7.101562 0-9.738281l7.667968-7.667969 13.757813 13.757813-12.535156 12.539062zm-16.136719 79.167969c-1.121094 1.121094-2.625 1.738281-4.242187 1.738281-1.613282 0-3.121094-.617187-4.242188-1.738281s-1.738281-2.625-1.738281-4.242188c0-1.613281.617187-3.121093 1.738281-4.242187l157.367188-157.367187c1.121093-1.121094 2.625-1.738282 4.242187-1.738282 1.613281 0 3.121094.617188 4.242187 1.738282 2.296876 2.296874 2.296876 6.175781.007813 8.476562-.003906 0-.003906.003906-.007813.007812-.003906 0 .011719-.011718.007813-.007812zm80.421875-24.621094c-1.285156 1.289063-3.015625 1.996094-4.867188 1.996094-1.851562 0-3.582031-.707031-4.871093-1.996094l-8.886719-8.886718 12.535156-12.539063 13.757813 13.757813zm144.871094-.253906-126.992188 98.023438 27.613282-82.992188c32.207031-17.109375 66.425781-41.210938 99.378906-69.828125zm21.382812-102.054688c-40.800781 40.800782-85.679687 75.296876-127.132812 97.808594l-3.167969-3.167968 21.945313-21.945313c3.90625-3.902344 3.90625-10.234375 0-14.140625s-10.234376-3.90625-14.144532 0l-21.941406 21.945312-13.761719-13.757812 83.035157-83.035156c.089843-.089844.171874-.183594.261718-.273438.21875-.226562.433594-.449218.644532-.679687.097656-.109375.1875-.21875.285156-.328125.191406-.222656.386718-.441406.574218-.671875.074219-.09375.144532-.1875.222657-.285157.195312-.246093.394531-.496093.582031-.75.050781-.066406.09375-.136718.144531-.207031.207031-.285156.410157-.574219.605469-.867187.023438-.039063.046875-.078125.074219-.117188.210937-.324218.417969-.652344.613281-.984375.007812-.015625.015625-.027343.023438-.039062 1.066406-1.8125 1.902343-3.746094 2.5-5.761719.011718-.042969.023437-.09375.039062-.140625.097656-.34375.195312-.691406.28125-1.042969.035156-.148437.0625-.300781.097656-.449218.058594-.246094.113282-.492188.164063-.742188.0625-.328125.117187-.65625.167969-.988281.011718-.070313.027343-.140625.039062-.214844.375-2.542969.375-5.136719 0-7.683594-.015625-.089843-.03125-.175781-.046875-.265625-.046875-.308594-.097656-.621094-.160156-.933594-.050781-.273437-.113281-.539062-.175781-.808593-.03125-.128907-.054688-.257813-.085938-.382813-.089844-.375-.191406-.742187-.300781-1.109375-.007813-.027343-.011719-.050781-.019531-.074219-.714844-2.429687-1.78125-4.734374-3.179688-6.855468-.011719-.015625-.019531-.03125-.027344-.046875-.210937-.320313-.433594-.632813-.65625-.941407-.03125-.042968-.0625-.089843-.09375-.132812-.210937-.285156-.429687-.5625-.652344-.839844-.050781-.0625-.101562-.132812-.152343-.199218-.222657-.269532-.453125-.53125-.683594-.796876-.058594-.0625-.113281-.132812-.175781-.199218-.292969-.324219-.597656-.644532-.910156-.957032-1.53125-1.53125-3.21875-2.847656-5.03125-3.933593-3.988282-2.386719-8.570313-3.664063-13.351563-3.664063-.003906 0-.003906 0-.003906 0-6.957031 0-13.484375 2.699219-18.382813 7.597656l-83.035156 83.035157-13.757812-13.761719 21.945312-21.941406c3.90625-3.90625 3.90625-10.238282 0-14.144532-3.90625-3.902343-10.234375-3.902343-14.144531 0l-21.945313 21.945313-3.164062-3.167969c22.507812-41.453125 57.003906-86.332031 97.804687-127.132812 49.890625-49.890625 104.394531-88.914063 150.722657-109.542969 2.890624 21.910156 12.960937 42.609375 28.703124 58.351563 15.726563 15.726562 36.402344 25.792968 58.289063 28.691406-.125.285156-.246094.566406-.371094.851562-21.332031 47.625-60.082031 100.851563-109.109375 149.878906zm0 0"/><path d="m264.238281 312.046875-.167969.167969c-3.90625 3.902344-3.90625 10.234375 0 14.140625 1.953126 1.953125 4.511719 2.929687 7.070313 2.929687 2.5625 0 5.117187-.976562 7.070313-2.929687l.167968-.167969c3.90625-3.902344 3.90625-10.234375 0-14.140625-3.902344-3.90625-10.234375-3.90625-14.140625 0zm0 0"/><path d="m185.808594 233.617188-.167969.167968c-3.902344 3.902344-3.902344 10.234375 0 14.140625 1.953125 1.953125 4.511719 2.929688 7.070313 2.929688 2.5625 0 5.121093-.976563 7.074218-2.929688l.164063-.167969c3.90625-3.902343 3.90625-10.234374 0-14.140624s-10.234375-3.90625-14.140625 0zm0 0"/></svg>