<?xml version="1.0" encoding="UTF-8"?>
<svg width="512px" height="512px" viewBox="0 0 512 512" version="1.1" xmlns="http://www.w3.org/2000/svg" xmlns:xlink="http://www.w3.org/1999/xlink">
    <!-- Generator: Sketch 52.2 (67145) - http://www.bohemiancoding.com/sketch -->
    <title>2</title>
    <desc>Created with Sketch.</desc>
    <g id="Page-1" stroke="none" stroke-width="1" fill="none" fill-rule="evenodd">
        <g id="2">
            <g id="Group" transform="translate(75.000000, 184.000000)">
                <path d="M52.917969,90.722656 C67.625,62.289062 88.28125,31.554688 113.867188,0.757812 L83.6875,0.757812 L0.875,108.039062 L52.917969,90.722656 Z" id="Path" fill="#03C9A9"></path>
                <path d="M186.390625,43.984375 L29.023438,201.351562 C22.800781,207.570312 22.800781,217.753906 29.023438,223.976562 C35.246094,230.199219 45.425781,230.199219 51.652344,223.976562 L92.234375,183.394531 L118.910156,156.714844 L209.019531,66.609375 C215.238281,60.386719 215.238281,50.203125 209.015625,43.984375 C202.792969,37.761719 192.609375,37.761719 186.390625,43.984375 Z" id="Path" fill="#03C9A9"></path>
                <path d="M279.871094,196.941406 L279.871094,157.648438 C247.425781,185.167969 214.910156,207.261719 184.949219,222.753906 L163.703125,286.613281 L279.871094,196.941406 Z" id="Path" fill="#03C9A9"></path>
                <path d="M146.8125,184.617188 L118.910156,156.71875 L92.230469,183.398438 L108.191406,199.359375 C114.757812,205.925781 125.503906,205.925781 132.074219,199.359375 L146.8125,184.617188 Z" id="Path" fill="#E9C1A4"></path>
                <path d="M69.605469,160.769531 L96.285156,134.089844 L68.382812,106.1875 L53.644531,120.925781 C47.078125,127.492188 47.078125,138.242188 53.644531,144.808594 L69.605469,160.769531 Z" id="Path" fill="#E9C1A4"></path>
            </g>
            <path d="M424.519531,87.480469 C415,77.964844 407.820312,66.554688 403.324219,54.148438 C369.472656,75.632812 333.714844,104.289062 299.328125,138.675781 C293.214844,144.789062 287.285156,150.945312 281.539062,157.128906 C244.554688,196.933594 215.410156,237.773438 196.296875,274.722656 L205.472656,283.898438 L261.390625,227.984375 C267.613281,221.761719 277.792969,221.761719 284.015625,227.984375 C290.238281,234.207031 290.238281,244.390625 284.019531,250.609375 L228.101562,306.527344 L193.910156,340.714844 L237.277344,384.082031 C251.097656,376.933594 265.460938,368.378906 280.113281,358.539062 C304.632812,342.070312 329.957031,321.988281 354.875,298.839844 C361.054688,293.097656 367.210938,287.164062 373.324219,281.050781 C430.160156,224.214844 471.378906,163.628906 490.34375,114.109375 C465.699219,114.519531 441.945312,104.910156 424.519531,87.480469 Z M384.007812,184.558594 C368.386719,200.179688 343.0625,200.179688 327.441406,184.558594 C311.820312,168.9375 311.820312,143.609375 327.441406,127.992188 C343.0625,112.371094 368.386719,112.371094 384.007812,127.992188 C399.628906,143.609375 399.628906,168.9375 384.007812,184.558594 Z" id="Shape" fill="#E6E6E6" fill-rule="nonzero"></path>
            <path d="M351.617188,152.164062 C340.320312,163.460938 337.199219,179.828125 342.238281,193.9375 C356.34375,198.976562 372.714844,195.855469 384.007812,184.558594 C395.304688,173.261719 398.425781,156.894531 393.386719,142.789062 C379.28125,137.746094 362.910156,140.867188 351.617188,152.164062 Z" id="Path" fill="#5FD0EF"></path>
            <path d="M428.230469,51.996094 C427.941406,69.351562 432.628906,86.261719 441.507812,100.835938 C456.082031,109.714844 472.992188,114.398438 490.34375,114.109375 C501.230469,85.691406 504.773438,60.925781 499.746094,42.597656 C481.417969,37.570312 456.652344,41.113281 428.230469,51.996094 Z" id="Path" fill="#E26A6A"></path>
            <path d="M355.726562,106.273438 C342.371094,106.273438 329.816406,111.476562 320.371094,120.921875 C310.925781,130.363281 305.726562,142.921875 305.726562,156.273438 C305.726562,169.628906 310.925781,182.1875 320.371094,191.628906 C329.816406,201.074219 342.371094,206.273438 355.726562,206.273438 C369.082031,206.273438 381.636719,201.074219 391.082031,191.628906 C400.523438,182.1875 405.726562,169.628906 405.726562,156.273438 C405.726562,142.917969 400.523438,130.363281 391.082031,120.921875 C381.636719,111.476562 369.082031,106.273438 355.726562,106.273438 Z M376.9375,177.488281 C371.273438,183.15625 363.738281,186.273438 355.726562,186.273438 C347.710938,186.273438 340.175781,183.152344 334.511719,177.488281 C328.84375,171.820312 325.726562,164.289062 325.726562,156.273438 C325.726562,148.261719 328.84375,140.726562 334.511719,135.0625 C340.175781,129.394531 347.710938,126.273438 355.726562,126.273438 C363.738281,126.273438 371.273438,129.394531 376.9375,135.0625 C382.605469,140.726562 385.726562,148.261719 385.726562,156.273438 C385.726562,164.289062 382.605469,171.820312 376.9375,177.488281 Z" id="Shape" fill="#000000" fill-rule="nonzero"></path>
            <path d="M499.648438,117.769531 C517.199219,71.957031 515.988281,36.175781 495.90625,16.09375 C485.226562,5.414062 470.214844,0 451.289062,0 C393.089844,0 303.828125,51.65625 223.878906,131.605469 C218.765625,136.71875 213.75,141.898438 208.835938,147.128906 L131.058594,147.128906 C127.957031,147.128906 125.035156,148.566406 123.140625,151.019531 L2.085938,307.847656 C-0.601562,311.328125 -0.699219,316.15625 1.847656,319.746094 C3.757812,322.4375 6.824219,323.957031 10.003906,323.957031 C11.054688,323.957031 12.117188,323.789062 13.15625,323.445312 L125.214844,286.164062 L129.238281,290.1875 L121.570312,297.855469 C116.507812,302.921875 113.71875,309.671875 113.71875,316.867188 C113.71875,324.0625 116.507812,330.8125 121.570312,335.878906 L130.460938,344.769531 L96.949219,378.28125 C92.050781,383.179688 89.355469,389.707031 89.355469,396.664062 C89.355469,403.621094 92.050781,410.152344 96.953125,415.050781 C101.851562,419.949219 108.378906,422.644531 115.335938,422.644531 C122.292969,422.644531 128.824219,419.949219 133.722656,415.050781 L167.234375,381.539062 L176.121094,390.429688 C181.1875,395.492188 187.9375,398.28125 195.132812,398.28125 C202.328125,398.28125 209.078125,395.492188 214.144531,390.429688 L221.8125,382.761719 L225.839844,386.785156 L188.554688,498.84375 C187.167969,503.019531 188.667969,507.609375 192.257812,510.15625 C193.992188,511.386719 196.019531,512 198.042969,512 C200.203125,512 202.359375,511.304688 204.15625,509.917969 L360.984375,388.859375 C363.4375,386.96875 364.875,384.042969 364.875,380.945312 L364.875,303.164062 C370.101562,298.25 375.285156,293.238281 380.398438,288.121094 C431.105469,237.414062 471.3125,182.066406 493.617188,132.273438 C495.804688,127.382812 497.800781,122.59375 499.597656,117.90625 C499.613281,117.859375 499.632812,117.816406 499.648438,117.769531 Z M481.765625,30.234375 C494.925781,43.394531 495.359375,69.699219 483.429688,103.917969 C464.035156,102.601562 445.414062,94.238281 431.589844,80.410156 C417.746094,66.570312 409.394531,47.945312 408.082031,28.507812 C424.019531,22.960938 438.632812,20 451.289062,20 C464.71875,20 474.972656,23.445312 481.765625,30.234375 Z M135.972656,167.128906 L190.765625,167.128906 C162.152344,200.082031 138.046875,234.296875 120.941406,266.507812 L37.945312,294.121094 L135.972656,167.128906 Z M135.714844,321.738281 C133.074219,319.097656 133.074219,314.636719 135.714844,312 L143.382812,304.332031 L157.140625,318.089844 L144.605469,330.628906 L135.714844,321.738281 Z M119.578125,400.90625 C118.457031,402.027344 116.953125,402.644531 115.335938,402.644531 C113.722656,402.644531 112.214844,402.027344 111.09375,400.90625 C109.972656,399.785156 109.355469,398.28125 109.355469,396.664062 C109.355469,395.050781 109.972656,393.542969 111.09375,392.421875 L268.460938,235.054688 C269.582031,233.933594 271.085938,233.316406 272.703125,233.316406 C274.316406,233.316406 275.824219,233.933594 276.945312,235.054688 C279.242188,237.351562 279.242188,241.230469 276.953125,243.53125 C276.949219,243.53125 276.949219,243.535156 276.945312,243.539062 C276.941406,243.539062 276.957031,243.527344 276.953125,243.53125 L119.578125,400.90625 Z M200,376.285156 C198.714844,377.574219 196.984375,378.28125 195.132812,378.28125 C193.28125,378.28125 191.550781,377.574219 190.261719,376.285156 L181.375,367.398438 L193.910156,354.859375 L207.667969,368.617188 L200,376.285156 Z M344.871094,376.03125 L217.878906,474.054688 L245.492188,391.0625 C277.699219,373.953125 311.917969,349.851562 344.871094,321.234375 L344.871094,376.03125 Z M366.253906,273.976562 C325.453125,314.777344 280.574219,349.273438 239.121094,371.785156 L235.953125,368.617188 L257.898438,346.671875 C261.804688,342.769531 261.804688,336.4375 257.898438,332.53125 C253.992188,328.625 247.664062,328.625 243.753906,332.53125 L221.8125,354.476562 L208.050781,340.71875 L291.085938,257.683594 C291.175781,257.59375 291.257812,257.5 291.347656,257.410156 C291.566406,257.183594 291.78125,256.960938 291.992188,256.730469 C292.089844,256.621094 292.179688,256.511719 292.277344,256.402344 C292.46875,256.179688 292.664062,255.960938 292.851562,255.730469 C292.925781,255.636719 292.996094,255.542969 293.074219,255.445312 C293.269531,255.199219 293.46875,254.949219 293.65625,254.695312 C293.707031,254.628906 293.75,254.558594 293.800781,254.488281 C294.007812,254.203125 294.210938,253.914062 294.40625,253.621094 C294.429688,253.582031 294.453125,253.542969 294.480469,253.503906 C294.691406,253.179688 294.898438,252.851562 295.09375,252.519531 C295.101562,252.503906 295.109375,252.492188 295.117188,252.480469 C296.183594,250.667969 297.019531,248.734375 297.617188,246.71875 C297.628906,246.675781 297.640625,246.625 297.65625,246.578125 C297.753906,246.234375 297.851562,245.886719 297.9375,245.535156 C297.972656,245.386719 298,245.234375 298.035156,245.085938 C298.09375,244.839844 298.148438,244.59375 298.199219,244.34375 C298.261719,244.015625 298.316406,243.6875 298.367188,243.355469 C298.378906,243.285156 298.394531,243.214844 298.40625,243.140625 C298.78125,240.597656 298.78125,238.003906 298.40625,235.457031 C298.390625,235.367188 298.375,235.28125 298.359375,235.191406 C298.3125,234.882812 298.261719,234.570312 298.199219,234.257812 C298.148438,233.984375 298.085938,233.71875 298.023438,233.449219 C297.992188,233.320312 297.96875,233.191406 297.9375,233.066406 C297.847656,232.691406 297.746094,232.324219 297.636719,231.957031 C297.628906,231.929688 297.625,231.90625 297.617188,231.882812 C296.902344,229.453125 295.835938,227.148438 294.4375,225.027344 C294.425781,225.011719 294.417969,224.996094 294.410156,224.980469 C294.199219,224.660156 293.976562,224.347656 293.753906,224.039062 C293.722656,223.996094 293.691406,223.949219 293.660156,223.90625 C293.449219,223.621094 293.230469,223.34375 293.007812,223.066406 C292.957031,223.003906 292.90625,222.933594 292.855469,222.867188 C292.632812,222.597656 292.402344,222.335938 292.171875,222.070312 C292.113281,222.007812 292.058594,221.9375 291.996094,221.871094 C291.703125,221.546875 291.398438,221.226562 291.085938,220.914062 C289.554688,219.382812 287.867188,218.066406 286.054688,216.980469 C282.066406,214.59375 277.484375,213.316406 272.703125,213.316406 C272.699219,213.316406 272.699219,213.316406 272.699219,213.316406 C265.742188,213.316406 259.214844,216.015625 254.316406,220.914062 L171.28125,303.949219 L157.523438,290.1875 L179.46875,268.246094 C183.375,264.339844 183.375,258.007812 179.46875,254.101562 C175.5625,250.199219 169.234375,250.199219 165.324219,254.101562 L143.378906,276.046875 L140.214844,272.878906 C162.722656,231.425781 197.21875,186.546875 238.019531,145.746094 C287.910156,95.855469 342.414062,56.832031 388.742188,36.203125 C391.632812,58.113281 401.703125,78.8125 417.445312,94.554688 C433.171875,110.28125 453.847656,120.347656 475.734375,123.246094 C475.609375,123.53125 475.488281,123.8125 475.363281,124.097656 C454.03125,171.722656 415.28125,224.949219 366.253906,273.976562 Z" id="Shape" fill="#000000" fill-rule="nonzero"></path>
            <path d="M264.238281,312.046875 L264.070312,312.214844 C260.164062,316.117188 260.164062,322.449219 264.070312,326.355469 C266.023438,328.308594 268.582031,329.285156 271.140625,329.285156 C273.703125,329.285156 276.257812,328.308594 278.210938,326.355469 L278.378906,326.1875 C282.285156,322.285156 282.285156,315.953125 278.378906,312.046875 C274.476562,308.140625 268.144531,308.140625 264.238281,312.046875 Z" id="Path" fill="#000000"></path>
            <path d="M185.808594,233.617188 L185.640625,233.785156 C181.738281,237.6875 181.738281,244.019531 185.640625,247.925781 C187.59375,249.878906 190.152344,250.855469 192.710938,250.855469 C195.273438,250.855469 197.832031,249.878906 199.785156,247.925781 L199.949219,247.757812 C203.855469,243.855469 203.855469,237.523438 199.949219,233.617188 C196.042969,229.710938 189.714844,229.710938 185.808594,233.617188 Z" id="Path" fill="#000000"></path>
        </g>
    </g>
</svg>