<?xml version="1.0" encoding="UTF-8"?>
<svg width="512px" height="458px" viewBox="0 0 512 458" version="1.1" xmlns="http://www.w3.org/2000/svg" xmlns:xlink="http://www.w3.org/1999/xlink">
    <!-- Generator: Sketch 52.2 (67145) - http://www.bohemiancoding.com/sketch -->
    <title>3</title>
    <desc>Created with Sketch.</desc>
    <g id="Page-1" stroke="none" stroke-width="1" fill="none" fill-rule="evenodd">
        <g id="3">
            <circle id="Oval" fill="#E88168" cx="228.977" cy="228.993" r="159.984"></circle>
            <circle id="Oval" fill="#FFFFFF" cx="228.977" cy="228.993" r="91.991"></circle>
            <g id="Group" transform="translate(10.000000, 10.000000)" fill="#F9BF3B">
                <polygon id="Path" points="0.099 66.694 77.192 144.153 144.223 144.153 66.939 66.694"></polygon>
                <polygon id="Path" points="144.223 144.153 66.939 66.694 66.939 0.028 144.223 77.121"></polygon>
            </g>
            <path d="M479.581,447.984 L248.98,447.984 C241.905,447.984 236.168,442.249 236.168,435.172 L236.168,242.005 L492.392,242.005 L492.392,435.172 C492.392,442.248 486.657,447.984 479.581,447.984 Z" id="Path" fill="#7ACCFF"></path>
            <path d="M226.56,242.005 L226.56,303.343 C226.56,317.494 238.032,328.965 252.182,328.965 L339.939,328.965 L388.622,328.893 L476.362,328.949 C490.52,328.958 502,317.484 502,303.327 L502,242.005 L226.56,242.005 Z" id="Path" fill="#C7EAFF"></path>
            <g id="Group" transform="translate(311.000000, 203.000000)" fill="#FFFFFF">
                <path d="M71.216,104.812 L35.345,104.812 C34.284,104.812 33.423,105.672 33.423,106.734 L33.423,132.388 C33.423,143.355 42.313,152.245 53.28,152.245 C64.247,152.245 73.137,143.355 73.137,132.388 L73.137,106.734 C73.138,105.673 72.277,104.812 71.216,104.812 Z" id="Path"></path>
                <path d="M0.785,37.674 L0.785,8.32 C0.785,3.77 4.473,0.083 9.022,0.083 L97.537,0.083 C102.087,0.083 105.774,3.771 105.774,8.32 L105.774,37.674 L0.785,37.674 Z" id="Path"></path>
            </g>
            <path d="M431.969,179.103 L432.029,179.346 C433.138,183.922 437.229,186.991 441.738,186.991 C442.518,186.991 443.311,186.899 444.102,186.707 C449.468,185.406 452.765,180.001 451.463,174.634 L451.381,174.298 C450.054,168.937 444.633,165.668 439.273,166.994 C433.913,168.321 430.642,173.742 431.969,179.103 Z" id="Path" fill="#000000"></path>
            <path d="M144.963,190.155 C139.73,188.395 134.059,191.209 132.297,196.442 C128.775,206.906 126.989,217.858 126.989,228.994 C126.989,265.057 145.445,297.724 176.357,316.377 C177.974,317.352 179.754,317.816 181.513,317.816 C184.901,317.816 188.205,316.092 190.083,312.98 C192.937,308.251 191.416,302.106 186.687,299.252 C161.827,284.252 146.985,257.986 146.985,228.992 C146.985,220.03 148.42,211.224 151.249,202.82 C153.011,197.587 150.197,191.916 144.963,190.155 Z" id="Path" fill="#000000"></path>
            <path d="M200.412,152.113 C209.536,148.721 219.146,147.002 228.979,147.002 C249.954,147.002 269.911,154.916 285.173,169.287 C287.104,171.106 289.567,172.007 292.025,172.007 C294.685,172.007 297.339,170.952 299.307,168.862 C303.093,164.841 302.902,158.513 298.882,154.727 C279.895,136.85 255.069,127.004 228.978,127.004 C216.759,127.004 204.803,129.146 193.443,133.368 C188.267,135.293 185.631,141.048 187.555,146.225 C189.479,151.401 195.234,154.038 200.412,152.113 Z" id="Path" fill="#000000"></path>
            <path d="M512,242.005 C512,236.484 507.523,232.006 502.001,232.006 L426.775,232.006 L426.775,211.32 C426.775,201.265 418.594,193.084 408.539,193.084 L395.116,193.084 C388.242,161.134 372.411,132.034 349.176,108.798 C309.749,69.371 253.416,51.788 198.483,61.755 C193.05,62.741 189.444,67.945 190.43,73.379 C191.416,78.813 196.621,82.415 202.054,81.432 C250.533,72.634 300.247,88.15 335.035,122.94 C354.514,142.419 368.1,166.561 374.609,193.085 L320.024,193.085 C309.969,193.085 301.788,201.266 301.788,211.321 L301.788,232.007 L226.562,232.007 C221.04,232.007 216.563,236.485 216.563,242.006 L216.563,303.345 C216.563,312.731 220.218,321.274 226.171,327.644 L226.171,378.958 C187.163,378.292 150.734,362.861 122.925,335.051 C87.23,299.356 71.938,248.473 82.019,198.937 C83.12,193.526 79.626,188.246 74.215,187.145 C68.802,186.043 63.524,189.538 62.423,194.949 C51.001,251.078 68.331,308.738 108.783,349.191 C139.909,380.317 182.302,398.185 226.17,398.94 L226.17,435.173 C226.17,436.111 226.233,437.033 226.344,437.941 C112.323,436.523 19.998,343.346 19.998,228.995 C19.998,193.238 29.093,158.286 46.368,127.312 L80.105,161.209 C81.982,163.095 84.533,164.155 87.192,164.155 L150.082,164.155 L211.735,225.808 C213.688,227.761 216.247,228.737 218.805,228.737 C221.363,228.737 223.923,227.761 225.875,225.808 C229.78,221.903 229.78,215.572 225.875,211.666 L164.221,150.013 L164.221,87.123 C164.221,84.467 163.164,81.92 161.283,80.044 L127.452,46.296 C158.386,29.079 193.28,20.015 228.976,20.015 C310.092,20.015 384.556,67.588 418.685,141.214 C420.377,144.864 423.989,147.01 427.763,147.01 C429.171,147.01 430.601,146.711 431.962,146.08 C436.972,143.757 439.151,137.813 436.829,132.803 C418.71,93.715 390.008,60.592 353.823,37.016 C316.676,12.811 273.504,0.018 228.977,0.018 C187.955,0.018 147.889,10.947 112.779,31.659 L84.001,2.949 C81.138,0.094 76.84,-0.758 73.107,0.792 C69.373,2.341 66.941,5.985 66.941,10.027 L66.941,66.694 L10.099,66.694 C6.058,66.694 2.416,69.125 0.866,72.855 C-0.684,76.586 0.162,80.882 3.012,83.746 L31.745,112.615 C10.965,147.772 0,187.901 0,228.994 C0,290.156 23.818,347.658 67.066,390.906 C110.314,434.155 167.816,457.972 228.978,457.972 L479.581,457.983 C492.159,457.983 502.392,447.751 502.392,435.172 L502.392,327.648 C508.592,321.028 512,312.441 512,303.326 L512,242.004 L512,242.005 Z M86.938,34.126 L144.224,91.27 L144.224,129.974 L86.938,72.559 L86.938,34.126 Z M72.791,86.693 L130.083,144.153 L91.347,144.153 L34.158,86.693 C34.158,86.693 72.791,86.693 72.791,86.693 Z M321.784,213.082 L406.775,213.082 L406.775,232.006 L321.784,232.006 L321.784,213.082 Z M236.559,252.004 L492.002,252.004 L492.002,303.327 C492.002,307.503 490.376,311.427 487.423,314.378 C484.472,317.327 480.551,318.951 476.379,318.951 C476.376,318.951 476.373,318.951 476.369,318.951 L394.137,318.899 L394.137,309.735 C394.137,303.162 388.79,297.814 382.216,297.814 L346.345,297.814 C339.772,297.814 334.424,303.161 334.424,309.735 L334.424,318.967 L252.182,318.967 C243.567,318.967 236.559,311.958 236.559,303.344 L236.559,252.004 Z M374.139,317.811 L374.139,335.388 C374.139,340.824 369.716,345.246 364.281,345.246 C358.846,345.246 354.423,340.823 354.423,335.388 L354.423,317.811 L374.139,317.811 Z M479.581,437.985 L261.237,437.985 C261.165,437.984 261.096,437.974 261.024,437.974 L248.872,437.974 C247.371,437.917 246.166,436.687 246.166,435.172 L246.166,338.446 C248.123,338.78 250.131,338.964 252.181,338.964 L334.645,338.964 C336.418,353.747 349.028,365.244 364.28,365.244 C379.555,365.244 392.181,353.71 393.923,338.895 L476.355,338.947 C476.363,338.947 476.37,338.947 476.378,338.947 C478.415,338.947 480.424,338.767 482.392001,338.434 L482.392,389.982 L416.774,389.982 C411.252,389.982 406.775,394.46 406.775,399.981 C406.775,405.502 411.252,409.98 416.774,409.98 L482.392,409.98 L482.392,435.171 C482.393,436.723 481.132,437.985 479.581,437.985 Z" id="Shape" fill="#000000" fill-rule="nonzero"></path>
            <path d="M367.785,389.983 C365.145,389.983 362.576,391.052 360.706,392.913 C358.846,394.773 357.786,397.353 357.786,399.982 C357.786,402.611 358.846,405.191 360.706,407.05 C362.576,408.91 365.146,409.981 367.785,409.981 C370.415,409.981 372.984,408.911 374.854,407.05 C376.714,405.191 377.784,402.611 377.784,399.982 C377.784,397.353 376.714,394.773 374.854,392.913 C372.994,391.053 370.414,389.983 367.785,389.983 Z" id="Path" fill="#000000"></path>
        </g>
    </g>
</svg>