<?xml version="1.0" encoding="UTF-8"?>
<svg width="512px" height="421px" viewBox="0 0 512 421" version="1.1" xmlns="http://www.w3.org/2000/svg" xmlns:xlink="http://www.w3.org/1999/xlink">
    <!-- Generator: Sketch 52.2 (67145) - http://www.bohemiancoding.com/sketch -->
    <title>1</title>
    <desc>Created with Sketch.</desc>
    <g id="Page-1" stroke="none" stroke-width="1" fill="none" fill-rule="evenodd">
        <g id="1" transform="translate(-1.000000, 0.000000)">
            <g id="Group" transform="translate(122.000000, 10.000000)" fill="#E9C1A4">
                <path d="M371.035156,137.097656 C365.925781,136.804688 360.808594,136.714844 355.773438,136.898438 L356.753906,151.390625 C359.351562,152.25 360.789062,152.769531 360.789062,152.769531 L371.035156,137.097656 Z" id="Path"></path>
                <path d="M203.824219,262.691406 C210.125,265.554688 217.152344,268.007812 224.925781,269.617188 L217.839844,256.410156 C213.039062,258.828125 208.371094,260.90625 203.824219,262.691406 Z" id="Path"></path>
                <path d="M301.738281,34.046875 L302.195312,27.566406 L304.148438,0 C156.125,5.449219 220.871094,100.25 184.828125,130.257812 C189.011719,154.707031 184.46875,172.339844 175.144531,183.910156 C146.421875,219.558594 72.316406,197.636719 68.109375,140.003906 C45.945312,157.976562 32.875,182.125 0.199219,179.984375 C32.152344,216.207031 68.628906,194.542969 68.628906,194.542969 L56.195312,278.1875 C68.914062,272.039062 78.554688,259.328125 85.5625,240.789062 C96.625,249.695312 118.308594,268.480469 151.390625,271.285156 C166.472656,272.566406 183.929688,270.511719 203.824219,262.695312 C208.371094,260.910156 213.039062,258.832031 217.839844,256.414062 L224.925781,269.621094 L262.464844,339.59375 C269.722656,337.773438 276.945312,335.824219 284.128906,333.742188 L279.53125,265.992188 L271.367188,145.691406 L270.773438,136.929688 L270.769531,136.902344 C305.582031,135.621094 344.363281,147.304688 356.753906,151.394531 L355.773438,136.902344 C360.808594,136.714844 365.925781,136.804688 371.035156,137.097656 L381,121.859375 C363.101562,93.476562 322.132812,47.652344 301.738281,34.046875 Z" id="Path"></path>
            </g>
            <path d="M308.253906,152.707031 C308.039062,148.769531 307.578125,144.625 306.832031,140.257812 C303.238281,143.246094 298.644531,145.59375 292.738281,147.144531 C286.582031,148.761719 280.871094,149.992188 275.507812,150.925781 C259.746094,153.671875 247.179688,153.695312 236.511719,152.207031 C239.40625,179.636719 258.304688,198.648438 280.167969,206.765625 C297.449219,199.222656 309.824219,181.773438 308.253906,152.707031 Z" id="Path" fill="#03C9A9"></path>
            <path d="M461.550781,324.824219 C443.402344,332 424.90625,338.3125 406.128906,343.742188 C398.945312,345.820312 391.722656,347.769531 384.464844,349.589844 C351.863281,357.761719 318.527344,363.304688 284.8125,366.15625 C274.835938,367 264.828125,367.621094 254.792969,367.992188 C208.632812,369.691406 162.542969,366.300781 117.449219,357.996094 C117.210938,366.296875 122.769531,375.003906 135.578125,379.03125 C183.957031,394.246094 234.066406,403.929688 284.820312,407.917969 C351.25,402.691406 416.382812,387.714844 477.816406,363.550781 C487.921875,359.578125 494.078125,353.90625 496.972656,348.015625 C504.871094,331.925781 488.4375,314.195312 461.550781,324.824219 Z" id="Path" fill="#E26A6A"></path>
            <path d="M479.375,172.167969 C483.738281,173.753906 488.621094,172.128906 491.160156,168.242188 L511.371094,137.328125 C513.511719,134.054688 513.546875,129.832031 511.457031,126.523438 C495.351562,100.980469 457.578125,57.277344 434.105469,39.207031 L436.125,10.707031 C436.324219,7.875 435.3125,5.09375 433.339844,3.050781 C431.367188,1.007812 428.613281,-0.0976562 425.78125,0.0078125 C316.769531,4.019531 313.328125,56.714844 310.8125,95.191406 C309.574219,114.152344 308.382812,125.855469 300.570312,132.460938 C300.550781,132.476562 300.527344,132.5 300.507812,132.515625 C297.890625,134.710938 294.535156,136.335938 290.195312,137.472656 C245.964844,149.082031 226.4375,140.984375 205.765625,132.40625 C194.109375,127.570312 182.058594,122.570312 166.191406,121.550781 C121.789062,118.707031 100.167969,139.902344 82.792969,156.9375 C68.902344,170.5625 57.925781,181.324219 37.847656,180.007812 C33.808594,179.75 30.003906,181.945312 28.21875,185.578125 C26.433594,189.214844 27.015625,193.566406 29.695312,196.601562 C48.898438,218.367188 69.863281,221.789062 84.070312,220.824219 C87.382812,220.601562 90.46875,220.136719 93.285156,219.539062 L75.609375,338.464844 C66.894531,336.191406 58.21875,333.75 49.601562,331.09375 C44.394531,329.492188 39.292969,328.675781 34.4375,328.675781 C17.246094,328.675781 3.625,339.207031 1.308594,354.285156 C-0.621094,366.859375 6.304688,382.335938 26.128906,388.570312 C92.464844,409.429688 161.585938,420.007812 231.566406,420.007812 C239.976562,420.007812 248.503906,419.851562 256.910156,419.542969 C334.414062,416.691406 409.96875,400.980469 481.476562,372.855469 C504.988281,363.605469 510.726562,346.582031 508.496094,334.8125 C505.863281,320.929688 493.222656,311.601562 477.039062,311.601562 C470.90625,311.601562 464.457031,312.921875 457.875,315.523438 C443.835938,321.074219 429.625,326.089844 415.257812,330.574219 L403.472656,156.894531 C440.335938,158.167969 478.957031,172.015625 479.375,172.167969 Z M295.277344,156.816406 C296.34375,156.535156 297.371094,156.230469 298.375,155.910156 C298.792969,173.496094 293.320312,186.625 282.207031,194.265625 C268.023438,204.019531 245.457031,203.324219 227.332031,192.570312 C211.789062,183.347656 202.375,168.90625 200.347656,151.808594 C221.582031,160.578125 246.261719,169.683594 295.277344,156.816406 Z M465.226562,334.125 C469.460938,332.453125 473.433594,331.601562 477.039062,331.601562 C483.414062,331.601562 488.046875,334.324219 488.847656,338.539062 C489.71875,343.136719 485.515625,349.777344 474.15625,354.246094 C404.757812,381.542969 331.417969,396.789062 256.175781,399.558594 C248.015625,399.855469 239.734375,400.011719 231.566406,400.011719 C163.621094,400.011719 96.519531,389.742188 32.128906,369.492188 C24.527344,367.101562 20.292969,362.4375 21.078125,357.320312 C21.738281,353.019531 26.125,348.679688 34.433594,348.679688 C37.292969,348.679688 40.414062,349.191406 43.707031,350.210938 C56.089844,354.027344 68.578125,357.4375 81.152344,360.484375 C81.390625,360.550781 81.628906,360.605469 81.875,360.65625 C91.066406,362.871094 100.300781,364.882812 109.582031,366.6875 C109.734375,366.722656 109.886719,366.75 110.042969,366.777344 C149.945312,374.5 190.601562,378.417969 231.5625,378.417969 C239.394531,378.417969 247.335938,378.269531 255.160156,377.984375 C327.6875,375.3125 398.363281,360.558594 465.226562,334.125 Z M343.0625,293.574219 C343.0625,293.578125 343.066406,293.578125 343.066406,293.582031 L369.53125,342.910156 C331.933594,351.503906 293.460938,356.558594 254.425781,357.996094 C246.84375,358.273438 239.152344,358.417969 231.5625,358.417969 C196.132812,358.417969 160.941406,355.394531 126.292969,349.425781 L148.238281,301.601562 C169.421875,304.792969 194.550781,299.550781 211.480469,266.640625 C221.257812,273.972656 234.824219,282.625 252.539062,287.617188 C278.59375,294.960938 306.46875,292.226562 335.511719,279.5 L343.0625,293.574219 Z M389.578125,337.972656 L348.652344,261.683594 C348.652344,261.683594 348.648438,261.683594 348.648438,261.679688 L341.289062,247.957031 C338.679688,243.09375 332.617188,241.261719 327.75,243.875 C322.882812,246.484375 321.054688,252.546875 323.664062,257.414062 L326.023438,261.8125 C267.726562,286.667969 232.773438,258.34375 215.53125,244.371094 L213.832031,243 C211.335938,240.988281 208.027344,240.296875 204.9375,241.140625 C201.84375,241.980469 199.339844,244.253906 198.207031,247.253906 C187.023438,276.847656 170.59375,287.113281 144.941406,280.539062 C140.257812,279.335938 135.382812,281.660156 133.367188,286.054688 L106.046875,345.59375 C102.398438,344.839844 98.757812,344.050781 95.121094,343.226562 L115.519531,206.011719 C116.085938,202.191406 114.40625,198.386719 111.203125,196.238281 C107.996094,194.085938 103.839844,193.972656 100.519531,195.941406 C100.449219,195.984375 93.160156,200.160156 82.71875,200.867188 C75.285156,201.375 68.21875,199.984375 61.582031,196.722656 C76.050781,191.5625 86.542969,181.273438 96.800781,171.214844 C113.574219,154.769531 129.417969,139.226562 164.914062,141.507812 C170.363281,141.859375 175.25,142.804688 179.9375,144.140625 C179.78125,171.5 193.300781,195.632812 217.128906,209.769531 C229.917969,217.359375 244.207031,221.164062 257.882812,221.164062 C270.933594,221.164062 283.429688,217.699219 293.542969,210.746094 C304.910156,202.929688 322.609375,184.019531 317.476562,143.917969 C328.488281,131.402344 329.683594,113.183594 330.773438,96.492188 C333.128906,60.476562 335.363281,26.371094 415.378906,20.589844 L413.765625,43.339844 C413.511719,46.925781 415.203125,50.371094 418.191406,52.367188 C435.839844,64.140625 472.117188,103.957031 491.050781,131.863281 L478.648438,150.832031 C463.097656,145.898438 426.324219,135.65625 392.40625,136.902344 C389.703125,137.003906 387.152344,138.195312 385.34375,140.203125 C383.53125,142.214844 382.613281,144.875 382.796875,147.574219 L395.609375,336.339844 C393.597656,336.898438 391.589844,337.441406 389.578125,337.972656 Z" id="Shape" fill="#000000" fill-rule="nonzero"></path>
            <path d="M412.863281,95.082031 C419,94.859375 423.777344,90.023438 423.535156,84.285156 C423.292969,78.546875 418.125,74.078125 411.988281,74.304688 C405.851562,74.527344 401.070312,79.363281 401.3125,85.101562 C401.554688,90.839844 406.726562,95.308594 412.863281,95.082031 Z" id="Path" fill="#000000"></path>
            <path d="M327.601562,222.449219 C325,217.578125 318.941406,215.738281 314.070312,218.339844 C309.199219,220.941406 307.359375,227 309.960938,231.871094 L310.070312,232.078125 C311.871094,235.449219 315.328125,237.371094 318.902344,237.371094 C320.492188,237.371094 322.105469,236.992188 323.601562,236.191406 C328.476562,233.589844 330.316406,227.53125 327.714844,222.660156 L327.601562,222.449219 Z" id="Path" fill="#000000"></path>
        </g>
    </g>
</svg>