<?xml version="1.0" encoding="UTF-8"?>
<svg width="512px" height="512px" viewBox="0 0 512 512" version="1.1" xmlns="http://www.w3.org/2000/svg" xmlns:xlink="http://www.w3.org/1999/xlink">
    <!-- Generator: Sketch 52.2 (67145) - http://www.bohemiancoding.com/sketch -->
    <title>4</title>
    <desc>Created with Sketch.</desc>
    <g id="Page-1" stroke="none" stroke-width="1" fill="none" fill-rule="evenodd">
        <g id="4">
            <path d="M297.976562,10 L30,10 C18.953125,10 10,18.953125 10,30 L10,482 C10,493.046875 18.953125,502 30,502 L373.976562,502 C385.019531,502 393.976562,493.046875 393.976562,482 L393.976562,106.003906 L297.976562,10 Z" id="Path" fill="#FFFFFF"></path>
            <path d="M317.976562,106.003906 L393.976562,106.003906 L297.976562,10.003906 L297.976562,86.003906 C297.976562,97.050781 306.929688,106.003906 317.976562,106.003906 Z" id="Path" fill="#FEDA9B"></path>
            <polygon id="Path" fill="#03C9A9" points="158 412.375 190 412.375 190 502 158 502"></polygon>
            <polygon id="Path" fill="#72D8FF" points="366 285 398 285 398 502 366 502"></polygon>
            <polygon id="Path" fill="#F9BF3B" points="256 355 294 355 294 502 256 502"></polygon>
            <polygon id="Path" fill="#4DBAF6" points="463 218.75 502 218.75 502 502 463 502"></polygon>
            <path d="M145.574219,174.152344 L145.574219,108.429688 C125.5625,123.378906 112.601562,147.25 112.601562,174.152344 C112.601562,210.890625 136.769531,241.984375 170.074219,252.402344 C203.382812,241.984375 227.550781,210.890625 227.550781,174.152344 L145.574219,174.152344 Z" id="Path" fill="#03C9A9"></path>
            <path d="M182.597656,71.15625 L182.597656,174.152344 L255,174.152344 C255,126.714844 224.808594,86.332031 182.597656,71.15625 Z" id="Path" fill="#F9BF3B"></path>
            <path d="M502,208.75 L438,208.75 C432.476562,208.75 428,213.226562 428,218.75 L428,269.25 C428,274.769531 432.476562,279.25 438,279.25 C443.523438,279.25 448,274.769531 448,269.25 L448,228.75 L492,228.75 L492,492 L448,492 L448,344.25 C448,338.726562 443.523438,334.25 438,334.25 C432.476562,334.25 428,338.726562 428,344.25 L428,492 L408,492 L408,285 C408,279.476562 403.523438,275 398,275 L334,275 C328.476562,275 324,279.476562 324,285 L324,492 L304,492 L304,355 C304,349.476562 299.523438,345 294,345 L230,345 C224.476562,345 220,349.476562 220,355 L220,492 L200,492 L200,412.375 C200,406.851562 195.523438,402.375 190,402.375 L126,402.375 C120.476562,402.375 116,406.851562 116,412.375 L116,492 L30,492 C24.484375,492 20,487.515625 20,482 L20,30 C20,24.484375 24.484375,20 30,20 L287.976562,20 L287.976562,86.003906 C287.976562,102.546875 301.433594,116.003906 317.976562,116.003906 L383.976562,116.003906 L383.976562,239 C383.976562,244.523438 388.453125,249 393.976562,249 C399.496094,249 403.976562,244.523438 403.976562,239 L403.976562,106.003906 C403.976562,103.351562 402.921875,100.808594 401.046875,98.933594 L305.046875,2.929688 C303.171875,1.054688 300.628906,0 297.976562,0 L30,0 C13.457031,0 0,13.457031 0,30 L0,482 C0,498.542969 13.457031,512 30,512 L502,512 C507.523438,512 512,507.523438 512,502 L512,218.75 C512,213.226562 507.523438,208.75 502,208.75 Z M307.976562,86.003906 L307.976562,34.144531 L369.835938,96.003906 L317.976562,96.003906 C312.460938,96.003906 307.976562,91.515625 307.976562,86.003906 Z M136,492 L136,422.375 L180,422.375 L180,492 L136,492 Z M240,492 L240,365 L284,365 L284,492 L240,492 Z M344,492 L344,295 L388,295 L388,492 L344,492 Z" id="Shape" fill="#000000" fill-rule="nonzero"></path>
            <path d="M438,314.890625 C440.628906,314.890625 443.210938,313.820312 445.070312,311.960938 C446.929688,310.101562 448,307.519531 448,304.890625 C448,302.261719 446.929688,299.679688 445.070312,297.820312 C443.210938,295.949219 440.628906,294.890625 438,294.890625 C435.371094,294.890625 432.789062,295.949219 430.929688,297.820312 C429.070312,299.679688 428,302.261719 428,304.890625 C428,307.519531 429.070312,310.101562 430.929688,311.960938 C432.789062,313.820312 435.371094,314.890625 438,314.890625 Z" id="Path" fill="#000000"></path>
            <path d="M145.578125,54.730469 C140.054688,54.730469 135.578125,59.207031 135.578125,64.730469 L135.578125,82.71875 C89.546875,87.714844 53.601562,126.816406 53.601562,174.152344 C53.601562,224.867188 94.863281,266.128906 145.578125,266.128906 C192.914062,266.128906 232.015625,230.183594 237.011719,184.152344 L255,184.152344 C260.523438,184.152344 265,179.675781 265,174.152344 C265,108.300781 211.425781,54.730469 145.578125,54.730469 Z M145.578125,246.128906 C105.890625,246.128906 73.601562,213.839844 73.601562,174.152344 C73.601562,137.859375 100.605469,107.753906 135.578125,102.871094 L135.578125,174.152344 C135.578125,179.675781 140.054688,184.152344 145.578125,184.152344 L216.859375,184.152344 C211.976562,219.121094 181.871094,246.128906 145.578125,246.128906 Z M155.578125,164.152344 L155.578125,75.226562 C202.429688,79.929688 239.800781,117.300781 244.5,164.152344 L155.578125,164.152344 Z" id="Shape" fill="#000000" fill-rule="nonzero"></path>
            <path d="M265,304.25 C265,298.726562 260.523438,294.25 255,294.25 L64,294.25 C58.476562,294.25 54,298.726562 54,304.25 C54,309.773438 58.476562,314.25 64,314.25 L255,314.25 C260.523438,314.25 265,309.773438 265,304.25 Z" id="Path" fill="#000000"></path>
            <path d="M64,342.5 C58.476562,342.5 54,346.976562 54,352.5 C54,358.023438 58.476562,362.5 64,362.5 L128,362.5 C133.523438,362.5 138,358.023438 138,352.5 C138,346.976562 133.523438,342.5 128,342.5 L64,342.5 Z" id="Path" fill="#000000"></path>
            <path d="M171.011719,345.429688 C169.140625,347.289062 168.078125,349.871094 168.078125,352.5 C168.078125,355.128906 169.140625,357.710938 171.011719,359.570312 C172.871094,361.429688 175.441406,362.5 178.078125,362.5 C180.710938,362.5 183.289062,361.429688 185.148438,359.570312 C187.011719,357.710938 188.078125,355.128906 188.078125,352.5 C188.078125,349.871094 187.011719,347.289062 185.148438,345.429688 C183.289062,343.570312 180.710938,342.5 178.078125,342.5 C175.441406,342.5 172.871094,343.570312 171.011719,345.429688 Z" id="Path" fill="#000000"></path>
        </g>
    </g>
</svg>