<?xml version="1.0" encoding="iso-8859-1"?>
<!-- Generator: Adobe Illustrator 19.0.0, SVG Export Plug-In . SVG Version: 6.00 Build 0)  -->
<svg version="1.1" id="Capa_1" xmlns="http://www.w3.org/2000/svg" xmlns:xlink="http://www.w3.org/1999/xlink" x="0px" y="0px"
	 viewBox="0 0 512 512" style="enable-background:new 0 0 512 512;" xml:space="preserve">
<path style="fill:#FCB043;" d="M487.932,140.031c9.15,0,16.568,7.418,16.568,16.567v298.199c0,9.15-7.418,16.567-16.568,16.567
	h-86.975H111.042H24.067c-9.15,0-16.567-7.417-16.567-16.567V156.599c0-9.15,7.417-16.567,16.567-16.567h463.865V140.031z"/>
<path style="fill:#EF9122;" d="M484.5,156.599v298.199c0,9.15-7.418,16.567-16.568,16.567h20c9.15,0,16.568-7.418,16.568-16.567
	V156.599c0-9.15-7.418-16.567-16.568-16.567h-20C477.082,140.031,484.5,147.449,484.5,156.599z"/>
<path style="fill:#FFCE94;" d="M503.106,149.958c-2.177-4.967-6.716-8.651-12.198-9.647H21.091
	c-5.482,0.996-10.021,4.681-12.198,9.648c0.014,0.01,0.026,0.022,0.039,0.032l242.626,178.315c1.321,0.971,2.881,1.457,4.441,1.457
	c1.56,0,3.12-0.485,4.441-1.457l242.625-178.315C503.08,149.982,503.092,149.969,503.106,149.958z"/>
<path style="fill:#FCB043;" d="M503.066,149.992c0.014-0.01,0.026-0.022,0.04-0.033c-0.148-0.339-0.31-0.67-0.48-0.997
	c-0.106-0.204-0.219-0.404-0.333-0.603c-0.115-0.2-0.235-0.395-0.358-0.59c-0.184-0.292-0.377-0.577-0.579-0.855
	c-0.135-0.187-0.271-0.372-0.413-0.553c-0.147-0.187-0.298-0.371-0.453-0.552c-0.152-0.177-0.311-0.347-0.47-0.517
	c-0.248-0.265-0.505-0.522-0.77-0.771c-0.138-0.129-0.277-0.256-0.419-0.381c-0.192-0.168-0.384-0.335-0.583-0.494
	c-0.263-0.21-0.533-0.411-0.809-0.605c-0.221-0.155-0.449-0.302-0.678-0.446c-0.129-0.082-0.261-0.16-0.392-0.238
	c-0.418-0.248-0.848-0.477-1.289-0.688c-0.105-0.051-0.209-0.104-0.316-0.152c-0.266-0.12-0.535-0.233-0.808-0.34
	c-0.105-0.041-0.212-0.077-0.318-0.116c-0.484-0.178-0.978-0.333-1.481-0.466c-0.121-0.032-0.241-0.064-0.362-0.093
	c-0.293-0.07-0.588-0.136-0.887-0.19l0,0h-20c7.728,1.404,13.592,8.154,13.592,16.286v7.038L503.066,149.992z"/>
<path style="fill:#DEF2FC;" d="M117.466,438.233H46.633c-3.314,0-6-2.686-6-6V361.4c0-3.314,2.686-6,6-6h70.833c3.314,0,6,2.686,6,6
	v70.833C123.466,435.547,120.779,438.233,117.466,438.233z"/>
<g>
	<path style="fill:#04A1EE;" d="M92.617,413.384H71.482c-3.314,0-6-2.686-6-6v-21.135c0-3.314,2.686-6,6-6h21.135
		c3.314,0,6,2.686,6,6v21.135C98.617,410.698,95.931,413.384,92.617,413.384z"/>
	<circle style="fill:#04A1EE;" cx="256" cy="140.03" r="99.4"/>
</g>
<path style="fill:#0084CE;" d="M256.001,40.637c-3.376,0-6.711,0.17-10,0.499c50.2,5.015,89.398,47.379,89.398,98.9
	s-39.198,93.885-89.398,98.9c3.289,0.328,6.624,0.499,10,0.499c54.896,0,99.398-44.502,99.398-99.398
	C355.399,85.139,310.897,40.637,256.001,40.637z"/>
<path style="fill:#DEF2FC;" d="M194.737,144.301l51.426,45.991c3.873,3.464,10.018,0.702,10-4.493l-0.109-31.062l39.595,35.521
	c3.871,3.472,10.025,0.713,10.007-4.487l-0.32-91.606c-0.018-5.179-6.149-7.904-10.005-4.447l-39.38,35.303l-0.108-30.884
	c-0.018-5.175-6.14-7.901-9.998-4.453l-51.105,45.671C192.07,137.741,192.069,141.917,194.737,144.301z"/>
<path d="M40.633,347.9c-4.142,0-7.5,3.358-7.5,7.5v82.833c0,4.142,3.358,7.5,7.5,7.5h82.832c4.142,0,7.5-3.358,7.5-7.5V355.4
	c0-4.142-3.358-7.5-7.5-7.5H40.633z M115.966,430.733H48.133V362.9h67.832v67.833H115.966z"/>
<path d="M65.482,420.884h33.135c4.142,0,7.5-3.358,7.5-7.5v-33.135c0-4.142-3.358-7.5-7.5-7.5H65.482c-4.142,0-7.5,3.358-7.5,7.5
	v33.135C57.982,417.526,61.34,420.884,65.482,420.884z M72.982,387.749h18.135v18.135H72.982V387.749z"/>
<path d="M206.299,364.466h-49.7c-4.142,0-7.5,3.358-7.5,7.5s3.358,7.5,7.5,7.5h49.7c4.142,0,7.5-3.358,7.5-7.5
	S210.441,364.466,206.299,364.466z"/>
<path d="M206.299,397.602h-49.698c-4.142,0-7.5,3.358-7.5,7.5s3.358,7.5,7.5,7.5h49.698c4.142,0,7.5-3.358,7.5-7.5
	S210.441,397.602,206.299,397.602z"/>
<path d="M231.15,397.602c-4.142,0-7.5,3.358-7.5,7.5s3.358,7.5,7.5,7.5H256c4.142,0,7.5-3.358,7.5-7.5s-3.358-7.5-7.5-7.5H231.15z"
	/>
<path d="M259.284,206.12c2.702-1.214,4.436-3.905,4.426-6.868l-0.097-27.657l37.081,33.266c1.404,1.26,3.195,1.917,5.01,1.917
	c1.038,0,2.083-0.215,3.067-0.657c2.705-1.213,4.441-3.905,4.431-6.87l-0.414-118.486c-0.01-2.954-1.754-5.627-4.454-6.827
	s-5.853-0.703-8.052,1.269l-36.89,33.071l-0.096-27.513c-0.01-2.952-1.752-5.623-4.449-6.825c-2.696-1.201-5.848-0.709-8.049,1.259
	l-66.061,59.036c-1.592,1.422-2.502,3.456-2.502,5.591c-0.001,2.135,0.909,4.169,2.501,5.592l66.475,59.45
	C253.417,206.842,256.581,207.331,259.284,206.12z M248.65,182.456l-47.663-42.626l47.367-42.33l0.096,27.548
	c0.01,2.954,1.754,5.627,4.454,6.827c2.698,1.2,5.851,0.703,8.052-1.269l36.89-33.071l0.296,84.885l-37.081-33.266
	c-2.207-1.98-5.372-2.474-8.077-1.261s-4.441,3.905-4.431,6.87L248.65,182.456z"/>
<path d="M503.771,138.499c-0.146-0.138-0.297-0.267-0.451-0.391c-0.074-0.061-0.148-0.122-0.223-0.182
	c-0.009-0.007-0.018-0.015-0.027-0.022c-4.138-3.357-9.405-5.374-15.137-5.374H362.632c-3.865-55.456-50.21-99.395-106.631-99.395
	S153.234,77.074,149.369,132.53H24.067c-5.728,0-10.993,2.015-15.13,5.369c-0.024,0.018-0.047,0.038-0.071,0.056
	c-0.054,0.044-0.109,0.088-0.162,0.133c-0.167,0.133-0.329,0.272-0.486,0.421C3.186,142.924,0,149.394,0,156.599v298.199
	c0,13.271,10.796,24.067,24.067,24.067h367.235c4.142,0,7.5-3.358,7.5-7.5s-3.358-7.5-7.5-7.5H24.067
	c-4.999,0-9.067-4.067-9.067-9.067V156.599c0-0.682,0.082-1.343,0.225-1.982l236.333,173.691c1.321,0.971,2.881,1.457,4.441,1.457
	s3.12-0.485,4.441-1.457l236.333-173.692c0.143,0.639,0.225,1.301,0.225,1.983v298.199c0,4.999-4.067,9.067-9.067,9.067H421.25
	c-4.142,0-7.5,3.358-7.5,7.5s3.358,7.5,7.5,7.5h66.683c13.271,0,24.067-10.796,24.067-24.067V156.599
	C512,149.389,508.809,142.915,503.771,138.499z M256.001,48.137c50.667,0,91.888,41.216,91.898,91.88
	c0,0.005-0.001,0.01-0.001,0.015s0.001,0.011,0.001,0.016c-0.007,50.667-41.23,91.886-91.898,91.886
	c-50.673,0-91.899-41.226-91.899-91.898C164.102,89.361,205.328,48.137,256.001,48.137z M256,312.956L30.914,147.531h118.455
	c3.861,55.459,50.208,99.402,106.632,99.402c56.423,0,102.771-43.943,106.632-99.402h118.452L256,312.956z"/>
<g>
</g>
<g>
</g>
<g>
</g>
<g>
</g>
<g>
</g>
<g>
</g>
<g>
</g>
<g>
</g>
<g>
</g>
<g>
</g>
<g>
</g>
<g>
</g>
<g>
</g>
<g>
</g>
<g>
</g>
</svg>
