<?xml version="1.0" encoding="iso-8859-1"?>
<!-- Generator: Adobe Illustrator 19.0.0, SVG Export Plug-In . SVG Version: 6.00 Build 0)  -->
<svg version="1.1" id="Capa_1" xmlns="http://www.w3.org/2000/svg" xmlns:xlink="http://www.w3.org/1999/xlink" x="0px" y="0px"
	 viewBox="0 0 512 512" style="enable-background:new 0 0 512 512;" xml:space="preserve">
<path style="fill:#FCB043;" d="M487.932,140.03c9.15,0,16.568,7.418,16.568,16.568v298.199c0,9.15-7.418,16.568-16.568,16.568
	h-86.975H111.042H24.067c-9.15,0-16.567-7.418-16.567-16.568v-298.2c0-9.15,7.417-16.568,16.567-16.568h463.865V140.03z"/>
<path style="fill:#EF9122;" d="M484.5,156.597v298.199c0,9.15-7.418,16.568-16.568,16.568h20c9.15,0,16.568-7.418,16.568-16.568
	V156.597c0-9.15-7.418-16.568-16.568-16.568h-20C477.082,140.03,484.5,147.447,484.5,156.597z"/>
<path style="fill:#FFCE94;" d="M503.106,149.958c-2.177-4.967-6.716-8.651-12.198-9.647H21.091
	c-5.482,0.996-10.021,4.681-12.197,9.648c0.014,0.01,0.026,0.022,0.039,0.032l242.626,178.315c1.321,0.971,2.881,1.457,4.441,1.457
	s3.12-0.485,4.441-1.457l242.624-178.315C503.08,149.98,503.092,149.968,503.106,149.958z"/>
<path style="fill:#FCB043;" d="M503.066,149.991c0.014-0.01,0.026-0.023,0.04-0.033c-0.148-0.339-0.31-0.67-0.48-0.997
	c-0.106-0.204-0.219-0.404-0.333-0.603c-0.115-0.2-0.235-0.395-0.358-0.59c-0.184-0.291-0.377-0.577-0.579-0.855
	c-0.135-0.187-0.271-0.372-0.414-0.553c-0.147-0.187-0.298-0.371-0.453-0.552c-0.152-0.177-0.311-0.347-0.47-0.517
	c-0.248-0.265-0.505-0.522-0.77-0.771c-0.138-0.129-0.277-0.256-0.419-0.381c-0.192-0.168-0.384-0.335-0.583-0.494
	c-0.263-0.21-0.533-0.411-0.809-0.605c-0.221-0.155-0.449-0.302-0.678-0.446c-0.129-0.082-0.261-0.16-0.392-0.238
	c-0.418-0.248-0.848-0.477-1.289-0.688c-0.105-0.051-0.209-0.104-0.316-0.152c-0.266-0.12-0.535-0.233-0.808-0.34
	c-0.105-0.041-0.212-0.077-0.318-0.116c-0.484-0.177-0.978-0.333-1.481-0.466c-0.12-0.032-0.241-0.064-0.362-0.093
	c-0.293-0.07-0.588-0.136-0.887-0.19l0,0h-20c7.728,1.404,13.592,8.154,13.592,16.286v7.038L503.066,149.991z"/>
<path style="fill:#DEF2FC;" d="M117.466,438.232H46.633c-3.314,0-6-2.686-6-6v-70.833c0-3.314,2.686-6,6-6h70.833
	c3.314,0,6,2.686,6,6v70.833C123.466,435.546,120.78,438.232,117.466,438.232z"/>
<g>
	<path style="fill:#04A1EE;" d="M92.617,413.384H71.482c-3.314,0-6-2.686-6-6v-21.135c0-3.314,2.686-6,6-6h21.135
		c3.314,0,6,2.686,6,6v21.135C98.617,410.697,95.931,413.384,92.617,413.384z"/>
	<circle style="fill:#04A1EE;" cx="256" cy="140.029" r="99.4"/>
</g>
<path style="fill:#0084CE;" d="M256.001,40.635c-3.375,0-6.711,0.17-10,0.499c50.2,5.015,89.398,47.379,89.398,98.9
	s-39.198,93.885-89.398,98.9c3.289,0.329,6.625,0.499,10,0.499c54.896,0,99.398-44.502,99.398-99.398
	C355.399,85.137,310.897,40.635,256.001,40.635z"/>
<path style="fill:#DEF2FC;" d="M224.635,152.403l15.211-15.211v63.107c0,3.314,2.686,6,6,6h21.133c3.314,0,6-2.686,6-6v-63.108
	l14.798,14.798c2.343,2.343,6.142,2.343,8.485,0l14.944-14.944c2.343-2.343,2.343-6.142,0-8.485l-50.549-50.551
	c-2.343-2.343-6.142-2.343-8.485,0l-50.965,50.965c-2.343,2.343-2.343,6.142,0,8.485l14.944,14.944
	C218.493,154.746,222.292,154.746,224.635,152.403z"/>
<path d="M40.633,347.901c-4.142,0-7.5,3.358-7.5,7.5v82.832c0,4.142,3.358,7.5,7.5,7.5h82.832c4.142,0,7.5-3.358,7.5-7.5v-82.832
	c0-4.142-3.358-7.5-7.5-7.5H40.633z M115.966,430.733H48.133v-67.832h67.832v67.832H115.966z"/>
<path d="M65.482,420.885h33.135c4.142,0,7.5-3.358,7.5-7.5v-33.136c0-4.142-3.358-7.5-7.5-7.5H65.482c-4.142,0-7.5,3.358-7.5,7.5
	v33.135C57.982,417.527,61.34,420.885,65.482,420.885z M72.982,387.749h18.135v18.135H72.982V387.749z"/>
<path d="M206.299,364.466h-49.7c-4.142,0-7.5,3.358-7.5,7.5s3.358,7.5,7.5,7.5h49.7c4.142,0,7.5-3.358,7.5-7.5
	S210.441,364.466,206.299,364.466z"/>
<path d="M206.299,397.602h-49.698c-4.142,0-7.5,3.358-7.5,7.5s3.358,7.5,7.5,7.5h49.698c4.142,0,7.5-3.358,7.5-7.5
	C213.799,400.959,210.441,397.602,206.299,397.602z"/>
<path d="M231.15,397.602c-4.142,0-7.5,3.358-7.5,7.5s3.358,7.5,7.5,7.5H256c4.142,0,7.5-3.358,7.5-7.5s-3.358-7.5-7.5-7.5H231.15z"
	/>
<path d="M215.089,161.949c2.928,2.929,7.677,2.929,10.606,0l6.651-6.65v51c0,4.142,3.358,7.5,7.5,7.5h33.133
	c4.142,0,7.5-3.358,7.5-7.5v-51.002l6.238,6.238c2.929,2.929,7.678,2.929,10.606,0l23.429-23.429
	c1.407-1.406,2.197-3.314,2.197-5.303s-0.79-3.897-2.197-5.303l-59.036-59.036c-2.929-2.929-7.678-2.929-10.606,0l-59.45,59.45
	c-2.929,2.929-2.929,7.678,0,10.606L215.089,161.949z M256.414,84.373l48.43,48.43l-12.823,12.822l-13.738-13.738
	c-2.145-2.145-5.372-2.786-8.173-1.626c-2.803,1.161-4.63,3.896-4.63,6.929v61.609h-18.133v-61.607c0-3.034-1.827-5.768-4.63-6.929
	c-2.803-1.161-6.029-0.519-8.173,1.626l-14.151,14.15l-12.822-12.822L256.414,84.373z"/>
<path d="M503.764,138.493c-0.138-0.13-0.282-0.252-0.428-0.37c-4.177-3.489-9.549-5.592-15.404-5.592h-125.3
	c-3.864-55.456-50.21-99.395-106.631-99.395S153.234,77.074,149.37,132.53H24.067c-5.732,0-11,2.017-15.139,5.375
	c-0.01,0.007-0.019,0.015-0.028,0.022c-0.073,0.059-0.146,0.118-0.219,0.179c-0.156,0.125-0.309,0.256-0.455,0.395
	C3.19,142.915,0,149.389,0,156.597v298.199c0,13.271,10.796,24.067,24.067,24.067h367.235c4.142,0,7.5-3.358,7.5-7.5
	s-3.358-7.5-7.5-7.5H24.067c-5,0-9.067-4.067-9.067-9.067V156.597c0-0.681,0.082-1.343,0.225-1.981l236.334,173.691
	c1.321,0.971,2.881,1.457,4.441,1.457s3.12-0.485,4.441-1.457l236.333-173.692c0.143,0.639,0.225,1.301,0.225,1.982v298.199
	c0,4.999-4.067,9.067-9.067,9.067H421.25c-4.142,0-7.5,3.358-7.5,7.5s3.358,7.5,7.5,7.5h66.683
	c13.271,0,24.067-10.796,24.067-24.067V156.597C512,149.384,508.806,142.908,503.764,138.493z M256.001,48.134
	c50.667,0,91.888,41.216,91.898,91.881c0,0.005-0.001,0.01-0.001,0.015s0.001,0.011,0.001,0.016
	c-0.007,50.667-41.23,91.885-91.898,91.885c-50.673,0-91.899-41.226-91.899-91.898C164.102,89.36,205.328,48.134,256.001,48.134z
	 M256,312.956L30.912,147.53h118.457c3.861,55.459,50.209,99.401,106.632,99.401s102.77-43.943,106.632-99.401h118.454L256,312.956z
	"/>
<g>
</g>
<g>
</g>
<g>
</g>
<g>
</g>
<g>
</g>
<g>
</g>
<g>
</g>
<g>
</g>
<g>
</g>
<g>
</g>
<g>
</g>
<g>
</g>
<g>
</g>
<g>
</g>
<g>
</g>
</svg>
