<?xml version="1.0" encoding="iso-8859-1"?>
<!-- Generator: Adobe Illustrator 19.0.0, SVG Export Plug-In . SVG Version: 6.00 Build 0)  -->
<svg version="1.1" id="Capa_1" xmlns="http://www.w3.org/2000/svg" xmlns:xlink="http://www.w3.org/1999/xlink" x="0px" y="0px"
	 viewBox="0 0 512 512" style="enable-background:new 0 0 512 512;" xml:space="preserve">
<path style="fill:#FCB043;" d="M487.932,140.031c9.15,0,16.568,7.418,16.568,16.568v298.199c0,9.15-7.418,16.568-16.568,16.568
	h-86.975H111.042H24.067c-9.15,0-16.567-7.418-16.567-16.568V156.599c0-9.15,7.417-16.568,16.567-16.568H487.932z"/>
<path style="fill:#EF9122;" d="M484.5,156.599v298.199c0,9.15-7.418,16.568-16.568,16.568h20c9.15,0,16.568-7.418,16.568-16.568
	V156.599c0-9.15-7.418-16.568-16.568-16.568h-20C477.082,140.031,484.5,147.449,484.5,156.599z"/>
<path style="fill:#FFCE94;" d="M503.106,149.959c-2.177-4.967-6.716-8.651-12.198-9.647H21.091
	c-5.482,0.996-10.021,4.681-12.198,9.648c0.014,0.01,0.026,0.022,0.039,0.032l242.626,178.315c1.321,0.971,2.881,1.457,4.441,1.457
	c1.56,0,3.12-0.485,4.441-1.457l242.625-178.315C503.08,149.982,503.092,149.97,503.106,149.959z"/>
<path style="fill:#FCB043;" d="M503.066,149.992c0.014-0.01,0.026-0.023,0.04-0.033c-0.148-0.339-0.31-0.67-0.48-0.997
	c-0.106-0.204-0.219-0.404-0.333-0.603c-0.115-0.2-0.235-0.395-0.358-0.59c-0.184-0.292-0.377-0.577-0.579-0.855
	c-0.135-0.187-0.271-0.372-0.414-0.553c-0.147-0.187-0.298-0.371-0.453-0.552c-0.152-0.177-0.311-0.347-0.47-0.517
	c-0.248-0.265-0.505-0.522-0.77-0.771c-0.138-0.129-0.277-0.256-0.419-0.381c-0.192-0.168-0.384-0.335-0.583-0.494
	c-0.263-0.21-0.533-0.411-0.809-0.605c-0.221-0.155-0.449-0.302-0.678-0.446c-0.129-0.082-0.261-0.16-0.392-0.238
	c-0.418-0.248-0.848-0.477-1.289-0.688c-0.105-0.051-0.209-0.104-0.316-0.152c-0.266-0.12-0.535-0.233-0.808-0.34
	c-0.105-0.041-0.212-0.077-0.318-0.116c-0.484-0.178-0.978-0.333-1.481-0.466c-0.12-0.032-0.241-0.064-0.362-0.093
	c-0.293-0.07-0.588-0.136-0.887-0.19l0,0h-20c7.728,1.403,13.592,8.154,13.592,16.286v7.038L503.066,149.992z"/>
<path style="fill:#DEF2FC;" d="M117.466,438.234H46.633c-3.314,0-6-2.686-6-6v-70.833c0-3.314,2.686-6,6-6h70.833
	c3.314,0,6,2.686,6,6v70.833C123.466,435.548,120.779,438.234,117.466,438.234z"/>
<path style="fill:#04A1EE;" d="M92.617,413.385H71.482c-3.314,0-6-2.686-6-6V386.25c0-3.314,2.686-6,6-6h21.135c3.314,0,6,2.686,6,6
	v21.135C98.617,410.699,95.931,413.385,92.617,413.385z"/>
<circle style="fill:#E94141;" cx="256" cy="140.03" r="99.4"/>
<path style="fill:#C62525;" d="M256.001,40.637c-3.375,0-6.711,0.17-10,0.499c50.2,5.015,89.399,47.379,89.399,98.9
	s-39.198,93.885-89.399,98.9c3.289,0.328,6.624,0.499,10,0.499c54.896,0,99.399-44.502,99.399-99.398
	C355.399,85.139,310.897,40.637,256.001,40.637z"/>
<g>
	<path style="fill:#DEF2FC;" d="M281.902,79.034c-8.737-3.72-18.434-5.621-28.621-5.212c-34.271,1.376-62.117,29.221-63.492,63.492
		c-0.409,10.187,1.492,19.884,5.212,28.621c1.666,3.914,6.764,4.904,9.772,1.896l79.025-79.025
		C286.807,85.798,285.817,80.7,281.902,79.034z"/>
	<path style="fill:#DEF2FC;" d="M230.098,201.033c8.737,3.72,18.434,5.621,28.621,5.212c33.106-1.329,62.164-30.387,63.493-63.493
		c0.409-10.188-1.492-19.884-5.212-28.621c-1.667-3.914-6.764-4.904-9.772-1.896l-79.025,79.025
		C225.194,194.268,226.184,199.366,230.098,201.033z"/>
</g>
<path d="M197.978,181.125c0.315,0.04,0.629,0.06,0.942,0.06c1.976,0,3.888-0.781,5.303-2.197l90.733-90.732
	c1.639-1.639,2.428-3.945,2.137-6.245c-0.291-2.3-1.63-4.336-3.626-5.516c-11.325-6.691-24.281-10.228-37.466-10.228
	c-40.675,0-73.767,33.091-73.767,73.766c0,13.186,3.537,26.142,10.229,37.467C193.642,179.496,195.678,180.834,197.978,181.125z
	 M256.001,81.267c7.169,0,14.25,1.312,20.892,3.838l-75.82,75.82c-2.527-6.641-3.838-13.723-3.838-20.892
	C197.234,107.629,223.597,81.267,256.001,81.267z"/>
<path d="M214.908,198.055c0.291,2.3,1.629,4.336,3.625,5.516c11.326,6.692,24.282,10.229,37.468,10.229
	c40.675,0,73.766-33.092,73.766-73.767c0-13.187-3.537-26.143-10.229-37.468c-1.18-1.996-3.216-3.334-5.516-3.626
	c-2.304-0.291-4.605,0.499-6.245,2.138l-90.732,90.733C215.406,193.45,214.617,195.755,214.908,198.055z M310.929,119.14
	c2.526,6.641,3.838,13.723,3.838,20.893c0,32.404-26.362,58.767-58.766,58.767c-7.169,0-14.252-1.312-20.893-3.839L310.929,119.14z"
	/>
<path d="M40.633,347.903c-4.142,0-7.5,3.358-7.5,7.5v82.833c0,4.142,3.358,7.5,7.5,7.5h82.833c4.142,0,7.5-3.358,7.5-7.5v-82.833
	c0-4.142-3.358-7.5-7.5-7.5H40.633z M115.966,430.736H48.133v-67.833h67.833V430.736z"/>
<path d="M65.482,420.887h33.135c4.142,0,7.5-3.358,7.5-7.5v-33.135c0-4.142-3.358-7.5-7.5-7.5H65.482c-4.142,0-7.5,3.358-7.5,7.5
	v33.135C57.982,417.529,61.34,420.887,65.482,420.887z M72.982,387.752h18.135v18.135H72.982V387.752z"/>
<path d="M206.299,364.468h-49.7c-4.142,0-7.5,3.358-7.5,7.5s3.358,7.5,7.5,7.5h49.7c4.142,0,7.5-3.358,7.5-7.5
	S210.441,364.468,206.299,364.468z"/>
<path d="M206.299,397.604h-49.698c-4.142,0-7.5,3.358-7.5,7.5s3.358,7.5,7.5,7.5h49.698c4.142,0,7.5-3.358,7.5-7.5
	S210.441,397.604,206.299,397.604z"/>
<path d="M231.15,397.604c-4.142,0-7.5,3.358-7.5,7.5s3.358,7.5,7.5,7.5H256c4.143,0,7.5-3.358,7.5-7.5s-3.357-7.5-7.5-7.5H231.15z"
	/>
<path d="M503.751,138.483c-0.124-0.117-0.253-0.225-0.383-0.332c-4.182-3.505-9.565-5.62-15.435-5.62h-125.3
	c-3.864-55.457-50.209-99.396-106.631-99.396s-102.768,43.94-106.632,99.396H24.067c-5.856,0-11.228,2.104-15.405,5.594
	c-0.146,0.118-0.29,0.24-0.428,0.371C3.193,142.911,0,149.387,0,156.599v298.199c0,13.271,10.796,24.067,24.067,24.067h367.234
	c4.143,0,7.5-3.358,7.5-7.5s-3.357-7.5-7.5-7.5H24.067c-5,0-9.067-4.067-9.067-9.067V156.599c0-0.681,0.082-1.342,0.225-1.981
	L251.559,328.31c1.321,0.971,2.881,1.457,4.441,1.457s3.12-0.485,4.441-1.457l236.334-173.693c0.143,0.639,0.225,1.301,0.225,1.982
	v298.199c0,5-4.067,9.067-9.067,9.067H421.25c-4.143,0-7.5,3.358-7.5,7.5s3.357,7.5,7.5,7.5h66.683
	c13.271,0,24.067-10.796,24.067-24.067V156.599C512,149.38,508.801,142.898,503.751,138.483z M256.001,48.135
	c50.667,0,91.889,41.216,91.898,91.881c0,0.005-0.001,0.01-0.001,0.015s0.001,0.01,0.001,0.016
	c-0.008,50.667-41.23,91.885-91.898,91.885c-50.673,0-91.899-41.226-91.899-91.898C164.102,89.36,205.328,48.135,256.001,48.135z
	 M256,312.958L30.911,147.531h118.458c3.862,55.458,50.209,99.4,106.632,99.4s102.77-43.942,106.632-99.4h118.455L256,312.958z"/>
<g>
</g>
<g>
</g>
<g>
</g>
<g>
</g>
<g>
</g>
<g>
</g>
<g>
</g>
<g>
</g>
<g>
</g>
<g>
</g>
<g>
</g>
<g>
</g>
<g>
</g>
<g>
</g>
<g>
</g>
</svg>
