<?xml version="1.0" encoding="iso-8859-1"?>
<!-- Generator: Adobe Illustrator 19.0.0, SVG Export Plug-In . SVG Version: 6.00 Build 0)  -->
<svg version="1.1" id="Capa_1" xmlns="http://www.w3.org/2000/svg" xmlns:xlink="http://www.w3.org/1999/xlink" x="0px" y="0px"
	 viewBox="0 0 511.997 511.997" style="enable-background:new 0 0 511.997 511.997;" xml:space="preserve">
<path style="fill:#007BBF;" d="M503.84,350.757l-49.605-165.323l0.001,0.002c-1.893-7.066-8.341-12.269-16.005-12.269h-41.413
	H115.184H73.768c-7.663,0-14.111,5.203-16.004,12.269l0.001-0.002L8.159,350.757v18.075h495.68v-18.075H503.84z"/>
<polygon style="fill:#006AA6;" points="465.668,338.831 425.902,206.299 86.096,206.299 46.33,338.831 46.33,386.665 
	465.668,386.665 "/>
<path style="fill:#DEF2FC;" d="M115.184,378.831v-332.2c0-3.314,2.686-6,6-6h201.082l74.551,74.552v263.648H115.184z"/>
<polygon style="fill:#BCCED5;" points="396.818,378.831 376.818,378.831 376.818,95.183 396.818,115.183 "/>
<path style="fill:#FFFFFF;" d="M328.266,115.183h68.551l-74.551-74.552v68.552C322.266,112.497,324.953,115.183,328.266,115.183z"/>
<path style="fill:#04A1EE;" d="M358.401,338.831h129.531c9.15,0,16.568,7.418,16.568,16.568v99.396
	c0,9.15-7.418,16.568-16.568,16.568H24.067c-9.15,0-16.567-7.418-16.567-16.568v-99.396c0-9.15,7.417-16.568,16.567-16.568h129.532
	c1.889,0,3.667,0.889,4.8,2.4l21.251,28.335c1.133,1.511,2.911,2.4,4.8,2.4h143.1c1.889,0,3.667-0.889,4.8-2.4l21.251-28.335
	C354.734,339.72,356.513,338.831,358.401,338.831z"/>
<g>
	<path style="fill:#0084CE;" d="M138.399,341.23l21.251,28.335c1.133,1.511,2.911,2.4,4.8,2.4h20c-1.889,0-3.667-0.889-4.8-2.4
		l-21.251-28.335c-1.133-1.511-2.911-2.4-4.8-2.4h-20C135.488,338.831,137.266,339.72,138.399,341.23z"/>
	<path style="fill:#0084CE;" d="M487.932,338.831h-20c9.15,0,16.568,7.418,16.568,16.568v99.396c0,9.15-7.418,16.568-16.568,16.568
		h20c9.15,0,16.568-7.418,16.568-16.568v-99.396C504.5,346.249,497.082,338.831,487.932,338.831z"/>
</g>
<g>
	<path style="fill:#DEF2FC;" d="M82.05,471.367v-43.701c0-3.314-2.686-6-6-6H54.917c-3.314,0-6,2.686-6,6v43.701H82.05z"/>
	<path style="fill:#DEF2FC;" d="M429.95,471.367v-43.701c0-3.314,2.686-6,6-6h21.134c3.314,0,6,2.686,6,6v43.701H429.95z"/>
</g>
<path d="M511.07,348.789c-0.017-0.063-0.027-0.125-0.046-0.188l-49.577-165.229c-2.853-10.432-12.381-17.706-23.216-17.706h-33.913
	v-50.483c0-0.084-0.01-0.165-0.013-0.249c-0.003-0.088-0.007-0.176-0.013-0.264c-0.021-0.312-0.056-0.62-0.114-0.92
	c-0.003-0.012-0.003-0.025-0.006-0.038c-0.066-0.33-0.158-0.65-0.266-0.963c-0.021-0.06-0.043-0.118-0.065-0.178
	c-0.11-0.295-0.233-0.582-0.378-0.858c-0.01-0.02-0.018-0.04-0.029-0.059c-0.156-0.292-0.335-0.569-0.526-0.837
	c-0.043-0.06-0.088-0.118-0.132-0.177c-0.204-0.267-0.419-0.525-0.657-0.763l-74.548-74.548c-0.238-0.238-0.496-0.453-0.764-0.658
	c-0.058-0.044-0.116-0.088-0.174-0.13c-0.268-0.193-0.546-0.371-0.839-0.528c-0.018-0.009-0.036-0.017-0.054-0.026
	c-0.278-0.146-0.567-0.27-0.864-0.38c-0.058-0.021-0.115-0.043-0.173-0.063c-0.314-0.108-0.635-0.201-0.967-0.267
	c-0.009-0.002-0.019-0.002-0.029-0.004c-0.303-0.059-0.615-0.094-0.93-0.116c-0.086-0.006-0.172-0.01-0.258-0.013
	c-0.084-0.003-0.166-0.013-0.251-0.013H115.184c-4.142,0-7.5,3.358-7.5,7.5v125.035H73.768c-10.834,0-20.363,7.274-23.216,17.706
	L0.976,348.6c-0.021,0.071-0.033,0.142-0.052,0.213C0.326,350.909,0,353.116,0,355.398v99.396c0,13.271,10.796,24.068,24.067,24.068
	H48.84c0.026,0,0.051,0.004,0.077,0.004s0.051-0.004,0.077-0.004h32.979c0.026,0,0.051,0.004,0.077,0.004s0.051-0.004,0.077-0.004
	h41.339c4.142,0,7.5-3.358,7.5-7.5s-3.358-7.5-7.5-7.5H89.55v-42.197c0-4.142-3.358-7.5-7.5-7.5H48.917c-4.142,0-7.5,3.358-7.5,7.5
	v42.197h-17.35c-5,0-9.067-4.068-9.067-9.068v-99.396c0-5,4.067-9.068,9.067-9.068h91.107c0.003,0,0.006,0.001,0.01,0.001
	c0.003,0,0.006-0.001,0.01-0.001h37.655l22.601,30.135c1.416,1.889,3.639,3,6,3h149.1c2.361,0,4.583-1.111,6-3l22.602-30.135h37.657
	c0.003,0,0.006,0.001,0.01,0.001s0.006-0.001,0.01-0.001h91.105c5,0,9.067,4.068,9.067,9.068v99.396c0,5-4.067,9.068-9.067,9.068
	h-17.35v-42.197c0-4.142-3.358-7.5-7.5-7.5H429.95c-4.142,0-7.5,3.358-7.5,7.5v42.197H153.414c-4.142,0-7.5,3.358-7.5,7.5
	s3.358,7.5,7.5,7.5h276.458c0.026,0,0.051,0.004,0.077,0.004s0.051-0.004,0.077-0.004h32.978c0.026,0,0.051,0.004,0.077,0.004
	s0.051-0.004,0.077-0.004h24.772c13.271,0,24.067-10.797,24.067-24.068v-99.396C512,353.107,511.671,350.891,511.07,348.789z
	 M56.417,429.165H74.55v34.697H56.417V429.165z M107.684,331.331H56.411l35.265-117.532h16.008
	C107.684,213.799,107.684,331.331,107.684,331.331z M107.684,198.799H73.767c-4.142,0-7.5,3.358-7.5,7.5s3.358,7.5,7.5,7.5h2.249
	L40.75,331.331H24.067c-0.77,0-1.531,0.04-2.283,0.111l43.147-143.801c0.027-0.087,0.053-0.176,0.077-0.266
	c1.058-3.951,4.661-6.71,8.76-6.71h33.916C107.684,180.664,107.684,198.799,107.684,198.799z M329.766,58.738l48.945,48.945h-48.945
	V58.738z M389.318,206.288c0,0.003,0,0.006,0,0.01c0,0.003,0,0.006,0,0.01V331.33h-33.917c-2.361,0-4.583,1.111-6,3L326.8,364.466
	H185.2l-22.601-30.135c-1.417-1.889-3.639-3-6-3h-33.915v-283.2h192.082v67.051c0,4.142,3.358,7.5,7.5,7.5h67.052V206.288z
	 M404.318,331.331V213.799h16.004l35.266,117.532H404.318z M487.933,331.331h-16.684l-35.266-117.532h2.249
	c4.142,0,7.5-3.358,7.5-7.5s-3.358-7.5-7.5-7.5h-33.914v-18.133h33.913c4.099,0,7.702,2.759,8.76,6.71
	c0.024,0.089,0.05,0.178,0.077,0.266l43.147,143.8C489.463,331.371,488.702,331.331,487.933,331.331z M455.583,463.863H437.45
	v-34.697h18.133V463.863z"/>
<path d="M396.034,438.229c0-4.142-3.358-7.5-7.5-7.5H123.466c-4.142,0-7.5,3.358-7.5,7.5s3.358,7.5,7.5,7.5h265.067
	C392.676,445.729,396.034,442.371,396.034,438.229z"/>
<path d="M222.868,130.965h66.265c4.142,0,7.5-3.358,7.5-7.5V90.333c0-4.142-3.358-7.5-7.5-7.5h-66.265c-4.142,0-7.5,3.358-7.5,7.5
	v33.133C215.368,127.608,218.726,130.965,222.868,130.965z M230.368,97.833h51.265v18.133h-51.265V97.833z"/>
<path d="M157.385,173.167c0,4.142,3.358,7.5,7.5,7.5h182.232c4.142,0,7.5-3.358,7.5-7.5s-3.358-7.5-7.5-7.5H164.885
	C160.743,165.667,157.385,169.025,157.385,173.167z"/>
<path d="M347.117,198.798H164.885c-4.142,0-7.5,3.358-7.5,7.5s3.358,7.5,7.5,7.5h182.232c4.142,0,7.5-3.358,7.5-7.5
	S351.259,198.798,347.117,198.798z"/>
<path d="M347.117,231.93H164.885c-4.142,0-7.5,3.358-7.5,7.5s3.358,7.5,7.5,7.5h182.232c4.142,0,7.5-3.358,7.5-7.5
	S351.259,231.93,347.117,231.93z"/>
<path d="M305.699,265.061h-99.396c-4.142,0-7.5,3.358-7.5,7.5s3.358,7.5,7.5,7.5h99.396c4.142,0,7.5-3.358,7.5-7.5
	C313.199,268.419,309.841,265.061,305.699,265.061z"/>
<g>
</g>
<g>
</g>
<g>
</g>
<g>
</g>
<g>
</g>
<g>
</g>
<g>
</g>
<g>
</g>
<g>
</g>
<g>
</g>
<g>
</g>
<g>
</g>
<g>
</g>
<g>
</g>
<g>
</g>
</svg>
