<?xml version="1.0" encoding="iso-8859-1"?>
<!-- Generator: Adobe Illustrator 19.0.0, SVG Export Plug-In . SVG Version: 6.00 Build 0)  -->
<svg version="1.1" id="Capa_1" xmlns="http://www.w3.org/2000/svg" xmlns:xlink="http://www.w3.org/1999/xlink" x="0px" y="0px"
	 viewBox="0 0 511.997 511.997" style="enable-background:new 0 0 511.997 511.997;" xml:space="preserve">
<path style="fill:#007BBF;" d="M503.84,350.756l-49.605-165.323l0.001,0.002c-1.893-7.066-8.341-12.269-16.004-12.269h-41.413
	H115.184H73.768c-7.663,0-14.112,5.203-16.005,12.269l0.001-0.002L8.159,350.756v18.075h495.68v-18.075H503.84z"/>
<polygon style="fill:#006AA6;" points="465.668,338.83 425.902,206.298 86.096,206.298 46.33,338.83 46.33,386.665 465.668,386.665 
	"/>
<path style="fill:#04A1EE;" d="M358.401,338.83h129.531c9.15,0,16.568,7.418,16.568,16.568v99.396
	c0,9.15-7.418,16.568-16.568,16.568H24.067c-9.15,0-16.567-7.418-16.567-16.568v-99.396c0-9.15,7.417-16.568,16.567-16.568h129.532
	c1.889,0,3.667,0.889,4.8,2.4l21.251,28.335c1.133,1.511,2.911,2.4,4.8,2.4h143.1c1.888,0,3.667-0.889,4.8-2.4l21.251-28.335
	C354.734,339.719,356.513,338.83,358.401,338.83z"/>
<g>
	<path style="fill:#0084CE;" d="M138.399,341.23l21.251,28.335c1.133,1.511,2.911,2.4,4.8,2.4h20c-1.889,0-3.667-0.889-4.8-2.4
		l-21.251-28.335c-1.133-1.511-2.911-2.4-4.8-2.4h-20C135.488,338.83,137.266,339.719,138.399,341.23z"/>
	<path style="fill:#0084CE;" d="M487.932,338.83h-20c9.15,0,16.568,7.418,16.568,16.568v99.396c0,9.15-7.418,16.568-16.568,16.568
		h20c9.15,0,16.568-7.418,16.568-16.568v-99.396C504.5,346.248,497.082,338.83,487.932,338.83z"/>
</g>
<g>
	<path style="fill:#DEF2FC;" d="M82.05,471.366v-43.701c0-3.314-2.686-6-6-6H54.917c-3.314,0-6,2.686-6,6v43.701H82.05z"/>
	<path style="fill:#DEF2FC;" d="M429.95,471.366v-43.701c0-3.314,2.686-6,6-6h21.134c3.314,0,6,2.686,6,6v43.701H429.95z"/>
</g>
<circle style="fill:#54CC4E;" cx="256" cy="140.028" r="99.4"/>
<path style="fill:#2C931D;" d="M256.001,40.632c-3.376,0-6.711,0.17-10,0.499c50.2,5.015,89.398,47.379,89.398,98.9
	s-39.198,93.885-89.398,98.9c3.289,0.328,6.624,0.499,10,0.499c54.896,0,99.398-44.502,99.398-99.398
	C355.399,85.134,310.897,40.632,256.001,40.632z"/>
<path style="fill:#DEF2FC;" d="M224.223,152.4l15.211-15.211v63.107c0,3.314,2.686,6,6,6h21.133c3.314,0,6-2.686,6-6v-63.108
	l14.798,14.799c2.343,2.343,6.142,2.343,8.485,0l14.944-14.944c2.343-2.343,2.343-6.142,0-8.485l-50.551-50.551
	c-2.343-2.343-6.142-2.343-8.485,0l-50.965,50.965c-2.343,2.343-2.343,6.142,0,8.485l14.943,14.944
	C218.081,154.743,221.88,154.743,224.223,152.4z"/>
<path d="M396.034,438.227c0-4.142-3.358-7.5-7.5-7.5H123.466c-4.142,0-7.5,3.358-7.5,7.5s3.358,7.5,7.5,7.5h265.067
	C392.676,445.727,396.034,442.369,396.034,438.227z"/>
<path d="M214.677,161.947c1.407,1.407,3.314,2.197,5.303,2.197s3.897-0.79,5.303-2.197l6.65-6.65v51c0,4.142,3.358,7.5,7.5,7.5
	h33.133c4.142,0,7.5-3.358,7.5-7.5v-51.002l6.238,6.238c1.406,1.407,3.314,2.197,5.303,2.197s3.897-0.79,5.303-2.197l23.429-23.429
	c2.929-2.929,2.929-7.678,0-10.607l-59.036-59.036c-1.406-1.407-3.314-2.197-5.303-2.197s-3.897,0.79-5.303,2.197l-59.45,59.451
	c-1.407,1.406-2.197,3.314-2.197,5.303s0.79,3.897,2.197,5.303L214.677,161.947z M256.001,84.371l48.43,48.43l-12.822,12.823
	l-13.738-13.738c-2.145-2.146-5.371-2.785-8.173-1.626c-2.803,1.161-4.63,3.896-4.63,6.929v61.608h-18.133V137.19
	c0-3.034-1.827-5.768-4.63-6.929c-2.802-1.159-6.028-0.519-8.173,1.626l-14.15,14.151l-12.823-12.822L256.001,84.371z"/>
<path d="M511.071,348.794c-0.018-0.065-0.029-0.13-0.048-0.195l-49.578-165.232c-2.854-10.431-12.381-17.703-23.215-17.703h-78.446
	c2.03-8.216,3.114-16.8,3.114-25.633c0-58.944-47.955-106.898-106.898-106.898c-58.944,0-106.899,47.955-106.899,106.898
	c0,8.834,1.084,17.418,3.114,25.633H73.768c-10.833,0-20.359,7.272-23.214,17.702L0.976,348.599
	c-0.022,0.073-0.035,0.147-0.054,0.22C0.326,350.912,0,353.117,0,355.398v99.396c0,13.271,10.796,24.068,24.067,24.068h24.801
	c0.016,0,0.032,0.002,0.048,0.002s0.032-0.002,0.048-0.002H82c0.016,0,0.032,0.002,0.048,0.002s0.032-0.002,0.048-0.002h41.368
	c4.142,0,7.5-3.358,7.5-7.5s-3.358-7.5-7.5-7.5H89.55v-42.198c0-4.142-3.358-7.5-7.5-7.5H48.917c-4.142,0-7.5,3.358-7.5,7.5v42.198
	h-17.35c-5,0-9.067-4.068-9.067-9.068v-99.396c0-5,4.067-9.068,9.067-9.068h128.782l22.601,30.135c1.417,1.889,3.639,3,6,3h149.1
	c2.361,0,4.584-1.111,6-3l22.602-30.135h128.781c5,0,9.067,4.068,9.067,9.068v99.396c0,5-4.067,9.068-9.067,9.068h-17.35v-42.198
	c0-4.142-3.358-7.5-7.5-7.5H429.95c-4.142,0-7.5,3.358-7.5,7.5v42.198H153.414c-4.142,0-7.5,3.358-7.5,7.5s3.358,7.5,7.5,7.5
	h276.487c0.016,0,0.032,0.002,0.048,0.002s0.032-0.002,0.048-0.002h33.036c0.016,0,0.032,0.002,0.048,0.002s0.032-0.002,0.048-0.002
	h24.801c13.271,0,24.067-10.797,24.067-24.068v-99.396C512,353.108,511.672,350.894,511.071,348.794z M56.417,429.163H74.55v34.698
	H56.417V429.163z M437.45,429.163h18.133v34.698H437.45V429.163z M256.001,48.132c50.673,0,91.898,41.226,91.898,91.898
	c0,50.673-41.226,91.898-91.898,91.898c-50.673,0-91.899-41.226-91.899-91.898C164.102,89.357,205.328,48.132,256.001,48.132z
	 M21.784,331.441l43.142-143.783c0.029-0.094,0.056-0.189,0.082-0.284c1.059-3.951,4.661-6.71,8.76-6.71h83.365
	c2.63,6.376,5.859,12.443,9.618,18.133H73.767c-4.142,0-7.5,3.358-7.5,7.5s3.358,7.5,7.5,7.5h2.249L40.75,331.33H24.067
	C23.297,331.33,22.536,331.37,21.784,331.441z M355.401,331.33c-2.361,0-4.583,1.111-6,3L326.8,364.465H185.2l-22.601-30.135
	c-1.417-1.889-3.639-3-6-3H56.41l35.266-117.534h87.026c19.479,20.403,46.93,33.132,77.299,33.132
	c30.368,0,57.819-12.73,77.298-33.132h87.023l35.266,117.534H355.401z M471.249,331.33l-35.266-117.534h2.249
	c4.142,0,7.5-3.358,7.5-7.5s-3.358-7.5-7.5-7.5H345.25c3.759-5.689,6.988-11.757,9.618-18.133h83.362c4.099,0,7.701,2.759,8.76,6.71
	c0.025,0.094,0.052,0.188,0.081,0.28l43.143,143.787c-0.752-0.071-1.512-0.111-2.282-0.111L471.249,331.33L471.249,331.33z"/>
<g>
</g>
<g>
</g>
<g>
</g>
<g>
</g>
<g>
</g>
<g>
</g>
<g>
</g>
<g>
</g>
<g>
</g>
<g>
</g>
<g>
</g>
<g>
</g>
<g>
</g>
<g>
</g>
<g>
</g>
</svg>
