<?xml version="1.0" encoding="iso-8859-1"?>
<!-- Generator: Adobe Illustrator 19.0.0, SVG Export Plug-In . SVG Version: 6.00 Build 0)  -->
<svg version="1.1" id="Capa_1" xmlns="http://www.w3.org/2000/svg" xmlns:xlink="http://www.w3.org/1999/xlink" x="0px" y="0px"
	 viewBox="0 0 511.998 511.998" style="enable-background:new 0 0 511.998 511.998;" xml:space="preserve">
<path style="fill:#007BBF;" d="M503.84,284.491l-49.605-165.323l0.001,0.002c-1.893-7.066-8.341-12.269-16.005-12.269h-41.413
	H115.184H73.768c-7.663,0-14.111,5.203-16.005,12.269l0.001-0.002L8.159,284.491v18.075H503.84V284.491z"/>
<polygon style="fill:#006AA6;" points="465.668,272.565 425.902,140.033 86.096,140.033 46.33,272.565 46.33,320.4 465.668,320.4 
	"/>
<path style="fill:#04A1EE;" d="M358.401,272.565h129.531c9.15,0,16.568,7.418,16.568,16.568v99.396
	c0,9.15-7.418,16.568-16.568,16.568H24.067c-9.15,0-16.567-7.418-16.567-16.568v-99.396c0-9.15,7.417-16.568,16.567-16.568h129.532
	c1.889,0,3.667,0.889,4.8,2.4L179.65,303.3c1.133,1.511,2.911,2.4,4.8,2.4h143.1c1.889,0,3.667-0.889,4.8-2.4l21.251-28.335
	C354.734,273.455,356.513,272.565,358.401,272.565z"/>
<g>
	<path style="fill:#0084CE;" d="M138.399,274.965L159.65,303.3c1.133,1.511,2.911,2.4,4.8,2.4h20c-1.889,0-3.667-0.889-4.8-2.4
		l-21.251-28.335c-1.133-1.511-2.911-2.4-4.8-2.4h-20C135.488,272.565,137.266,273.455,138.399,274.965z"/>
	<path style="fill:#0084CE;" d="M487.932,272.565h-20c9.15,0,16.568,7.418,16.568,16.568v99.396c0,9.15-7.418,16.568-16.568,16.568
		h20c9.15,0,16.568-7.418,16.568-16.568v-99.396C504.5,279.983,497.082,272.565,487.932,272.565z"/>
</g>
<g>
	<path style="fill:#DEF2FC;" d="M82.05,405.101V361.4c0-3.314-2.686-6-6-6H54.917c-3.314,0-6,2.686-6,6v43.701H82.05z"/>
	<path style="fill:#DEF2FC;" d="M429.95,405.101V361.4c0-3.314,2.686-6,6-6h21.134c3.314,0,6,2.686,6,6v43.701H429.95z"/>
</g>
<path d="M396.034,371.962c0-4.142-3.357-7.5-7.5-7.5H123.466c-4.142,0-7.5,3.358-7.5,7.5s3.358,7.5,7.5,7.5h265.068
	C392.677,379.462,396.034,376.104,396.034,371.962z"/>
<path d="M511.072,282.53c-0.018-0.065-0.029-0.131-0.048-0.196L461.45,117.117c-2.85-10.438-12.381-17.718-23.22-17.718H73.768
	c-10.833,0-20.361,7.274-23.215,17.705L0.976,282.334c-0.022,0.073-0.035,0.147-0.054,0.22C0.326,284.647,0,286.852,0,289.133
	v99.396c0,13.271,10.796,24.068,24.067,24.068h24.801c0.016,0,0.032,0.002,0.048,0.002s0.032-0.002,0.048-0.002H82
	c0.016,0,0.032,0.002,0.048,0.002s0.032-0.002,0.048-0.002h41.368c4.142,0,7.5-3.358,7.5-7.5s-3.358-7.5-7.5-7.5H89.55v-42.198
	c0-4.142-3.358-7.5-7.5-7.5H48.917c-4.142,0-7.5,3.358-7.5,7.5v42.198h-17.35c-5,0-9.067-4.068-9.067-9.068v-99.396
	c0-5,4.067-9.068,9.067-9.068h128.782L175.45,310.2c1.417,1.889,3.639,3,6,3h149.1c2.36,0,4.584-1.111,6-3l22.602-30.135h128.781
	c5,0,9.067,4.068,9.067,9.068v99.396c0,5-4.067,9.068-9.067,9.068h-17.35v-42.198c0-4.142-3.357-7.5-7.5-7.5h-33.134
	c-4.143,0-7.5,3.358-7.5,7.5v42.198H153.414c-4.142,0-7.5,3.358-7.5,7.5s3.358,7.5,7.5,7.5h276.487c0.016,0,0.032,0.002,0.048,0.002
	s0.032-0.002,0.048-0.002h33.037c0.016,0,0.032,0.002,0.048,0.002s0.032-0.002,0.048-0.002h24.801
	c13.271,0,24.067-10.797,24.067-24.068v-99.396C512,286.843,511.672,284.63,511.072,282.53z M56.417,362.899H74.55v34.698H56.417
	V362.899z M355.401,265.065c-2.36,0-4.584,1.111-6,3L326.8,298.2H185.2l-22.601-30.135c-1.417-1.889-3.639-3-6-3H56.41
	l35.266-117.533h328.646l35.265,117.533L355.401,265.065L355.401,265.065z M487.933,265.065h-16.684l-35.265-117.534h2.25
	c4.143,0,7.5-3.358,7.5-7.5s-3.357-7.5-7.5-7.5H73.767c-4.142,0-7.5,3.358-7.5,7.5s3.358,7.5,7.5,7.5h2.249L40.75,265.065H24.067
	c-0.77,0-1.531,0.04-2.283,0.111l43.143-143.788c0.028-0.092,0.055-0.186,0.081-0.279c1.059-3.951,4.661-6.71,8.76-6.71H438.23
	c4.08,0,7.668,2.733,8.745,6.654c0.023,0.09,0.049,0.179,0.075,0.269l43.164,143.855
	C489.463,265.105,488.703,265.065,487.933,265.065z M455.583,397.597h-18.134v-34.698h18.134V397.597z"/>
<g>
</g>
<g>
</g>
<g>
</g>
<g>
</g>
<g>
</g>
<g>
</g>
<g>
</g>
<g>
</g>
<g>
</g>
<g>
</g>
<g>
</g>
<g>
</g>
<g>
</g>
<g>
</g>
<g>
</g>
</svg>
