<?xml version="1.0" encoding="iso-8859-1"?>
<!-- Generator: Adobe Illustrator 19.0.0, SVG Export Plug-In . SVG Version: 6.00 Build 0)  -->
<svg version="1.1" id="Capa_1" xmlns="http://www.w3.org/2000/svg" xmlns:xlink="http://www.w3.org/1999/xlink" x="0px" y="0px"
	 viewBox="0 0 511.998 511.998" style="enable-background:new 0 0 511.998 511.998;" xml:space="preserve">
<path style="fill:#007BBF;" d="M503.84,350.757l-49.605-165.323l0.001,0.002c-1.893-7.066-8.341-12.269-16.005-12.269h-41.413
	H115.184H73.768c-7.663,0-14.111,5.203-16.004,12.269l0.001-0.002L8.159,350.757v18.075H503.84V350.757z"/>
<polygon style="fill:#006AA6;" points="465.668,338.831 425.902,206.299 86.096,206.299 46.33,338.831 46.33,386.665 
	465.668,386.665 "/>
<path style="fill:#04A1EE;" d="M358.401,338.831h129.531c9.15,0,16.568,7.418,16.568,16.568v99.396
	c0,9.15-7.418,16.568-16.568,16.568H24.067c-9.15,0-16.567-7.418-16.567-16.568v-99.396c0-9.15,7.417-16.568,16.567-16.568h129.532
	c1.889,0,3.667,0.889,4.8,2.4l21.251,28.335c1.133,1.511,2.911,2.4,4.8,2.4h143.1c1.889,0,3.667-0.889,4.8-2.4l21.251-28.335
	C354.734,339.72,356.513,338.831,358.401,338.831z"/>
<g>
	<path style="fill:#0084CE;" d="M138.399,341.23l21.251,28.335c1.133,1.511,2.911,2.4,4.8,2.4h20c-1.889,0-3.667-0.889-4.8-2.4
		l-21.251-28.335c-1.133-1.511-2.911-2.4-4.8-2.4h-20C135.488,338.831,137.266,339.72,138.399,341.23z"/>
	<path style="fill:#0084CE;" d="M487.932,338.831h-20c9.15,0,16.568,7.418,16.568,16.568v99.396c0,9.15-7.418,16.568-16.568,16.568
		h20c9.15,0,16.568-7.418,16.568-16.568v-99.396C504.5,346.249,497.082,338.831,487.932,338.831z"/>
</g>
<g>
	<path style="fill:#DEF2FC;" d="M82.05,471.367v-43.701c0-3.314-2.686-6-6-6H54.917c-3.314,0-6,2.686-6,6v43.701H82.05z"/>
	<path style="fill:#DEF2FC;" d="M429.95,471.367v-43.701c0-3.314,2.686-6,6-6h21.134c3.314,0,6,2.686,6,6v43.701H429.95z"/>
</g>
<circle style="fill:#54CC4E;" cx="256" cy="140.028" r="99.4"/>
<path style="fill:#2C931D;" d="M256.001,40.632c-3.375,0-6.711,0.17-10,0.499c50.2,5.015,89.398,47.379,89.398,98.9
	s-39.198,93.885-89.398,98.9c3.289,0.328,6.625,0.499,10,0.499c54.896,0,99.398-44.502,99.398-99.398
	C355.399,85.134,310.897,40.632,256.001,40.632z"/>
<path style="fill:#DEF2FC;" d="M287.366,130.145l-15.211,15.211V82.248c0-3.314-2.686-6-6-6h-21.133c-3.314,0-6,2.686-6,6v63.108
	l-14.798-14.799c-2.343-2.343-6.142-2.343-8.485,0l-14.944,14.944c-2.343,2.343-2.343,6.142,0,8.485l50.551,50.551
	c2.343,2.343,6.142,2.343,8.485,0l50.965-50.965c2.343-2.343,2.343-6.142,0-8.485l-14.944-14.944
	C293.508,127.801,289.709,127.801,287.366,130.145z"/>
<path d="M396.034,438.228c0-4.142-3.357-7.5-7.5-7.5H123.466c-4.143,0-7.5,3.358-7.5,7.5s3.357,7.5,7.5,7.5h265.068
	C392.677,445.728,396.034,442.37,396.034,438.228z"/>
<path d="M250.696,211.6c1.465,1.464,3.385,2.197,5.304,2.197s3.839-0.732,5.304-2.197l59.45-59.45c2.929-2.929,2.929-7.678,0-10.606
	l-23.429-23.429c-2.93-2.929-7.678-2.929-10.607,0l-6.65,6.651v-51c0-4.142-3.357-7.5-7.5-7.5h-33.134c-4.143,0-7.5,3.358-7.5,7.5
	v51.001l-6.237-6.238c-1.407-1.407-3.314-2.197-5.304-2.197c-1.989,0-3.896,0.79-5.304,2.197l-23.429,23.429
	c-2.929,2.929-2.929,7.678,0,10.606L250.696,211.6z M220.393,134.439l13.737,13.738c2.146,2.145,5.37,2.787,8.174,1.626
	c2.803-1.161,4.63-3.895,4.63-6.929V81.264h18.134v61.607c0,3.034,1.827,5.768,4.63,6.929c2.803,1.162,6.028,0.519,8.174-1.626
	l14.15-14.151l12.822,12.822L256,195.689l-48.43-48.429L220.393,134.439z"/>
<path d="M511.072,348.796c-0.018-0.065-0.029-0.131-0.048-0.196L461.45,183.385c-2.848-10.439-12.38-17.72-23.22-17.72h-78.445
	c2.03-8.216,3.114-16.8,3.114-25.633c0-58.944-47.954-106.898-106.898-106.898S149.102,81.089,149.102,140.032
	c0,8.834,1.085,17.418,3.114,25.633H73.769c-10.84,0-20.372,7.281-23.22,17.72L0.976,348.6c-0.022,0.074-0.035,0.148-0.054,0.221
	C0.326,350.914,0,353.117,0,355.398v99.396c0,13.271,10.797,24.068,24.067,24.068h24.801c0.016,0,0.032,0.002,0.048,0.002
	s0.032-0.002,0.048-0.002h33.037c0.016,0,0.032,0.002,0.048,0.002s0.032-0.002,0.048-0.002h41.367c4.143,0,7.5-3.358,7.5-7.5
	s-3.357-7.5-7.5-7.5H89.551v-42.198c0-4.142-3.357-7.5-7.5-7.5H48.917c-4.143,0-7.5,3.358-7.5,7.5v42.198h-17.35
	c-5,0-9.067-4.068-9.067-9.068v-99.396c0-5,4.067-9.068,9.067-9.068H152.85l22.601,30.135c1.416,1.889,3.64,3,6,3h149.1
	c2.36,0,4.584-1.111,6-3l22.602-30.135h128.781c5,0,9.067,4.068,9.067,9.068v99.396c0,5-4.067,9.068-9.067,9.068h-17.35v-42.198
	c0-4.142-3.357-7.5-7.5-7.5H429.95c-4.143,0-7.5,3.358-7.5,7.5v42.198H153.414c-4.143,0-7.5,3.358-7.5,7.5s3.357,7.5,7.5,7.5
	h276.487c0.016,0,0.032,0.002,0.048,0.002s0.032-0.002,0.048-0.002h33.037c0.016,0,0.032,0.002,0.048,0.002s0.032-0.002,0.048-0.002
	h24.801c13.271,0,24.067-10.797,24.067-24.068v-99.396C512,353.108,511.672,350.896,511.072,348.796z M56.417,429.164h18.134v34.698
	H56.417V429.164z M437.449,429.164h18.134v34.698h-18.134V429.164z M256.001,48.132c50.673,0,91.898,41.226,91.898,91.898
	c0,50.673-41.226,91.898-91.898,91.898c-50.673,0-91.899-41.226-91.899-91.898C164.102,89.357,205.328,48.132,256.001,48.132z
	 M21.784,331.441l43.164-143.855c0.027-0.089,0.052-0.179,0.075-0.269c1.077-3.92,4.665-6.653,8.745-6.653h83.365
	c2.63,6.376,5.859,12.443,9.618,18.133H73.767c-4.143,0-7.5,3.358-7.5,7.5s3.357,7.5,7.5,7.5h2.249L40.75,331.331H24.067
	C23.297,331.331,22.536,331.371,21.784,331.441z M355.401,331.331c-2.36,0-4.584,1.111-6,3L326.8,364.466H185.2l-22.6-30.135
	c-1.416-1.889-3.64-3-6-3H56.41l35.266-117.534h87.026c19.479,20.403,46.93,33.132,77.298,33.132s57.819-12.73,77.298-33.132h87.023
	l35.265,117.534H355.401z M471.248,331.331l-35.265-117.534h2.25c4.143,0,7.5-3.358,7.5-7.5s-3.357-7.5-7.5-7.5h-92.982
	c3.759-5.689,6.988-11.757,9.618-18.133h83.362c4.08,0,7.667,2.733,8.745,6.653c0.023,0.09,0.048,0.18,0.075,0.269l43.164,143.855
	c-0.751-0.071-1.512-0.111-2.282-0.111L471.248,331.331L471.248,331.331z"/>
<g>
</g>
<g>
</g>
<g>
</g>
<g>
</g>
<g>
</g>
<g>
</g>
<g>
</g>
<g>
</g>
<g>
</g>
<g>
</g>
<g>
</g>
<g>
</g>
<g>
</g>
<g>
</g>
<g>
</g>
</svg>
