<?xml version="1.0" encoding="iso-8859-1"?>
<!-- Generator: Adobe Illustrator 19.0.0, SVG Export Plug-In . SVG Version: 6.00 Build 0)  -->
<svg version="1.1" id="Capa_1" xmlns="http://www.w3.org/2000/svg" xmlns:xlink="http://www.w3.org/1999/xlink" x="0px" y="0px"
	 viewBox="0 0 511.998 511.998" style="enable-background:new 0 0 511.998 511.998;" xml:space="preserve">
<path style="fill:#007BBF;" d="M503.84,350.757l-49.605-165.323l0.001,0.002c-1.893-7.066-8.341-12.269-16.005-12.269h-41.413
	H115.184H73.768c-7.663,0-14.111,5.203-16.004,12.269l0.001-0.002L8.159,350.757v18.075H503.84V350.757z"/>
<polygon style="fill:#006AA6;" points="465.668,338.831 425.902,206.299 86.096,206.299 46.33,338.831 46.33,386.666 
	465.668,386.666 "/>
<path style="fill:#DEF2FC;" d="M363.684,83.766V46.631c0-3.314-2.686-6-6-6H154.317c-3.314,0-6,2.686-6,6v37.132L363.684,83.766z"/>
<path style="fill:#BCCED5;" d="M380.25,174.883V79.766c0-3.314-2.686-6-6-6h-236.5c-3.314,0-6,2.686-6,6v95.117H380.25z"/>
<path style="fill:#DEF2FC;" d="M396.818,386.666V181.451L322.267,106.9H121.184c-3.314,0-6,2.686-6,6v273.766H396.818z"/>
<polygon style="fill:#BCCED5;" points="396.818,386.666 376.818,386.666 376.818,161.451 396.818,181.936 "/>
<path style="fill:#FFFFFF;" d="M328.266,181.451h68.551L322.266,106.9v68.551C322.266,178.765,324.953,181.451,328.266,181.451z"/>
<path style="fill:#04A1EE;" d="M358.401,338.831h129.531c9.15,0,16.568,7.418,16.568,16.568v99.396
	c0,9.15-7.418,16.568-16.568,16.568H24.067c-9.15,0-16.567-7.418-16.567-16.568v-99.396c0-9.15,7.417-16.568,16.567-16.568h129.532
	c1.889,0,3.667,0.889,4.8,2.4l21.251,28.335c1.133,1.511,2.911,2.4,4.8,2.4h143.1c1.889,0,3.667-0.889,4.8-2.4l21.251-28.335
	C354.734,339.72,356.513,338.831,358.401,338.831z"/>
<g>
	<path style="fill:#0084CE;" d="M138.399,341.231l21.251,28.335c1.133,1.511,2.911,2.4,4.8,2.4h20c-1.889,0-3.667-0.889-4.8-2.4
		l-21.251-28.335c-1.133-1.511-2.911-2.4-4.8-2.4h-20C135.488,338.831,137.266,339.72,138.399,341.231z"/>
	<path style="fill:#0084CE;" d="M487.932,338.831h-20c9.15,0,16.568,7.418,16.568,16.568v99.396c0,9.15-7.418,16.568-16.568,16.568
		h20c9.15,0,16.568-7.418,16.568-16.568v-99.396C504.5,346.249,497.082,338.831,487.932,338.831z"/>
</g>
<g>
	<path style="fill:#DEF2FC;" d="M82.05,471.367v-43.701c0-3.314-2.686-6-6-6H54.917c-3.314,0-6,2.686-6,6v43.701H82.05z"/>
	<path style="fill:#DEF2FC;" d="M429.95,471.367v-43.701c0-3.314,2.686-6,6-6h21.134c3.314,0,6,2.686,6,6v43.701H429.95z"/>
</g>
<path d="M396.034,438.229c0-4.142-3.357-7.5-7.5-7.5H123.466c-4.143,0-7.5,3.358-7.5,7.5s3.357,7.5,7.5,7.5h265.068
	C392.677,445.729,396.034,442.372,396.034,438.229z"/>
<path d="M222.867,197.234h66.266c4.143,0,7.5-3.358,7.5-7.5v-33.133c0-4.142-3.357-7.5-7.5-7.5h-66.266c-4.143,0-7.5,3.358-7.5,7.5
	v33.133C215.367,193.876,218.725,197.234,222.867,197.234z M230.367,164.101h51.266v18.133h-51.266V164.101z"/>
<path d="M347.117,231.936H164.885c-4.143,0-7.5,3.358-7.5,7.5s3.357,7.5,7.5,7.5h182.232c4.143,0,7.5-3.358,7.5-7.5
	C354.617,235.293,351.26,231.936,347.117,231.936z"/>
<path d="M347.117,265.067H164.885c-4.143,0-7.5,3.358-7.5,7.5s3.357,7.5,7.5,7.5h182.232c4.143,0,7.5-3.358,7.5-7.5
	S351.26,265.067,347.117,265.067z"/>
<path d="M347.117,298.199H164.885c-4.143,0-7.5,3.358-7.5,7.5s3.357,7.5,7.5,7.5h182.232c4.143,0,7.5-3.358,7.5-7.5
	S351.26,298.199,347.117,298.199z"/>
<path d="M305.699,331.33h-99.396c-4.143,0-7.5,3.358-7.5,7.5s3.357,7.5,7.5,7.5h99.396c4.143,0,7.5-3.358,7.5-7.5
	S309.842,331.33,305.699,331.33z"/>
<path d="M511.07,348.79c-0.017-0.063-0.028-0.126-0.046-0.189l-49.571-165.209c-2.846-10.443-12.38-17.726-23.222-17.726h-41.413
	c-1.477,0-2.849,0.433-4.01,1.169l-5.058-5.058V73.766c0-4.142-3.357-7.5-7.5-7.5h-9.066V40.631c0-4.142-3.357-7.5-7.5-7.5H148.317
	c-4.143,0-7.5,3.358-7.5,7.5v25.635h-9.066c-4.143,0-7.5,3.358-7.5,7.5V99.4h-9.067c-4.143,0-7.5,3.358-7.5,7.5v58.766H73.769
	c-10.842,0-20.375,7.283-23.222,17.725L0.976,348.601c-0.021,0.071-0.034,0.143-0.053,0.214C0.326,350.909,0,353.116,0,355.399
	v99.396c0,13.271,10.797,24.068,24.067,24.068H48.84c0.026,0,0.051,0.004,0.077,0.004s0.051-0.004,0.077-0.004h32.979
	c0.026,0,0.051,0.004,0.077,0.004s0.051-0.004,0.077-0.004h41.338c4.143,0,7.5-3.358,7.5-7.5s-3.357-7.5-7.5-7.5H89.551v-42.197
	c0-4.142-3.357-7.5-7.5-7.5H48.917c-4.143,0-7.5,3.358-7.5,7.5v42.197h-17.35c-5,0-9.067-4.068-9.067-9.068v-99.396
	c0-5,4.067-9.068,9.067-9.068h91.106c0.003,0,0.007,0.001,0.01,0.001s0.006-0.001,0.01-0.001h37.656l22.601,30.135
	c1.416,1.889,3.64,3,6,3h149.1c2.36,0,4.584-1.111,6-3l22.602-30.135h37.656c0.003,0,0.006,0.001,0.01,0.001
	c0.003,0,0.006-0.001,0.01-0.001h91.105c5,0,9.067,4.068,9.067,9.068v99.396c0,5-4.067,9.068-9.067,9.068h-17.35v-42.197
	c0-4.142-3.357-7.5-7.5-7.5h-33.134c-4.143,0-7.5,3.358-7.5,7.5v42.197H153.414c-4.143,0-7.5,3.358-7.5,7.5s3.357,7.5,7.5,7.5
	h276.458c0.026,0,0.051,0.004,0.077,0.004s0.051-0.004,0.077-0.004h32.979c0.026,0,0.051,0.004,0.077,0.004s0.051-0.004,0.077-0.004
	h24.772c13.271,0,24.067-10.797,24.067-24.068v-99.396C512,353.107,511.671,350.892,511.07,348.79z M56.417,429.166h18.134v34.697
	H56.417V429.166z M437.449,429.166h18.134v34.697h-18.134V429.166z M420.322,213.799l35.265,117.532h-51.27V213.799H420.322z
	 M329.767,125.007l48.944,48.945h-48.944V125.007z M155.817,48.131h200.366v18.135H155.817V48.131z M139.251,81.266H372.75v65.511
	l-45.18-45.18c-0.001-0.001-0.002-0.002-0.003-0.003c-0.236-0.236-0.493-0.45-0.759-0.653c-0.058-0.044-0.116-0.088-0.175-0.131
	c-0.268-0.193-0.546-0.371-0.839-0.528c-0.018-0.01-0.037-0.017-0.056-0.027c-0.277-0.145-0.566-0.269-0.862-0.379
	c-0.059-0.022-0.117-0.044-0.177-0.065c-0.313-0.107-0.632-0.2-0.962-0.265c-0.016-0.003-0.032-0.004-0.048-0.007
	c-0.296-0.057-0.599-0.092-0.907-0.113c-0.091-0.006-0.182-0.011-0.274-0.014c-0.081-0.003-0.161-0.012-0.243-0.012H139.251V81.266z
	 M107.684,213.799v117.532H56.411l35.266-117.532H107.684z M21.785,331.442l43.163-143.854c0.027-0.092,0.054-0.185,0.078-0.278
	c1.079-3.916,4.665-6.645,8.742-6.645h33.915v18.134H73.767c-4.143,0-7.5,3.358-7.5,7.5s3.357,7.5,7.5,7.5h2.249L40.75,331.331
	H24.067C23.297,331.331,22.537,331.371,21.785,331.442z M355.401,331.331c-2.36,0-4.584,1.111-6,3L326.8,364.466H185.2l-22.6-30.135
	c-1.416-1.889-3.64-3-6-3h-33.916V114.4h192.083v67.052c0,4.142,3.357,7.5,7.5,7.5h67.051v142.379H355.401z M471.248,331.331
	l-35.265-117.532h2.249c4.143,0,7.5-3.358,7.5-7.5s-3.357-7.5-7.5-7.5h-33.915v-17.347c0-0.084-0.01-0.166-0.013-0.25
	c-0.003-0.088-0.007-0.174-0.013-0.262c-0.006-0.091-0.006-0.184-0.016-0.274h33.955c4.078,0,7.664,2.73,8.743,6.647
	c0.024,0.092,0.05,0.184,0.077,0.275l43.164,143.854c-0.751-0.071-1.512-0.111-2.282-0.111H471.248z"/>
<g>
</g>
<g>
</g>
<g>
</g>
<g>
</g>
<g>
</g>
<g>
</g>
<g>
</g>
<g>
</g>
<g>
</g>
<g>
</g>
<g>
</g>
<g>
</g>
<g>
</g>
<g>
</g>
<g>
</g>
</svg>
