<?xml version="1.0" encoding="iso-8859-1"?>
<!-- Generator: Adobe Illustrator 19.0.0, SVG Export Plug-In . SVG Version: 6.00 Build 0)  -->
<svg version="1.1" id="Capa_1" xmlns="http://www.w3.org/2000/svg" xmlns:xlink="http://www.w3.org/1999/xlink" x="0px" y="0px"
	 viewBox="0 0 512 512" style="enable-background:new 0 0 512 512;" xml:space="preserve">
<path style="fill:#FCB043;" d="M487.932,140.031c9.15,0,16.568,7.418,16.568,16.568v298.199c0,9.15-7.418,16.568-16.568,16.568
	h-86.975H111.042H24.067c-9.15,0-16.567-7.418-16.567-16.568v-298.2c0-9.15,7.417-16.568,16.567-16.568h463.865V140.031z"/>
<path style="fill:#EF9122;" d="M484.5,156.598v298.199c0,9.15-7.418,16.568-16.568,16.568h20c9.15,0,16.568-7.418,16.568-16.568
	V156.598c0-9.15-7.418-16.568-16.568-16.568h-20C477.082,140.031,484.5,147.448,484.5,156.598z"/>
<path style="fill:#FFCE94;" d="M503.106,149.959c-2.177-4.967-6.716-8.651-12.198-9.647H21.091
	c-5.482,0.996-10.021,4.681-12.197,9.648c0.014,0.01,0.026,0.022,0.039,0.032l242.626,178.315c1.321,0.971,2.881,1.457,4.441,1.457
	s3.12-0.485,4.441-1.457l242.624-178.315C503.08,149.981,503.092,149.969,503.106,149.959z"/>
<path style="fill:#FCB043;" d="M503.066,149.992c0.014-0.01,0.026-0.023,0.04-0.033c-0.148-0.339-0.31-0.67-0.48-0.997
	c-0.106-0.204-0.219-0.404-0.333-0.603c-0.115-0.2-0.235-0.395-0.358-0.59c-0.184-0.292-0.377-0.577-0.579-0.856
	c-0.135-0.187-0.271-0.372-0.414-0.553c-0.147-0.187-0.298-0.371-0.453-0.552c-0.152-0.177-0.311-0.347-0.47-0.517
	c-0.248-0.265-0.505-0.522-0.77-0.771c-0.138-0.129-0.277-0.256-0.419-0.381c-0.192-0.168-0.384-0.335-0.583-0.494
	c-0.263-0.21-0.533-0.411-0.809-0.605c-0.221-0.155-0.449-0.302-0.678-0.446c-0.129-0.082-0.261-0.16-0.392-0.238
	c-0.418-0.248-0.848-0.477-1.289-0.688c-0.105-0.051-0.209-0.104-0.316-0.152c-0.266-0.12-0.535-0.233-0.808-0.34
	c-0.105-0.041-0.212-0.077-0.318-0.116c-0.484-0.178-0.978-0.333-1.481-0.466c-0.12-0.032-0.241-0.064-0.362-0.093
	c-0.293-0.07-0.588-0.136-0.887-0.19l0,0h-20c7.728,1.404,13.592,8.154,13.592,16.286v7.038L503.066,149.992z"/>
<path style="fill:#DEF2FC;" d="M117.466,438.233H46.633c-3.314,0-6-2.686-6-6V361.4c0-3.314,2.686-6,6-6h70.833c3.314,0,6,2.686,6,6
	v70.833C123.466,435.547,120.78,438.233,117.466,438.233z"/>
<path style="fill:#04A1EE;" d="M92.617,413.385H71.482c-3.314,0-6-2.686-6-6V386.25c0-3.314,2.686-6,6-6h21.135c3.314,0,6,2.686,6,6
	v21.135C98.617,410.698,95.931,413.385,92.617,413.385z"/>
<g>
	<path style="fill:#DEF2FC;" d="M322.269,73.767l-8.001,159.965c-0.16,3.193-2.795,5.7-5.992,5.7H203.724
		c-3.197,0-5.833-2.507-5.993-5.7l-8-159.965v-7.434h132.537v7.434H322.269z"/>
	<path style="fill:#DEF2FC;" d="M330.55,73.769H181.452V46.635c0-3.314,2.686-6,6-6H324.55c3.314,0,6,2.686,6,6V73.769z"/>
</g>
<g>
	<path style="fill:#BCCED5;" d="M302.269,66.334v7.434l-8.001,159.965c-0.16,3.193-2.795,5.7-5.992,5.7h20
		c3.197,0,5.833-2.507,5.992-5.7l8.001-159.965v-7.434C322.269,66.335,302.269,66.335,302.269,66.334z"/>
	<path style="fill:#BCCED5;" d="M324.55,40.635h-20c3.314,0,6,2.686,6,6v27.134h20V46.635
		C330.55,43.322,327.864,40.635,324.55,40.635z"/>
</g>
<path d="M40.633,347.902c-4.142,0-7.5,3.358-7.5,7.5v82.832c0,4.142,3.358,7.5,7.5,7.5h82.832c4.142,0,7.5-3.358,7.5-7.5v-82.832
	c0-4.142-3.358-7.5-7.5-7.5H40.633z M115.966,430.734H48.133v-67.832h67.832v67.832H115.966z"/>
<path d="M65.482,420.886h33.135c4.142,0,7.5-3.358,7.5-7.5V380.25c0-4.142-3.358-7.5-7.5-7.5H65.482c-4.142,0-7.5,3.358-7.5,7.5
	v33.135C57.982,417.529,61.34,420.886,65.482,420.886z M72.982,387.75h18.135v18.135H72.982V387.75z"/>
<path d="M206.299,364.467h-49.7c-4.142,0-7.5,3.358-7.5,7.5s3.358,7.5,7.5,7.5h49.7c4.142,0,7.5-3.358,7.5-7.5
	S210.441,364.467,206.299,364.467z"/>
<path d="M206.299,397.603h-49.698c-4.142,0-7.5,3.358-7.5,7.5s3.358,7.5,7.5,7.5h49.698c4.142,0,7.5-3.358,7.5-7.5
	C213.799,400.96,210.441,397.603,206.299,397.603z"/>
<path d="M231.15,397.603c-4.142,0-7.5,3.358-7.5,7.5s3.358,7.5,7.5,7.5H256c4.142,0,7.5-3.358,7.5-7.5s-3.358-7.5-7.5-7.5H231.15z"
	/>
<path d="M218.061,181.64c0.102,4.077,3.439,7.313,7.494,7.313c0.063,0,0.127-0.001,0.191-0.003c4.141-0.104,7.414-3.544,7.31-7.685
	l-1.864-74.549c-0.104-4.141-3.52-7.402-7.685-7.31c-4.141,0.103-7.414,3.544-7.31,7.685L218.061,181.64z"/>
<path d="M256,188.953c4.142,0,7.5-3.358,7.5-7.5v-74.551c0-4.142-3.358-7.5-7.5-7.5s-7.5,3.358-7.5,7.5v74.551
	C248.501,185.595,251.858,188.953,256,188.953z"/>
<path d="M286.254,188.951c0.064,0.001,0.127,0.002,0.191,0.002c4.055,0,7.392-3.236,7.494-7.313l1.864-74.55
	c0.103-4.141-3.169-7.582-7.31-7.685c-4.159-0.091-7.582,3.169-7.685,7.31l-1.864,74.55
	C278.841,185.406,282.114,188.847,286.254,188.951z"/>
<path d="M503.764,138.494c-0.138-0.13-0.281-0.252-0.427-0.37c-4.177-3.489-9.549-5.593-15.405-5.593H326.84l2.564-51.261h1.146
	h8.283c4.142,0,7.5-3.358,7.5-7.5s-3.358-7.5-7.5-7.5h-0.783V40.635c0-4.142-3.358-7.5-7.5-7.5H181.452c-4.142,0-7.5,3.358-7.5,7.5
	v25.634h-0.785c-4.142,0-7.5,3.358-7.5,7.5s3.358,7.5,7.5,7.5h8.285h1.146l2.564,51.261H24.067c-5.732,0-10.999,2.017-15.137,5.374
	c-0.012,0.009-0.023,0.019-0.036,0.028c-0.07,0.057-0.14,0.114-0.21,0.172c-0.157,0.126-0.311,0.258-0.46,0.398
	C3.189,142.917,0,149.39,0,156.598v298.199c0,13.271,10.796,24.067,24.067,24.067h367.235c4.142,0,7.5-3.358,7.5-7.5
	s-3.358-7.5-7.5-7.5H24.067c-5,0-9.067-4.067-9.067-9.067V156.598c0-0.681,0.082-1.343,0.225-1.982l236.334,173.691
	c1.321,0.971,2.881,1.457,4.441,1.457s3.12-0.485,4.441-1.457l236.333-173.692c0.143,0.639,0.225,1.301,0.225,1.983v298.199
	c0,5-4.067,9.067-9.067,9.067H421.25c-4.142,0-7.5,3.358-7.5,7.5s3.358,7.5,7.5,7.5h66.683c13.271,0,24.067-10.796,24.067-24.067
	V156.598C512,149.385,508.806,142.909,503.764,138.494z M188.952,48.135H323.05v18.134H188.952V48.135z M314.385,81.269
	l-2.898,57.951c-0.029,0.266-0.045,0.537-0.045,0.811c0,0.016,0.002,0.032,0.003,0.048l-3.352,67.006H203.909L197.617,81.27
	C197.617,81.27,314.385,81.27,314.385,81.269z M307.342,222.085l-0.493,9.847H205.151l-0.492-9.847H307.342z M256,312.957
	L30.912,147.531h154.999l4.615,92.276c0.2,3.992,3.494,7.125,7.491,7.125h115.966c3.997,0,7.291-3.134,7.491-7.125l4.615-92.276
	h154.997L256,312.957z"/>
<g>
</g>
<g>
</g>
<g>
</g>
<g>
</g>
<g>
</g>
<g>
</g>
<g>
</g>
<g>
</g>
<g>
</g>
<g>
</g>
<g>
</g>
<g>
</g>
<g>
</g>
<g>
</g>
<g>
</g>
</svg>
