<?xml version="1.0" encoding="iso-8859-1"?>
<!-- Generator: Adobe Illustrator 19.0.0, SVG Export Plug-In . SVG Version: 6.00 Build 0)  -->
<svg version="1.1" id="Capa_1" xmlns="http://www.w3.org/2000/svg" xmlns:xlink="http://www.w3.org/1999/xlink" x="0px" y="0px"
	 viewBox="0 0 512 512" style="enable-background:new 0 0 512 512;" xml:space="preserve">
<path style="fill:#FCB043;" d="M487.932,140.042c9.15,0,16.568,7.418,16.568,16.568v298.199c0,9.15-7.418,16.568-16.568,16.568
	h-86.975H111.042H24.067c-9.15,0-16.567-7.418-16.567-16.568V156.61c0-9.15,7.417-16.568,16.567-16.568L487.932,140.042
	L487.932,140.042z"/>
<path style="fill:#EF9122;" d="M484.5,156.61v298.199c0,9.15-7.418,16.568-16.568,16.568h20c9.15,0,16.568-7.418,16.568-16.568
	V156.61c0-9.15-7.418-16.568-16.568-16.568h-20C477.082,140.042,484.5,147.46,484.5,156.61z"/>
<path style="fill:#FFCE94;" d="M503.106,149.97c-2.177-4.967-6.716-8.651-12.198-9.647H21.091
	c-5.482,0.996-10.021,4.681-12.198,9.648c0.014,0.01,0.026,0.022,0.039,0.032l242.626,178.315c1.321,0.971,2.881,1.457,4.441,1.457
	c1.56,0,3.12-0.485,4.441-1.457l242.625-178.315C503.08,149.993,503.092,149.981,503.106,149.97z"/>
<path style="fill:#FCB043;" d="M503.066,150.003c0.014-0.01,0.026-0.023,0.04-0.033c-0.148-0.339-0.31-0.67-0.48-0.997
	c-0.106-0.204-0.219-0.404-0.333-0.603c-0.115-0.2-0.235-0.395-0.358-0.59c-0.184-0.292-0.377-0.577-0.579-0.855
	c-0.135-0.187-0.271-0.372-0.413-0.553c-0.147-0.187-0.298-0.371-0.453-0.552c-0.152-0.177-0.311-0.347-0.47-0.517
	c-0.248-0.265-0.505-0.522-0.77-0.771c-0.138-0.129-0.277-0.256-0.419-0.381c-0.192-0.168-0.384-0.335-0.583-0.494
	c-0.263-0.21-0.533-0.411-0.809-0.605c-0.221-0.155-0.449-0.302-0.678-0.446c-0.129-0.082-0.261-0.16-0.392-0.238
	c-0.418-0.248-0.848-0.477-1.289-0.688c-0.105-0.051-0.209-0.104-0.316-0.152c-0.266-0.12-0.535-0.233-0.808-0.34
	c-0.105-0.041-0.212-0.077-0.318-0.116c-0.484-0.177-0.978-0.333-1.481-0.466c-0.121-0.032-0.241-0.064-0.362-0.093
	c-0.293-0.07-0.588-0.136-0.887-0.19l0,0h-20c7.728,1.404,13.592,8.154,13.592,16.286v7.038L503.066,150.003z"/>
<path style="fill:#DEF2FC;" d="M117.466,438.245H46.633c-3.314,0-6-2.686-6-6v-70.833c0-3.314,2.686-6,6-6h70.833
	c3.314,0,6,2.686,6,6v70.833C123.466,435.559,120.779,438.245,117.466,438.245z"/>
<path style="fill:#04A1EE;" d="M92.617,413.396H71.482c-3.314,0-6-2.686-6-6v-21.135c0-3.314,2.686-6,6-6h21.135
	c3.314,0,6,2.686,6,6v21.135C98.617,410.71,95.931,413.396,92.617,413.396z"/>
<path style="fill:#DEF2FC;" d="M272.566,145.066V90.355c0-9.148-7.416-16.565-16.565-16.565c-9.149,0-16.565,7.416-16.565,16.565
	v54.711l-33.181,0.005V90.37c0-27.474,22.272-49.746,49.746-49.746s49.746,22.272,49.746,49.746v54.701L272.566,145.066z"/>
<g>
	<rect x="206.25" y="120.04" style="fill:#BCCED5;" width="33.18" height="25.03"/>
	<rect x="272.57" y="120.05" style="fill:#BCCED5;" width="33.18" height="25.02"/>
</g>
<path style="fill:#618BAA;" d="M316.266,140.071H195.732c-3.314,0-6,2.686-6,6v87.4c0,3.314,2.686,6,6,6h120.534
	c3.314,0,6-2.686,6-6v-87.4C322.266,142.757,319.579,140.071,316.266,140.071z"/>
<path style="fill:#3B4F66;" d="M316.266,219.471H195.732c-3.314,0-6-2.686-6-6v20c0,3.314,2.686,6,6,6h120.534c3.314,0,6-2.686,6-6
	v-20C322.266,216.785,319.579,219.471,316.266,219.471z"/>
<path d="M40.633,347.936c-4.142,0-7.5,3.358-7.5,7.5v82.832c0,4.142,3.358,7.5,7.5,7.5h82.832c4.142,0,7.5-3.358,7.5-7.5v-82.832
	c0-4.142-3.358-7.5-7.5-7.5H40.633z M115.966,430.769H48.133v-67.832h67.832v67.832H115.966z"/>
<path d="M65.482,420.92h33.135c4.142,0,7.5-3.358,7.5-7.5v-33.135c0-4.142-3.358-7.5-7.5-7.5H65.482c-4.142,0-7.5,3.358-7.5,7.5
	v33.135C57.982,417.562,61.34,420.92,65.482,420.92z M72.982,387.785h18.135v18.135H72.982V387.785z"/>
<path d="M206.299,364.501h-49.7c-4.142,0-7.5,3.358-7.5,7.5s3.358,7.5,7.5,7.5h49.7c4.142,0,7.5-3.358,7.5-7.5
	S210.441,364.501,206.299,364.501z"/>
<path d="M206.299,397.637h-49.698c-4.142,0-7.5,3.358-7.5,7.5s3.358,7.5,7.5,7.5h49.698c4.142,0,7.5-3.358,7.5-7.5
	S210.441,397.637,206.299,397.637z"/>
<path d="M231.15,397.637c-4.142,0-7.5,3.358-7.5,7.5s3.358,7.5,7.5,7.5H256c4.142,0,7.5-3.358,7.5-7.5s-3.358-7.5-7.5-7.5H231.15z"
	/>
<path d="M264.284,173.987h-16.567c-4.142,0-7.5,3.358-7.5,7.5s3.358,7.5,7.5,7.5h0.782v9.066c0,4.142,3.358,7.5,7.5,7.5
	s7.5-3.358,7.5-7.5v-9.066h0.785c4.142,0,7.5-3.358,7.5-7.5S268.426,173.987,264.284,173.987z"/>
<path d="M487.933,132.542H322.266c-0.189,0-0.375,0.014-0.561,0.028h-8.458v-42.2c0-31.565-25.68-57.246-57.246-57.246
	s-57.246,25.681-57.246,57.246v42.201h-8.461c-0.186-0.014-0.372-0.028-0.561-0.028H24.067C10.796,132.542,0,143.339,0,156.61
	v298.199c0,13.271,10.796,24.067,24.067,24.067h367.235c4.142,0,7.5-3.358,7.5-7.5s-3.358-7.5-7.5-7.5H24.067
	c-4.999,0-9.067-4.067-9.067-9.067V156.61c0-0.674,0.08-1.329,0.22-1.962l236.339,173.695c1.321,0.971,2.881,1.456,4.441,1.456
	s3.12-0.485,4.441-1.456L496.78,154.646c0.14,0.633,0.22,1.288,0.22,1.963v298.199c0,5-4.067,9.067-9.067,9.067H421.25
	c-4.142,0-7.5,3.358-7.5,7.5s3.358,7.5,7.5,7.5h66.683c13.271,0,24.067-10.796,24.067-24.067V156.61
	C512,143.339,501.204,132.542,487.933,132.542z M213.755,90.37c0-23.294,18.952-42.246,42.246-42.246s42.246,18.952,42.246,42.246
	v42.201h-18.181V90.355c0-13.27-10.795-24.065-24.065-24.065c-13.27,0-24.065,10.795-24.065,24.065v42.216h-18.181V90.37z
	 M265.066,90.355v42.216h-18.13V90.355c0-4.999,4.066-9.065,9.065-9.065C260.999,81.29,265.066,85.356,265.066,90.355z
	 M197.232,147.571h117.533v84.401H197.232V147.571z M256,312.991L30.881,147.542h151.351v91.929c0,4.142,3.358,7.5,7.5,7.5h132.533
	c4.142,0,7.5-3.358,7.5-7.5v-91.929h151.352L256,312.991z"/>
<g>
</g>
<g>
</g>
<g>
</g>
<g>
</g>
<g>
</g>
<g>
</g>
<g>
</g>
<g>
</g>
<g>
</g>
<g>
</g>
<g>
</g>
<g>
</g>
<g>
</g>
<g>
</g>
<g>
</g>
</svg>
