<?xml version="1.0" encoding="iso-8859-1"?>
<!-- Generator: Adobe Illustrator 19.0.0, SVG Export Plug-In . SVG Version: 6.00 Build 0)  -->
<svg version="1.1" id="Capa_1" xmlns="http://www.w3.org/2000/svg" xmlns:xlink="http://www.w3.org/1999/xlink" x="0px" y="0px"
	 viewBox="0 0 512 512" style="enable-background:new 0 0 512 512;" xml:space="preserve">
<path style="fill:#FCB043;" d="M487.932,140.03c9.15,0,16.568,7.418,16.568,16.568v298.199c0,9.15-7.418,16.568-16.568,16.568
	h-86.975H111.042H24.067c-9.15,0-16.567-7.418-16.567-16.568V156.598c0-9.15,7.417-16.568,16.567-16.568H487.932z"/>
<path style="fill:#EF9122;" d="M484.5,156.598v298.199c0,9.15-7.418,16.568-16.568,16.568h20c9.15,0,16.568-7.418,16.568-16.568
	V156.598c0-9.15-7.418-16.568-16.568-16.568h-20C477.082,140.03,484.5,147.448,484.5,156.598z"/>
<path style="fill:#FFCE94;" d="M503.106,149.958c-2.177-4.967-6.716-8.651-12.198-9.647H21.091
	c-5.482,0.996-10.021,4.681-12.198,9.648c0.014,0.01,0.026,0.022,0.039,0.032l242.626,178.315c1.321,0.971,2.881,1.457,4.441,1.457
	c1.56,0,3.12-0.485,4.441-1.457l242.625-178.315C503.08,149.981,503.092,149.969,503.106,149.958z"/>
<path style="fill:#FCB043;" d="M503.066,149.991c0.014-0.01,0.026-0.023,0.04-0.033c-0.148-0.339-0.31-0.67-0.48-0.997
	c-0.106-0.204-0.219-0.404-0.333-0.603c-0.115-0.2-0.235-0.395-0.358-0.59c-0.184-0.292-0.377-0.577-0.579-0.855
	c-0.135-0.187-0.271-0.372-0.414-0.553c-0.147-0.187-0.298-0.371-0.453-0.552c-0.152-0.177-0.311-0.347-0.47-0.517
	c-0.248-0.265-0.505-0.522-0.77-0.771c-0.138-0.129-0.277-0.256-0.419-0.381c-0.192-0.168-0.384-0.335-0.583-0.494
	c-0.263-0.21-0.533-0.411-0.809-0.605c-0.221-0.155-0.449-0.302-0.678-0.446c-0.129-0.082-0.261-0.16-0.392-0.238
	c-0.418-0.248-0.848-0.477-1.289-0.688c-0.105-0.051-0.209-0.104-0.316-0.152c-0.266-0.12-0.535-0.233-0.808-0.34
	c-0.105-0.041-0.212-0.077-0.318-0.116c-0.484-0.177-0.978-0.333-1.481-0.466c-0.12-0.032-0.241-0.064-0.362-0.093
	c-0.293-0.07-0.588-0.136-0.887-0.19l0,0h-20c7.728,1.403,13.592,8.154,13.592,16.286v7.038L503.066,149.991z"/>
<path style="fill:#DEF2FC;" d="M117.466,438.233H46.633c-3.314,0-6-2.686-6-6V361.4c0-3.314,2.686-6,6-6h70.833c3.314,0,6,2.686,6,6
	v70.833C123.466,435.547,120.779,438.233,117.466,438.233z"/>
<path style="fill:#04A1EE;" d="M92.617,413.384H71.482c-3.314,0-6-2.686-6-6v-21.135c0-3.314,2.686-6,6-6h21.135
	c3.314,0,6,2.686,6,6v21.135C98.617,410.698,95.931,413.384,92.617,413.384z"/>
<rect x="195.13" y="140.03" style="fill:#FFCE94;" width="22.333" height="19.97"/>
<path d="M40.633,347.901c-4.142,0-7.5,3.358-7.5,7.5v82.832c0,4.142,3.358,7.5,7.5,7.5h82.833c4.142,0,7.5-3.358,7.5-7.5v-82.832
	c0-4.142-3.358-7.5-7.5-7.5H40.633z M115.966,430.734H48.133v-67.832h67.833V430.734z"/>
<path d="M65.482,420.885h33.135c4.142,0,7.5-3.358,7.5-7.5V380.25c0-4.142-3.358-7.5-7.5-7.5H65.482c-4.142,0-7.5,3.358-7.5,7.5
	v33.135C57.982,417.527,61.34,420.885,65.482,420.885z M72.982,387.75h18.135v18.135H72.982V387.75z"/>
<path d="M206.299,364.466h-49.7c-4.142,0-7.5,3.358-7.5,7.5s3.358,7.5,7.5,7.5h49.7c4.142,0,7.5-3.358,7.5-7.5
	S210.441,364.466,206.299,364.466z"/>
<path d="M206.299,397.602h-49.698c-4.142,0-7.5,3.358-7.5,7.5s3.358,7.5,7.5,7.5h49.698c4.142,0,7.5-3.358,7.5-7.5
	S210.441,397.602,206.299,397.602z"/>
<path d="M231.15,397.602c-4.142,0-7.5,3.358-7.5,7.5s3.358,7.5,7.5,7.5H256c4.143,0,7.5-3.358,7.5-7.5s-3.357-7.5-7.5-7.5H231.15z"
	/>
<path d="M503.761,138.491c-0.135-0.127-0.275-0.246-0.418-0.362c-4.178-3.492-9.552-5.598-15.411-5.598H313.2V90.336
	c0-31.54-25.66-57.2-57.201-57.2c-31.54,0-57.201,25.66-57.201,57.2v42.195H24.067c-5.732,0-10.999,2.017-15.137,5.374
	c-0.012,0.009-0.023,0.019-0.036,0.028c-0.07,0.057-0.14,0.114-0.21,0.172c-0.158,0.126-0.311,0.258-0.46,0.398
	C3.189,142.917,0,149.39,0,156.598v298.199c0,13.271,10.796,24.067,24.067,24.067h367.234c4.143,0,7.5-3.358,7.5-7.5
	s-3.357-7.5-7.5-7.5H24.067c-5,0-9.067-4.067-9.067-9.067V156.598c0-0.681,0.082-1.343,0.225-1.982l236.334,173.691
	c1.321,0.971,2.881,1.457,4.441,1.457s3.12-0.485,4.441-1.457l236.334-173.692c0.143,0.639,0.225,1.301,0.225,1.983v298.199
	c0,5-4.067,9.067-9.067,9.067H421.25c-4.143,0-7.5,3.358-7.5,7.5s3.357,7.5,7.5,7.5h66.683c13.271,0,24.067-10.796,24.067-24.067
	V156.598C512,149.383,508.805,142.905,503.761,138.491z M213.799,90.336c0-23.269,18.931-42.2,42.201-42.2
	s42.201,18.931,42.201,42.2v42.195h-18.132v-9.062c0-13.271-10.796-24.067-24.067-24.067c-13.27,0-24.066,10.796-24.066,24.067
	v9.062h-18.135V90.336H213.799z M246.934,147.531h18.133v25.637c0,4.142,3.357,7.5,7.5,7.5s7.5-3.358,7.5-7.5v-25.637H298.2
	l-0.001,58.773c0,14.134-11.499,25.632-25.633,25.632s-25.632-11.499-25.632-25.632V147.531z M265.067,132.531h-18.133v-9.062
	c0-5,4.067-9.067,9.066-9.067c5,0,9.067,4.067,9.067,9.067V132.531z M256,312.956L30.912,147.531h175.28
	c0.036,0.001,0.07,0.005,0.106,0.005s0.071-0.005,0.106-0.005h25.529v58.773c0,22.405,18.227,40.632,40.632,40.632
	s40.633-18.228,40.633-40.632l0.001-58.773h167.886L256,312.956z"/>
<g>
</g>
<g>
</g>
<g>
</g>
<g>
</g>
<g>
</g>
<g>
</g>
<g>
</g>
<g>
</g>
<g>
</g>
<g>
</g>
<g>
</g>
<g>
</g>
<g>
</g>
<g>
</g>
<g>
</g>
</svg>
