<?xml version="1.0" encoding="iso-8859-1"?>
<!-- Generator: Adobe Illustrator 19.0.0, SVG Export Plug-In . SVG Version: 6.00 Build 0)  -->
<svg version="1.1" id="Capa_1" xmlns="http://www.w3.org/2000/svg" xmlns:xlink="http://www.w3.org/1999/xlink" x="0px" y="0px"
	 viewBox="0 0 512 512" style="enable-background:new 0 0 512 512;" xml:space="preserve">
<path style="fill:#E94141;" d="M438.234,349.666V189.73c0-54.897-44.503-99.4-99.4-99.4H173.166v259.336H438.234z"/>
<path style="fill:#C62525;" d="M338.835,90.33h-20c54.897,0,99.4,44.503,99.4,99.4v159.935h20V189.73
	C438.234,134.833,393.731,90.33,338.835,90.33z"/>
<path style="fill:#DEF2FC;" d="M272.568,399.999V498.5c0,3.314-2.686,6-6,6h-21.134c-3.314,0-6-2.686-6-6v-98.501H272.568z"/>
<rect x="239.44" y="400" style="fill:#BCCED5;" width="33.13" height="25"/>
<path style="fill:#3B4F66;" d="M305.701,366.866v32.133c0,3.314-2.686,6-6,6H212.3c-3.314,0-6-2.686-6-6v-32.133H305.701z"/>
<path style="fill:#2C3B4D;" d="M285.701,366.866v32.133c0,3.314-2.686,6-6,6h20c3.314,0,6-2.686,6-6v-32.133H285.701z"/>
<path style="fill:#DEF2FC;" d="M73.766,349.666V189.73c0-54.897,44.503-99.4,99.4-99.4s99.4,44.503,99.4,99.4v159.935h-198.8
	V349.666z"/>
<path style="fill:#BCCED5;" d="M173.166,90.33c-3.375,0-6.711,0.17-10,0.499c50.201,5.015,89.4,47.38,89.4,98.901v159.935h20V189.73
	C272.567,134.833,228.064,90.33,173.166,90.33z"/>
<g>
	<path style="fill:#3B4F66;" d="M233.435,222.866H112.901c-3.314,0-6-2.686-6-6v-21.135c0-3.314,2.686-6,6-6h120.534
		c3.314,0,6,2.686,6,6v21.135C239.435,220.18,236.748,222.866,233.435,222.866z"/>
	<circle style="fill:#3B4F66;" cx="322.27" cy="181.45" r="24.851"/>
</g>
<path style="fill:#04A1EE;" d="M399.102,65.481h-76.833v-49.7h76.833c3.314,0,6,2.686,6,6v37.7
	C405.102,62.794,402.415,65.481,399.102,65.481z"/>
<path style="fill:#FCB043;" d="M448.801,371.965H63.2c-3.314,0-6-2.686-6-6v-21.133c0-3.314,2.686-6,6-6h385.601
	c3.314,0,6,2.686,6,6v21.133C454.801,369.279,452.115,371.965,448.801,371.965z"/>
<path style="fill:#EF9122;" d="M448.801,371.965c3.314,0,6-2.686,6-6v-21.133c0-3.314-2.686-6-6-6H289.134v33.133H448.801z"/>
<path style="fill:#0084CE;" d="M399.102,15.781h-20c3.314,0,6,2.686,6,6v37.7c0,3.314-2.686,6-6,6h20c3.314,0,6-2.686,6-6v-37.7
	C405.102,18.468,402.415,15.781,399.102,15.781z"/>
<path d="M454.801,331.332h-9.066V189.73c0-2.202-0.075-4.387-0.207-6.557c0.131-0.554,0.207-1.13,0.207-1.724
	c0-1.03-0.208-2.011-0.584-2.905c-5.61-53.708-51.149-95.715-106.316-95.715h-9.066V72.98h75.333c4.142,0,7.5-3.358,7.5-7.5v-49.7
	c0-4.142-3.358-7.5-7.5-7.5h-75.333V7.5c0-4.142-3.358-7.5-7.5-7.5s-7.5,3.358-7.5,7.5v8.281v49.7V82.83H173.166
	c-58.945,0-106.9,47.955-106.9,106.9v141.601h-9.067c-4.142,0-7.5,3.358-7.5,7.5v33.133c0,4.142,3.358,7.5,7.5,7.5h141.6V405.1
	c0,4.142,3.358,7.5,7.5,7.5h25.634v91.9c0,4.142,3.358,7.5,7.5,7.5h33.134c4.142,0,7.5-3.358,7.5-7.5v-91.9h25.633
	c4.142,0,7.5-3.358,7.5-7.5v-25.635h141.6c4.142,0,7.5-3.358,7.5-7.5v-33.133C462.301,334.689,458.943,331.332,454.801,331.332z
	 M397.602,23.281v34.7h-67.833v-34.7C329.768,23.281,397.602,23.281,397.602,23.281z M314.768,97.83v52.157
	c-14.232,3.393-24.851,16.207-24.851,31.463c0,17.838,14.512,32.351,32.351,32.351s32.351-14.512,32.351-32.351
	c0-15.256-10.618-28.07-24.851-31.463V97.83h9.066c45.294,0,83.036,32.939,90.54,76.12H405.1c-4.142,0-7.5,3.358-7.5,7.5
	s3.358,7.5,7.5,7.5h25.624c0.002,0.26,0.01,0.52,0.01,0.781v141.601H280.067V189.73c0-39.032-21.031-73.239-52.352-91.9
	C227.715,97.83,314.768,97.83,314.768,97.83z M322.268,188.95c4.142,0,7.5-3.358,7.5-7.5v-15.621
	c5.817,2.805,9.851,8.743,9.851,15.621c0,9.567-7.783,17.351-17.351,17.351s-17.351-7.784-17.351-17.351
	c0-6.878,4.034-12.817,9.851-15.621v15.621C314.768,185.592,318.126,188.95,322.268,188.95z M64.699,346.332H106.9
	c4.142,0,7.5-3.358,7.5-7.5s-3.358-7.5-7.5-7.5H81.266V189.73c0-50.674,41.226-91.9,91.9-91.9s91.9,41.226,91.9,91.9v141.601
	H136.848c-4.142,0-7.5,3.358-7.5,7.5s3.358,7.5,7.5,7.5h144.786v18.133H64.699V346.332z M265.068,497h-18.134v-84.4h18.134V497z
	 M298.201,397.6h-84.4v-18.135h75.316c0.007,0,0.013,0.001,0.019,0.001s0.013-0.001,0.019-0.001h9.047V397.6H298.201z
	 M447.301,364.465H296.635v-18.133h150.666L447.301,364.465L447.301,364.465z"/>
<path d="M246.935,222.866v-25.635h0.783c4.142,0,7.5-3.358,7.5-7.5s-3.358-7.5-7.5-7.5h-8.283H106.901h-8.284
	c-4.142,0-7.5,3.358-7.5,7.5s3.358,7.5,7.5,7.5h0.784v25.635c0,4.142,3.358,7.5,7.5,7.5h132.534
	C243.577,230.366,246.935,227.008,246.935,222.866z M231.935,215.366H114.401v-18.135h117.534V215.366z"/>
<path d="M156.602,164.099h33.133c4.142,0,7.5-3.358,7.5-7.5s-3.358-7.5-7.5-7.5h-33.133c-4.142,0-7.5,3.358-7.5,7.5
	S152.46,164.099,156.602,164.099z"/>
<g>
</g>
<g>
</g>
<g>
</g>
<g>
</g>
<g>
</g>
<g>
</g>
<g>
</g>
<g>
</g>
<g>
</g>
<g>
</g>
<g>
</g>
<g>
</g>
<g>
</g>
<g>
</g>
<g>
</g>
</svg>
