<?xml version="1.0" encoding="iso-8859-1"?>
<!-- Generator: Adobe Illustrator 19.0.0, SVG Export Plug-In . SVG Version: 6.00 Build 0)  -->
<svg version="1.1" id="Capa_1" xmlns="http://www.w3.org/2000/svg" xmlns:xlink="http://www.w3.org/1999/xlink" x="0px" y="0px"
	 viewBox="0 0 512 512" style="enable-background:new 0 0 512 512;" xml:space="preserve">
<path style="fill:#3B4F66;" d="M123.467,471.367c0,18.299,14.834,33.133,33.132,33.133h198.8c18.299,0,33.133-14.834,33.133-33.133
	V40.632c0-18.299-14.834-33.132-33.133-33.132H156.6c-18.299,0-33.132,14.834-33.132,33.132L123.467,471.367L123.467,471.367z"/>
<path style="fill:#2C3B4D;" d="M355.4,7.5h-20c18.299,0,33.133,14.834,33.133,33.132v430.735c0,18.299-14.834,33.133-33.133,33.133
	h20c18.299,0,33.133-14.834,33.133-33.133V40.632C388.533,22.334,373.699,7.5,355.4,7.5z"/>
<rect x="123.47" y="73.77" style="fill:#04A1EE;" width="265.06" height="347.9"/>
<rect x="368.53" y="73.77" style="fill:#0084CE;" width="20" height="347.9"/>
<path style="fill:#FCB043;" d="M322.266,206.301h24.849c9.15,0,16.568,7.417,16.568,16.568v99.399
	c0,9.15-7.418,16.568-16.568,16.568h-182.23c-9.15,0-16.567-7.418-16.567-16.568v-99.399c0-9.15,7.417-16.568,16.567-16.568h24.849
	H322.266z"/>
<g>
	<path style="fill:#EF9122;" d="M343.681,222.868v99.399c0,9.15-7.418,16.568-16.568,16.568h20.001
		c9.15,0,16.567-7.418,16.567-16.568v-99.399c0-9.15-7.418-16.568-16.567-16.568h-20.001
		C336.264,206.301,343.681,213.718,343.681,222.868z"/>
	<path style="fill:#EF9122;" d="M360.142,212.654c-3.033-3.863-7.734-6.353-13.027-6.353h-24.849H189.734h-24.849
		c-5.292,0-9.994,2.49-13.027,6.353l101.152,58.192c1.852,1.066,4.132,1.066,5.984,0L360.142,212.654z"/>
</g>
<path style="fill:#DEF2FC;" d="M322.266,234.445v-88.411c0-3.314-2.686-6-6-6H195.734c-3.314,0-6,2.686-6,6v88.41l63.273,36.401
	c1.852,1.066,4.132,1.066,5.984,0L322.266,234.445z"/>
<path style="fill:#CC6319;" d="M343.645,222.145l16.497-9.491l0,0c-0.179-0.227-0.364-0.449-0.554-0.667
	c-0.062-0.071-0.127-0.139-0.19-0.209c-0.315-0.35-0.645-0.686-0.989-1.008c-0.107-0.1-0.215-0.198-0.324-0.295
	c-0.29-0.257-0.589-0.503-0.896-0.74c-0.161-0.124-0.323-0.247-0.488-0.365c-0.185-0.132-0.372-0.263-0.564-0.387
	c-0.299-0.195-0.604-0.381-0.916-0.557c-0.163-0.092-0.33-0.179-0.497-0.266c-0.323-0.167-0.65-0.328-0.984-0.474
	c-0.14-0.061-0.282-0.118-0.424-0.175c-0.346-0.14-0.697-0.269-1.054-0.385c-0.107-0.035-0.212-0.073-0.32-0.106
	c-0.432-0.131-0.872-0.242-1.317-0.339c-0.107-0.023-0.215-0.046-0.323-0.067c-0.46-0.09-0.926-0.163-1.399-0.214
	c-0.084-0.009-0.169-0.014-0.253-0.022c-0.506-0.047-1.016-0.077-1.534-0.077l0,0h-20.001
	C336.019,206.301,343.264,213.333,343.645,222.145z"/>
<path d="M289.133,33.135h-66.267c-4.142,0-7.5,3.358-7.5,7.5s3.358,7.5,7.5,7.5h66.267c4.142,0,7.5-3.358,7.5-7.5
	S293.275,33.135,289.133,33.135z"/>
<path d="M330.549,33.135h-16.566c-4.142,0-7.5,3.358-7.5,7.5s3.358,7.5,7.5,7.5h16.566c4.142,0,7.5-3.358,7.5-7.5
	S334.691,33.135,330.549,33.135z"/>
<path d="M355.4,0H156.6c-22.405,0-40.633,18.228-40.633,40.632v69.454c0,4.142,3.358,7.5,7.5,7.5s7.5-3.358,7.5-7.5V81.268h250.065
	v332.896H130.967v-274.13c0-4.142-3.358-7.5-7.5-7.5s-7.5,3.358-7.5,7.5v331.334c0,22.405,18.228,40.632,40.633,40.632h198.8
	c22.405,0,40.633-18.228,40.633-40.632V40.632C396.033,18.228,377.805,0,355.4,0z M130.967,66.268V40.632
	C130.967,26.499,142.466,15,156.6,15h198.8c14.134,0,25.633,11.499,25.633,25.632v25.635L130.967,66.268L130.967,66.268z M355.4,497
	H156.6c-14.134,0-25.633-11.499-25.633-25.632v-42.204h250.065v42.204C381.033,485.501,369.534,497,355.4,497z"/>
<path d="M280.851,439.017H231.15c-13.27,0-24.065,10.796-24.065,24.065c0,13.27,10.796,24.065,24.065,24.065h49.701
	c13.27,0,24.065-10.796,24.065-24.065C304.916,449.813,294.12,439.017,280.851,439.017z M280.851,472.148H231.15
	c-4.999,0-9.065-4.067-9.065-9.065c0-4.998,4.067-9.065,9.065-9.065h49.701c4.999,0,9.065,4.067,9.065,9.065
	C289.916,468.081,285.849,472.148,280.851,472.148z"/>
<path d="M322.266,132.534H189.734c-4.142,0-7.5,3.358-7.5,7.5V198.8h-17.349c-7.51,0-14.225,3.459-18.642,8.866
	c-0.183,0.206-0.354,0.426-0.516,0.656c-3.077,4.044-4.909,9.084-4.909,14.546v99.399c0,5.534,1.882,10.634,5.034,14.704
	c0.051,0.068,0.095,0.138,0.148,0.205c0.032,0.04,0.069,0.074,0.102,0.113c4.414,5.509,11.192,9.046,18.784,9.046h182.231
	c7.592,0,14.37-3.537,18.784-9.046c0.033-0.039,0.069-0.072,0.101-0.112c0.053-0.066,0.096-0.136,0.146-0.203
	c3.153-4.07,5.036-9.171,5.036-14.706v-99.399c0-5.462-1.832-10.503-4.91-14.546c-0.161-0.229-0.332-0.448-0.514-0.654
	c-4.417-5.408-11.133-8.868-18.644-8.868h-17.35v-58.767C329.766,135.892,326.408,132.534,322.266,132.534z M356.183,223.585v96.099
	l-69.757-55.967L356.183,223.585z M155.817,223.584l69.757,40.131l-69.757,55.969V223.584z M239.533,271.745l12.729,7.323
	c1.158,0.666,2.449,0.999,3.74,0.999s2.583-0.333,3.74-0.999l12.723-7.32l74.268,59.586H165.264L239.533,271.745z M197.234,147.534
	h117.532v82.573l-58.764,33.808l-58.769-33.809v-82.572H197.234z M182.234,221.476l-13.343-7.676h13.343V221.476z M343.11,213.8
	l-13.343,7.677V213.8H343.11z"/>
<path d="M256,246.934c6.987,0,13.684-1.567,19.904-4.658c3.71-1.843,5.222-6.344,3.379-10.054c-1.844-3.71-6.345-5.222-10.054-3.379
	c-4.127,2.051-8.579,3.091-13.229,3.091c-16.418,0-29.775-13.357-29.775-29.775s13.357-29.775,29.775-29.775
	s29.775,13.357,29.775,29.775v6.212c0,1.574-1.281,2.855-2.855,2.855s-2.855-1.281-2.855-2.854l0.001-6.149
	c0-0.022,0.002-0.043,0.002-0.064s-0.002-0.042-0.002-0.064l0.002-12.361c0-4.142-3.357-7.501-7.499-7.501c0,0,0,0-0.001,0
	c-0.871,0-1.704,0.156-2.482,0.429c-3.963-2.871-8.828-4.57-14.086-4.57c-13.271,0-24.067,10.796-24.067,24.067
	s10.796,24.067,24.067,24.067c5.49,0,10.553-1.851,14.607-4.957c3.207,3.063,7.539,4.957,12.313,4.957
	c9.845,0,17.855-8.01,17.855-17.855v-6.212c0-24.689-20.086-44.775-44.775-44.775s-44.775,20.086-44.775,44.775
	S231.311,246.934,256,246.934z M256,211.227c-5,0-9.067-4.067-9.067-9.067s4.067-9.067,9.067-9.067c4.989,0,9.048,4.05,9.066,9.035
	v0.064C265.048,207.176,260.989,211.227,256,211.227z"/>
<g>
</g>
<g>
</g>
<g>
</g>
<g>
</g>
<g>
</g>
<g>
</g>
<g>
</g>
<g>
</g>
<g>
</g>
<g>
</g>
<g>
</g>
<g>
</g>
<g>
</g>
<g>
</g>
<g>
</g>
</svg>
