<?xml version="1.0" encoding="iso-8859-1"?>
<!-- Generator: Adobe Illustrator 19.0.0, SVG Export Plug-In . SVG Version: 6.00 Build 0)  -->
<svg version="1.1" id="Capa_1" xmlns="http://www.w3.org/2000/svg" xmlns:xlink="http://www.w3.org/1999/xlink" x="0px" y="0px"
	 viewBox="0 0 512 512" style="enable-background:new 0 0 512 512;" xml:space="preserve">
<path style="fill:#BCCED5;" d="M487.933,405.665V106.9c0-18.299-14.834-33.132-33.132-33.132H57.198
	c-18.298,0-33.132,14.834-33.132,33.132v298.766L487.933,405.665L487.933,405.665z"/>
<path style="fill:#04A1EE;" d="M57.197,349.401v-236.5c0-3.314,2.686-6,6-6h385.605c3.314,0,6,2.686,6,6v236.5c0,3.314-2.686,6-6,6
	H63.197C59.884,355.401,57.197,352.715,57.197,349.401z"/>
<path style="fill:#FCB043;" d="M322.266,198.018h24.849c9.15,0,16.568,7.417,16.568,16.568v99.399
	c0,9.15-7.418,16.568-16.568,16.568h-182.23c-9.15,0-16.568-7.418-16.568-16.568v-99.399c0-9.15,7.417-16.568,16.568-16.568h24.849
	H322.266z"/>
<g>
	<path style="fill:#EF9122;" d="M343.682,214.585v99.399c0,9.15-7.418,16.568-16.568,16.568h20.001
		c9.15,0,16.567-7.418,16.567-16.568v-99.399c0-9.15-7.418-16.568-16.567-16.568h-20.001
		C336.264,198.018,343.682,205.435,343.682,214.585z"/>
	<path style="fill:#EF9122;" d="M360.142,204.371c-3.033-3.863-7.734-6.353-13.027-6.353h-24.849H189.734h-24.849
		c-5.292,0-9.994,2.49-13.027,6.353l101.152,58.192c1.852,1.066,4.132,1.066,5.984,0L360.142,204.371z"/>
</g>
<path style="fill:#DEF2FC;" d="M322.266,226.162v-88.411c0-3.314-2.686-6-6-6H195.734c-3.314,0-6,2.686-6,6v88.41l63.274,36.401
	c1.852,1.066,4.132,1.066,5.984,0L322.266,226.162z"/>
<path style="fill:#CC6319;" d="M343.645,213.862l16.497-9.491l0,0c-0.179-0.227-0.364-0.449-0.554-0.667
	c-0.062-0.071-0.127-0.139-0.19-0.209c-0.316-0.35-0.645-0.686-0.989-1.008c-0.107-0.1-0.215-0.198-0.324-0.295
	c-0.29-0.257-0.589-0.503-0.896-0.74c-0.161-0.124-0.323-0.247-0.488-0.365c-0.186-0.132-0.373-0.263-0.564-0.388
	c-0.299-0.195-0.604-0.381-0.916-0.557c-0.163-0.092-0.33-0.179-0.497-0.266c-0.323-0.167-0.65-0.328-0.984-0.474
	c-0.14-0.061-0.282-0.118-0.424-0.175c-0.346-0.14-0.697-0.269-1.054-0.385c-0.107-0.035-0.212-0.073-0.32-0.106
	c-0.432-0.131-0.872-0.242-1.317-0.339c-0.107-0.023-0.215-0.046-0.323-0.067c-0.46-0.09-0.926-0.163-1.399-0.214
	c-0.084-0.009-0.169-0.014-0.253-0.022c-0.506-0.047-1.016-0.077-1.534-0.077l0,0h-20.001
	C336.02,198.018,343.264,205.05,343.645,213.862z"/>
<path style="fill:#879499;" d="M454.801,73.767h-20c18.299,0,33.132,14.834,33.132,33.132v298.766h20V106.899
	C487.933,88.601,473.1,73.767,454.801,73.767z"/>
<path style="fill:#DEF2FC;" d="M498.499,388.536H13.5c-3.314,0-6,2.687-6,6l0.001,10.566c0,18.298,14.834,33.132,33.132,33.132
	h430.732c18.299,0,33.133-14.834,33.133-33.132l0.001-10.566C504.5,391.223,501.813,388.536,498.499,388.536z"/>
<path style="fill:#BCCED5;" d="M484.5,388.536l-0.002,16.567c0,18.298-14.834,33.132-33.132,33.132h20
	c18.299,0,33.132-14.834,33.132-33.132l0.001-10.566c0-3.314-2.686-6.001-6-6.001L484.5,388.536L484.5,388.536z"/>
<path style="fill:#0084CE;" d="M448.803,106.902h-20.002c3.314,0,6,2.686,6,6v236.5c0,3.314-2.686,6-6,6h20.002c3.314,0,6-2.686,6-6
	v-236.5C454.803,109.588,452.116,106.902,448.803,106.902z"/>
<path d="M512,388.536c0-0.017-0.002-0.033-0.002-0.049c-0.002-0.234-0.012-0.467-0.035-0.698c-0.019-0.195-0.052-0.387-0.086-0.577
	c-0.009-0.05-0.013-0.1-0.023-0.15c-0.045-0.227-0.103-0.449-0.168-0.668c-0.004-0.013-0.006-0.027-0.01-0.041
	c-0.067-0.222-0.146-0.439-0.234-0.653c-0.005-0.012-0.009-0.025-0.013-0.037c-0.084-0.202-0.179-0.399-0.28-0.592
	c-0.012-0.024-0.022-0.049-0.035-0.073c-0.095-0.177-0.2-0.347-0.308-0.515c-0.025-0.038-0.045-0.079-0.071-0.116
	c-0.11-0.164-0.229-0.32-0.351-0.474c-0.03-0.038-0.056-0.078-0.087-0.116c-0.311-0.379-0.659-0.727-1.038-1.038
	c-0.043-0.036-0.09-0.066-0.134-0.1c-0.148-0.117-0.298-0.232-0.455-0.337c-0.045-0.03-0.092-0.055-0.137-0.083
	c-0.161-0.103-0.324-0.204-0.493-0.295c-0.034-0.018-0.07-0.032-0.104-0.05c-0.183-0.095-0.368-0.185-0.56-0.265
	c-0.024-0.01-0.049-0.017-0.074-0.027c-0.201-0.081-0.406-0.157-0.615-0.22c-0.029-0.009-0.059-0.014-0.088-0.023
	c-0.204-0.059-0.411-0.114-0.622-0.156c-0.062-0.012-0.125-0.018-0.187-0.029c-0.179-0.031-0.358-0.063-0.541-0.081
	c-0.248-0.025-0.497-0.038-0.749-0.038h-9.066V106.9c0-22.405-18.228-40.633-40.633-40.633H57.198
	c-22.405,0-40.632,18.228-40.632,40.633v274.136H7.5c-0.251,0-0.501,0.013-0.749,0.038c-0.182,0.018-0.359,0.049-0.537,0.08
	c-0.063,0.011-0.128,0.017-0.191,0.029c-0.21,0.042-0.416,0.096-0.619,0.155c-0.03,0.009-0.061,0.014-0.091,0.023
	c-0.206,0.063-0.407,0.137-0.605,0.217c-0.028,0.011-0.057,0.019-0.084,0.031c-0.187,0.078-0.368,0.166-0.546,0.258
	c-0.039,0.02-0.08,0.036-0.118,0.057c-0.163,0.087-0.318,0.185-0.474,0.284c-0.052,0.033-0.106,0.061-0.157,0.095
	c-0.14,0.094-0.273,0.197-0.406,0.3c-0.061,0.047-0.125,0.089-0.185,0.138c-0.153,0.126-0.297,0.261-0.439,0.398
	c-0.033,0.032-0.07,0.06-0.103,0.093c-0.034,0.034-0.063,0.071-0.095,0.106c-0.136,0.141-0.27,0.285-0.395,0.436
	c-0.046,0.056-0.085,0.115-0.129,0.172c-0.106,0.137-0.213,0.274-0.31,0.419c-0.031,0.046-0.057,0.096-0.087,0.143
	c-0.102,0.16-0.202,0.321-0.292,0.488c-0.018,0.034-0.032,0.07-0.05,0.104c-0.095,0.183-0.185,0.369-0.265,0.561
	c-0.009,0.022-0.016,0.045-0.025,0.067c-0.082,0.204-0.158,0.41-0.223,0.622c-0.007,0.022-0.011,0.046-0.018,0.068
	c-0.062,0.21-0.118,0.423-0.161,0.641c-0.011,0.056-0.016,0.113-0.026,0.169c-0.032,0.185-0.065,0.369-0.083,0.559
	c-0.024,0.239-0.036,0.481-0.036,0.723c0,0.008-0.001,0.016-0.001,0.025l0,0l0,0l0.001,16.566c0,22.405,18.228,40.632,40.632,40.632
	h430.731c22.405,0,40.633-18.228,40.633-40.631L512,388.536L512,388.536L512,388.536z M31.566,106.9
	c0-14.134,11.499-25.633,25.632-25.633h397.603c14.134,0,25.633,11.499,25.633,25.633v274.136H31.566V106.9z M295.112,396.036
	l-3.008,8.554h-72.207l-3.009-8.554H295.112z M496.998,405.103c0,14.134-11.499,25.632-25.633,25.632H40.634
	c-14.134,0-25.632-11.499-25.632-25.633L15,396.036h185.987l6.522,18.543c1.056,3.003,3.893,5.011,7.075,5.011h82.833
	c3.184,0,6.02-2.009,7.075-5.012l6.519-18.542h185.987L496.998,405.103z"/>
<path d="M462.303,355.402v-248.5c0-4.142-3.357-7.5-7.5-7.5H148.317c-4.142,0-7.5,3.358-7.5,7.5s3.358,7.5,7.5,7.5h298.985v233.5
	H64.697v-233.5h54.023c4.142,0,7.5-3.358,7.5-7.5s-3.358-7.5-7.5-7.5H57.197c-4.142,0-7.5,3.358-7.5,7.5v248.5
	c0,4.142,3.358,7.5,7.5,7.5h397.605C458.945,362.902,462.303,359.544,462.303,355.402z"/>
<path d="M145.999,328.892c0.031,0.039,0.067,0.071,0.099,0.109c4.414,5.511,11.193,9.05,18.787,9.05h182.23
	c7.593,0,14.372-3.538,18.786-9.049c0.032-0.038,0.067-0.07,0.098-0.109c0.052-0.064,0.094-0.133,0.143-0.198
	c3.155-4.071,5.039-9.174,5.039-14.711v-99.399c0-5.461-1.831-10.501-4.908-14.544c-0.163-0.231-0.334-0.452-0.518-0.659
	c-4.417-5.406-11.132-8.865-18.642-8.865h-17.35v-58.766c0-4.142-3.357-7.5-7.5-7.5H189.734c-4.142,0-7.5,3.358-7.5,7.5v58.767
	h-17.35c-7.51,0-14.225,3.459-18.642,8.866c-0.183,0.206-0.354,0.426-0.516,0.656c-3.077,4.043-4.909,9.084-4.909,14.545v99.399
	c0,5.537,1.884,10.639,5.038,14.71C145.905,328.759,145.947,328.828,145.999,328.892z M225.574,255.432L155.817,311.4v-96.099
	L225.574,255.432z M356.183,215.302v96.099l-69.757-55.967L356.183,215.302z M272.466,263.465l74.268,59.586H165.263l74.27-59.589
	l12.729,7.323c1.158,0.666,2.449,0.999,3.74,0.999c1.292,0,2.583-0.333,3.74-0.999L272.466,263.465z M343.108,205.518l-13.343,7.676
	v-7.676H343.108z M314.766,139.251v82.573l-58.763,33.808l-58.768-33.809v-82.572H314.766z M182.234,213.194l-13.342-7.676h13.342
	V213.194z"/>
<path d="M256,238.651c6.988,0,13.685-1.567,19.904-4.658c3.709-1.843,5.222-6.345,3.379-10.054
	c-1.844-3.709-6.346-5.222-10.055-3.378c-4.127,2.051-8.577,3.091-13.228,3.091c-16.418,0-29.775-13.357-29.775-29.775
	s13.357-29.776,29.775-29.776s29.775,13.357,29.775,29.775v6.212c0,1.574-1.281,2.855-2.855,2.855s-2.854-1.281-2.854-2.854
	l0.001-6.162c0-0.017,0.001-0.034,0.001-0.051s-0.001-0.034-0.001-0.051l0.001-12.374c0-4.142-3.357-7.501-7.499-7.501
	c-0.001,0,0,0-0.001,0c-0.871,0-1.704,0.156-2.482,0.429c-3.963-2.871-8.828-4.57-14.085-4.57
	c-13.271,0-24.067,10.796-24.067,24.067s10.796,24.067,24.067,24.067c5.49,0,10.553-1.852,14.607-4.958
	c3.207,3.063,7.539,4.958,12.313,4.958c9.846,0,17.856-8.01,17.856-17.855v-6.212c0-24.689-20.086-44.775-44.775-44.775
	s-44.775,20.086-44.775,44.775S231.311,238.651,256,238.651z M256,202.944c-5,0-9.067-4.067-9.067-9.067S251,184.81,256,184.81
	c4.991,0,9.052,4.054,9.066,9.042v0.051C265.052,198.89,260.991,202.944,256,202.944z"/>
<g>
</g>
<g>
</g>
<g>
</g>
<g>
</g>
<g>
</g>
<g>
</g>
<g>
</g>
<g>
</g>
<g>
</g>
<g>
</g>
<g>
</g>
<g>
</g>
<g>
</g>
<g>
</g>
<g>
</g>
</svg>
