<?xml version="1.0" encoding="iso-8859-1"?>
<!-- Generator: Adobe Illustrator 19.0.0, SVG Export Plug-In . SVG Version: 6.00 Build 0)  -->
<svg version="1.1" id="Capa_1" xmlns="http://www.w3.org/2000/svg" xmlns:xlink="http://www.w3.org/1999/xlink" x="0px" y="0px"
	 viewBox="0 0 512 512" style="enable-background:new 0 0 512 512;" xml:space="preserve">
<polygon style="fill:#BCCED5;" points="185.59,454.797 193.874,388.534 193.874,375.001 318.125,375.001 318.125,388.534 
	326.409,454.797 326.409,471.368 185.59,471.368 "/>
<path style="fill:#3B4F66;" d="M7.501,355.403c0,18.299,14.834,33.132,33.132,33.132h430.732c18.298,0,33.132-14.834,33.132-33.132
	V57.2c0-18.299-14.834-33.132-33.132-33.132H40.633c-18.299,0-33.132,14.834-33.132,33.132C7.501,57.2,7.501,355.403,7.501,355.403z
	"/>
<path style="fill:#2C3B4D;" d="M471.365,24.067h-20c18.299,0,33.133,14.834,33.133,33.132v298.203
	c0,18.299-14.834,33.132-33.133,33.132h20c18.299,0,33.133-14.834,33.133-33.132V57.2C504.498,38.901,489.664,24.067,471.365,24.067
	z"/>
<path style="fill:#DEF2FC;" d="M365.966,454.802H146.034c-3.314,0-6,2.686-6,6v21.132c0,3.314,2.686,6,6,6h219.933
	c3.314,0,6-2.686,6-6v-21.132C371.966,457.489,369.28,454.802,365.966,454.802z"/>
<path style="fill:#04A1EE;" d="M40.632,316.269V63.202c0-3.314,2.686-6,6-6h418.735c3.314,0,6,2.686,6,6v253.067
	c0,3.314-2.686,6-6,6H46.632C43.319,322.269,40.632,319.582,40.632,316.269z"/>
<path style="fill:#DEF2FC;" d="M471.365,388.535c18.299,0,33.133-14.834,33.133-33.132V322.27H7.501v33.133
	c0,18.299,14.834,33.132,33.132,33.132H471.365z"/>
<circle style="fill:#3B4F66;" cx="256" cy="355.401" r="16.567"/>
<g>
	<path style="fill:#BCCED5;" d="M484.498,355.403c0,18.299-14.834,33.132-33.133,33.132h20c18.299,0,33.133-14.834,33.133-33.132
		V322.27h-20V355.403z"/>
	<path style="fill:#BCCED5;" d="M365.966,454.802h-20c3.314,0,6,2.686,6,6v21.132c0,3.314-2.686,6-6,6h20c3.314,0,6-2.686,6-6
		v-21.132C371.966,457.489,369.28,454.802,365.966,454.802z"/>
</g>
<path style="fill:#0084CE;" d="M465.367,57.201h-20.002c3.314,0,6,2.686,6,6v253.068c0,3.314-2.686,6-6,6h20.002
	c3.314,0,6-2.686,6-6V63.201C471.367,59.887,468.681,57.201,465.367,57.201z"/>
<path style="fill:#FCB043;" d="M322.267,156.602h24.849c9.15,0,16.568,7.417,16.568,16.568v99.399
	c0,9.15-7.417,16.568-16.568,16.568H164.885c-9.15,0-16.568-7.417-16.568-16.568V173.17c0-9.15,7.418-16.568,16.568-16.568h24.849
	L322.267,156.602L322.267,156.602z"/>
<g>
	<path style="fill:#EF9122;" d="M343.682,173.169v99.399c0,9.15-7.418,16.568-16.568,16.568h20.001
		c9.15,0,16.567-7.417,16.567-16.568v-99.399c0-9.15-7.417-16.568-16.567-16.568h-20.001
		C336.265,156.602,343.682,164.019,343.682,173.169z"/>
	<path style="fill:#EF9122;" d="M360.143,162.955c-3.033-3.863-7.734-6.353-13.027-6.353h-24.849H189.735h-24.849
		c-5.292,0-9.994,2.491-13.027,6.353l101.152,58.192c1.852,1.066,4.132,1.066,5.984,0L360.143,162.955z"/>
</g>
<path style="fill:#DEF2FC;" d="M322.266,184.746V96.335c0-3.314-2.686-6-6-6H195.735c-3.314,0-6,2.686-6,6v88.41l63.274,36.401
	c1.852,1.066,4.131,1.066,5.984,0L322.266,184.746z"/>
<path style="fill:#CC6319;" d="M343.646,172.446l16.497-9.491l0,0c-0.179-0.227-0.364-0.449-0.554-0.667
	c-0.062-0.071-0.127-0.139-0.19-0.209c-0.316-0.35-0.645-0.686-0.989-1.008c-0.107-0.1-0.215-0.198-0.324-0.295
	c-0.29-0.257-0.589-0.503-0.896-0.74c-0.161-0.124-0.323-0.247-0.488-0.365c-0.185-0.132-0.372-0.263-0.564-0.388
	c-0.299-0.195-0.604-0.381-0.916-0.557c-0.163-0.092-0.33-0.179-0.497-0.266c-0.323-0.167-0.65-0.328-0.984-0.474
	c-0.14-0.061-0.282-0.118-0.424-0.175c-0.346-0.14-0.697-0.269-1.054-0.386c-0.107-0.035-0.212-0.073-0.32-0.106
	c-0.432-0.131-0.872-0.243-1.317-0.339c-0.107-0.023-0.215-0.046-0.323-0.067c-0.46-0.09-0.926-0.163-1.399-0.214
	c-0.084-0.009-0.169-0.015-0.253-0.022c-0.506-0.047-1.016-0.077-1.534-0.077l0,0h-20.001
	C336.02,156.602,343.264,163.634,343.646,172.446z"/>
<path d="M512,322.269c0-0.013-0.002-0.026-0.002-0.039V57.2c0-22.405-18.227-40.632-40.633-40.632H40.634
	c-22.405,0-40.633,18.228-40.633,40.632v265.05c0,0.007-0.001,0.013-0.001,0.019c0,0.007,0.001,0.013,0.001,0.019v33.114
	c0,22.405,18.228,40.632,40.633,40.632h144.744l-6.409,51.267h-38.936c-4.143,0-7.5,3.358-7.5,7.5v33.132c0,4.142,3.357,7.5,7.5,7.5
	h231.934c4.143,0,7.5-3.358,7.5-7.5v-33.132c0-4.142-3.357-7.5-7.5-7.5h-38.936l-6.409-51.267h144.744
	c22.405,0,40.633-18.227,40.633-40.632v-33.095C511.998,322.295,512,322.282,512,322.269z M40.634,31.568h430.731
	c14.134,0,25.633,11.499,25.633,25.632v257.569h-18.131V57.202c0-4.142-3.357-7.5-7.5-7.5H148.668c-4.143,0-7.5,3.358-7.5,7.5
	s3.357,7.5,7.5,7.5h315.199v250.067H48.132V64.702h70.55c4.143,0,7.5-3.358,7.5-7.5s-3.357-7.5-7.5-7.5h-78.05
	c-4.143,0-7.5,3.358-7.5,7.5v257.567H15.001V57.2C15.001,43.066,26.5,31.568,40.634,31.568z M364.467,480.434H147.533v-18.132
	h216.934V480.434z M317.914,447.302H194.086l6.409-51.267h31.439v25.632c0,4.142,3.357,7.5,7.5,7.5h33.133
	c4.143,0,7.5-3.358,7.5-7.5v-25.632h31.438L317.914,447.302z M265.066,396.035v18.132h-18.133v-18.132H265.066z M471.365,381.035
	H40.634c-14.134,0-25.633-11.498-25.633-25.632V329.77h481.997v25.633C496.998,369.536,485.499,381.035,471.365,381.035z"/>
<path d="M256,331.335c-13.27,0-24.067,10.796-24.067,24.067S242.73,379.469,256,379.469c13.271,0,24.067-10.796,24.067-24.067
	S269.271,331.335,256,331.335z M256,364.469c-5,0-9.067-4.067-9.067-9.067c0-4.999,4.067-9.067,9.067-9.067s9.067,4.067,9.067,9.067
	S261,364.469,256,364.469z"/>
<path d="M146,287.475c0.03,0.037,0.064,0.068,0.094,0.105c4.414,5.514,11.195,9.054,18.79,9.054h182.232
	c7.598,0,14.38-3.543,18.794-9.059c0.029-0.035,0.062-0.064,0.09-0.1c0.047-0.059,0.085-0.121,0.13-0.18
	c3.163-4.074,5.053-9.184,5.053-14.729v-99.399c0-5.462-1.832-10.503-4.91-14.546c-0.161-0.229-0.332-0.448-0.514-0.654
	c-4.417-5.408-11.133-8.868-18.644-8.868h-17.352V90.334c0-4.142-3.357-7.5-7.5-7.5H189.734c-4.143,0-7.5,3.358-7.5,7.5v58.767
	h-17.35c-7.512,0-14.229,3.461-18.646,8.871c-0.18,0.204-0.349,0.421-0.509,0.648c-3.079,4.044-4.912,9.086-4.912,14.549v99.399
	c0,5.541,1.887,10.646,5.045,14.719C145.91,287.348,145.951,287.414,146,287.475z M225.574,214.015l-69.757,55.968v-96.099
	L225.574,214.015z M356.185,173.884v96.1l-69.758-55.967L356.185,173.884z M272.467,222.049l74.269,59.586H165.264l74.269-59.589
	l12.729,7.323c1.158,0.666,2.449,0.999,3.74,0.999c1.291,0,2.582-0.333,3.74-0.999L272.467,222.049z M343.111,164.1l-13.345,7.678
	V164.1H343.111z M197.234,97.834h117.531v82.574l-58.763,33.807l-58.768-33.809L197.234,97.834L197.234,97.834z M182.234,171.776
	l-13.343-7.676h13.343V171.776z"/>
<path d="M256,197.234c6.988,0,13.685-1.567,19.904-4.658c3.709-1.843,5.222-6.345,3.379-10.054
	c-1.844-3.709-6.346-5.221-10.055-3.378c-4.127,2.051-8.577,3.091-13.228,3.091c-16.418,0-29.775-13.357-29.775-29.775
	s13.357-29.775,29.775-29.775s29.775,13.357,29.775,29.775v6.212c0,1.574-1.281,2.855-2.855,2.855s-2.854-1.281-2.854-2.854
	l0.001-6.162c0-0.017,0.001-0.034,0.001-0.051s-0.001-0.034-0.001-0.051l0.001-12.374c0-4.142-3.357-7.5-7.499-7.501
	c-0.001,0,0,0-0.001,0c-0.871,0-1.704,0.156-2.482,0.429c-3.963-2.872-8.829-4.571-14.086-4.571
	c-13.27,0-24.067,10.796-24.067,24.067S242.73,176.526,256,176.526c5.49,0,10.553-1.851,14.607-4.957
	c3.207,3.063,7.539,4.957,12.313,4.957c9.846,0,17.855-8.01,17.855-17.855v-6.212c0-24.689-20.086-44.775-44.775-44.775
	s-44.775,20.086-44.775,44.775S231.311,197.234,256,197.234z M256,161.526c-5,0-9.067-4.067-9.067-9.067s4.067-9.068,9.067-9.068
	c4.991,0,9.052,4.054,9.066,9.042v0.051C265.052,157.473,260.991,161.526,256,161.526z"/>
<g>
</g>
<g>
</g>
<g>
</g>
<g>
</g>
<g>
</g>
<g>
</g>
<g>
</g>
<g>
</g>
<g>
</g>
<g>
</g>
<g>
</g>
<g>
</g>
<g>
</g>
<g>
</g>
<g>
</g>
</svg>
