<?xml version="1.0" encoding="iso-8859-1"?>
<!-- Generator: Adobe Illustrator 19.0.0, SVG Export Plug-In . SVG Version: 6.00 Build 0)  -->
<svg version="1.1" id="Capa_1" xmlns="http://www.w3.org/2000/svg" xmlns:xlink="http://www.w3.org/1999/xlink" x="0px" y="0px"
	 viewBox="0 0 512.003 512.003" style="enable-background:new 0 0 512.003 512.003;" xml:space="preserve">
<rect x="156.6" y="86.191" style="fill:#E94141;" width="198.8" height="364.47"/>
<g>
	<rect x="335.4" y="86.191" style="fill:#C62525;" width="20" height="364.47"/>
	<polygon style="fill:#C62525;" points="388.534,73.768 355.4,98.618 156.6,98.618 123.468,73.768 123.468,65.001 388.534,65.001 	
		"/>
</g>
<path style="fill:#3B4F66;" d="M316.268,181.452H195.734c-3.314,0-6-2.686-6-6v-21.135c0-3.314,2.686-6,6-6h120.534
	c3.314,0,6,2.686,6,6v21.135C322.268,178.766,319.581,181.452,316.268,181.452z"/>
<polygon style="fill:#991D1D;" points="368.534,65.001 368.534,73.768 335.399,98.618 355.399,98.618 388.534,73.768 
	388.534,65.001 "/>
<path style="fill:#FCB043;" d="M380.251,40.635L257.546,7.913c-1.013-0.27-2.079-0.27-3.092,0L131.752,40.635v11.032h248.499
	L380.251,40.635L380.251,40.635z"/>
<path style="fill:#EF9122;" d="M257.546,7.913c-1.013-0.27-2.079-0.27-3.092,0L246,10.167l114.251,30.468v11.032h20V40.635
	L257.546,7.913z"/>
<path style="fill:#E94141;" d="M388.534,73.768H123.468V46.633c0-3.314,2.686-6,6-6h253.067c3.314,0,6,2.686,6,6v27.134H388.534z"/>
<path style="fill:#C62525;" d="M382.534,40.633h-20c3.314,0,6,2.686,6,6v27.133h20V46.633
	C388.534,43.32,385.848,40.633,382.534,40.633z"/>
<path style="fill:#DEF2FC;" d="M316.267,405.099H195.735c-3.314,0-6-2.686-6-6V245.433c0-3.314,2.686-6,6-6h120.532
	c3.314,0,6,2.686,6,6v153.666C322.267,402.412,319.581,405.099,316.267,405.099z"/>
<path style="fill:#BCCED5;" d="M316.267,239.434h-20c3.314,0,6,2.686,6,6v153.666c0,3.314-2.686,6-6,6h20c3.314,0,6-2.686,6-6
	V245.434C322.267,242.12,319.581,239.434,316.267,239.434z"/>
<path style="fill:#3B4F66;" d="M129.466,504.5h253.066c3.314,0,6-2.686,6-6l-0.001-27.133c0-18.298-14.834-33.132-33.132-33.132
	H156.6c-18.298,0-33.132,14.834-33.132,33.132l-0.002,27.133C123.466,501.814,126.153,504.5,129.466,504.5z"/>
<path style="fill:#2C3B4D;" d="M388.531,471.367c0-18.298-14.834-33.132-33.132-33.132h-20.001
	c18.299,0,33.132,14.834,33.132,33.132l0.001,27.133c0,3.314-2.686,6-6,6h20.001c3.314,0,6-2.686,6-6L388.531,471.367z"/>
<path d="M393.034,79.768c0.042-0.032,0.079-0.067,0.12-0.1c0.108-0.085,0.214-0.173,0.317-0.264c0.089-0.078,0.176-0.156,0.26-0.237
	c0.086-0.083,0.169-0.169,0.252-0.257c0.089-0.095,0.178-0.189,0.262-0.288c0.07-0.083,0.137-0.169,0.204-0.255
	c0.083-0.106,0.165-0.213,0.242-0.323c0.063-0.091,0.122-0.184,0.181-0.278c0.069-0.109,0.138-0.218,0.2-0.329
	c0.06-0.106,0.114-0.215,0.169-0.325c0.051-0.104,0.104-0.207,0.151-0.313c0.054-0.122,0.102-0.248,0.15-0.373
	c0.037-0.099,0.075-0.197,0.108-0.296c0.044-0.132,0.081-0.266,0.117-0.4c0.027-0.101,0.055-0.201,0.078-0.303
	c0.029-0.13,0.053-0.261,0.076-0.393c0.02-0.115,0.038-0.229,0.052-0.344c0.014-0.119,0.025-0.239,0.034-0.359
	c0.01-0.134,0.017-0.269,0.02-0.404c0.001-0.053,0.008-0.105,0.008-0.159V40.633c0-4.142-3.357-7.5-7.5-7.5h-7.306L257.932,0.253
	c-1.266-0.338-2.6-0.338-3.865,0l-123.292,32.88h-7.307c-4.143,0-7.5,3.358-7.5,7.5v33.133c0,0.053,0.007,0.105,0.008,0.159
	c0.003,0.135,0.01,0.269,0.02,0.404c0.009,0.121,0.019,0.24,0.034,0.359c0.014,0.115,0.033,0.23,0.053,0.344
	c0.022,0.132,0.046,0.264,0.076,0.393c0.023,0.102,0.051,0.202,0.078,0.303c0.036,0.135,0.074,0.269,0.117,0.4
	c0.033,0.1,0.071,0.198,0.109,0.297c0.048,0.126,0.095,0.251,0.149,0.373c0.047,0.106,0.099,0.209,0.15,0.312
	c0.055,0.11,0.109,0.219,0.169,0.326c0.063,0.112,0.131,0.22,0.2,0.329c0.059,0.093,0.117,0.187,0.18,0.278
	c0.077,0.11,0.159,0.217,0.242,0.323c0.067,0.086,0.134,0.172,0.204,0.255c0.084,0.098,0.172,0.193,0.262,0.288
	c0.082,0.087,0.165,0.173,0.252,0.257c0.084,0.081,0.172,0.159,0.26,0.237c0.103,0.091,0.209,0.179,0.317,0.264
	c0.041,0.032,0.078,0.068,0.12,0.1l30.133,22.601v13.601h-9.067c-4.143,0-7.5,3.358-7.5,7.5s3.357,7.5,7.5,7.5h9.067v67.833h-9.067
	c-4.143,0-7.5,3.358-7.5,7.5s3.357,7.5,7.5,7.5h9.067v217.64c-18.832,3.53-33.132,20.085-33.132,39.926l-0.002,33.133
	c0,1.989,0.79,3.897,2.196,5.304c1.407,1.407,3.314,2.197,5.304,2.197h265.066c1.989,0,3.896-0.79,5.304-2.197
	c1.406-1.407,2.196-3.314,2.196-5.304l-0.002-33.132c0-19.841-14.299-36.396-33.131-39.927v-217.64h9.067c4.143,0,7.5-3.358,7.5-7.5
	s-3.357-7.5-7.5-7.5H362.9V130.97h9.067c4.143,0,7.5-3.358,7.5-7.5s-3.357-7.5-7.5-7.5H362.9v-13.601L393.034,79.768z M256,15.262
	l67.015,17.871H188.986L256,15.262z M381.033,497H130.966l0.002-18.133h250.063L381.033,497z M379.909,463.867H132.09
	c3.215-10.486,12.985-18.132,24.51-18.132h198.799C366.924,445.735,376.694,453.382,379.909,463.867z M347.9,130.969v67.833H164.1
	v-67.833L347.9,130.969L347.9,130.969z M164.1,115.969v-9.851h183.8v9.851H164.1z M347.9,213.801v216.934H164.1V213.801H347.9z
	 M352.9,91.118H159.1l-13.133-9.851h43.767c4.143,0,7.5-3.358,7.5-7.5s-3.357-7.5-7.5-7.5h-58.767V48.133h249.236
	c0.017,0,0.035,0.003,0.052,0.003c0.014,0,0.027-0.003,0.041-0.003h0.737v18.133H219.682c-4.143,0-7.5,3.358-7.5,7.5
	s3.357,7.5,7.5,7.5h146.352L352.9,91.118z"/>
<path d="M181.451,155.818h0.783v25.635c0,4.142,3.357,7.5,7.5,7.5h132.534c4.143,0,7.5-3.358,7.5-7.5v-25.635h0.783
	c4.143,0,7.5-3.358,7.5-7.5s-3.357-7.5-7.5-7.5h-8.283H189.734h-8.283c-4.143,0-7.5,3.358-7.5,7.5S177.308,155.818,181.451,155.818z
	 M197.234,155.818h117.534v18.135H197.234V155.818z"/>
<path d="M189.735,412.599h132.532c4.143,0,7.5-3.358,7.5-7.5V239.434c0-4.142-3.357-7.5-7.5-7.5H189.735c-4.143,0-7.5,3.358-7.5,7.5
	v165.666C182.235,409.241,185.592,412.599,189.735,412.599z M197.235,246.934h117.532v150.666H197.235V246.934z"/>
<path d="M231.151,372.748h-16.567c-4.143,0-7.5,3.358-7.5,7.5s3.357,7.5,7.5,7.5h16.567c4.143,0,7.5-3.358,7.5-7.5
	S235.294,372.748,231.151,372.748z"/>
<path d="M280.851,264.547h-49.7c-4.143,0-7.5,3.358-7.5,7.5s3.357,7.5,7.5,7.5h49.7c4.143,0,7.5-3.358,7.5-7.5
	S284.994,264.547,280.851,264.547z"/>
<path d="M280.851,298.198h-49.7c-4.143,0-7.5,3.358-7.5,7.5s3.357,7.5,7.5,7.5h49.7c4.143,0,7.5-3.358,7.5-7.5
	S284.994,298.198,280.851,298.198z"/>
<path d="M280.851,331.849h-49.7c-4.143,0-7.5,3.358-7.5,7.5s3.357,7.5,7.5,7.5h49.7c4.143,0,7.5-3.358,7.5-7.5
	S284.994,331.849,280.851,331.849z"/>
<g>
</g>
<g>
</g>
<g>
</g>
<g>
</g>
<g>
</g>
<g>
</g>
<g>
</g>
<g>
</g>
<g>
</g>
<g>
</g>
<g>
</g>
<g>
</g>
<g>
</g>
<g>
</g>
<g>
</g>
</svg>
