<?xml version="1.0" encoding="iso-8859-1"?>
<!-- Generator: Adobe Illustrator 19.0.0, SVG Export Plug-In . SVG Version: 6.00 Build 0)  -->
<svg version="1.1" id="Capa_1" xmlns="http://www.w3.org/2000/svg" xmlns:xlink="http://www.w3.org/1999/xlink" x="0px" y="0px"
	 viewBox="0 0 512 512" style="enable-background:new 0 0 512 512;" xml:space="preserve">
<path style="fill:#FCB043;" d="M487.932,173.163c9.15,0,16.568,7.418,16.568,16.568V487.93c0,9.15-7.418,16.568-16.568,16.568
	h-86.975H111.042H24.067c-9.15,0-16.567-7.418-16.567-16.568v-298.2c0-9.15,7.417-16.568,16.567-16.568h463.865V173.163z"/>
<g>
	<path style="fill:#EF9122;" d="M13.378,177.083l239.069,175.701c2.114,1.554,4.992,1.554,7.106,0l239.068-175.702
		c-2.886-2.441-6.613-3.92-10.689-3.92H24.067C19.991,173.163,16.264,174.642,13.378,177.083z"/>
	<path style="fill:#EF9122;" d="M484.5,189.73v298.2c0,9.15-7.418,16.568-16.568,16.568h20c9.15,0,16.568-7.418,16.568-16.568
		v-298.2c0-9.15-7.418-16.568-16.568-16.568h-20C477.082,173.163,484.5,180.581,484.5,189.73z"/>
</g>
<path style="fill:#DEF2FC;" d="M117.466,471.366H46.633c-3.314,0-6-2.686-6-6v-70.833c0-3.314,2.686-6,6-6h70.833
	c3.314,0,6,2.686,6,6v70.833C123.466,468.68,120.78,471.366,117.466,471.366z"/>
<path style="fill:#04A1EE;" d="M92.617,446.517H71.482c-3.314,0-6-2.686-6-6v-21.135c0-3.314,2.686-6,6-6h21.135
	c3.314,0,6,2.686,6,6v21.135C98.617,443.831,95.931,446.517,92.617,446.517z"/>
<path style="fill:#DEF2FC;" d="M421.666,233.641V13.503c0-3.314-2.686-6-6-6H96.334c-3.314,0-6,2.686-6,6v220.139l162.113,119.143
	c2.114,1.554,4.992,1.554,7.106,0L421.666,233.641z"/>
<path style="fill:#BCCED5;" d="M415.666,7.503h-20c3.314,0,6,2.686,6,6V248.34l20-14.699V13.503
	C421.666,10.189,418.98,7.503,415.666,7.503z"/>
<path style="fill:#FCB043;" d="M206.299,179.735v81.624c0,4.792,5.341,7.65,9.328,4.992l37.045-24.696
	c2.015-1.344,4.641-1.344,6.656,0l37.043,24.696c3.987,2.658,9.328-0.2,9.328-4.992v-81.623h-99.4V179.735z"/>
<path style="fill:#E94141;" d="M231.152,256.001l21.52-14.347c2.015-1.344,4.641-1.344,6.656,0l21.522,14.348v-76.268h-49.699
	L231.152,256.001L231.152,256.001z"/>
<path style="fill:#3B4F66;" d="M338.834,123.469c0-13.116-10.163-23.851-23.042-24.778c8.443-9.763,8.052-24.524-1.219-33.795
	s-24.032-9.662-33.795-1.219C279.851,50.798,269.116,40.635,256,40.635s-23.851,10.163-24.778,23.042
	c-9.763-8.443-24.524-8.052-33.795,1.219s-9.662,24.032-1.219,33.795c-12.879,0.927-23.042,11.662-23.042,24.778
	s10.163,23.851,23.042,24.778c-8.443,9.763-8.052,24.524,1.219,33.795s24.032,9.662,33.795,1.219
	c0.927,12.879,11.662,23.042,24.778,23.042s23.851-10.163,24.778-23.042c9.763,8.443,24.524,8.052,33.795-1.219
	s9.662-24.032,1.219-33.795C328.672,147.32,338.834,136.585,338.834,123.469z"/>
<circle style="fill:#FCB043;" cx="256" cy="123.47" r="41.42"/>
<path style="fill:#D16619;" d="M484.344,187.576l14.277-10.493l0,0c-0.278-0.235-0.57-0.453-0.863-0.67
	c-0.11-0.081-0.217-0.167-0.329-0.246c-0.265-0.186-0.54-0.358-0.816-0.529c-0.155-0.096-0.309-0.193-0.468-0.284
	c-0.259-0.148-0.524-0.286-0.791-0.421c-0.192-0.096-0.385-0.191-0.581-0.28c-0.252-0.115-0.508-0.223-0.766-0.326
	c-0.228-0.09-0.459-0.173-0.691-0.253c-0.242-0.084-0.485-0.165-0.732-0.238c-0.268-0.078-0.541-0.145-0.815-0.21
	c-0.225-0.054-0.449-0.111-0.678-0.155c-0.326-0.063-0.658-0.108-0.99-0.151c-0.188-0.025-0.373-0.059-0.563-0.077
	c-0.528-0.051-1.063-0.081-1.604-0.081h-20C476.35,173.163,483.286,179.446,484.344,187.576z"/>
<path d="M40.633,381.034c-4.142,0-7.5,3.357-7.5,7.5v82.832c0,4.142,3.358,7.5,7.5,7.5h82.832c4.142,0,7.5-3.358,7.5-7.5v-82.832
	c0-4.143-3.358-7.5-7.5-7.5H40.633z M115.966,463.866H48.133v-67.832h67.832v67.832H115.966z"/>
<path d="M65.482,454.017h33.135c4.142,0,7.5-3.357,7.5-7.5v-33.135c0-4.143-3.358-7.5-7.5-7.5H65.482c-4.142,0-7.5,3.357-7.5,7.5
	v33.135C57.982,450.66,61.34,454.017,65.482,454.017z M72.982,420.882h18.135v18.135H72.982V420.882z"/>
<path d="M206.299,397.598h-49.7c-4.142,0-7.5,3.357-7.5,7.5s3.358,7.5,7.5,7.5h49.7c4.142,0,7.5-3.357,7.5-7.5
	S210.441,397.598,206.299,397.598z"/>
<path d="M206.299,430.734h-49.698c-4.142,0-7.5,3.357-7.5,7.5s3.358,7.5,7.5,7.5h49.698c4.142,0,7.5-3.357,7.5-7.5
	S210.441,430.734,206.299,430.734z"/>
<path d="M231.15,430.734c-4.142,0-7.5,3.357-7.5,7.5s3.358,7.5,7.5,7.5H256c4.142,0,7.5-3.357,7.5-7.5s-3.358-7.5-7.5-7.5H231.15z"
	/>
<path d="M256,74.552c-26.973,0-48.917,21.944-48.917,48.917s21.944,48.917,48.917,48.917s48.917-21.944,48.917-48.917
	C304.917,96.497,282.973,74.552,256,74.552z M256,157.386c-18.702,0-33.917-15.215-33.917-33.917S237.298,89.552,256,89.552
	s33.917,15.215,33.917,33.917S274.702,157.386,256,157.386z"/>
<path d="M346.335,123.469c0-13.01-7.832-24.412-19.128-29.509c4.378-11.588,1.858-25.179-7.331-34.368
	c-9.19-9.188-22.779-11.708-34.368-7.33C280.412,40.966,269.011,33.134,256,33.134c-13.011,0-24.412,7.832-29.508,19.128
	c-11.588-4.379-25.178-1.857-34.368,7.33c-9.189,9.19-11.709,22.78-7.33,34.368c-11.296,5.097-19.128,16.499-19.128,29.509
	c0,13.011,7.832,24.412,19.128,29.508c-4.379,11.589-1.859,25.18,7.33,34.367c2.03,2.031,4.284,3.716,6.675,5.093v80.131
	c0,2.766,1.522,5.308,3.961,6.612c1.109,0.594,2.325,0.888,3.538,0.888c1.455,0,2.906-0.423,4.161-1.26l24.876-16.583
	c0.005-0.004,0.011-0.007,0.016-0.011L256,248.45l45.54,30.359c2.301,1.534,5.26,1.677,7.699,0.372
	c2.438-1.305,3.961-3.847,3.961-6.612v-80.131c2.391-1.377,4.646-3.062,6.676-5.093c9.189-9.188,11.71-22.779,7.331-34.368
	C338.503,147.881,346.335,136.48,346.335,123.469z M213.799,196.728c3.309,0.121,6.633-0.258,9.853-1.145v56.404l-9.853,6.568
	V196.728z M251.84,233.196l-13.188,8.792v-33.284c5.038,3.224,10.998,5.1,17.348,5.1c6.351,0,12.313-1.877,17.351-5.102v33.288
	l-13.19-8.794C257.641,231.517,254.359,231.515,251.84,233.196z M298.2,258.555l-9.849-6.566v-56.405
	c3.218,0.886,6.541,1.264,9.849,1.143V258.555z M315.254,140.766c-2.831,0.203-5.304,1.987-6.39,4.608
	c-1.087,2.621-0.601,5.632,1.255,7.778c5.913,6.837,5.54,17.196-0.85,23.586c-6.389,6.389-16.75,6.761-23.586,0.85
	c-2.147-1.857-5.158-2.343-7.778-1.256c-2.621,1.087-4.405,3.559-4.608,6.391c-0.65,9.017-8.247,16.08-17.297,16.08
	s-16.648-7.064-17.297-16.081c-0.204-2.83-1.987-5.303-4.608-6.39c-0.927-0.384-1.902-0.571-2.871-0.571
	c-1.77,0-3.519,0.627-4.907,1.827c-6.836,5.91-17.197,5.539-23.586-0.851c-6.389-6.389-6.762-16.748-0.85-23.585
	c1.856-2.146,2.342-5.157,1.255-7.778c-1.086-2.621-3.559-4.405-6.39-4.608c-9.017-0.649-16.081-8.247-16.081-17.297
	s7.064-16.649,16.082-17.298c2.83-0.204,5.303-1.987,6.389-4.608c1.087-2.622,0.601-5.632-1.255-7.778
	c-5.913-6.836-5.539-17.196,0.85-23.585c6.389-6.39,16.749-6.763,23.586-0.85c2.145,1.856,5.156,2.342,7.778,1.256
	c2.621-1.087,4.405-3.56,4.608-6.391c0.649-9.018,8.247-16.081,17.297-16.081s16.648,7.063,17.297,16.081
	c0.204,2.831,1.987,5.304,4.609,6.391c2.621,1.086,5.631,0.601,7.778-1.256c6.836-5.912,17.196-5.541,23.585,0.85
	c6.389,6.389,6.762,16.749,0.85,23.585c-1.856,2.146-2.342,5.156-1.255,7.778c1.086,2.621,3.559,4.404,6.389,4.608
	c9.018,0.649,16.082,8.248,16.082,17.298C331.335,132.519,324.271,140.117,315.254,140.766z"/>
<path d="M503.764,171.626c-0.137-0.13-0.28-0.251-0.425-0.369c-4.177-3.49-9.55-5.594-15.406-5.594h-58.767V7.502
	c0-4.143-3.358-7.5-7.5-7.5H90.334c-4.142,0-7.5,3.357-7.5,7.5v158.16H24.067c-5.732,0-11,2.018-15.139,5.376
	c-0.009,0.007-0.018,0.015-0.028,0.022c-0.073,0.059-0.146,0.118-0.218,0.178c-0.156,0.126-0.309,0.256-0.457,0.396
	C3.189,176.049,0,182.522,0,189.73V487.93c0,13.272,10.796,24.068,24.067,24.068h367.235c4.142,0,7.5-3.357,7.5-7.5
	s-3.358-7.5-7.5-7.5H24.067c-5,0-9.067-4.068-9.067-9.068V189.73c0-0.681,0.082-1.343,0.225-1.982l236.334,173.691
	c1.321,0.972,2.881,1.457,4.441,1.457s3.12-0.485,4.441-1.457l236.333-173.692c0.143,0.639,0.225,1.301,0.225,1.983V487.93
	c0,5-4.067,9.068-9.067,9.068H421.25c-4.142,0-7.5,3.357-7.5,7.5s3.358,7.5,7.5,7.5h66.683c13.271,0,24.067-10.797,24.067-24.068
	V189.73C512,182.517,508.806,176.04,503.764,171.626z M481.087,180.663l-51.921,38.159v-38.159H481.087z M82.834,218.822
	l-51.922-38.16h51.922V218.822z M256,346.089L97.834,229.846V15.002h316.332v214.843L256,346.089z"/>
<g>
</g>
<g>
</g>
<g>
</g>
<g>
</g>
<g>
</g>
<g>
</g>
<g>
</g>
<g>
</g>
<g>
</g>
<g>
</g>
<g>
</g>
<g>
</g>
<g>
</g>
<g>
</g>
<g>
</g>
</svg>
