<?xml version="1.0" encoding="iso-8859-1"?>
<!-- Generator: Adobe Illustrator 19.0.0, SVG Export Plug-In . SVG Version: 6.00 Build 0)  -->
<svg version="1.1" id="Capa_1" xmlns="http://www.w3.org/2000/svg" xmlns:xlink="http://www.w3.org/1999/xlink" x="0px" y="0px"
	 viewBox="0 0 512 512" style="enable-background:new 0 0 512 512;" xml:space="preserve">
<path style="fill:#FCB043;" d="M487.932,173.163c9.15,0,16.568,7.418,16.568,16.568V487.93c0,9.15-7.418,16.568-16.568,16.568
	h-86.975H111.042H24.067c-9.15,0-16.567-7.418-16.567-16.568v-298.2c0-9.15,7.417-16.568,16.567-16.568h463.865V173.163z"/>
<g>
	<path style="fill:#EF9122;" d="M13.378,177.083l239.069,175.701c2.114,1.554,4.992,1.554,7.106,0l239.068-175.702
		c-2.886-2.441-6.612-3.92-10.689-3.92H24.067C19.991,173.163,16.264,174.642,13.378,177.083z"/>
	<path style="fill:#EF9122;" d="M484.5,189.73v298.2c0,9.15-7.418,16.568-16.568,16.568h20c9.15,0,16.568-7.418,16.568-16.568
		v-298.2c0-9.15-7.418-16.568-16.568-16.568h-20C477.082,173.163,484.5,180.581,484.5,189.73z"/>
</g>
<path style="fill:#D16619;" d="M484.344,187.576l14.277-10.493l0,0c-0.278-0.235-0.57-0.453-0.863-0.67
	c-0.11-0.081-0.217-0.167-0.329-0.246c-0.265-0.186-0.54-0.358-0.816-0.529c-0.155-0.096-0.309-0.193-0.468-0.284
	c-0.259-0.148-0.524-0.286-0.791-0.421c-0.192-0.096-0.385-0.191-0.581-0.28c-0.252-0.115-0.508-0.223-0.766-0.326
	c-0.228-0.09-0.459-0.173-0.691-0.253c-0.242-0.084-0.485-0.165-0.732-0.238c-0.268-0.078-0.541-0.145-0.815-0.21
	c-0.225-0.054-0.449-0.111-0.678-0.155c-0.326-0.063-0.658-0.108-0.99-0.151c-0.188-0.025-0.373-0.059-0.563-0.077
	c-0.528-0.051-1.063-0.081-1.604-0.081h-20C476.35,173.163,483.286,179.446,484.344,187.576z"/>
<path style="fill:#DEF2FC;" d="M117.466,471.366H46.633c-3.314,0-6-2.686-6-6v-70.833c0-3.314,2.686-6,6-6h70.833
	c3.314,0,6,2.686,6,6v70.833C123.466,468.68,120.779,471.366,117.466,471.366z"/>
<path style="fill:#04A1EE;" d="M92.617,446.517H71.482c-3.314,0-6-2.686-6-6v-21.135c0-3.314,2.686-6,6-6h21.135
	c3.314,0,6,2.686,6,6v21.135C98.617,443.831,95.931,446.517,92.617,446.517z"/>
<path style="fill:#DEF2FC;" d="M421.666,233.641V89.99L338.832,7.503H96.334c-3.314,0-6,2.686-6,6v220.139l162.113,119.143
	c2.114,1.554,4.992,1.554,7.106,0L421.666,233.641z"/>
<polygon style="fill:#BCCED5;" points="421.666,233.641 401.666,248.34 401.666,70.073 421.666,89.99 "/>
<path style="fill:#FFFFFF;" d="M345.178,89.99h76.488L339.178,7.503V83.99C339.178,87.304,341.865,89.99,345.178,89.99z"/>
<path d="M40.633,381.034c-4.142,0-7.5,3.357-7.5,7.5v82.832c0,4.142,3.358,7.5,7.5,7.5h82.832c4.142,0,7.5-3.358,7.5-7.5v-82.832
	c0-4.143-3.358-7.5-7.5-7.5H40.633z M115.966,463.866H48.133v-67.832h67.832v67.832H115.966z"/>
<path d="M65.482,454.017h33.135c4.142,0,7.5-3.357,7.5-7.5v-33.135c0-4.143-3.358-7.5-7.5-7.5H65.482c-4.142,0-7.5,3.357-7.5,7.5
	v33.135C57.982,450.66,61.34,454.017,65.482,454.017z M72.982,420.882h18.135v18.135H72.982V420.882z"/>
<path d="M206.299,397.598h-49.7c-4.142,0-7.5,3.357-7.5,7.5s3.358,7.5,7.5,7.5h49.7c4.142,0,7.5-3.357,7.5-7.5
	S210.441,397.598,206.299,397.598z"/>
<path d="M206.299,430.734h-49.698c-4.142,0-7.5,3.357-7.5,7.5s3.358,7.5,7.5,7.5h49.698c4.142,0,7.5-3.357,7.5-7.5
	S210.441,430.734,206.299,430.734z"/>
<path d="M231.15,430.734c-4.142,0-7.5,3.357-7.5,7.5s3.358,7.5,7.5,7.5H256c4.142,0,7.5-3.357,7.5-7.5s-3.358-7.5-7.5-7.5H231.15z"
	/>
<path d="M206.299,97.835H305.7c4.142,0,7.5-3.357,7.5-7.5V57.201c0-4.143-3.358-7.5-7.5-7.5h-99.401c-4.142,0-7.5,3.357-7.5,7.5
	v33.135C198.799,94.478,202.157,97.835,206.299,97.835z M213.799,64.701H298.2v18.135h-84.401L213.799,64.701L213.799,64.701z"/>
<path d="M140.033,147.536h231.935c4.142,0,7.5-3.357,7.5-7.5s-3.358-7.5-7.5-7.5H140.033c-4.142,0-7.5,3.357-7.5,7.5
	C132.533,144.178,135.891,147.536,140.033,147.536z"/>
<path d="M371.967,165.663H140.033c-4.142,0-7.5,3.357-7.5,7.5s3.358,7.5,7.5,7.5h231.935c4.142,0,7.5-3.357,7.5-7.5
	C379.467,169.02,376.109,165.663,371.967,165.663z"/>
<path d="M371.967,198.791H140.033c-4.142,0-7.5,3.357-7.5,7.5s3.358,7.5,7.5,7.5h231.935c4.142,0,7.5-3.357,7.5-7.5
	C379.467,202.148,376.109,198.791,371.967,198.791z"/>
<path d="M322.267,231.936H189.733c-4.142,0-7.5,3.357-7.5,7.5s3.358,7.5,7.5,7.5h132.534c4.142,0,7.5-3.357,7.5-7.5
	S326.409,231.936,322.267,231.936z"/>
<path d="M503.763,171.625c-0.137-0.129-0.278-0.249-0.423-0.366c-4.178-3.491-9.551-5.596-15.408-5.596h-58.767V89.99
	c0-0.084-0.01-0.166-0.013-0.249c-0.003-0.088-0.007-0.175-0.013-0.263c-0.021-0.312-0.056-0.62-0.115-0.921
	c-0.002-0.012-0.003-0.025-0.006-0.037c-0.066-0.33-0.158-0.65-0.266-0.964c-0.02-0.06-0.043-0.118-0.065-0.177
	c-0.11-0.295-0.233-0.582-0.378-0.858c-0.01-0.02-0.018-0.04-0.029-0.06c-0.156-0.292-0.334-0.569-0.526-0.836
	c-0.043-0.061-0.089-0.12-0.134-0.179c-0.202-0.265-0.416-0.521-0.651-0.757c-0.001-0.001-0.002-0.002-0.003-0.003L344.481,2.199
	c-1.431-1.43-3.344-2.174-5.291-2.178c-0.12-0.006-0.237-0.018-0.358-0.018H90.334c-4.142,0-7.5,3.357-7.5,7.5v158.16H24.067
	c-5.732,0-11,2.017-15.138,5.375c-0.011,0.008-0.021,0.017-0.032,0.025c-0.071,0.058-0.143,0.116-0.213,0.174
	c-0.157,0.126-0.311,0.258-0.459,0.398C3.189,176.05,0,182.523,0,189.73v298.199c0,13.272,10.796,24.068,24.067,24.068h367.235
	c4.142,0,7.5-3.357,7.5-7.5s-3.358-7.5-7.5-7.5H24.067c-4.999,0-9.067-4.068-9.067-9.068V189.73c0-0.681,0.082-1.343,0.225-1.982
	l236.334,173.691c1.321,0.972,2.881,1.457,4.441,1.457s3.12-0.485,4.441-1.457l236.333-173.692c0.143,0.639,0.225,1.301,0.225,1.983
	v298.199c0,5-4.067,9.068-9.067,9.068H421.25c-4.142,0-7.5,3.357-7.5,7.5s3.358,7.5,7.5,7.5h66.683
	c13.271,0,24.067-10.797,24.067-24.068V189.73C512,182.517,508.806,176.04,503.763,171.625z M481.087,180.663l-51.921,38.159
	v-38.159H481.087z M346.678,25.609L403.56,82.49h-56.881L346.678,25.609L346.678,25.609z M82.834,218.822l-51.922-38.16h51.922
	V218.822z M256,346.088L97.834,229.846V15.002h233.844V89.99c0,4.143,3.358,7.5,7.5,7.5h74.988v132.356L256,346.088z"/>
<g>
</g>
<g>
</g>
<g>
</g>
<g>
</g>
<g>
</g>
<g>
</g>
<g>
</g>
<g>
</g>
<g>
</g>
<g>
</g>
<g>
</g>
<g>
</g>
<g>
</g>
<g>
</g>
<g>
</g>
</svg>
