<?xml version="1.0" encoding="iso-8859-1"?>
<!-- Generator: Adobe Illustrator 19.0.0, SVG Export Plug-In . SVG Version: 6.00 Build 0)  -->
<svg version="1.1" id="Capa_1" xmlns="http://www.w3.org/2000/svg" xmlns:xlink="http://www.w3.org/1999/xlink" x="0px" y="0px"
	 viewBox="0 0 512 512" style="enable-background:new 0 0 512 512;" xml:space="preserve">
<path style="fill:#FCB043;" d="M487.932,173.163c9.15,0,16.568,7.418,16.568,16.568V487.93c0,9.15-7.418,16.568-16.568,16.568
	h-86.975H111.042H24.067c-9.15,0-16.567-7.418-16.567-16.568v-298.2c0-9.15,7.417-16.568,16.567-16.568h463.865V173.163z"/>
<g>
	<path style="fill:#EF9122;" d="M13.378,177.083l239.069,175.701c2.114,1.554,4.992,1.554,7.106,0l239.068-175.702
		c-2.886-2.441-6.613-3.92-10.689-3.92H24.067C19.991,173.163,16.264,174.642,13.378,177.083z"/>
	<path style="fill:#EF9122;" d="M484.5,189.73v298.2c0,9.15-7.418,16.568-16.568,16.568h20c9.15,0,16.568-7.418,16.568-16.568
		v-298.2c0-9.15-7.418-16.568-16.568-16.568h-20C477.082,173.163,484.5,180.581,484.5,189.73z"/>
</g>
<path style="fill:#D16619;" d="M484.344,187.576l14.277-10.493l0,0c-0.278-0.235-0.57-0.453-0.863-0.67
	c-0.11-0.081-0.217-0.167-0.329-0.246c-0.265-0.186-0.54-0.358-0.816-0.529c-0.155-0.096-0.309-0.193-0.468-0.284
	c-0.258-0.148-0.524-0.286-0.791-0.421c-0.192-0.096-0.385-0.191-0.581-0.28c-0.252-0.115-0.508-0.223-0.766-0.326
	c-0.228-0.09-0.459-0.173-0.691-0.253c-0.242-0.084-0.485-0.165-0.732-0.238c-0.268-0.078-0.541-0.145-0.815-0.21
	c-0.225-0.054-0.449-0.111-0.678-0.155c-0.326-0.063-0.658-0.108-0.99-0.151c-0.188-0.025-0.373-0.059-0.563-0.077
	c-0.528-0.051-1.063-0.081-1.604-0.081h-20C476.35,173.163,483.286,179.446,484.344,187.576z"/>
<path style="fill:#DEF2FC;" d="M117.466,471.366H46.633c-3.314,0-6-2.686-6-6v-70.833c0-3.314,2.686-6,6-6h70.833
	c3.314,0,6,2.686,6,6v70.833C123.466,468.68,120.78,471.366,117.466,471.366z"/>
<path style="fill:#04A1EE;" d="M92.617,446.517H71.482c-3.314,0-6-2.686-6-6v-21.135c0-3.314,2.686-6,6-6h21.135
	c3.314,0,6,2.686,6,6v21.135C98.617,443.831,95.931,446.517,92.617,446.517z"/>
<path style="fill:#DEF2FC;" d="M421.666,233.641V13.503c0-3.314-2.686-6-6-6H96.334c-3.314,0-6,2.686-6,6v220.139l162.113,119.143
	c2.114,1.554,4.992,1.554,7.106,0L421.666,233.641z"/>
<path style="fill:#BCCED5;" d="M415.666,7.503h-20c3.314,0,6,2.686,6,6V248.34l20-14.699V13.503
	C421.666,10.189,418.98,7.503,415.666,7.503z"/>
<g>
	<path style="fill:#E94141;" d="M256,119.032L256,119.032c-15.983-15.983-41.781-16.172-57.995-0.566
		c-16.732,16.104-16.419,43.295,0.002,59.716l53.751,53.751c2.343,2.343,6.142,2.343,8.485,0l53.75-53.75
		c16.421-16.421,16.734-43.611,0.002-59.716C297.781,102.861,271.984,103.05,256,119.032z"/>
	<path style="fill:#E94141;" d="M164.884,61.464L164.884,61.464c-5.85-5.85-15.44-5.68-21.073,0.509
		c-5.276,5.797-4.766,14.826,0.777,20.368l16.054,16.054c2.343,2.343,6.142,2.343,8.485,0l16.053-16.053
		c5.543-5.543,6.052-14.571,0.777-20.368C180.324,55.785,170.734,55.615,164.884,61.464z"/>
	<path style="fill:#E94141;" d="M347.117,210.566L347.117,210.566c-5.85-5.85-15.44-5.68-21.073,0.509
		c-5.276,5.797-4.766,14.826,0.777,20.368l16.054,16.054c2.343,2.343,6.142,2.343,8.485,0l16.053-16.053
		c5.543-5.543,6.052-14.571,0.777-20.368C362.557,204.886,352.967,204.716,347.117,210.566z"/>
</g>
<path d="M40.633,381.034c-4.143,0-7.5,3.357-7.5,7.5v82.832c0,4.142,3.357,7.5,7.5,7.5h82.833c4.143,0,7.5-3.358,7.5-7.5v-82.832
	c0-4.143-3.357-7.5-7.5-7.5H40.633z M115.966,463.866H48.133v-67.832h67.833V463.866z"/>
<path d="M65.482,454.017h33.135c4.143,0,7.5-3.357,7.5-7.5v-33.135c0-4.143-3.357-7.5-7.5-7.5H65.482c-4.143,0-7.5,3.357-7.5,7.5
	v33.135C57.982,450.66,61.34,454.017,65.482,454.017z M72.982,420.882h18.135v18.135H72.982V420.882z"/>
<path d="M206.299,397.598H156.6c-4.143,0-7.5,3.357-7.5,7.5s3.357,7.5,7.5,7.5h49.699c4.143,0,7.5-3.357,7.5-7.5
	S210.441,397.598,206.299,397.598z"/>
<path d="M206.299,430.734h-49.697c-4.143,0-7.5,3.357-7.5,7.5s3.357,7.5,7.5,7.5h49.697c4.143,0,7.5-3.357,7.5-7.5
	S210.441,430.734,206.299,430.734z"/>
<path d="M231.15,430.734c-4.143,0-7.5,3.357-7.5,7.5s3.357,7.5,7.5,7.5H256c4.143,0,7.5-3.357,7.5-7.5s-3.357-7.5-7.5-7.5H231.15z"
	/>
<path d="M319.875,113.729c-17.391-17.392-44.726-18.923-63.87-4.6c-8.409-6.313-18.587-9.728-29.291-9.728
	c-13.065,0-25.35,5.088-34.589,14.327c-19.072,19.073-19.072,50.106,0,69.179l58.571,58.572c1.407,1.406,3.314,2.196,5.304,2.196
	c1.989,0,3.897-0.79,5.304-2.196l58.571-58.571C338.946,163.836,338.946,132.803,319.875,113.729z M309.268,172.301L256,225.57
	l-53.268-53.27c-13.225-13.224-13.225-34.74,0-47.965c6.405-6.406,14.923-9.934,23.981-9.934c9.06,0,17.577,3.527,23.982,9.934
	c2.929,2.93,7.678,2.929,10.606,0.001c13.225-13.225,34.742-13.224,47.965-0.001C322.491,137.56,322.492,159.078,309.268,172.301z"
	/>
<path d="M190.773,87.355c4.167-4.166,6.462-9.705,6.462-15.597s-2.295-11.431-6.461-15.598c-6.998-6.996-17.563-8.301-25.89-3.913
	c-8.327-4.388-18.893-3.083-25.892,3.913c-8.6,8.601-8.6,22.594,0,31.194l20.587,20.587c1.465,1.464,3.385,2.196,5.304,2.196
	s3.839-0.732,5.304-2.196L190.773,87.355z M149.601,76.748c-2.752-2.751-2.752-7.229-0.001-9.979
	c1.376-1.376,3.184-2.063,4.991-2.063c1.807,0,3.614,0.688,4.989,2.063c2.929,2.928,7.678,2.928,10.606,0
	c2.751-2.752,7.23-2.753,9.981,0c1.334,1.333,2.068,3.105,2.068,4.99c0,1.885-0.734,3.656-2.068,4.989l-15.283,15.284
	L149.601,76.748z"/>
<path d="M373.007,205.262c-6.998-6.996-17.563-8.3-25.89-3.913c-8.328-4.387-18.894-3.083-25.89,3.913
	c-4.167,4.166-6.462,9.705-6.462,15.598c0,5.892,2.295,11.431,6.461,15.597l20.587,20.587c1.407,1.406,3.314,2.196,5.304,2.196
	c1.989,0,3.897-0.79,5.304-2.197l20.585-20.586c4.167-4.166,6.462-9.705,6.462-15.597S377.173,209.429,373.007,205.262z
	 M362.399,225.85l-15.282,15.283l-15.284-15.284c-1.333-1.333-2.067-3.105-2.067-4.989c0-1.886,0.734-3.657,2.068-4.99
	c1.375-1.376,3.182-2.063,4.989-2.063c1.808,0,3.615,0.688,4.991,2.063c2.93,2.928,7.677,2.928,10.606,0
	c2.75-2.752,7.229-2.752,9.979,0c1.334,1.333,2.068,3.105,2.068,4.99S363.733,224.516,362.399,225.85z"/>
<path d="M338.831,64.703C338.832,64.703,338.831,64.703,338.831,64.703c4.143,0,7.501-3.357,7.501-7.499l0.001-8.284
	c0-4.143-3.357-7.501-7.499-7.501c-0.001,0,0,0-0.001,0c-4.142,0-7.5,3.357-7.5,7.499l-0.001,8.284
	C331.332,61.344,334.69,64.702,338.831,64.703z"/>
<path d="M313.982,81.268l8.283,0.001c0.001,0,0,0,0.001,0c4.142,0,7.5-3.357,7.5-7.499c0-4.143-3.357-7.501-7.499-7.501
	l-8.283-0.001c-0.001,0,0,0-0.001,0c-4.142,0-7.5,3.357-7.5,7.499C306.483,77.91,309.841,81.268,313.982,81.268z"/>
<path d="M338.833,82.835c-4.143,0-7.5,3.357-7.5,7.5v8.284c0,4.143,3.357,7.5,7.5,7.5s7.5-3.357,7.5-7.5v-8.284
	C346.333,86.193,342.976,82.835,338.833,82.835z"/>
<path d="M355.4,81.268h8.284c4.142,0,7.5-3.357,7.5-7.5s-3.358-7.5-7.5-7.5H355.4c-4.143,0-7.5,3.357-7.5,7.5
	S351.258,81.268,355.4,81.268z"/>
<path d="M165.666,206.302v8.283c0,4.143,3.357,7.5,7.5,7.5s7.5-3.357,7.5-7.5v-8.283c0-4.143-3.357-7.5-7.5-7.5
	S165.666,202.16,165.666,206.302z"/>
<path d="M156.602,223.653l-8.284-0.001c-0.001,0,0,0-0.001,0c-4.142,0-7.499,3.357-7.5,7.499c0,4.143,3.357,7.501,7.499,7.501
	l8.284,0.001c0.001,0,0,0,0.001,0c4.142,0,7.5-3.357,7.5-7.499C164.101,227.011,160.743,223.653,156.602,223.653z"/>
<path d="M173.168,240.219C173.167,240.219,173.168,240.219,173.168,240.219c-4.143,0-7.501,3.357-7.501,7.499l-0.001,8.284
	c0,4.143,3.357,7.5,7.499,7.501c0.001,0,0,0,0.001,0c4.142,0,7.5-3.358,7.5-7.499l0.001-8.284
	C180.667,243.578,177.31,240.219,173.168,240.219z"/>
<path d="M198.018,223.652h-8.284c-4.143,0-7.5,3.357-7.5,7.5s3.357,7.5,7.5,7.5h8.284c4.143,0,7.5-3.357,7.5-7.5
	C205.518,227.009,202.16,223.652,198.018,223.652z"/>
<path d="M503.759,171.622c-0.134-0.126-0.273-0.244-0.414-0.359c-4.178-3.493-9.553-5.6-15.413-5.6h-58.767V7.502
	c0-4.143-3.357-7.5-7.5-7.5H90.334c-4.143,0-7.5,3.357-7.5,7.5v158.16H24.067c-5.732,0-11.001,2.018-15.139,5.376
	c-0.007,0.005-0.014,0.011-0.021,0.017c-0.076,0.062-0.153,0.124-0.228,0.187c-0.154,0.124-0.305,0.253-0.45,0.39
	C3.19,176.047,0,182.521,0,189.73V487.93c0,13.272,10.797,24.068,24.067,24.068h367.234c4.143,0,7.5-3.357,7.5-7.5
	s-3.357-7.5-7.5-7.5H24.067c-5,0-9.067-4.068-9.067-9.068V189.73c0-0.681,0.082-1.343,0.225-1.982l236.334,173.691
	c1.321,0.972,2.881,1.457,4.441,1.457s3.12-0.485,4.441-1.457l236.333-173.692c0.143,0.639,0.225,1.301,0.225,1.983V487.93
	c0,5-4.067,9.068-9.067,9.068H421.25c-4.143,0-7.5,3.357-7.5,7.5s3.357,7.5,7.5,7.5h66.683c13.271,0,24.067-10.797,24.067-24.068
	V189.73C512,182.515,508.804,176.037,503.759,171.622z M481.086,180.663l-51.92,38.158v-38.158H481.086z M82.834,218.822
	l-51.922-38.16h51.922V218.822z M256,346.089L97.834,229.846V15.002h316.332v214.843L256,346.089z"/>
<g>
</g>
<g>
</g>
<g>
</g>
<g>
</g>
<g>
</g>
<g>
</g>
<g>
</g>
<g>
</g>
<g>
</g>
<g>
</g>
<g>
</g>
<g>
</g>
<g>
</g>
<g>
</g>
<g>
</g>
</svg>
