<?xml version="1.0" encoding="iso-8859-1"?>
<!-- Generator: Adobe Illustrator 19.0.0, SVG Export Plug-In . SVG Version: 6.00 Build 0)  -->
<svg version="1.1" id="Capa_1" xmlns="http://www.w3.org/2000/svg" xmlns:xlink="http://www.w3.org/1999/xlink" x="0px" y="0px"
	 viewBox="0 0 512 512" style="enable-background:new 0 0 512 512;" xml:space="preserve">
<path style="fill:#FCB043;" d="M487.932,173.163c9.15,0,16.568,7.418,16.568,16.568V487.93c0,9.15-7.418,16.568-16.568,16.568
	h-86.975H111.042H24.067c-9.15,0-16.567-7.418-16.567-16.568v-298.2c0-9.15,7.417-16.568,16.567-16.568h463.865V173.163z"/>
<g>
	<path style="fill:#EF9122;" d="M13.378,177.083l239.069,175.701c2.114,1.554,4.992,1.554,7.106,0l239.068-175.702
		c-2.886-2.441-6.613-3.92-10.689-3.92H24.067C19.991,173.163,16.264,174.642,13.378,177.083z"/>
	<path style="fill:#EF9122;" d="M484.5,189.73v298.2c0,9.15-7.418,16.568-16.568,16.568h20c9.15,0,16.568-7.418,16.568-16.568
		v-298.2c0-9.15-7.418-16.568-16.568-16.568h-20C477.082,173.163,484.5,180.581,484.5,189.73z"/>
</g>
<path style="fill:#D16619;" d="M484.344,187.576l14.277-10.493l0,0c-0.278-0.235-0.57-0.453-0.863-0.67
	c-0.11-0.081-0.217-0.167-0.329-0.246c-0.265-0.186-0.54-0.358-0.816-0.529c-0.155-0.096-0.309-0.193-0.468-0.284
	c-0.258-0.148-0.524-0.286-0.791-0.421c-0.192-0.096-0.385-0.191-0.581-0.28c-0.252-0.115-0.508-0.223-0.766-0.326
	c-0.228-0.09-0.459-0.173-0.691-0.253c-0.242-0.084-0.485-0.165-0.732-0.238c-0.268-0.078-0.541-0.145-0.815-0.21
	c-0.225-0.054-0.449-0.111-0.678-0.155c-0.326-0.063-0.658-0.108-0.99-0.151c-0.188-0.025-0.373-0.059-0.563-0.077
	c-0.528-0.051-1.063-0.081-1.604-0.081h-20C476.35,173.163,483.286,179.446,484.344,187.576z"/>
<path style="fill:#DEF2FC;" d="M117.466,471.366H46.633c-3.314,0-6-2.686-6-6v-70.833c0-3.314,2.686-6,6-6h70.833
	c3.314,0,6,2.686,6,6v70.833C123.466,468.68,120.78,471.366,117.466,471.366z"/>
<path style="fill:#04A1EE;" d="M92.617,446.517H71.482c-3.314,0-6-2.686-6-6v-21.135c0-3.314,2.686-6,6-6h21.135
	c3.314,0,6,2.686,6,6v21.135C98.617,443.831,95.931,446.517,92.617,446.517z"/>
<path style="fill:#BCCED5;" d="M380.534,106.902h68.265c3.314,0,6-2.686,6-6V40.635c0-18.299-14.834-33.133-33.133-33.133h-41.133
	L380.534,106.902z"/>
<path style="fill:#DEF2FC;" d="M421.666,7.503c-18.299,0-33.133,14.834-33.132,33.133v217.356l-128.981,94.794
	c-2.114,1.554-4.992,1.554-7.106,0l-128.98-94.793l0.001-217.357c0-18.299,14.834-33.133,33.133-33.133L421.666,7.503L421.666,7.503
	z"/>
<path d="M40.633,381.034c-4.143,0-7.5,3.357-7.5,7.5v82.832c0,4.142,3.357,7.5,7.5,7.5h82.833c4.143,0,7.5-3.358,7.5-7.5v-82.832
	c0-4.143-3.357-7.5-7.5-7.5H40.633z M115.966,463.866H48.133v-67.832h67.833V463.866z"/>
<path d="M65.482,454.017h33.135c4.143,0,7.5-3.357,7.5-7.5v-33.135c0-4.143-3.357-7.5-7.5-7.5H65.482c-4.143,0-7.5,3.357-7.5,7.5
	v33.135C57.982,450.66,61.34,454.017,65.482,454.017z M72.982,420.882h18.135v18.135H72.982V420.882z"/>
<path d="M206.299,397.598H156.6c-4.143,0-7.5,3.357-7.5,7.5s3.357,7.5,7.5,7.5h49.699c4.143,0,7.5-3.357,7.5-7.5
	S210.441,397.598,206.299,397.598z"/>
<path d="M206.299,430.734h-49.697c-4.143,0-7.5,3.357-7.5,7.5s3.357,7.5,7.5,7.5h49.697c4.143,0,7.5-3.357,7.5-7.5
	S210.441,430.734,206.299,430.734z"/>
<path d="M231.15,430.734c-4.143,0-7.5,3.357-7.5,7.5s3.357,7.5,7.5,7.5H256c4.143,0,7.5-3.357,7.5-7.5s-3.357-7.5-7.5-7.5H231.15z"
	/>
<path d="M231.151,115.967C231.15,115.967,231.15,115.967,231.151,115.967c-4.143,0-7.501,3.357-7.501,7.499l-0.001,8.286
	c0,15.256,10.619,28.07,24.851,31.462v1.67c0,4.143,3.357,7.5,7.5,7.5c4.143,0,7.5-3.357,7.5-7.5v-1.67
	c14.232-3.393,24.851-16.207,24.851-31.462c0-17.838-14.513-32.351-32.351-32.351c-0.003,0-0.006,0.001-0.01,0.001
	c-9.563-0.005-17.341-7.786-17.341-17.35c0-9.566,7.783-17.35,17.351-17.35c9.567,0,17.351,7.783,17.351,17.35v8.283
	c0,4.143,3.357,7.5,7.5,7.5s7.5-3.357,7.5-7.5v-8.283c0-15.256-10.619-28.071-24.852-31.463v-1.671c0-4.143-3.357-7.5-7.5-7.5
	s-7.5,3.357-7.5,7.5v1.672c-14.231,3.393-24.85,16.207-24.85,31.462c0,17.838,14.513,32.351,32.351,32.351c0.003,0,0.006,0,0.01,0
	c9.563,0.005,17.341,7.786,17.341,17.35c0,9.566-7.783,17.35-17.351,17.35c-9.567,0-17.351-7.783-17.351-17.349l0.001-8.285
	C238.65,119.326,235.293,115.967,231.151,115.967z"/>
<path d="M338.833,198.802H173.167c-4.143,0-7.5,3.357-7.5,7.5v33.134c0,4.143,3.357,7.5,7.5,7.5h165.666c4.143,0,7.5-3.357,7.5-7.5
	v-33.134C346.333,202.16,342.976,198.802,338.833,198.802z M331.333,231.936H180.667v-18.134h150.666V231.936z"/>
<path d="M503.759,171.622c-0.134-0.126-0.273-0.244-0.414-0.359c-4.178-3.493-9.553-5.6-15.413-5.6h-91.898v-51.261h58.765
	c4.143,0,7.5-3.357,7.5-7.5V40.635c0-22.405-18.228-40.633-40.633-40.633H156.601c-22.405,0-40.633,18.227-40.633,40.633v125.027
	h-91.9c-5.732,0-10.999,2.017-15.137,5.375c-0.01,0.008-0.021,0.016-0.031,0.024c-0.072,0.059-0.144,0.117-0.216,0.176
	c-0.156,0.126-0.309,0.256-0.457,0.396C3.19,176.049,0,182.522,0,189.73V487.93c0,13.272,10.797,24.068,24.067,24.068h367.234
	c4.143,0,7.5-3.357,7.5-7.5s-3.357-7.5-7.5-7.5H24.067c-5,0-9.067-4.068-9.067-9.068V189.73c0-0.681,0.082-1.343,0.225-1.982
	l236.334,173.691c1.321,0.972,2.881,1.457,4.441,1.457s3.12-0.485,4.441-1.457l236.333-173.692c0.143,0.639,0.225,1.301,0.225,1.983
	V487.93c0,5-4.067,9.068-9.067,9.068H421.25c-4.143,0-7.5,3.357-7.5,7.5s3.357,7.5,7.5,7.5h66.683
	c13.271,0,24.067-10.797,24.067-24.068V189.73C512,182.515,508.804,176.037,503.759,171.622z M115.967,243.173l-85.055-62.51h85.055
	V243.173z M381.034,40.655v132.489c0,0.007-0.001,0.013-0.001,0.019c0,0.007,0.001,0.013,0.001,0.019v81.013L256,346.089
	l-125.033-91.892l0.001-213.561c0-14.134,11.499-25.633,25.633-25.633h233.566c-5.705,6.998-9.134,15.921-9.134,25.633
	C381.033,40.642,381.034,40.648,381.034,40.655z M421.666,15.002c14.134,0,25.633,11.499,25.633,25.633v58.767h-51.265V40.635
	c0-0.004-0.001-0.009-0.001-0.013C396.04,26.494,407.537,15.002,421.666,15.002z M396.034,243.171v-62.509h85.052L396.034,243.171z"
	/>
<g>
</g>
<g>
</g>
<g>
</g>
<g>
</g>
<g>
</g>
<g>
</g>
<g>
</g>
<g>
</g>
<g>
</g>
<g>
</g>
<g>
</g>
<g>
</g>
<g>
</g>
<g>
</g>
<g>
</g>
</svg>
