<?xml version="1.0" encoding="iso-8859-1"?>
<!-- Generator: Adobe Illustrator 19.0.0, SVG Export Plug-In . SVG Version: 6.00 Build 0)  -->
<svg version="1.1" id="Capa_1" xmlns="http://www.w3.org/2000/svg" xmlns:xlink="http://www.w3.org/1999/xlink" x="0px" y="0px"
	 viewBox="0 0 512 512" style="enable-background:new 0 0 512 512;" xml:space="preserve">
<path style="fill:#FCB043;" d="M487.932,173.163c9.15,0,16.568,7.418,16.568,16.568V487.93c0,9.15-7.418,16.568-16.568,16.568
	h-86.975H111.042H24.067c-9.15,0-16.567-7.418-16.567-16.568v-298.2c0-9.15,7.417-16.568,16.567-16.568h463.865V173.163z"/>
<g>
	<path style="fill:#EF9122;" d="M13.378,177.083l239.069,175.701c2.114,1.554,4.992,1.554,7.106,0l239.068-175.702
		c-2.886-2.441-6.613-3.92-10.689-3.92H24.067C19.991,173.163,16.264,174.642,13.378,177.083z"/>
	<path style="fill:#EF9122;" d="M484.5,189.73v298.2c0,9.15-7.418,16.568-16.568,16.568h20c9.15,0,16.568-7.418,16.568-16.568
		v-298.2c0-9.15-7.418-16.568-16.568-16.568h-20C477.082,173.163,484.5,180.581,484.5,189.73z"/>
</g>
<path style="fill:#D16619;" d="M484.344,187.576l14.277-10.493l0,0c-0.278-0.235-0.57-0.453-0.863-0.67
	c-0.11-0.081-0.217-0.167-0.329-0.246c-0.265-0.186-0.54-0.358-0.816-0.529c-0.155-0.096-0.309-0.193-0.468-0.284
	c-0.259-0.148-0.524-0.286-0.791-0.421c-0.192-0.096-0.385-0.191-0.581-0.28c-0.252-0.115-0.508-0.223-0.766-0.326
	c-0.228-0.09-0.459-0.173-0.691-0.253c-0.242-0.084-0.485-0.165-0.732-0.238c-0.268-0.078-0.541-0.145-0.815-0.21
	c-0.225-0.054-0.449-0.111-0.678-0.155c-0.326-0.063-0.658-0.108-0.99-0.151c-0.188-0.025-0.373-0.059-0.563-0.077
	c-0.528-0.051-1.063-0.081-1.604-0.081h-20C476.35,173.163,483.286,179.446,484.344,187.576z"/>
<path style="fill:#DEF2FC;" d="M117.466,471.366H46.633c-3.314,0-6-2.686-6-6v-70.833c0-3.314,2.686-6,6-6h70.833
	c3.314,0,6,2.686,6,6v70.833C123.466,468.68,120.78,471.366,117.466,471.366z"/>
<path style="fill:#04A1EE;" d="M92.617,446.517H71.482c-3.314,0-6-2.686-6-6v-21.135c0-3.314,2.686-6,6-6h21.135
	c3.314,0,6,2.686,6,6v21.135C98.617,443.831,95.931,446.517,92.617,446.517z"/>
<path style="fill:#DEF2FC;" d="M421.666,233.641V13.503c0-3.314-2.686-6-6-6H96.334c-3.314,0-6,2.686-6,6v220.139l162.113,119.143
	c2.114,1.554,4.992,1.554,7.106,0L421.666,233.641z"/>
<path style="fill:#BCCED5;" d="M415.666,7.503h-20c3.314,0,6,2.686,6,6V248.34l20-14.699V13.503
	C421.666,10.189,418.98,7.503,415.666,7.503z"/>
<path style="fill:#FCB043;" d="M261.38,58.718l13.817,27.997l30.896,4.49c4.921,0.715,6.886,6.763,3.325,10.234l-22.357,21.792
	l5.278,30.772c0.841,4.901-4.304,8.639-8.706,6.325L256,145.799l-27.635,14.528c-4.402,2.314-9.546-1.424-8.706-6.325l5.278-30.772
	l-22.357-21.792c-3.561-3.471-1.596-9.519,3.325-10.234l30.896-4.49l13.817-27.997C252.82,54.259,259.18,54.259,261.38,58.718z"/>
<path d="M40.633,381.034c-4.142,0-7.5,3.357-7.5,7.5v82.832c0,4.142,3.358,7.5,7.5,7.5h82.832c4.142,0,7.5-3.358,7.5-7.5v-82.832
	c0-4.143-3.358-7.5-7.5-7.5H40.633z M115.966,463.866H48.133v-67.832h67.832v67.832H115.966z"/>
<path d="M65.482,454.017h33.135c4.142,0,7.5-3.357,7.5-7.5v-33.135c0-4.143-3.358-7.5-7.5-7.5H65.482c-4.142,0-7.5,3.357-7.5,7.5
	v33.135C57.982,450.66,61.34,454.017,65.482,454.017z M72.982,420.882h18.135v18.135H72.982V420.882z"/>
<path d="M206.299,397.598h-49.7c-4.142,0-7.5,3.357-7.5,7.5s3.358,7.5,7.5,7.5h49.7c4.142,0,7.5-3.357,7.5-7.5
	S210.441,397.598,206.299,397.598z"/>
<path d="M206.299,430.734h-49.698c-4.142,0-7.5,3.357-7.5,7.5s3.358,7.5,7.5,7.5h49.698c4.142,0,7.5-3.357,7.5-7.5
	S210.441,430.734,206.299,430.734z"/>
<path d="M231.15,430.734c-4.142,0-7.5,3.357-7.5,7.5s3.358,7.5,7.5,7.5H256c4.142,0,7.5-3.357,7.5-7.5s-3.358-7.5-7.5-7.5H231.15z"
	/>
<path d="M338.833,198.802H173.167c-4.142,0-7.5,3.357-7.5,7.5v33.134c0,4.143,3.358,7.5,7.5,7.5h165.666c4.142,0,7.5-3.357,7.5-7.5
	v-33.134C346.333,202.16,342.975,198.802,338.833,198.802z M331.333,231.936H180.667v-18.134h150.666V231.936z"/>
<path d="M216.879,125.849l-6.667,38.868c-0.482,2.813,0.674,5.657,2.984,7.335c2.309,1.677,5.371,1.898,7.898,0.571L256,154.273
	l34.905,18.351c1.098,0.577,2.296,0.861,3.489,0.861c1.555,0,3.103-0.483,4.409-1.433c2.31-1.678,3.466-4.521,2.984-7.335
	l-6.667-38.868l28.239-27.525c2.044-1.993,2.78-4.974,1.898-7.689c-0.882-2.716-3.229-4.694-6.054-5.104l-39.025-5.671
	l-17.453-35.363c-1.264-2.56-3.871-4.181-6.726-4.181s-5.462,1.621-6.726,4.181L231.822,79.86l-39.025,5.671
	c-2.825,0.41-5.172,2.389-6.054,5.104s-0.146,5.695,1.898,7.689L216.879,125.849z M237.881,94.137
	c2.443-0.354,4.554-1.889,5.647-4.103L256,64.763l12.472,25.271c1.093,2.214,3.204,3.748,5.647,4.103l27.889,4.053l-20.18,19.67
	c-1.768,1.724-2.575,4.206-2.157,6.639l4.764,27.776l-24.944-13.114c-1.093-0.574-2.292-0.861-3.49-0.861s-2.398,0.287-3.49,0.861
	l-24.944,13.114l4.764-27.776c0.417-2.433-0.389-4.915-2.157-6.639l-20.18-19.67L237.881,94.137z"/>
<path d="M503.766,171.627c-0.14-0.133-0.286-0.257-0.435-0.377c-0.083-0.069-0.167-0.137-0.251-0.205
	c-0.002-0.001-0.004-0.003-0.006-0.005c-4.139-3.359-9.408-5.378-15.141-5.378h-58.767V89.99V7.502c0-4.143-3.358-7.5-7.5-7.5
	h-82.833H90.334c-4.142,0-7.5,3.357-7.5,7.5v158.16H24.067c-5.731,0-10.999,2.017-15.137,5.374c-0.013,0.009-0.025,0.02-0.038,0.03
	c-0.069,0.056-0.138,0.111-0.206,0.168c-0.159,0.128-0.314,0.26-0.463,0.401C3.189,176.05,0,182.523,0,189.73V487.93
	c0,13.272,10.796,24.068,24.067,24.068h367.235c4.142,0,7.5-3.357,7.5-7.5s-3.358-7.5-7.5-7.5H24.067c-5,0-9.067-4.068-9.067-9.068
	V189.73c0-0.681,0.082-1.343,0.225-1.982l236.334,173.691c1.321,0.972,2.881,1.457,4.441,1.457s3.12-0.485,4.441-1.457
	l236.333-173.692c0.143,0.639,0.225,1.301,0.225,1.983V487.93c0,5-4.067,9.068-9.067,9.068H421.25c-4.142,0-7.5,3.357-7.5,7.5
	s3.358,7.5,7.5,7.5h66.683c13.271,0,24.067-10.797,24.067-24.068V189.73C512,182.518,508.807,176.042,503.766,171.627z
	 M481.087,180.663l-51.921,38.159v-38.159H481.087z M82.834,218.822l-51.922-38.16h51.922V218.822z M256,346.089L97.834,229.846
	V15.002h240.998h75.333V89.99v139.856L256,346.089z"/>
<g>
</g>
<g>
</g>
<g>
</g>
<g>
</g>
<g>
</g>
<g>
</g>
<g>
</g>
<g>
</g>
<g>
</g>
<g>
</g>
<g>
</g>
<g>
</g>
<g>
</g>
<g>
</g>
<g>
</g>
</svg>
