<?xml version="1.0" encoding="iso-8859-1"?>
<!-- Generator: Adobe Illustrator 19.0.0, SVG Export Plug-In . SVG Version: 6.00 Build 0)  -->
<svg version="1.1" id="Capa_1" xmlns="http://www.w3.org/2000/svg" xmlns:xlink="http://www.w3.org/1999/xlink" x="0px" y="0px"
	 viewBox="0 0 512 512" style="enable-background:new 0 0 512 512;" xml:space="preserve">
<path style="fill:#FCB043;" d="M487.932,173.163c9.15,0,16.568,7.418,16.568,16.568V487.93c0,9.15-7.418,16.568-16.568,16.568
	h-86.975H111.042H24.067c-9.15,0-16.567-7.418-16.567-16.568v-298.2c0-9.15,7.417-16.568,16.567-16.568h463.865V173.163z"/>
<g>
	<path style="fill:#EF9122;" d="M13.378,177.083l239.069,175.701c2.114,1.554,4.992,1.554,7.106,0l239.068-175.702
		c-2.886-2.441-6.612-3.92-10.689-3.92H24.067C19.991,173.163,16.264,174.642,13.378,177.083z"/>
	<path style="fill:#EF9122;" d="M484.5,189.73v298.2c0,9.15-7.418,16.568-16.568,16.568h20c9.15,0,16.568-7.418,16.568-16.568
		v-298.2c0-9.15-7.418-16.568-16.568-16.568h-20C477.082,173.163,484.5,180.581,484.5,189.73z"/>
</g>
<path style="fill:#D16619;" d="M484.344,187.576l14.277-10.493l0,0c-0.278-0.235-0.57-0.453-0.863-0.67
	c-0.11-0.081-0.217-0.167-0.329-0.246c-0.265-0.186-0.54-0.358-0.816-0.529c-0.155-0.096-0.309-0.193-0.468-0.284
	c-0.259-0.148-0.524-0.286-0.791-0.421c-0.192-0.096-0.385-0.191-0.581-0.28c-0.252-0.115-0.508-0.223-0.766-0.326
	c-0.228-0.09-0.459-0.173-0.691-0.253c-0.242-0.084-0.485-0.165-0.732-0.238c-0.268-0.078-0.541-0.145-0.815-0.21
	c-0.225-0.054-0.449-0.111-0.678-0.155c-0.326-0.063-0.658-0.108-0.99-0.151c-0.188-0.025-0.373-0.059-0.563-0.077
	c-0.528-0.051-1.063-0.081-1.604-0.081h-20C476.35,173.163,483.286,179.446,484.344,187.576z"/>
<path style="fill:#DEF2FC;" d="M421.666,233.641V89.99L338.832,7.503H96.334c-3.314,0-6,2.686-6,6v220.139l162.113,119.143
	c2.114,1.554,4.992,1.554,7.106,0L421.666,233.641z"/>
<polygon style="fill:#BCCED5;" points="421.666,233.641 401.666,248.34 401.666,70.017 421.666,90.017 "/>
<path style="fill:#FFFFFF;" d="M345.178,89.99h76.488L339.178,7.503V83.99C339.178,87.304,341.865,89.99,345.178,89.99z"/>
<path style="fill:#DEF2FC;" d="M117.466,471.366H46.633c-3.314,0-6-2.686-6-6v-70.833c0-3.314,2.686-6,6-6h70.833
	c3.314,0,6,2.686,6,6v70.833C123.466,468.68,120.779,471.366,117.466,471.366z"/>
<path style="fill:#04A1EE;" d="M92.617,446.517H71.482c-3.314,0-6-2.686-6-6v-21.135c0-3.314,2.686-6,6-6h21.135
	c3.314,0,6,2.686,6,6v21.135C98.617,443.831,95.931,446.517,92.617,446.517z"/>
<path style="fill:#54CC4E;" d="M171.157,194.577c6.47,6.47,16.959,6.47,23.429,0s6.47-16.959,0-23.429L65.727,42.289
	c-6.47-6.47-16.959-6.47-23.429,0s-6.47,16.959,0,23.429L171.157,194.577z"/>
<path d="M40.633,381.034c-4.142,0-7.5,3.357-7.5,7.5v82.832c0,4.142,3.358,7.5,7.5,7.5h82.832c4.142,0,7.5-3.358,7.5-7.5v-82.832
	c0-4.143-3.358-7.5-7.5-7.5H40.633z M115.966,463.866H48.133v-67.832h67.832v67.832H115.966z"/>
<path d="M65.482,454.017h33.135c4.142,0,7.5-3.357,7.5-7.5v-33.135c0-4.143-3.358-7.5-7.5-7.5H65.482c-4.142,0-7.5,3.357-7.5,7.5
	v33.135C57.982,450.66,61.34,454.017,65.482,454.017z M72.982,420.882h18.135v18.135H72.982V420.882z"/>
<path d="M206.299,397.598h-49.7c-4.142,0-7.5,3.357-7.5,7.5s3.358,7.5,7.5,7.5h49.7c4.142,0,7.5-3.357,7.5-7.5
	S210.441,397.598,206.299,397.598z"/>
<path d="M206.299,430.734h-49.698c-4.142,0-7.5,3.357-7.5,7.5s3.358,7.5,7.5,7.5h49.698c4.142,0,7.5-3.357,7.5-7.5
	S210.441,430.734,206.299,430.734z"/>
<path d="M231.15,430.734c-4.142,0-7.5,3.357-7.5,7.5s3.358,7.5,7.5,7.5H256c4.142,0,7.5-3.357,7.5-7.5s-3.358-7.5-7.5-7.5H231.15z"
	/>
<path d="M305.701,49.701H206.3c-4.142,0-7.5,3.357-7.5,7.5v33.135c0,4.143,3.358,7.5,7.5,7.5h99.401c4.142,0,7.5-3.357,7.5-7.5
	V57.201C313.201,53.058,309.843,49.701,305.701,49.701z M298.201,82.835H213.8V64.701h84.401V82.835z"/>
<path d="M322.267,231.936H189.733c-4.142,0-7.5,3.357-7.5,7.5s3.358,7.5,7.5,7.5h132.534c4.142,0,7.5-3.357,7.5-7.5
	S326.409,231.936,322.267,231.936z"/>
<path d="M503.765,171.627c-0.14-0.132-0.285-0.255-0.432-0.374c-0.085-0.071-0.17-0.14-0.256-0.209
	c-0.001-0.001-0.002-0.001-0.003-0.002c-4.139-3.36-9.408-5.378-15.142-5.378h-58.767V89.99c0-0.084-0.01-0.166-0.013-0.249
	c-0.003-0.088-0.007-0.175-0.013-0.264c-0.021-0.312-0.056-0.62-0.115-0.921c-0.002-0.012-0.003-0.025-0.006-0.037
	c-0.066-0.33-0.158-0.65-0.266-0.964c-0.02-0.059-0.043-0.118-0.065-0.177c-0.11-0.295-0.233-0.582-0.378-0.858
	c-0.01-0.02-0.018-0.04-0.029-0.06c-0.156-0.292-0.334-0.569-0.526-0.836c-0.043-0.061-0.089-0.12-0.134-0.179
	c-0.202-0.265-0.416-0.521-0.651-0.757c-0.001-0.001-0.002-0.002-0.003-0.003L344.481,2.199c-1.43-1.43-3.342-2.174-5.288-2.178
	c-0.12-0.006-0.239-0.018-0.361-0.018H90.334c-4.142,0-7.5,3.357-7.5,7.5v41.286L71.03,36.985c-9.384-9.383-24.651-9.383-34.035,0
	c-9.384,9.384-9.384,24.653,0,34.037L55.12,89.146l-6.965,6.965L35.887,83.843c-2.929-2.928-7.678-2.928-10.606,0
	c-2.929,2.93-2.929,7.678,0,10.607l17.569,17.57c0.001,0.001,0.001,0.001,0.002,0.002c0,0,0.001,0.001,0.002,0.002l25.609,25.608
	c1.464,1.464,3.384,2.196,5.303,2.196c1.92,0,3.839-0.732,5.303-2.196c2.929-2.93,2.929-7.678,0-10.608l-20.307-20.307l6.965-6.965
	l17.107,17.107v48.802H24.067c-5.731,0-10.998,2.017-15.136,5.374c-0.014,0.01-0.028,0.022-0.042,0.033
	c-0.067,0.054-0.134,0.108-0.2,0.164c-0.16,0.128-0.316,0.261-0.466,0.404C3.188,176.051,0,182.523,0,189.73v298.199
	c0,13.272,10.796,24.068,24.067,24.068h367.235c4.142,0,7.5-3.357,7.5-7.5s-3.358-7.5-7.5-7.5H24.067
	c-4.999,0-9.067-4.068-9.067-9.068V189.73c0-0.681,0.082-1.343,0.225-1.982l236.334,173.691c1.321,0.972,2.881,1.457,4.441,1.457
	s3.12-0.485,4.441-1.457l236.333-173.692c0.143,0.639,0.225,1.301,0.225,1.983v298.199c0,5-4.067,9.068-9.067,9.068H421.25
	c-4.142,0-7.5,3.357-7.5,7.5s3.358,7.5,7.5,7.5h66.683c13.271,0,24.067-10.797,24.067-24.068V189.73
	C512,182.518,508.807,176.041,503.765,171.627z M481.087,180.663l-51.921,38.159v-38.159H481.087z M346.678,25.609L403.56,82.49
	h-56.881L346.678,25.609L346.678,25.609z M47.602,60.415c-1.712-1.712-2.656-3.989-2.656-6.411s0.943-4.699,2.656-6.411
	c1.712-1.713,3.989-2.656,6.411-2.656s4.699,0.943,6.411,2.656l18.125,18.125L65.727,78.54L47.602,60.415z M89.156,76.324
	l88.966,88.967L165.3,178.112l-68.96-68.96c-0.433-0.58-0.947-1.094-1.527-1.527L76.334,89.146L89.156,76.324z M189.283,176.452
	c1.712,1.712,2.655,3.989,2.655,6.41s-0.942,4.697-2.653,6.409c-0.001,0.001-0.002,0.002-0.003,0.003s-0.001,0.002-0.002,0.002
	c-1.712,1.711-3.988,2.654-6.408,2.654c-2.422,0-4.699-0.943-6.411-2.656l-0.554-0.554l12.822-12.822L189.283,176.452z
	 M82.834,218.822l-51.922-38.16h51.922V218.822z M256,346.088L97.834,229.846V131.86l66.93,66.93h-24.731
	c-4.142,0-7.5,3.357-7.5,7.5s3.358,7.5,7.5,7.5h231.935c4.142,0,7.5-3.357,7.5-7.5s-3.358-7.5-7.5-7.5H209.406l-5.071-5.071
	c4.557-9.028,3.085-20.344-4.446-27.875l-5.853-5.853c-0.001-0.002-0.003-0.003-0.004-0.005c-0.002-0.001-0.003-0.003-0.005-0.004
	L97.834,63.789V15.002h233.844V89.99c0,4.143,3.358,7.5,7.5,7.5h74.988v132.356L256,346.088z"/>
<g>
</g>
<g>
</g>
<g>
</g>
<g>
</g>
<g>
</g>
<g>
</g>
<g>
</g>
<g>
</g>
<g>
</g>
<g>
</g>
<g>
</g>
<g>
</g>
<g>
</g>
<g>
</g>
<g>
</g>
</svg>
