<?xml version="1.0" encoding="iso-8859-1"?>
<!-- Generator: Adobe Illustrator 19.0.0, SVG Export Plug-In . SVG Version: 6.00 Build 0)  -->
<svg version="1.1" id="Capa_1" xmlns="http://www.w3.org/2000/svg" xmlns:xlink="http://www.w3.org/1999/xlink" x="0px" y="0px"
	 viewBox="0 0 512 512" style="enable-background:new 0 0 512 512;" xml:space="preserve">
<path style="fill:#FCB043;" d="M487.932,173.163c9.15,0,16.568,7.418,16.568,16.568V487.93c0,9.15-7.418,16.568-16.568,16.568
	h-86.975H111.042H24.067c-9.15,0-16.567-7.418-16.567-16.568v-298.2c0-9.15,7.417-16.568,16.567-16.568h463.865V173.163z"/>
<g>
	<path style="fill:#EF9122;" d="M13.378,177.083l239.069,175.701c2.114,1.554,4.992,1.554,7.106,0l239.068-175.702
		c-2.886-2.441-6.613-3.92-10.689-3.92H24.067C19.991,173.163,16.264,174.642,13.378,177.083z"/>
	<path style="fill:#EF9122;" d="M484.5,189.73v298.2c0,9.15-7.418,16.568-16.568,16.568h20c9.15,0,16.568-7.418,16.568-16.568
		v-298.2c0-9.15-7.418-16.568-16.568-16.568h-20C477.082,173.163,484.5,180.581,484.5,189.73z"/>
</g>
<path style="fill:#D16619;" d="M484.344,187.576l14.277-10.493l0,0c-0.278-0.235-0.57-0.453-0.863-0.67
	c-0.11-0.081-0.217-0.167-0.329-0.246c-0.265-0.186-0.54-0.358-0.816-0.529c-0.155-0.096-0.309-0.193-0.468-0.284
	c-0.258-0.148-0.524-0.286-0.791-0.421c-0.192-0.096-0.385-0.191-0.581-0.28c-0.252-0.115-0.508-0.223-0.766-0.326
	c-0.228-0.09-0.459-0.173-0.691-0.253c-0.242-0.084-0.485-0.165-0.732-0.238c-0.268-0.078-0.541-0.145-0.815-0.21
	c-0.225-0.054-0.449-0.111-0.678-0.155c-0.326-0.063-0.658-0.108-0.99-0.151c-0.188-0.025-0.373-0.059-0.563-0.077
	c-0.528-0.051-1.063-0.081-1.604-0.081h-20C476.35,173.163,483.286,179.446,484.344,187.576z"/>
<path style="fill:#DEF2FC;" d="M117.466,471.366H46.633c-3.314,0-6-2.686-6-6v-70.833c0-3.314,2.686-6,6-6h70.833
	c3.314,0,6,2.686,6,6v70.833C123.466,468.68,120.779,471.366,117.466,471.366z"/>
<path style="fill:#04A1EE;" d="M92.617,446.517H71.482c-3.314,0-6-2.686-6-6v-21.135c0-3.314,2.686-6,6-6h21.135
	c3.314,0,6,2.686,6,6v21.135C98.617,443.831,95.931,446.517,92.617,446.517z"/>
<path style="fill:#DEF2FC;" d="M421.666,233.641V13.503c0-3.314-2.686-6-6-6H96.334c-3.314,0-6,2.686-6,6v220.139l162.113,119.143
	c2.114,1.554,4.992,1.554,7.106,0L421.666,233.641z"/>
<path style="fill:#BCCED5;" d="M415.666,7.503h-20c3.314,0,6,2.686,6,6V248.34l20-14.699V13.503
	C421.666,10.189,418.98,7.503,415.666,7.503z"/>
<circle style="fill:#FCB043;" cx="256" cy="156.6" r="99.4"/>
<path style="fill:#EF9122;" d="M256,236.001c-51.522,0-93.887-39.199-98.902-89.4c-0.328,3.289-0.499,6.625-0.499,10
	c0,54.898,44.503,99.401,99.401,99.401s99.401-44.503,99.401-99.401c0-3.375-0.17-6.711-0.499-10
	C349.887,196.802,307.522,236.001,256,236.001z"/>
<path d="M40.633,381.034c-4.142,0-7.5,3.357-7.5,7.5v82.832c0,4.142,3.358,7.5,7.5,7.5h82.833c4.142,0,7.5-3.358,7.5-7.5v-82.832
	c0-4.143-3.358-7.5-7.5-7.5H40.633z M115.966,463.866H48.133v-67.832h67.833V463.866z"/>
<path d="M65.482,454.017h33.135c4.142,0,7.5-3.357,7.5-7.5v-33.135c0-4.143-3.358-7.5-7.5-7.5H65.482c-4.142,0-7.5,3.357-7.5,7.5
	v33.135C57.982,450.66,61.34,454.017,65.482,454.017z M72.982,420.882h18.135v18.135H72.982V420.882z"/>
<path d="M206.299,397.598h-49.7c-4.142,0-7.5,3.357-7.5,7.5s3.358,7.5,7.5,7.5h49.7c4.142,0,7.5-3.357,7.5-7.5
	S210.441,397.598,206.299,397.598z"/>
<path d="M206.299,430.734h-49.698c-4.142,0-7.5,3.357-7.5,7.5s3.358,7.5,7.5,7.5h49.698c4.142,0,7.5-3.357,7.5-7.5
	S210.441,430.734,206.299,430.734z"/>
<path d="M231.15,430.734c-4.142,0-7.5,3.357-7.5,7.5s3.358,7.5,7.5,7.5H256c4.143,0,7.5-3.357,7.5-7.5s-3.357-7.5-7.5-7.5H231.15z"
	/>
<path d="M256,49.701c-58.945,0-106.9,47.955-106.9,106.9s47.955,106.9,106.9,106.9s106.9-47.955,106.9-106.9
	S314.945,49.701,256,49.701z M256,248.501c-50.674,0-91.9-41.227-91.9-91.9s41.227-91.9,91.9-91.9s91.9,41.227,91.9,91.9
	S306.674,248.501,256,248.501z"/>
<path d="M322.267,153.237c-4.143,0-7.5,3.357-7.5,7.5c0,5-4.067,9.068-9.067,9.068s-9.067-4.068-9.067-9.068
	c0-4.143-3.357-7.5-7.5-7.5c-4.142,0-7.5,3.357-7.5,7.5c0,8.591,4.527,16.14,11.318,20.4c-7.334,13.274-21.418,21.801-36.951,21.801
	c-15.534,0-29.617-8.528-36.95-21.801c6.791-4.259,11.318-11.809,11.318-20.4c0-4.143-3.358-7.5-7.5-7.5s-7.5,3.357-7.5,7.5
	c0,5-4.067,9.068-9.067,9.068s-9.068-4.068-9.068-9.068c0-4.143-3.358-7.5-7.5-7.5s-7.5,3.357-7.5,7.5
	c0,12.514,9.601,22.824,21.823,23.96c9.265,20.087,29.486,33.241,51.944,33.241s42.68-13.154,51.945-33.241
	c12.222-1.136,21.824-11.446,21.824-23.96C329.767,156.594,326.409,153.237,322.267,153.237z"/>
<path d="M198.015,135.11c4.142,0,7.5-3.357,7.5-7.5c0-7.283,5.925-13.209,13.209-13.209s13.21,5.926,13.21,13.209
	c0,4.143,3.358,7.5,7.5,7.5s7.5-3.357,7.5-7.5c0-15.555-12.655-28.209-28.21-28.209s-28.209,12.654-28.209,28.209
	C190.515,131.752,193.873,135.11,198.015,135.11z"/>
<path d="M272.566,135.11c4.143,0,7.5-3.357,7.5-7.5c0-7.283,5.926-13.209,13.21-13.209c7.283,0,13.209,5.926,13.209,13.209
	c0,4.143,3.357,7.5,7.5,7.5c4.142,0,7.5-3.357,7.5-7.5c0-15.555-12.654-28.209-28.209-28.209s-28.21,12.654-28.21,28.209
	C265.066,131.752,268.424,135.11,272.566,135.11z"/>
<path d="M503.759,171.622c-0.134-0.126-0.273-0.244-0.414-0.359c-4.178-3.493-9.553-5.6-15.413-5.6h-58.767V7.502
	c0-4.143-3.357-7.5-7.5-7.5H90.334c-4.142,0-7.5,3.357-7.5,7.5v158.16H24.067c-5.731,0-10.999,2.017-15.137,5.374
	c-0.013,0.009-0.025,0.02-0.038,0.03c-0.069,0.056-0.138,0.111-0.206,0.168c-0.159,0.128-0.314,0.26-0.463,0.401
	C3.189,176.05,0,182.523,0,189.73V487.93c0,13.272,10.796,24.068,24.067,24.068h367.234c4.143,0,7.5-3.357,7.5-7.5
	s-3.357-7.5-7.5-7.5H24.067c-5,0-9.067-4.068-9.067-9.068V189.73c0-0.681,0.082-1.343,0.225-1.982l236.334,173.691
	c1.321,0.972,2.881,1.457,4.441,1.457s3.12-0.485,4.441-1.457l236.333-173.692c0.143,0.639,0.225,1.301,0.225,1.983V487.93
	c0,5-4.067,9.068-9.067,9.068H421.25c-4.143,0-7.5,3.357-7.5,7.5s3.357,7.5,7.5,7.5h66.683c13.271,0,24.067-10.797,24.067-24.068
	V189.73C512,182.515,508.804,176.037,503.759,171.622z M481.086,180.663l-51.92,38.158v-38.158H481.086z M82.834,218.822
	l-51.922-38.16h51.922V218.822z M256,346.089L97.834,229.846V15.002h316.332v214.843L256,346.089z"/>
<g>
</g>
<g>
</g>
<g>
</g>
<g>
</g>
<g>
</g>
<g>
</g>
<g>
</g>
<g>
</g>
<g>
</g>
<g>
</g>
<g>
</g>
<g>
</g>
<g>
</g>
<g>
</g>
<g>
</g>
</svg>
