<?xml version="1.0" encoding="iso-8859-1"?>
<!-- Generator: Adobe Illustrator 19.0.0, SVG Export Plug-In . SVG Version: 6.00 Build 0)  -->
<svg version="1.1" id="Capa_1" xmlns="http://www.w3.org/2000/svg" xmlns:xlink="http://www.w3.org/1999/xlink" x="0px" y="0px"
	 viewBox="0 0 512 512" style="enable-background:new 0 0 512 512;" xml:space="preserve">
<path style="fill:#FCB043;" d="M487.932,173.163c9.15,0,16.568,7.418,16.568,16.568V487.93c0,9.15-7.418,16.568-16.568,16.568
	h-86.975H111.042H24.067c-9.15,0-16.567-7.418-16.567-16.568v-298.2c0-9.15,7.417-16.568,16.567-16.568h463.865V173.163z"/>
<g>
	<path style="fill:#EF9122;" d="M13.378,177.083l239.069,175.701c2.114,1.554,4.992,1.554,7.106,0l239.068-175.702
		c-2.886-2.441-6.613-3.92-10.689-3.92H24.067C19.991,173.163,16.264,174.642,13.378,177.083z"/>
	<path style="fill:#EF9122;" d="M484.5,189.73v298.2c0,9.15-7.418,16.568-16.568,16.568h20c9.15,0,16.568-7.418,16.568-16.568
		v-298.2c0-9.15-7.418-16.568-16.568-16.568h-20C477.082,173.163,484.5,180.581,484.5,189.73z"/>
</g>
<path style="fill:#D16619;" d="M484.344,187.576l14.277-10.493l0,0c-0.278-0.235-0.57-0.453-0.863-0.67
	c-0.11-0.081-0.217-0.167-0.329-0.246c-0.265-0.186-0.54-0.358-0.816-0.529c-0.155-0.096-0.309-0.193-0.468-0.284
	c-0.258-0.148-0.524-0.286-0.791-0.421c-0.192-0.096-0.385-0.191-0.581-0.28c-0.252-0.115-0.508-0.223-0.766-0.326
	c-0.228-0.09-0.459-0.173-0.691-0.253c-0.242-0.084-0.485-0.165-0.732-0.238c-0.268-0.078-0.541-0.145-0.815-0.21
	c-0.225-0.054-0.449-0.111-0.678-0.155c-0.326-0.063-0.658-0.108-0.99-0.151c-0.188-0.025-0.373-0.059-0.563-0.077
	c-0.528-0.051-1.063-0.081-1.604-0.081h-20C476.35,173.163,483.286,179.446,484.344,187.576z"/>
<path style="fill:#DEF2FC;" d="M117.466,471.366H46.633c-3.314,0-6-2.686-6-6v-70.833c0-3.314,2.686-6,6-6h70.833
	c3.314,0,6,2.686,6,6v70.833C123.466,468.68,120.78,471.366,117.466,471.366z"/>
<path style="fill:#04A1EE;" d="M92.617,446.517H71.482c-3.314,0-6-2.686-6-6v-21.135c0-3.314,2.686-6,6-6h21.135
	c3.314,0,6,2.686,6,6v21.135C98.617,443.831,95.931,446.517,92.617,446.517z"/>
<path style="fill:#DEF2FC;" d="M421.666,233.641V13.503c0-3.314-2.686-6-6-6H96.334c-3.314,0-6,2.686-6,6v220.139l162.113,119.143
	c2.114,1.554,4.992,1.554,7.106,0L421.666,233.641z"/>
<g>
	<path style="fill:#BCCED5;" d="M415.666,7.503h-20c3.314,0,6,2.686,6,6V248.34l20-14.699V13.503
		C421.666,10.189,418.98,7.503,415.666,7.503z"/>
	<path style="fill:#BCCED5;" d="M382.533,173.168l-70.833,0.001c-3.314,0-6-2.686-6-6v-87.4c0-3.314,2.686-6,6-6h70.833
		c3.314,0,6,2.686,6,6v87.399C388.533,170.481,385.847,173.168,382.533,173.168z"/>
</g>
<g>
	<path style="fill:#04A1EE;" d="M357.684,148.319h-21.135c-3.314,0-6-2.686-6-6v-37.701c0-3.314,2.686-6,6-6h21.135
		c3.314,0,6,2.686,6,6v37.701C363.684,145.633,360.998,148.319,357.684,148.319z"/>
	<path style="fill:#04A1EE;" d="M421.666,40.635V13.503c0-3.314-2.686-6-6-6H96.334c-3.314,0-6,2.686-6,6v27.132
		C90.334,40.635,421.666,40.635,421.666,40.635z"/>
</g>
<g>
	<polygon style="fill:#E94141;" points="181.451,40.635 198.016,7.503 264.282,7.503 247.718,40.635 	"/>
	<polygon style="fill:#E94141;" points="330.549,7.503 313.984,40.635 380.251,40.635 396.816,7.503 	"/>
</g>
<path style="fill:#0084CE;" d="M415.666,7.503h-19.999c3.313,0.001,5.999,2.687,5.999,6v27.132h20V13.503
	C421.666,10.189,418.98,7.503,415.666,7.503z"/>
<path style="fill:#E94141;" d="M131.749,7.503H96.334c-3.314,0-6,2.686-6,6v27.132h24.85L131.749,7.503z"/>
<path d="M40.633,381.034c-4.143,0-7.5,3.357-7.5,7.5v82.832c0,4.142,3.357,7.5,7.5,7.5h82.833c4.143,0,7.5-3.358,7.5-7.5v-82.832
	c0-4.143-3.357-7.5-7.5-7.5H40.633z M115.966,463.866H48.133v-67.832h67.833V463.866z"/>
<path d="M65.482,454.017h33.135c4.143,0,7.5-3.357,7.5-7.5v-33.135c0-4.143-3.357-7.5-7.5-7.5H65.482c-4.143,0-7.5,3.357-7.5,7.5
	v33.135C57.982,450.66,61.34,454.017,65.482,454.017z M72.982,420.882h18.135v18.135H72.982V420.882z"/>
<path d="M206.299,397.598H156.6c-4.143,0-7.5,3.357-7.5,7.5s3.357,7.5,7.5,7.5h49.699c4.143,0,7.5-3.357,7.5-7.5
	S210.441,397.598,206.299,397.598z"/>
<path d="M206.299,430.734h-49.697c-4.143,0-7.5,3.357-7.5,7.5s3.357,7.5,7.5,7.5h49.697c4.143,0,7.5-3.357,7.5-7.5
	S210.441,430.734,206.299,430.734z"/>
<path d="M231.15,430.734c-4.143,0-7.5,3.357-7.5,7.5s3.357,7.5,7.5,7.5H256c4.143,0,7.5-3.357,7.5-7.5s-3.357-7.5-7.5-7.5H231.15z"
	/>
<path d="M388.533,66.269H305.7c-4.143,0-7.5,3.357-7.5,7.5V95.51l-9.066,9.067l-11.263-11.263c-2.929-2.929-7.678-2.93-10.607-0.001
	l-16.568,16.565c-2.93,2.929-2.93,7.678-0.001,10.606c2.929,2.929,7.678,2.93,10.606,0.001l11.265-11.263l11.264,11.264
	c1.407,1.407,3.314,2.197,5.304,2.197c1.989,0,3.898-0.79,5.304-2.197l3.763-3.763v11.919l-9.066,9.067l-11.263-11.263
	c-2.929-2.929-7.678-2.93-10.607-0.001l-16.568,16.566c-2.93,2.929-2.93,7.678-0.001,10.606c2.929,2.929,7.678,2.93,10.606,0.001
	l11.266-11.264l11.263,11.264c1.407,1.407,3.314,2.197,5.304,2.197c1.989,0,3.898-0.79,5.304-2.197l3.763-3.763v23.311
	c0,1.989,0.79,3.896,2.196,5.304c1.407,1.406,3.314,2.196,5.304,2.196l82.833-0.001c4.143,0,7.5-3.357,7.5-7.5V73.769
	C396.033,69.626,392.676,66.269,388.533,66.269z M381.033,165.667l-67.833,0.001v-33.917c0-0.002,0-0.003,0-0.005V98.619
	c0-0.002,0-0.003,0-0.005V81.269h67.833V165.667z"/>
<path d="M330.549,155.819h33.136c4.142,0,7.5-3.357,7.5-7.5V98.618c0-4.143-3.358-7.5-7.5-7.5h-33.136c-4.142,0-7.5,3.357-7.5,7.5
	v49.701C323.049,152.461,326.406,155.819,330.549,155.819z M338.049,106.118h18.136v34.701h-18.136V106.118z"/>
<path d="M123.468,180.667h16.565c4.143,0,7.5-3.357,7.5-7.5s-3.357-7.5-7.5-7.5h-16.565c-4.143,0-7.5,3.357-7.5,7.5
	S119.325,180.667,123.468,180.667z"/>
<path d="M164.884,180.667h41.415c4.143,0,7.5-3.357,7.5-7.5s-3.357-7.5-7.5-7.5h-41.415c-4.143,0-7.5,3.357-7.5,7.5
	S160.741,180.667,164.884,180.667z"/>
<path d="M222.866,198.801h-99.398c-4.143,0-7.5,3.357-7.5,7.5s3.357,7.5,7.5,7.5h99.398c4.143,0,7.5-3.357,7.5-7.5
	C230.366,202.159,227.009,198.801,222.866,198.801z"/>
<path d="M503.759,171.622c-0.134-0.126-0.273-0.244-0.414-0.359c-4.178-3.493-9.553-5.6-15.413-5.6h-58.767V7.502
	c0-4.143-3.357-7.5-7.5-7.5H90.334c-4.143,0-7.5,3.357-7.5,7.5v158.16H24.067c-5.731,0-10.998,2.017-15.136,5.374
	c-0.012,0.009-0.024,0.019-0.036,0.028c-0.07,0.057-0.14,0.114-0.21,0.172c-0.157,0.126-0.311,0.258-0.459,0.398
	C3.19,176.049,0,182.522,0,189.73V487.93c0,13.272,10.797,24.068,24.067,24.068h367.234c4.143,0,7.5-3.357,7.5-7.5
	s-3.357-7.5-7.5-7.5H24.067c-5,0-9.067-4.068-9.067-9.068V189.73c0-0.681,0.082-1.343,0.225-1.982l236.334,173.691
	c1.321,0.972,2.881,1.457,4.441,1.457s3.12-0.485,4.441-1.457l236.333-173.692c0.143,0.639,0.225,1.301,0.225,1.983V487.93
	c0,5-4.067,9.068-9.067,9.068H421.25c-4.143,0-7.5,3.357-7.5,7.5s3.357,7.5,7.5,7.5h66.683c13.271,0,24.067-10.797,24.067-24.068
	V189.73C512,182.515,508.804,176.037,503.759,171.622z M481.086,180.663l-51.92,38.158v-38.158H481.086z M414.166,33.134h-21.78
	l9.066-18.132h12.714V33.134z M326.119,33.134l9.065-18.132h49.498l-9.066,18.132H326.119z M259.852,33.134l9.065-18.132h49.497
	l-9.065,18.132H259.852z M193.585,33.134l9.065-18.132h49.497l-9.065,18.132H193.585z M127.319,33.134l9.066-18.132h49.497
	l-9.065,18.132H127.319z M119.614,15.002l-9.066,18.132H97.834V15.002H119.614z M82.834,218.822l-51.922-38.16h51.922V218.822z
	 M256,346.089L97.834,229.846V48.134h17.309c0.011,0,0.023,0.002,0.034,0.002c0.01,0,0.019-0.002,0.028-0.002h66.205
	c0.011,0,0.023,0.002,0.034,0.002c0.01,0,0.019-0.002,0.028-0.002h66.204c0.011,0,0.023,0.002,0.034,0.002
	c0.01,0,0.019-0.002,0.028-0.002h66.204c0.011,0,0.023,0.002,0.034,0.002c0.01,0,0.019-0.002,0.028-0.002h66.204
	c0.011,0,0.023,0.002,0.034,0.002c0.01,0,0.019-0.002,0.028-0.002h33.893v181.711L256,346.089z"/>
<g>
</g>
<g>
</g>
<g>
</g>
<g>
</g>
<g>
</g>
<g>
</g>
<g>
</g>
<g>
</g>
<g>
</g>
<g>
</g>
<g>
</g>
<g>
</g>
<g>
</g>
<g>
</g>
<g>
</g>
</svg>
