<?xml version="1.0" encoding="iso-8859-1"?>
<!-- Generator: Adobe Illustrator 19.0.0, SVG Export Plug-In . SVG Version: 6.00 Build 0)  -->
<svg version="1.1" id="Capa_1" xmlns="http://www.w3.org/2000/svg" xmlns:xlink="http://www.w3.org/1999/xlink" x="0px" y="0px"
	 viewBox="0 0 512 512" style="enable-background:new 0 0 512 512;" xml:space="preserve">
<path style="fill:#FCB043;" d="M487.932,173.163c9.15,0,16.568,7.418,16.568,16.568V487.93c0,9.15-7.418,16.568-16.568,16.568
	h-86.975H111.042H24.067c-9.15,0-16.567-7.418-16.567-16.568V189.731c0-9.15,7.417-16.568,16.567-16.568H487.932z"/>
<g>
	<path style="fill:#EF9122;" d="M13.378,177.084l239.069,175.701c2.114,1.554,4.992,1.554,7.106,0l239.068-175.702
		c-2.886-2.441-6.613-3.92-10.689-3.92H24.067C19.991,173.163,16.264,174.642,13.378,177.084z"/>
	<path style="fill:#EF9122;" d="M484.5,189.731V487.93c0,9.15-7.418,16.568-16.568,16.568h20c9.15,0,16.568-7.418,16.568-16.568
		V189.731c0-9.15-7.418-16.568-16.568-16.568h-20C477.082,173.163,484.5,180.581,484.5,189.731z"/>
</g>
<path style="fill:#D16619;" d="M484.344,187.576l14.277-10.493l0,0c-0.278-0.235-0.57-0.453-0.863-0.67
	c-0.11-0.081-0.217-0.167-0.329-0.246c-0.265-0.186-0.54-0.358-0.816-0.529c-0.155-0.096-0.309-0.193-0.468-0.284
	c-0.258-0.148-0.524-0.286-0.791-0.421c-0.192-0.096-0.385-0.191-0.581-0.28c-0.252-0.115-0.508-0.223-0.766-0.326
	c-0.228-0.09-0.459-0.173-0.691-0.253c-0.242-0.084-0.485-0.166-0.732-0.238c-0.268-0.078-0.541-0.145-0.815-0.21
	c-0.225-0.054-0.449-0.111-0.678-0.155c-0.326-0.063-0.658-0.108-0.99-0.151c-0.188-0.025-0.373-0.058-0.563-0.077
	c-0.528-0.051-1.063-0.081-1.604-0.081h-20C476.35,173.163,483.286,179.447,484.344,187.576z"/>
<path style="fill:#DEF2FC;" d="M117.466,471.366H46.633c-3.314,0-6-2.686-6-6v-70.833c0-3.314,2.686-6,6-6h70.833
	c3.314,0,6,2.686,6,6v70.833C123.466,468.68,120.78,471.366,117.466,471.366z"/>
<path style="fill:#04A1EE;" d="M92.617,446.518H71.482c-3.314,0-6-2.686-6-6v-21.135c0-3.314,2.686-6,6-6h21.135
	c3.314,0,6,2.686,6,6v21.135C98.617,443.831,95.931,446.518,92.617,446.518z"/>
<path style="fill:#3B4F66;" d="M388.534,257.992V13.502c0-3.314-2.686-6-6-6H129.468c-3.314,0-6,2.686-6,6l-0.001,244.491
	L252.4,352.697c2.133,1.6,5.067,1.6,7.2,0L388.534,257.992z"/>
<path style="fill:#04A1EE;" d="M227.008,186.359v-59.516c0-4.88,5.516-7.719,9.487-4.882l41.662,29.758
	c3.35,2.393,3.35,7.372,0,9.765l-41.662,29.758C232.524,194.078,227.008,191.24,227.008,186.359z"/>
<g>
	<path style="fill:#DEF2FC;" d="M175.452,73.769h-21.134c-3.314,0-6-2.686-6-6V46.634c0-3.314,2.686-6,6-6h21.134
		c3.314,0,6,2.686,6,6v21.134C181.452,71.082,178.765,73.769,175.452,73.769z"/>
	<path style="fill:#DEF2FC;" d="M175.452,140.037h-21.134c-3.314,0-6-2.686-6-6v-21.134c0-3.314,2.686-6,6-6h21.134
		c3.314,0,6,2.686,6,6v21.134C181.452,137.35,178.765,140.037,175.452,140.037z"/>
	<path style="fill:#DEF2FC;" d="M175.452,206.305h-21.134c-3.314,0-6-2.686-6-6v-21.134c0-3.314,2.686-6,6-6h21.134
		c3.314,0,6,2.686,6,6v21.134C181.452,203.619,178.765,206.305,175.452,206.305z"/>
	<path style="fill:#DEF2FC;" d="M175.452,272.573h-21.134c-3.314,0-6-2.686-6-6v-21.134c0-3.314,2.686-6,6-6h21.134
		c3.314,0,6,2.686,6,6v21.134C181.452,269.887,178.765,272.573,175.452,272.573z"/>
	<path style="fill:#DEF2FC;" d="M357.684,73.769H336.55c-3.314,0-6-2.686-6-6V46.634c0-3.314,2.686-6,6-6h21.134
		c3.314,0,6,2.686,6,6v21.134C363.684,71.082,360.998,73.769,357.684,73.769z"/>
	<path style="fill:#DEF2FC;" d="M357.684,140.037H336.55c-3.314,0-6-2.686-6-6v-21.134c0-3.314,2.686-6,6-6h21.134
		c3.314,0,6,2.686,6,6v21.134C363.684,137.35,360.998,140.037,357.684,140.037z"/>
	<path style="fill:#DEF2FC;" d="M357.684,206.305H336.55c-3.314,0-6-2.686-6-6v-21.134c0-3.314,2.686-6,6-6h21.134
		c3.314,0,6,2.686,6,6v21.134C363.684,203.619,360.998,206.305,357.684,206.305z"/>
	<path style="fill:#DEF2FC;" d="M357.684,272.573H336.55c-3.314,0-6-2.686-6-6v-21.134c0-3.314,2.686-6,6-6h21.134
		c3.314,0,6,2.686,6,6v21.134C363.684,269.887,360.998,272.573,357.684,272.573z"/>
</g>
<path style="fill:#2C3B4D;" d="M382.534,7.502h-20c3.314,0,6,2.686,6,6v259.071l20-14.581V13.502
	C388.534,10.188,385.848,7.502,382.534,7.502z"/>
<path d="M40.633,381.034c-4.143,0-7.5,3.357-7.5,7.5v82.832c0,4.143,3.357,7.5,7.5,7.5h82.833c4.143,0,7.5-3.357,7.5-7.5v-82.832
	c0-4.143-3.357-7.5-7.5-7.5H40.633z M115.966,463.866H48.133v-67.832h67.833V463.866z"/>
<path d="M65.482,454.018h33.135c4.143,0,7.5-3.357,7.5-7.5v-33.135c0-4.143-3.357-7.5-7.5-7.5H65.482c-4.143,0-7.5,3.357-7.5,7.5
	v33.135C57.982,450.66,61.34,454.018,65.482,454.018z M72.982,420.883h18.135v18.135H72.982V420.883z"/>
<path d="M206.299,397.599H156.6c-4.143,0-7.5,3.357-7.5,7.5s3.357,7.5,7.5,7.5h49.699c4.143,0,7.5-3.357,7.5-7.5
	C213.799,400.956,210.441,397.599,206.299,397.599z"/>
<path d="M206.299,430.734h-49.697c-4.143,0-7.5,3.357-7.5,7.5s3.357,7.5,7.5,7.5h49.697c4.143,0,7.5-3.357,7.5-7.5
	S210.441,430.734,206.299,430.734z"/>
<path d="M231.15,430.734c-4.143,0-7.5,3.357-7.5,7.5s3.357,7.5,7.5,7.5H256c4.143,0,7.5-3.357,7.5-7.5s-3.357-7.5-7.5-7.5H231.15z"
	/>
<path d="M289.352,150.499l-57.984-41.418c-2.285-1.634-5.293-1.854-7.791-0.566c-2.498,1.286-4.068,3.859-4.068,6.669v82.835
	c0,2.81,1.57,5.383,4.068,6.669c1.081,0.557,2.259,0.831,3.431,0.831c1.536,0,3.064-0.471,4.36-1.398l57.984-41.416
	c1.971-1.408,3.141-3.682,3.141-6.104C292.492,154.18,291.322,151.906,289.352,150.499z M234.508,183.444v-53.687l37.581,26.844
	L234.508,183.444z"/>
<path d="M181.452,33.135h-33.135c-4.143,0-7.5,3.357-7.5,7.5v33.134c0,4.143,3.357,7.5,7.5,7.5h33.135c4.143,0,7.5-3.357,7.5-7.5
	V40.635C188.952,36.492,185.595,33.135,181.452,33.135z M173.952,66.269h-18.135V48.135h18.135V66.269z"/>
<path d="M181.452,99.402h-33.135c-4.143,0-7.5,3.357-7.5,7.5v33.135c0,4.143,3.357,7.5,7.5,7.5h33.135c4.143,0,7.5-3.357,7.5-7.5
	v-33.135C188.952,102.76,185.595,99.402,181.452,99.402z M173.952,132.537h-18.135v-18.135h18.135V132.537z"/>
<path d="M181.452,165.671h-33.135c-4.143,0-7.5,3.357-7.5,7.5v33.134c0,4.143,3.357,7.5,7.5,7.5h33.135c4.143,0,7.5-3.357,7.5-7.5
	v-33.134C188.952,169.028,185.595,165.671,181.452,165.671z M173.952,198.805h-18.135v-18.134h18.135V198.805z"/>
<path d="M330.55,81.269h33.134c4.143,0,7.5-3.357,7.5-7.5V40.635c0-4.143-3.357-7.5-7.5-7.5H330.55c-4.143,0-7.5,3.357-7.5,7.5
	v33.134C323.05,77.911,326.407,81.269,330.55,81.269z M338.05,48.135h18.134v18.134H338.05V48.135z"/>
<path d="M330.55,147.537h33.134c4.143,0,7.5-3.357,7.5-7.5v-33.135c0-4.143-3.357-7.5-7.5-7.5H330.55c-4.143,0-7.5,3.357-7.5,7.5
	v33.135C323.05,144.18,326.407,147.537,330.55,147.537z M338.05,114.402h18.134v18.135H338.05V114.402z"/>
<path d="M330.55,213.805h33.134c4.143,0,7.5-3.357,7.5-7.5v-33.134c0-4.143-3.357-7.5-7.5-7.5H330.55c-4.143,0-7.5,3.357-7.5,7.5
	v33.134C323.05,210.447,326.407,213.805,330.55,213.805z M338.05,180.671h18.134v18.134H338.05V180.671z"/>
<path d="M503.759,171.622c-0.134-0.126-0.273-0.244-0.414-0.359c-4.178-3.493-9.553-5.6-15.413-5.6h-91.898V7.502
	c0-4.143-3.357-7.5-7.5-7.5H123.468c-4.143,0-7.5,3.357-7.5,7.5l-0.001,158.161h-91.9c-5.73,0-10.997,2.016-15.134,5.373
	c-0.016,0.011-0.03,0.024-0.045,0.036c-0.066,0.054-0.132,0.107-0.197,0.161c-0.16,0.128-0.315,0.261-0.466,0.403
	C3.189,176.051,0,182.523,0,189.73v298.2c0,13.271,10.797,24.068,24.067,24.068h367.234c4.143,0,7.5-3.357,7.5-7.5
	s-3.357-7.5-7.5-7.5H24.067c-5,0-9.067-4.068-9.067-9.068v-298.2c0-0.681,0.082-1.343,0.225-1.982l236.334,173.691
	c1.321,0.972,2.881,1.457,4.441,1.457s3.12-0.485,4.441-1.457l236.333-173.692c0.143,0.639,0.225,1.301,0.225,1.983v298.2
	c0,5-4.067,9.068-9.067,9.068H421.25c-4.143,0-7.5,3.357-7.5,7.5s3.357,7.5,7.5,7.5h66.683c13.271,0,24.067-10.797,24.067-24.068
	v-298.2C512,182.516,508.804,176.037,503.759,171.622z M481.086,180.663l-85.052,62.509v-62.509H481.086z M115.967,243.173
	l-85.055-62.51h85.055V243.173z M256,346.089l-89.825-66.016h15.277c4.143,0,7.5-3.357,7.5-7.5v-33.135c0-4.143-3.357-7.5-7.5-7.5
	h-33.135c-4.143,0-7.5,3.357-7.5,7.5v21.998l-9.851-7.239l0.001-239.195h250.066v239.194l-9.851,7.24v-21.997
	c0-4.143-3.357-7.5-7.5-7.5H330.55c-4.143,0-7.5,3.357-7.5,7.5v33.135c0,4.143,3.357,7.5,7.5,7.5h15.274L256,346.089z
	 M155.817,265.073v-18.135h18.135v18.135H155.817z M356.184,265.073H338.05v-18.135h18.134V265.073z"/>
<g>
</g>
<g>
</g>
<g>
</g>
<g>
</g>
<g>
</g>
<g>
</g>
<g>
</g>
<g>
</g>
<g>
</g>
<g>
</g>
<g>
</g>
<g>
</g>
<g>
</g>
<g>
</g>
<g>
</g>
</svg>
