<?xml version="1.0" encoding="iso-8859-1"?>
<!-- Generator: Adobe Illustrator 19.0.0, SVG Export Plug-In . SVG Version: 6.00 Build 0)  -->
<svg version="1.1" id="Capa_1" xmlns="http://www.w3.org/2000/svg" xmlns:xlink="http://www.w3.org/1999/xlink" x="0px" y="0px"
	 viewBox="0 0 512 512" style="enable-background:new 0 0 512 512;" xml:space="preserve">
<path style="fill:#FCB043;" d="M487.932,173.163c9.15,0,16.568,7.418,16.568,16.568V487.93c0,9.15-7.418,16.568-16.568,16.568
	h-86.975H111.042H24.067c-9.15,0-16.567-7.418-16.567-16.568v-298.2c0-9.15,7.417-16.568,16.567-16.568h463.865V173.163z"/>
<g>
	<path style="fill:#EF9122;" d="M13.378,177.083l239.069,175.701c2.114,1.554,4.992,1.554,7.106,0l239.068-175.702
		c-2.886-2.441-6.613-3.92-10.689-3.92H24.067C19.991,173.163,16.264,174.642,13.378,177.083z"/>
	<path style="fill:#EF9122;" d="M484.5,189.73v298.2c0,9.15-7.418,16.568-16.568,16.568h20c9.15,0,16.568-7.418,16.568-16.568
		v-298.2c0-9.15-7.418-16.568-16.568-16.568h-20C477.082,173.163,484.5,180.581,484.5,189.73z"/>
</g>
<path style="fill:#D16619;" d="M484.344,187.576l14.277-10.493l0,0c-0.278-0.235-0.57-0.453-0.863-0.67
	c-0.11-0.081-0.217-0.167-0.329-0.246c-0.265-0.186-0.54-0.358-0.816-0.529c-0.155-0.096-0.309-0.193-0.468-0.284
	c-0.259-0.148-0.524-0.286-0.791-0.421c-0.192-0.096-0.385-0.191-0.581-0.28c-0.252-0.115-0.508-0.223-0.766-0.326
	c-0.228-0.09-0.459-0.173-0.691-0.253c-0.242-0.084-0.485-0.165-0.732-0.238c-0.268-0.078-0.541-0.145-0.815-0.21
	c-0.225-0.054-0.449-0.111-0.678-0.155c-0.326-0.063-0.658-0.108-0.99-0.151c-0.188-0.025-0.373-0.059-0.563-0.077
	c-0.528-0.051-1.063-0.081-1.604-0.081h-20C476.35,173.163,483.286,179.446,484.344,187.576z"/>
<path style="fill:#DEF2FC;" d="M117.466,471.366H46.633c-3.314,0-6-2.686-6-6v-70.833c0-3.314,2.686-6,6-6h70.833
	c3.314,0,6,2.686,6,6v70.833C123.466,468.68,120.78,471.366,117.466,471.366z"/>
<path style="fill:#04A1EE;" d="M92.617,446.517H71.482c-3.314,0-6-2.686-6-6v-21.135c0-3.314,2.686-6,6-6h21.135
	c3.314,0,6,2.686,6,6v21.135C98.617,443.831,95.931,446.517,92.617,446.517z"/>
<path style="fill:#DEF2FC;" d="M421.666,233.641V89.99L338.832,7.503H96.334c-3.314,0-6,2.686-6,6v220.139l162.113,119.143
	c2.114,1.554,4.992,1.554,7.106,0L421.666,233.641z"/>
<polygon style="fill:#BCCED5;" points="421.666,233.641 401.666,248.34 401.666,70.017 421.666,90.017 "/>
<path style="fill:#FFFFFF;" d="M345.178,89.99h76.488L339.178,7.503V83.99C339.178,87.304,341.865,89.99,345.178,89.99z"/>
<path style="fill:#04A1EE;" d="M390.119,307.732l-14.944,14.944c-2.343,2.343-6.142,2.343-8.485,0l-85.231-85.231
	c-2.343-2.343-2.343-6.142,0-8.485l14.944-14.944c2.343-2.343,6.142-2.343,8.485,0l85.231,85.231
	C392.462,301.59,392.462,305.389,390.119,307.732z"/>
<circle style="fill:#3B4F66;" cx="206.93" cy="139.49" r="82.83"/>
<circle style="fill:#04A1EE;" cx="206.93" cy="139.49" r="49.698"/>
<path d="M40.633,381.034c-4.142,0-7.5,3.357-7.5,7.5v82.832c0,4.142,3.358,7.5,7.5,7.5h82.832c4.142,0,7.5-3.358,7.5-7.5v-82.832
	c0-4.143-3.358-7.5-7.5-7.5H40.633z M115.966,463.866H48.133v-67.832h67.832v67.832H115.966z"/>
<path d="M65.482,454.017h33.135c4.142,0,7.5-3.357,7.5-7.5v-33.135c0-4.143-3.358-7.5-7.5-7.5H65.482c-4.142,0-7.5,3.357-7.5,7.5
	v33.135C57.982,450.66,61.34,454.017,65.482,454.017z M72.982,420.882h18.135v18.135H72.982V420.882z"/>
<path d="M206.299,397.598h-49.7c-4.142,0-7.5,3.357-7.5,7.5s3.358,7.5,7.5,7.5h49.7c4.142,0,7.5-3.357,7.5-7.5
	S210.441,397.598,206.299,397.598z"/>
<path d="M206.299,430.734h-49.698c-4.142,0-7.5,3.357-7.5,7.5s3.358,7.5,7.5,7.5h49.698c4.142,0,7.5-3.357,7.5-7.5
	S210.441,430.734,206.299,430.734z"/>
<path d="M231.15,430.734c-4.142,0-7.5,3.357-7.5,7.5s3.358,7.5,7.5,7.5H256c4.142,0,7.5-3.357,7.5-7.5s-3.358-7.5-7.5-7.5H231.15z"
	/>
<path d="M247.375,99.041c-22.302-22.301-58.589-22.301-80.891,0c-22.302,22.302-22.302,58.59,0,80.892
	c11.151,11.15,25.798,16.726,40.445,16.726s29.294-5.575,40.445-16.726C269.677,157.631,269.677,121.343,247.375,99.041z
	 M236.769,169.326c-16.453,16.452-43.224,16.454-59.678,0c-16.453-16.453-16.453-43.224,0-59.677
	c8.227-8.227,19.033-12.34,29.839-12.34s21.612,4.113,29.839,12.34C253.222,126.102,253.222,152.873,236.769,169.326z"/>
<path d="M503.764,171.625c-0.137-0.13-0.28-0.251-0.425-0.368c-4.177-3.49-9.55-5.594-15.406-5.594h-58.767V89.99
	c0-0.084-0.01-0.166-0.013-0.249c-0.003-0.088-0.007-0.175-0.013-0.264c-0.021-0.312-0.056-0.62-0.115-0.921
	c-0.002-0.012-0.003-0.025-0.006-0.037c-0.066-0.33-0.158-0.65-0.266-0.964c-0.02-0.059-0.043-0.118-0.065-0.177
	c-0.11-0.295-0.233-0.582-0.378-0.858c-0.01-0.02-0.018-0.04-0.029-0.06c-0.156-0.292-0.334-0.569-0.526-0.836
	c-0.043-0.061-0.088-0.12-0.134-0.179c-0.203-0.265-0.416-0.521-0.651-0.757c-0.001-0.001-0.002-0.002-0.003-0.003L344.481,2.199
	c-1.431-1.432-3.346-2.176-5.294-2.178c-0.118-0.005-0.235-0.018-0.355-0.018H90.334c-4.142,0-7.5,3.357-7.5,7.5v158.16H24.067
	c-5.732,0-11,2.018-15.139,5.376c-0.009,0.007-0.018,0.015-0.028,0.022c-0.073,0.059-0.146,0.118-0.218,0.178
	c-0.156,0.126-0.309,0.256-0.457,0.395C3.189,176.049,0,182.522,0,189.73v298.199c0,13.272,10.796,24.068,24.067,24.068h367.235
	c4.142,0,7.5-3.357,7.5-7.5s-3.358-7.5-7.5-7.5H24.067c-5,0-9.067-4.068-9.067-9.068V189.73c0-0.681,0.082-1.343,0.225-1.982
	l236.334,173.691c1.321,0.972,2.881,1.457,4.441,1.457s3.12-0.485,4.441-1.457l77.469-56.935l27.719,27.719
	c1.464,1.464,3.384,2.196,5.303,2.196s3.839-0.733,5.303-2.196l23.43-23.43c1.407-1.407,2.197-3.315,2.197-5.304
	c0-1.989-0.79-3.896-2.197-5.304l-22.519-22.519l119.629-87.92c0.143,0.639,0.225,1.301,0.225,1.983v298.199
	c0,5-4.067,9.068-9.067,9.068H421.25c-4.142,0-7.5,3.357-7.5,7.5s3.358,7.5,7.5,7.5h66.683c13.271,0,24.067-10.797,24.067-24.068
	V189.73C512,182.517,508.806,176.04,503.764,171.625z M481.087,180.663l-51.921,38.159v-38.159H481.087z M346.678,25.609
	L403.56,82.49h-56.881L346.678,25.609L346.678,25.609z M82.834,218.822l-51.922-38.16h51.922V218.822z M370.932,316.313
	l-65.537-65.537l12.823-12.823l65.537,65.537L370.932,316.313z M294.234,226.792c0.002-0.002,0.004-0.005,0.007-0.008l6.404-6.404
	l6.966,6.966l-12.823,12.823l-6.965-6.966l6.404-6.404C294.229,226.797,294.232,226.795,294.234,226.792z M305.949,204.47
	c-1.406-1.406-3.314-2.196-5.303-2.196s-3.897,0.79-5.303,2.196l-6.411,6.411l-13.055-13.055
	c13.83-16.291,21.387-36.729,21.387-58.339c0-24.129-9.396-46.813-26.458-63.876c-17.061-17.062-39.746-26.458-63.875-26.458
	s-46.814,9.396-63.875,26.458c-17.062,17.063-26.458,39.747-26.458,63.876s9.396,46.814,26.458,63.875
	c17.061,17.062,39.746,26.458,63.875,26.458c21.61,0,42.048-7.557,58.339-21.387l13.055,13.055l-6.411,6.411
	c-2.929,2.93-2.929,7.678,0,10.607l55.268,55.268L256,346.088L97.834,229.846V15.002h233.844V89.99c0,4.143,3.358,7.5,7.5,7.5
	h74.988v132.356l-47.749,35.093L305.949,204.47z M206.93,214.821c-20.122,0-39.04-7.836-53.269-22.065
	c-14.229-14.228-22.064-33.146-22.064-53.268s7.836-39.04,22.064-53.268c14.229-14.229,33.146-22.066,53.269-22.066
	s39.04,7.836,53.269,22.066c14.229,14.228,22.064,33.146,22.064,53.268c0,20.122-7.836,39.04-22.064,53.268
	C245.97,206.985,227.052,214.821,206.93,214.821z"/>
<g>
</g>
<g>
</g>
<g>
</g>
<g>
</g>
<g>
</g>
<g>
</g>
<g>
</g>
<g>
</g>
<g>
</g>
<g>
</g>
<g>
</g>
<g>
</g>
<g>
</g>
<g>
</g>
<g>
</g>
</svg>
