<?xml version="1.0" encoding="iso-8859-1"?>
<!-- Generator: Adobe Illustrator 19.0.0, SVG Export Plug-In . SVG Version: 6.00 Build 0)  -->
<svg version="1.1" id="Capa_1" xmlns="http://www.w3.org/2000/svg" xmlns:xlink="http://www.w3.org/1999/xlink" x="0px" y="0px"
	 viewBox="0 0 512 512" style="enable-background:new 0 0 512 512;" xml:space="preserve">
<path style="fill:#FCB043;" d="M487.932,173.163c9.15,0,16.568,7.418,16.568,16.568V487.93c0,9.15-7.418,16.568-16.568,16.568
	h-86.975H111.042H24.067c-9.15,0-16.567-7.418-16.567-16.568V189.731c0-9.15,7.417-16.568,16.567-16.568H487.932z"/>
<g>
	<path style="fill:#EF9122;" d="M13.378,177.084l239.069,175.701c2.114,1.554,4.992,1.554,7.106,0l239.068-175.702
		c-2.886-2.441-6.612-3.92-10.689-3.92H24.067C19.991,173.163,16.264,174.642,13.378,177.084z"/>
	<path style="fill:#EF9122;" d="M484.5,189.731V487.93c0,9.15-7.418,16.568-16.568,16.568h20c9.15,0,16.568-7.418,16.568-16.568
		V189.731c0-9.15-7.418-16.568-16.568-16.568h-20C477.082,173.163,484.5,180.581,484.5,189.731z"/>
</g>
<path style="fill:#D16619;" d="M484.344,187.576l14.277-10.493l0,0c-0.278-0.235-0.57-0.453-0.863-0.67
	c-0.11-0.081-0.217-0.167-0.329-0.246c-0.265-0.186-0.54-0.358-0.816-0.529c-0.155-0.096-0.309-0.193-0.468-0.284
	c-0.259-0.148-0.524-0.286-0.791-0.421c-0.192-0.096-0.385-0.191-0.581-0.28c-0.252-0.115-0.508-0.223-0.766-0.326
	c-0.228-0.09-0.459-0.173-0.691-0.253c-0.242-0.084-0.485-0.166-0.732-0.238c-0.268-0.078-0.541-0.145-0.815-0.21
	c-0.225-0.054-0.449-0.111-0.678-0.155c-0.326-0.063-0.658-0.108-0.99-0.151c-0.188-0.025-0.373-0.058-0.563-0.077
	c-0.528-0.051-1.063-0.081-1.604-0.081h-20C476.35,173.163,483.286,179.447,484.344,187.576z"/>
<path style="fill:#DEF2FC;" d="M117.466,471.366H46.633c-3.314,0-6-2.686-6-6v-70.833c0-3.314,2.686-6,6-6h70.833
	c3.314,0,6,2.686,6,6v70.833C123.466,468.68,120.779,471.366,117.466,471.366z"/>
<path style="fill:#04A1EE;" d="M92.617,446.518H71.482c-3.314,0-6-2.686-6-6v-21.135c0-3.314,2.686-6,6-6h21.135
	c3.314,0,6,2.686,6,6v21.135C98.617,443.831,95.931,446.518,92.617,446.518z"/>
<path style="fill:#2C931D;" d="M438.233,221.465v-64.864H73.767v64.865l178.68,131.319c2.114,1.554,4.992,1.554,7.106,0
	L438.233,221.465z"/>
<path style="fill:#54CC4E;" d="M438.232,173.17c0,9.15-7.418,16.568-16.568,16.568H90.333c-9.15,0-16.567-7.418-16.567-16.568V24.07
	c0-9.15,7.418-16.568,16.567-16.568h331.331c9.15,0,16.568,7.418,16.568,16.568V173.17z"/>
<path style="fill:#A1E291;" d="M408.262,132.12c-14.22,2.066-25.45,13.445-27.63,27.702c-0.446,2.918-2.967,5.065-5.919,5.065
	H137.317c-2.979,0-5.507-2.187-5.93-5.136c-2.038-14.226-13.457-25.571-27.656-27.632c-2.94-0.427-5.115-2.956-5.115-5.927V71.021
	c0-2.951,2.146-5.471,5.063-5.919c14.245-2.184,25.502-13.441,27.687-27.686c0.447-2.917,2.968-5.064,5.919-5.063l237.404,0.022
	c2.964-0.012,5.498,2.142,5.944,5.072c2.187,14.383,13.445,25.508,27.692,27.662c2.916,0.441,5.058,2.969,5.058,5.918v55.167
	C413.383,129.166,411.205,131.693,408.262,132.12z"/>
<circle style="fill:#54CC4E;" cx="256" cy="98.62" r="33.13"/>
<path d="M40.633,381.034c-4.142,0-7.5,3.357-7.5,7.5v82.832c0,4.143,3.358,7.5,7.5,7.5h82.832c4.142,0,7.5-3.357,7.5-7.5v-82.832
	c0-4.143-3.358-7.5-7.5-7.5H40.633z M115.966,463.866H48.133v-67.832h67.832v67.832H115.966z"/>
<path d="M65.482,454.018h33.135c4.142,0,7.5-3.357,7.5-7.5v-33.135c0-4.143-3.358-7.5-7.5-7.5H65.482c-4.142,0-7.5,3.357-7.5,7.5
	v33.135C57.982,450.66,61.34,454.018,65.482,454.018z M72.982,420.883h18.135v18.135H72.982V420.883z"/>
<path d="M206.299,397.599h-49.7c-4.142,0-7.5,3.357-7.5,7.5s3.358,7.5,7.5,7.5h49.7c4.142,0,7.5-3.357,7.5-7.5
	S210.441,397.599,206.299,397.599z"/>
<path d="M206.299,430.734h-49.698c-4.142,0-7.5,3.357-7.5,7.5s3.358,7.5,7.5,7.5h49.698c4.142,0,7.5-3.357,7.5-7.5
	S210.441,430.734,206.299,430.734z"/>
<path d="M231.15,430.734c-4.142,0-7.5,3.357-7.5,7.5s3.358,7.5,7.5,7.5H256c4.142,0,7.5-3.357,7.5-7.5s-3.358-7.5-7.5-7.5H231.15z"
	/>
<path d="M98.616,139.253c14.135,0,25.635,11.499,25.635,25.634c0,4.143,3.358,7.5,7.5,7.5h248.497c4.142,0,7.5-3.357,7.5-7.5
	c0-14.135,11.5-25.634,25.634-25.634c4.142,0,7.5-3.357,7.5-7.5V65.486c0-4.143-3.358-7.5-7.5-7.5
	c-14.135,0-25.634-11.499-25.634-25.634c0-4.143-3.358-7.5-7.5-7.5H131.751c-4.142,0-7.5,3.357-7.5,7.5
	c0,14.135-11.5,25.634-25.635,25.634c-4.142,0-7.5,3.357-7.5,7.5v66.267C91.116,135.896,94.474,139.253,98.616,139.253z
	 M106.116,72.293c16.405-3.073,29.368-16.036,32.441-32.44h234.885c3.073,16.404,16.036,29.367,32.44,32.44v52.653
	c-16.405,3.073-29.367,16.036-32.44,32.44H138.557c-3.073-16.404-16.036-29.367-32.441-32.44
	C106.116,124.946,106.116,72.293,106.116,72.293z"/>
<path d="M256,139.254c22.406,0,40.634-18.229,40.634-40.635S278.406,57.984,256,57.984s-40.634,18.229-40.634,40.635
	S233.594,139.254,256,139.254z M256,72.984c14.135,0,25.634,11.5,25.634,25.635S270.135,124.254,256,124.254
	c-14.135,0-25.634-11.5-25.634-25.635S241.865,72.984,256,72.984z"/>
<path d="M503.763,171.625c-0.137-0.129-0.278-0.249-0.423-0.366c-4.178-3.491-9.551-5.596-15.408-5.596h-42.199v-9.062
	c0-0.01-0.001-0.019-0.002-0.029V24.07c0-13.272-10.796-24.068-24.067-24.068H90.333c-13.271,0-24.067,10.797-24.067,24.068v141.593
	H24.067c-5.732,0-11,2.017-15.138,5.375c-0.011,0.008-0.021,0.017-0.032,0.025c-0.071,0.058-0.143,0.116-0.213,0.174
	c-0.157,0.126-0.311,0.258-0.459,0.398C3.189,176.05,0,182.523,0,189.73v298.2c0,13.271,10.796,24.068,24.067,24.068h367.235
	c4.142,0,7.5-3.357,7.5-7.5s-3.358-7.5-7.5-7.5H24.067c-4.999,0-9.067-4.068-9.067-9.068v-298.2c0-0.681,0.082-1.343,0.225-1.982
	l236.334,173.691c1.321,0.972,2.881,1.457,4.441,1.457s3.12-0.485,4.441-1.457l236.333-173.692c0.143,0.639,0.225,1.301,0.225,1.983
	v298.2c0,5-4.067,9.068-9.067,9.068H421.25c-4.142,0-7.5,3.357-7.5,7.5s3.358,7.5,7.5,7.5h66.683
	c13.271,0,24.067-10.797,24.067-24.068v-298.2C512,182.518,508.806,176.04,503.763,171.625z M481.087,180.663l-35.353,25.983
	v-25.983H481.087z M422.522,223.705c-0.282-0.032-0.567-0.053-0.857-0.053H90.333c-0.29,0-0.575,0.02-0.856,0.052l-8.21-6.034
	v-22.212c2.8,1.143,5.86,1.779,9.066,1.779h331.332c3.207,0,6.268-0.636,9.069-1.78v22.212L422.522,223.705z M365.818,265.379
	c-0.677-0.201-1.392-0.313-2.134-0.313H148.317c-0.743,0-1.458,0.112-2.136,0.313l-36.366-26.727h292.368L365.818,265.379z
	 M309.85,306.512c-0.202-0.016-0.404-0.031-0.609-0.031H202.108l-35.942-26.415h179.668L309.85,306.512z M66.267,206.647
	l-35.355-25.984h35.355V206.647z M90.333,15.002h331.332c5,0,9.067,4.068,9.067,9.068v149.1c0,5-4.067,9.067-9.067,9.067H90.333
	c-4.994,0-9.056-4.057-9.066-9.048v-16.588c0-0.007-0.001-0.013-0.001-0.019V24.07C81.266,19.07,85.333,15.002,90.333,15.002z
	 M256,346.089l-33.482-24.607h66.964L256,346.089z"/>
<g>
</g>
<g>
</g>
<g>
</g>
<g>
</g>
<g>
</g>
<g>
</g>
<g>
</g>
<g>
</g>
<g>
</g>
<g>
</g>
<g>
</g>
<g>
</g>
<g>
</g>
<g>
</g>
<g>
</g>
</svg>
