<?xml version="1.0" encoding="iso-8859-1"?>
<!-- Generator: Adobe Illustrator 19.0.0, SVG Export Plug-In . SVG Version: 6.00 Build 0)  -->
<svg version="1.1" id="Capa_1" xmlns="http://www.w3.org/2000/svg" xmlns:xlink="http://www.w3.org/1999/xlink" x="0px" y="0px"
	 viewBox="0 0 512 512" style="enable-background:new 0 0 512 512;" xml:space="preserve">
<path style="fill:#FCB043;" d="M487.932,173.163c9.15,0,16.568,7.418,16.568,16.568V487.93c0,9.15-7.418,16.568-16.568,16.568
	h-86.975H111.042H24.067c-9.15,0-16.567-7.418-16.567-16.568v-298.2c0-9.15,7.417-16.568,16.567-16.568h463.865V173.163z"/>
<g>
	<path style="fill:#EF9122;" d="M13.378,177.083l239.069,175.701c2.114,1.554,4.992,1.554,7.106,0l239.068-175.702
		c-2.886-2.441-6.613-3.92-10.689-3.92H24.067C19.991,173.163,16.264,174.642,13.378,177.083z"/>
	<path style="fill:#EF9122;" d="M484.5,189.73v298.2c0,9.15-7.418,16.568-16.568,16.568h20c9.15,0,16.568-7.418,16.568-16.568
		v-298.2c0-9.15-7.418-16.568-16.568-16.568h-20C477.082,173.163,484.5,180.581,484.5,189.73z"/>
</g>
<path style="fill:#D16619;" d="M484.344,187.576l14.277-10.493l0,0c-0.278-0.235-0.57-0.453-0.863-0.67
	c-0.11-0.081-0.217-0.167-0.329-0.246c-0.265-0.186-0.54-0.358-0.816-0.529c-0.155-0.096-0.309-0.193-0.468-0.284
	c-0.258-0.148-0.524-0.286-0.791-0.421c-0.192-0.096-0.385-0.191-0.581-0.28c-0.252-0.115-0.508-0.223-0.766-0.326
	c-0.228-0.09-0.459-0.173-0.691-0.253c-0.242-0.084-0.485-0.165-0.732-0.238c-0.268-0.078-0.541-0.145-0.815-0.21
	c-0.225-0.054-0.449-0.111-0.678-0.155c-0.326-0.063-0.658-0.108-0.99-0.151c-0.188-0.025-0.373-0.059-0.563-0.077
	c-0.528-0.051-1.063-0.081-1.604-0.081h-20C476.35,173.163,483.286,179.446,484.344,187.576z"/>
<path style="fill:#DEF2FC;" d="M117.466,471.366H46.633c-3.314,0-6-2.686-6-6v-70.833c0-3.314,2.686-6,6-6h70.833
	c3.314,0,6,2.686,6,6v70.833C123.466,468.68,120.779,471.366,117.466,471.366z"/>
<path style="fill:#04A1EE;" d="M92.617,446.517H71.482c-3.314,0-6-2.686-6-6v-21.135c0-3.314,2.686-6,6-6h21.135
	c3.314,0,6,2.686,6,6v21.135C98.617,443.831,95.931,446.517,92.617,446.517z"/>
<path style="fill:#DEF2FC;" d="M255.662,7.503C155.158,7.685,73.264,90.168,73.77,190.672c0.057,11.318,1.146,22.392,3.177,33.133
	l175.5,128.98c2.114,1.554,4.992,1.554,7.106,0l175.501-128.982c2.087-11.036,3.179-22.424,3.179-34.067
	C438.233,88.978,356.462,7.32,255.662,7.503z M256,214.585c-13.724,0-24.85-11.125-24.85-24.85s11.126-24.85,24.85-24.85
	s24.85,11.126,24.85,24.85S269.724,214.585,256,214.585z"/>
<path style="fill:#3B4F66;" d="M256,123.469c-36.598,0-66.266,29.668-66.266,66.266s29.668,66.266,66.266,66.266
	s66.266-29.668,66.266-66.266C322.266,153.138,292.598,123.469,256,123.469z M256,214.585c-13.724,0-24.85-11.125-24.85-24.85
	s11.126-24.85,24.85-24.85s24.85,11.126,24.85,24.85S269.724,214.585,256,214.585z"/>
<path style="fill:#BCCED5;" d="M256,7.503c-3.356,0-6.689,0.097-10,0.277c95.993,5.192,172.233,84.667,172.233,181.956
	c0,11.643-1.092,23.031-3.179,34.067c0,0-2.804,12.074-9.179,21.074l29.179-21.074c2.087-11.036,3.179-22.424,3.179-34.067
	C438.233,89.091,356.644,7.503,256,7.503z"/>
<path d="M40.633,381.034c-4.142,0-7.5,3.357-7.5,7.5v82.832c0,4.142,3.358,7.5,7.5,7.5h82.833c4.142,0,7.5-3.358,7.5-7.5v-82.832
	c0-4.143-3.358-7.5-7.5-7.5H40.633z M115.966,463.866H48.133v-67.832h67.833V463.866z"/>
<path d="M65.482,454.017h33.135c4.142,0,7.5-3.357,7.5-7.5v-33.135c0-4.143-3.358-7.5-7.5-7.5H65.482c-4.142,0-7.5,3.357-7.5,7.5
	v33.135C57.982,450.66,61.34,454.017,65.482,454.017z M72.982,420.882h18.135v18.135H72.982V420.882z"/>
<path d="M206.299,397.598h-49.7c-4.142,0-7.5,3.357-7.5,7.5s3.358,7.5,7.5,7.5h49.7c4.142,0,7.5-3.357,7.5-7.5
	S210.441,397.598,206.299,397.598z"/>
<path d="M206.299,430.734h-49.698c-4.142,0-7.5,3.357-7.5,7.5s3.358,7.5,7.5,7.5h49.698c4.142,0,7.5-3.357,7.5-7.5
	S210.441,430.734,206.299,430.734z"/>
<path d="M231.15,430.734c-4.142,0-7.5,3.357-7.5,7.5s3.358,7.5,7.5,7.5H256c4.143,0,7.5-3.357,7.5-7.5s-3.357-7.5-7.5-7.5H231.15z"
	/>
<path d="M256,157.385c-17.837,0-32.35,14.513-32.35,32.351s14.512,32.35,32.35,32.35s32.35-14.512,32.35-32.35
	S273.838,157.385,256,157.385z M256,207.085c-9.566,0-17.35-7.783-17.35-17.35s7.783-17.351,17.35-17.351
	c9.566,0,17.35,7.783,17.35,17.351C273.35,199.302,265.566,207.085,256,207.085z"/>
<path d="M256,115.969c-40.674,0-73.766,33.092-73.766,73.767s33.091,73.766,73.766,73.766s73.766-33.091,73.766-73.766
	S296.675,115.969,256,115.969z M256,248.501c-32.403,0-58.766-26.362-58.766-58.766s26.362-58.767,58.766-58.767
	s58.766,26.362,58.766,58.767C314.766,222.139,288.403,248.501,256,248.501z"/>
<path d="M263.5,40.635c0-4.143-3.357-7.5-7.5-7.5c-41.83,0-81.156,16.289-110.733,45.867c-2.929,2.93-2.929,7.678,0,10.607
	c1.464,1.464,3.384,2.196,5.303,2.196c1.919,0,3.839-0.732,5.303-2.196C182.618,62.865,218.177,48.135,256,48.135
	C260.143,48.135,263.5,44.778,263.5,40.635z"/>
<path d="M263.5,73.768c0-4.143-3.357-7.5-7.5-7.5c-32.98,0-63.985,12.843-87.305,36.163c-2.929,2.93-2.929,7.678,0,10.607
	c1.464,1.464,3.384,2.196,5.303,2.196c1.92,0,3.839-0.732,5.303-2.196c20.488-20.487,47.726-31.77,76.699-31.77
	C260.143,81.268,263.5,77.911,263.5,73.768z"/>
<path d="M503.759,171.622c-0.134-0.126-0.273-0.244-0.414-0.359c-4.178-3.493-9.553-5.6-15.413-5.6h-43.721
	C432.347,72.367,352.466,0.002,256,0.002S79.653,72.367,67.788,165.663h-43.72c-5.732,0-11,2.018-15.139,5.376
	c-0.01,0.007-0.019,0.015-0.028,0.022c-0.073,0.059-0.146,0.118-0.218,0.178c-0.156,0.126-0.309,0.256-0.457,0.395
	C3.189,176.049,0,182.522,0,189.73V487.93c0,13.272,10.796,24.068,24.067,24.068h367.234c4.143,0,7.5-3.357,7.5-7.5
	s-3.357-7.5-7.5-7.5H24.067c-5,0-9.067-4.068-9.067-9.068V189.73c0-0.681,0.082-1.343,0.225-1.982l236.334,173.691
	c1.321,0.972,2.881,1.457,4.441,1.457s3.12-0.485,4.441-1.457l236.333-173.692c0.143,0.639,0.225,1.301,0.225,1.983V487.93
	c0,5-4.067,9.068-9.067,9.068H421.25c-4.143,0-7.5,3.357-7.5,7.5s3.357,7.5,7.5,7.5h66.683c13.271,0,24.067-10.797,24.067-24.068
	V189.73C512,182.515,508.804,176.037,503.759,171.622z M481.086,180.663l-36.157,26.573c0.532-5.811,0.803-11.657,0.803-17.5
	c0-3.042-0.079-6.066-0.222-9.073H481.086z M67.07,207.237l-36.159-26.574h35.577c-0.142,3.007-0.222,6.031-0.222,9.073
	C66.267,195.58,66.539,201.426,67.07,207.237z M256,346.089L83.808,219.538c-1.68-9.789-2.541-19.798-2.541-29.802
	c0-96.349,78.385-174.733,174.733-174.733s174.732,78.385,174.732,174.733c0,10.005-0.86,20.013-2.54,29.801L256,346.089z"/>
<g>
</g>
<g>
</g>
<g>
</g>
<g>
</g>
<g>
</g>
<g>
</g>
<g>
</g>
<g>
</g>
<g>
</g>
<g>
</g>
<g>
</g>
<g>
</g>
<g>
</g>
<g>
</g>
<g>
</g>
</svg>
