<?xml version="1.0" encoding="iso-8859-1"?>
<!-- Generator: Adobe Illustrator 19.0.0, SVG Export Plug-In . SVG Version: 6.00 Build 0)  -->
<svg version="1.1" id="Capa_1" xmlns="http://www.w3.org/2000/svg" xmlns:xlink="http://www.w3.org/1999/xlink" x="0px" y="0px"
	 viewBox="0 0 512 512" style="enable-background:new 0 0 512 512;" xml:space="preserve">
<path style="fill:#FCB043;" d="M487.932,173.163c9.15,0,16.568,7.418,16.568,16.568V487.93c0,9.15-7.418,16.568-16.568,16.568
	h-86.975H111.042H24.067c-9.15,0-16.567-7.418-16.567-16.568V189.731c0-9.15,7.417-16.568,16.567-16.568H487.932z"/>
<g>
	<path style="fill:#EF9122;" d="M13.378,177.084l239.069,175.701c2.114,1.554,4.992,1.554,7.106,0l239.068-175.702
		c-2.886-2.441-6.613-3.92-10.689-3.92H24.067C19.991,173.163,16.264,174.642,13.378,177.084z"/>
	<path style="fill:#EF9122;" d="M484.5,189.731V487.93c0,9.15-7.418,16.568-16.568,16.568h20c9.15,0,16.568-7.418,16.568-16.568
		V189.731c0-9.15-7.418-16.568-16.568-16.568h-20C477.082,173.163,484.5,180.581,484.5,189.731z"/>
</g>
<path style="fill:#D16619;" d="M484.344,187.576l14.277-10.493l0,0c-0.278-0.235-0.57-0.453-0.863-0.67
	c-0.11-0.081-0.217-0.167-0.329-0.246c-0.265-0.186-0.54-0.358-0.816-0.529c-0.155-0.096-0.309-0.193-0.468-0.284
	c-0.258-0.148-0.524-0.286-0.791-0.421c-0.192-0.096-0.385-0.191-0.581-0.28c-0.252-0.115-0.508-0.223-0.766-0.326
	c-0.228-0.09-0.459-0.173-0.691-0.253c-0.242-0.084-0.485-0.166-0.732-0.238c-0.268-0.078-0.541-0.145-0.815-0.21
	c-0.225-0.054-0.449-0.111-0.678-0.155c-0.326-0.063-0.658-0.108-0.99-0.151c-0.188-0.025-0.373-0.058-0.563-0.077
	c-0.528-0.051-1.063-0.081-1.604-0.081h-20C476.35,173.163,483.286,179.447,484.344,187.576z"/>
<path style="fill:#DEF2FC;" d="M117.466,471.366H46.633c-3.314,0-6-2.686-6-6v-70.833c0-3.314,2.686-6,6-6h70.833
	c3.314,0,6,2.686,6,6v70.833C123.466,468.68,120.78,471.366,117.466,471.366z"/>
<path style="fill:#04A1EE;" d="M92.617,446.518H71.482c-3.314,0-6-2.686-6-6v-21.135c0-3.314,2.686-6,6-6h21.135
	c3.314,0,6,2.686,6,6v21.135C98.617,443.831,95.931,446.518,92.617,446.518z"/>
<path style="fill:#3B4F66;" d="M405.1,206.303c0,9.15-7.417,16.568-16.568,16.568H123.468c-9.15,0-16.567-7.418-16.567-16.568V24.07
	c0-9.15,7.418-16.568,16.567-16.568h265.065c9.15,0,16.568,7.418,16.568,16.568v182.233H405.1z"/>
<polygon style="fill:#BCCED5;" points="322.266,164.886 189.734,164.886 232.103,131.751 279.896,131.751 "/>
<g>
	<path style="fill:#DEF2FC;" d="M189.734,65.486c-27.449,0-49.7,22.252-49.7,49.7s22.252,49.7,49.7,49.7
		c27.449,0,49.7-22.252,49.7-49.7S217.182,65.486,189.734,65.486z M189.734,131.751c-9.149,0-16.565-7.417-16.565-16.565
		s7.417-16.566,16.565-16.566c9.149,0,16.566,7.417,16.566,16.566S198.883,131.751,189.734,131.751z"/>
	<path style="fill:#DEF2FC;" d="M322.266,65.486c-27.449,0-49.7,22.252-49.7,49.7s22.251,49.7,49.7,49.7s49.7-22.252,49.7-49.7
		S349.715,65.486,322.266,65.486z M322.267,131.751c-9.149,0-16.566-7.417-16.566-16.565s7.417-16.566,16.566-16.566
		c9.149,0,16.565,7.417,16.565,16.566S331.416,131.751,322.267,131.751z"/>
</g>
<path style="fill:#2C3B4D;" d="M388.532,202.814H123.468c-9.15,0-16.568-7.417-16.568-16.568v20.055
	c0,9.15,7.417,16.568,16.568,16.568h265.065c9.15,0,16.568-7.418,16.568-16.568v-20.055
	C405.1,195.397,397.682,202.814,388.532,202.814z"/>
<path d="M40.633,381.034c-4.143,0-7.5,3.357-7.5,7.5v82.832c0,4.143,3.357,7.5,7.5,7.5h82.833c4.143,0,7.5-3.357,7.5-7.5v-82.832
	c0-4.143-3.357-7.5-7.5-7.5H40.633z M115.966,463.866H48.133v-67.832h67.833V463.866z"/>
<path d="M65.482,454.018h33.135c4.143,0,7.5-3.357,7.5-7.5v-33.135c0-4.143-3.357-7.5-7.5-7.5H65.482c-4.143,0-7.5,3.357-7.5,7.5
	v33.135C57.982,450.66,61.34,454.018,65.482,454.018z M72.982,420.883h18.135v18.135H72.982V420.883z"/>
<path d="M206.299,397.599H156.6c-4.143,0-7.5,3.357-7.5,7.5s3.357,7.5,7.5,7.5h49.699c4.143,0,7.5-3.357,7.5-7.5
	C213.799,400.956,210.441,397.599,206.299,397.599z"/>
<path d="M206.299,430.734h-49.697c-4.143,0-7.5,3.357-7.5,7.5s3.357,7.5,7.5,7.5h49.697c4.143,0,7.5-3.357,7.5-7.5
	S210.441,430.734,206.299,430.734z"/>
<path d="M231.15,430.734c-4.143,0-7.5,3.357-7.5,7.5s3.357,7.5,7.5,7.5H256c4.143,0,7.5-3.357,7.5-7.5s-3.357-7.5-7.5-7.5H231.15z"
	/>
<path d="M189.733,172.386h132.532c31.54,0,57.2-25.66,57.2-57.2s-25.66-57.2-57.2-57.2s-57.2,25.66-57.2,57.2
	c0,3.085,0.253,6.111,0.726,9.065h-19.583c0.473-2.954,0.726-5.98,0.726-9.065c0-31.54-25.66-57.2-57.2-57.2s-57.2,25.66-57.2,57.2
	S158.193,172.386,189.733,172.386z M322.266,72.985c23.27,0,42.2,18.931,42.2,42.2s-18.931,42.2-42.2,42.2
	c-23.27,0-42.2-18.931-42.2-42.2S298.996,72.985,322.266,72.985z M270.393,139.251c3.213,6.898,7.753,13.057,13.304,18.135h-55.395
	c5.551-5.078,10.091-11.237,13.304-18.135H270.393z M189.733,72.985c23.27,0,42.2,18.931,42.2,42.2s-18.931,42.2-42.2,42.2
	s-42.2-18.931-42.2-42.2S166.464,72.985,189.733,72.985z"/>
<path d="M189.733,139.251c13.27,0,24.065-10.796,24.065-24.065S203.003,91.12,189.733,91.12s-24.065,10.796-24.065,24.065
	S176.464,139.251,189.733,139.251z M189.733,106.12c4.999,0,9.065,4.066,9.065,9.065s-4.066,9.065-9.065,9.065
	c-4.999,0-9.065-4.066-9.065-9.065S184.734,106.12,189.733,106.12z"/>
<path d="M322.267,139.251c13.27,0,24.065-10.796,24.065-24.065S335.536,91.12,322.267,91.12s-24.065,10.796-24.065,24.065
	S308.997,139.251,322.267,139.251z M322.267,106.12c4.999,0,9.065,4.066,9.065,9.065s-4.066,9.065-9.065,9.065
	s-9.065-4.066-9.065-9.065S317.268,106.12,322.267,106.12z"/>
<path d="M503.759,171.622c-0.134-0.126-0.273-0.244-0.414-0.359c-4.178-3.493-9.553-5.6-15.413-5.6H412.6V24.07
	c0-13.272-10.797-24.068-24.067-24.068H123.468c-13.27,0-24.067,10.797-24.067,24.068v141.593H24.067
	c-5.732,0-11.001,2.018-15.139,5.376c-0.007,0.005-0.014,0.011-0.021,0.017c-0.076,0.062-0.153,0.124-0.228,0.187
	c-0.154,0.124-0.305,0.253-0.45,0.39C3.19,176.048,0,182.522,0,189.73v298.2c0,13.271,10.797,24.068,24.067,24.068h367.234
	c4.143,0,7.5-3.357,7.5-7.5s-3.357-7.5-7.5-7.5H24.067c-5,0-9.067-4.068-9.067-9.068v-298.2c0-0.681,0.082-1.343,0.225-1.982
	l236.334,173.691c1.321,0.972,2.881,1.457,4.441,1.457s3.12-0.485,4.441-1.457l236.333-173.692c0.143,0.639,0.225,1.301,0.225,1.983
	v298.2c0,5-4.067,9.068-9.067,9.068H421.25c-4.143,0-7.5,3.357-7.5,7.5s3.357,7.5,7.5,7.5h66.683
	c13.271,0,24.067-10.797,24.067-24.068v-298.2C512,182.516,508.804,176.037,503.759,171.622z M114.4,24.07
	c0-5,4.067-9.068,9.067-9.068h265.064c5,0,9.067,4.068,9.067,9.068v182.232c0,5-4.067,9.067-9.067,9.067H123.468
	c-5,0-9.067-4.067-9.067-9.067L114.4,24.07L114.4,24.07z M256,346.089L30.912,180.663H99.4v25.64
	c0,13.271,10.797,24.067,24.067,24.067h265.064c13.271,0,24.067-10.797,24.067-24.067v-25.64h68.487L256,346.089z"/>
<g>
</g>
<g>
</g>
<g>
</g>
<g>
</g>
<g>
</g>
<g>
</g>
<g>
</g>
<g>
</g>
<g>
</g>
<g>
</g>
<g>
</g>
<g>
</g>
<g>
</g>
<g>
</g>
<g>
</g>
</svg>
