<?xml version="1.0" encoding="iso-8859-1"?>
<!-- Generator: Adobe Illustrator 19.0.0, SVG Export Plug-In . SVG Version: 6.00 Build 0)  -->
<svg version="1.1" id="Capa_1" xmlns="http://www.w3.org/2000/svg" xmlns:xlink="http://www.w3.org/1999/xlink" x="0px" y="0px"
	 viewBox="0 0 512 512" style="enable-background:new 0 0 512 512;" xml:space="preserve">
<path style="fill:#FCB043;" d="M487.932,173.163c9.15,0,16.568,7.418,16.568,16.568V487.93c0,9.15-7.418,16.568-16.568,16.568
	h-86.975H111.042H24.067c-9.15,0-16.567-7.418-16.567-16.568v-298.2c0-9.15,7.417-16.568,16.567-16.568h463.865V173.163z"/>
<g>
	<path style="fill:#EF9122;" d="M13.378,177.083l239.069,175.701c2.114,1.554,4.992,1.554,7.106,0l239.068-175.702
		c-2.886-2.441-6.613-3.92-10.689-3.92H24.067C19.991,173.163,16.264,174.642,13.378,177.083z"/>
	<path style="fill:#EF9122;" d="M484.5,189.73v298.2c0,9.15-7.418,16.568-16.568,16.568h20c9.15,0,16.568-7.418,16.568-16.568
		v-298.2c0-9.15-7.418-16.568-16.568-16.568h-20C477.082,173.163,484.5,180.581,484.5,189.73z"/>
</g>
<path style="fill:#D16619;" d="M484.344,187.576l14.277-10.493l0,0c-0.278-0.235-0.57-0.453-0.863-0.67
	c-0.11-0.081-0.217-0.167-0.329-0.246c-0.265-0.186-0.54-0.358-0.816-0.529c-0.155-0.096-0.309-0.193-0.468-0.284
	c-0.258-0.148-0.524-0.286-0.791-0.421c-0.192-0.096-0.385-0.191-0.581-0.28c-0.252-0.115-0.508-0.223-0.766-0.326
	c-0.228-0.09-0.459-0.173-0.691-0.253c-0.242-0.084-0.485-0.165-0.732-0.238c-0.268-0.078-0.541-0.145-0.815-0.21
	c-0.225-0.054-0.449-0.111-0.678-0.155c-0.326-0.063-0.658-0.108-0.99-0.151c-0.188-0.025-0.373-0.059-0.563-0.077
	c-0.528-0.051-1.063-0.081-1.604-0.081h-20C476.35,173.163,483.286,179.446,484.344,187.576z"/>
<path style="fill:#DEF2FC;" d="M117.466,471.366H46.633c-3.314,0-6-2.686-6-6v-70.833c0-3.314,2.686-6,6-6h70.833
	c3.314,0,6,2.686,6,6v70.833C123.466,468.68,120.78,471.366,117.466,471.366z"/>
<path style="fill:#04A1EE;" d="M92.617,446.517H71.482c-3.314,0-6-2.686-6-6v-21.135c0-3.314,2.686-6,6-6h21.135
	c3.314,0,6,2.686,6,6v21.135C98.617,443.831,95.931,446.517,92.617,446.517z"/>
<path style="fill:#3B4F66;" d="M195.017,280.852h30.134c3.314,0,6-2.686,6-6v-38.417h-36.134V280.852z"/>
<rect x="195.02" y="236.43" style="fill:#2C3B4D;" width="36.14" height="23.568"/>
<polygon style="fill:#DEF2FC;" points="198.017,312.782 198.017,236.434 156.6,236.434 156.6,282.343 "/>
<rect x="156.6" y="236.43" style="fill:#BCCED5;" width="41.42" height="23.568"/>
<path style="fill:#0084CE;" d="M396.816,189.736c18.299,0,33.133-14.834,33.133-33.133s-14.834-33.133-33.133-33.133H384v66.267
	h12.816V189.736z"/>
<path style="fill:#3B4F66;" d="M120.186,202.161H88.051c-3.314,0-6-2.686-6-6V108.76c0-3.314,2.686-6,6-6h32.135
	C120.186,102.76,120.186,202.161,120.186,202.161z"/>
<path style="fill:#2C3B4D;" d="M82.051,176.161v20c0,3.314,2.686,6,6,6h32.135v-20H88.051
	C84.737,182.161,82.051,179.474,82.051,176.161z"/>
<path style="fill:#04A1EE;" d="M363.685,305.701h27.132c3.314,0,6-2.686,6-6V13.503c0-3.314-2.686-6-6-6h-27.132l-11.684,7.789
	L352,297.911L363.685,305.701z"/>
<path style="fill:#0084CE;" d="M390.817,285.686h-27.132L352,277.896v20.015l11.686,7.79h27.132c3.314,0,6-2.686,6-6v-20.015
	C396.817,282.999,394.131,285.686,390.817,285.686z"/>
<path style="fill:#04A1EE;" d="M269.284,239.436H131.753c-9.15,0-16.567-7.418-16.567-16.567V90.336
	c0-9.15,7.418-16.567,16.567-16.567h137.531V239.436z"/>
<path style="fill:#0084CE;" d="M115.186,202.868v20c0,9.15,7.418,16.567,16.567,16.567h137.531v-20H131.753
	C122.604,219.436,115.186,212.018,115.186,202.868z"/>
<polygon style="fill:#DEF2FC;" points="363.685,305.701 264.284,239.436 264.284,73.768 363.685,7.503 "/>
<polygon style="fill:#BCCED5;" points="264.284,239.436 363.685,305.701 363.685,285.701 264.284,219.436 "/>
<path d="M40.633,381.034c-4.143,0-7.5,3.357-7.5,7.5v82.832c0,4.142,3.357,7.5,7.5,7.5h82.833c4.143,0,7.5-3.358,7.5-7.5v-82.832
	c0-4.143-3.357-7.5-7.5-7.5H40.633z M115.966,463.866H48.133v-67.832h67.833V463.866z"/>
<path d="M65.482,454.017h33.135c4.143,0,7.5-3.357,7.5-7.5v-33.135c0-4.143-3.357-7.5-7.5-7.5H65.482c-4.143,0-7.5,3.357-7.5,7.5
	v33.135C57.982,450.66,61.34,454.017,65.482,454.017z M72.982,420.882h18.135v18.135H72.982V420.882z"/>
<path d="M206.299,397.598H156.6c-4.143,0-7.5,3.357-7.5,7.5s3.357,7.5,7.5,7.5h49.699c4.143,0,7.5-3.357,7.5-7.5
	S210.441,397.598,206.299,397.598z"/>
<path d="M206.299,430.734h-49.697c-4.143,0-7.5,3.357-7.5,7.5s3.357,7.5,7.5,7.5h49.697c4.143,0,7.5-3.357,7.5-7.5
	S210.441,430.734,206.299,430.734z"/>
<path d="M231.15,430.734c-4.143,0-7.5,3.357-7.5,7.5s3.357,7.5,7.5,7.5H256c4.143,0,7.5-3.357,7.5-7.5s-3.357-7.5-7.5-7.5H231.15z"
	/>
<path d="M503.759,171.622c-0.133-0.125-0.271-0.242-0.411-0.356c-4.179-3.495-9.555-5.603-15.416-5.603h-51.514
	c0.667-2.915,1.031-5.945,1.031-9.06c0-19.842-14.299-36.397-33.132-39.928V7.502c0-4.143-3.357-7.5-7.5-7.5h-33.133
	c-0.076,0-0.149,0.009-0.224,0.011c-0.095,0.003-0.189,0.008-0.284,0.014c-0.241,0.016-0.478,0.044-0.712,0.082
	c-0.062,0.01-0.124,0.016-0.185,0.028c-0.307,0.058-0.607,0.134-0.9,0.229c-0.032,0.01-0.062,0.024-0.094,0.034
	c-0.264,0.089-0.52,0.194-0.77,0.311c-0.062,0.029-0.124,0.058-0.186,0.089c-0.271,0.136-0.534,0.283-0.785,0.449
	c-0.007,0.004-0.014,0.007-0.02,0.012l-0.012,0.008c-0.012,0.008-0.024,0.016-0.037,0.025l-97.462,64.973h-130.26
	c-13.272,0-24.068,10.797-24.068,24.067v4.924H82.051c-4.143,0-7.5,3.357-7.5,7.5v62.903H24.067c-5.732,0-10.999,2.017-15.137,5.375
	c-0.01,0.008-0.021,0.016-0.031,0.024c-0.072,0.059-0.144,0.117-0.216,0.176c-0.156,0.126-0.309,0.256-0.457,0.395
	C3.19,176.049,0,182.522,0,189.73v298.199c0,13.272,10.797,24.068,24.067,24.068h367.234c4.143,0,7.5-3.357,7.5-7.5
	s-3.357-7.5-7.5-7.5H24.067c-5,0-9.067-4.068-9.067-9.068V189.73c0-0.681,0.082-1.343,0.225-1.982l236.334,173.691
	c1.321,0.972,2.881,1.457,4.441,1.457s3.12-0.485,4.441-1.457l82.443-60.591l16.591,11.061c0.012,0.008,0.024,0.016,0.037,0.025
	l0.012,0.008c0.005,0.004,0.011,0.006,0.017,0.009c0.276,0.183,0.567,0.343,0.867,0.489c0.056,0.027,0.111,0.055,0.167,0.08
	c0.304,0.139,0.616,0.262,0.941,0.36c0.021,0.006,0.042,0.01,0.063,0.016c0.292,0.086,0.592,0.15,0.898,0.199
	c0.075,0.012,0.15,0.024,0.226,0.034c0.322,0.042,0.648,0.072,0.982,0.072h33.133c4.143,0,7.5-3.357,7.5-7.5v-50.002l92.457-67.951
	c0.143,0.639,0.225,1.301,0.225,1.983V487.93c0,5-4.067,9.068-9.067,9.068H421.25c-4.143,0-7.5,3.357-7.5,7.5s3.357,7.5,7.5,7.5
	h66.683c13.271,0,24.067-10.797,24.067-24.068v-298.2C512,182.515,508.804,176.036,503.759,171.622z M422.449,156.603
	c0,11.525-7.646,21.295-18.132,24.511v-49.022C414.803,135.307,422.449,145.078,422.449,156.603z M356.185,291.687l-84.4-56.265
	V77.782l84.4-56.266V291.687z M122.686,90.335c0-5,4.068-9.067,9.068-9.067h125.03v150.668h-58.729
	c-0.013,0-0.026-0.002-0.039-0.002s-0.026,0.002-0.039,0.002h-41.34c-0.013,0-0.026-0.002-0.039-0.002s-0.026,0.002-0.039,0.002
	h-24.807c-5,0-9.068-4.068-9.068-9.068V90.335H122.686z M190.517,246.936v51.026L164.1,278.547v-31.611H190.517z M205.517,246.936
	h18.135v26.416h-18.135V246.936z M89.551,110.259h18.135v84.401H89.551V110.259z M82.051,209.661h25.635v13.207
	c0,13.271,10.797,24.068,24.068,24.068H149.1v20.587l-118.188-86.86h43.639v21.498C74.551,206.303,77.908,209.661,82.051,209.661z
	 M256,346.088l-50.483-37.102v-20.634h25.635c4.143,0,7.5-3.357,7.5-7.5v-33.916h23.362l67.59,45.058L256,346.088z M371.185,298.201
	V15.002h18.133V123.43c0,0.013-0.002,0.026-0.002,0.039s0.002,0.026,0.002,0.039v66.189c0,0.013-0.002,0.026-0.002,0.039
	s0.002,0.026,0.002,0.039v108.426L371.185,298.201L371.185,298.201z M404.317,196.53c10.292-1.93,19.228-7.745,25.217-15.867h51.552
	l-76.769,56.421L404.317,196.53L404.317,196.53z"/>
<g>
</g>
<g>
</g>
<g>
</g>
<g>
</g>
<g>
</g>
<g>
</g>
<g>
</g>
<g>
</g>
<g>
</g>
<g>
</g>
<g>
</g>
<g>
</g>
<g>
</g>
<g>
</g>
<g>
</g>
</svg>
