<?xml version="1.0" encoding="iso-8859-1"?>
<!-- Generator: Adobe Illustrator 19.0.0, SVG Export Plug-In . SVG Version: 6.00 Build 0)  -->
<svg version="1.1" id="Capa_1" xmlns="http://www.w3.org/2000/svg" xmlns:xlink="http://www.w3.org/1999/xlink" x="0px" y="0px"
	 viewBox="0 0 512.001 512.001" style="enable-background:new 0 0 512.001 512.001;" xml:space="preserve">
<path style="fill:#879499;" d="M268.004,327.875l-59.772,58.883c-3.793,3.736-10.211,1.049-10.211-4.274V300h69.982v27.875H268.004z
	"/>
<path style="fill:#DEF2FC;" d="M239.438,305.699l133.409,109.866c3.422,2.818,8.614,1.08,9.648-3.231l94.323-393.014
	c1.16-4.835-3.727-8.903-8.271-6.883L44.689,200.816c-4.751,2.111-4.751,8.854,0,10.966l136.764,60.784L239.438,305.699z"/>
<path style="fill:#BCCED5;" d="M434.419,63.654L239.438,305.7l-31.774,79.824c-2.494,5.486-10.613,4.284-11.41-1.69l-14.8-111.267
	L425.76,55.406C431.263,50.514,439.037,57.92,434.419,63.654z"/>
<path d="M487.112,8.26c0.006-0.058,0.008-0.116,0.012-0.174c0.021-0.267,0.027-0.535,0.02-0.802c-0.002-0.061,0-0.122-0.004-0.183
	c-0.016-0.302-0.051-0.602-0.103-0.899c-0.011-0.063-0.026-0.125-0.038-0.188c-0.053-0.264-0.12-0.525-0.202-0.784
	c-0.014-0.045-0.026-0.09-0.041-0.135c-0.099-0.293-0.217-0.58-0.353-0.861c-0.023-0.047-0.049-0.093-0.073-0.14
	c-0.125-0.245-0.264-0.484-0.417-0.717c-0.028-0.043-0.054-0.086-0.083-0.128c-0.176-0.255-0.368-0.501-0.579-0.737
	c-0.04-0.045-0.084-0.087-0.125-0.131c-0.099-0.105-0.194-0.213-0.299-0.314c-0.091-0.087-0.189-0.164-0.283-0.245
	c-0.033-0.028-0.059-0.061-0.093-0.089c-0.019-0.016-0.041-0.027-0.06-0.043c-0.247-0.202-0.503-0.387-0.768-0.553
	c-0.039-0.024-0.08-0.045-0.12-0.069c-0.238-0.143-0.482-0.27-0.732-0.384c-0.059-0.027-0.116-0.055-0.176-0.081
	c-0.282-0.12-0.569-0.225-0.862-0.309c-0.051-0.015-0.102-0.025-0.154-0.039c-0.251-0.066-0.504-0.119-0.759-0.159
	c-0.075-0.012-0.149-0.025-0.225-0.035c-0.293-0.037-0.587-0.059-0.882-0.061c-0.065,0-0.13,0.004-0.196,0.005
	c-0.251,0.005-0.502,0.022-0.752,0.052c-0.074,0.009-0.147,0.015-0.22,0.026c-0.3,0.044-0.597,0.106-0.891,0.188
	c-0.052,0.014-0.103,0.032-0.155,0.048c-0.27,0.081-0.536,0.178-0.798,0.289c-0.031,0.013-0.064,0.021-0.095,0.035L152.773,144.572
	c-3.785,1.683-5.49,6.114-3.808,9.9c1.682,3.784,6.114,5.489,9.899,3.808L438.61,33.949L180.083,263.751L50.819,206.3l78.097-34.71
	c3.785-1.683,5.49-6.114,3.808-9.899c-1.682-3.784-6.115-5.489-9.899-3.808l-93.518,41.563c-2.708,1.204-4.454,3.89-4.454,6.854
	s1.746,5.649,4.454,6.854l145.267,64.563l16.013,120.093c0.005,0.034,0.017,0.065,0.022,0.1c0.053,0.362,0.128,0.722,0.234,1.075
	c0.011,0.036,0.025,0.071,0.036,0.106c0.106,0.336,0.237,0.665,0.392,0.985c0.015,0.031,0.027,0.064,0.043,0.095
	c0.158,0.316,0.344,0.621,0.55,0.918c0.04,0.058,0.081,0.114,0.123,0.17c0.21,0.285,0.434,0.562,0.689,0.821
	c0.257,0.261,0.533,0.491,0.817,0.707c0.056,0.043,0.112,0.086,0.17,0.126c0.295,0.211,0.599,0.402,0.914,0.566
	c0.026,0.013,0.053,0.024,0.079,0.037c0.319,0.16,0.647,0.295,0.981,0.407c0.041,0.014,0.08,0.03,0.122,0.043
	c0.351,0.111,0.708,0.191,1.069,0.25c0.032,0.005,0.062,0.017,0.095,0.022c0.039,0.006,0.076,0.003,0.115,0.009
	c0.327,0.043,0.655,0.073,0.984,0.073c0.001,0,0.001,0,0.002,0h0.001c0.002,0,0.004-0.001,0.005-0.001
	c0.319,0,0.637-0.028,0.953-0.069c0.076-0.01,0.152-0.02,0.227-0.032c0.629-0.101,1.247-0.282,1.839-0.544
	c0.058-0.026,0.115-0.052,0.173-0.079c0.279-0.132,0.553-0.277,0.817-0.445c0.01-0.007,0.021-0.012,0.032-0.019
	c0.265-0.17,0.52-0.363,0.766-0.571c0.064-0.054,0.125-0.111,0.188-0.167c0.086-0.077,0.175-0.148,0.258-0.229l64.447-63.448
	l107.758,88.742c1.362,1.122,3.053,1.711,4.769,1.711c0.798,0,1.602-0.128,2.381-0.389c2.452-0.82,4.308-2.847,4.911-5.361
	L486.948,9.249c0.005-0.02,0.005-0.04,0.01-0.059C487.029,8.882,487.081,8.572,487.112,8.26z M417.269,72.988L233.596,300.994
	c-0.035,0.043-0.063,0.092-0.097,0.137c-0.139,0.18-0.27,0.363-0.39,0.552c-0.046,0.073-0.088,0.147-0.132,0.221
	c-0.111,0.188-0.213,0.379-0.306,0.574c-0.019,0.04-0.044,0.077-0.062,0.117l-30.607,67.337l-12.588-94.408L417.269,72.988z
	 M221.59,363.089l20.628-45.383l13.869,11.421L221.59,363.089z M375.762,408.25L249.932,304.626l214.65-266.46L375.762,408.25z"/>
<path d="M242.419,399.795l-66.264,66.265c-2.929,2.93-2.929,7.678,0,10.607c1.464,1.464,3.384,2.196,5.303,2.196
	c1.919,0,3.839-0.732,5.303-2.197l66.264-66.265c2.929-2.93,2.929-7.678,0-10.607C250.097,396.866,245.348,396.865,242.419,399.795z
	"/>
<path d="M143.015,317.478l-65.748,65.749c-2.929,2.93-2.929,7.678,0,10.607c1.464,1.464,3.384,2.196,5.303,2.196
	c1.919,0,3.839-0.733,5.303-2.196l65.748-65.749c2.929-2.93,2.929-7.678,0-10.607C150.693,314.55,145.944,314.55,143.015,317.478z"
	/>
<path d="M143.015,399.796l-99.399,99.402c-2.929,2.93-2.929,7.678,0,10.607c1.464,1.464,3.384,2.196,5.303,2.196
	s3.839-0.732,5.303-2.197l99.399-99.401c2.929-2.93,2.929-7.678,0-10.607C150.693,396.868,145.944,396.868,143.015,399.796z"/>
<g>
</g>
<g>
</g>
<g>
</g>
<g>
</g>
<g>
</g>
<g>
</g>
<g>
</g>
<g>
</g>
<g>
</g>
<g>
</g>
<g>
</g>
<g>
</g>
<g>
</g>
<g>
</g>
<g>
</g>
</svg>
