<?xml version="1.0" encoding="iso-8859-1"?>
<!-- Generator: Adobe Illustrator 19.0.0, SVG Export Plug-In . SVG Version: 6.00 Build 0)  -->
<svg version="1.1" id="Capa_1" xmlns="http://www.w3.org/2000/svg" xmlns:xlink="http://www.w3.org/1999/xlink" x="0px" y="0px"
	 viewBox="0 0 512.001 512.001" style="enable-background:new 0 0 512.001 512.001;" xml:space="preserve">
<path style="fill:#007BBF;" d="M503.84,350.759l-49.605-165.323l0.001,0.002c-1.893-7.066-8.341-12.269-16.004-12.269h-41.413
	H115.184H73.768c-7.663,0-14.112,5.203-16.005,12.269l0.001-0.002L8.159,350.759v18.075h495.68v-18.075H503.84z"/>
<polygon style="fill:#006AA6;" points="465.668,338.833 425.902,206.301 86.096,206.301 46.33,338.833 46.33,386.668 
	465.668,386.668 "/>
<path style="fill:#DEF2FC;" d="M115.184,378.833v-332.2c0-3.314,2.686-6,6-6h269.634c3.314,0,6,2.686,6,6v332.2H115.184z"/>
<path style="fill:#BCCED5;" d="M390.818,40.633h-20c3.314,0,6,2.686,6,6v332.2h20v-332.2
	C396.818,43.32,394.131,40.633,390.818,40.633z"/>
<path style="fill:#04A1EE;" d="M363.684,299.7V79.767c0-3.314-2.686-6-6-6H154.317c-3.314,0-6,2.686-6,6V299.7c0,3.314,2.686,6,6,6
	h203.367C360.998,305.7,363.684,303.014,363.684,299.7z"/>
<circle style="fill:#FCB043;" cx="206.3" cy="131.751" r="24.85"/>
<path style="fill:#54CC4E;" d="M363.684,189.736l-28.891-28.891c-2.343-2.343-6.142-2.343-8.485,0l-70.307,70.306l-37.173-37.173
	c-2.343-2.343-6.142-2.343-8.485,0l-62.025,62.024V299.7c0,3.314,2.686,6,6,6h203.367c3.314,0,6-2.686,6-6L363.684,189.736z"/>
<path style="fill:#04A1EE;" d="M358.401,338.833h129.531c9.15,0,16.568,7.418,16.568,16.567v99.396
	c0,9.15-7.418,16.567-16.568,16.567H24.067c-9.15,0-16.567-7.417-16.567-16.567v-99.395c0-9.15,7.417-16.567,16.567-16.567h129.532
	c1.889,0,3.667,0.889,4.8,2.4l21.251,28.335c1.133,1.511,2.911,2.4,4.8,2.4h143.1c1.888,0,3.667-0.889,4.8-2.4l21.251-28.335
	C354.734,339.722,356.513,338.833,358.401,338.833z"/>
<g>
	<path style="fill:#0084CE;" d="M138.399,341.233l21.251,28.335c1.133,1.511,2.911,2.4,4.8,2.4h20c-1.889,0-3.667-0.889-4.8-2.4
		l-21.251-28.335c-1.133-1.511-2.911-2.4-4.8-2.4h-20C135.488,338.833,137.266,339.722,138.399,341.233z"/>
	<path style="fill:#0084CE;" d="M487.932,338.833h-20c9.15,0,16.568,7.418,16.568,16.567v99.396c0,9.15-7.418,16.567-16.568,16.567
		h20c9.15,0,16.568-7.417,16.568-16.567v-99.395C504.5,346.251,497.082,338.833,487.932,338.833z"/>
</g>
<g>
	<path style="fill:#DEF2FC;" d="M82.05,471.369v-43.701c0-3.314-2.686-6-6-6H54.917c-3.314,0-6,2.686-6,6v43.701H82.05z"/>
	<path style="fill:#DEF2FC;" d="M429.95,471.369v-43.701c0-3.314,2.686-6,6-6h21.134c3.314,0,6,2.686,6,6v43.701H429.95z"/>
</g>
<path d="M396.034,438.231c0-4.143-3.358-7.5-7.5-7.5H123.466c-4.142,0-7.5,3.357-7.5,7.5c0,4.142,3.358,7.5,7.5,7.5h265.067
	C392.676,445.731,396.034,442.374,396.034,438.231z"/>
<path d="M363.684,66.267H148.317c-4.142,0-7.5,3.357-7.5,7.5V256v0.005v49.696c0,4.143,3.358,7.5,7.5,7.5h215.367
	c4.142,0,7.5-3.357,7.5-7.5V73.767C371.184,69.624,367.826,66.267,363.684,66.267z M356.184,81.267v90.363l-20.331-20.331
	c-1.406-1.406-3.314-2.196-5.303-2.196s-3.897,0.79-5.303,2.196l-69.246,69.246l-36.113-36.113c-2.928-2.928-7.677-2.928-10.606,0
	l-53.464,53.464V81.267H356.184z M155.817,298.2v-39.091l58.768-58.767l36.11,36.111c0.001,0.001,0.002,0.002,0.003,0.003
	s0.002,0.001,0.002,0.001l41.415,41.415c1.464,1.464,3.384,2.196,5.303,2.196s3.839-0.732,5.303-2.196
	c2.929-2.93,2.929-7.678,0-10.607l-36.113-36.113l63.942-63.942l25.634,25.635v105.356H155.817V298.2z"/>
<path d="M206.302,164.1c17.838,0,32.351-14.513,32.351-32.351s-14.512-32.351-32.351-32.351c-17.838,0-32.35,14.513-32.35,32.351
	S188.464,164.1,206.302,164.1z M206.302,114.398c9.567,0,17.351,7.783,17.351,17.351c0,9.567-7.783,17.351-17.351,17.351
	c-9.567,0-17.35-7.783-17.35-17.351C188.952,122.182,196.735,114.398,206.302,114.398z"/>
<path d="M511.068,348.786c-0.017-0.061-0.027-0.122-0.045-0.182l-49.577-165.229c-2.853-10.433-12.381-17.707-23.216-17.707h-33.913
	V40.633c0-4.143-3.358-7.5-7.5-7.5H115.184c-4.142,0-7.5,3.357-7.5,7.5v125.035H73.768c-10.835,0-20.363,7.274-23.216,17.707
	L0.976,348.604c-0.021,0.069-0.032,0.138-0.051,0.208C0.327,350.907,0,353.116,0,355.4v99.396c0,13.271,10.796,24.067,24.067,24.067
	H48.82c0.033,0,0.064,0.005,0.097,0.005s0.064-0.004,0.097-0.005h32.94c0.033,0,0.064,0.005,0.097,0.005s0.064-0.004,0.097-0.005
	h41.319c4.142,0,7.5-3.357,7.5-7.5s-3.358-7.5-7.5-7.5H89.55v-42.196c0-4.143-3.358-7.5-7.5-7.5H48.917c-4.142,0-7.5,3.357-7.5,7.5
	v42.196h-17.35c-5,0-9.067-4.067-9.067-9.067V355.4c0-5,4.067-9.067,9.067-9.067h128.782l22.601,30.135c1.417,1.889,3.639,3,6,3
	h149.1c2.361,0,4.584-1.111,6-3l22.602-30.135h128.781c5,0,9.067,4.067,9.067,9.067v99.396c0,5-4.067,9.067-9.067,9.067h-17.35
	v-42.196c0-4.143-3.358-7.5-7.5-7.5H429.95c-4.142,0-7.5,3.357-7.5,7.5v42.196H153.414c-4.142,0-7.5,3.357-7.5,7.5
	s3.358,7.5,7.5,7.5h276.439c0.033,0,0.064,0.005,0.097,0.005s0.064-0.004,0.097-0.005h32.94c0.033,0,0.064,0.005,0.097,0.005
	s0.064-0.004,0.097-0.005h24.753c13.271,0,24.067-10.797,24.067-24.067V355.4C512,353.106,511.67,350.889,511.068,348.786z
	 M56.417,429.168H74.55v34.696H56.417V429.168z M437.45,429.168h18.133v34.696H437.45V429.168z M420.322,213.801l35.265,117.532
	h-51.27V213.801H420.322z M107.684,213.801v117.532H56.411l35.265-117.532H107.684z M21.785,331.444l43.147-143.801
	c0.027-0.088,0.052-0.176,0.076-0.266c1.058-3.95,4.661-6.71,8.76-6.71h33.916v18.134H73.767c-4.142,0-7.5,3.357-7.5,7.5
	s3.358,7.5,7.5,7.5h2.249L40.75,331.333H24.067C23.297,331.333,22.537,331.373,21.785,331.444z M355.401,331.333
	c-2.361,0-4.583,1.111-6,3L326.8,364.468H185.2l-22.601-30.135c-1.417-1.889-3.639-3-6-3h-33.915v-283.2h266.634v158.158v0.01v0.01
	v125.022L355.401,331.333L355.401,331.333z M471.248,331.333l-35.265-117.532h2.249c4.142,0,7.5-3.357,7.5-7.5s-3.358-7.5-7.5-7.5
	h-33.914v-18.133h33.913c4.099,0,7.701,2.76,8.76,6.71c0.024,0.09,0.049,0.179,0.077,0.266l43.147,143.801
	c-0.752-0.071-1.512-0.111-2.282-0.111h-16.685V331.333z"/>
<g>
</g>
<g>
</g>
<g>
</g>
<g>
</g>
<g>
</g>
<g>
</g>
<g>
</g>
<g>
</g>
<g>
</g>
<g>
</g>
<g>
</g>
<g>
</g>
<g>
</g>
<g>
</g>
<g>
</g>
</svg>
