<?xml version="1.0" encoding="iso-8859-1"?>
<!-- Generator: Adobe Illustrator 19.0.0, SVG Export Plug-In . SVG Version: 6.00 Build 0)  -->
<svg version="1.1" id="Capa_1" xmlns="http://www.w3.org/2000/svg" xmlns:xlink="http://www.w3.org/1999/xlink" x="0px" y="0px"
	 viewBox="0 0 512 512" style="enable-background:new 0 0 512 512;" xml:space="preserve">
<path style="fill:#007BBF;" d="M503.84,350.758l-49.605-165.323l0.001,0.002c-1.893-7.066-8.341-12.269-16.005-12.269h-41.413
	H115.184H73.768c-7.663,0-14.111,5.203-16.005,12.269l0.001-0.002L8.159,350.758v18.075H503.84V350.758z"/>
<polygon style="fill:#006AA6;" points="465.668,338.832 425.902,206.3 86.096,206.3 46.33,338.832 46.33,386.667 465.668,386.667 
	"/>
<path style="fill:#DEF2FC;" d="M115.184,378.832v-332.2c0-3.314,2.686-6,6-6h269.634c3.314,0,6,2.686,6,6v332.2H115.184z"/>
<path style="fill:#BCCED5;" d="M390.818,40.632h-20c3.314,0,6,2.686,6,6v332.2h20v-332.2
	C396.818,43.319,394.131,40.632,390.818,40.632z"/>
<g>
	<circle style="fill:#3B4F66;" cx="198.02" cy="247.72" r="24.85"/>
	<circle style="fill:#3B4F66;" cx="313.98" cy="231.15" r="24.85"/>
	<polygon style="fill:#3B4F66;" points="222.867,123.467 222.867,150 337,131.751 337,106.9 	"/>
</g>
<path style="fill:#04A1EE;" d="M358.401,338.832h129.531c9.15,0,16.568,7.418,16.568,16.567v99.396
	c0,9.15-7.418,16.567-16.568,16.567H24.067c-9.15,0-16.567-7.417-16.567-16.567V355.4c0-9.15,7.417-16.567,16.567-16.567h129.532
	c1.889,0,3.667,0.889,4.8,2.4l21.251,28.335c1.133,1.511,2.911,2.4,4.8,2.4h143.1c1.889,0,3.667-0.889,4.8-2.4l21.251-28.335
	C354.734,339.721,356.513,338.832,358.401,338.832z"/>
<g>
	<path style="fill:#0084CE;" d="M138.399,341.232l21.251,28.335c1.133,1.511,2.911,2.4,4.8,2.4h20c-1.889,0-3.667-0.889-4.8-2.4
		l-21.251-28.335c-1.133-1.511-2.911-2.4-4.8-2.4h-20C135.488,338.832,137.266,339.721,138.399,341.232z"/>
	<path style="fill:#0084CE;" d="M487.932,338.832h-20c9.15,0,16.568,7.418,16.568,16.567v99.396c0,9.15-7.418,16.567-16.568,16.567
		h20c9.15,0,16.568-7.417,16.568-16.567V355.4C504.5,346.25,497.082,338.832,487.932,338.832z"/>
</g>
<g>
	<path style="fill:#DEF2FC;" d="M82.05,471.368v-43.701c0-3.314-2.686-6-6-6H54.917c-3.314,0-6,2.686-6,6v43.701H82.05z"/>
	<path style="fill:#DEF2FC;" d="M429.95,471.368v-43.701c0-3.314,2.686-6,6-6h21.134c3.314,0,6,2.686,6,6v43.701H429.95z"/>
</g>
<path d="M396.034,438.23c0-4.143-3.357-7.5-7.5-7.5H123.466c-4.142,0-7.5,3.357-7.5,7.5c0,4.142,3.358,7.5,7.5,7.5h265.068
	C392.677,445.73,396.034,442.373,396.034,438.23z"/>
<path d="M346.307,106.367c-0.009-0.132-0.02-0.263-0.036-0.393c-0.006-0.045-0.006-0.089-0.012-0.134
	c-0.009-0.066-0.027-0.128-0.038-0.193c-0.025-0.146-0.052-0.292-0.085-0.436c-0.023-0.1-0.049-0.199-0.076-0.297
	c-0.039-0.142-0.081-0.283-0.128-0.422c-0.033-0.097-0.069-0.193-0.106-0.289c-0.052-0.134-0.106-0.266-0.165-0.396
	c-0.043-0.094-0.088-0.186-0.134-0.278c-0.064-0.127-0.131-0.252-0.202-0.375c-0.049-0.085-0.101-0.169-0.153-0.252
	c-0.079-0.126-0.161-0.248-0.248-0.368c-0.051-0.071-0.103-0.141-0.157-0.21c-0.098-0.127-0.2-0.251-0.306-0.372
	c-0.048-0.054-0.096-0.107-0.145-0.159c-0.121-0.13-0.246-0.255-0.376-0.377c-0.039-0.036-0.078-0.072-0.117-0.107
	c-0.146-0.131-0.297-0.255-0.453-0.374c-0.028-0.021-0.056-0.042-0.084-0.063c-0.169-0.126-0.344-0.243-0.524-0.354
	c-0.02-0.012-0.04-0.025-0.06-0.037c-0.186-0.112-0.378-0.217-0.574-0.313c-0.019-0.01-0.039-0.019-0.059-0.028
	c-0.194-0.093-0.392-0.178-0.595-0.255c-0.029-0.011-0.058-0.021-0.087-0.031c-0.191-0.07-0.385-0.131-0.583-0.185
	c-0.048-0.013-0.097-0.025-0.145-0.037c-0.179-0.045-0.36-0.084-0.544-0.116c-0.073-0.013-0.147-0.023-0.22-0.034
	c-0.163-0.023-0.326-0.043-0.492-0.055c-0.096-0.008-0.193-0.011-0.29-0.015c-0.093-0.003-0.184-0.014-0.278-0.014
	c-0.06,0-0.118,0.008-0.178,0.009c-0.102,0.002-0.205,0.009-0.307,0.015c-0.154,0.01-0.307,0.022-0.459,0.041
	c-0.039,0.005-0.078,0.005-0.117,0.01l-115.967,16.564c-0.083,0.012-0.162,0.033-0.244,0.047c-0.116,0.021-0.232,0.042-0.347,0.068
	c-0.131,0.03-0.26,0.064-0.389,0.1c-0.109,0.031-0.217,0.062-0.324,0.098c-0.133,0.044-0.264,0.093-0.393,0.144
	c-0.095,0.038-0.19,0.076-0.283,0.118c-0.135,0.06-0.267,0.124-0.398,0.192c-0.082,0.043-0.164,0.086-0.245,0.131
	c-0.133,0.075-0.263,0.155-0.391,0.238c-0.074,0.048-0.146,0.096-0.218,0.147c-0.126,0.088-0.247,0.179-0.367,0.274
	c-0.07,0.056-0.139,0.112-0.207,0.17c-0.113,0.096-0.222,0.196-0.328,0.298c-0.069,0.066-0.137,0.134-0.204,0.203
	c-0.096,0.1-0.19,0.203-0.28,0.309c-0.069,0.08-0.136,0.161-0.202,0.244c-0.08,0.102-0.157,0.205-0.232,0.311
	c-0.067,0.093-0.131,0.188-0.193,0.285c-0.066,0.103-0.129,0.207-0.19,0.313c-0.06,0.104-0.118,0.209-0.173,0.316
	c-0.055,0.107-0.107,0.216-0.157,0.326c-0.05,0.109-0.097,0.22-0.142,0.332c-0.046,0.117-0.089,0.234-0.129,0.353
	c-0.037,0.109-0.072,0.218-0.104,0.328c-0.037,0.129-0.07,0.26-0.101,0.392c-0.024,0.104-0.047,0.209-0.067,0.315
	c-0.026,0.142-0.047,0.285-0.066,0.429c-0.013,0.102-0.025,0.204-0.034,0.307c-0.012,0.147-0.019,0.295-0.022,0.445
	c-0.002,0.065-0.01,0.129-0.01,0.195v96.966c-5.018-3.203-10.969-5.068-17.351-5.068c-17.838,0-32.35,14.513-32.35,32.351
	c0,17.838,14.512,32.351,32.35,32.351s32.351-14.513,32.351-32.351V154.82l100.967-14.423v63.47
	c-5.018-3.203-10.969-5.068-17.351-5.068c-17.838,0-32.351,14.513-32.351,32.351s14.513,32.351,32.351,32.351
	s32.351-14.513,32.351-32.351v-0.001v-0.001V106.9c0-0.044-0.006-0.087-0.007-0.131
	C346.325,106.636,346.317,106.502,346.307,106.367z M198.017,265.067c-9.567,0-17.35-7.783-17.35-17.351
	c0-9.567,7.783-17.351,17.35-17.351s17.351,7.783,17.351,17.351C215.367,257.284,207.584,265.067,198.017,265.067z M230.367,139.669
	v-9.698l100.967-14.422v9.697L230.367,139.669z M313.983,248.502c-9.567,0-17.351-7.783-17.351-17.351s7.783-17.351,17.351-17.351
	s17.351,7.783,17.351,17.351S323.551,248.502,313.983,248.502z"/>
<path d="M511.069,348.786c-0.017-0.061-0.027-0.122-0.045-0.183l-49.571-165.21c-2.847-10.441-12.38-17.726-23.222-17.726h-33.913
	V40.632c0-4.143-3.357-7.5-7.5-7.5H115.184c-4.142,0-7.5,3.357-7.5,7.5v125.035H73.768c-10.834,0-20.363,7.274-23.216,17.707
	L0.976,348.603c-0.021,0.069-0.032,0.138-0.051,0.208C0.327,350.906,0,353.115,0,355.399v99.396
	c0,13.271,10.796,24.067,24.067,24.067H48.82c0.032,0,0.064,0.005,0.097,0.005s0.064-0.004,0.097-0.005h32.94
	c0.032,0,0.064,0.005,0.097,0.005s0.064-0.004,0.097-0.005h41.319c4.142,0,7.5-3.357,7.5-7.5s-3.358-7.5-7.5-7.5H89.55v-42.196
	c0-4.143-3.358-7.5-7.5-7.5H48.917c-4.142,0-7.5,3.357-7.5,7.5v42.196h-17.35c-5,0-9.067-4.067-9.067-9.067v-99.396
	c0-5,4.067-9.067,9.067-9.067h128.782l22.601,30.135c1.417,1.889,3.639,3,6,3h149.1c2.36,0,4.584-1.111,6-3l22.602-30.135h128.781
	c5,0,9.067,4.067,9.067,9.067v99.396c0,5-4.067,9.067-9.067,9.067h-17.35v-42.196c0-4.143-3.357-7.5-7.5-7.5h-33.134
	c-4.143,0-7.5,3.357-7.5,7.5v42.196H153.414c-4.142,0-7.5,3.357-7.5,7.5s3.358,7.5,7.5,7.5h276.438c0.033,0,0.064,0.005,0.097,0.005
	s0.064-0.004,0.097-0.005h32.94c0.033,0,0.064,0.005,0.097,0.005s0.064-0.004,0.097-0.005h24.753
	c13.271,0,24.067-10.797,24.067-24.067v-99.396C512,353.106,511.671,350.889,511.069,348.786z M56.417,429.167H74.55v34.696H56.417
	V429.167z M437.449,429.167h18.134v34.696h-18.134V429.167z M420.322,213.8l35.265,117.532h-51.27V213.8H420.322z M107.684,213.8
	v117.532H56.411L91.676,213.8H107.684z M21.785,331.443l43.147-143.801c0.027-0.088,0.052-0.176,0.076-0.266
	c1.058-3.95,4.661-6.71,8.76-6.71h33.916V198.8H73.767c-4.142,0-7.5,3.357-7.5,7.5s3.358,7.5,7.5,7.5h2.249L40.75,331.332H24.067
	C23.297,331.332,22.537,331.372,21.785,331.443z M355.401,331.332c-2.36,0-4.584,1.111-6,3L326.8,364.467H185.2l-22.601-30.135
	c-1.417-1.889-3.639-3-6-3h-33.915v-283.2h266.633v283.2H355.401z M471.248,331.332L435.983,213.8h2.249c4.143,0,7.5-3.357,7.5-7.5
	s-3.357-7.5-7.5-7.5h-33.915v-18.133h33.913c4.077,0,7.663,2.729,8.743,6.645c0.023,0.093,0.05,0.186,0.077,0.277l43.163,143.853
	c-0.752-0.071-1.512-0.111-2.282-0.111L471.248,331.332L471.248,331.332z"/>
<g>
</g>
<g>
</g>
<g>
</g>
<g>
</g>
<g>
</g>
<g>
</g>
<g>
</g>
<g>
</g>
<g>
</g>
<g>
</g>
<g>
</g>
<g>
</g>
<g>
</g>
<g>
</g>
<g>
</g>
</svg>
