<?xml version="1.0" encoding="iso-8859-1"?>
<!-- Generator: Adobe Illustrator 19.0.0, SVG Export Plug-In . SVG Version: 6.00 Build 0)  -->
<svg version="1.1" id="Capa_1" xmlns="http://www.w3.org/2000/svg" xmlns:xlink="http://www.w3.org/1999/xlink" x="0px" y="0px"
	 viewBox="0 0 512 512" style="enable-background:new 0 0 512 512;" xml:space="preserve">
<path style="fill:#007BBF;" d="M503.84,350.758l-49.605-165.323l0.001,0.002c-1.893-7.066-8.341-12.269-16.005-12.269h-41.413
	H115.184H73.768c-7.663,0-14.111,5.203-16.004,12.269l0.001-0.002L8.159,350.758v18.075H503.84V350.758z"/>
<polygon style="fill:#006AA6;" points="465.668,338.832 425.902,206.3 86.096,206.3 46.33,338.832 46.33,386.667 465.668,386.667 
	"/>
<path style="fill:#DEF2FC;" d="M115.184,378.832v-332.2c0-3.314,2.686-6,6-6h269.634c3.314,0,6,2.686,6,6v332.2H115.184z"/>
<path style="fill:#BCCED5;" d="M390.818,40.632h-20c3.314,0,6,2.686,6,6v332.2h20v-332.2
	C396.818,43.319,394.131,40.632,390.818,40.632z"/>
<path style="fill:#E94141;" d="M342.575,169.225l-32.332,16.165c-3.989,1.995-8.683-0.906-8.683-5.367v-15.139
	c0-9.15-7.417-16.567-16.567-16.567H177.309c-9.15,0-16.567,7.417-16.567,16.567v82.832c0,9.15,7.417,16.567,16.567,16.567h107.682
	c9.15,0,16.568-7.418,16.568-16.568v-15.141c0-4.46,4.694-7.361,8.683-5.367l32.332,16.166c3.99,1.995,8.683-0.906,8.683-5.367
	v-63.417C351.258,170.132,346.564,167.231,342.575,169.225z"/>
<path style="fill:#04A1EE;" d="M358.401,338.832h129.531c9.15,0,16.568,7.418,16.568,16.567v99.396
	c0,9.15-7.418,16.567-16.568,16.567H24.067c-9.15,0-16.567-7.417-16.567-16.567V355.4c0-9.15,7.417-16.567,16.567-16.567h129.532
	c1.889,0,3.667,0.889,4.8,2.4l21.251,28.335c1.133,1.511,2.911,2.4,4.8,2.4h143.1c1.889,0,3.667-0.889,4.8-2.4l21.251-28.335
	C354.734,339.721,356.513,338.832,358.401,338.832z"/>
<g>
	<path style="fill:#0084CE;" d="M138.399,341.232l21.251,28.335c1.133,1.511,2.911,2.4,4.8,2.4h20c-1.889,0-3.667-0.889-4.8-2.4
		l-21.251-28.335c-1.133-1.511-2.911-2.4-4.8-2.4h-20C135.488,338.832,137.266,339.721,138.399,341.232z"/>
	<path style="fill:#0084CE;" d="M487.932,338.832h-20c9.15,0,16.568,7.418,16.568,16.567v99.396c0,9.15-7.418,16.567-16.568,16.567
		h20c9.15,0,16.568-7.417,16.568-16.567V355.4C504.5,346.25,497.082,338.832,487.932,338.832z"/>
</g>
<g>
	<path style="fill:#DEF2FC;" d="M82.05,471.368v-43.701c0-3.314-2.686-6-6-6H54.917c-3.314,0-6,2.686-6,6v43.701H82.05z"/>
	<path style="fill:#DEF2FC;" d="M429.95,471.368v-43.701c0-3.314,2.686-6,6-6h21.134c3.314,0,6,2.686,6,6v43.701H429.95z"/>
</g>
<path d="M396.034,438.23c0-4.143-3.357-7.5-7.5-7.5H123.466c-4.143,0-7.5,3.357-7.5,7.5c0,4.142,3.357,7.5,7.5,7.5h265.068
	C392.677,445.73,396.034,442.373,396.034,438.23z"/>
<path d="M177.31,271.784h107.683c13.271,0,24.067-10.797,24.067-24.067v-12.714l38.844,19.422c2.324,1.161,5.085,1.037,7.298-0.328
	c2.211-1.366,3.557-3.78,3.557-6.38v-82.833c0-2.6-1.346-5.014-3.557-6.38c-2.213-1.366-4.975-1.491-7.297-0.328l-38.845,19.421
	v-12.712c0-13.27-10.797-24.067-24.067-24.067H177.31c-13.271,0-24.067,10.797-24.067,24.067v82.832
	C153.242,260.987,164.039,271.784,177.31,271.784z M168.242,164.885c0-5,4.067-9.067,9.067-9.067h107.683
	c5,0,9.067,4.067,9.067,9.067v24.847c0,2.6,1.346,5.014,3.557,6.38c2.213,1.366,4.974,1.491,7.297,0.328l38.845-19.421v58.563
	l-38.844-19.422c-2.325-1.163-5.085-1.039-7.298,0.328c-2.211,1.366-3.557,3.78-3.557,6.38v24.85c0,5-4.067,9.067-9.067,9.067
	H177.31c-5,0-9.067-4.067-9.067-9.067L168.242,164.885L168.242,164.885z"/>
<path d="M511.069,348.786c-0.017-0.061-0.027-0.122-0.045-0.183l-49.571-165.21c-2.847-10.441-12.38-17.726-23.222-17.726h-33.913
	V40.632c0-4.143-3.357-7.5-7.5-7.5H115.184c-4.143,0-7.5,3.357-7.5,7.5v125.035H73.769c-10.842,0-20.375,7.284-23.222,17.726
	L0.976,348.603c-0.021,0.069-0.033,0.139-0.051,0.208C0.327,350.906,0,353.115,0,355.399v99.396
	c0,13.271,10.797,24.067,24.067,24.067H48.82c0.032,0,0.064,0.005,0.097,0.005s0.064-0.004,0.097-0.005h32.94
	c0.033,0,0.064,0.005,0.097,0.005s0.064-0.004,0.097-0.005h41.318c4.143,0,7.5-3.357,7.5-7.5s-3.357-7.5-7.5-7.5H89.551v-42.196
	c0-4.143-3.357-7.5-7.5-7.5H48.917c-4.143,0-7.5,3.357-7.5,7.5v42.196h-17.35c-5,0-9.067-4.067-9.067-9.067v-99.396
	c0-5,4.067-9.067,9.067-9.067H152.85l22.601,30.135c1.416,1.889,3.64,3,6,3h149.1c2.36,0,4.584-1.111,6-3l22.602-30.135h128.781
	c5,0,9.067,4.067,9.067,9.067v99.396c0,5-4.067,9.067-9.067,9.067h-17.35v-42.196c0-4.143-3.357-7.5-7.5-7.5H429.95
	c-4.143,0-7.5,3.357-7.5,7.5v42.196H153.414c-4.143,0-7.5,3.357-7.5,7.5s3.357,7.5,7.5,7.5h276.438c0.033,0,0.064,0.005,0.097,0.005
	s0.064-0.004,0.097-0.005h32.94c0.033,0,0.064,0.005,0.097,0.005s0.064-0.004,0.097-0.005h24.753
	c13.271,0,24.067-10.797,24.067-24.067v-99.396C512,353.106,511.671,350.889,511.069,348.786z M56.417,429.167h18.134v34.696H56.417
	V429.167z M107.684,331.332H56.411L91.676,213.8h16.007L107.684,331.332L107.684,331.332z M107.684,198.8H73.767
	c-4.143,0-7.5,3.357-7.5,7.5s3.357,7.5,7.5,7.5h2.249L40.75,331.332H24.067c-0.77,0-1.531,0.04-2.282,0.111L64.948,187.59
	c0.027-0.092,0.054-0.184,0.077-0.277c1.08-3.916,4.666-6.645,8.743-6.645h33.915L107.684,198.8L107.684,198.8z M389.317,331.332
	h-33.916c-2.36,0-4.584,1.111-6,3L326.8,364.467H185.2l-22.6-30.135c-1.416-1.889-3.64-3-6-3h-33.916v-283.2h266.634v283.2H389.317z
	 M404.317,331.332V213.8h16.005l35.265,117.532H404.317z M487.933,331.332h-16.685L435.983,213.8h2.249c4.143,0,7.5-3.357,7.5-7.5
	s-3.357-7.5-7.5-7.5h-33.915v-18.133h33.913c4.077,0,7.663,2.729,8.743,6.645c0.023,0.093,0.05,0.186,0.077,0.277l43.163,143.853
	C489.463,331.372,488.702,331.332,487.933,331.332z M455.583,463.863h-18.134v-34.696h18.134V463.863z"/>
<g>
</g>
<g>
</g>
<g>
</g>
<g>
</g>
<g>
</g>
<g>
</g>
<g>
</g>
<g>
</g>
<g>
</g>
<g>
</g>
<g>
</g>
<g>
</g>
<g>
</g>
<g>
</g>
<g>
</g>
</svg>
