<?xml version="1.0" encoding="iso-8859-1"?>
<!-- Generator: Adobe Illustrator 19.0.0, SVG Export Plug-In . SVG Version: 6.00 Build 0)  -->
<svg version="1.1" id="Capa_1" xmlns="http://www.w3.org/2000/svg" xmlns:xlink="http://www.w3.org/1999/xlink" x="0px" y="0px"
	 viewBox="0 0 512 512" style="enable-background:new 0 0 512 512;" xml:space="preserve">
<path style="fill:#DEF2FC;" d="M156.598,504.5c0-9.15,7.417-16.567,16.567-16.567c9.15,0,16.567,7.417,16.567,16.567h33.133
	c0-9.15,7.417-16.567,16.567-16.567c9.15,0,16.567,7.417,16.567,16.567h33.133c0-9.15,7.417-16.567,16.567-16.567
	s16.567,7.417,16.567,16.567h33.133c0-9.15,7.417-16.567,16.567-16.567s16.567,7.417,16.567,16.567h33.133
	c0-9.15,7.417-16.567,16.567-16.567s16.567,7.417,16.567,16.567h27.134c3.314,0,6-2.686,6-6v-27.122h-0.006
	c-7.146,0-13.668-4.51-15.762-11.341c-3.487-11.373,4.924-21.792,15.767-21.792h0.001V405.11h-0.006
	c-7.146,0-13.668-4.51-15.762-11.341c-3.487-11.374,4.924-21.792,15.767-21.792h0.001v-33.135h-0.006
	c-7.146,0-13.668-4.51-15.762-11.341c-3.487-11.374,4.924-21.793,15.767-21.793h0.001v-33.135h-0.006
	c-7.145,0-13.668-4.51-15.763-11.341c-3.487-11.374,4.923-21.793,15.767-21.793h0.001v-33.135h-0.006
	c-7.145,0-13.668-4.51-15.763-11.341c-3.487-11.374,4.923-21.793,15.767-21.793h0.001v-33.135h-0.001
	c-10.844,0-19.255-10.419-15.768-21.792c2.095-6.832,8.617-11.341,15.762-11.341h0.006V73.765h-0.001
	c-10.844,0-19.255-10.419-15.768-21.792c2.095-6.832,8.617-11.341,15.762-11.341h0.006V13.5c0-3.314-2.686-6-6-6h-27.135
	c0,9.15-7.417,16.567-16.567,16.567S421.66,16.65,421.66,7.5h-33.133c0,9.15-7.417,16.567-16.567,16.567S355.399,16.65,355.399,7.5
	h-33.134c0,9.15-7.417,16.567-16.567,16.567S289.132,16.65,289.132,7.5h-33.133c0,9.15-7.417,16.567-16.567,16.567
	c-9.15,0-16.567-7.417-16.567-16.567h-33.133c0,9.15-7.417,16.567-16.567,16.567c-9.15,0-16.567-7.417-16.567-16.567h-27.132
	c-3.314,0-6,2.686-6,6v27.122h0.006c7.146,0,13.668,4.51,15.763,11.341c3.487,11.373-4.924,21.792-15.768,21.792h-0.001v33.135
	h0.006c7.146,0,13.668,4.51,15.763,11.341c3.487,11.373-4.924,21.792-15.768,21.792h-0.001v33.135h0.006
	c7.145,0,13.668,4.51,15.762,11.341c3.487,11.373-4.924,21.792-15.767,21.792h-0.001v33.135h0.006
	c7.146,0,13.668,4.509,15.763,11.341c3.488,11.374-4.923,21.793-15.767,21.793h-0.001v33.135h0.006
	c7.146,0,13.668,4.509,15.763,11.341c3.488,11.374-4.923,21.793-15.767,21.793h-0.001v33.135h0.001
	c10.844,0,19.255,10.419,15.767,21.793c-2.095,6.832-8.617,11.341-15.762,11.341h-0.006v33.135h0.001
	c10.844,0,19.255,10.419,15.767,21.793c-2.095,6.832-8.617,11.341-15.762,11.341h-0.006V498.5c0,3.314,2.686,6,6,6H156.598z"/>
<path style="fill:#04A1EE;" d="M173.166,448.8V63.2c0-3.314,2.686-6,6-6h253.067c3.314,0,6,2.686,6,6v385.6c0,3.314-2.686,6-6,6
	H179.166C175.852,454.8,173.166,452.114,173.166,448.8z"/>
<circle style="fill:#FCB043;" cx="231.149" cy="115.18" r="24.851"/>
<path style="fill:#54CC4E;" d="M438.231,289.132l-45.458-45.458c-2.343-2.343-6.142-2.343-8.485,0l-70.307,70.306l-37.173-37.173
	c-2.343-2.343-6.142-2.343-8.485,0l-95.157,95.156V448.8c0,3.314,2.686,6,6,6h253.067c3.314,0,6-2.686,6-6L438.231,289.132z"/>
<path style="fill:#5ABDEE;" d="M438.231,106.901H355.4c-9.149,0-16.566,7.417-16.566,16.566s7.417,16.566,16.566,16.566
	l16.568,0.001c9.149,0,16.566,7.417,16.566,16.566c0,9.149-7.417,16.566-16.566,16.566h-49.702c-9.149,0-16.566,7.417-16.566,16.566
	c0,9.149,7.417,16.566,16.566,16.566h115.967L438.231,106.901z"/>
<g>
	<path style="fill:#BCCED5;" d="M219.43,24.067c3.762,0,7.22-1.269,10.001-3.382c-3.983-3.026-6.566-7.798-6.566-13.185h-20.002
		C202.863,16.65,210.28,24.067,219.43,24.067z"/>
	<path style="fill:#BCCED5;" d="M285.697,24.067c3.762,0,7.22-1.269,10.001-3.382c-3.983-3.026-6.566-7.798-6.566-13.185H269.13
		C269.13,16.65,276.547,24.067,285.697,24.067z"/>
	<path style="fill:#BCCED5;" d="M153.162,24.067c3.762,0,7.22-1.269,10.001-3.382c-3.983-3.026-6.566-7.798-6.566-13.185h-20.002
		C136.596,16.65,144.013,24.067,153.162,24.067z"/>
	<path style="fill:#BCCED5;" d="M418.231,24.067c3.762,0,7.22-1.269,10.001-3.382c-3.983-3.026-6.566-7.798-6.566-13.185h-20.002
		C401.664,16.65,409.082,24.067,418.231,24.067z"/>
	<path style="fill:#BCCED5;" d="M351.964,24.067c3.762,0,7.22-1.269,10.001-3.382c-3.983-3.025-6.566-7.798-6.566-13.185h-20.002
		C335.397,16.65,342.815,24.067,351.964,24.067z"/>
	<path style="fill:#BCCED5;" d="M153.162,487.933c-9.15,0-16.567,7.418-16.567,16.567h-7.135c0.002,0,0.003,0,0.005,0h27.132
		c0-5.387,2.583-10.16,6.566-13.185C160.382,489.201,156.925,487.933,153.162,487.933z"/>
	<path style="fill:#BCCED5;" d="M418.231,487.933c-9.15,0-16.567,7.418-16.567,16.567h20.002c0-5.387,2.583-10.16,6.566-13.185
		C425.451,489.201,421.993,487.933,418.231,487.933z"/>
	<path style="fill:#BCCED5;" d="M219.43,487.933c-9.15,0-16.567,7.418-16.567,16.567h20.002c0-5.387,2.583-10.16,6.566-13.185
		C226.65,489.201,223.192,487.933,219.43,487.933z"/>
	<path style="fill:#BCCED5;" d="M487.929,40.631h0.006V13.5c0-3.314-2.686-6-6-6h-20.002c3.314,0,6,2.686,6,6v27.131h-0.006
		c-7.146,0-13.668,4.51-15.762,11.341c-3.487,11.374,4.923,21.792,15.768,21.792l0,0V106.9h-0.006
		c-7.146,0-13.668,4.509-15.762,11.341c-3.487,11.374,4.923,21.792,15.768,21.792l0,0v33.135h-0.001
		c-10.844,0-19.255,10.419-15.767,21.793c2.095,6.832,8.617,11.341,15.763,11.341h0.006v33.135h-0.001
		c-10.844,0-19.255,10.419-15.767,21.793c2.095,6.832,8.617,11.341,15.763,11.341h0.006v33.135h-0.001
		c-10.844,0-19.255,10.419-15.767,21.793c2.095,6.832,8.617,11.341,15.762,11.341h0.006v33.135h-0.001
		c-10.844,0-19.254,10.418-15.767,21.792c2.094,6.832,8.617,11.341,15.762,11.341h0.006v33.135h-0.001
		c-10.844,0-19.254,10.419-15.767,21.792c2.094,6.832,8.617,11.341,15.762,11.341h0.006V498.5c0,3.312-2.684,5.997-5.995,6h19.997
		c3.314,0,6-2.686,6-6v-27.122h-0.006c-7.146,0-13.668-4.51-15.762-11.341c-3.487-11.374,4.923-21.792,15.767-21.792h0.001V405.11
		h-0.006c-7.146,0-13.668-4.51-15.762-11.341c-3.487-11.374,4.923-21.792,15.767-21.792h0.001v-33.135h-0.006
		c-7.146,0-13.668-4.51-15.762-11.341c-3.487-11.374,4.923-21.793,15.767-21.793h0.001v-33.135h-0.005
		c-7.146,0-13.668-4.51-15.763-11.341c-3.487-11.373,4.923-21.793,15.767-21.793h0.001v-33.135h-0.005
		c-7.146,0-13.668-4.509-15.763-11.341c-3.487-11.374,4.923-21.793,15.767-21.793h0.001v-33.135l0,0
		c-10.844,0-19.255-10.419-15.768-21.792c2.094-6.832,8.617-11.341,15.762-11.341h0.006V73.765l0,0
		c-10.844,0-19.255-10.419-15.768-21.792C474.261,45.141,480.783,40.631,487.929,40.631z"/>
	<path style="fill:#BCCED5;" d="M285.697,487.933c-9.15,0-16.567,7.418-16.567,16.567h20.002c0-5.387,2.583-10.16,6.566-13.185
		C292.917,489.201,289.459,487.933,285.697,487.933z"/>
	<path style="fill:#BCCED5;" d="M351.964,487.933c-9.149,0-16.567,7.418-16.567,16.567h20.002c0-5.387,2.583-10.16,6.566-13.185
		C359.184,489.201,355.726,487.933,351.964,487.933z"/>
</g>
<path d="M487.935,48.132c4.143,0,7.5-3.357,7.5-7.5V7.5c0-4.143-3.357-7.5-7.5-7.5H454.8c-4.143,0-7.5,3.357-7.5,7.5
	c0,4.999-4.067,9.066-9.066,9.066c-5,0-9.067-4.067-9.067-9.066c0-4.143-3.357-7.5-7.5-7.5h-33.133c-4.143,0-7.5,3.357-7.5,7.5
	c0,4.999-4.067,9.066-9.067,9.066c-4.999,0-9.066-4.067-9.066-9.066c0-4.143-3.357-7.5-7.5-7.5h-33.134c-4.143,0-7.5,3.357-7.5,7.5
	c0,4.999-4.067,9.066-9.066,9.066c-5,0-9.067-4.067-9.067-9.066c0-4.143-3.357-7.5-7.5-7.5h-33.135c-4.143,0-7.5,3.357-7.5,7.5
	c0,4.999-4.067,9.066-9.067,9.066c-4.999,0-9.066-4.067-9.066-9.066c0-4.143-3.357-7.5-7.5-7.5h-33.134c-4.143,0-7.5,3.357-7.5,7.5
	c0,4.999-4.067,9.066-9.066,9.066c-5,0-9.067-4.067-9.067-9.066c0-4.143-3.357-7.5-7.5-7.5h-33.132c-1.989,0-3.896,0.79-5.304,2.196
	c-1.406,1.407-2.196,3.314-2.196,5.304l0.001,33.122c0,4.142,3.358,7.5,7.5,7.5c4.999,0,9.066,4.067,9.066,9.066
	s-4.067,9.066-9.067,9.066c-1.989,0-3.896,0.79-5.304,2.197c-1.406,1.406-2.196,3.313-2.196,5.303l0.001,33.136
	c0,4.143,3.358,7.5,7.5,7.5c4.999,0,9.066,4.067,9.066,9.066c0,4.999-4.067,9.066-9.067,9.066c-1.989,0-3.896,0.79-5.304,2.197
	c-1.406,1.406-2.196,3.313-2.196,5.303l0.001,22.739l-39.83-13.278c-0.068-0.023-0.136-0.036-0.203-0.057
	c-0.106-0.032-0.212-0.062-0.319-0.089c-0.14-0.036-0.279-0.068-0.419-0.095c-0.093-0.018-0.187-0.034-0.28-0.048
	c-0.156-0.024-0.31-0.045-0.465-0.059c-0.08-0.008-0.161-0.012-0.242-0.017c-0.168-0.01-0.336-0.016-0.503-0.015
	c-0.073,0.001-0.145,0.004-0.218,0.006c-0.175,0.007-0.35,0.018-0.523,0.037c-0.069,0.007-0.138,0.017-0.208,0.026
	c-0.177,0.024-0.352,0.054-0.526,0.09c-0.07,0.015-0.14,0.031-0.21,0.048c-0.171,0.041-0.339,0.087-0.506,0.14
	c-0.04,0.013-0.081,0.02-0.121,0.034l-49.699,16.568c-3.93,1.311-6.053,5.558-4.743,9.487c1.048,3.143,3.975,5.13,7.114,5.13
	c0.786,0,1.586-0.125,2.373-0.387l47.327-15.778l47.328,15.778c0.014,0.005,0.028,0.006,0.042,0.01
	c0.081,0.027,0.165,0.042,0.247,0.066c0.228,0.066,0.46,0.122,0.697,0.166c0.071,0.013,0.141,0.039,0.212,0.05
	c0.087,0.014,0.177,0.012,0.265,0.023c0.173,0.021,0.348,0.032,0.525,0.041c0.129,0.007,0.255,0.03,0.385,0.03h0.001l0,0
	c0.028,0,0.056-0.006,0.084-0.007c4.961,0.045,8.984,4.091,8.984,9.063c0,4.999-4.067,9.066-9.067,9.066
	c-1.989,0-3.896,0.79-5.304,2.197c-1.406,1.406-2.196,3.313-2.196,5.303v6.169l-39.829-13.277c-0.062-0.021-0.125-0.033-0.188-0.052
	c-0.118-0.036-0.238-0.069-0.358-0.1c-0.123-0.031-0.245-0.059-0.367-0.084c-0.115-0.023-0.231-0.042-0.347-0.06
	c-0.13-0.02-0.26-0.037-0.391-0.05c-0.11-0.011-0.22-0.017-0.33-0.023c-0.137-0.007-0.273-0.012-0.41-0.012
	c-0.106,0-0.211,0.004-0.317,0.009c-0.141,0.006-0.282,0.015-0.422,0.029c-0.102,0.01-0.204,0.024-0.307,0.039
	c-0.143,0.021-0.285,0.044-0.427,0.073c-0.1,0.02-0.2,0.044-0.3,0.068c-0.141,0.035-0.281,0.073-0.419,0.116
	c-0.053,0.016-0.107,0.027-0.16,0.044l-49.699,16.567c-3.93,1.311-6.053,5.558-4.743,9.487c1.048,3.143,3.974,5.13,7.114,5.13
	c0.786,0,1.586-0.125,2.373-0.387l47.327-15.777l42.202,14.068v11.153c0,4.143,3.358,7.5,7.5,7.5c4.999,0,9.066,4.067,9.066,9.067
	c0,2.603-1.109,4.947-2.873,6.602l-6.195,2.065l-47.329-15.777c-0.06-0.02-0.12-0.032-0.18-0.05
	c-0.125-0.038-0.25-0.073-0.377-0.105c-0.116-0.029-0.231-0.056-0.346-0.079c-0.124-0.025-0.248-0.045-0.373-0.064
	c-0.121-0.018-0.242-0.034-0.362-0.046c-0.12-0.012-0.241-0.019-0.362-0.025c-0.126-0.006-0.253-0.011-0.378-0.011
	c-0.116,0-0.231,0.005-0.348,0.01c-0.131,0.006-0.262,0.014-0.392,0.028c-0.111,0.011-0.223,0.026-0.334,0.043
	c-0.135,0.02-0.268,0.042-0.401,0.069c-0.107,0.022-0.214,0.047-0.321,0.073c-0.135,0.033-0.268,0.07-0.4,0.111
	c-0.056,0.017-0.113,0.028-0.169,0.047l-49.699,16.567c-3.93,1.311-6.053,5.558-4.743,9.487c1.048,3.143,3.974,5.13,7.114,5.13
	c0.786,0,1.586-0.125,2.373-0.387l47.327-15.777l42.201,14.068l0.001,27.723c0,4.143,3.358,7.5,7.5,7.5
	c4.999,0,9.066,4.067,9.066,9.066c0,5-4.067,9.067-9.067,9.067c-1.989,0-3.896,0.79-5.304,2.197
	c-1.406,1.406-2.196,3.314-2.196,5.303l0.001,33.135c0,4.143,3.358,7.5,7.5,7.5c4.999,0,9.066,4.067,9.066,9.067
	c0,4.999-4.067,9.066-9.067,9.066c-1.989,0-3.896,0.79-5.304,2.197c-1.406,1.406-2.196,3.314-2.196,5.303l0.001,33.136
	c0,4.142,3.358,7.5,7.5,7.5c4.999,0,9.066,4.067,9.066,9.066c0,4.999-4.067,9.066-9.067,9.066c-4.143,0-7.5,3.357-7.5,7.5V504.5
	c0,4.143,3.357,7.5,7.5,7.5h33.132c4.143,0,7.5-3.357,7.5-7.5c0-5,4.067-9.067,9.067-9.067c4.999,0,9.066,4.067,9.066,9.067
	c0,4.143,3.357,7.5,7.5,7.5h33.134c4.143,0,7.5-3.357,7.5-7.5c0-5,4.067-9.067,9.066-9.067c5,0,9.067,4.067,9.067,9.067
	c0,4.143,3.357,7.5,7.5,7.5h33.133c4.143,0,7.5-3.357,7.5-7.5c0-5,4.067-9.067,9.067-9.067c4.999,0,9.066,4.067,9.066,9.067
	c0,4.143,3.357,7.5,7.5,7.5h33.13c4.143,0,7.5-3.357,7.5-7.5c0-5,4.067-9.067,9.066-9.067c5,0,9.067,4.067,9.067,9.067
	c0,4.143,3.357,7.5,7.5,7.5h33.133c4.143,0,7.5-3.357,7.5-7.5c0-5,4.067-9.067,9.067-9.067c4.999,0,9.066,4.067,9.066,9.067
	c0,4.143,3.357,7.5,7.5,7.5h33.135c4.143,0,7.5-3.357,7.5-7.5v-33.122c0-4.142-3.357-7.5-7.5-7.5c-5,0-9.067-4.067-9.067-9.066
	s4.067-9.066,9.067-9.066c4.143,0,7.5-3.357,7.5-7.5V405.11c0-4.143-3.357-7.5-7.5-7.5c-5,0-9.067-4.067-9.067-9.066
	c0-4.999,4.067-9.066,9.067-9.066c4.143,0,7.5-3.357,7.5-7.5v-33.136c0-4.143-3.357-7.5-7.5-7.5c-5,0-9.067-4.067-9.067-9.067
	c0-4.999,4.067-9.066,9.067-9.066c4.143,0,7.5-3.357,7.5-7.5v-33.135c0-4.143-3.357-7.5-7.5-7.5c-5,0-9.067-4.067-9.067-9.067
	c0-4.999,4.067-9.066,9.067-9.066c4.143,0,7.5-3.357,7.5-7.5v-33.136c0-4.143-3.357-7.5-7.5-7.5c-5,0-9.067-4.067-9.067-9.066
	c0-5,4.067-9.067,9.067-9.067c4.143,0,7.5-3.357,7.5-7.5v-33.135c0-4.143-3.357-7.5-7.5-7.5c-5,0-9.067-4.067-9.067-9.067
	c0-4.999,4.067-9.066,9.067-9.066c4.143,0,7.5-3.357,7.5-7.5V73.765c0-4.143-3.357-7.5-7.5-7.5c-5,0-9.067-4.067-9.067-9.066
	C478.867,52.199,482.935,48.132,487.935,48.132z M165.666,167.006v33.889l-32.444,10.815c8.419-3.752,14.311-12.187,14.311-21.983
	c0-5.642-1.965-10.825-5.228-14.933L165.666,167.006z M130.966,233.124v-4.85l34.7-11.567v33.888l-18.159,6.053
	c0.006-0.219,0.027-0.433,0.027-0.653C147.533,245.342,140.575,236.283,130.966,233.124z M480.434,34.328
	c-9.608,3.159-16.566,12.218-16.566,22.87s6.958,19.711,16.567,22.87l-0.001,20.528c-9.608,3.159-16.566,12.218-16.566,22.87
	c0,10.653,6.958,19.712,16.567,22.871l-0.001,20.527c-9.608,3.159-16.566,12.218-16.566,22.871c0,10.652,6.958,19.711,16.567,22.87
	l-0.001,20.528c-9.608,3.159-16.566,12.218-16.566,22.87c0,10.653,6.958,19.712,16.567,22.871l-0.001,20.527
	c-9.608,3.159-16.566,12.218-16.566,22.87c0,10.653,6.958,19.712,16.567,22.871l-0.001,20.528
	c-9.608,3.159-16.566,12.218-16.566,22.87s6.958,19.711,16.567,22.87l-0.001,20.528c-9.608,3.159-16.566,12.218-16.566,22.87
	s6.958,19.711,16.567,22.87V497h-19.331c-3.159-9.609-12.218-16.567-22.87-16.567c-10.653,0-19.712,6.958-22.871,16.567h-20.525
	c-3.159-9.609-12.218-16.567-22.871-16.567c-10.652,0-19.711,6.958-22.87,16.567h-20.528c-3.159-9.609-12.218-16.567-22.87-16.567
	c-10.653,0-19.712,6.958-22.871,16.567h-20.525c-3.159-9.609-12.218-16.567-22.871-16.567c-10.652,0-19.711,6.958-22.87,16.567
	h-20.526c-3.159-9.609-12.218-16.567-22.87-16.567c-10.653,0-19.712,6.958-22.871,16.567h-19.328l0.001-19.328
	c9.608-3.159,16.566-12.218,16.566-22.87s-6.958-19.711-16.567-22.87l0.001-20.528c9.608-3.159,16.566-12.218,16.566-22.87
	c0-10.653-6.958-19.712-16.567-22.871l0.001-20.527c9.608-3.159,16.566-12.218,16.566-22.871c0-10.652-6.958-19.711-16.567-22.87
	l0.001-20.528c2.054-0.675,3.977-1.634,5.746-2.807l28.953-9.651V289.5c0,4.143,3.357,7.5,7.5,7.5s7.5-3.357,7.5-7.5v-23.093
	l39.827,13.276c0.787,0.263,1.587,0.387,2.373,0.387c3.14,0,6.066-1.987,7.114-5.13c1.309-3.93-0.813-8.177-4.743-9.487
	l-44.571-14.858v-33.888l39.827,13.276c0.787,0.263,1.587,0.387,2.373,0.387c3.14,0,6.066-1.987,7.114-5.13
	c1.309-3.93-0.813-8.177-4.743-9.487l-44.571-14.858v-33.889l39.827,13.277c0.787,0.263,1.587,0.387,2.373,0.387
	c3.14,0,6.066-1.987,7.114-5.13c1.309-3.93-0.813-8.177-4.743-9.487l-44.571-14.859V64.7h250.067v34.701h-75.333
	c-13.271,0-24.066,10.796-24.066,24.066s10.796,24.066,24.066,24.066l16.568,0.001c4.999,0,9.065,4.067,9.065,9.066
	s-4.066,9.065-9.065,9.065h-49.702c-13.27,0-24.066,10.796-24.066,24.066c0,13.271,10.796,24.066,24.066,24.066h108.467v57.227
	l-36.899-36.899c-2.93-2.928-7.678-2.928-10.607,0l-69.245,69.245l-36.112-36.113c-2.929-2.927-7.677-2.929-10.607,0l-86.596,86.595
	v-34.407c0-4.143-3.357-7.5-7.5-7.5s-7.5,3.357-7.5,7.5v52.51c0,0,0,0.007,0,0.01v82.833c0,4.143,3.357,7.5,7.5,7.5h265.067
	c4.143,0,7.5-3.357,7.5-7.5V57.2c0-4.143-3.357-7.5-7.5-7.5H173.166c-4.143,0-7.5,3.357-7.5,7.5v93.994l-34.7,11.568l0.001-16.435
	c9.608-3.159,16.566-12.218,16.566-22.87s-6.958-19.711-16.567-22.87l0.001-20.528c9.608-3.159,16.566-12.218,16.566-22.87
	s-6.958-19.711-16.567-22.87V15h19.328c3.159,9.609,12.218,16.566,22.871,16.566c10.652,0,19.711-6.957,22.87-16.566h20.526
	c3.159,9.609,12.218,16.566,22.87,16.566c10.653,0,19.712-6.957,22.871-16.566h20.525c3.159,9.609,12.218,16.566,22.871,16.566
	c10.652,0,19.711-6.957,22.87-16.566h20.526c3.159,9.609,12.218,16.566,22.87,16.566c10.653,0,19.712-6.957,22.871-16.566h20.525
	c3.159,9.609,12.218,16.566,22.871,16.566c10.652,0,19.711-6.957,22.87-16.566h19.331L480.434,34.328z M180.666,375.07
	l91.899-91.899l36.11,36.111c0,0,0.001,0.002,0.002,0.003c0,0,0.002,0.001,0.003,0.002l57.982,57.983
	c1.465,1.464,3.384,2.196,5.304,2.196c1.919,0,3.839-0.732,5.304-2.196c2.929-2.93,2.929-7.678,0-10.607l-52.681-52.681
	l63.942-63.943l42.203,42.203v155.06H180.666V375.07z M371.969,132.535l-16.568-0.001c-4.999,0-9.066-4.067-9.066-9.066
	s4.067-9.066,9.066-9.066h75.333V198.8H322.267c-4.999,0-9.066-4.067-9.066-9.066s4.067-9.066,9.066-9.066h49.702
	c13.27,0,24.065-10.796,24.065-24.065C396.034,143.331,385.238,132.535,371.969,132.535z"/>
<path d="M263.501,115.183c0-17.838-14.513-32.351-32.351-32.351s-32.351,14.513-32.351,32.351s14.513,32.351,32.351,32.351
	S263.501,133.02,263.501,115.183z M213.8,115.183c0-9.567,7.783-17.351,17.351-17.351s17.351,7.783,17.351,17.351
	s-7.783,17.351-17.351,17.351S213.8,124.75,213.8,115.183z"/>
<g>
</g>
<g>
</g>
<g>
</g>
<g>
</g>
<g>
</g>
<g>
</g>
<g>
</g>
<g>
</g>
<g>
</g>
<g>
</g>
<g>
</g>
<g>
</g>
<g>
</g>
<g>
</g>
<g>
</g>
</svg>
