<?xml version="1.0" encoding="iso-8859-1"?>
<!-- Generator: Adobe Illustrator 19.0.0, SVG Export Plug-In . SVG Version: 6.00 Build 0)  -->
<svg version="1.1" id="Capa_1" xmlns="http://www.w3.org/2000/svg" xmlns:xlink="http://www.w3.org/1999/xlink" x="0px" y="0px"
	 viewBox="0 0 512 512" style="enable-background:new 0 0 512 512;" xml:space="preserve">
<path style="fill:#04A1EE;" d="M289.133,239.434c9.15,0,16.567,7.417,16.567,16.568v149.097c0,9.15-7.418,16.567-16.567,16.567
	H24.067c-9.15,0-16.567-7.418-16.567-16.567V256.001c0-9.15,7.417-16.568,16.567-16.568L289.133,239.434L289.133,239.434z"/>
<path style="fill:#0084CE;" d="M285.7,256.001v149.097c0,9.15-7.418,16.568-16.567,16.568h20c9.15,0,16.567-7.418,16.567-16.568
	V256.001c0-9.15-7.418-16.568-16.567-16.568h-20C278.283,239.434,285.7,246.851,285.7,256.001z"/>
<path style="fill:#5ABDEE;" d="M289.133,239.433H24.067c-5.398,0-10.179,2.594-13.203,6.59c-1.669,3.11-2.795,5.514-3.023,6.621
	l144.721,92.507c1.232,0.787,2.636,1.181,4.04,1.181c1.404,0,2.808-0.393,4.04-1.181l144.717-92.507
	C303.807,245.103,297.133,239.433,289.133,239.433z"/>
<path style="fill:#FCB043;" d="M487.932,90.334c9.15,0,16.568,7.418,16.568,16.568v149.097c0,9.15-7.418,16.567-16.568,16.567
	H222.867c-9.15,0-16.567-7.418-16.567-16.567V106.902c0-9.15,7.417-16.568,16.567-16.568H487.932z"/>
<path style="fill:#EF9122;" d="M484.5,106.902v149.097c0,9.15-7.418,16.568-16.567,16.568h20c9.15,0,16.567-7.418,16.567-16.568
	V106.902c0-9.15-7.418-16.567-16.567-16.567h-20C477.082,90.334,484.5,97.752,484.5,106.902z"/>
<path style="fill:#FFCE94;" d="M487.933,90.334H222.867c-5.398,0-10.179,2.593-13.203,6.59c-1.669,3.11-2.795,5.514-3.023,6.621
	l144.721,92.507c1.231,0.787,2.636,1.181,4.04,1.181s2.808-0.394,4.04-1.181l144.717-92.507
	C502.607,96.004,495.932,90.334,487.933,90.334z"/>
<path style="fill:#FCB043;" d="M504.159,103.544c-0.103-0.501-0.232-0.992-0.379-1.475c-0.054-0.176-0.121-0.346-0.18-0.519
	c-0.106-0.31-0.213-0.619-0.337-0.92c-0.079-0.193-0.168-0.38-0.254-0.569c-0.124-0.273-0.251-0.544-0.389-0.809
	c-0.099-0.189-0.204-0.376-0.31-0.561c-0.146-0.255-0.298-0.506-0.457-0.752c-0.115-0.178-0.231-0.354-0.352-0.528
	c-0.172-0.245-0.352-0.483-0.536-0.717c-0.125-0.159-0.248-0.32-0.378-0.475c-0.209-0.247-0.43-0.483-0.652-0.718
	c-0.121-0.128-0.237-0.26-0.362-0.384c-0.327-0.323-0.668-0.632-1.021-0.927c-0.03-0.025-0.056-0.053-0.086-0.077
	c-0.384-0.316-0.784-0.613-1.195-0.894c-0.137-0.094-0.282-0.177-0.422-0.267c-0.283-0.181-0.568-0.36-0.862-0.524
	c-0.171-0.095-0.346-0.181-0.521-0.271c-0.276-0.141-0.556-0.279-0.841-0.405c-0.187-0.083-0.378-0.16-0.569-0.236
	c-0.286-0.114-0.575-0.22-0.868-0.318c-0.196-0.065-0.392-0.129-0.591-0.188c-0.305-0.089-0.614-0.166-0.926-0.238
	c-0.194-0.045-0.387-0.093-0.583-0.131c-0.345-0.066-0.695-0.115-1.047-0.16c-0.17-0.022-0.337-0.052-0.509-0.068
	c-0.526-0.05-1.058-0.081-1.598-0.081h-20c9.15,0,16.567,7.418,16.567,16.568v9.209L504.159,103.544z"/>
<path d="M512,255.999V106.901c0-5.516-1.87-10.6-5.002-14.664c-0.1-0.136-0.203-0.268-0.311-0.395
	c-4.415-5.487-11.18-9.008-18.755-9.008h-43.418c-4.142,0-7.5,3.357-7.5,7.5s3.358,7.5,7.5,7.5h40.727l-129.839,82.997
	L225.559,97.834h189.008c4.142,0,7.5-3.357,7.5-7.5s-3.358-7.5-7.5-7.5h-191.7c-7.574,0-14.337,3.52-18.752,9.005
	c-0.109,0.129-0.213,0.262-0.314,0.4c-3.132,4.063-5.001,9.147-5.001,14.662v125.032H24.067c-7.572,0-14.334,3.518-18.749,9.002
	c-0.111,0.131-0.216,0.266-0.319,0.406C1.868,245.404,0,250.487,0,256.001v149.098c0,5.726,2.014,10.99,5.366,15.126
	c0.011,0.012,0.019,0.026,0.03,0.038c4.417,5.428,11.145,8.903,18.672,8.903h265.065c13.271,0,24.067-10.797,24.067-24.067V280.066
	h174.732c7.527,0,14.256-3.476,18.673-8.905c0.004-0.004,0.007-0.01,0.011-0.014C509.979,267.008,512,261.736,512,255.999z
	 M385.405,179.455L497,108.121v146.388L385.405,179.455z M355.402,197.232c1.404,0,2.808-0.394,4.04-1.181l12.182-7.787
	l114.196,76.802H224.977l114.198-76.805l12.188,7.791C352.594,196.839,353.998,197.232,355.402,197.232z M325.394,179.452
	L213.8,254.506V108.12L325.394,179.452z M204.165,271.125c0.011,0.012,0.02,0.026,0.03,0.038c4.417,5.428,11.145,8.903,18.672,8.903
	h11.742l-78.007,49.863L26.759,246.934H198.8v9.065C198.8,261.725,200.813,266.988,204.165,271.125z M15,257.22l111.595,71.332
	L15,403.606V257.22z M140.376,337.361l12.187,7.79c1.231,0.787,2.636,1.181,4.039,1.181c1.404,0,2.808-0.394,4.04-1.181
	l12.182-7.787l114.198,76.802H26.177L140.376,337.361z M298.2,403.606l-111.595-75.052l75.855-48.488h35.74V403.606z"/>
<path d="M102.509,211.783c2.426,2.426,6.36,2.426,8.786,0l8.43-8.43c3.914-3.913,1.142-10.605-4.393-10.605H114.4v-3.017
	c0-32.403,26.362-58.765,58.765-58.765c4.142,0,7.5-3.357,7.5-7.5s-3.358-7.5-7.5-7.5c-40.674,0-73.765,33.091-73.765,73.765v3.016
	h-0.929c-5.535,0-8.307,6.692-4.393,10.605L102.509,211.783z"/>
<path d="M409.489,300.214c-2.426-2.426-6.36-2.426-8.786,0l-8.43,8.43c-3.914,3.914-1.142,10.605,4.393,10.605h0.931v3.017
	c0,32.403-26.362,58.765-58.765,58.765c-4.142,0-7.5,3.357-7.5,7.5c0,4.142,3.358,7.5,7.5,7.5c40.674,0,73.765-33.091,73.765-73.765
	v-3.016h0.93c5.535,0,8.307-6.692,4.393-10.605L409.489,300.214z"/>
<g>
</g>
<g>
</g>
<g>
</g>
<g>
</g>
<g>
</g>
<g>
</g>
<g>
</g>
<g>
</g>
<g>
</g>
<g>
</g>
<g>
</g>
<g>
</g>
<g>
</g>
<g>
</g>
<g>
</g>
</svg>
