<?xml version="1.0" encoding="iso-8859-1"?>
<!-- Generator: Adobe Illustrator 19.0.0, SVG Export Plug-In . SVG Version: 6.00 Build 0)  -->
<svg version="1.1" id="Capa_1" xmlns="http://www.w3.org/2000/svg" xmlns:xlink="http://www.w3.org/1999/xlink" x="0px" y="0px"
	 viewBox="0 0 512 512" style="enable-background:new 0 0 512 512;" xml:space="preserve">
<path style="fill:#E94141;" d="M338.832,454.799V504.5H405.1V73.767c0-36.598-29.669-66.267-66.267-66.267H173.166
	c-36.598,0-66.267,29.669-66.267,66.267V504.5h66.265v-49.698"/>
<path style="fill:#3B4F66;" d="M332.833,90.334H179.167c-3.314,0-6-2.686-6-6V63.201c0-3.314,2.686-6,6-6h153.666
	c3.314,0,6,2.686,6,6v21.133C338.833,87.648,336.147,90.334,332.833,90.334z"/>
<path style="fill:#DEF2FC;" d="M332.833,338.833H179.167c-3.314,0-6-2.686-6-6V179.167c0-3.314,2.686-6,6-6h153.666
	c3.314,0,6,2.686,6,6v153.666C338.833,336.147,336.147,338.833,332.833,338.833z"/>
<path style="fill:#BCCED5;" d="M332.833,173.167h-20c3.314,0,6,2.686,6,6v153.666c0,3.314-2.686,6-6,6h20c3.314,0,6-2.686,6-6
	V179.167C338.833,175.853,336.147,173.167,332.833,173.167z"/>
<g>
	<polygon style="fill:#C62525;" points="318.832,454.799 153.165,454.802 153.165,504.5 173.165,504.5 173.165,454.802 
		318.832,454.8 	"/>
	<path style="fill:#C62525;" d="M338.834,7.5h-20c36.598,0,66.267,29.668,66.267,66.267V504.5h20V73.767
		C405.1,37.168,375.432,7.5,338.834,7.5z"/>
</g>
<path d="M355.4,49.7h-16.568H173.167H156.6c-4.142,0-7.5,3.357-7.5,7.5s3.358,7.5,7.5,7.5h9.066v25.634c0,4.143,3.358,7.5,7.5,7.5
	h165.665c4.142,0,7.5-3.357,7.5-7.5V64.7h9.068c4.142,0,7.5-3.357,7.5-7.5S359.542,49.7,355.4,49.7z M331.332,82.834H180.667V64.7
	h150.665V82.834z"/>
<path d="M338.832,346.333c4.142,0,7.5-3.357,7.5-7.5V173.167c0-4.143-3.358-7.5-7.5-7.5H173.167c-4.142,0-7.5,3.357-7.5,7.5v165.666
	c0,4.143,3.358,7.5,7.5,7.5H338.832z M180.667,180.667h150.665v150.666H180.667V180.667z"/>
<path d="M214.582,306.482h-16.567c-4.142,0-7.5,3.357-7.5,7.5s3.358,7.5,7.5,7.5h16.567c4.142,0,7.5-3.357,7.5-7.5
	C222.082,309.84,218.724,306.482,214.582,306.482z"/>
<path d="M297.416,198.281h-82.834c-4.142,0-7.5,3.357-7.5,7.5s3.358,7.5,7.5,7.5h82.834c4.142,0,7.5-3.357,7.5-7.5
	C304.916,201.639,301.558,198.281,297.416,198.281z"/>
<path d="M297.416,231.933h-82.834c-4.142,0-7.5,3.357-7.5,7.5s3.358,7.5,7.5,7.5h82.834c4.142,0,7.5-3.357,7.5-7.5
	S301.558,231.933,297.416,231.933z"/>
<path d="M297.416,265.583h-82.834c-4.142,0-7.5,3.357-7.5,7.5s3.358,7.5,7.5,7.5h82.834c4.142,0,7.5-3.357,7.5-7.5
	S301.558,265.583,297.416,265.583z"/>
<path d="M421.667,497H412.6V388.543c0,0,0-0.006,0-0.01c0,0,0-0.006,0-0.01V73.767C412.6,33.092,379.508,0,338.833,0H173.167
	C132.492,0,99.4,33.092,99.4,73.767v100.992c0,4.143,3.358,7.5,7.5,7.5s7.5-3.357,7.5-7.5V139.25h283.2v241.783H114.4V204.706
	c0-4.143-3.358-7.5-7.5-7.5s-7.5,3.357-7.5,7.5V497h-9.066c-4.142,0-7.5,3.357-7.5,7.5s3.358,7.5,7.5,7.5H106.9h66.265h16.567
	c4.142,0,7.5-3.357,7.5-7.5s-3.358-7.5-7.5-7.5h-9.067v-34.698h150.667V497h-9.066c-4.142,0-7.5,3.357-7.5,7.5s3.358,7.5,7.5,7.5
	h16.566H405.1h16.566c4.142,0,7.5-3.357,7.5-7.5S425.809,497,421.667,497z M114.4,124.25V73.767C114.4,41.362,140.763,15,173.167,15
	h165.667c32.404,0,58.767,26.362,58.767,58.767v50.483H114.4z M346.332,497v-34.698h9.069c4.142,0,7.5-3.357,7.5-7.5
	s-3.358-7.5-7.5-7.5h-16.53c-0.013,0-0.026-0.002-0.039-0.002s-0.026,0.002-0.039,0.002H156.599c-4.142,0-7.5,3.357-7.5,7.5
	s3.358,7.5,7.5,7.5h9.066V497H114.4V396.033h283.2V497H346.332z"/>
<g>
</g>
<g>
</g>
<g>
</g>
<g>
</g>
<g>
</g>
<g>
</g>
<g>
</g>
<g>
</g>
<g>
</g>
<g>
</g>
<g>
</g>
<g>
</g>
<g>
</g>
<g>
</g>
<g>
</g>
</svg>
