<?xml version="1.0" encoding="iso-8859-1"?>
<!-- Generator: Adobe Illustrator 19.0.0, SVG Export Plug-In . SVG Version: 6.00 Build 0)  -->
<svg version="1.1" id="Capa_1" xmlns="http://www.w3.org/2000/svg" xmlns:xlink="http://www.w3.org/1999/xlink" x="0px" y="0px"
	 viewBox="0 0 512.001 512.001" style="enable-background:new 0 0 512.001 512.001;" xml:space="preserve">
<path style="fill:#DEF2FC;" d="M7.5,465.367V46.633c0-3.314,2.686-6,6-6h485c3.314,0,6,2.686,6,6v418.734c0,3.314-2.686,6-6,6h-485
	C10.187,471.367,7.5,468.681,7.5,465.367z"/>
<path style="fill:#BCCED5;" d="M498.5,40.634h-20c3.314,0,6,2.686,6,6v418.734c0,3.314-2.686,6-6,6h20c3.314,0,6-2.686,6-6V46.634
	C504.5,43.32,501.814,40.634,498.5,40.634z"/>
<path style="fill:#04A1EE;" d="M504.499,106.9H7.503V46.633c0-3.314,2.686-6,6-6H498.5c3.314,0,6,2.686,6,6L504.499,106.9z"/>
<path style="fill:#3B4F66;" d="M504.499,438.23H7.503v27.137c0,3.314,2.686,6,6,6H498.5c3.314,0,6-2.686,6-6L504.499,438.23z"/>
<path style="fill:#0084CE;" d="M502.395,42.074c-1.048-0.896-2.407-1.441-3.894-1.441h-20c3.314,0,6,2.686,6,6V106.9H504.5
	l0.001-60.267C504.5,44.807,503.682,43.175,502.395,42.074z"/>
<path style="fill:#2C3B4D;" d="M498.5,471.367c3.314,0,6-2.686,6-6V438.23h-20v27.138c0,3.313-2.686,5.999-5.999,6H498.5V471.367z"
	/>
<path style="fill:#FCB043;" d="M322.267,231.15h24.849c9.15,0,16.568,7.418,16.568,16.568v99.399c0,9.15-7.418,16.568-16.568,16.568
	H164.885c-9.15,0-16.567-7.418-16.567-16.568v-99.399c0-9.15,7.417-16.568,16.567-16.568h24.849H322.267z"/>
<g>
	<path style="fill:#EF9122;" d="M343.682,247.718v99.399c0,9.15-7.418,16.568-16.568,16.568h20.001
		c9.15,0,16.567-7.418,16.567-16.568v-99.399c0-9.15-7.418-16.568-16.567-16.568h-20.001
		C336.265,231.15,343.682,238.567,343.682,247.718z"/>
	<path style="fill:#EF9122;" d="M360.143,237.503c-3.033-3.863-7.734-6.353-13.027-6.353h-24.849H189.735h-24.849
		c-5.292,0-9.994,2.491-13.027,6.353l101.152,58.192c1.852,1.066,4.132,1.066,5.984,0L360.143,237.503z"/>
</g>
<path style="fill:#54CC4E;" d="M322.266,259.294v-88.411c0-3.314-2.686-6-6-6H195.735c-3.314,0-6,2.686-6,6v88.41l63.273,36.401
	c1.852,1.066,4.132,1.066,5.984,0L322.266,259.294z"/>
<path style="fill:#CC6319;" d="M343.646,246.994l16.497-9.491l0,0c-0.179-0.227-0.364-0.449-0.554-0.667
	c-0.062-0.071-0.126-0.139-0.19-0.209c-0.315-0.35-0.645-0.686-0.989-1.008c-0.107-0.1-0.215-0.198-0.324-0.295
	c-0.29-0.257-0.589-0.503-0.896-0.74c-0.161-0.124-0.323-0.247-0.488-0.365c-0.186-0.132-0.373-0.263-0.564-0.387
	c-0.299-0.195-0.604-0.381-0.916-0.557c-0.163-0.092-0.33-0.179-0.497-0.266c-0.323-0.167-0.65-0.328-0.984-0.474
	c-0.14-0.061-0.282-0.118-0.424-0.175c-0.346-0.14-0.697-0.269-1.054-0.385c-0.107-0.035-0.212-0.073-0.32-0.106
	c-0.432-0.131-0.872-0.243-1.317-0.339c-0.107-0.023-0.215-0.046-0.323-0.067c-0.46-0.09-0.926-0.163-1.399-0.214
	c-0.084-0.009-0.169-0.015-0.253-0.022c-0.506-0.046-1.016-0.077-1.534-0.077l0,0h-20.001
	C336.02,231.15,343.265,238.182,343.646,246.994z"/>
<path d="M146,362.025c0.031,0.038,0.066,0.071,0.097,0.108c4.414,5.512,11.194,9.051,18.788,9.051h182.23
	c7.595,0,14.376-3.541,18.79-9.054c0.03-0.037,0.065-0.068,0.095-0.105c0.05-0.062,0.091-0.128,0.138-0.191
	c3.158-4.072,5.044-9.177,5.044-14.718v-99.398c0-5.461-1.831-10.501-4.908-14.544c-0.162-0.23-0.334-0.451-0.517-0.658
	c-4.417-5.406-11.132-8.865-18.642-8.865h-17.35v-58.768c0-4.143-3.357-7.5-7.5-7.5h-132.53c-4.142,0-7.5,3.357-7.5,7.5v58.768
	h-17.35c-7.51,0-14.225,3.459-18.642,8.865c-0.184,0.207-0.355,0.428-0.518,0.658c-3.077,4.043-4.908,9.083-4.908,14.544v99.398
	c0,5.538,1.885,10.641,5.04,14.713C145.907,361.894,145.949,361.961,146,362.025z M165.264,356.184l74.27-59.59l12.73,7.323
	c1.158,0.666,2.449,0.999,3.74,0.999c1.292,0,2.583-0.333,3.74-0.999l12.724-7.32l74.269,59.587H165.264z M329.766,238.65h13.344
	l-13.344,7.677V238.65z M356.183,248.434v96.099l-69.757-55.967L356.183,248.434z M197.235,172.383h117.531v82.574l-45.16,25.982
	c-0.006,0.003-0.012,0.007-0.017,0.01l-13.586,7.816l-58.768-33.809L197.235,172.383L197.235,172.383z M182.235,238.65v7.676
	l-13.343-7.676H182.235z M155.818,248.434l69.757,40.13l-69.757,55.969V248.434z"/>
<path d="M279.283,257.071c-1.844-3.708-6.345-5.223-10.054-3.378c-4.127,2.051-8.577,3.091-13.228,3.091
	c-16.418,0-29.775-13.357-29.775-29.775s13.357-29.775,29.775-29.775s29.775,13.357,29.775,29.775v6.212
	c0,1.574-1.281,2.855-2.855,2.855s-2.854-1.281-2.854-2.854l0.001-6.161c0-0.017,0.001-0.034,0.001-0.051s-0.001-0.034-0.001-0.051
	l0.001-12.374c0-4.143-3.357-7.501-7.499-7.501c-0.001,0-0.001,0-0.001,0c-0.871,0-1.704,0.156-2.482,0.429
	c-3.963-2.872-8.829-4.571-14.086-4.571c-13.271,0-24.067,10.797-24.067,24.067s10.796,24.067,24.067,24.067
	c5.49,0,10.553-1.852,14.607-4.958c3.207,3.063,7.539,4.958,12.313,4.958c9.846,0,17.856-8.01,17.856-17.855v-6.212
	c0-24.689-20.086-44.775-44.775-44.775s-44.775,20.086-44.775,44.775s20.086,44.775,44.775,44.775
	c6.988,0,13.685-1.567,19.904-4.659C279.615,265.281,281.127,260.78,279.283,257.071z M265.067,227.034
	c-0.014,4.988-4.075,9.042-9.066,9.042c-5,0-9.067-4.067-9.067-9.067s4.067-9.067,9.067-9.067c4.991,0,9.052,4.054,9.066,9.042
	V227.034z"/>
<path d="M504.501,33.134H7.5c-4.142,0-7.5,3.357-7.5,7.5v430.733c0,4.143,3.358,7.5,7.5,7.5h497.001c4.143,0,7.5-3.357,7.5-7.5
	V40.634C512,36.491,508.643,33.134,504.501,33.134z M497.001,430.73H70.582c-4.142,0-7.5,3.357-7.5,7.5s3.358,7.5,7.5,7.5h426.419
	v18.137H15V445.73h25.634c4.142,0,7.5-3.357,7.5-7.5s-3.358-7.5-7.5-7.5H15V114.4h482.001V430.73z M497.001,99.4H15V48.134h482.001
	V99.4z"/>
<path d="M441.212,87.353c1.465,1.464,3.385,2.196,5.304,2.196c1.919,0,3.839-0.732,5.304-2.196l2.98-2.98l2.98,2.98
	c1.465,1.464,3.385,2.196,5.304,2.196c1.919,0,3.839-0.732,5.304-2.196c2.929-2.93,2.929-7.678,0-10.607l-2.98-2.98l2.98-2.98
	c2.929-2.93,2.929-7.678,0-10.607c-2.93-2.928-7.678-2.928-10.607,0l-2.98,2.98l-2.98-2.98c-2.93-2.928-7.678-2.928-10.607,0
	c-2.929,2.93-2.929,7.678,0,10.607l2.98,2.98l-2.98,2.98C438.284,79.676,438.284,84.424,441.212,87.353z"/>
<path d="M405.1,81.265h16.566c4.143,0,7.5-3.357,7.5-7.5s-3.357-7.5-7.5-7.5H405.1c-4.143,0-7.5,3.357-7.5,7.5
	S400.958,81.265,405.1,81.265z"/>
<path d="M363.683,81.265h16.566c4.143,0,7.5-3.357,7.5-7.5s-3.357-7.5-7.5-7.5h-16.566c-4.143,0-7.5,3.357-7.5,7.5
	S359.541,81.265,363.683,81.265z"/>
<path d="M40.634,81.267h82.835c4.142,0,7.5-3.357,7.5-7.5s-3.358-7.5-7.5-7.5H40.634c-4.142,0-7.5,3.357-7.5,7.5
	S36.492,81.267,40.634,81.267z"/>
<path d="M397.941,353.612l28.694,16.566c1.182,0.682,2.471,1.006,3.743,1.006c2.592,0,5.113-1.345,6.502-3.751
	c2.071-3.587,0.842-8.174-2.745-10.245l-28.694-16.566c-3.589-2.07-8.175-0.844-10.245,2.745
	C393.125,346.954,394.354,351.541,397.941,353.612z"/>
<path d="M414.167,272.567c0,4.143,3.357,7.5,7.5,7.5H454.8c4.143,0,7.5-3.357,7.5-7.5s-3.357-7.5-7.5-7.5h-33.134
	C417.524,265.067,414.167,268.425,414.167,272.567z"/>
<path d="M401.698,205.518c1.272,0,2.563-0.324,3.743-1.006l28.694-16.567c3.587-2.071,4.816-6.658,2.745-10.245
	c-2.072-3.588-6.66-4.815-10.245-2.745l-28.694,16.567c-3.587,2.071-4.816,6.658-2.745,10.245
	C396.586,204.174,399.106,205.518,401.698,205.518z"/>
<path d="M57.201,280.066h33.133c4.142,0,7.5-3.357,7.5-7.5s-3.358-7.5-7.5-7.5H57.201c-4.142,0-7.5,3.357-7.5,7.5
	S53.059,280.066,57.201,280.066z"/>
<path d="M106.56,340.621l-28.695,16.566c-3.587,2.071-4.816,6.658-2.745,10.245c1.389,2.406,3.91,3.751,6.502,3.751
	c1.272,0,2.562-0.324,3.743-1.006l28.695-16.566c3.587-2.071,4.816-6.658,2.745-10.245
	C114.734,339.778,110.147,338.551,106.56,340.621z"/>
<path d="M77.866,187.944l28.694,16.566c1.181,0.682,2.471,1.006,3.743,1.006c2.592,0,5.113-1.345,6.502-3.751
	c2.071-3.587,0.842-8.174-2.745-10.245l-28.694-16.566c-3.588-2.071-8.174-0.844-10.245,2.745
	C73.05,181.286,74.279,185.873,77.866,187.944z"/>
<g>
</g>
<g>
</g>
<g>
</g>
<g>
</g>
<g>
</g>
<g>
</g>
<g>
</g>
<g>
</g>
<g>
</g>
<g>
</g>
<g>
</g>
<g>
</g>
<g>
</g>
<g>
</g>
<g>
</g>
</svg>
