<?xml version="1.0" encoding="iso-8859-1"?>
<!-- Generator: Adobe Illustrator 19.0.0, SVG Export Plug-In . SVG Version: 6.00 Build 0)  -->
<svg version="1.1" id="Capa_1" xmlns="http://www.w3.org/2000/svg" xmlns:xlink="http://www.w3.org/1999/xlink" x="0px" y="0px"
	 viewBox="0 0 512 512" style="enable-background:new 0 0 512 512;" xml:space="preserve">
<path style="fill:#DEF2FC;" d="M272.568,416.664V498.5c0,3.314-2.686,6-6,6h-21.133c-3.314,0-6-2.686-6-6v-81.836H272.568z"/>
<rect x="239.43" y="416.66" style="fill:#BCCED5;" width="33.13" height="25"/>
<path style="fill:#3B4F66;" d="M305.7,383.53v32.133c0,3.314-2.686,6-6,6h-87.4c-3.314,0-6-2.686-6-6V383.53H305.7z"/>
<path style="fill:#2C3B4D;" d="M285.7,383.53v32.133c0,3.314-2.686,6-6,6h20c3.314,0,6-2.686,6-6V383.53H285.7z"/>
<path style="fill:#E94141;" d="M396.817,371.966c0,9.15-7.417,16.568-16.567,16.568H131.751c-9.15,0-16.567-7.418-16.567-16.568
	V24.067c0-9.15,7.417-16.567,16.567-16.567h248.498c9.15,0,16.567,7.417,16.567,16.567L396.817,371.966L396.817,371.966z"/>
<path style="fill:#3B4F66;" d="M332.833,90.333H179.167c-3.314,0-6-2.686-6-6V63.2c0-3.314,2.686-6,6-6h153.666c3.314,0,6,2.686,6,6
	v21.133C338.833,87.647,336.147,90.333,332.833,90.333z"/>
<path style="fill:#DEF2FC;" d="M332.833,338.832H179.167c-3.314,0-6-2.686-6-6V179.166c0-3.314,2.686-6,6-6h153.666
	c3.314,0,6,2.686,6,6v153.666C338.833,336.146,336.147,338.832,332.833,338.832z"/>
<path style="fill:#BCCED5;" d="M332.833,173.166h-20c3.314,0,6,2.686,6,6v153.666c0,3.314-2.686,6-6,6h20c3.314,0,6-2.686,6-6
	V179.166C338.833,175.852,336.147,173.166,332.833,173.166z"/>
<path style="fill:#C62525;" d="M380.249,7.5h-20c9.15,0,16.568,7.417,16.568,16.567v347.898c0,9.15-7.418,16.568-16.568,16.568h20
	c9.15,0,16.568-7.418,16.568-16.568V24.067C396.817,14.917,389.399,7.5,380.249,7.5z"/>
<path d="M380.249,0H131.751c-13.271,0-24.067,10.797-24.067,24.067v149.099c0,4.143,3.357,7.5,7.5,7.5s7.5-3.357,7.5-7.5V139.25
	h266.633v232.716c0,5-4.067,9.067-9.067,9.067h-74.491c-0.02,0-0.039-0.003-0.058-0.003s-0.038,0.003-0.058,0.003h-99.284
	c-0.02,0-0.039-0.003-0.058-0.003c-0.019,0-0.038,0.003-0.058,0.003h-74.491c-5,0-9.067-4.067-9.067-9.067V203.114
	c0-4.143-3.357-7.5-7.5-7.5s-7.5,3.357-7.5,7.5v168.851c0,13.271,10.797,24.067,24.067,24.067H198.8v25.631
	c0,4.143,3.357,7.5,7.5,7.5h25.634V504.5c0,4.143,3.357,7.5,7.5,7.5h33.134c4.143,0,7.5-3.357,7.5-7.5v-75.336H305.7
	c4.143,0,7.5-3.357,7.5-7.5v-25.631h67.049c13.271,0,24.067-10.797,24.067-24.067V24.067C404.316,10.797,393.52,0,380.249,0z
	 M265.067,497h-18.134v-67.836h18.134V497z M298.2,414.164h-84.4v-18.131h84.4V414.164z M122.684,124.25V24.067
	c0-5,4.067-9.067,9.067-9.067h248.498c5,0,9.067,4.067,9.067,9.067V124.25H122.684z"/>
<path d="M355.4,49.699h-16.567H173.167h-16.566c-4.143,0-7.5,3.357-7.5,7.5s3.357,7.5,7.5,7.5h9.066v25.634
	c0,4.143,3.357,7.5,7.5,7.5h165.666c4.143,0,7.5-3.357,7.5-7.5V64.699h9.067c4.143,0,7.5-3.357,7.5-7.5S359.543,49.699,355.4,49.699
	z M331.333,82.833H180.667V64.699h150.666V82.833z"/>
<path d="M338.833,346.332c4.143,0,7.5-3.357,7.5-7.5V173.166c0-4.143-3.357-7.5-7.5-7.5H173.167c-4.143,0-7.5,3.357-7.5,7.5v165.666
	c0,4.143,3.357,7.5,7.5,7.5H338.833z M180.667,180.666h150.666v150.666H180.667V180.666z"/>
<path d="M214.583,306.481h-16.567c-4.143,0-7.5,3.357-7.5,7.5s3.357,7.5,7.5,7.5h16.567c4.143,0,7.5-3.357,7.5-7.5
	C222.083,309.839,218.726,306.481,214.583,306.481z"/>
<path d="M297.417,198.281h-82.834c-4.143,0-7.5,3.357-7.5,7.5s3.357,7.5,7.5,7.5h82.834c4.143,0,7.5-3.357,7.5-7.5
	C304.917,201.639,301.56,198.281,297.417,198.281z"/>
<path d="M297.417,231.932h-82.834c-4.143,0-7.5,3.357-7.5,7.5s3.357,7.5,7.5,7.5h82.834c4.143,0,7.5-3.357,7.5-7.5
	S301.56,231.932,297.417,231.932z"/>
<path d="M297.417,265.583h-82.834c-4.143,0-7.5,3.357-7.5,7.5s3.357,7.5,7.5,7.5h82.834c4.143,0,7.5-3.357,7.5-7.5
	S301.56,265.583,297.417,265.583z"/>
<g>
</g>
<g>
</g>
<g>
</g>
<g>
</g>
<g>
</g>
<g>
</g>
<g>
</g>
<g>
</g>
<g>
</g>
<g>
</g>
<g>
</g>
<g>
</g>
<g>
</g>
<g>
</g>
<g>
</g>
</svg>
