<?xml version="1.0" encoding="iso-8859-1"?>
<!-- Generator: Adobe Illustrator 19.0.0, SVG Export Plug-In . SVG Version: 6.00 Build 0)  -->
<svg version="1.1" id="Capa_1" xmlns="http://www.w3.org/2000/svg" xmlns:xlink="http://www.w3.org/1999/xlink" x="0px" y="0px"
	 viewBox="0 0 512 512" style="enable-background:new 0 0 512 512;" xml:space="preserve">
<path style="fill:#DEF2FC;" d="M460.398,498.5V89.987L377.565,7.5H135.066c-3.314,0-6,2.686-6,6v485c0,3.314,2.686,6,6,6h319.332
	C457.712,504.5,460.398,501.813,460.398,498.5z"/>
<path style="fill:#FFFFFF;" d="M383.911,89.987h76.488L377.911,7.5v76.488C377.911,87.301,380.597,89.987,383.911,89.987z"/>
<path style="fill:#BCCED5;" d="M460.398,89.987V498.5c0,3.314-2.686,6-6,6h-20c3.314,0,6-2.686,6-6V70.498L460.398,89.987z"/>
<path style="fill:#FCB043;" d="M213.897,272.268l-9.497,20.567c-1.015,2.199-3.253,3.572-5.673,3.48l-22.638-0.853
	c-2.005-0.076-3.839-1.148-4.888-2.858L52.645,99.346c-0.679-1.107-0.98-2.403-0.86-3.696l2.925-31.28
	c0.372-3.983,4.464-6.493,8.183-5.02l29.21,11.567c1.207,0.478,2.226,1.335,2.905,2.441l118.556,193.258
	C214.613,268.326,214.738,270.447,213.897,272.268z"/>
<path d="M460.399,313.195c4.143,0,7.5-3.358,7.5-7.5V89.987c0-0.084-0.01-0.166-0.013-0.25c-0.003-0.087-0.007-0.174-0.013-0.262
	c-0.021-0.313-0.056-0.622-0.115-0.923c-0.003-0.011-0.003-0.023-0.005-0.035c-0.066-0.331-0.158-0.65-0.265-0.964
	c-0.021-0.06-0.043-0.118-0.065-0.178c-0.109-0.294-0.233-0.581-0.377-0.856c-0.011-0.02-0.019-0.041-0.03-0.062
	c-0.156-0.291-0.333-0.567-0.525-0.834c-0.044-0.062-0.09-0.121-0.136-0.182c-0.2-0.262-0.412-0.516-0.645-0.749
	c-0.003-0.003-0.005-0.007-0.008-0.01L383.215,2.196c-1.438-1.437-3.36-2.182-5.315-2.179C377.788,0.012,377.678,0,377.565,0h-248.5
	c-4.143,0-7.5,3.357-7.5,7.5v94.806l-21.21-34.575c-0.849-1.383-2.122-2.454-3.631-3.052L58.217,49.431
	c-0.044-0.017-0.089-0.028-0.134-0.044c-0.173-0.065-0.348-0.121-0.525-0.173c-0.085-0.025-0.17-0.052-0.255-0.074
	c-0.23-0.059-0.463-0.106-0.698-0.143c-0.029-0.005-0.057-0.012-0.086-0.016c-0.271-0.039-0.545-0.061-0.82-0.071
	c-0.048-0.001-0.096,0.001-0.144,0.001c-0.225-0.003-0.45,0.003-0.675,0.02c-0.066,0.005-0.131,0.013-0.196,0.02
	c-0.208,0.021-0.416,0.051-0.624,0.09c-0.068,0.013-0.136,0.026-0.203,0.041c-0.204,0.045-0.406,0.099-0.607,0.161
	c-0.066,0.021-0.133,0.039-0.198,0.061c-0.204,0.069-0.405,0.15-0.604,0.238c-0.058,0.025-0.117,0.046-0.174,0.073
	c-0.251,0.118-0.499,0.248-0.74,0.396c-0.24,0.147-0.467,0.308-0.685,0.478c-0.057,0.044-0.109,0.093-0.165,0.139
	c-0.159,0.132-0.314,0.266-0.46,0.409c-0.058,0.056-0.112,0.116-0.168,0.174c-0.136,0.141-0.266,0.286-0.39,0.436
	c-0.053,0.064-0.104,0.129-0.154,0.195c-0.118,0.154-0.229,0.312-0.334,0.473c-0.045,0.068-0.09,0.136-0.132,0.206
	c-0.105,0.174-0.201,0.352-0.291,0.533c-0.031,0.062-0.066,0.122-0.095,0.185c-0.112,0.242-0.214,0.489-0.3,0.741
	c-0.017,0.05-0.028,0.103-0.045,0.154c-0.065,0.204-0.123,0.409-0.17,0.618c-0.021,0.094-0.036,0.19-0.054,0.286
	c-0.032,0.174-0.06,0.348-0.08,0.524c-0.006,0.049-0.018,0.096-0.022,0.145l-3.856,41.237c-0.15,1.615,0.227,3.236,1.075,4.62
	l8.678,14.146c0.004,0.006,0.007,0.011,0.01,0.017l38.972,63.528c0.004,0.007,0.008,0.013,0.012,0.02l28.75,46.866
	c-0.038,0.304-0.063,0.612-0.063,0.927V504.5c0,4.142,3.357,7.5,7.5,7.5h331.332c4.143,0,7.5-3.358,7.5-7.5V335.643
	c0-4.143-3.357-7.5-7.5-7.5s-7.5,3.357-7.5,7.5V497H136.565V250.488l29.922,48.776c1.311,2.138,3.604,3.478,6.11,3.573l25.833,0.973
	l16.879,27.514h-36.545c-4.143,0-7.5,3.357-7.5,7.5s3.357,7.5,7.5,7.5h49.831c0.042,0.001,0.083,0.008,0.124,0.008
	c0.161,0,0.323-0.022,0.485-0.033c0.11-0.007,0.221-0.01,0.33-0.022c0.165-0.018,0.329-0.046,0.494-0.075
	c0.135-0.024,0.268-0.052,0.4-0.082c0.149-0.035,0.298-0.07,0.446-0.115c0.23-0.069,0.455-0.149,0.676-0.24
	c0.124-0.051,0.246-0.11,0.368-0.168c0.184-0.087,0.365-0.181,0.541-0.282c0.058-0.034,0.118-0.057,0.176-0.092
	c0.068-0.042,0.129-0.09,0.195-0.133c0.058-0.039,0.115-0.078,0.172-0.118c0.15-0.105,0.296-0.213,0.436-0.326
	c0.039-0.031,0.076-0.065,0.115-0.097c0.152-0.128,0.299-0.26,0.438-0.398c0.025-0.024,0.048-0.05,0.072-0.075
	c0.145-0.148,0.285-0.3,0.416-0.458c0.022-0.027,0.043-0.055,0.065-0.082c0.127-0.158,0.249-0.318,0.362-0.484
	c0.029-0.043,0.056-0.088,0.085-0.132c0.099-0.153,0.195-0.306,0.283-0.465c0.039-0.071,0.074-0.144,0.111-0.216
	c0.07-0.137,0.138-0.273,0.199-0.414c0.042-0.097,0.079-0.197,0.118-0.296c0.047-0.122,0.094-0.244,0.135-0.368
	c0.037-0.112,0.068-0.228,0.1-0.342c0.033-0.119,0.065-0.238,0.092-0.358c0.026-0.115,0.046-0.231,0.066-0.348
	c0.022-0.129,0.043-0.257,0.059-0.386c0.013-0.108,0.022-0.218,0.03-0.327c0.011-0.143,0.019-0.285,0.022-0.429
	c0.001-0.048,0.007-0.095,0.007-0.144c0-0.058-0.007-0.114-0.009-0.171c-0.003-0.142-0.01-0.283-0.021-0.424
	c-0.009-0.116-0.021-0.23-0.035-0.345c-0.015-0.121-0.034-0.241-0.055-0.361c-0.023-0.134-0.05-0.267-0.081-0.399
	c-0.022-0.096-0.047-0.191-0.073-0.287c-0.042-0.154-0.089-0.306-0.141-0.456c-0.024-0.071-0.051-0.142-0.078-0.212
	c-0.065-0.172-0.136-0.341-0.214-0.507c-0.024-0.051-0.048-0.102-0.073-0.152c-0.09-0.182-0.187-0.359-0.291-0.533
	c-0.013-0.022-0.023-0.046-0.037-0.068l-13.32-21.714H410.7c4.143,0,7.5-3.358,7.5-7.5c0-4.143-3.357-7.5-7.5-7.5H212.583
	l-1.367-2.229l7.342-15.9h192.143c4.143,0,7.5-3.357,7.5-7.5c0-4.142-3.357-7.5-7.5-7.5H221.412l-11.128-18.14H410.7
	c4.143,0,7.5-3.357,7.5-7.5s-3.357-7.5-7.5-7.5H201.083l-1.07-1.744c-0.01-0.017-0.02-0.033-0.03-0.049L189.962,213.8H410.7
	c4.143,0,7.5-3.357,7.5-7.5s-3.357-7.5-7.5-7.5H180.76l-19.732-32.166c-0.009-0.014-0.017-0.028-0.026-0.043l-24.436-39.834V15
	h233.846v74.987c0,4.143,3.357,7.5,7.5,7.5h74.987v208.208C452.899,309.838,456.257,313.195,460.399,313.195z M185.095,234.552
	l-4.962,10.747l-5.68-9.258c-0.004-0.006-0.007-0.012-0.011-0.018l-23.865-38.903l4.962-10.748L185.095,234.552z M112.967,183.335
	l11.831,0.447l10.86,17.703c0.011,0.018,0.022,0.035,0.033,0.053l18.663,30.423l-11.831-0.447L112.967,183.335z M76.387,104.867
	l-11.831-0.447l-5.257-8.57l1.529-16.346L76.387,104.867z M85.814,120.235l10.861,17.705c0.01,0.017,0.02,0.033,0.03,0.049
	l18.665,30.425l-11.831-0.447l-29.556-48.179L85.814,120.235z M141.15,181.752l-5.678-9.256c-0.005-0.007-0.009-0.015-0.014-0.022
	l-23.864-38.901l4.962-10.748l29.556,48.18L141.15,181.752z M107.128,107.457l-4.962,10.748l-5.677-9.254
	c-0.005-0.009-0.011-0.018-0.016-0.026l-22.86-37.263l15.263,6.044L107.128,107.457z M177.174,287.998l-25.223-41.116l11.831,0.447
	l10.859,17.701c0.011,0.019,0.023,0.038,0.035,0.057l14.329,23.357L177.174,287.998z M189.56,260.666l4.962-10.747l12.229,19.935
	l-4.962,10.746L189.56,260.666z M385.411,82.487V25.606l56.882,56.881H385.411z"/>
<path d="M344.434,97.833c4.143,0,7.5-3.357,7.5-7.5V57.198c0-4.143-3.357-7.5-7.5-7.5h-99.402c-4.143,0-7.5,3.357-7.5,7.5v33.135
	c0,4.143,3.357,7.5,7.5,7.5H344.434z M252.531,64.698h84.402v18.135h-84.402L252.531,64.698L252.531,64.698z"/>
<path d="M410.7,132.533H178.765c-4.143,0-7.5,3.357-7.5,7.5s3.357,7.5,7.5,7.5h231.936c4.143,0,7.5-3.357,7.5-7.5
	C418.2,135.891,414.843,132.533,410.7,132.533z"/>
<path d="M410.7,165.661H178.765c-4.143,0-7.5,3.357-7.5,7.5s3.357,7.5,7.5,7.5h231.936c4.143,0,7.5-3.357,7.5-7.5
	C418.2,169.018,414.843,165.661,410.7,165.661z"/>
<g>
</g>
<g>
</g>
<g>
</g>
<g>
</g>
<g>
</g>
<g>
</g>
<g>
</g>
<g>
</g>
<g>
</g>
<g>
</g>
<g>
</g>
<g>
</g>
<g>
</g>
<g>
</g>
<g>
</g>
</svg>
