<?xml version="1.0" encoding="iso-8859-1"?>
<!-- Generator: Adobe Illustrator 19.0.0, SVG Export Plug-In . SVG Version: 6.00 Build 0)  -->
<svg version="1.1" id="Capa_1" xmlns="http://www.w3.org/2000/svg" xmlns:xlink="http://www.w3.org/1999/xlink" x="0px" y="0px"
	 viewBox="0 0 512 512" style="enable-background:new 0 0 512 512;" xml:space="preserve">
<path style="fill:#FCB043;" d="M487.932,140.029c9.15,0,16.568,7.418,16.568,16.568v298.199c0,9.15-7.418,16.568-16.568,16.568
	h-86.975H111.042H24.067c-9.15,0-16.567-7.418-16.567-16.568V156.598c0-9.15,7.417-16.568,16.567-16.568H487.932z"/>
<path style="fill:#EF9122;" d="M484.5,156.598v298.199c0,9.15-7.418,16.568-16.568,16.568h20c9.15,0,16.568-7.418,16.568-16.568
	V156.598c0-9.15-7.418-16.568-16.568-16.568h-20C477.082,140.029,484.5,147.447,484.5,156.598z"/>
<path style="fill:#FFCE94;" d="M503.106,149.957c-2.177-4.967-6.716-8.651-12.198-9.647H21.091
	c-5.482,0.996-10.021,4.681-12.197,9.648c0.014,0.01,0.026,0.022,0.039,0.032l242.626,178.315c1.321,0.971,2.881,1.457,4.441,1.457
	s3.12-0.485,4.441-1.457L503.065,149.99C503.08,149.98,503.092,149.968,503.106,149.957z"/>
<path style="fill:#FCB043;" d="M503.066,149.99c0.014-0.01,0.026-0.023,0.04-0.033c-0.148-0.339-0.31-0.67-0.48-0.997
	c-0.106-0.204-0.219-0.404-0.333-0.603c-0.115-0.2-0.235-0.395-0.358-0.59c-0.184-0.292-0.377-0.577-0.579-0.855
	c-0.135-0.187-0.271-0.372-0.414-0.553c-0.147-0.187-0.298-0.371-0.453-0.552c-0.152-0.177-0.311-0.347-0.47-0.517
	c-0.248-0.265-0.505-0.522-0.77-0.771c-0.138-0.129-0.277-0.256-0.419-0.381c-0.192-0.168-0.384-0.335-0.583-0.494
	c-0.263-0.21-0.533-0.411-0.809-0.605c-0.221-0.155-0.449-0.302-0.678-0.446c-0.129-0.082-0.261-0.16-0.392-0.238
	c-0.418-0.248-0.848-0.477-1.289-0.688c-0.105-0.051-0.209-0.104-0.316-0.152c-0.266-0.12-0.535-0.233-0.808-0.34
	c-0.105-0.041-0.212-0.077-0.318-0.116c-0.484-0.177-0.978-0.333-1.481-0.466c-0.12-0.032-0.241-0.064-0.362-0.093
	c-0.293-0.07-0.588-0.136-0.887-0.19l0,0h-20c7.728,1.403,13.592,8.154,13.592,16.286v7.038L503.066,149.99z"/>
<path style="fill:#DEF2FC;" d="M117.466,438.233H46.633c-3.314,0-6-2.686-6-6V361.4c0-3.314,2.686-6,6-6h70.833c3.314,0,6,2.686,6,6
	v70.833C123.466,435.547,120.78,438.233,117.466,438.233z"/>
<path style="fill:#04A1EE;" d="M92.617,413.384H71.482c-3.314,0-6-2.686-6-6v-21.135c0-3.314,2.686-6,6-6h21.135
	c3.314,0,6,2.686,6,6v21.135C98.617,410.698,95.931,413.384,92.617,413.384z"/>
<path style="fill:#DEF2FC;" d="M350.853,122.332l-14.831-3.708c-1.893-7.096-4.712-13.809-8.307-20.019l7.875-13.124
	c1.417-2.361,1.045-5.383-0.902-7.33l-16.804-16.804c-1.947-1.947-4.969-2.319-7.33-0.902l-13.124,7.874
	c-6.21-3.596-12.923-6.414-20.018-8.307l-3.708-14.832c-0.668-2.671-3.068-4.545-5.821-4.545h-23.764
	c-2.753,0-5.153,1.874-5.821,4.545l-3.708,14.833c-7.095,1.894-13.807,4.712-20.017,8.307l-13.127-7.876
	c-2.361-1.417-5.383-1.045-7.329,0.902L177.313,78.15c-1.947,1.947-2.319,4.969-0.902,7.329l7.876,13.127
	c-3.595,6.209-6.413,12.921-8.306,20.015l-14.835,3.709c-2.671,0.668-4.545,3.068-4.545,5.821v23.764
	c0,2.753,1.874,5.153,4.545,5.821l14.835,3.709c1.893,7.094,4.711,13.806,8.305,20.015l-7.877,13.128
	c-1.417,2.361-1.045,5.383,0.902,7.33l16.804,16.804c1.947,1.947,4.969,2.319,7.329,0.902l13.128-7.876
	c6.209,3.595,12.921,6.413,20.015,8.307l3.708,14.835c0.668,2.671,3.068,4.545,5.821,4.545h23.764c2.753,0,5.153-1.874,5.821-4.545
	l3.708-14.833c7.094-1.893,13.807-4.711,20.017-8.306l13.126,7.876c2.361,1.417,5.383,1.044,7.33-0.902l16.804-16.804
	c1.947-1.947,2.319-4.969,0.902-7.329l-7.875-13.125c3.596-6.21,6.414-12.923,8.308-20.018l14.832-3.708
	c2.671-0.668,4.545-3.068,4.545-5.821v-23.764C355.398,125.4,353.524,123,350.853,122.332z M256.001,156.598
	c-9.148,0-16.565-7.416-16.565-16.565s7.416-16.565,16.565-16.565c9.149,0,16.565,7.416,16.565,16.565
	S265.149,156.598,256.001,156.598z"/>
<path style="fill:#3B4F66;" d="M256.001,98.618c-22.873,0-41.415,18.542-41.415,41.415s18.542,41.415,41.415,41.415
	c22.873,0,41.415-18.542,41.415-41.415S278.874,98.618,256.001,98.618z M256.001,156.598c-9.148,0-16.565-7.416-16.565-16.565
	s7.416-16.565,16.565-16.565c9.149,0,16.565,7.416,16.565,16.565S265.149,156.598,256.001,156.598z"/>
<g>
	<path style="fill:#BCCED5;" d="M330.498,186.105l-12.616,12.616c-1.947,1.947-4.969,2.319-7.33,0.902l-13.126-7.876
		c-6.21,3.595-12.923,6.413-20.017,8.306l-3.708,14.833c-0.668,2.671-3.068,4.545-5.821,4.545h-23.764
		c-2.753,0-5.153-1.874-5.821-4.545l-3.708-14.835c-7.094-1.894-13.806-4.712-20.015-8.307l-13.128,7.876
		c-2.361,1.417-5.383,1.044-7.329-0.902l-12.616-12.616l-5.09,8.483c-1.417,2.361-1.045,5.383,0.902,7.33l16.804,16.804
		c1.947,1.947,4.969,2.319,7.329,0.902l13.128-7.876c6.209,3.595,12.921,6.413,20.015,8.307l3.708,14.835
		c0.668,2.671,3.068,4.545,5.821,4.545h23.764c2.753,0,5.153-1.874,5.821-4.545l3.708-14.833c7.094-1.893,13.807-4.711,20.017-8.306
		l13.126,7.876c2.361,1.417,5.383,1.044,7.33-0.902l16.804-16.804c1.947-1.947,2.319-4.969,0.902-7.329L330.498,186.105z"/>
	<path style="fill:#BCCED5;" d="M175.98,141.443l-14.835-3.709c-2.671-0.668-4.545-3.068-4.545-5.821v20
		c0,2.753,1.874,5.153,4.545,5.821l14.835,3.709c0.032,0.121,0.069,0.24,0.102,0.361C174.58,151.218,175.98,141.443,175.98,141.443z
		"/>
	<path style="fill:#BCCED5;" d="M350.853,137.738l-14.829,3.707c0.003,0.021,1.397,9.774-0.1,20.344
		c0.031-0.115,0.066-0.228,0.097-0.343l14.832-3.708c2.671-0.668,4.545-3.068,4.545-5.821v-20
		C355.398,134.671,353.524,137.07,350.853,137.738z"/>
</g>
<path d="M40.633,347.901c-4.143,0-7.5,3.358-7.5,7.5v82.833c0,4.142,3.357,7.5,7.5,7.5h82.833c4.143,0,7.5-3.358,7.5-7.5v-82.833
	c0-4.142-3.357-7.5-7.5-7.5H40.633z M115.966,430.734H48.133v-67.833h67.833V430.734z"/>
<path d="M65.482,420.885h33.135c4.143,0,7.5-3.358,7.5-7.5V380.25c0-4.142-3.357-7.5-7.5-7.5H65.482c-4.143,0-7.5,3.358-7.5,7.5
	v33.135C57.982,417.527,61.34,420.885,65.482,420.885z M72.982,387.75h18.135v18.135H72.982V387.75z"/>
<path d="M206.299,364.466H156.6c-4.143,0-7.5,3.358-7.5,7.5s3.357,7.5,7.5,7.5h49.699c4.143,0,7.5-3.358,7.5-7.5
	C213.799,367.824,210.441,364.466,206.299,364.466z"/>
<path d="M206.299,397.602h-49.697c-4.143,0-7.5,3.358-7.5,7.5s3.357,7.5,7.5,7.5h49.697c4.143,0,7.5-3.358,7.5-7.5
	C213.799,400.96,210.441,397.602,206.299,397.602z"/>
<path d="M231.15,397.602c-4.143,0-7.5,3.358-7.5,7.5s3.357,7.5,7.5,7.5H256c4.143,0,7.5-3.358,7.5-7.5s-3.357-7.5-7.5-7.5H231.15z"
	/>
<path d="M256.001,164.098c13.27,0,24.064-10.795,24.064-24.065s-10.795-24.065-24.064-24.065c-13.27,0-24.066,10.795-24.066,24.065
	S242.731,164.098,256.001,164.098z M256.001,130.968c4.998,0,9.064,4.066,9.064,9.065s-4.066,9.065-9.064,9.065
	c-4.999,0-9.066-4.066-9.066-9.065S251.002,130.968,256.001,130.968z"/>
<path d="M256.001,188.947c26.972,0,48.914-21.943,48.914-48.915s-21.942-48.914-48.914-48.914s-48.915,21.943-48.915,48.914
	S229.029,188.947,256.001,188.947z M256.001,106.118c18.7,0,33.914,15.214,33.914,33.914s-15.214,33.915-33.914,33.915
	c-18.701,0-33.915-15.214-33.915-33.915S237.3,106.118,256.001,106.118z"/>
<path d="M503.759,138.488c-0.133-0.125-0.271-0.242-0.411-0.356c-4.179-3.494-9.555-5.602-15.415-5.602H362.897v-9.062
	c0-3.441-2.342-6.441-5.681-7.276l-15.213-3.803c-1.503-4.672-3.392-9.224-5.648-13.607l8.076-13.459
	c1.77-2.951,1.306-6.729-1.128-9.162l-23.429-23.429c-2.433-2.432-6.211-2.899-9.162-1.128l-13.46,8.075
	c-4.383-2.256-8.935-4.146-13.606-5.648l-3.803-15.214c-0.835-3.339-3.835-5.681-7.276-5.681h-33.134
	c-3.441,0-6.441,2.342-7.276,5.681l-3.803,15.215c-4.671,1.502-9.222,3.392-13.606,5.647l-13.462-8.077
	c-2.95-1.771-6.729-1.305-9.162,1.128l-23.429,23.429c-2.433,2.434-2.898,6.211-1.128,9.162l8.077,13.462
	c-2.255,4.382-4.143,8.933-5.646,13.603l-15.218,3.805c-3.339,0.834-5.681,3.834-5.681,7.276v9.065H24.067
	c-5.731,0-10.998,2.017-15.137,5.374c-0.012,0.009-0.024,0.019-0.036,0.028c-0.07,0.057-0.141,0.114-0.21,0.172
	c-0.157,0.126-0.31,0.257-0.458,0.397C3.19,142.915,0,149.389,0,156.598v298.199c0,13.271,10.797,24.067,24.067,24.067h367.234
	c4.143,0,7.5-3.358,7.5-7.5s-3.357-7.5-7.5-7.5H24.067c-5,0-9.067-4.067-9.067-9.067V156.598c0-0.681,0.082-1.343,0.225-1.982
	l236.334,173.691c1.321,0.971,2.881,1.457,4.441,1.457s3.12-0.485,4.441-1.457l236.333-173.692c0.143,0.639,0.225,1.301,0.225,1.983
	v298.199c0,5-4.067,9.067-9.067,9.067H421.25c-4.143,0-7.5,3.358-7.5,7.5s3.357,7.5,7.5,7.5h66.683
	c13.271,0,24.067-10.796,24.067-24.067V156.598C512,149.382,508.804,142.904,503.759,138.488z M164.101,129.322l13.699-3.425
	c2.645-0.661,4.724-2.707,5.427-5.342c1.692-6.341,4.233-12.461,7.551-18.191c1.366-2.361,1.344-5.277-0.059-7.617l-7.273-12.123
	l15.146-15.147l12.123,7.274c2.338,1.404,5.255,1.427,7.616,0.06c5.732-3.318,11.854-5.859,18.193-7.552
	c2.636-0.703,4.681-2.781,5.343-5.427l3.424-13.696h21.421l3.424,13.696c0.662,2.646,2.707,4.724,5.343,5.428
	c6.341,1.692,12.462,4.233,18.194,7.552c2.361,1.367,5.277,1.344,7.616-0.06l12.12-7.272l15.147,15.148l-7.272,12.12
	c-1.403,2.339-1.426,5.256-0.059,7.617c3.318,5.732,5.859,11.854,7.552,18.195c0.703,2.635,2.781,4.681,5.427,5.342l13.694,3.424
	v21.422l-13.695,3.424c-2.645,0.661-4.724,2.707-5.427,5.341c-1.693,6.343-4.234,12.464-7.553,18.195
	c-1.367,2.361-1.345,5.278,0.059,7.617l7.272,12.121l-15.147,15.148l-12.122-7.273c-2.338-1.404-5.255-1.427-7.616-0.06
	c-5.732,3.318-11.853,5.858-18.192,7.55c-2.636,0.704-4.681,2.782-5.343,5.427l-3.424,13.697h-21.423l-3.424-13.699
	c-0.662-2.646-2.707-4.724-5.342-5.427c-6.341-1.693-12.461-4.233-18.191-7.551c-2.358-1.367-5.276-1.345-7.616,0.059l-12.123,7.274
	l-15.147-15.147l7.274-12.124c1.403-2.339,1.426-5.256,0.059-7.617c-3.316-5.729-5.857-11.85-7.55-18.191
	c-0.703-2.635-2.781-4.681-5.427-5.342l-13.698-3.425L164.101,129.322L164.101,129.322z M256,312.956L30.912,147.531H149.1v9.069
	c0,3.441,2.342,6.441,5.681,7.276l15.217,3.804c1.503,4.67,3.392,9.221,5.646,13.603l-8.078,13.464
	c-1.771,2.951-1.305,6.728,1.128,9.162l23.429,23.429c2.434,2.433,6.211,2.9,9.162,1.128l13.463-8.077
	c4.382,2.255,8.933,4.145,13.603,5.647l3.804,15.218c0.835,3.339,3.835,5.681,7.276,5.681h33.134c3.441,0,6.441-2.342,7.276-5.681
	l3.804-15.216c4.67-1.502,9.221-3.391,13.604-5.647l13.462,8.077c2.952,1.772,6.729,1.305,9.162-1.128l23.429-23.429
	c2.433-2.434,2.898-6.211,1.128-9.162l-8.076-13.46c2.256-4.383,4.146-8.935,5.649-13.606l15.215-3.804
	c3.339-0.835,5.681-3.835,5.681-7.276v-9.072h118.188L256,312.956z"/>
<g>
</g>
<g>
</g>
<g>
</g>
<g>
</g>
<g>
</g>
<g>
</g>
<g>
</g>
<g>
</g>
<g>
</g>
<g>
</g>
<g>
</g>
<g>
</g>
<g>
</g>
<g>
</g>
<g>
</g>
</svg>
