<?xml version="1.0" encoding="iso-8859-1"?>
<!-- Generator: Adobe Illustrator 19.0.0, SVG Export Plug-In . SVG Version: 6.00 Build 0)  -->
<svg version="1.1" id="Capa_1" xmlns="http://www.w3.org/2000/svg" xmlns:xlink="http://www.w3.org/1999/xlink" x="0px" y="0px"
	 viewBox="0 0 512 512" style="enable-background:new 0 0 512 512;" xml:space="preserve">
<path style="fill:#FCB043;" d="M487.932,173.163c9.15,0,16.568,7.418,16.568,16.568V487.93c0,9.15-7.418,16.568-16.568,16.568
	h-86.975H111.042H24.067c-9.15,0-16.567-7.418-16.567-16.568v-298.2c0-9.15,7.417-16.568,16.567-16.568h463.865V173.163z"/>
<g>
	<path style="fill:#EF9122;" d="M13.378,177.083l239.069,175.701c2.114,1.554,4.992,1.554,7.106,0l239.068-175.702
		c-2.886-2.441-6.613-3.92-10.689-3.92H24.067C19.991,173.163,16.264,174.642,13.378,177.083z"/>
	<path style="fill:#EF9122;" d="M484.5,189.73v298.2c0,9.15-7.418,16.568-16.568,16.568h20c9.15,0,16.568-7.418,16.568-16.568
		v-298.2c0-9.15-7.418-16.568-16.568-16.568h-20C477.082,173.163,484.5,180.581,484.5,189.73z"/>
</g>
<path style="fill:#D16619;" d="M484.344,187.576l14.277-10.493l0,0c-0.278-0.235-0.57-0.453-0.863-0.67
	c-0.11-0.081-0.217-0.167-0.329-0.246c-0.265-0.186-0.54-0.358-0.816-0.529c-0.155-0.096-0.309-0.193-0.468-0.284
	c-0.258-0.148-0.524-0.286-0.791-0.421c-0.192-0.096-0.385-0.191-0.581-0.28c-0.252-0.115-0.508-0.223-0.766-0.326
	c-0.228-0.09-0.459-0.173-0.691-0.253c-0.242-0.084-0.485-0.165-0.732-0.238c-0.268-0.078-0.541-0.145-0.815-0.21
	c-0.225-0.054-0.449-0.111-0.678-0.155c-0.326-0.063-0.658-0.108-0.99-0.151c-0.188-0.025-0.373-0.059-0.563-0.077
	c-0.528-0.051-1.063-0.081-1.604-0.081h-20C476.35,173.163,483.286,179.446,484.344,187.576z"/>
<path style="fill:#DEF2FC;" d="M117.466,471.366H46.633c-3.314,0-6-2.686-6-6v-70.833c0-3.314,2.686-6,6-6h70.833
	c3.314,0,6,2.686,6,6v70.833C123.466,468.68,120.779,471.366,117.466,471.366z"/>
<path style="fill:#04A1EE;" d="M92.617,446.517H71.482c-3.314,0-6-2.686-6-6v-21.135c0-3.314,2.686-6,6-6h21.135
	c3.314,0,6,2.686,6,6v21.135C98.617,443.831,95.931,446.517,92.617,446.517z"/>
<path style="fill:#DEF2FC;" d="M421.666,233.641V13.503c0-3.314-2.686-6-6-6H96.334c-3.314,0-6,2.686-6,6v220.139l162.113,119.143
	c2.114,1.554,4.992,1.554,7.106,0L421.666,233.641z"/>
<path style="fill:#BCCED5;" d="M415.666,7.503h-20c3.314,0,6,2.686,6,6V248.34l20-14.699V13.503
	C421.666,10.189,418.98,7.503,415.666,7.503z"/>
<polygon style="fill:#04A1EE;" points="346.159,289.134 165.841,289.134 123.468,257.993 123.468,40.635 388.533,40.635 
	388.533,257.992 "/>
<circle style="fill:#FCB043;" cx="181.45" cy="98.62" r="24.85"/>
<path style="fill:#54CC4E;" d="M388.532,156.603l-45.458-45.458c-2.343-2.343-6.142-2.343-8.485,0l-66.064,66.063
	c-2.343,2.343-6.142,2.343-8.485,0l-32.931-32.931c-2.343-2.343-6.142-2.343-8.485,0l-95.156,95.155v18.559l42.373,31.142h180.318
	l42.374-31.142L388.532,156.603z"/>
<path d="M40.633,381.034c-4.142,0-7.5,3.357-7.5,7.5v82.832c0,4.142,3.358,7.5,7.5,7.5h82.833c4.142,0,7.5-3.358,7.5-7.5v-82.832
	c0-4.143-3.358-7.5-7.5-7.5H40.633z M115.966,463.866H48.133v-67.832h67.833V463.866z"/>
<path d="M65.482,454.017h33.135c4.142,0,7.5-3.357,7.5-7.5v-33.135c0-4.143-3.358-7.5-7.5-7.5H65.482c-4.142,0-7.5,3.357-7.5,7.5
	v33.135C57.982,450.66,61.34,454.017,65.482,454.017z M72.982,420.882h18.135v18.135H72.982V420.882z"/>
<path d="M206.299,397.598h-49.7c-4.142,0-7.5,3.357-7.5,7.5s3.358,7.5,7.5,7.5h49.7c4.142,0,7.5-3.357,7.5-7.5
	S210.441,397.598,206.299,397.598z"/>
<path d="M206.299,430.734h-49.698c-4.142,0-7.5,3.357-7.5,7.5s3.358,7.5,7.5,7.5h49.698c4.142,0,7.5-3.357,7.5-7.5
	S210.441,430.734,206.299,430.734z"/>
<path d="M231.15,430.734c-4.142,0-7.5,3.357-7.5,7.5s3.358,7.5,7.5,7.5H256c4.143,0,7.5-3.357,7.5-7.5s-3.357-7.5-7.5-7.5H231.15z"
	/>
<path d="M181.452,130.969c17.838,0,32.35-14.513,32.35-32.351s-14.512-32.351-32.35-32.351s-32.351,14.513-32.351,32.351
	S163.613,130.969,181.452,130.969z M181.452,81.268c9.567,0,17.35,7.783,17.35,17.351s-7.783,17.351-17.35,17.351
	s-17.351-7.783-17.351-17.351S171.885,81.268,181.452,81.268z"/>
<path d="M503.759,171.622c-0.134-0.126-0.273-0.244-0.414-0.359c-4.178-3.493-9.553-5.6-15.413-5.6h-58.767V7.502
	c0-4.143-3.357-7.5-7.5-7.5H90.334c-4.142,0-7.5,3.357-7.5,7.5v158.16H24.067c-5.732,0-11,2.018-15.139,5.376
	c-0.01,0.007-0.019,0.015-0.028,0.022c-0.073,0.059-0.146,0.118-0.218,0.178c-0.156,0.126-0.309,0.256-0.457,0.396
	C3.189,176.049,0,182.522,0,189.73V487.93c0,13.272,10.796,24.068,24.067,24.068h367.234c4.143,0,7.5-3.357,7.5-7.5
	s-3.357-7.5-7.5-7.5H24.067c-5,0-9.067-4.068-9.067-9.068V189.73c0-0.681,0.082-1.343,0.225-1.982l236.334,173.691
	c1.321,0.972,2.881,1.457,4.441,1.457s3.12-0.485,4.441-1.457l236.333-173.692c0.143,0.639,0.225,1.301,0.225,1.983V487.93
	c0,5-4.067,9.068-9.067,9.068H421.25c-4.143,0-7.5,3.357-7.5,7.5s3.357,7.5,7.5,7.5h66.683c13.271,0,24.067-10.797,24.067-24.068
	V189.73C512,182.515,508.804,176.037,503.759,171.622z M481.086,180.663l-51.92,38.158v-38.158H481.086z M97.834,15.002h316.332
	v214.843l-18.134,13.327v-86.564c0-0.003,0-0.007,0-0.01V48.134h0.784c4.143,0,7.5-3.357,7.5-7.5s-3.357-7.5-7.5-7.5h-8.284H123.468
	h-8.285c-4.142,0-7.5,3.357-7.5,7.5s3.358,7.5,7.5,7.5h0.785V239.43c0,0.002,0,0.003,0,0.005v3.738l-18.134-13.327V15.002z
	 M343.699,281.634H168.3l-37.332-27.437V242.54l91.899-91.898l94.096,94.098c1.465,1.464,3.384,2.196,5.304,2.196
	c1.919,0,3.839-0.732,5.304-2.196c2.929-2.93,2.929-7.678,0-10.607l-52.681-52.681l63.943-63.942l42.2,42.201v94.486
	L343.699,281.634z M381.032,138.496L344.136,101.6c-2.929-2.927-7.677-2.929-10.607,0l-69.247,69.245l-36.112-36.112
	c-2.929-2.928-7.678-2.928-10.606,0l-86.596,86.594V48.134h250.064V138.496z M82.834,218.822l-51.922-38.16h51.922V218.822z
	 M256,346.089l-67.29-49.454h134.58L256,346.089z"/>
<g>
</g>
<g>
</g>
<g>
</g>
<g>
</g>
<g>
</g>
<g>
</g>
<g>
</g>
<g>
</g>
<g>
</g>
<g>
</g>
<g>
</g>
<g>
</g>
<g>
</g>
<g>
</g>
<g>
</g>
</svg>
