<?xml version="1.0"?>
<svg xmlns="http://www.w3.org/2000/svg" height="512px" viewBox="0 -32 502 502" width="512px" class=""><g><path d="m488 433.757812h-474c-5.523438 0-10-4.480468-10-10v-409.757812c0-5.523438 4.476562-10 10-10h474c5.523438 0 10 4.476562 10 10v409.757812c0 5.523438-4.476562 10-10 10zm0 0" fill="#f85252" data-original="#F85252" class="" style="fill:#FF5A5A" data-old_color="#F85252"/><path d="m498 74.359375v349.398437c0 5.519532-4.480469 10-10 10h-474c-5.519531 0-10-4.480468-10-10v-409.761718c0-5.519532 4.480469-10 10-10h119.898438l51.023437 63.402344c3.539063 4.398437 8.898437 6.960937 14.558594 6.960937zm0 0" fill="#d8d6d7" data-original="#D8D6D7" class=""/><path d="m498 74.359375v349.398437c0 5.523438-4.476562 10-10 10h-443.539062c-5.523438 0-10-4.476562-10-10v-409.761718c0-5.519532 4.476562-10 10-10h89.4375l51.023437 63.402344c3.539063 4.398437 8.898437 6.960937 14.558594 6.960937zm0 0" fill="#fff" data-original="#FFF" class=""/><path d="m373.140625 229.539062v8.019532c0 8.738281-7.101563 15.820312-15.839844 15.820312h-212.601562c-8.738281 0-15.839844-7.082031-15.839844-15.820312v-8.019532c0-8.742187 7.101563-15.820312 15.839844-15.820312h212.601562c8.738281 0 15.839844 7.078125 15.839844 15.820312zm0 0" fill="#d73735" data-original="#D73735" class="" style="fill:#D73735" data-old_color="#FF5A5A"/><path d="m373.140625 229.539062v8.019532c0 8.738281-7.101563 15.820312-15.839844 15.820312h-185.101562c-8.738281 0-15.839844-7.082031-15.839844-15.820312v-8.019532c0-8.742187 7.101563-15.820312 15.839844-15.820312h185.101562c8.738281 0 15.839844 7.078125 15.839844 15.820312zm0 0" fill="#f85252" data-original="#F85252" class="" style="fill:#FF5A5A" data-old_color="#F85252"/><path d="m319.320312 172.199219v41.519531h-136.640624v-41.519531c0-36.140625 29.300781-65.441407 65.441406-65.441407h5.757812c3.699219 0 7.339844.300782 10.882813.898438 30.957031 5.183594 54.558593 32.101562 54.558593 64.542969zm0 0" fill="#1c868e" data-original="#1C868E" class="active-path" style="fill:#43AFDC" data-old_color="#1C868E"/><path d="m319.320312 172.199219v41.519531h-109.140624v-41.519531c0-32.441407 23.601562-59.359375 54.582031-64.542969 30.957031 5.183594 54.558593 32.101562 54.558593 64.542969zm0 0" fill="#40c4df" data-original="#40C4DF" class="" style="fill:#78D2FA" data-old_color="#40C4DF"/><path d="m312.738281 253.378906-5.476562 15.679688c-2.5 7.160156-9.242188 11.960937-16.839844 11.960937h-78.84375c-7.597656 0-14.339844-4.800781-16.839844-11.960937l-5.476562-15.679688zm0 0" fill="#56c1b3" data-original="#56C1B3" class="" style="fill:#43AFDC" data-old_color="#78D2FA"/><path d="m312.738281 253.378906-5.476562 15.679688c-2.5 7.160156-9.242188 11.960937-16.839844 11.960937h-50.84375c-7.578125 0-14.339844-4.800781-16.839844-11.960937l-5.457031-15.679688zm0 0" fill="#7befe4" data-original="#7BEFE4" class="" style="fill:#78D2FA" data-old_color="#7BEFE4"/><path d="m192.613281 233.546875c0 4.554687-3.691406 8.246094-8.246093 8.246094-4.554688 0-8.246094-3.691407-8.246094-8.246094s3.691406-8.246094 8.246094-8.246094c4.554687 0 8.246093 3.691407 8.246093 8.246094zm0 0" fill="#fff" data-original="#FFF" class=""/><path d="m237.035156 233.546875c0 4.554687-3.691406 8.246094-8.246094 8.246094-4.554687 0-8.246093-3.691407-8.246093-8.246094s3.691406-8.246094 8.246093-8.246094c4.554688 0 8.246094 3.691407 8.246094 8.246094zm0 0" fill="#fff" data-original="#FFF" class=""/><path d="m281.457031 233.546875c0 4.554687-3.691406 8.246094-8.246093 8.246094-4.554688 0-8.246094-3.691407-8.246094-8.246094s3.691406-8.246094 8.246094-8.246094c4.554687 0 8.246093 3.691407 8.246093 8.246094zm0 0" fill="#fff" data-original="#FFF" class=""/><path d="m325.878906 233.546875c0 4.554687-3.691406 8.246094-8.246094 8.246094-4.554687 0-8.246093-3.691407-8.246093-8.246094s3.691406-8.246094 8.246093-8.246094c4.554688 0 8.246094 3.691407 8.246094 8.246094zm0 0" fill="#fff" data-original="#FFF" class=""/><path d="m323.621094 404.699219h-145.242188c-7.398437 0-12.238281-7.742188-9-14.382813l53.359375-109.296875h56.523438l53.359375 109.296875c3.238281 6.640625-1.601563 14.382813-9 14.382813zm0 0" fill="#d73735" data-original="#D73735" class="" style="fill:#D73735" data-old_color="#FF5A5A"/><path d="m323.621094 404.699219h-117.179688c-7.382812 0-12.222656-7.742188-8.980468-14.382813l53.339843-109.296875h28.460938l53.359375 109.296875c3.238281 6.640625-1.601563 14.382813-9 14.382813zm0 0" fill="#f85252" data-original="#F85252" class="" style="fill:#FF5A5A" data-old_color="#F85252"/><path d="m236.222656 363.683594-6.398437 2.515625-11.980469-30.441407-8.734375 3.4375-10.46875 40.933594 2.34375 5.957032 23.660156-9.316407 4.054688 10.296875 8.089843-3.183594-4.054687-10.296874 6.394531-2.519532zm-14.230468 5.597656-13.785157 5.429688 6.097657-24.953126zm0 0" fill="#fff" data-original="#FFF" class=""/><path d="m263.476562 341.6875c3.210938-3.773438 5.515626-9.570312 7.039063-17.726562 1.507813-8.058594 1.4375-14.230469-.207031-18.863282-2.003906-5.664062-6.429688-9.171875-13.148438-10.425781-6.75-1.265625-12.160156.40625-16.082031 4.960937-3.210937 3.726563-5.507813 9.457032-7.011719 17.515626-1.523437 8.164062-1.46875 14.402343.171875 19.078124 2.003907 5.703126 6.445313 9.234376 13.199219 10.5 1.433594.265626 2.804688.402344 4.117188.402344 4.835937-.003906 8.839843-1.824218 11.921874-5.441406zm-1.503906-19.324219c-2.089844 11.167969-5 17.792969-13.03125 16.285157-8.085937-1.507813-8.417968-8.738282-6.332031-19.90625.820313-4.371094 1.949219-9.273438 4.144531-12.503907 1.707032-2.507812 3.863282-3.71875 6.683594-3.71875.699219 0 1.433594.074219 2.214844.21875 3.914062.730469 6.132812 2.785157 6.976562 6.464844.875 3.8125.15625 8.789063-.65625 13.160156zm0 0" fill="#fff" data-original="#FFF" class=""/><path d="m289.585938 371.035156 3.941406-32.480468-9.320313-1.128907-28.679687 31.023438-.773438 6.351562 25.242188 3.0625-1.332032 10.988281 8.632813 1.046876 1.332031-10.988282 6.824219.828125.953125-7.875zm-23.066407-2.800781 17.238281-19.046875-2.53125 20.832031zm0 0" fill="#fff" data-original="#FFF" class=""/><path d="m252.722656 167.929688c-15.214844 0-28.328125 10.714843-31.355468 25.625l-4.09375 20.15625h70.894531l-4.09375-20.15625c-3.023438-14.910157-16.136719-25.625-31.351563-25.625zm0 0" fill="#fff" data-original="#FFF" class=""/><path d="m419.476562 39.792969c0 7.617187-6.175781 13.792969-13.792968 13.792969-7.617188 0-13.792969-6.175782-13.792969-13.792969 0-7.617188 6.175781-13.792969 13.792969-13.792969 7.617187 0 13.792968 6.175781 13.792968 13.792969zm0 0" fill="#fff" data-original="#FFF" class=""/><path d="m469.960938 39.792969c0 7.617187-6.175782 13.792969-13.792969 13.792969-7.617188 0-13.792969-6.175782-13.792969-13.792969 0-7.617188 6.175781-13.792969 13.792969-13.792969 7.617187 0 13.792969 6.175781 13.792969 13.792969zm0 0" fill="#fff" data-original="#FFF" class=""/><g fill="#491352"><path d="m357.300781 209.710938h-33.988281v-37.515626c0-38.292968-31.148438-69.441406-69.441406-69.441406h-5.746094c-38.289062 0-69.441406 31.148438-69.441406 69.441406v37.515626h-33.984375c-10.933594 0-19.832031 8.898437-19.832031 19.835937v8.003906c0 10.933594 8.898437 19.832031 19.832031 19.832031h41.730469l4.527343 12.996094c3.054688 8.757813 11.339844 14.640625 20.613281 14.640625h4.765626l-50.539063 103.542969c-2.132813 4.367188-1.867187 9.433594.707031 13.558594 2.574219 4.121094 7.015625 6.582031 11.875 6.582031h145.253906c4.859376 0 9.296876-2.460937 11.875-6.582031 2.574219-4.125 2.839844-9.191406.707032-13.558594l-50.539063-103.542969h4.761719c9.273438 0 17.558594-5.882812 20.613281-14.644531l4.53125-12.992188h41.726563c10.9375 0 19.835937-8.898437 19.835937-19.835937v-8.003906c-.011719-10.933594-8.910156-19.832031-19.84375-19.832031zm-170.613281-37.519532c0-33.878906 27.558594-61.441406 61.441406-61.441406h5.746094c33.878906 0 61.441406 27.5625 61.441406 61.441406v37.519532h-23.875l-3.445312-16.949219c-1.789063-8.824219-6.789063-16.339844-13.601563-21.5 2.574219-4.03125 5.984375-10.964844 5.117188-18.277344 5.214843-2.398437 8.855469-7.660156 8.855469-13.769531 0-8.355469-6.800782-15.15625-15.15625-15.15625-8.359376 0-15.15625 6.800781-15.15625 15.15625 0 7.820312 5.949218 14.269531 13.558593 15.074218.445313 4.910157-2.183593 9.945313-4.082031 12.859376-4.550781-2.070313-9.574219-3.21875-14.808594-3.21875-6.382812 0-12.453125 1.699218-17.730468 4.703124-1.898438-2.234374-4.5625-6.0625-5.214844-10.484374 7.730468-.683594 13.8125-7.183594 13.8125-15.085938 0-8.359375-6.800782-15.160156-15.15625-15.160156-8.359375 0-15.15625 6.800781-15.15625 15.160156 0 5.914062 3.410156 11.03125 8.359375 13.53125.136719 7.246094 3.96875 13.25 6.878906 16.773438-5.503906 5.011718-9.507813 11.707031-11.070313 19.394531l-3.441406 16.949219h-27.320312v-37.519532zm66.035156-.261718c13.257813 0 24.796875 9.429687 27.433594 22.421874l3.121094 15.359376h-61.105469l3.117187-15.359376c2.636719-12.992187 14.171876-22.421874 27.433594-22.421874zm20.488282-25.554688c-3.945313 0-7.15625-3.210938-7.15625-7.15625 0-3.949219 3.210937-7.160156 7.15625-7.160156 3.945312 0 7.15625 3.210937 7.15625 7.160156 0 3.945312-3.210938 7.15625-7.15625 7.15625zm-44.777344 3.84375c-3.949219 0-7.15625-3.210938-7.15625-7.15625s3.207031-7.160156 7.15625-7.160156c3.945312 0 7.15625 3.210937 7.15625 7.160156s-3.210938 7.15625-7.15625 7.15625zm100.585937 241.851562c.925781 1.898438.816407 4.015626-.304687 5.808594-1.117188 1.792969-2.972656 2.824219-5.085938 2.824219h-145.253906c-2.113281 0-3.96875-1.027344-5.089844-2.824219-1.121094-1.789062-1.230468-3.910156-.304687-5.808594l52.253906-107.050781h51.535156zm-25.53125-124.328124c-1.9375 5.546874-7.183593 9.277343-13.058593 9.277343-16.003907 0-62.859376 0-78.859376 0-5.875 0-11.125-3.726562-13.058593-9.277343l-3.613281-10.359376h112.203124zm65.644531-30.195313c0 6.523437-5.308593 11.835937-11.832031 11.835937-71.125 0-169.292969 0-212.601562 0-6.527344 0-11.835938-5.308593-11.835938-11.835937v-8.003906c0-6.523438 5.308594-11.832031 11.835938-11.832031h212.597656c6.527344 0 11.835937 5.308593 11.835937 11.832031zm0 0" data-original="#000000" class="" style="fill:#000000"/><path d="m184.367188 221.300781c-6.75 0-12.246094 5.492188-12.246094 12.246094s5.496094 12.246094 12.246094 12.246094c6.753906 0 12.246093-5.492188 12.246093-12.246094 0-6.75-5.492187-12.246094-12.246093-12.246094zm0 16.492188c-2.339844 0-4.246094-1.90625-4.246094-4.246094s1.90625-4.246094 4.246094-4.246094c2.34375 0 4.246093 1.90625 4.246093 4.246094s-1.90625 4.246094-4.246093 4.246094zm0 0" data-original="#000000" class="" style="fill:#000000"/><path d="m228.789062 221.300781c-6.75 0-12.246093 5.492188-12.246093 12.246094s5.496093 12.246094 12.246093 12.246094c6.753907 0 12.246094-5.492188 12.246094-12.246094 0-6.75-5.492187-12.246094-12.246094-12.246094zm0 16.492188c-2.339843 0-4.246093-1.90625-4.246093-4.246094s1.90625-4.246094 4.246093-4.246094c2.34375 0 4.246094 1.90625 4.246094 4.246094s-1.90625 4.246094-4.246094 4.246094zm0 0" data-original="#000000" class="" style="fill:#000000"/><path d="m273.210938 221.300781c-6.753907 0-12.246094 5.492188-12.246094 12.246094s5.492187 12.246094 12.246094 12.246094c6.75 0 12.246093-5.492188 12.246093-12.246094 0-6.75-5.496093-12.246094-12.246093-12.246094zm0 16.492188c-2.34375 0-4.246094-1.90625-4.246094-4.246094s1.902344-4.246094 4.246094-4.246094c2.339843 0 4.246093 1.90625 4.246093 4.246094s-1.90625 4.246094-4.246093 4.246094zm0 0" data-original="#000000" class="" style="fill:#000000"/><path d="m317.632812 221.300781c-6.753906 0-12.246093 5.492188-12.246093 12.246094s5.492187 12.246094 12.246093 12.246094c6.75 0 12.246094-5.492188 12.246094-12.246094 0-6.75-5.496094-12.246094-12.246094-12.246094zm0 16.492188c-2.34375 0-4.246093-1.90625-4.246093-4.246094s1.902343-4.246094 4.246093-4.246094c2.339844 0 4.246094 1.90625 4.246094 4.246094s-1.90625 4.246094-4.246094 4.246094zm0 0" data-original="#000000" class="" style="fill:#000000"/><path d="m209.109375 339.195312-10.472656 40.933594 2.34375 5.957032 23.660156-9.316407 4.054687 10.296875 8.089844-3.183594-4.054687-10.292968 6.398437-2.519532-2.90625-7.386718-6.398437 2.519531-11.980469-30.441406zm-.902344 35.515626 6.097657-24.953126 7.6875 19.523438zm0 0" data-original="#000000" class="" style="fill:#000000"/><path d="m247.4375 346.722656c14.464844 2.707032 20.375-8.289062 23.078125-22.761718 2.675781-14.320313 1.085937-26.59375-13.355469-29.292969-14.476562-2.707031-20.410156 8.117187-23.09375 22.480469-2.703125 14.464843-1.171875 26.855468 13.371094 29.574218zm-4.828125-27.976562c1.667969-8.925782 4.109375-17.6875 13.042969-16.007813 8.8125 1.648438 8.023437 10.492188 6.320312 19.625-2.089844 11.171875-5 17.792969-13.03125 16.289063-8.085937-1.511719-8.417968-8.738282-6.332031-19.90625zm0 0" data-original="#000000" class="" style="fill:#000000"/><path d="m254.753906 374.804688 25.246094 3.0625-1.335938 10.984374 8.632813 1.046876 1.332031-10.984376 6.824219.828126.953125-7.878907-6.820312-.828125 3.941406-32.476562-9.320313-1.132813-28.679687 31.023438zm29.003906-25.617188-2.53125 20.832031-14.707031-1.785156zm0 0" data-original="#000000" class="" style="fill:#000000"/><path d="m249.089844 203.714844h2.824218c6.894532 0 13.179688-4.058594 16.011719-10.339844.90625-2.015625.011719-4.382812-2.003906-5.289062s-4.378906-.015626-5.292969 2c-1.539062 3.421874-4.960937 5.628906-8.714844 5.628906h-2.824218c-2.210938 0-4 1.792968-4 4 0 2.210937 1.789062 4 4 4zm0 0" data-original="#000000" class="" style="fill:#000000"/><path d="m488 0h-474c-7.71875 0-14 6.28125-14 14v409.757812c0 7.71875 6.28125 14 14 14h474c7.71875 0 14-6.28125 14-14v-409.757812c0-7.71875-6.28125-14-14-14zm6 14v56.355469h-294.53125c-4.460938 0-8.628906-1.996094-11.429688-5.472657l-45.785156-56.882812h345.746094c3.308594 0 6 2.691406 6 6zm-479.558594 415.757812c-3.550781 0-6.441406-2.890624-6.441406-6.441406v-408.878906c0-3.550781 2.886719-6.4375 6.441406-6.4375h117.539063l49.828125 61.898438c4.324218 5.375 10.761718 8.457031 17.660156 8.457031h294.53125v344.960937c0 3.550782-2.886719 6.441406-6.441406 6.441406zm0 0" data-original="#000000" class="" style="fill:#000000"/><path d="m112.519531 38.113281h-69.085937c-2.207032 0-4 1.792969-4 4s1.792968 4 4 4h69.085937c2.207031 0 4-1.792969 4-4s-1.792969-4-4-4zm0 0" data-original="#000000" class="" style="fill:#000000"/><path d="m405.6875 57.585938c9.808594 0 17.789062-7.980469 17.789062-17.792969s-7.980468-17.789063-17.789062-17.789063c-9.8125 0-17.792969 7.980469-17.792969 17.789063-.003906 9.8125 7.980469 17.792969 17.792969 17.792969zm0-27.585938c5.398438 0 9.789062 4.394531 9.789062 9.792969 0 5.398437-4.390624 9.792969-9.789062 9.792969-5.402344 0-9.792969-4.394532-9.792969-9.792969 0-5.402344 4.390625-9.792969 9.792969-9.792969zm0 0" data-original="#000000" class="" style="fill:#000000"/><path d="m456.167969 57.585938c9.808593 0 17.792969-7.980469 17.792969-17.792969s-7.984376-17.789063-17.792969-17.789063c-9.808594 0-17.792969 7.980469-17.792969 17.789063 0 9.8125 7.984375 17.792969 17.792969 17.792969zm0-27.585938c5.398437 0 9.792969 4.394531 9.792969 9.792969 0 5.398437-4.394532 9.792969-9.792969 9.792969-5.398438 0-9.792969-4.394532-9.792969-9.792969 0-5.402344 4.394531-9.792969 9.792969-9.792969zm0 0" data-original="#000000" class="" style="fill:#000000"/></g></g> </svg>
