<svg height="512pt" viewBox="-1 0 512 512" width="512pt" xmlns="http://www.w3.org/2000/svg"><path d="m468.003906 440.113281c17.226563 0 31.195313-13.964843 31.195313-31.191406 0-17.230469-13.96875-31.195313-31.195313-31.195313-7.636718 0-14.632812 2.75-20.054687 7.308594-6.0625-13.949218-19.960938-23.710937-36.140625-23.710937-21.757813 0-39.394532 17.640625-39.394532 39.394531 0 21.757812 17.636719 39.394531 39.394532 39.394531zm0 0" fill="#9ce8fd"/><path d="m296.328125 502h-77.570313c-6.890624 0-12.476562-5.585938-12.476562-12.476562v-79.976563h102.523438v79.976563c0 6.890624-5.585938 12.476562-12.476563 12.476562zm0 0" fill="#ffbc70"/><path d="m148.136719 270.527344h218.160156l10.945313-26.808594s33.222656-74.132812 33.222656-100.78125c0-84.527344-68.523438-132.9375-153.050782-132.9375-84.527343 0-153.050781 48.410156-153.050781 132.9375 0 26.632812 12.648438 52.328125 32.636719 100.78125zm0 0" fill="#f0996e"/><path d="m148.136719 270.527344h218.160156l10.945313-26.808594s33.222656-74.132812 33.222656-100.78125c0-84.527344-68.523438-132.9375-153.050782-132.9375-84.527343 0-153.050781 48.410156-153.050781 132.9375 0 26.632812 12.648438 52.328125 32.636719 100.78125zm0 0" fill="#ff6370"/><path d="m231.96875 296.363281h50.890625v25.496094h-50.890625zm0 0" fill="#ffbc70"/><path d="m216.914062 230.269531 10.972657 40.246094h59.054687l30.992188-113.683594c11.8125-49.363281-16.40625-120.515625-60.519532-146.832031-44.09375 26.304688-72.304687 97.398438-60.535156 146.757812zm0 0" fill="#9ce8fd"/><path d="m272.816406 362.363281c0 8.4375-6.839844 15.277344-15.273437 15.277344-8.4375 0-15.277344-6.839844-15.277344-15.277344 0-8.433593 6.839844-15.273437 15.277344-15.273437 8.433593 0 15.273437 6.839844 15.273437 15.273437zm0 0" fill="#ffd7c1"/><path d="m295.503906 409.546875h-75.925781v-6.808594c0-13.859375 11.238281-25.097656 25.101563-25.097656h25.726562c13.859375 0 25.097656 11.238281 25.097656 25.097656zm0 0" fill="#ffd7c1"/><path d="m468.003906 367.726562c-5.742187 0-11.386718 1.207032-16.578125 3.488282-9.191406-12.34375-23.792969-19.890625-39.617187-19.890625-27.234375 0-49.394532 22.160156-49.394532 49.398437 0 13.191406 5.136719 25.597656 14.46875 34.925782 9.328126 9.332031 21.730469 14.46875 34.925782 14.46875h56.195312c22.714844 0 41.191406-18.480469 41.191406-41.195313.003907-22.714844-18.476562-41.195313-41.191406-41.195313zm0 62.386719h-56.195312c-7.851563 0-15.234375-3.054687-20.785156-8.605469-5.550782-5.554687-8.609376-12.9375-8.609376-20.789062 0-16.207031 13.1875-29.394531 29.394532-29.394531 11.710937 0 22.296875 6.945312 26.972656 17.695312 1.257812 2.894531 3.808594 5.027344 6.878906 5.75 3.074219.71875 6.308594-.050781 8.726563-2.082031 3.804687-3.199219 8.644531-4.960938 13.617187-4.960938 11.6875 0 21.195313 9.507813 21.195313 21.195313 0 11.683594-9.507813 21.191406-21.195313 21.191406zm0 0"/><path d="m323.160156 429.855469h-4.355468v-18.324219l32.949218-79.671875h13.976563c5.519531 0 10-4.476563 10-10s-4.480469-10-10-10h-5.707031l28.617187-69.191406c8.003906-18.359375 31.824219-75.046875 31.824219-99.730469 0-43.320312-16.769532-79.941406-48.492188-105.90625-29.179687-23.878906-69.863281-37.03125-114.558594-37.03125-44.695312 0-85.378906 13.152344-114.558593 37.03125-31.722657 25.964844-48.492188 62.585938-48.492188 105.90625 0 24.808594 9.503907 47.492188 25.253907 85.066406 2.550781 6.085938 5.269531 12.574219 8.148437 19.550782l11.085937 26.691406 15.554688 37.613281h-5.308594c-5.519531 0-10 4.476563-10 10s4.480469 10 10 10h13.582032l33.601562 81.253906v16.742188h-4.355469c-5.523437 0-10 4.480469-10 10 0 5.523437 4.476563 10 10 10h4.355469v39.667969c0 12.394531 10.082031 22.476562 22.476562 22.476562h77.570313c12.394531 0 22.476563-10.082031 22.476563-22.476562v-39.667969h4.355468c5.523438 0 10-4.476563 10-10 0-5.519531-4.476562-10-10-10zm-70.894531-67.492188c0-2.90625 2.367187-5.273437 5.277344-5.273437 2.90625 0 5.273437 2.367187 5.273437 5.273437 0 2.910157-2.367187 5.277344-5.273437 5.277344-2.910157 0-5.277344-2.367187-5.277344-5.277344zm-7.585937 25.277344h25.726562c7.230469 0 13.292969 5.109375 14.757812 11.90625h-55.246093c1.46875-6.796875 7.527343-11.90625 14.761719-11.90625zm155.785156-244.703125c0 13.597656-10.699219 43.882812-20.402344 68.261719-.15625.296875-.300781.601562-.433594.917969l-9.375 22.671874c-.773437 1.773438-1.496094 3.410157-2.136718 4.84375-.046876.101563-.089844.203126-.132813.304688l-8.40625 20.589844h-59.550781l27.550781-101.0625c.027344-.101563.054687-.203125.078125-.304688 10.535156-44.015625-7.730469-101.570312-40-136.867187 27.878906 4.328125 52.664062 14.683593 71.644531 30.21875 26.929688 22.035156 41.164063 53.304687 41.164063 90.425781zm-244.941406-90.429688c18.984374-15.535156 43.773437-25.890624 71.652343-30.214843-32.242187 35.269531-50.511719 92.789062-40.023437 136.785156 1.28125 5.371094 6.683594 8.6875 12.046875 7.40625 5.371093-1.28125 8.6875-6.671875 7.40625-12.046875-10.515625-44.109375 13.890625-106.421875 50.808593-132.515625 36.914063 26.082031 61.300782 88.316406 50.828126 132.433594l-28.9375 106.15625h-43.777344l-8.960938-32.875c-1.453125-5.328125-6.953125-8.46875-12.28125-7.015625-5.324218 1.453125-8.46875 6.949218-7.015625 12.277344l7.53125 27.628906h-59.976562l-28.570313-69.085938c-.035156-.078125-.078125-.152344-.113281-.230468-7.511719-19.296876-11.777344-33.90625-11.777344-48.277344 0-37.117188 14.234375-68.386719 41.160157-90.425782zm7.570312 228.019532h188.246094l-12.960938 31.332031h-45.519531v-15.492187c0-5.523438-4.476563-10-10-10h-50.890625c-5.523438 0-10 4.476562-10 10v15.492187h-45.917969zm109.765625 31.332031h-30.890625v-5.496094h30.890625zm-40.890625 20h98.140625l-25.703125 62.152344c-2.941406-11.457031-11.546875-20.664063-22.632812-24.472657.675781-2.277343 1.042968-4.683593 1.042968-7.175781 0-13.9375-11.339844-25.273437-25.273437-25.273437-13.9375 0-25.277344 11.339844-25.277344 25.273437 0 2.492188.371094 4.898438 1.046875 7.175781-11.414062 3.917969-20.183594 13.558594-22.867188 25.484376l-26.125-63.164063zm-15.6875 87.6875h82.523438v10.308594h-82.523438zm82.523438 69.976563c0 1.367187-1.113282 2.476562-2.476563 2.476562h-77.570313c-1.367187 0-2.476562-1.109375-2.476562-2.476562v-39.667969h82.519531v39.667969zm0 0"/><path d="m91.828125 438.351562h-9.441406c-12.710938 0-24.539063 5.214844-33.023438 14.019532-8.507812-8.789063-20.371093-14.019532-32.980469-14.019532h-6.382812c-5.523438 0-10 4.476563-10 10 0 5.523438 4.476562 10 10 10h6.382812c10.0625 0 19.285157 5.90625 23.492188 15.058594l.4375.945313c1.632812 3.546875 5.183594 5.8125 9.078125 5.8125h.148437c3.957032-.058594 7.507813-2.445313 9.054688-6.082031 4.066406-9.558594 13.40625-15.734376 23.792969-15.734376h9.441406c5.523437 0 10-4.476562 10-10 0-5.523437-4.476563-10-10-10zm0 0"/><path d="m124.113281 382.902344h-5.707031c-7.4375 0-14.441406 2.585937-19.96875 7.074218-5.542969-4.484374-12.554688-7.074218-19.933594-7.074218h-3.859375c-5.519531 0-10 4.476562-10 10 0 5.523437 4.480469 10 10 10h3.859375c4.546875 0 8.710938 2.667968 10.605469 6.792968l.261719.570313c1.632812 3.554687 5.1875 5.824219 9.089844 5.824219h.140624c3.957032-.054688 7.511719-2.441406 9.058594-6.082032 1.839844-4.316406 6.058594-7.105468 10.746094-7.105468h5.707031c5.523438 0 10-4.476563 10-10 0-5.523438-4.476562-10-10-10zm0 0"/><path d="m196.390625 199.089844c1.621094 3.894531 5.664063 6.449218 9.890625 6.15625 4.113281-.285156 7.703125-3.128906 8.90625-7.074219 1.199219-3.933594-.195312-8.347656-3.472656-10.84375-3.425782-2.609375-8.226563-2.71875-11.773438-.285156-3.824218 2.621093-5.335937 7.765625-3.550781 12.046875zm0 0"/></svg>