<?xml version="1.0"?>
<svg xmlns="http://www.w3.org/2000/svg" xmlns:xlink="http://www.w3.org/1999/xlink" version="1.1" id="Capa_1" x="0px" y="0px" viewBox="0 0 211.627 211.627" style="enable-background:new 0 0 211.627 211.627;" xml:space="preserve" width="512px" height="512px" class=""><g><path style="fill:#F60F3B" d="M163.84,97.28c0-32.048-25.979-58.027-58.027-58.027S47.787,65.232,47.787,97.28" data-original="#EA3457" class="" data-old_color="#EA3457"/><path style="fill:#1A067B" d="M163.84,100.693c-1.884,0-3.413-1.529-3.413-3.413c0-30.114-24.499-54.613-54.613-54.613  S51.2,67.166,51.2,97.28c0,1.884-1.529,3.413-3.413,3.413c-1.884,0-3.413-1.529-3.413-3.413c0-33.879,27.561-61.44,61.44-61.44  s61.44,27.561,61.44,61.44C167.253,99.164,165.724,100.693,163.84,100.693z" data-original="#602F75" class="" data-old_color="#2D00FF"/><path style="fill:#EAEAEA;" d="M208.213,117.76V93.867c0-13.196-45.846-23.893-102.4-23.893S3.413,80.671,3.413,93.867v23.893" data-original="#EAEAEA" class=""/><path style="fill:#1A067B" d="M208.213,121.173c-1.884,0-3.413-1.529-3.413-3.413V93.867c0-2.669-5.762-8.533-27.354-13.571  c-19.094-4.454-44.534-6.909-71.632-6.909s-52.538,2.454-71.632,6.909C12.588,85.333,6.827,91.197,6.827,93.867v23.893  c0,1.884-1.529,3.413-3.413,3.413S0,119.644,0,117.76V93.867c0-8.364,10.979-15.169,32.63-20.221  c19.587-4.569,45.578-7.086,73.184-7.086s53.596,2.517,73.184,7.086c21.651,5.052,32.63,11.856,32.63,20.221v23.893  C211.627,119.644,210.098,121.173,208.213,121.173z" data-original="#602F75" class="" data-old_color="#2D00FF"/><path style="fill:#FFFFFF;" d="M146.83,139.66c36.135-3.69,61.384-12.107,61.384-21.9c0-13.196-45.846-23.893-102.4-23.893  s-102.4,10.697-102.4,23.893c0,9.713,24.841,18.074,60.506,21.81" data-original="#FFFFFF" class=""/><path style="fill:#1A067B" d="M146.826,143.073c-1.729,0-3.212-1.309-3.391-3.067c-0.191-1.876,1.174-3.55,3.05-3.741  c42.484-4.338,58.317-13.653,58.317-18.505c0-2.669-5.762-8.533-27.354-13.571c-19.096-4.454-44.535-6.909-71.634-6.909  s-52.538,2.454-71.632,6.909c-21.593,5.038-27.354,10.902-27.354,13.571c0,4.794,15.597,14.032,57.45,18.413  c1.874,0.196,3.236,1.876,3.04,3.75c-0.196,1.877-1.877,3.226-3.751,3.04C44.452,140.962,0,134.501,0,117.76  c0-8.364,10.979-15.169,32.63-20.221c19.587-4.569,45.578-7.086,73.184-7.086s53.596,2.517,73.184,7.086  c21.651,5.052,32.63,11.856,32.63,20.221c0,16.891-45.071,23.316-64.451,25.295C147.058,143.068,146.942,143.073,146.826,143.073z" data-original="#602F75" class="" data-old_color="#2D00FF"/><path style="fill:#007AFF" d="M149.699,117.76c0-5.656-19.649-10.24-43.885-10.24s-43.885,4.584-43.885,10.24  S81.577,128,105.813,128S149.699,123.416,149.699,117.76" data-original="#00E7FF" class=""/><g>
	<path style="fill:#1A067B" d="M105.813,131.413c-4.842,0-47.299-0.384-47.299-13.653s42.457-13.653,47.299-13.653   c4.842,0,47.299,0.384,47.299,13.653S110.655,131.413,105.813,131.413z M65.517,117.76c2.374,2.611,16.872,6.827,40.296,6.827   s37.924-4.215,40.296-6.827c-2.374-2.611-16.872-6.827-40.296-6.827S67.889,115.149,65.517,117.76z M146.348,118.088h0.017H146.348   z" data-original="#602F75" class="" data-old_color="#2D00FF"/>
	<path style="fill:#1A067B" d="M29.013,93.867c-2.823,0-5.12-2.297-5.12-5.12s2.297-5.12,5.12-5.12s5.12,2.297,5.12,5.12   S31.836,93.867,29.013,93.867z M29.013,87.04c-0.94,0-1.707,0.765-1.707,1.707c0,0.942,0.766,1.707,1.707,1.707   s1.707-0.765,1.707-1.707C30.72,87.805,29.954,87.04,29.013,87.04z" data-original="#602F75" class="" data-old_color="#2D00FF"/>
	<path style="fill:#1A067B" d="M46.08,90.453c-2.823,0-5.12-2.297-5.12-5.12s2.297-5.12,5.12-5.12s5.12,2.297,5.12,5.12   S48.903,90.453,46.08,90.453z M46.08,83.627c-0.94,0-1.707,0.765-1.707,1.707s0.766,1.707,1.707,1.707   c0.94,0,1.707-0.765,1.707-1.707S47.02,83.627,46.08,83.627z" data-original="#602F75" class="" data-old_color="#2D00FF"/>
	<path style="fill:#1A067B" d="M69.973,87.04c-2.823,0-5.12-2.297-5.12-5.12c0-2.823,2.297-5.12,5.12-5.12   c2.823,0,5.12,2.297,5.12,5.12C75.093,84.743,72.796,87.04,69.973,87.04z M69.973,80.213c-0.94,0-1.707,0.765-1.707,1.707   c0,0.942,0.766,1.707,1.707,1.707c0.94,0,1.707-0.765,1.707-1.707C71.68,80.978,70.914,80.213,69.973,80.213z" data-original="#602F75" class="" data-old_color="#2D00FF"/>
	<path style="fill:#1A067B" d="M93.867,87.04c-2.823,0-5.12-2.297-5.12-5.12c0-2.823,2.297-5.12,5.12-5.12s5.12,2.297,5.12,5.12   C98.987,84.743,96.69,87.04,93.867,87.04z M93.867,80.213c-0.94,0-1.707,0.765-1.707,1.707c0,0.942,0.766,1.707,1.707,1.707   c0.94,0,1.707-0.765,1.707-1.707C95.573,80.978,94.807,80.213,93.867,80.213z" data-original="#602F75" class="" data-old_color="#2D00FF"/>
	<path style="fill:#1A067B" d="M182.613,93.867c-2.823,0-5.12-2.297-5.12-5.12s2.297-5.12,5.12-5.12c2.823,0,5.12,2.297,5.12,5.12   S185.436,93.867,182.613,93.867z M182.613,87.04c-0.94,0-1.707,0.765-1.707,1.707c0,0.942,0.766,1.707,1.707,1.707   c0.94,0,1.707-0.765,1.707-1.707C184.32,87.805,183.554,87.04,182.613,87.04z" data-original="#602F75" class="" data-old_color="#2D00FF"/>
	<path style="fill:#1A067B" d="M165.547,90.453c-2.823,0-5.12-2.297-5.12-5.12s2.297-5.12,5.12-5.12c2.823,0,5.12,2.297,5.12,5.12   S168.37,90.453,165.547,90.453z M165.547,83.627c-0.94,0-1.707,0.765-1.707,1.707s0.766,1.707,1.707,1.707   c0.94,0,1.707-0.765,1.707-1.707S166.487,83.627,165.547,83.627z" data-original="#602F75" class="" data-old_color="#2D00FF"/>
	<path style="fill:#1A067B" d="M141.653,87.04c-2.823,0-5.12-2.297-5.12-5.12c0-2.823,2.297-5.12,5.12-5.12   c2.823,0,5.12,2.297,5.12,5.12C146.773,84.743,144.476,87.04,141.653,87.04z M141.653,80.213c-0.94,0-1.707,0.765-1.707,1.707   c0,0.942,0.766,1.707,1.707,1.707s1.707-0.765,1.707-1.707C143.36,80.978,142.594,80.213,141.653,80.213z" data-original="#602F75" class="" data-old_color="#2D00FF"/>
	<path style="fill:#1A067B" d="M117.76,87.04c-2.823,0-5.12-2.297-5.12-5.12c0-2.823,2.297-5.12,5.12-5.12s5.12,2.297,5.12,5.12   C122.88,84.743,120.583,87.04,117.76,87.04z M117.76,80.213c-0.94,0-1.707,0.765-1.707,1.707c0,0.942,0.766,1.707,1.707,1.707   c0.94,0,1.707-0.765,1.707-1.707C119.467,80.978,118.7,80.213,117.76,80.213z" data-original="#602F75" class="" data-old_color="#2D00FF"/>
	<path style="fill:#1A067B" d="M105.813,42.667c-1.884,0-3.413-1.529-3.413-3.413V22.187c0-1.884,1.529-3.413,3.413-3.413   c1.884,0,3.413,1.529,3.413,3.413v17.067C109.227,41.137,107.698,42.667,105.813,42.667z" data-original="#602F75" class="" data-old_color="#2D00FF"/>
	<path style="fill:#1A067B" d="M105.813,22.187c-3.765,0-6.827-3.062-6.827-6.827s3.062-6.827,6.827-6.827   c3.765,0,6.827,3.062,6.827,6.827S109.578,22.187,105.813,22.187z M105.813,15.36h0.017H105.813z M105.813,15.36h0.017H105.813z    M105.813,15.36h0.017H105.813z M105.813,15.358h0.017H105.813z M105.813,15.358L105.813,15.358L105.813,15.358z M105.813,15.357   h0.017H105.813z M105.813,15.357h0.017H105.813z M105.813,15.357h0.017H105.813z" data-original="#602F75" class="" data-old_color="#2D00FF"/>
</g><polygon style="fill:#FFC900" points="150.187,203.093 61.44,203.093 81.92,117.76 129.707,117.76 " data-original="#FFE600" class="active-path" data-old_color="#E59F09"/></g> </svg>
