<?xml version="1.0" encoding="iso-8859-1"?>
<!-- Generator: Adobe Illustrator 19.0.0, SVG Export Plug-In . SVG Version: 6.00 Build 0)  -->
<svg version="1.1" id="Capa_1" xmlns="http://www.w3.org/2000/svg" xmlns:xlink="http://www.w3.org/1999/xlink" x="0px" y="0px"
	 viewBox="0 0 512 512" style="enable-background:new 0 0 512 512;" xml:space="preserve">
<path style="fill:#FE8F8D;" d="M10,182v280c0,22.091,17.909,40,40,40h412c22.091,0,40-17.909,40-40V182L280.703,18.276
	c-14.679-10.86-34.728-10.86-49.407,0L10,182z"/>
<path style="fill:#FFFFFF;" d="M97,10h261.5l91,90.987V469c0,18.225-14.775,33-33,33H97c-18.225,0-33-14.775-33-33v-21V43
	C64,24.775,78.775,10,97,10z"/>
<path style="fill:#72D8FF;" d="M358.5,11.167V76.5c0,13.531,10.969,24.5,24.5,24.5h65.333L358.5,11.167z"/>
<path style="fill:#FFC66C;" d="M328.473,355.527H183.527L10,182v280c0,22.091,17.909,40,40,40h412c22.091,0,40-17.909,40-40V182
	L328.473,355.527z"/>
<path style="fill:#FFB954;" d="M306.973,334.027c-28.151-28.151-73.794-28.151-101.945,0l-166.34,166.34
	C42.276,501.423,46.07,502,50,502h412c3.93,0,7.724-0.577,11.312-1.633L306.973,334.027z"/>
<path d="M508.99,174.855c-0.231-0.26-0.595-0.572-1.127-0.957L458,137.819V97.983c0-0.135-0.007-0.256-0.016-0.377
	c-0.094-2.47-1.094-4.875-2.914-6.695l-88-87.983c-1.655-1.655-3.796-2.614-6.027-2.849c-0.134-0.024-0.281-0.042-0.444-0.055
	c-0.038-0.002-0.076-0.009-0.114-0.01C360.335,0.005,360.174,0,360,0H84C67.458,0,54,13.458,54,30c0,5.522,4.478,10,10,10
	s10-4.478,10-10c0-5.514,4.486-10,10-10h266v57.983c0,16.542,13.458,30,30,30h58v123.874L328.473,341.385l-14.429-14.429
	c-32.006-32.006-84.082-32.006-116.088,0l-14.429,14.429L74,231.857V116h55.781c5.522,0,10-4.478,10-10s-4.478-10-10-10H34.5
	c-5.522,0-10,4.478-10,10s4.478,10,10,10H54v21.819L4.138,173.898c-0.103,0.075-0.189,0.146-0.275,0.218
	C1.516,175.947,0,178.793,0,182v280c0,27.57,22.43,50,50,50h412c27.57,0,50-22.43,50-50V182
	C512,179.199,510.845,176.671,508.99,174.855z M380,87.983c-5.514,0-10-4.486-10-10V34.139l53.854,53.845L380,87.983L380,87.983z
	 M458,162.506l28.633,20.719L458,211.857V162.506z M212.099,341.099c24.207-24.207,63.596-24.207,87.803,0L396.803,438h-160.79
	c-5.522,0-10,4.478-10,10s4.478,10,10,10h177.733c0.93,0,1.827-0.137,2.682-0.375L450.803,492H61.197l82-82H212
	c5.522,0,10-4.478,10-10s-4.478-10-10-10h-48.803L212.099,341.099z M54,211.857l-28.633-28.633L54,162.506V211.857z M20,462V206.143
	l149.385,149.385L36.983,487.929c-0.241,0.241-0.466,0.491-0.678,0.75C26.634,483.693,20,473.61,20,462z M475.694,488.678
	c-0.211-0.258-0.437-0.509-0.678-0.75L464,476.912v-106.08c0-5.522-4.478-10-10-10s-10,4.478-10,10v86.08L342.615,355.527
	L492,206.143V462C492,473.61,485.366,483.693,475.694,488.678z"/>
<path d="M454,319.91c-2.63,0-5.21,1.069-7.07,2.93s-2.93,4.44-2.93,7.07s1.069,5.21,2.93,7.069c1.86,1.86,4.44,2.931,7.07,2.931
	s5.21-1.07,7.069-2.931c1.86-1.859,2.931-4.439,2.931-7.069s-1.07-5.21-2.931-7.07C459.21,320.979,456.63,319.91,454,319.91z"/>
<path d="M129.781,76c5.522,0,10-4.478,10-10s-4.478-10-10-10h-46.26c-5.522,0-10,4.478-10,10s4.478,10,10,10H129.781z"/>
<path d="M46.5,76c2.63,0,5.21-1.07,7.069-2.931C55.43,71.21,56.5,68.63,56.5,66s-1.07-5.21-2.931-7.07
	C51.71,57.069,49.13,56,46.5,56s-5.21,1.069-7.07,2.93S36.5,63.37,36.5,66c0,2.63,1.069,5.21,2.93,7.069
	C41.29,74.93,43.87,76,46.5,76z"/>
<path d="M10,76c2.63,0,5.21-1.07,7.069-2.931C18.93,71.21,20,68.63,20,66s-1.07-5.21-2.931-7.07C15.21,57.069,12.63,56,10,56
	s-5.21,1.069-7.07,2.93S0,63.359,0,66c0,2.63,1.069,5.21,2.93,7.069C4.79,74.93,7.37,76,10,76z"/>
<path d="M196.998,218v-26h14.353c15.439,0,28-12.561,28-28s-12.561-28-28-28h-24.353c-5.522,0-10,4.478-10,10v36v36
	c0,5.522,4.478,10,10,10S196.998,223.522,196.998,218z M196.998,156h14.353c4.411,0,8,3.589,8,8s-3.589,8-8,8h-14.353V156z"/>
<path d="M130.475,156c5.422,0,9.833,3.589,9.833,8c0,5.522,4.478,10,10,10s10-4.478,10-10c0-15.439-13.383-28-29.833-28
	s-29.834,12.561-29.834,28s13.384,28,29.834,28c5.422,0,9.833,3.589,9.833,8s-4.411,8-9.833,8c-5.423,0-9.834-3.589-9.834-8
	c0-5.522-4.478-10-10-10s-10,4.478-10,10c0,15.439,13.384,28,29.834,28s29.833-12.561,29.833-28s-13.383-28-29.833-28
	c-5.423,0-9.834-3.589-9.834-8S125.052,156,130.475,156z"/>
<path d="M314.361,214.488l-27-72c-1.464-3.902-5.195-6.488-9.363-6.488s-7.899,2.586-9.363,6.488l-27,72
	c-1.939,5.172,0.681,10.936,5.852,12.875c5.175,1.938,10.936-0.683,12.875-5.852l2.067-5.512h31.14l2.067,5.512
	c1.506,4.015,5.315,6.491,9.365,6.491c1.166,0,2.353-0.206,3.51-0.64C313.681,225.424,316.301,219.66,314.361,214.488z
	 M262.455,215.928l0.008-0.021C262.521,215.914,262.51,215.921,262.455,215.928z M269.928,196l8.07-21.52l8.07,21.52H269.928z"/>
<path d="M401.359,228c5.522,0,10-4.478,10-10v-72c0-4.165-2.582-7.894-6.48-9.36s-8.297-0.362-11.042,2.771l-20.991,23.964
	l-20.992-23.964c-2.745-3.134-7.144-4.236-11.042-2.771c-3.898,1.467-6.48,5.195-6.48,9.36v72c0,5.522,4.478,10,10,10
	s10-4.478,10-10v-45.408l10.992,12.548c1.899,2.168,4.641,3.411,7.522,3.411s5.623-1.243,7.522-3.411l10.991-12.548V218
	C391.359,223.522,395.837,228,401.359,228z"/>
<g>
</g>
<g>
</g>
<g>
</g>
<g>
</g>
<g>
</g>
<g>
</g>
<g>
</g>
<g>
</g>
<g>
</g>
<g>
</g>
<g>
</g>
<g>
</g>
<g>
</g>
<g>
</g>
<g>
</g>
</svg>
