<?xml version="1.0"?>
<svg xmlns="http://www.w3.org/2000/svg" height="512px" viewBox="0 -5 512 512" width="512px" class=""><g><path d="m504.394531 176.039062v270.976563c0 26.339844-21.359375 47.691406-47.699219 47.691406h-401.398437c-26.339844 0-47.691406-21.351562-47.691406-47.691406v-270.976563c0-6.914062 1.429687-13.492187 4.003906-19.453124 7.53125-17.429688 24.878906-29.636719 45.074219-29.636719h398.621094c27.109374 0 49.089843 21.980469 49.089843 49.089843zm0 0" fill="#fec970" data-original="#FEC970"/><g fill="#fba028"><path d="m354.132812 126.949219c-13.355468 78.503906-61.238281 143.726562-125.769531 176.117187-64.535156-32.390625-112.417969-97.613281-125.769531-176.117187zm0 0" data-original="#000000"/><path d="m149.847656 296.082031-142.242187-118.4375v-1.601562c0-27.113281 21.96875-49.09375 49.078125-49.09375h81.707031c-86.714844 0-78.472656 60.46875 11.457031 169.132812zm0 0" data-original="#000000"/><path d="m448.117188 224.507812-134.679688 112.132813c-33.277344 27.71875-81.597656 27.71875-114.882812 0l-134.671876-112.132813-3.308593-2.757812-48.964844-65.164062c-2.574219 5.960937-4.003906 12.542968-4.003906 19.457031v270.972656c0 26.339844 21.351562 47.691406 47.691406 47.691406h202.730469s-61.953125-7.191406-114.902344-27.46875c-43.191406-16.539062-79.242188-60.539062-79.242188-106.789062v-61.8125c0-16.648438 19.417969-25.75 32.210938-15.09375l102.460938 85.3125c33.285156 27.71875 81.605468 27.71875 114.882812 0l134.679688-112.132813 56.28125-46.859375v-32.214843zm0 0" data-original="#000000"/></g><path d="m385.511719 82.308594c0 97.980468-53.085938 182.394531-129.511719 220.757812-76.425781-38.363281-129.511719-122.777344-129.511719-220.757812 0-8.414063.417969-16.707032 1.1875-24.898438l128.324219-49.800781 128.324219 49.800781c.769531 8.191406 1.1875 16.484375 1.1875 24.898438zm0 0" fill="#f71e1e" data-original="#F71E1E"/><path d="m256 7.609375v295.457031c-76.425781-38.363281-129.511719-122.777344-129.511719-220.757812 0-8.414063.417969-16.707032 1.1875-24.898438zm0 0" fill="#d80303" data-original="#D80303"/><path d="m344.9375 85.613281c-1.046875 70.464844-35.152344 135.039063-88.9375 170.664063-53.785156-35.625-87.890625-100.199219-88.9375-170.664063l88.9375-34.511719zm0 0" fill="#e4f5f7" data-original="#E4F5F7"/><path d="m256 51.101562v205.175782c-53.785156-35.625-87.890625-100.199219-88.9375-170.664063zm0 0" fill="#bfdadd" data-original="#BFDADD" class="active-path" style="fill:#BFDADD"/><path d="m504.394531 354.769531c4.203125 0 7.605469-3.402343 7.605469-7.601562v-171.128907c0-31.261718-25.433594-56.695312-56.695312-56.695312h-64.695313c1.660156-12.191406 2.507813-24.5625 2.507813-37.035156 0-8.335938-.410157-16.953125-1.21875-25.609375-.265626-2.867188-2.132813-5.339844-4.816407-6.382813l-128.332031-49.800781c-1.769531-.6875-3.730469-.6875-5.5 0l-128.332031 49.800781c-2.683594 1.042969-4.550781 3.515625-4.820313 6.382813-.804687 8.652343-1.214844 17.265625-1.214844 25.609375 0 12.5.839844 24.859375 2.492188 37.035156h-64.691406c-31.253906 0-56.683594 25.433594-56.683594 56.695312v270.976563c0 30.496094 24.804688 55.304687 55.296875 55.304687h401.398437c30.496094 0 55.304688-24.808593 55.304688-55.304687v-69.429687c0-4.203126-3.402344-7.605469-7.605469-7.605469-4.199219 0-7.601562 3.402343-7.601562 7.605469v69.429687c0 22.109375-17.988281 40.097656-40.097657 40.097656h-401.398437c-22.105469 0-40.089844-17.988281-40.089844-40.097656v-253.140625l178.480469 148.609375c18.058594 15.039063 40.183594 22.554687 62.3125 22.554687 22.125 0 44.253906-7.519531 62.300781-22.554687l178.492188-148.613281v153.296875c0 4.199219 3.402343 7.601562 7.601562 7.601562zm-195.828125-23.972656c-30.457031 25.375-74.675781 25.375-105.144531 0l-188.164063-156.671875c1.003907-21.992188 19.199219-39.570312 41.425782-39.570312h67.207031c3.070313 15.769531 7.535156 31.191406 13.40625 46.160156 1.535156 3.90625 5.949219 5.832031 9.855469 4.300781 3.910156-1.535156 5.835937-5.945313 4.304687-9.855469-11.523437-29.367187-17.363281-60.605468-17.363281-92.851562 0-6.375.253906-12.925782.753906-19.53125l121.152344-47.015625 121.152344 47.015625c.5 6.609375.753906 13.160156.753906 19.53125 0 45.996094-12.105469 90.546875-35.015625 128.832031-21.578125 36.0625-51.5625 64.820313-86.890625 83.375-38.265625-20.089844-69.941406-51.796875-91.765625-91.914063-2.003906-3.6875-6.621094-5.050781-10.3125-3.042968-3.6875 2.003906-5.050781 6.621094-3.046875 10.3125 23.960938 44.039062 59.128906 78.617187 101.714844 99.988281 1.070312.539063 2.238281.808594 3.410156.808594 1.167969 0 2.335938-.269531 3.410156-.808594 39.394532-19.773437 72.777344-51.210937 96.53125-90.910156 15.492188-25.890625 26.320313-54.464844 32.148438-84.394531h67.214844c22.234374 0 40.433593 17.578124 41.4375 39.570312zm0 0" data-original="#000000"/><path d="m341.710938 349.359375c-3.226563-2.683594-8.019532-2.25-10.710938.980469-2.683594 3.226562-2.25 8.019531.980469 10.710937l121.246093 100.949219c1.421876 1.183594 3.148438 1.757812 4.863282 1.757812 2.179687 0 4.34375-.929687 5.847656-2.738281 2.6875-3.226562 2.25-8.023437-.980469-10.710937zm0 0" data-original="#000000"/><path d="m170.289062 349.359375-121.246093 100.949219c-3.230469 2.6875-3.667969 7.484375-.980469 10.710937 1.503906 1.808594 3.667969 2.738281 5.847656 2.738281 1.714844 0 3.441406-.574218 4.863282-1.757812l121.246093-100.949219c3.230469-2.6875 3.664063-7.484375.980469-10.710937-2.6875-3.226563-7.484375-3.667969-10.710938-.980469zm0 0" data-original="#000000"/><path d="m251.800781 262.613281c1.273438.84375 2.734375 1.265625 4.199219 1.265625s2.925781-.421875 4.199219-1.265625c27.539062-18.238281 50.636719-44.199219 66.785156-75.074219 16.191406-30.953124 25.027344-66.160156 25.550781-101.808593.046875-3.179688-1.886718-6.050781-4.851562-7.199219l-88.933594-34.515625c-1.769531-.6875-3.730469-.6875-5.5 0l-88.933594 34.515625c-2.964844 1.148438-4.898437 4.019531-4.851562 7.199219.523437 35.648437 9.359375 70.855469 25.550781 101.808593 16.148437 30.875 39.246094 56.835938 66.785156 75.074219zm4.199219-203.351562 81.1875 31.507812c-1.238281 31.472657-9.378906 62.386719-23.679688 89.71875-14.128906 27.015625-33.949218 49.9375-57.507812 66.574219-23.558594-16.636719-43.378906-39.558594-57.507812-66.574219-14.300782-27.332031-22.445313-58.246093-23.679688-89.71875zm0 0" data-original="#000000"/></g> </svg>
