<?xml version="1.0" encoding="iso-8859-1"?>
<!-- Generator: Adobe Illustrator 19.0.0, SVG Export Plug-In . SVG Version: 6.00 Build 0)  -->
<svg version="1.1" id="Capa_1" xmlns="http://www.w3.org/2000/svg" xmlns:xlink="http://www.w3.org/1999/xlink" x="0px" y="0px"
	 viewBox="0 0 512.002 512.002" style="enable-background:new 0 0 512.002 512.002;" xml:space="preserve">
<g>
	<path style="fill:#EB5664;" d="M301.25,10.123c-1.254-0.167-2.516-0.148-3.749,0.035C298.734,9.975,299.996,9.956,301.25,10.123z"
		/>
	<path style="fill:#EB5664;" d="M291.429,12.662c-0.703,0.521-1.361,1.116-1.961,1.781
		C290.068,13.778,290.726,13.183,291.429,12.662z"/>
	<path style="fill:#EB5664;" d="M295.15,10.729c0.65-0.22,1.315-0.392,1.991-0.511C296.465,10.337,295.8,10.51,295.15,10.729z"/>
	<path style="fill:#EB5664;" d="M291.429,12.662c0.951-0.706,1.99-1.265,3.076-1.694C293.419,11.397,292.38,11.956,291.429,12.662z"
		/>
	<path style="fill:#EB5664;" d="M301.25,10.123c1.302,0.173,2.594,0.54,3.835,1.111C303.844,10.663,302.551,10.296,301.25,10.123z"
		/>
	<path style="fill:#EB5664;" d="M202.355,175.641c-0.671-1.118-1.174-2.324-1.498-3.576
		C201.181,173.317,201.684,174.523,202.355,175.641z"/>
	<path style="fill:#EB5664;" d="M391.68,77.82c3.779-6.413,1.643-14.675-4.77-18.454l-80.604-47.492l-0.908,98.223
		c-0.084,9.045-4.983,17.359-12.854,21.815l-85.48,48.392l61.076,35.986l63.579-36.707L391.68,77.82z"/>
	<path style="fill:#EB5664;" d="M200.594,170.799c-0.135-0.853-0.19-1.719-0.159-2.588
		C200.404,169.08,200.459,169.947,200.594,170.799z"/>
	<path style="fill:#EB5664;" d="M305.399,110.097l0.908-98.223c-0.401-0.236-0.809-0.449-1.223-0.64
		c-1.241-0.571-2.533-0.938-3.835-1.111c-1.254-0.167-2.516-0.148-3.749,0.035c-0.12,0.018-0.24,0.04-0.36,0.061
		c-0.676,0.119-1.341,0.291-1.991,0.511c-0.217,0.073-0.431,0.153-0.645,0.238c-1.086,0.43-2.125,0.989-3.076,1.694
		c-0.703,0.521-1.361,1.116-1.961,1.781c-0.6,0.665-1.142,1.4-1.615,2.201l-85.559,145.208c-0.708,1.202-1.209,2.47-1.512,3.761
		c-0.202,0.86-0.317,1.731-0.347,2.6s0.024,1.735,0.159,2.588c0.068,0.426,0.156,0.849,0.263,1.266
		c0.324,1.252,0.827,2.458,1.498,3.576c1.119,1.863,2.705,3.482,4.709,4.663l85.48-48.392
		C300.417,127.456,305.316,119.142,305.399,110.097z"/>
</g>
<g>
	<path style="fill:#93CA66;" d="M250.817,230.104c0.324-0.867,0.731-1.705,1.218-2.5
		C251.548,228.399,251.141,229.237,250.817,230.104z"/>
	<path style="fill:#93CA66;" d="M433.439,137.549l-53.248,92.146c-4.526,7.832-12.883,12.657-21.929,12.66l-106.424,0.042
		l34.995,60.614h89.631l101.857-58.808c6.914-3.992,9.283-12.834,5.291-19.749L433.439,137.549z"/>
	<path style="fill:#93CA66;" d="M421.925,130.354c1.852,0.131,3.665,0.617,5.334,1.429
		C425.59,130.971,423.777,130.485,421.925,130.354z"/>
	<path style="fill:#93CA66;" d="M431.728,135.173c0.637,0.719,1.212,1.512,1.711,2.376
		C432.94,136.684,432.365,135.891,431.728,135.173z"/>
	<path style="fill:#93CA66;" d="M249.936,234.161c0.065-0.926,0.22-1.842,0.459-2.735
		C250.155,232.319,250.001,233.235,249.936,234.161z"/>
	<path style="fill:#93CA66;" d="M380.191,229.694l53.248-92.145c-0.499-0.865-1.074-1.658-1.711-2.376
		c-1.275-1.438-2.799-2.577-4.469-3.389c-1.67-0.812-3.482-1.298-5.334-1.429c-2.777-0.196-5.641,0.406-8.234,1.903l-81.971,47.326
		l-63.579,36.707l-11.011,6.357c-2.161,1.248-3.878,2.969-5.095,4.957c-0.487,0.795-0.894,1.633-1.218,2.5
		c-0.162,0.434-0.303,0.875-0.423,1.321c-0.239,0.894-0.394,1.81-0.459,2.735c-0.033,0.463-0.043,0.929-0.031,1.395
		c0.061,2.331,0.687,4.679,1.934,6.84l0,0l106.424-0.042C367.308,242.35,375.665,237.525,380.191,229.694z"/>
</g>
<path style="fill:#F8C55A;" d="M184.553,303.01c-7.529,0-13.168,6.9-11.668,14.278l25.601,125.954
	c1.198-0.148,2.414-0.233,3.652-0.233c13.423,0,24.743,8.97,28.315,21.239h116.561c3.572-12.27,14.893-21.239,28.315-21.239
	c5.456,0,10.562,1.487,14.946,4.069l26.38-129.79c1.5-7.378-4.139-14.278-11.668-14.278h-28.52h-89.631L184.553,303.01
	L184.553,303.01z"/>
<g>
	<path style="fill:#4CC1EB;" d="M347.012,464.248c-0.763,2.621-1.18,5.389-1.18,8.256c0,16.29,13.205,29.495,29.495,29.495
		c16.29,0,29.495-13.206,29.495-29.495c0-10.834-5.845-20.298-14.55-25.426c-4.384-2.582-9.49-4.069-14.946-4.069
		C361.905,443.009,350.584,451.978,347.012,464.248z"/>
	<path style="fill:#4CC1EB;" d="M202.136,443.009c-1.237,0-2.454,0.085-3.652,0.233c-14.565,1.8-25.843,14.209-25.843,29.262
		c0,16.29,13.205,29.495,29.495,29.495s29.495-13.206,29.495-29.495c0-2.867-0.417-5.635-1.18-8.256
		C226.879,451.978,215.559,443.009,202.136,443.009z"/>
	<path style="fill:#4CC1EB;" d="M106.499,284.002v-38.67H45.777c-10.679,0-19.336,8.657-19.336,19.335l0,0
		c0,10.679,8.657,19.335,19.336,19.335h60.722V284.002z"/>
</g>
<path d="M442.099,132.549c-0.391-0.678-0.813-1.327-1.258-1.953c-0.029-0.041-0.056-0.084-0.085-0.125
	c-0.416-0.577-0.857-1.127-1.314-1.658c-0.078-0.091-0.152-0.186-0.231-0.274c-0.42-0.473-0.86-0.921-1.31-1.355
	c-0.17-0.164-0.34-0.328-0.514-0.486c-0.383-0.349-0.778-0.681-1.181-1.002c-0.269-0.215-0.542-0.425-0.819-0.628
	c-0.342-0.25-0.689-0.49-1.042-0.721c-0.335-0.219-0.675-0.43-1.019-0.632c-0.338-0.198-0.679-0.388-1.025-0.569
	c-0.348-0.183-0.701-0.356-1.057-0.522c-0.387-0.18-0.778-0.349-1.173-0.507c-0.323-0.13-0.648-0.254-0.976-0.37
	c-0.459-0.163-0.923-0.311-1.391-0.446c-0.153-0.044-0.299-0.104-0.454-0.146c-0.19-0.051-0.383-0.08-0.573-0.126
	c-0.266-0.064-0.534-0.12-0.801-0.176c-0.48-0.1-0.96-0.19-1.442-0.261c-0.131-0.019-0.263-0.032-0.395-0.049
	c-0.621-0.081-1.24-0.143-1.861-0.176c-0.087-0.005-0.173-0.005-0.26-0.009c-0.655-0.028-1.308-0.033-1.96-0.008
	c-0.21,0.008-0.42,0.023-0.63,0.037c-0.512,0.033-1.023,0.077-1.532,0.143c-0.392,0.05-0.783,0.109-1.173,0.178
	c-0.308,0.055-0.614,0.117-0.919,0.185c-0.497,0.108-0.992,0.227-1.485,0.367c-0.181,0.052-0.359,0.111-0.539,0.167
	c-0.566,0.175-1.129,0.366-1.686,0.585c-0.089,0.035-0.177,0.075-0.266,0.112c-0.63,0.256-1.255,0.534-1.87,0.847
	c-0.021,0.01-0.042,0.02-0.063,0.03c-0.37,0.189-0.737,0.389-1.1,0.599l-49.07,28.331L400.3,82.898
	c1.027-1.743,1.802-3.565,2.337-5.425c2.888-10.043-1.236-21.175-10.646-26.721c-0.002-0.001-0.005-0.002-0.007-0.003L311.388,3.261
	c-5.403-3.185-11.722-4.073-17.795-2.504c-6.071,1.569-11.169,5.409-14.352,10.813l-85.559,145.207
	c-0.204,0.346-0.398,0.696-0.583,1.049c-0.019,0.035-0.035,0.072-0.053,0.107c-2.659,5.137-3.327,10.994-1.868,16.638
	c0.037,0.145,0.093,0.282,0.133,0.426c0.128,0.461,0.27,0.917,0.425,1.365c0.106,0.308,0.219,0.611,0.337,0.913
	c0.153,0.393,0.317,0.779,0.49,1.16c0.152,0.335,0.311,0.664,0.478,0.99c0.176,0.344,0.36,0.683,0.552,1.017
	c0.188,0.326,0.382,0.646,0.585,0.961c0.223,0.347,0.453,0.688,0.694,1.023c0.19,0.264,0.385,0.523,0.587,0.779
	c0.308,0.391,0.623,0.776,0.956,1.146c0.151,0.168,0.306,0.333,0.463,0.498c0.414,0.435,0.838,0.862,1.286,1.266
	c0.088,0.08,0.181,0.154,0.27,0.232c0.505,0.44,1.024,0.867,1.569,1.267c0.044,0.032,0.09,0.062,0.134,0.094
	c0.59,0.426,1.2,0.83,1.834,1.205c0.006,0.004,0.012,0.008,0.019,0.012c0.002,0.001,0.004,0.002,0.007,0.003l46.677,27.503
	c-3.841,3.202-6.615,7.483-7.936,12.413c-1.69,6.31-0.823,12.9,2.443,18.558l26.336,45.614h-84.962
	c-4.993,0-9.745,1.68-13.573,4.709l-24.932-34.156c-4.813-6.596-12.563-10.533-20.729-10.533h-8.821v-7.697c0-5.522-4.478-10-10-10
	H45.777c-16.176,0-29.336,13.159-29.336,29.335c0,16.176,13.16,29.336,29.336,29.336h60.722c5.522,0,10-4.478,10-10v-10.974h8.821
	c1.802,0,3.512,0.868,4.573,2.323l33.626,46.067l23.308,114.678c-14.197,5.992-24.187,20.054-24.187,36.405
	c0,21.777,17.718,39.494,39.494,39.494c21.192,0,38.533-16.78,39.45-37.75h94.291c0.917,20.971,18.259,37.75,39.45,37.75
	c21.777,0,39.494-17.718,39.494-39.494c0-11.819-5.226-22.435-13.48-29.679l25.111-123.544c1.315-6.471-0.327-13.114-4.505-18.227
	c-2.676-3.274-6.177-5.649-10.081-6.937l71.456-41.255c5.657-3.266,9.704-8.54,11.396-14.85c1.69-6.31,0.823-12.9-2.443-18.559
	L442.099,132.549z M96.499,273.029v0.974H45.777c-5.147,0-9.336-4.188-9.336-9.336c0-5.148,4.188-9.335,9.336-9.335h16.887h33.835
	V273.029z M433.435,157.541l32.862,56.92l-65.77,0.026L433.435,157.541z M418.691,140.918c0.239-0.138,0.475-0.236,0.707-0.321
	c0.074-0.027,0.149-0.052,0.224-0.075c0.166-0.051,0.328-0.088,0.487-0.118c0.049-0.009,0.098-0.021,0.147-0.029l-42.832,74.122
	l-5.891,10.194c-2.73,4.725-7.817,7.662-13.274,7.664l-11.774,0.004l-34.991,0.013l-32.69,0.013l-3.044,0.001l-14.887,0.006
	c0.005-0.007,0.009-0.014,0.015-0.021c0.134-0.167,0.291-0.33,0.466-0.489c0.042-0.038,0.086-0.075,0.131-0.112
	c0.193-0.163,0.402-0.321,0.647-0.462l5.959-3.44l9.63-5.56l20.109-11.61l5.99-3.458l0,0l35.18-20.312L418.691,140.918z
	 M316.148,29.277l50.771,29.916l-51.316,29.052L316.148,29.277z M315.349,111.37l67.461-38.19l-27.147,46.071l-31.223,52.988l0,0
	l-26.399,15.241l0.439-47.484C308.491,133.875,314.843,123.094,315.349,111.37z M253.69,94.323l42.521-72.166l-0.717,77.471
	l-0.096,10.376c-0.05,5.457-3.032,10.518-7.781,13.206l-9.031,5.112l-67.42,38.168L253.69,94.323z M227.057,180.477l51.317-29.053
	l-0.441,47.665l-9.742,5.625L227.057,180.477z M269.154,252.389l65.77-0.025l-23.489,40.646h-18.829L269.154,252.389z
	 M221.542,474.247c-0.886,9.935-9.245,17.751-19.407,17.751c-10.75,0-19.495-8.745-19.495-19.495c0-6.602,3.306-12.437,8.341-15.965
	c3.164-2.217,7.006-3.53,11.154-3.53c10.75,0,19.495,8.745,19.495,19.495C221.631,473.092,221.594,473.671,221.542,474.247z
	 M375.327,491.998c-10.161,0-18.521-7.816-19.407-17.751c-0.051-0.576-0.088-1.155-0.088-1.744c0-8.365,5.305-15.494,12.719-18.256
	c2.114-0.788,4.391-1.239,6.776-1.239c1.148,0,2.267,0.119,3.361,0.311c7.114,1.243,12.907,6.342,15.137,13.068
	c0.639,1.926,0.997,3.979,0.997,6.117C394.821,483.253,386.077,491.998,375.327,491.998z M406.852,315.297l-24.071,118.427
	c-2.416-0.463-4.907-0.715-7.456-0.715c-15.193,0-28.402,8.629-35.004,21.239h-103.18c-5.938-11.339-17.217-19.451-30.478-20.972
	l-23.979-117.979c-0.149-0.732,0.131-1.268,0.392-1.587c0.262-0.319,0.729-0.7,1.477-0.7h96.508h18.818h23.1h16.169h39.998h25.84
	c0.747,0,1.215,0.381,1.477,0.7C406.722,314.029,407.002,314.564,406.852,315.297z M474.033,235.03
	c-0.216,0.189-0.452,0.362-0.71,0.512l-99.535,57.468h-39.251l23.495-40.655h0.237c12.574-0.006,24.293-6.771,30.583-17.657
	l0.119-0.206l85.601-0.034c-0.104,0.131-0.223,0.252-0.344,0.372C474.159,234.895,474.103,234.969,474.033,235.03z"/>
<path d="M315.191,326.484c0.011-0.001,0.023-0.005,0.034-0.006c-0.011,0.001-0.021,0.002-0.032,0.003L315.191,326.484z"/>
<path d="M244.3,337.513c-5.522,0-10,4.478-10,10v61.965c0,5.522,4.478,10,10,10c5.522,0,10-4.478,10-10v-61.965
	C254.3,341.989,249.822,337.513,244.3,337.513z"/>
<path d="M304.204,344.224c-1.271-3.646-4.584-6.328-8.575-6.669l0,0c-0.284-0.024-0.57-0.043-0.861-0.043c-5.522,0-10,4.478-10,10
	v61.965c0,5.522,4.478,10,10,10s10-4.478,10-10v-61.965C304.768,346.358,304.563,345.255,304.204,344.224L304.204,344.224z"/>
<path d="M354.466,405.648c-0.24-0.6-0.55-1.18-0.91-1.72c-0.37-0.55-0.79-1.06-1.25-1.52c-2.319-2.33-5.779-3.391-9.02-2.74
	c-0.641,0.13-1.271,0.32-1.87,0.57c-0.61,0.25-1.19,0.56-1.73,0.92c-0.55,0.369-1.06,0.79-1.52,1.25c-0.46,0.46-0.88,0.97-1.24,1.52
	c-0.37,0.54-0.67,1.12-0.92,1.72c-0.25,0.61-0.45,1.24-0.57,1.87c-0.13,0.65-0.199,1.311-0.199,1.96c0,0.65,0.069,1.311,0.199,1.95
	c0.12,0.64,0.32,1.271,0.57,1.87c0.25,0.599,0.56,1.19,0.92,1.729c0.36,0.54,0.78,1.061,1.24,1.521s0.97,0.88,1.52,1.24
	c0.54,0.359,1.12,0.67,1.73,0.92c0.6,0.25,1.229,0.439,1.87,0.569c0.64,0.131,1.3,0.2,1.95,0.2c2.63,0,5.21-1.069,7.069-2.93
	c0.46-0.46,0.88-0.98,1.24-1.521c0.36-0.539,0.67-1.13,0.92-1.729c0.25-0.599,0.45-1.23,0.57-1.87c0.13-0.64,0.2-1.3,0.2-1.95
	c0-0.649-0.07-1.31-0.2-1.96C354.916,406.888,354.716,406.259,354.466,405.648z"/>
<path d="M345.237,337.513c-5.522,0-10,4.478-10,10v21.966c0,5.522,4.478,10,10,10s10-4.478,10-10v-21.966
	C355.237,341.989,350.76,337.513,345.237,337.513z"/>
<g>
</g>
<g>
</g>
<g>
</g>
<g>
</g>
<g>
</g>
<g>
</g>
<g>
</g>
<g>
</g>
<g>
</g>
<g>
</g>
<g>
</g>
<g>
</g>
<g>
</g>
<g>
</g>
<g>
</g>
</svg>
