<svg height="512pt" viewBox="0 0 512 512" width="512pt" xmlns="http://www.w3.org/2000/svg"><g fill="#fc315f"><path d="m312.867188 422.523438c0 30.085937-24.390626 54.476562-54.476563 54.476562s-54.476563-24.390625-54.476563-54.476562c0-30.085938 24.390626-54.476563 54.476563-54.476563s54.476563 24.390625 54.476563 54.476563zm0 0"/><path d="m484.980469 7.605469h-87.648438c-10.722656 0-19.414062 8.691406-19.414062 19.414062v62.828125c0 10.722656 8.691406 19.417969 19.414062 19.417969h87.648438c10.722656 0 19.417969-8.695313 19.417969-19.417969v-62.828125c-.003907-10.722656-8.695313-19.414062-19.417969-19.414062zm0 0"/><path d="m139.398438 256c0 30.085938-24.390626 54.476562-54.476563 54.476562s-54.472656-24.390624-54.472656-54.476562 24.386719-54.476562 54.472656-54.476562 54.476563 24.390624 54.476563 54.476562zm0 0"/></g><path d="m312.140625 240.746094-41.738281-32.863282c-7.046875-5.546874-16.976563-5.546874-24.023438 0l-41.738281 32.863282c-9.871094 7.773437-9.871094 22.734375 0 30.507812l41.738281 32.863282c7.046875 5.546874 16.976563 5.546874 24.023438 0l41.738281-32.863282c9.871094-7.773437 9.871094-22.734375 0-30.507812zm0 0" fill="#55c7f3"/><path d="m424.34375 234.019531-25.378906 43.960938c-7.472656 12.941406 1.867187 29.121093 16.8125 29.121093h50.757812c14.945313 0 24.289063-16.179687 16.816406-29.121093l-25.382812-43.960938c-7.46875-12.941406-26.152344-12.941406-33.625 0zm0 0" fill="#fed563"/><path d="m323.960938 75.796875h-131.140626c-10.71875 0-19.414062 8.691406-19.414062 19.414063v26.066406c0 10.722656 8.695312 19.417968 19.414062 19.417968h131.140626c10.722656 0 19.414062-8.695312 19.414062-19.417968v-26.066406c0-10.722657-8.691406-19.414063-19.414062-19.414063zm0 0" fill="#56d8d8"/><path d="m107.351562 7.605469h-44.855468c-10.722656 0-19.417969 8.691406-19.417969 19.414062v26.066407c0 10.722656 8.695313 19.414062 19.417969 19.414062h44.855468c10.722657 0 19.414063-8.691406 19.414063-19.414062v-26.066407c0-10.722656-8.691406-19.414062-19.414063-19.414062zm0 0" fill="#fed563"/><path d="m397.332031 504.394531h87.648438c10.722656 0 19.417969-8.691406 19.417969-19.414062v-23.582031c0-10.722657-8.695313-19.414063-19.417969-19.414063h-87.648438c-10.722656 0-19.414062 8.691406-19.414062 19.414063v23.582031c0 10.722656 8.691406 19.414062 19.414062 19.414062zm0 0" fill="#55c7f3"/><path d="m120.84375 356.195312h-93.824219c-10.722656 0-19.414062 8.695313-19.414062 19.417969v93.820313c0 10.722656 8.691406 19.417968 19.414062 19.417968h93.824219c10.722656 0 19.414062-8.695312 19.414062-19.417968v-93.820313c0-10.722656-8.691406-19.417969-19.414062-19.417969zm0 0" fill="#56d8d8"/><path d="m84.921875 225.125c-17.023437 0-30.871094 13.851562-30.871094 30.875s13.847657 30.875 30.871094 30.875 30.875-13.851562 30.875-30.875-13.851563-30.875-30.875-30.875zm0 46.542969c-8.636719 0-15.664063-7.03125-15.664063-15.667969s7.027344-15.664062 15.664063-15.664062c8.640625 0 15.667969 7.027343 15.667969 15.664062s-7.027344 15.667969-15.667969 15.667969zm0 0"/><path d="m484.980469 116.867188c14.898437 0 27.019531-12.121094 27.019531-27.019532v-62.828125c0-14.898437-12.121094-27.019531-27.019531-27.019531h-87.648438c-14.894531 0-27.015625 12.121094-27.015625 27.019531v62.828125c0 14.898438 12.121094 27.019532 27.015625 27.019532h36.222657v100.917968c-6.589844 1.898438-12.226563 6.25-15.796876 12.433594l-10.492187 18.175781h-81.195313c-1.550781-5.332031-4.730468-10.085937-9.226562-13.625l-41.738281-32.863281c-2.777344-2.1875-5.875-3.734375-9.105469-4.6875v-48.921875h57.960938c14.898437 0 27.019531-12.121094 27.019531-27.019531v-26.066406c0-14.894532-12.121094-27.015626-27.019531-27.015626h-40.582032c-4.199218 0-7.605468 3.402344-7.605468 7.601563s3.40625 7.605469 7.605468 7.605469h40.582032c6.511718 0 11.8125 5.296875 11.8125 11.808594v26.066406c0 6.511718-5.300782 11.8125-11.8125 11.8125h-131.140626c-6.511718 0-11.808593-5.300782-11.808593-11.8125v-26.066406c0-6.511719 5.296875-11.808594 11.808593-11.808594h60.140626c4.199218 0 7.601562-3.40625 7.601562-7.605469s-3.402344-7.601563-7.601562-7.601563h-60.140626c-14.894531 0-27.015624 12.121094-27.015624 27.015626v26.066406c0 14.898437 12.121093 27.019531 27.015624 27.019531h57.972657v48.921875c-3.230469.949219-6.332031 2.5-9.117188 4.691406l-41.738281 32.859375c-4.496094 3.539063-7.671875 8.296875-9.222656 13.625h-44.195313c-3.457031-28.160156-25.832031-50.535156-53.992187-53.992187v-114.300782h14.824218c14.898438 0 27.015626-12.117187 27.015626-27.015624v-26.066407c0-14.898437-12.117188-27.019531-27.015626-27.019531h-44.855468c-14.898438 0-27.019532 12.121094-27.019532 27.019531v26.0625c0 14.898438 12.121094 27.019531 27.019532 27.019531h14.824218v114.300782c-30.65625 3.761718-54.476562 29.941406-54.476562 61.597656 0 34.230469 27.847656 62.078125 62.078125 62.078125 31.65625 0 57.835937-23.820313 61.597656-54.476563h44.191407c1.554687 5.332032 4.730468 10.085938 9.226562 13.625l41.738281 32.863282c2.785157 2.191406 5.886719 3.742187 9.117188 4.691406v46.144531c-28.164063 3.453125-50.542969 25.832031-54 53.992188h-48.929688v-39.308594c0-14.894531-12.121093-27.015625-27.019531-27.015625h-93.824219c-14.898437 0-27.019531 12.121094-27.019531 27.019531v45.917969c0 4.199219 3.40625 7.605469 7.605469 7.605469s7.601562-3.40625 7.601562-7.605469v-45.917969c0-6.511719 5.300781-11.8125 11.8125-11.8125h93.824219c6.511719 0 11.808594 5.300781 11.808594 11.8125v93.824219c0 6.511719-5.296875 11.808594-11.808594 11.808594h-93.824219c-6.511719 0-11.8125-5.296875-11.8125-11.808594v-17.488281c0-4.199219-3.402343-7.601563-7.601562-7.601563s-7.605469 3.402344-7.605469 7.601563v17.488281c0 14.894531 12.121094 27.015625 27.019531 27.015625h93.824219c14.898438 0 27.019531-12.121094 27.019531-27.015625v-39.308594h48.929688c3.765625 30.652344 29.945312 54.472656 61.597656 54.472656 34.230469 0 62.082031-27.847656 62.082031-62.078124 0-31.652344-23.820312-57.832032-54.472656-61.597657v-46.144531c3.226562-.953125 6.324219-2.5 9.105469-4.691406l41.738281-32.859375c4.496094-3.539063 7.675781-8.296875 9.226562-13.628907h72.414063l-6.105469 10.574219c-4.886718 8.460938-4.886718 18.5625 0 27.019531 4.882813 8.460938 13.628906 13.511719 23.398438 13.511719h17.773437v119.675781h-36.21875c-14.898437 0-27.019531 12.121094-27.019531 27.019532v23.578125c0 14.898437 12.121094 27.019531 27.019531 27.019531h87.648438c14.898437 0 27.019531-12.121094 27.019531-27.019531v-23.578125c0-14.898438-12.121094-27.019532-27.019531-27.019532h-36.21875v-119.675781h17.777343c9.765626 0 18.511719-5.050781 23.398438-13.511719 4.882812-8.457031 4.882812-18.558593 0-27.019531l-25.382812-43.957031c-3.566407-6.183594-9.207032-10.53125-15.792969-12.433594v-100.917968zm-434.296875-63.785157v-26.0625c0-6.511719 5.296875-11.8125 11.8125-11.8125h44.855468c6.511719 0 11.808594 5.300781 11.808594 11.8125v26.0625c0 6.515625-5.296875 11.8125-11.808594 11.8125h-44.855468c-6.515625 0-11.8125-5.296875-11.8125-11.8125zm34.238281 249.789063c-25.84375 0-46.871094-21.027344-46.871094-46.871094s21.027344-46.871094 46.871094-46.871094c25.847656 0 46.871094 21.027344 46.871094 46.871094s-21.027344 46.871094-46.871094 46.871094zm220.339844 119.652344c0 25.84375-21.023438 46.871093-46.871094 46.871093-25.84375 0-46.871094-21.027343-46.871094-46.871093 0-25.832032 21.007813-46.851563 46.835938-46.871094.015625 0 .027343.003906.039062.003906.015625 0 .027344-.003906.039063-.003906 25.824218.023437 46.828125 21.039062 46.828125 46.871094zm2.175781-157.242188-41.738281 32.859375c-2.113281 1.664063-4.640625 2.507813-7.171875 2.535156-.042969 0-.085938-.007812-.132813-.007812-.042969 0-.089843.007812-.132812.007812-2.535157-.027343-5.0625-.867187-7.175781-2.535156l-41.738282-32.859375c-2.859375-2.25-4.496094-5.621094-4.503906-9.253906 0-.007813 0-.019532 0-.027344 0-.011719 0-.019531 0-.027344.007812-3.632812 1.644531-7.003906 4.503906-9.253906l41.738282-32.859375c2.117187-1.671875 4.652343-2.511719 7.195312-2.539063.039062.003907.074219.007813.113281.007813.039063 0 .074219-.003906.113281-.007813 2.539063.027344 5.070313.871094 7.191407 2.539063l41.738281 32.859375c2.863281 2.253906 4.503906 5.636719 4.503906 9.28125s-1.640625 7.027344-4.503906 9.28125zm189.355469 196.121094v23.578125c0 6.511719-5.300781 11.8125-11.8125 11.8125h-87.648438c-6.511719 0-11.808593-5.300781-11.808593-11.8125v-23.578125c0-6.515625 5.296874-11.8125 11.808593-11.8125h87.648438c6.511719 0 11.8125 5.296875 11.8125 11.8125zm-45.40625-223.578125 25.378906 43.957031c2.136719 3.695312 2.136719 8.113281 0 11.8125-2.132813 3.695312-5.957031 5.902344-10.226563 5.902344h-50.761718c-4.269532 0-8.09375-2.207032-10.226563-5.902344-2.136719-3.699219-2.136719-8.113281 0-11.8125l25.378907-43.957031c2.136718-3.699219 5.957031-5.90625 10.230468-5.90625 4.269532 0 8.089844 2.207031 10.226563 5.90625zm-65.863281-147.976563v-62.828125c0-6.511719 5.296874-11.8125 11.808593-11.8125h87.648438c6.511719 0 11.8125 5.300781 11.8125 11.8125v62.828125c0 6.511719-5.300781 11.808594-11.8125 11.808594h-87.648438c-6.511719.003906-11.808593-5.296875-11.808593-11.808594zm0 0"/><path d="m409.222656 49.953125h63.871094c4.199219 0 7.605469-3.40625 7.605469-7.605469 0-4.199218-3.40625-7.605468-7.605469-7.605468h-63.871094c-4.203125 0-7.605468 3.40625-7.605468 7.605468 0 4.199219 3.402343 7.605469 7.605468 7.605469zm0 0"/><path d="m480.699219 75.804688c0-4.199219-3.40625-7.601563-7.605469-7.601563h-63.871094c-4.203125 0-7.605468 3.402344-7.605468 7.601563 0 4.199218 3.402343 7.605468 7.605468 7.605468h63.871094c4.199219 0 7.605469-3.40625 7.605469-7.605468zm0 0"/><path d="m41.992188 399.203125h63.875c4.199218 0 7.605468-3.402344 7.605468-7.601563 0-4.199218-3.40625-7.605468-7.605468-7.605468h-63.875c-4.199219 0-7.601563 3.40625-7.601563 7.605468 0 4.199219 3.402344 7.601563 7.601563 7.601563zm0 0"/><path d="m41.992188 430.128906h63.875c4.199218 0 7.605468-3.40625 7.605468-7.605468 0-4.199219-3.40625-7.605469-7.605468-7.605469h-63.875c-4.199219 0-7.601563 3.40625-7.601563 7.605469 0 4.199218 3.402344 7.605468 7.601563 7.605468zm0 0"/><path d="m41.992188 461.050781h63.875c4.199218 0 7.605468-3.40625 7.605468-7.605469 0-4.199218-3.40625-7.601562-7.605468-7.601562h-63.875c-4.199219 0-7.601563 3.402344-7.601563 7.601562 0 4.199219 3.402344 7.605469 7.601563 7.605469zm0 0"/></svg>