<?xml version="1.0" encoding="iso-8859-1"?>
<!-- Generator: Adobe Illustrator 19.0.0, SVG Export Plug-In . SVG Version: 6.00 Build 0)  -->
<svg version="1.1" id="Capa_1" xmlns="http://www.w3.org/2000/svg" xmlns:xlink="http://www.w3.org/1999/xlink" x="0px" y="0px"
	 viewBox="0 0 512 512" style="enable-background:new 0 0 512 512;" xml:space="preserve">
<g>
	<path style="fill:#4CC1EB;" d="M392.201,329.533c0.276,0.458,0.527,0.931,0.765,1.409
		C392.728,330.464,392.477,329.992,392.201,329.533z"/>
	<path style="fill:#4CC1EB;" d="M233.051,422.802L116.949,357.5v125.328c0,10.588,8.584,19.172,19.172,19.172h239.757
		c10.589,0,19.172-8.584,19.172-19.172V357.5l-116.102,65.302C264.699,430.816,247.301,430.816,233.051,422.802z"/>
	<path style="fill:#4CC1EB;" d="M118.37,332.407c0.398-0.995,0.876-1.956,1.429-2.874
		C119.246,330.452,118.768,331.413,118.37,332.407z"/>
</g>
<path style="fill:#238FB4;" d="M350.445,297.1c-0.058,0.043-0.117,0.084-0.175,0.127c-0.941,0.693-1.889,1.378-2.846,2.051
	c-0.088,0.063-0.178,0.123-0.267,0.185c-0.929,0.651-1.864,1.294-2.807,1.925c-0.124,0.083-0.25,0.164-0.375,0.247
	c-0.913,0.607-1.83,1.208-2.755,1.796c-0.16,0.102-0.323,0.201-0.484,0.302c-0.896,0.565-1.795,1.125-2.702,1.672
	c-0.196,0.119-0.396,0.233-0.593,0.351c-0.877,0.524-1.757,1.044-2.646,1.551c-0.236,0.135-0.476,0.265-0.713,0.399
	c-0.856,0.483-1.713,0.963-2.579,1.431c-0.273,0.148-0.551,0.289-0.825,0.435c-0.838,0.446-1.676,0.891-2.522,1.323
	c-0.3,0.153-0.604,0.298-0.905,0.45c-0.828,0.416-1.656,0.831-2.493,1.232c-0.312,0.15-0.628,0.292-0.941,0.439
	c-0.834,0.394-1.669,0.788-2.512,1.168c-0.263,0.119-0.53,0.23-0.794,0.347c-0.9,0.4-1.801,0.798-2.709,1.182
	c-0.001,0-0.002,0.001-0.002,0.001h-0.001c-10.214,4.31-20.975,7.574-32.145,9.681l0,0c-0.005,0.001-0.01,0.002-0.015,0.003
	c-1.154,0.217-2.312,0.421-3.474,0.614c-0.08,0.013-0.161,0.027-0.241,0.04c-1.101,0.181-2.206,0.35-3.315,0.508
	c-0.164,0.023-0.328,0.046-0.492,0.069c-1.037,0.144-2.077,0.28-3.12,0.404c-0.261,0.031-0.523,0.06-0.784,0.089
	c-0.96,0.109-1.922,0.214-2.887,0.306c-0.375,0.036-0.751,0.066-1.126,0.1c-0.868,0.077-1.737,0.152-2.61,0.215
	c-0.512,0.037-1.026,0.065-1.539,0.097c-0.752,0.047-1.503,0.097-2.258,0.133c-0.715,0.035-1.434,0.057-2.152,0.082
	c-0.571,0.02-1.14,0.046-1.712,0.061c-1.307,0.032-2.617,0.05-3.931,0.05c-1.561,0-3.115-0.029-4.665-0.073
	c-0.454-0.013-0.907-0.035-1.36-0.052c-1.124-0.042-2.245-0.093-3.363-0.158c-0.48-0.028-0.958-0.059-1.437-0.091
	c-1.153-0.078-2.303-0.168-3.449-0.27c-0.39-0.035-0.78-0.066-1.169-0.104c-1.517-0.146-3.03-0.309-4.534-0.498
	c-0.003,0-0.006,0-0.01-0.001l0,0c-22.164-2.778-42.905-10.122-61.264-21.051c-0.091-0.054-0.182-0.107-0.273-0.162
	c-0.903-0.54-1.8-1.09-2.691-1.648c-0.146-0.091-0.293-0.182-0.439-0.274c-0.856-0.539-1.706-1.087-2.551-1.642
	c-0.173-0.113-0.346-0.227-0.518-0.341c-0.826-0.547-1.647-1.102-2.462-1.664c-0.182-0.126-0.363-0.252-0.545-0.378
	c-0.808-0.562-1.611-1.131-2.408-1.708c-0.177-0.128-0.353-0.257-0.53-0.386c-0.802-0.585-1.599-1.175-2.389-1.775
	c-0.155-0.118-0.309-0.237-0.464-0.356c-0.192-0.147-0.384-0.293-0.575-0.441l-34.916,29.522c-1.674,1.416-3.082,3.08-4.188,4.917
	c-0.553,0.918-1.031,1.879-1.429,2.874c-0.265,0.663-0.495,1.34-0.688,2.03c-0.482,1.723-0.733,3.521-0.733,5.348l0,0V357.5
	l116.102,65.302c14.25,8.015,31.648,8.015,45.898,0L395.051,357.5v-17.715l0,0c0-1.827-0.251-3.625-0.733-5.348
	c-0.193-0.689-0.422-1.367-0.688-2.03c-0.199-0.498-0.425-0.985-0.664-1.465c-0.238-0.479-0.489-0.951-0.765-1.409
	c-1.106-1.836-2.515-3.501-4.188-4.917l-34.916-29.522C352.219,295.771,351.337,296.441,350.445,297.1z"/>
<g>
	<path style="fill:#E5EAED;" d="M164.933,208.655h28.226c5.914,0,10.709,4.794,10.709,10.708v100.054
		c-10.22-3.544-19.965-8.101-29.119-13.549c18.359,10.929,39.1,18.273,61.264,21.051v-85.583c0-5.915,4.794-10.709,10.709-10.709
		h28.226c5.914,0,10.709,4.794,10.709,10.709v84.059c11.17-2.106,21.931-5.371,32.145-9.681V174.233
		c0-5.914,4.794-10.708,10.708-10.708h28.226c5.914,0,10.709,4.794,10.709,10.708v108.359c-2.664,2.615-5.418,5.138-8.26,7.562
		c34.204-29.179,55.898-72.588,55.898-121.071C415.084,81.224,343.86,10,256,10S96.917,81.224,96.917,169.083
		c0,49.146,22.291,93.082,57.308,122.263v-71.983C154.225,213.449,159.019,208.655,164.933,208.655z"/>
	<path style="fill:#E5EAED;" d="M359.179,290.16c-0.941,0.803-1.892,1.595-2.852,2.376
		C357.288,291.755,358.238,290.962,359.179,290.16z"/>
	<path style="fill:#E5EAED;" d="M350.445,297.1c0.891-0.659,1.774-1.329,2.651-2.005c0.069-0.053,0.138-0.105,0.207-0.159
		C352.359,295.667,351.407,296.39,350.445,297.1z"/>
	<path style="fill:#E5EAED;" d="M156.747,293.401c-0.846-0.677-1.688-1.359-2.52-2.053
		C155.06,292.042,155.901,292.725,156.747,293.401z"/>
	<path style="fill:#E5EAED;" d="M356.276,292.578c-0.945,0.769-1.898,1.526-2.861,2.273
		C354.378,294.104,355.331,293.346,356.276,292.578z"/>
	<path style="fill:#E5EAED;" d="M240.557,327.418c-1.517-0.146-3.03-0.309-4.534-0.498
		C237.527,327.109,239.04,327.272,240.557,327.418z"/>
	<path style="fill:#E5EAED;" d="M174.476,305.707c-0.903-0.54-1.8-1.09-2.691-1.648
		C172.677,304.617,173.573,305.167,174.476,305.707z"/>
	<path style="fill:#E5EAED;" d="M256,328.167c-1.561,0-3.115-0.028-4.665-0.073C252.885,328.138,254.439,328.167,256,328.167z"/>
	<path style="fill:#E5EAED;" d="M323.819,313.017c-0.834,0.394-1.669,0.788-2.512,1.168
		C322.15,313.805,322.984,313.411,323.819,313.017z"/>
	<path style="fill:#E5EAED;" d="M249.975,328.042c-1.124-0.042-2.245-0.093-3.363-0.158C247.73,327.949,248.851,328,249.975,328.042
		z"/>
	<path style="fill:#E5EAED;" d="M320.514,314.532c-0.9,0.4-1.801,0.798-2.709,1.182C318.713,315.33,319.614,314.932,320.514,314.532
		z"/>
	<path style="fill:#E5EAED;" d="M159.479,295.536c-0.811-0.62-1.618-1.245-2.416-1.88c0.61,0.485,1.224,0.963,1.841,1.439
		C159.095,295.243,159.287,295.389,159.479,295.536z"/>
	<path style="fill:#E5EAED;" d="M266.053,327.841c-0.752,0.047-1.504,0.097-2.258,0.133
		C264.55,327.938,265.301,327.889,266.053,327.841z"/>
	<path style="fill:#E5EAED;" d="M261.643,328.057c-0.571,0.02-1.14,0.046-1.712,0.061
		C260.504,328.103,261.073,328.076,261.643,328.057z"/>
	<path style="fill:#E5EAED;" d="M270.202,327.529c-0.868,0.077-1.737,0.152-2.61,0.215
		C268.465,327.681,269.333,327.605,270.202,327.529z"/>
	<path style="fill:#E5EAED;" d="M285.641,325.398c-1.154,0.217-2.312,0.421-3.474,0.614
		C283.33,325.82,284.488,325.616,285.641,325.398z"/>
	<path style="fill:#E5EAED;" d="M281.926,326.052c-1.101,0.181-2.207,0.35-3.315,0.508
		C279.72,326.402,280.825,326.233,281.926,326.052z"/>
	<path style="fill:#E5EAED;" d="M350.271,297.228c-0.941,0.694-1.889,1.378-2.846,2.051
		C348.382,298.606,349.329,297.921,350.271,297.228z"/>
	<path style="fill:#E5EAED;" d="M278.119,326.629c-1.037,0.145-2.077,0.279-3.12,0.404
		C276.042,326.909,277.082,326.773,278.119,326.629z"/>
	<path style="fill:#E5EAED;" d="M274.215,327.123c-0.96,0.11-1.922,0.213-2.887,0.306
		C272.293,327.336,273.255,327.232,274.215,327.123z"/>
	<path style="fill:#E5EAED;" d="M245.175,327.792c-1.153-0.078-2.303-0.168-3.449-0.27
		C242.872,327.624,244.022,327.715,245.175,327.792z"/>
	<path style="fill:#E5EAED;" d="M162.333,297.667c-0.802-0.585-1.599-1.176-2.389-1.775
		C160.734,296.492,161.531,297.082,162.333,297.667z"/>
	<path style="fill:#E5EAED;" d="M347.158,299.464c-0.929,0.651-1.864,1.294-2.807,1.925
		C345.294,300.758,346.229,300.115,347.158,299.464z"/>
	<path style="fill:#E5EAED;" d="M168.277,301.802c-0.826-0.547-1.647-1.102-2.462-1.664
		C166.631,300.701,167.451,301.255,168.277,301.802z"/>
	<path style="fill:#E5EAED;" d="M327.253,311.345c-0.828,0.416-1.657,0.831-2.493,1.232
		C325.597,312.176,326.425,311.76,327.253,311.345z"/>
	<path style="fill:#E5EAED;" d="M343.976,301.636c-0.912,0.607-1.83,1.207-2.755,1.796
		C342.146,302.843,343.063,302.243,343.976,301.636z"/>
	<path style="fill:#E5EAED;" d="M165.271,299.761c-0.808-0.562-1.611-1.131-2.408-1.708
		C163.659,298.63,164.463,299.199,165.271,299.761z"/>
	<path style="fill:#E5EAED;" d="M171.346,303.785c-0.856-0.539-1.706-1.087-2.551-1.642
		C169.641,302.698,170.49,303.246,171.346,303.785z"/>
	<path style="fill:#E5EAED;" d="M340.737,303.733c-0.895,0.565-1.795,1.125-2.702,1.672
		C338.942,304.858,339.841,304.298,340.737,303.733z"/>
	<path style="fill:#E5EAED;" d="M334.083,307.706c-0.856,0.483-1.713,0.963-2.579,1.431
		C332.37,308.669,333.228,308.189,334.083,307.706z"/>
	<path style="fill:#E5EAED;" d="M337.442,305.756c-0.877,0.524-1.757,1.044-2.646,1.551
		C335.685,306.8,336.565,306.28,337.442,305.756z"/>
	<path style="fill:#E5EAED;" d="M330.68,309.572c-0.837,0.446-1.676,0.891-2.522,1.323
		C329.004,310.463,329.842,310.019,330.68,309.572z"/>
</g>
<path style="fill:#F8C55A;" d="M159.479,295.536c0.155,0.119,0.309,0.238,0.464,0.356c0.79,0.599,1.587,1.19,2.389,1.775
	c0.177,0.129,0.352,0.258,0.53,0.386c0.797,0.577,1.6,1.146,2.408,1.708c0.181,0.126,0.363,0.252,0.545,0.378
	c0.815,0.562,1.636,1.117,2.462,1.664c0.172,0.114,0.345,0.228,0.518,0.341c0.845,0.555,1.695,1.103,2.551,1.642
	c0.146,0.092,0.292,0.183,0.439,0.274c0.892,0.558,1.788,1.108,2.691,1.648c0.091,0.055,0.182,0.107,0.273,0.162
	c9.153,5.448,18.899,10.005,29.119,13.549V219.363c0-5.914-4.794-10.708-10.709-10.708h-28.226c-5.914,0-10.709,4.794-10.709,10.708
	v71.983l0,0c0.001,0,0.002,0.001,0.003,0.002c0.832,0.693,1.673,1.376,2.52,2.053c0.106,0.084,0.21,0.17,0.316,0.254
	C157.862,294.291,158.668,294.916,159.479,295.536z"/>
<path style="fill:#93CA66;" d="M274.948,230.628h-28.226c-5.914,0-10.709,4.794-10.709,10.709v85.583l0,0
	c0.003,0,0.006,0.001,0.01,0.001c1.505,0.188,3.017,0.351,4.534,0.498c0.389,0.038,0.779,0.069,1.169,0.104
	c1.146,0.102,2.296,0.192,3.449,0.27c0.478,0.032,0.957,0.063,1.437,0.091c1.118,0.065,2.239,0.116,3.363,0.158
	c0.453,0.017,0.906,0.039,1.36,0.052c1.55,0.045,3.104,0.073,4.665,0.073c1.314,0,2.625-0.018,3.931-0.05
	c0.572-0.014,1.141-0.041,1.712-0.061c0.718-0.025,1.437-0.047,2.152-0.082c0.755-0.037,1.506-0.086,2.258-0.133
	c0.513-0.032,1.027-0.06,1.539-0.097c0.872-0.063,1.741-0.138,2.61-0.215c0.375-0.034,0.751-0.064,1.126-0.1
	c0.965-0.093,1.927-0.196,2.887-0.306c0.261-0.03,0.523-0.059,0.784-0.089c1.043-0.125,2.083-0.26,3.12-0.404
	c0.164-0.023,0.328-0.045,0.492-0.069c1.109-0.158,2.214-0.327,3.315-0.508c0.08-0.013,0.161-0.027,0.241-0.04
	c1.162-0.192,2.321-0.396,3.474-0.614c0.005-0.001,0.01-0.002,0.015-0.003l0,0v-84.059
	C285.656,235.422,280.862,230.628,274.948,230.628z"/>
<path style="fill:#EB5664;" d="M367.445,174.233c0-5.914-4.794-10.708-10.709-10.708H328.51c-5.914,0-10.708,4.794-10.708,10.708
	v141.481l0,0c0,0,0.002-0.001,0.003-0.001c0.909-0.383,1.809-0.782,2.709-1.182c0.264-0.117,0.531-0.229,0.794-0.347
	c0.843-0.38,1.677-0.774,2.512-1.168c0.313-0.148,0.629-0.29,0.941-0.439c0.836-0.402,1.665-0.817,2.493-1.232
	c0.301-0.151,0.605-0.297,0.905-0.45c0.846-0.432,1.685-0.876,2.522-1.323c0.274-0.146,0.552-0.287,0.825-0.435
	c0.865-0.468,1.723-0.948,2.579-1.431c0.237-0.134,0.477-0.264,0.713-0.399c0.888-0.507,1.768-1.027,2.646-1.551
	c0.197-0.118,0.396-0.232,0.593-0.351c0.907-0.547,1.807-1.106,2.702-1.672c0.161-0.101,0.323-0.2,0.484-0.302
	c0.926-0.589,1.843-1.189,2.755-1.796c0.125-0.083,0.25-0.164,0.375-0.247c0.943-0.631,1.878-1.274,2.807-1.925
	c0.089-0.062,0.178-0.123,0.267-0.185c0.957-0.673,1.905-1.357,2.846-2.051c0.058-0.043,0.117-0.084,0.175-0.127
	c0.961-0.71,1.914-1.433,2.858-2.164c0.037-0.029,0.074-0.057,0.111-0.085c0.962-0.747,1.916-1.504,2.861-2.273
	c0.017-0.014,0.034-0.028,0.052-0.042c0.96-0.781,1.911-1.574,2.852-2.376c0.002-0.002,0.004-0.003,0.006-0.005
	c2.841-2.424,5.596-4.947,8.26-7.562v-108.36H367.445z"/>
<path d="M375.235,288.85c30.773-30.638,49.848-73.016,49.848-119.767C425.083,75.851,349.233,0,256,0S86.917,75.851,86.917,169.083
	c0,50.025,21.844,95.038,56.487,126.023l-25.871,21.875c-6.726,5.685-10.583,13.997-10.583,22.805V357.5v125.327
	c0,16.086,13.086,29.173,29.172,29.173h239.756c16.086,0,29.173-13.087,29.173-29.173V357.5v-17.715
	c0-2.024-0.213-4.019-0.608-5.965c-0.099-0.489-0.212-0.975-0.335-1.458c-0.053-0.208-0.099-0.418-0.156-0.625
	c-0.067-0.239-0.147-0.474-0.219-0.711c-0.085-0.276-0.163-0.555-0.256-0.829c-0.319-0.941-0.689-1.864-1.1-2.768
	c-0.033-0.072-0.061-0.146-0.094-0.218c-0.425-0.916-0.9-1.807-1.417-2.676c-0.032-0.054-0.06-0.11-0.093-0.164
	c-0.099-0.164-0.208-0.321-0.31-0.483c-0.5-0.794-1.051-1.558-1.625-2.306c-1.28-1.667-2.731-3.218-4.368-4.603l-25.811-21.823
	c1.967-1.761,3.898-3.571,5.792-5.431C374.733,289.45,374.99,289.155,375.235,288.85z M126.949,339.785
	c0-2.909,1.273-5.653,3.495-7.531l28.898-24.434c12.718,8.883,26.538,15.944,41.249,21.045c0.208,0.072,0.419,0.131,0.63,0.189
	c10.716,3.68,21.913,6.315,33.472,7.774c0.025,0.003,0.05,0.01,0.075,0.013c0.284,0.036,0.571,0.06,0.855,0.094
	c1.293,0.156,2.589,0.3,3.89,0.426c0.507,0.049,1.014,0.091,1.521,0.136c1.161,0.102,2.323,0.194,3.487,0.272
	c0.519,0.035,1.038,0.069,1.558,0.099c1.2,0.07,2.402,0.124,3.603,0.169c0.462,0.017,0.924,0.039,1.386,0.053
	c1.645,0.048,3.29,0.077,4.931,0.077c1.376,0,2.754-0.019,4.132-0.053c0.636-0.015,1.272-0.044,1.908-0.067
	c0.718-0.025,1.437-0.047,2.155-0.082c0.813-0.04,1.625-0.091,2.438-0.143c0.531-0.033,1.061-0.063,1.592-0.101
	c0.891-0.064,1.781-0.14,2.67-0.218c0.451-0.04,0.903-0.078,1.354-0.121c0.912-0.088,1.823-0.186,2.734-0.288
	c0.439-0.049,0.878-0.098,1.317-0.151c0.889-0.107,1.776-0.222,2.663-0.343c0.482-0.065,0.964-0.133,1.445-0.203
	c0.822-0.119,1.642-0.245,2.461-0.375c0.581-0.093,1.161-0.19,1.741-0.289c0.708-0.121,1.416-0.245,2.122-0.375
	c0.259-0.047,0.52-0.088,0.778-0.137c0.096-0.018,0.189-0.046,0.284-0.067c11.427-2.183,22.449-5.516,32.94-9.881
	c0.322-0.099,0.641-0.214,0.956-0.347c10.952-4.623,21.305-10.343,30.977-17.099l28.889,24.425c1.458,1.232,2.508,2.837,3.057,4.618
	c0.183,0.594,0.311,1.207,0.379,1.832c0.039,0.357,0.059,0.718,0.059,1.082v11.866l-99.943,56.213l-11.061,6.221
	c-3.508,1.973-7.284,3.321-11.159,4.05c-4.547,0.856-9.229,0.856-13.775,0c-3.875-0.729-7.651-2.077-11.159-4.05l-11.061-6.221
	l-99.943-56.213V339.785z M175.265,294.358c-3.802-2.458-7.486-5.083-11.04-7.867v-8.989v-58.138c0-0.391,0.318-0.709,0.708-0.709
	h28.226c0.391,0,0.708,0.318,0.708,0.709v33.075v26.191v25.958C187.406,301.611,181.191,298.19,175.265,294.358z M275.487,316.894
	c-0.947,0.124-1.896,0.233-2.845,0.339c-0.276,0.031-0.552,0.066-0.828,0.095c-0.945,0.1-1.891,0.186-2.837,0.268
	c-0.298,0.026-0.594,0.056-0.892,0.08c-0.895,0.072-1.792,0.131-2.688,0.187c-0.362,0.022-0.722,0.049-1.085,0.069
	c-0.825,0.046-1.65,0.079-2.476,0.111c-0.444,0.018-0.886,0.038-1.331,0.051c-0.755,0.023-1.511,0.035-2.267,0.046
	c-0.517,0.008-1.033,0.017-1.551,0.02c-0.71,0.003-1.42-0.003-2.13-0.01c-0.557-0.005-1.113-0.009-1.668-0.021
	c-0.693-0.014-1.386-0.037-2.078-0.061c-0.565-0.02-1.131-0.039-1.695-0.065c-0.68-0.031-1.361-0.069-2.041-0.11
	c-0.354-0.021-0.707-0.044-1.06-0.067v-76.488c0-0.391,0.318-0.709,0.708-0.709h26.466l0,0h1.76c0.391,0,0.709,0.318,0.709,0.709
	v1.378l0,0v74.154C275.6,316.877,275.544,316.886,275.487,316.894z M126.949,374.598l79.802,44.885l-79.802,46.032
	C126.949,465.515,126.949,374.598,126.949,374.598z M382.945,488.667c-0.025,0.03-0.054,0.057-0.079,0.087
	c-0.196,0.231-0.404,0.452-0.622,0.662c-0.08,0.077-0.163,0.149-0.246,0.223c-0.177,0.16-0.36,0.313-0.549,0.458
	c-0.092,0.07-0.183,0.141-0.277,0.208c-0.216,0.153-0.439,0.295-0.668,0.43c-0.069,0.041-0.135,0.086-0.205,0.125
	c-0.299,0.165-0.609,0.314-0.927,0.445c-0.081,0.034-0.165,0.06-0.247,0.091c-0.245,0.093-0.495,0.178-0.75,0.25
	c-0.113,0.032-0.227,0.061-0.341,0.088c-0.243,0.059-0.491,0.107-0.742,0.146c-0.109,0.017-0.217,0.037-0.327,0.05
	c-0.357,0.042-0.719,0.07-1.087,0.07H136.122c-0.368,0-0.73-0.028-1.087-0.07c-0.11-0.013-0.217-0.033-0.326-0.05
	c-0.251-0.039-0.499-0.087-0.743-0.146c-0.114-0.027-0.227-0.056-0.34-0.087c-0.256-0.073-0.506-0.157-0.752-0.251
	c-0.081-0.031-0.165-0.057-0.245-0.09c-0.319-0.132-0.629-0.281-0.928-0.446c-0.069-0.038-0.135-0.083-0.203-0.123
	c-0.23-0.135-0.454-0.278-0.67-0.432c-0.094-0.066-0.185-0.136-0.276-0.207c-0.19-0.146-0.373-0.299-0.551-0.458
	c-0.082-0.074-0.165-0.146-0.244-0.222c-0.219-0.211-0.427-0.433-0.624-0.665c-0.025-0.029-0.052-0.055-0.077-0.084
	c-0.216-0.261-0.414-0.537-0.601-0.82c-0.018-0.027-0.033-0.056-0.05-0.083l98.614-56.884l1.132,0.637
	c8.591,4.832,18.219,7.247,27.851,7.247c9.63-0.001,19.263-2.416,27.852-7.247l1.131-0.636l98.613,56.883
	c-0.018,0.028-0.033,0.057-0.051,0.084C383.359,488.132,383.161,488.407,382.945,488.667z M305.249,419.482l79.802-44.885v90.917
	L305.249,419.482z M356.737,153.524H328.51c-11.418,0-20.708,9.29-20.708,20.709v4.267c0,5.522,4.478,10,10,10s10-4.478,10-10
	v-4.267c0-0.391,0.317-0.709,0.708-0.709h28.227c0.391,0,0.708,0.318,0.708,0.709v103.988c-1.402,1.305-2.826,2.587-4.278,3.837l0,0
	c-5.18,4.461-10.669,8.573-16.43,12.299l0,0c-2.91,1.882-5.89,3.663-8.934,5.342v-12.896l0,0v-26.191l0,0V258.5
	c0-5.522-4.478-10-10-10c-1.251,0-2.443,0.24-3.547,0.659l0,0c-3.769,1.433-6.453,5.069-6.453,9.341v11.394l0,0v38.985
	c-3.972,1.477-8.023,2.785-12.146,3.923v-53.177l0,0v-18.288c0-3.703-0.989-7.174-2.699-10.185l0,0
	c-2.417-4.256-6.295-7.562-10.95-9.258l0,0c-2.207-0.804-4.578-1.266-7.06-1.266h-28.226c-11.419,0-20.708,9.29-20.708,20.709
	v10.113v63.687c-4.114-0.843-8.162-1.866-12.146-3.042v-50.376v-26.191v-16.164c0-11.419-9.29-20.709-20.708-20.709h-28.226
	c-11.419,0-20.708,9.29-20.708,20.709v48.255c-23.204-26.292-37.308-60.795-37.308-98.536C106.917,86.878,173.795,20,256,20
	s149.083,66.878,149.083,149.083c0,32.17-10.244,61.992-27.639,86.378v-81.228C377.445,162.814,368.155,153.524,356.737,153.524z"/>
<path d="M352.992,86.201l-31.324-5.607c-5.436-0.972-10.632,2.646-11.605,8.082c-0.973,5.436,2.646,10.632,8.082,11.605
	l10.902,1.952l-72.115,53.69c-0.964,0.72-2.257,0.79-3.294,0.181l-26.761-15.701c-6.712-3.941-14.882-4.226-21.853-0.765
	l-77.811,38.623c-4.947,2.455-6.966,8.456-4.511,13.403c1.746,3.519,5.286,5.556,8.965,5.556c1.493,0,3.01-0.336,4.438-1.045
	l77.811-38.623c0.905-0.45,1.965-0.413,2.838,0.1l26.762,15.702c7.982,4.684,17.937,4.138,25.358-1.388l72.555-54.018l0.091,10.008
	c0.051,5.492,4.518,9.909,9.998,9.909c0.031,0,0.063,0,0.093,0c5.522-0.051,9.959-4.568,9.909-10.091l-0.29-31.82
	C361.187,91.146,357.727,87.049,352.992,86.201z"/>
<path d="M308,220.45c0.13,0.64,0.319,1.27,0.569,1.869c0.25,0.61,0.561,1.19,0.921,1.73c0.359,0.55,0.779,1.06,1.239,1.52
	c1.86,1.86,4.44,2.931,7.07,2.931c0.65,0,1.31-0.061,1.96-0.19c0.63-0.13,1.26-0.33,1.87-0.58c0.6-0.25,1.18-0.55,1.72-0.92
	c0.55-0.359,1.061-0.78,1.521-1.24s0.88-0.97,1.239-1.52c0.36-0.54,0.671-1.12,0.921-1.73c0.25-0.6,0.449-1.229,0.569-1.869
	c0.13-0.641,0.2-1.301,0.2-1.95c0-0.65-0.07-1.311-0.2-1.95c-0.12-0.64-0.319-1.271-0.569-1.87c-0.25-0.61-0.551-1.189-0.91-1.729
	c-0.37-0.551-0.79-1.061-1.25-1.521s-0.971-0.88-1.521-1.24c-0.54-0.37-1.12-0.67-1.72-0.92c-0.61-0.25-1.24-0.45-1.87-0.58
	c-3.25-0.649-6.71,0.42-9.03,2.74c-0.46,0.46-0.88,0.97-1.239,1.521c-0.36,0.54-0.671,1.119-0.921,1.729
	c-0.25,0.6-0.439,1.23-0.569,1.87s-0.2,1.3-0.2,1.95C307.8,219.149,307.87,219.81,308,220.45z"/>
<g>
</g>
<g>
</g>
<g>
</g>
<g>
</g>
<g>
</g>
<g>
</g>
<g>
</g>
<g>
</g>
<g>
</g>
<g>
</g>
<g>
</g>
<g>
</g>
<g>
</g>
<g>
</g>
<g>
</g>
</svg>
