<?xml version="1.0"?>
<svg xmlns="http://www.w3.org/2000/svg" xmlns:xlink="http://www.w3.org/1999/xlink" version="1.1" id="Capa_1" x="0px" y="0px" viewBox="0 0 512 512" style="enable-background:new 0 0 512 512;" xml:space="preserve" width="512px" height="512px" class=""><g><path style="fill:#FF0023" d="M499.698,121.244H349.382c-23.352,0-42.283,18.931-42.283,42.283v49.417v74.626h101.699h0.351  c43.214,0,79.716-28.756,91.399-68.173c2.565-8.607,3.938-17.725,3.938-27.163v-24.899v-41.303  C504.485,123.387,502.342,121.244,499.698,121.244z" data-original="#E8E1D6" class="active-path" data-old_color="#825B1F"/><path style="fill:#E2CCAF;" d="M409.529,204.537c-1.339-0.33-2.743-0.494-4.181-0.494h-93.379H307.1v8.9v74.626h101.699h0.351  c4.83,0,9.57-0.379,14.207-1.071v-0.719v-63.727C423.356,213.547,417.452,206.414,409.529,204.537z" data-original="#E2CCAF"/><path style="fill:#FF0023" d="M162.618,121.244H12.302c-2.644,0-4.787,2.143-4.787,4.787v41.303v24.899  c0,9.438,1.373,18.556,3.938,27.163c11.683,39.417,48.184,68.173,91.399,68.173h0.351H204.9v-74.626v-49.417  C204.9,140.175,185.969,121.244,162.618,121.244z" data-original="#E8E1D6" class="active-path" data-old_color="#825B1F"/><path style="fill:#E2CCAF;" d="M204.9,212.943v-8.9h-4.868h-93.379c-0.933,0-1.844,0.066-2.743,0.208  c-8.637,1.317-15.265,8.79-15.265,17.8v63.727v0.719c4.637,0.693,9.376,1.071,14.207,1.071h0.351H204.9V212.943z" data-original="#E2CCAF"/><path style="fill:#FFCF59;" d="M396.174,213.394c-1.222-0.301-2.505-0.451-3.817-0.451H307.1H204.9h-85.257  c-0.852,0-1.683,0.06-2.505,0.19c-7.885,1.202-13.937,8.026-13.937,16.252v58.184v94.935v0.832c0,9.078,7.364,16.442,16.442,16.442  h272.713c9.078,0,16.442-7.364,16.442-16.442v-0.832v-94.935v-58.184C408.798,221.62,403.408,215.108,396.174,213.394z" data-original="#FFCF59" class=""/><g>
	<path style="fill:#FFC033;" d="M396.174,213.394c-1.222-0.301-2.505-0.451-3.817-0.451H307.1H204.9h-85.257   c-0.808,0-1.596,0.059-2.376,0.175c-0.042,0.006-0.086,0.008-0.129,0.015l0,0l0,0c-0.97,0.147-1.911,0.383-2.817,0.692   l137.15,121.856c2.642,2.117,6.405,2.105,9.033-0.03L396.174,213.394L396.174,213.394z" data-original="#FFC033"/>
	<path style="fill:#FFC033;" d="M159.221,376.378c-9.078,0-16.442-7.364-16.442-16.442v-0.832v-94.935v-51.225h-23.135   c-0.852,0-1.683,0.06-2.505,0.19c-7.885,1.202-13.937,8.026-13.937,16.252v58.184v94.935v0.832c0,9.078,7.364,16.442,16.442,16.442   h272.713c9.078,0,16.442-7.364,16.442-16.442v-0.832v-6.127L159.221,376.378L159.221,376.378z" data-original="#FFC033"/>
</g><path style="fill:#F2B25F;" d="M408.798,382.505v0.832c0,9.078-7.364,16.442-16.442,16.442H119.644  c-9.078,0-16.442-7.364-16.442-16.442v-0.832l132.018-71.86h0.01l41.431-0.14l0.11,0.14L408.798,382.505z" data-original="#F2B25F" class=""/><g>
	<path style="fill:#E89F4F;" d="M276.771,310.644l-0.11-0.14l-41.431,0.14h-0.01l-7.396,4.026l23.648,21.011   c2.642,2.117,6.405,2.105,9.033-0.03l23.426-21.11L276.771,310.644z" data-original="#E89F4F"/>
	<path style="fill:#E89F4F;" d="M159.221,376.378c-8.74,0-15.872-6.832-16.392-15.443l-39.627,21.57v0.832   c0,2.158,0.428,4.214,1.184,6.103c0.044,0.109,0.079,0.223,0.125,0.332c2.505,5.882,8.338,10.009,15.133,10.009h272.713   c6.794,0,12.628-4.127,15.133-10.009c0.046-0.108,0.081-0.221,0.125-0.332c0.757-1.889,1.184-3.945,1.184-6.103v-0.832   l-11.257-6.127H159.221z" data-original="#E89F4F"/>
</g><path style="fill:#F2AA0A;" d="M396.174,213.394c-1.222-0.301-2.505-0.451-3.817-0.451H307.1H204.9h-85.257  c-0.808,0-1.596,0.059-2.376,0.175c-0.042,0.006-0.086,0.008-0.129,0.015l0,0l0,0c-0.97,0.147-1.911,0.383-2.817,0.692  l120.898,96.818h0.01l16.242,13.014c2.642,2.117,6.405,2.105,9.033-0.03l16.157-13.124L396.174,213.394L396.174,213.394z" data-original="#F2AA0A"/><path d="M504.485,113.73H349.382c-27.459,0-49.797,22.339-49.797,49.797v41.904h-87.17v-41.904  c0-27.459-22.339-49.797-49.797-49.797H7.515c-4.151,0-7.515,3.364-7.515,7.515v70.99c0,54.304,42.305,98.906,95.687,102.596v87.666  c0,0.016,0,0.032,0,0.048v0.791c0,13.208,10.746,23.953,23.953,23.953H392.36c13.208,0,23.953-10.746,23.953-23.953v-0.791  c0-0.016,0-0.032,0-0.048V294.83C469.695,291.139,512,246.537,512,192.234v-70.99C512,117.094,508.636,113.73,504.485,113.73z   M22.172,226.911h52.473c4.151,0,7.515-3.364,7.515-7.515s-3.364-7.515-7.515-7.515H17.247c-1.45-6.318-2.217-12.895-2.217-19.647  v-17.385h108.712c4.151,0,7.515-3.364,7.515-7.515c0-4.151-3.364-7.515-7.515-7.515H15.029v-31.061h147.588  c19.171,0,34.768,15.596,34.768,34.768v41.904H119.64c-13.208,0-23.953,10.746-23.953,23.953v50.376  C62.662,277.083,34.747,256.054,22.172,226.911z M392.36,392.26H119.64c-3.757,0-6.974-2.338-8.287-5.632l123.076-66.992  l16.874,13.512c1.373,1.1,3.034,1.649,4.697,1.649c1.679,0,3.36-0.562,4.738-1.682l16.687-13.557l123.221,67.07  C399.333,389.922,396.118,392.26,392.36,392.26z M397.434,222.053c2.323,1.612,3.85,4.295,3.85,7.331v140.478l-111.246-60.552  L397.434,222.053z M416.313,279.761v-50.376c0-11.281-7.841-20.76-18.359-23.286c-0.12-0.029-0.24-0.06-0.362-0.083  c-1.685-0.377-3.435-0.583-5.232-0.583h-26.646c-4.151,0-7.515,3.364-7.515,7.515c0,4.151,3.364,7.515,7.515,7.515h9.845  l-119.594,97.167l0,0c-0.021-0.017,0.021,0.017,0,0l-52.59-42.111c-3.237-2.593-7.968-2.071-10.563,1.169  c-2.594,3.238-2.07,7.969,1.169,10.563l27.726,22.201l-110.993,60.413V229.385c0-2.578,1.105-4.897,2.859-6.527l56.442,45.198  c1.387,1.109,3.045,1.649,4.693,1.649c2.203,0,4.387-0.964,5.87-2.818c2.594-3.238,2.07-7.969-1.169-10.563l-44.784-35.863h201.029  c4.151,0,7.515-3.364,7.515-7.515c0-4.151-3.364-7.515-7.515-7.515h-21.041v-41.904c0-19.171,15.596-34.768,34.768-34.768h147.588  v31.061H388.258c-4.151,0-7.515,3.364-7.515,7.515c0,4.151,3.364,7.515,7.515,7.515h108.712v17.385  c0,6.752-0.767,13.329-2.217,19.647h-57.399c-4.151,0-7.515,3.364-7.515,7.515c0,4.151,3.364,7.515,7.515,7.515h52.473  C477.253,256.054,449.338,277.083,416.313,279.761z" data-original="#000000" class="" style="fill:#000000"/><path d="M254.998,137.777c4.151,0,7.515-3.364,7.515-7.515v-18.035c0-4.151-3.364-7.515-7.515-7.515  c-4.151,0-7.515,3.364-7.515,7.515v18.035C247.483,134.413,250.847,137.777,254.998,137.777z" data-original="#000000" class="" style="fill:#000000"/><path d="M279.045,141.784c1.923,0,3.846-0.733,5.314-2.2l9.018-9.018c2.935-2.936,2.935-7.693,0-10.628  c-2.936-2.934-7.693-2.934-10.628,0l-9.018,9.018c-2.935,2.936-2.935,7.693,0,10.628  C275.199,141.051,277.122,141.784,279.045,141.784z" data-original="#000000" class="" style="fill:#000000"/><path d="M225.637,139.584c1.468,1.467,3.392,2.2,5.314,2.2s3.847-0.733,5.314-2.2c2.935-2.936,2.935-7.693,0-10.628l-9.018-9.018  c-2.936-2.934-7.693-2.934-10.628,0c-2.935,2.936-2.935,7.693,0,10.628L225.637,139.584z" data-original="#000000" class="" style="fill:#000000"/></g> </svg>
