<?xml version="1.0" encoding="utf-8"?>
<svg id="master-artboard" viewBox="0 0 1500 300" version="1.1" xmlns="http://www.w3.org/2000/svg" x="0px" y="0px" width="1500px" height="300px" enable-background="new 0 0 335.986 235.19"><rect id="ee-background" x="0" y="0" width="1500" height="300" style="fill: white; fill-opacity: 0; pointer-events: none;"/>





<g id="Reputation_Management_1_" transform="matrix(0.9998270869255066, -0.018812296912074093, 0.018812296912074093, 0.9998270869255066, 15.531676657585422, 70.94774837260991)">
	<g>
		
			<path d="M 305.5429992675781 151.2729949951172 L 275.5270080566406 122.2699966430664 L 303.3110046386719 140.63299560546875 Z" fill="#4F97CD" stroke="#1D1D1B" stroke-width="2" stroke-linecap="round" stroke-linejoin="round" stroke-miterlimit="10"/>
		
			<path fill="#4F97CD" stroke="#1D1D1B" stroke-width="2" stroke-linecap="round" stroke-linejoin="round" stroke-miterlimit="10" d="&#10;&#9;&#9;&#9;M274.58,121.223h-0.002c0.004-0.002,0.006-0.002,0.006-0.002c0.004-0.002,0.006-0.004,0.006-0.004h0.004&#10;&#9;&#9;&#9;c15.619,10.547,28.125,21.266,28.125,21.266l-14.855,10.662c-0.188,0.105-0.424,0.039-0.527-0.143&#10;&#9;&#9;&#9;C287.336,153.002,274.223,121.445,274.58,121.223z"/>
		
			<path fill="#4F97CD" stroke="#1D1D1B" stroke-width="2" stroke-linecap="round" stroke-linejoin="round" stroke-miterlimit="10" d="&#10;&#9;&#9;&#9;M274.58,121.252c0.002-0.008-0.002-0.023-0.002-0.023v-0.006c0.004-0.002,0.006-0.002,0.006-0.002&#10;&#9;&#9;&#9;c0.004-0.002,0.006-0.004,0.006-0.004h0.004c0.348-0.229,46.268,13.348,46.268,13.348c0.301,0.086,0.379,0.252,0.166,0.371&#10;&#9;&#9;&#9;l-10.734,2.689l-1.33,0.756L274.58,121.252z"/>
		
			<path d="M 310.27099609375 137.593994140625 L 305.5429992675781 151.2729949951172 L 302.75 142.55299377441406 L 274.593994140625 121.21700286865234 Z" fill="#4F97CD" stroke="#1D1D1B" stroke-width="2" stroke-linecap="round" stroke-linejoin="round" stroke-miterlimit="10"/>
	</g>
</g>





<path fill-rule="evenodd" clip-rule="evenodd" fill="none" stroke="#000000" stroke-width="2" stroke-miterlimit="10" stroke-dasharray="6" d="&#10;&#9;M258.5,93.563c1.334-12.667,2.668-25.334,2-38c-0.666-8.667-2-18.667-6.666-26c-2-4-6-8.667-10.666-7.334c-4,0.667-6,4.667-6,8&#10;&#9;c0,9.334,11.332,12,18.666,10.667c8-0.667,16-4.667,24-8" transform="matrix(-0.9852789044380188, -0.1710037589073181, 0.1710037589073181, -0.9852789044380188, 595.5043176487959, 294.7478658652855)"/><path fill-rule="evenodd" clip-rule="evenodd" fill="none" stroke="#000000" stroke-width="2" stroke-miterlimit="10" stroke-dasharray="6" d="&#10;&#9;M236.094,179.799c6.666,3.333,16,6.667,20.666,13.333c4,5.334,0,10.667-4.666,14c-6.668,4.667-14.668,8-22.668,8&#10;&#9;c-8,0.667-15.332-3.333-22-7.333c-8-5.333-16-11.333-25.332-14c-6.668-1.333-14.668-0.667-18.667,6&#10;&#9;c-2.667,4.667-1.333,10.667,4.667,13.333c2.666,1.334,6,1.334,8.666,0.667c2-0.667,6-1.333,6-4c0.666-3.333-5.334-5.333-7.334-6&#10;&#9;c-6.666-2.667-14-3.333-20.667-4c-12-0.667-23.333,1.333-34,6.667" transform="matrix(1.0244927406311035, 0.3496324419975281, -0.3496324419975281, 1.0244927406311035, 315.46494997301534, -113.02821140522218)"/><g transform="matrix(1, 0, 0, 1, 304.6357263402024, 96.96171016460204)">
	<path fill-rule="evenodd" clip-rule="evenodd" fill="#83CCCD" stroke="#1D1D1B" stroke-width="2" stroke-miterlimit="10" d="&#10;&#9;&#9;M42.686,47.56L37.9,54.497c-0.122,0.185-0.315,0.283-0.538,0.283c-0.221,0-0.409-0.099-0.536-0.283l-4.78-6.938&#10;&#9;&#9;c-5.938-2.169-10.174-7.866-10.174-14.552c0-8.554,6.938-15.49,15.49-15.49c8.555,0,15.492,6.937,15.492,15.49&#10;&#9;&#9;C52.854,39.693,48.617,45.391,42.686,47.56z"/>
	<path fill-rule="evenodd" clip-rule="evenodd" fill="#FFC05A" stroke="#1D1D1B" stroke-width="2" stroke-miterlimit="10" d="&#10;&#9;&#9;M66.729,47.56l4.781,6.938c0.125,0.185,0.316,0.283,0.539,0.283s0.41-0.099,0.538-0.283l4.78-6.938&#10;&#9;&#9;c5.937-2.169,10.174-7.866,10.174-14.552c0-8.554-6.939-15.49-15.492-15.49c-8.554,0-15.492,6.937-15.492,15.49&#10;&#9;&#9;C56.557,39.693,60.793,45.391,66.729,47.56z"/>
	<path fill-rule="evenodd" clip-rule="evenodd" fill="#0992A4" d="M37.366,40.941c4.257,0,7.731-3.473,7.731-7.734&#10;&#9;&#9;c0-4.26-3.475-7.736-7.731-7.736c-4.263,0-7.737,3.477-7.737,7.736C29.628,37.469,33.103,40.941,37.366,40.941z"/>
	<path fill-rule="evenodd" clip-rule="evenodd" fill="#F49A00" d="M72.049,40.941c4.258,0,7.734-3.473,7.734-7.734&#10;&#9;&#9;c0-4.26-3.477-7.736-7.734-7.736c-4.26,0-7.736,3.477-7.736,7.736C64.313,37.469,67.79,40.941,72.049,40.941z"/>
	<path fill-rule="evenodd" clip-rule="evenodd" fill="#0E3C54" d="M60.784,56.201l-5.463,7.922&#10;&#9;&#9;c-0.146,0.208-0.364,0.326-0.613,0.326c-0.254,0-0.473-0.118-0.613-0.326l-5.461-7.922c-6.775-2.476-11.612-8.98-11.612-16.609&#10;&#9;&#9;c0-9.769,7.919-17.69,17.687-17.69c9.764,0,17.686,7.922,17.686,17.69C72.393,47.221,67.555,53.726,60.784,56.201z"/>
	<g>
		
			<path d="M 64.366 40.941002 A 9.658 9.658 0 0 1 54.708 50.599002 A 9.658 9.658 0 0 1 45.05 40.941002 A 9.658 9.658 0 0 1 54.708 31.283002 A 9.658 9.658 0 0 1 64.366 40.941002 Z" fill-rule="evenodd" clip-rule="evenodd" fill="#FFFFFF" stroke="#1D1D1B" stroke-width="2" stroke-miterlimit="10"/>
	</g>
</g>
<path fill-rule="evenodd" clip-rule="evenodd" fill="none" stroke="#000000" stroke-width="2" stroke-miterlimit="10" stroke-dasharray="6" d="&#10;&#9;M88.426,86.465c-9,4-17,7-26,11c-7,3-15,6-21,11c-5,5-4,12,0,17c7,7,18,10,27,10c10,0,21-2,28-8c3-3,5-9-2-8c-6,1-12,6-14,12&#10;&#9;c-3,7,3,11,9,12c13,1,26-4,37-10c10-5,18-12,26-20" transform="matrix(1, 0, 0, 1, 457.41557253160886, 94.24962825542235)"/>
<g id="Reputation_Management_10_" transform="matrix(-1, 0, 0, 1, 833.0731653050464, 160.24330348735594)">
	<g>
		
			<path d="M 83.41699981689453 92.08300018310547 L 113.43199920654297 63.07899856567383 L 85.6500015258789 81.44200134277344 Z" fill="#4F97CD" stroke="#1D1D1B" stroke-width="2" stroke-linecap="round" stroke-linejoin="round" stroke-miterlimit="10"/>
		
			<path fill="#4F97CD" stroke="#1D1D1B" stroke-width="2" stroke-linecap="round" stroke-linejoin="round" stroke-miterlimit="10" d="&#10;&#9;&#9;&#9;M114.379,62.032h0.002c-0.004-0.002-0.006-0.002-0.006-0.002c-0.004-0.002-0.006-0.004-0.006-0.004h-0.004&#10;&#9;&#9;&#9;C98.747,72.573,86.241,83.292,86.241,83.292l14.855,10.662c0.188,0.105,0.424,0.039,0.527-0.143&#10;&#9;&#9;&#9;C101.624,93.812,114.737,62.255,114.379,62.032z"/>
		
			<path fill="#4F97CD" stroke="#1D1D1B" stroke-width="2" stroke-linecap="round" stroke-linejoin="round" stroke-miterlimit="10" d="&#10;&#9;&#9;&#9;M114.379,62.062c-0.002-0.008,0.002-0.023,0-0.029h0.002c-0.004-0.002-0.006-0.002-0.006-0.002&#10;&#9;&#9;&#9;c-0.004-0.002-0.006-0.004-0.006-0.004h-0.004c-0.348-0.229-46.268,13.348-46.268,13.348c-0.301,0.086-0.379,0.252-0.166,0.371&#10;&#9;&#9;&#9;l10.734,2.689l1.331,0.756L114.379,62.062z"/>
		
			<path d="M 78.68800354003906 78.40299987792969 L 83.41699981689453 92.08300018310547 L 86.20899963378906 83.36199951171875 L 114.36599731445312 62.0260009765625 Z" fill="#4F97CD" stroke="#1D1D1B" stroke-width="2" stroke-linecap="round" stroke-linejoin="round" stroke-miterlimit="10"/>
	</g>
</g>

<path fill-rule="evenodd" clip-rule="evenodd" fill="none" stroke="#000000" stroke-width="2" stroke-miterlimit="10" stroke-dasharray="6" d="&#10;&#9;M236.094,179.799c6.666,3.333,16,6.667,20.666,13.333c4,5.334,0,10.667-4.666,14c-6.668,4.667-14.668,8-22.668,8&#10;&#9;c-8,0.667-15.332-3.333-22-7.333c-8-5.333-16-11.333-25.332-14c-6.668-1.333-14.668-0.667-18.667,6&#10;&#9;c-2.667,4.667-1.333,10.667,4.667,13.333c2.666,1.334,6,1.334,8.666,0.667c2-0.667,6-1.333,6-4c0.666-3.333-5.334-5.333-7.334-6&#10;&#9;c-6.666-2.667-14-3.333-20.667-4c-12-0.667-23.333,1.333-34,6.667" transform="matrix(-0.9795554280281068, 0.20119829475879672, 0.20119829475879672, 0.9795554280281068, 794.7711023167653, -4.040311624948629)"/><g transform="matrix(1, 0, 0, 1, 301.0197290257495, 179.22778529887938)">
	<path fill="#FFFFFF" stroke="#1D1D1B" stroke-width="2" stroke-miterlimit="10" d="M308.654,22.655&#10;&#9;&#9;c-0.051-0.003-0.1-0.003-0.152-0.006c-0.205-0.638-0.463-1.249-0.762-1.837c0.059-0.062,0.119-0.13,0.178-0.197&#10;&#9;&#9;c1.127-1.273,1.055-3.213-0.15-4.417l-1.018-1.021c-1.186-1.184-3.07-1.259-4.361-0.194c-0.1,0.079-0.195,0.159-0.293,0.239&#10;&#9;&#9;c-0.557-0.273-1.131-0.52-1.732-0.712c0-0.06-0.002-0.12-0.004-0.183c-0.074-1.723-1.51-3.069-3.234-3.069h-1.262&#10;&#9;&#9;c-1.707,0-3.137,1.331-3.234,3.032c-0.006,0.081-0.008,0.16-0.012,0.241c-0.621,0.202-1.221,0.455-1.797,0.748&#10;&#9;&#9;c-0.062-0.056-0.125-0.109-0.184-0.166c-1.279-1.134-3.225-1.063-4.432,0.142l-0.949,0.947c-1.199,1.204-1.277,3.139-0.15,4.418&#10;&#9;&#9;c0.061,0.065,0.119,0.134,0.182,0.203c-0.297,0.584-0.555,1.191-0.756,1.825c-0.055,0.003-0.104,0.003-0.154,0.006&#10;&#9;&#9;c-1.732,0.082-3.104,1.501-3.104,3.234v1.225c0,1.724,1.35,3.157,3.068,3.233c0.064,0,0.125,0.007,0.189,0.009&#10;&#9;&#9;c0.191,0.597,0.436,1.173,0.711,1.729c-0.076,0.096-0.16,0.192-0.236,0.288c-1.066,1.296-0.994,3.18,0.191,4.363l1.002,1.006&#10;&#9;&#9;c1.211,1.209,3.158,1.273,4.436,0.136c0.057-0.054,0.117-0.105,0.178-0.159c0.578,0.293,1.18,0.547,1.805,0.753&#10;&#9;&#9;c0.004,0.08,0.006,0.158,0.012,0.237c0.098,1.702,1.527,3.035,3.234,3.035h1.248c1.738,0,3.16-1.375,3.232-3.111&#10;&#9;&#9;c0.002-0.045,0.002-0.093,0.006-0.138c0.643-0.204,1.256-0.466,1.852-0.767c0.064,0.061,0.129,0.116,0.197,0.178&#10;&#9;&#9;c1.277,1.123,3.213,1.053,4.418-0.15l0.943-0.939c1.209-1.209,1.275-3.157,0.139-4.434c-0.051-0.061-0.109-0.121-0.164-0.181&#10;&#9;&#9;c0.303-0.591,0.562-1.207,0.768-1.846c0.053-0.002,0.105-0.002,0.156-0.009c1.732-0.076,3.102-1.502,3.102-3.233V25.89&#10;&#9;&#9;C311.76,24.156,310.391,22.737,308.654,22.655z M296.518,31.264c-2.631,0-4.762-2.129-4.762-4.761c0-2.631,2.131-4.763,4.762-4.763&#10;&#9;&#9;c2.629,0,4.76,2.132,4.76,4.763C301.277,29.135,299.146,31.264,296.518,31.264z"/>
</g><g transform="matrix(1, 0, 0, 1, 301.0197290257495, 179.22778529887938)">
	<path fill="#4F97CD" stroke="#1D1D1B" stroke-width="2" stroke-miterlimit="10" d="M318.312,38.707&#10;&#9;&#9;c-0.035-0.003-0.07-0.003-0.107-0.004c-0.143-0.448-0.326-0.879-0.537-1.293c0.043-0.043,0.086-0.09,0.125-0.139&#10;&#9;&#9;c0.795-0.895,0.744-2.26-0.104-3.106l-0.715-0.716c-0.836-0.834-2.16-0.887-3.07-0.137c-0.068,0.053-0.135,0.111-0.203,0.167&#10;&#9;&#9;c-0.393-0.191-0.797-0.365-1.219-0.5c0-0.043-0.002-0.085-0.002-0.129c-0.055-1.212-1.064-2.159-2.275-2.159h-0.889&#10;&#9;&#9;c-1.201,0-2.207,0.936-2.273,2.134c-0.006,0.056-0.008,0.111-0.01,0.168c-0.436,0.143-0.859,0.321-1.264,0.526&#10;&#9;&#9;c-0.043-0.039-0.088-0.076-0.131-0.115c-0.898-0.799-2.266-0.748-3.117,0.099l-0.664,0.665c-0.846,0.848-0.898,2.209-0.107,3.108&#10;&#9;&#9;c0.043,0.046,0.084,0.094,0.127,0.143c-0.209,0.41-0.389,0.838-0.531,1.284c-0.037,0.001-0.072,0.001-0.107,0.004&#10;&#9;&#9;c-1.219,0.057-2.184,1.055-2.184,2.275v0.861c0,1.21,0.949,2.22,2.158,2.273c0.045,0,0.088,0.004,0.133,0.005&#10;&#9;&#9;c0.135,0.419,0.307,0.825,0.502,1.217c-0.055,0.067-0.113,0.136-0.168,0.201c-0.75,0.912-0.699,2.237,0.135,3.071l0.705,0.705&#10;&#9;&#9;c0.852,0.852,2.221,0.896,3.119,0.096c0.041-0.037,0.082-0.074,0.127-0.111c0.406,0.205,0.828,0.385,1.268,0.53&#10;&#9;&#9;c0.002,0.056,0.004,0.111,0.01,0.167c0.066,1.196,1.072,2.135,2.273,2.135h0.877c1.223,0,2.223-0.968,2.275-2.189&#10;&#9;&#9;c0-0.03,0-0.064,0.002-0.097c0.453-0.144,0.885-0.327,1.303-0.538c0.045,0.041,0.092,0.082,0.139,0.124&#10;&#9;&#9;c0.898,0.791,2.262,0.741,3.107-0.105l0.664-0.659c0.852-0.852,0.896-2.221,0.098-3.119c-0.037-0.043-0.078-0.086-0.117-0.127&#10;&#9;&#9;c0.215-0.416,0.398-0.851,0.541-1.3c0.037-0.001,0.074-0.001,0.109-0.005c1.219-0.054,2.184-1.058,2.184-2.273v-0.861&#10;&#9;&#9;C320.498,39.762,319.533,38.764,318.312,38.707z M309.775,44.761c-1.85,0-3.348-1.497-3.348-3.349c0-1.85,1.498-3.349,3.348-3.349&#10;&#9;&#9;s3.348,1.499,3.348,3.349C313.123,43.264,311.625,44.761,309.775,44.761z"/>
</g>

<path fill-rule="evenodd" clip-rule="evenodd" fill="#0E3C54" d="M154.205,65.562c29.184-7.82,59.204,9.506,67.034,38.699&#10;&#9;c7.811,29.192-9.514,59.203-38.699,67.023c-29.201,7.82-59.204-9.505-67.033-38.697C107.678,103.402,125.003,73.383,154.205,65.562z&#10;&#9;" transform="matrix(0.6531821489334106, 0, 0, 0.6531821489334106, 416.3665613011401, 88.31195277934813)"/>
<path fill="#83CCCD" stroke="#1D1D1B" stroke-width="2" stroke-miterlimit="10" d="M216.686,142.652&#10;&#9;c0.314-0.339,0.693-0.583,1.104-0.733c5.4-11.339,6.945-24.577,3.449-37.657c-4.41-16.412-15.83-29.083-30.178-35.635l-0.141-0.064&#10;&#9;c1.322,3.261,2.109,6.561,1.496,10.355v0.072c-0.096,0.63-0.111,1.236-0.064,1.764h-0.016c0.252,2.591,2.867,3.143,4.883,3.568&#10;&#9;c3.197,0.685,5.779,1.235,5.811,4.914c0.033,3.559-3.039,5.525-6.551,7.771c-4.205,2.693-6.961,3.779-5.371,9.166&#10;&#9;c0.725,2.434,2.301,5.049,4.646,7.236c0.865,0.812,1.857,1.576,2.93,2.254c13.719,8.537,7.465,18.058,1.449,27.247&#10;&#9;c-0.805,1.212-9.057,13.16-3.387,12.284c1.701-0.29,3.891-1.062,6.379-2.329C207.125,150.818,212.291,147.25,216.686,142.652&#10;&#9;L216.686,142.652z M187.297,169.774c-1.561,0.574-3.15,1.079-4.758,1.511c-12.758,3.418-25.657,2.031-36.792-3.031&#10;&#9;c6.285-0.701,13.026-1.316,18.271-0.844C173.295,168.23,173.828,169.246,187.297,169.774L187.297,169.774z M154.205,65.562&#10;&#9;c3.986-1.072,8.001-1.67,11.954-1.826c-2.346,5-5.117,10.74-7.811,12.261c-4.536,2.567-13.529,4.599-14.837,10.136&#10;&#9;c-1.433,6.111,1.575,6.921,12.916,9.961l0.062,0.023c2.678,0.717,5.828,2.575,8.348,5.018c1.781,1.732,3.229,3.725,3.922,5.749&#10;&#9;c0.598,1.724,0.615,3.536-0.299,5.204l0,0c-0.662,1.236-1.842,2.48-3.623,3.654c-11.307,7.505-11.498,8.789-12.412,15.059&#10;&#9;c-0.235,1.652-0.534,3.716-1.195,6.346c-0.458,1.805-0.836,3.441-1.198,4.946c-0.676,2.812-1.291,5.694-2.329,8.396&#10;&#9;c-2.111,5.203-6.442-4.482-7.231-6.049c-2.977-5.874-5.369-12.979-5.796-16.072c-0.455-3.34-2.819-5.428-5.369-7.688&#10;&#9;c-2.727-2.385-5.798-5.111-4.726-9.749c1.024-4.371,2.85-7.513,4.143-9.772c2.535-4.363,3.937-6.812-0.301-9.616&#10;&#9;c-1.999-1.323-4.331-1.583-6.692-1.731C128.784,78.289,140.108,69.343,154.205,65.562z" transform="matrix(0.6531821489334106, 0, 0, 0.6531821489334106, 416.3665613011401, 88.31195277934813)"/>
<path d="M 254.492004 155.686996 A 32.164001 32.164001 0 0 1 222.328003 187.850998 A 32.164001 32.164001 0 0 1 190.164001 155.686996 A 32.164001 32.164001 0 0 1 222.328003 123.522995 A 32.164001 32.164001 0 0 1 254.492004 155.686996 Z" fill="#FFFFFF" transform="matrix(0.5432887673377991, 0, 0, 0.5432887673377991, 446.5779870823901, 59.520929524953544)"/>
<g transform="matrix(0.5432887673377991, 0, 0, 0.5432887673377991, 445.6478113011401, 60.01206416850829)">
	<path fill="#2D3E50" d="M212.1,118.089c7.729-2.122,16.195-1.798,24.24,1.479c19.717,8.025,29.461,30.721,21.764,50.694&#10;&#9;&#9;c-4.557,11.813-14.193,20.025-25.395,23.099l-1.922-7.018c9.111-2.503,16.957-9.185,20.664-18.797l0,0&#10;&#9;&#9;c6.26-16.239-1.67-34.705-17.715-41.236c-6.543-2.665-13.43-2.926-19.715-1.204L212.1,118.089z M186.711,141.187&#10;&#9;&#9;c4.551-11.815,14.193-20.024,25.389-23.098l1.922,7.018c-9.109,2.5-16.955,9.181-20.658,18.792&#10;&#9;&#9;c-6.26,16.24,1.666,34.717,17.703,41.245c6.547,2.665,13.436,2.929,19.721,1.2l1.922,7.018c-7.725,2.124-16.195,1.801-24.246-1.477&#10;&#9;&#9;C188.752,183.859,179.01,161.164,186.711,141.187z"/>
	<path d="M 287.0979919433594 187.718994140625 L 290.8609924316406 177.93899536132812 L 256.12701416015625 163.8000030517578 L 252.35899353027344 173.5760040283203 Z" fill="#013C5C"/>
	<path fill="#013C5C" d="M302.691,197.456c4.264,1.74,9.074-0.358,10.734-4.676c1.666-4.313-0.441-9.222-4.709-10.956&#10;&#9;&#9;l-32.805-13.357c-4.262-1.733-9.066,0.355-10.732,4.67c-1.662,4.318,0.443,9.23,4.707,10.964L302.691,197.456z"/>
</g><g transform="matrix(0.5432887673377991, 0, 0, 0.5432887673377991, 543.8248742894214, 81.57032985454339)">
	<path fill-rule="evenodd" clip-rule="evenodd" fill="#83CCCD" stroke="#1D1D1B" stroke-width="2" stroke-miterlimit="10" d="&#10;&#9;&#9;M35.07,94.314h14.938c7.811,0,14.206,6.39,14.206,14.204v14.944c0,7.812-6.396,14.204-14.206,14.204H35.07&#10;&#9;&#9;c-7.817,0-14.208-6.392-14.208-14.204v-14.944C20.862,100.704,27.252,94.314,35.07,94.314z"/>
	<path fill-rule="evenodd" clip-rule="evenodd" fill="#FFFFFF" stroke="#1D1D1B" stroke-width="2" stroke-miterlimit="10" d="&#10;&#9;&#9;M31.196,104.026h22.688c0.406,0,0.736,0.331,0.736,0.737v5.17c0,0.406-0.33,0.737-0.736,0.737H31.196&#10;&#9;&#9;c-0.406,0-0.737-0.331-0.737-0.737v-5.17C30.458,104.357,30.79,104.026,31.196,104.026z"/>
	<path fill-rule="evenodd" clip-rule="evenodd" fill="#FFC05A" stroke="#1D1D1B" stroke-width="2" stroke-miterlimit="10" d="&#10;&#9;&#9;M31.196,121.311h5.775c0.405,0,0.736,0.333,0.736,0.739v5.168c0,0.406-0.331,0.737-0.736,0.737h-5.775&#10;&#9;&#9;c-0.406,0-0.737-0.331-0.737-0.737v-5.171C30.458,121.641,30.79,121.311,31.196,121.311L31.196,121.311z M31.196,112.67&#10;&#9;&#9;c4.629,0,10.34,0,14.965,0c0.406,0,0.736,0.331,0.736,0.736c0,1.726,0,3.447,0,5.171c0,0.406-0.33,0.734-0.736,0.734&#10;&#9;&#9;c-4.625,0-10.336,0-14.965,0c-0.406,0-0.737-0.328-0.737-0.734c0-1.724,0-3.445,0-5.171C30.458,113.001,30.79,112.67,31.196,112.67&#10;&#9;&#9;z"/>
</g>
<g transform="matrix(0.5432887673377991, 0, 0, 0.5432887673377991, 447.06913698473386, 60.55536098247313)">
	<path d="M 286.9530029296875 188.0260009765625 L 290.96099853515625 177.61300659179688 L 267.4339904785156 168.03599548339844 L 263.4179992675781 178.4429931640625 Z" fill="#FFC05A" stroke="#1D1D1B" stroke-width="2" stroke-miterlimit="10"/>
	<path fill="#FFC05A" stroke="#1D1D1B" stroke-width="2" stroke-miterlimit="10" d="M303.557,198.393&#10;&#9;&#9;c4.539,1.853,9.66-0.382,11.43-4.979c1.773-4.592-0.471-9.816-5.016-11.666l-34.926-14.22c-2.59-1.054-5.371-0.778-7.613,0.509&#10;&#9;&#9;l-4.012,10.403c0.775,2.52,2.619,4.677,5.211,5.733L303.557,198.393z"/>
</g>


<g transform="matrix(1, 0, 0, 1, -8.15620481214114, 78.88124294048089)">
	<path fill-rule="evenodd" clip-rule="evenodd" fill="#FFFFFF" stroke="#1D1D1B" stroke-width="2" stroke-miterlimit="10" d="&#10;&#9;&#9;M240.279,103.483V60.854c0-1.791,1.484-3.255,3.256-3.255h44.76c1.773,0,3.254,1.485,3.254,3.255v42.629&#10;&#9;&#9;c0,1.771-1.467,3.255-3.254,3.255h-44.76C241.742,106.738,240.279,105.274,240.279,103.483z"/>
	
		<path d="M 244.166 61.487 H 287.666 V 98.194 H 244.166 V 61.487 Z" fill-rule="evenodd" clip-rule="evenodd" fill="#FFC05A" stroke="#1D1D1B" stroke-width="2" stroke-miterlimit="10"/>
	<path fill-rule="evenodd" clip-rule="evenodd" fill="#2D3E50" d="M256.574,82.187c0.35,0.104,0.6,0.368,0.672,0.722&#10;&#9;&#9;c0.414,1.907,1.449,3.587,2.879,4.821c0.439,0.38,0.666,0.883,0.666,1.467v2.062c0,0.622-0.264,1.159-0.756,1.538&#10;&#9;&#9;c-2.586,1.982-5.6,3.621-8.426,5.335h28.613c-2.826-1.714-5.836-3.353-8.428-5.335c-0.49-0.384-0.76-0.916-0.76-1.538v-2.062&#10;&#9;&#9;c0-0.58,0.232-1.087,0.67-1.467c1.43-1.234,2.463-2.914,2.883-4.821c0.074-0.354,0.32-0.617,0.672-0.722&#10;&#9;&#9;c1.746-0.519,1.809-4.352,0.148-4.992c-0.377-0.15-0.619-0.493-0.619-0.904v-2.32c0-11.713-17.744-11.713-17.744,0v2.32&#10;&#9;&#9;c0,0.411-0.244,0.754-0.621,0.904C254.764,77.835,254.824,81.671,256.574,82.187z"/>
</g>
</svg>