<svg height="480pt" viewBox="0 0 480 480" width="480pt" xmlns="http://www.w3.org/2000/svg"><path d="m464 71.996094c0 35.347656-28.652344 64-64 64s-64-28.652344-64-64c0-35.34375 28.652344-64 64-64s64 28.65625 64 64zm0 0" fill="#ffd782"/><path d="m424 295.996094v32c0 8.835937-7.164062 16-16 16s-16-7.164063-16-16v-104c0-13.253906-10.746094-24-24-24s-24 10.746094-24 24v56c0 8.835937-7.164062 16-16 16s-16-7.164063-16-16v-32c0-8.835938-7.164062-16-16-16s-16 7.164062-16 16v48c0 17.675781 14.328125 32 32 32h24c4.417969 0 8 3.582031 8 8v136h48v-88c0-4.417969 3.582031-8 8-8h24c17.671875 0 32-14.324219 32-32v-48c0-8.835938-7.164062-16-16-16s-16 7.164062-16 16zm0 0" fill="#55b56a"/><path d="m200 151.996094v64c0 8.835937-7.164062 16-16 16s-16-7.164063-16-16v-80c0-17.671875-14.328125-32-32-32s-32 14.328125-32 32v136c0 8.835937-7.164062 16-16 16s-16-7.164063-16-16v-72c0-13.253906-10.746094-24-24-24s-24 10.746094-24 24v88c0 26.511718 21.492188 48 48 48h32v136h64v-192h32c26.507812 0 48-21.488282 48-48v-80c0-13.253906-10.746094-24-24-24s-24 10.746094-24 24zm0 0" fill="#55b56a"/><path d="m136 479.996094c-4.417969 0-8-3.582032-8-8v-96c0-4.417969 3.582031-8 8-8s8 3.582031 8 8v96c0 4.417968-3.582031 8-8 8zm0 0" fill="#2d6838"/><path d="m136 351.996094c-4.417969 0-8-3.582032-8-8v-16c0-4.417969 3.582031-8 8-8s8 3.582031 8 8v16c0 4.417968-3.582031 8-8 8zm0 0" fill="#2d6838"/><path d="m136 247.996094c-4.417969 0-8-3.582032-8-8v-16c0-4.417969 3.582031-8 8-8s8 3.582031 8 8v16c0 4.417968-3.582031 8-8 8zm0 0" fill="#2d6838"/><path d="m136 199.996094c-4.417969 0-8-3.582032-8-8v-16c0-4.417969 3.582031-8 8-8s8 3.582031 8 8v16c0 4.417968-3.582031 8-8 8zm0 0" fill="#2d6838"/><path d="m24 479.996094h-16c-4.417969 0-8-3.582032-8-8 0-4.417969 3.582031-8 8-8h16c4.417969 0 8 3.582031 8 8 0 4.417968-3.582031 8-8 8zm0 0" fill="#d3843d"/><path d="m208 479.996094h-152c-4.417969 0-8-3.582032-8-8 0-4.417969 3.582031-8 8-8h152c4.417969 0 8 3.582031 8 8 0 4.417968-3.582031 8-8 8zm0 0" fill="#d3843d"/><path d="m256 479.996094h-16c-4.417969 0-8-3.582032-8-8 0-4.417969 3.582031-8 8-8h16c4.417969 0 8 3.582031 8 8 0 4.417968-3.582031 8-8 8zm0 0" fill="#d3843d"/><path d="m424 479.996094h-136c-4.417969 0-8-3.582032-8-8 0-4.417969 3.582031-8 8-8h136c4.417969 0 8 3.582031 8 8 0 4.417968-3.582031 8-8 8zm0 0" fill="#d3843d"/><path d="m472 479.996094h-16c-4.417969 0-8-3.582032-8-8 0-4.417969 3.582031-8 8-8h16c4.417969 0 8 3.582031 8 8 0 4.417968-3.582031 8-8 8zm0 0" fill="#d3843d"/><g fill="#2d6838"><path d="m344 415.996094h-16c-4.417969 0-8-3.582032-8-8 0-4.417969 3.582031-8 8-8h16c4.417969 0 8 3.582031 8 8 0 4.417968-3.582031 8-8 8zm0 0"/><path d="m344 367.996094h-16c-4.417969 0-8-3.582032-8-8 0-4.417969 3.582031-8 8-8h16c4.417969 0 8 3.582031 8 8 0 4.417968-3.582031 8-8 8zm0 0"/><path d="m280 287.996094h-16c-4.417969 0-8-3.582032-8-8 0-4.417969 3.582031-8 8-8h16c4.417969 0 8 3.582031 8 8 0 4.417968-3.582031 8-8 8zm0 0"/><path d="m408 239.996094h-16c-4.417969 0-8-3.582032-8-8 0-4.417969 3.582031-8 8-8h16c4.417969 0 8 3.582031 8 8 0 4.417968-3.582031 8-8 8zm0 0"/><path d="m408 447.996094h-16c-4.417969 0-8-3.582032-8-8 0-4.417969 3.582031-8 8-8h16c4.417969 0 8 3.582031 8 8 0 4.417968-3.582031 8-8 8zm0 0"/><path d="m472 327.996094h-16c-4.417969 0-8-3.582032-8-8 0-4.417969 3.582031-8 8-8h16c4.417969 0 8 3.582031 8 8 0 4.417968-3.582031 8-8 8zm0 0"/><path d="m263.199219 183.996094h-13.039063c-4.417968 0-8-3.582032-8-8 0-4.417969 3.582032-8 8-8h13.039063c4.417969 0 8 3.582031 8 8 0 4.417968-3.582031 8-8 8zm0 0"/><path d="m184 327.996094h-16c-4.417969 0-8-3.582032-8-8 0-4.417969 3.582031-8 8-8h16c4.417969 0 8 3.582031 8 8 0 4.417968-3.582031 8-8 8zm0 0"/><path d="m184 391.996094h-16c-4.417969 0-8-3.582032-8-8 0-4.417969 3.582031-8 8-8h16c4.417969 0 8 3.582031 8 8 0 4.417968-3.582031 8-8 8zm0 0"/><path d="m104 431.996094h-16c-4.417969 0-8-3.582032-8-8 0-4.417969 3.582031-8 8-8h16c4.417969 0 8 3.582031 8 8 0 4.417968-3.582031 8-8 8zm0 0"/><path d="m104 151.996094h-16c-4.417969 0-8-3.582032-8-8 0-4.417969 3.582031-8 8-8h16c4.417969 0 8 3.582031 8 8 0 4.417968-3.582031 8-8 8zm0 0"/><path d="m24 223.996094h-16c-4.417969 0-8-3.582032-8-8 0-4.417969 3.582031-8 8-8h16c4.417969 0 8 3.582031 8 8 0 4.417968-3.582031 8-8 8zm0 0"/><path d="m24 287.996094h-16c-4.417969 0-8-3.582032-8-8 0-4.417969 3.582031-8 8-8h16c4.417969 0 8 3.582031 8 8 0 4.417968-3.582031 8-8 8zm0 0"/><path d="m104 375.996094h-16c-4.417969 0-8-3.582032-8-8 0-4.417969 3.582031-8 8-8h16c4.417969 0 8 3.582031 8 8 0 4.417968-3.582031 8-8 8zm0 0"/></g><path d="m398.816406 95.996094c.75-2.601563 1.144532-5.292969 1.183594-8-.394531-18.054688-15.339844-32.375-33.390625-32-3.597656.039062-7.167969.648437-10.578125 1.800781-7.367188-20.859375-27.417969-34.527344-49.527344-33.765625-22.109375.765625-41.167968 15.785156-47.078125 37.101562-5.417969-3.359374-11.664062-5.136718-18.035156-5.136718-18.050781-.375-32.996094 13.945312-33.390625 32 .039062 2.707031.433594 5.398437 1.183594 8zm0 0" fill="#87cee9"/><path d="m136 351.996094c4.417969 0 8-3.582032 8-8v-16c0-4.417969-3.582031-8-8-8s-8 3.582031-8 8v16c0 4.417968 3.582031 8 8 8zm0 0"/><path d="m136 247.996094c4.417969 0 8-3.582032 8-8v-16c0-4.417969-3.582031-8-8-8s-8 3.582031-8 8v16c0 4.417968 3.582031 8 8 8zm0 0"/><path d="m136 199.996094c4.417969 0 8-3.582032 8-8v-16c0-4.417969-3.582031-8-8-8s-8 3.582031-8 8v16c0 4.417968 3.582031 8 8 8zm0 0"/><path d="m8 479.996094h16c4.417969 0 8-3.582032 8-8 0-4.417969-3.582031-8-8-8h-16c-4.417969 0-8 3.582031-8 8 0 4.417968 3.582031 8 8 8zm0 0"/><path d="m232 471.996094c0 4.417968 3.582031 8 8 8h16c4.417969 0 8-3.582032 8-8 0-4.417969-3.582031-8-8-8h-16c-4.417969 0-8 3.582031-8 8zm0 0"/><path d="m472 463.996094h-16c-4.417969 0-8 3.582031-8 8 0 4.417968 3.582031 8 8 8h16c4.417969 0 8-3.582032 8-8 0-4.417969-3.582031-8-8-8zm0 0"/><path d="m472 311.996094h-8v-16c0-13.253906-10.746094-24-24-24s-24 10.746094-24 24v32c0 4.417968-3.582031 8-8 8s-8-3.582032-8-8v-88h8c4.417969 0 8-3.582032 8-8 0-4.417969-3.582031-8-8-8h-8c0-17.671875-14.328125-32-32-32s-32 14.328125-32 32v56c0 4.417968-3.582031 8-8 8s-8-3.582032-8-8v-32c0-13.253906-10.746094-24-24-24s-24 10.746094-24 24v24h-8c-4.417969 0-8 3.582031-8 8 0 4.417968 3.582031 8 8 8h8v8c.027344 22.082031 17.917969 39.972656 40 40h24v16h-8c-4.417969 0-8 3.582031-8 8 0 4.417968 3.582031 8 8 8h8v32h-8c-4.417969 0-8 3.582031-8 8 0 4.417968 3.582031 8 8 8h8v48h-48c-4.417969 0-8 3.582031-8 8 0 4.417968 3.582031 8 8 8h136c4.417969 0 8-3.582032 8-8 0-4.417969-3.582031-8-8-8h-24v-16h8c4.417969 0 8-3.582032 8-8 0-4.417969-3.582031-8-8-8h-8v-48h24c22.082031-.027344 39.972656-17.917969 40-40v-16h8c4.417969 0 8-3.582032 8-8 0-4.417969-3.582031-8-8-8zm-24 32c0 13.253906-10.746094 24-24 24h-24c-8.835938 0-16 7.164062-16 16v80h-32v-128c0-8.835938-7.164062-16-16-16h-24c-13.253906 0-24-10.746094-24-24v-48c0-4.417969 3.582031-8 8-8s8 3.582031 8 8v32c0 13.253906 10.746094 24 24 24s24-10.746094 24-24v-56c0-8.835938 7.164062-16 16-16s16 7.164062 16 16v104c0 13.253906 10.746094 24 24 24s24-10.746094 24-24v-32c0-4.417969 3.582031-8 8-8s8 3.582031 8 8zm0 0"/><path d="m8 271.996094c-4.417969 0-8 3.582031-8 8 0 4.417968 3.582031 8 8 8h8c.035156 30.914062 25.085938 55.964844 56 56h24v16h-8c-4.417969 0-8 3.582031-8 8 0 4.417968 3.582031 8 8 8h8v40h-8c-4.417969 0-8 3.582031-8 8 0 4.417968 3.582031 8 8 8h8v32h-40c-4.417969 0-8 3.582031-8 8 0 4.417968 3.582031 8 8 8h152c4.417969 0 8-3.582032 8-8 0-4.417969-3.582031-8-8-8h-32v-72h8c4.417969 0 8-3.582032 8-8 0-4.417969-3.582031-8-8-8h-8v-48h8c4.417969 0 8-3.582032 8-8 0-4.417969-3.582031-8-8-8h-8v-24h24c30.914062-.035156 55.964844-25.085938 56-56v-48h7.199219c4.417969 0 8-3.582032 8-8 0-4.417969-3.582031-8-8-8h-7.199219v-16c0-17.671875-14.328125-32-32-32s-32 14.328125-32 32v64c0 4.417968-3.582031 8-8 8s-8-3.582032-8-8v-80c0-22.089844-17.910156-40-40-40s-40 17.910156-40 40h-8c-4.417969 0-8 3.582031-8 8 0 4.417968 3.582031 8 8 8h8v120c0 4.417968-3.582031 8-8 8s-8-3.582032-8-8v-72c0-17.671875-14.328125-32-32-32s-32 14.328125-32 32v8h-8c-4.417969 0-8 3.582031-8 8 0 4.417968 3.582031 8 8 8h8v48zm24-72c0-8.835938 7.164062-16 16-16s16 7.164062 16 16v72c0 13.253906 10.746094 24 24 24s24-10.746094 24-24v-136c0-13.253906 10.746094-24 24-24s24 10.746094 24 24v80c0 13.253906 10.746094 24 24 24s24-10.746094 24-24v-64c0-8.835938 7.164062-16 16-16s16 7.164062 16 16v80c-.027344 22.082031-17.917969 39.972656-40 40h-32c-4.417969 0-8 3.582031-8 8v184h-16v-88c0-4.417969-3.582031-8-8-8s-8 3.582031-8 8v88h-16v-128c0-4.417969-3.582031-8-8-8h-32c-22.082031-.027344-39.972656-17.917969-40-40zm0 0"/><path d="m209.175781 103.996094h126.527344c14.308594 28.597656 45.796875 44.296875 77.25 38.515625 31.449219-5.785157 55.292969-31.65625 58.492187-63.472657 3.199219-31.820312-15.015624-61.921874-44.683593-73.851562s-63.652344-2.816406-83.371094 22.363281c-10.199219-7.523437-22.546875-11.574219-35.222656-11.554687-23.035157-.277344-44.035157 13.140625-53.464844 34.160156-4.292969-1.429688-8.785156-2.160156-13.3125-2.160156-22.453125-.328125-40.953125 17.546875-41.390625 40 .035156 3.414062.527344 6.804687 1.457031 10.089844.941407 3.488281 4.105469 5.910156 7.71875 5.910156zm190.824219-88c26.601562-.074219 49.582031 18.574218 54.988281 44.621094 5.40625 26.046874-8.257812 52.300781-32.691406 62.816406-24.4375 10.515625-52.894531 2.394531-68.097656-19.4375h44.625c3.613281 0 6.777343-2.421875 7.71875-5.910156.929687-3.285157 1.421875-6.675782 1.457031-10.089844-.191406-11.800782-5.492188-22.9375-14.53125-30.527344s-20.925781-10.890625-32.582031-9.039062c-1.65625-3.371094-3.652344-6.558594-5.957031-9.519532 10.464843-14.4375 27.238281-22.964844 45.070312-22.914062zm-158.609375 48c4.890625.003906 9.679687 1.367187 13.832031 3.945312 2.183594 1.355469 4.886719 1.578125 7.261719.605469 2.375-.976563 4.140625-3.035156 4.738281-5.535156 5.0625-17.839844 21.070313-30.367188 39.601563-30.996094 18.535156-.628906 35.351562 10.78125 41.617187 28.238281 1.359375 4.199219 5.859375 6.503906 10.0625 5.152344 2.613282-.890625 5.347656-1.363281 8.105469-1.410156 13.628906-.359375 24.980469 10.371094 25.390625 24h-176c.410156-13.628906 11.761719-24.359375 25.390625-24zm0 0"/></svg>