<?xml version="1.0"?>
<svg xmlns="http://www.w3.org/2000/svg" height="512px" viewBox="0 0 480 480" width="512px" class=""><g><path d="m8 8h464v464h-464zm0 0" fill="#80caca" data-original="#80CACA" class="" style="fill:#FFFFFF" data-old_color="#EDEDED"/><path d="m8 8h128v64h-128zm0 0" fill="#d1f4ce" data-original="#D1F4CE" class="" style="fill:#78D2FA" data-old_color="#D1F4CE"/><path d="m88 376h304v64h-304zm0 0" fill="#d1f4ce" data-original="#D1F4CE" class="" style="fill:#78D2FA" data-old_color="#D1F4CE"/><path d="m360 224c0 66.273438-53.726562 120-120 120s-120-53.726562-120-120 53.726562-120 120-120 120 53.726562 120 120zm0 0" fill="#3c72a6" data-original="#3C72A6" class="" style="fill:#FF5A5A" data-old_color="#78D2FA"/><path d="m120 224c-.007812 33.441406 13.996094 65.359375 38.609375 88h113.390625v-176h-113.390625c-24.613281 22.640625-38.617187 54.558594-38.609375 88zm0 0" fill="#de7f4a" data-original="#DE7F4A" class="active-path" style="fill:#F0F0FA" data-old_color="#DE7F4A"/><path d="m32 32h16v16h-16zm0 0" fill="#f9bb4b" data-original="#F9BB4B" class="" style="fill:#F0F0FA" data-old_color="#F9BB4B"/><path d="m64 32h16v16h-16zm0 0" fill="#f9bb4b" data-original="#F9BB4B" class="" style="fill:#F0F0FA" data-old_color="#F9BB4B"/><path d="m96 32h16v16h-16zm0 0" fill="#f9bb4b" data-original="#F9BB4B" class="" style="fill:#F0F0FA" data-old_color="#F9BB4B"/><path d="m136 8h336v64h-336zm0 0" fill="#3c72a6" data-original="#3C72A6" class="" style="fill:#FF5A5A" data-old_color="#78D2FA"/><g fill="#f9bb4b"><path d="m232 400h16v16h-16zm0 0" data-original="#000000" class=""/><path d="m264 400h16v16h-16zm0 0" data-original="#000000" class=""/><path d="m200 400h16v16h-16zm0 0" data-original="#000000" class=""/><path d="m168 400h16v16h-16zm0 0" data-original="#000000" class=""/><path d="m296 400h16v16h-16zm0 0" data-original="#000000" class=""/></g><path d="m152 248 120-112h-113.390625c-23.128906 21.347656-36.902344 50.957031-38.328125 82.398438zm0 0" fill="#ffc98d" data-original="#FFC98D" class="" style="fill:#F0F0FA" data-old_color="#FFC98D"/><path d="m122.167969 333.480469c-27.503907-29.78125-42.589844-68.945313-42.167969-109.480469h16c-.414062 36.460938 13.121094 71.707031 37.832031 98.519531zm0 0" fill="#d1f4ce" data-original="#D1F4CE" class="" style="fill:#78D2FA" data-old_color="#D1F4CE"/><path d="m400 224h-16c0-36.417969-13.5-71.542969-37.886719-98.59375l11.773438-10.8125c27.097656 30 42.101562 68.980469 42.113281 109.40625zm0 0" fill="#d1f4ce" data-original="#D1F4CE" class="" style="fill:#78D2FA" data-old_color="#D1F4CE"/><path d="m272 136v176l-95.136719-87.207031zm0 0" fill="#f9bb4b" data-original="#F9BB4B" class="" style="fill:#F0F0FA" data-old_color="#F9BB4B"/><path d="m384 240h16v16h-16zm0 0" fill="#d1f4ce" data-original="#D1F4CE" class="" style="fill:#78D2FA" data-old_color="#D1F4CE"/><path d="m80 192h16v16h-16zm0 0" fill="#d1f4ce" data-original="#D1F4CE" class="" style="fill:#78D2FA" data-old_color="#D1F4CE"/><path d="m32 32h16v16h-16zm0 0" data-original="#000000" class=""/><path d="m64 32h16v16h-16zm0 0" data-original="#000000" class=""/><path d="m96 32h16v16h-16zm0 0" data-original="#000000" class=""/><path d="m472 0h-464c-4.417969 0-8 3.582031-8 8v464c0 4.417969 3.582031 8 8 8h464c4.417969 0 8-3.582031 8-8v-464c0-4.417969-3.582031-8-8-8zm-456 16h112v48h-112zm448 448h-448v-384h448zm0-400h-320v-48h320zm0 0" data-original="#000000" class=""/><path d="m232 400h16v16h-16zm0 0" data-original="#000000" class=""/><path d="m264 400h16v16h-16zm0 0" data-original="#000000" class=""/><path d="m200 400h16v16h-16zm0 0" data-original="#000000" class=""/><path d="m168 400h16v16h-16zm0 0" data-original="#000000" class=""/><path d="m296 400h16v16h-16zm0 0" data-original="#000000" class=""/><path d="m80 448h320v-80h-320zm16-64h288v48h-288zm0 0" data-original="#000000" class=""/><path d="m133.832031 322.519531c-24.710937-26.8125-38.246093-62.058593-37.832031-98.519531h-16c-.421875 40.535156 14.664062 79.699219 42.167969 109.480469zm0 0" data-original="#000000" class=""/><path d="m400 224c-.011719-40.425781-15.015625-79.40625-42.113281-109.40625l-11.773438 10.8125c24.386719 27.050781 37.886719 62.175781 37.886719 98.59375zm0 0" data-original="#000000" class=""/><path d="m240 352c70.691406 0 128-57.308594 128-128s-57.308594-128-128-128-128 57.308594-128 128c.082031 70.65625 57.34375 127.917969 128 128zm-111.128906-114.640625 17.664062 16.488281c3.074219 2.875 7.855469 2.875 10.929688 0l19.445312-18.160156 74.523438 68.3125h-89.664063c-18.25-17.808594-29.859375-41.324219-32.898437-66.640625zm59.777344-12.625 75.351562-70.335937v139.417968zm51.351562-112.734375c47.359375-.125 89.679688 29.550781 105.695312 74.121094 16.019532 44.570312 2.269532 94.398437-34.335937 124.445312-36.605469 30.050782-88.15625 33.828125-128.75 9.433594h89.390625c4.417969 0 8-3.582031 8-8v-176c0-4.417969-3.582031-8-8-8h-89.390625c17.316406-10.457031 37.160156-15.988281 57.390625-16zm-78.230469 32h89.933594l-99.703125 93.054688-23.550781-21.976563c2.132812-26.945313 13.972656-52.199219 33.320312-71.078125zm0 0" data-original="#000000" class=""/><path d="m384 240h16v16h-16zm0 0" data-original="#000000" class=""/><path d="m80 192h16v16h-16zm0 0" data-original="#000000" class=""/></g> </svg>
