<?xml version="1.0" encoding="iso-8859-1"?>
<!-- Generator: Adobe Illustrator 19.0.0, SVG Export Plug-In . SVG Version: 6.00 Build 0)  -->
<svg version="1.1" id="Capa_1" xmlns="http://www.w3.org/2000/svg" xmlns:xlink="http://www.w3.org/1999/xlink" x="0px" y="0px"
	 viewBox="0 0 512 512" style="enable-background:new 0 0 512 512;" xml:space="preserve">
<circle style="fill:#4CC1EB;" cx="257.4" cy="256.5" r="116.43"/>
<path d="M136.793,218.546c-0.117,0.32-0.217,0.644-0.302,0.974c-3.586,11.702-5.522,24.118-5.522,36.979
	c0,12.921,1.952,25.393,5.571,37.143c0.053,0.195,0.112,0.387,0.177,0.579c12.381,39.526,43.685,70.764,83.252,83.051
	c0.142,0.043,0.282,0.09,0.425,0.127c11.709,3.591,24.133,5.529,37.003,5.529c12.894,0,25.342-1.945,37.07-5.549
	c0.075-0.02,0.147-0.045,0.222-0.066c39.509-12.22,70.795-43.328,83.269-82.725c0.146-0.381,0.264-0.772,0.363-1.169
	c3.574-11.684,5.504-24.08,5.504-36.919c0-12.86-1.936-25.275-5.521-36.976c-0.093-0.367-0.203-0.729-0.336-1.083
	c-12.38-39.133-43.321-70.089-82.444-82.49c-0.408-0.158-0.828-0.285-1.254-0.389c-11.671-3.565-24.051-5.49-36.873-5.49
	c-12.849,0-25.254,1.933-36.946,5.512c-0.383,0.096-0.76,0.21-1.129,0.351C180.14,148.336,149.156,179.346,136.793,218.546z
	 M197.062,226.568c0.579,0.101,1.154,0.149,1.723,0.149c4.772,0,8.996-3.428,9.841-8.291c0.528-3.04,1.141-6.063,1.793-9.077
	c30.903-6.428,62.992-6.377,93.922,0.206c6.577,30.902,6.633,62.961,0.222,93.837c-31.092,6.65-63.36,6.692-94.422,0.19
	c-0.974-4.633-1.808-9.304-2.493-14.011c-0.795-5.466-5.883-9.25-11.335-8.456c-5.466,0.795-9.252,5.871-8.456,11.336
	c0.27,1.852,0.563,3.698,0.873,5.54c-11.683-3.668-23.102-8.302-34.124-13.896c-2.366-8.805-3.636-18.054-3.636-27.596
	c0-9.545,1.271-18.798,3.638-27.607c11.085-5.625,22.571-10.278,34.324-13.955c-0.004,0.022-0.008,0.044-0.012,0.067
	C187.975,220.446,191.62,225.624,197.062,226.568z M360.263,229.174c2.32,8.724,3.563,17.882,3.563,27.326
	c0,9.442-1.242,18.599-3.561,27.322l-10.18,4.618c-7.848,3.56-15.868,6.64-24.012,9.247c1.835-10.889,2.96-21.893,3.306-32.914
	c0.52-16.554-0.677-33.181-3.505-49.53c8.211,2.62,16.295,5.723,24.206,9.312L360.263,229.174z M166.147,311.218
	c8.952,3.545,18.114,6.577,27.423,9.058c2.479,9.32,5.498,18.48,9.06,27.446C187.694,338.721,175.139,326.159,166.147,311.218z
	 M229.775,359.285c-5.608-11.035-10.271-22.455-13.977-34.181c11.023,1.877,22.165,3.023,33.324,3.373
	c2.526,0.079,5.053,0.119,7.581,0.119c14.15,0,28.311-1.26,42.27-3.694c-3.681,11.776-8.342,23.284-13.979,34.391
	c-8.805,2.366-18.055,3.636-27.596,3.636C247.846,362.928,238.588,361.656,229.775,359.285z M312.118,347.75
	c3.591-9.067,6.652-18.349,9.151-27.781c9.422-2.553,18.682-5.681,27.723-9.332C339.968,325.848,327.267,338.631,312.118,347.75z
	 M348.992,202.363c-9.146-3.693-18.52-6.834-28.054-9.405c-2.57-9.533-5.71-18.907-9.403-28.052
	C326.94,174.045,339.852,186.958,348.992,202.363z M284.724,153.634l4.616,10.176c3.589,7.912,6.693,15.999,9.314,24.211
	c-16.353-2.83-32.983-4.028-49.537-3.505c-11.02,0.346-22.022,1.471-32.91,3.306c2.631-8.162,5.701-16.184,9.248-24.005
	l4.619-10.183c8.723-2.319,17.881-3.562,27.324-3.562C266.842,150.072,276,151.315,284.724,153.634z M203.232,164.922
	c-3.659,9.046-6.779,18.301-9.336,27.71c-9.419,2.496-18.688,5.553-27.742,9.139C175.266,186.635,188.037,173.944,203.232,164.922z"
	/>
<path d="M185.93,245.96c-0.46,0.47-0.88,0.98-1.25,1.52c-0.36,0.55-0.66,1.13-0.91,1.73s-0.45,1.23-0.569,1.87
	c-0.131,0.65-0.2,1.3-0.2,1.96c0,0.65,0.069,1.3,0.2,1.95c0.119,0.64,0.319,1.27,0.569,1.87s0.55,1.18,0.91,1.73
	c0.37,0.54,0.79,1.06,1.25,1.52s0.97,0.88,1.521,1.24c0.54,0.36,1.119,0.67,1.729,0.92c0.601,0.25,1.23,0.44,1.87,0.57
	s1.3,0.2,1.95,0.2c0.649,0,1.31-0.07,1.95-0.2s1.27-0.32,1.869-0.57c0.61-0.25,1.19-0.56,1.73-0.92c0.55-0.36,1.06-0.78,1.52-1.24
	c0.461-0.46,0.881-0.98,1.24-1.52c0.37-0.55,0.67-1.13,0.92-1.73s0.45-1.23,0.58-1.87c0.13-0.65,0.19-1.3,0.19-1.95
	c0-0.66-0.061-1.31-0.19-1.96c-0.13-0.64-0.33-1.27-0.58-1.87s-0.55-1.18-0.92-1.73c-0.359-0.54-0.779-1.05-1.24-1.52
	c-0.46-0.46-0.97-0.87-1.52-1.24c-0.54-0.36-1.12-0.67-1.73-0.92c-0.6-0.25-1.229-0.44-1.869-0.57c-1.28-0.26-2.61-0.26-3.9,0
	c-0.64,0.13-1.27,0.32-1.87,0.57c-0.61,0.25-1.189,0.56-1.729,0.92C186.899,245.09,186.39,245.5,185.93,245.96z"/>
<path style="fill:#EB5664;" d="M365.651,446.245L353.539,377.1c-2.166-12.366,8.6-23.133,20.966-20.966l69.144,12.112
	c32.238,5.647,55.755,33.643,55.755,66.371l0,0c0,37.214-30.168,67.382-67.382,67.382l0,0
	C399.294,502,371.299,478.482,365.651,446.245z"/>
<path d="M445.375,358.396l-69.145-12.113c-9.017-1.579-18.258,1.342-24.729,7.813s-9.392,15.715-7.813,24.73l12.112,69.144
	c6.499,37.102,38.555,64.03,76.221,64.03c42.669,0,77.383-34.713,77.383-77.382C509.405,396.951,482.477,364.896,445.375,358.396z
	 M432.022,492c-27.931,0-51.701-19.969-56.521-47.481l-12.112-69.144c-0.462-2.641,0.359-5.242,2.255-7.137
	c1.896-1.896,4.494-2.717,7.136-2.254l69.145,12.113c27.513,4.819,47.481,28.59,47.481,56.521
	C489.405,466.258,463.663,492,432.022,492z"/>
<circle style="fill:#E5EAED;" cx="431.99" cy="434.58" r="30.362"/>
<path d="M431.99,474.929c-10.336,0-20.672-3.934-28.541-11.803c-15.737-15.737-15.737-41.344,0-57.082
	c15.738-15.736,41.344-15.736,57.082,0c15.737,15.738,15.737,41.344,0,57.082C452.662,470.995,442.326,474.929,431.99,474.929z
	 M431.99,414.232c-5.215,0-10.429,1.984-14.398,5.955c-7.939,7.939-7.939,20.857,0,28.796c3.846,3.846,8.959,5.964,14.398,5.964
	s10.553-2.118,14.398-5.964c7.939-7.939,7.939-20.857,0-28.796C442.421,416.218,437.204,414.232,431.99,414.232z"/>
<path style="fill:#F8C55A;" d="M165.691,137.503l-11.826-11.536c-5.701-5.561-13.35-8.674-21.314-8.674H24.594
	c-6.627,0-11.999-5.372-11.999-11.999V21.999C12.595,15.372,17.967,10,24.594,10h150.055c6.627,0,11.999,5.372,11.999,11.999v106.67
	C186.649,139.59,173.508,145.129,165.691,137.503z"/>
<path d="M196.648,22c0-8.572-4.931-16.009-12.103-19.638c-0.096-0.049-0.191-0.1-0.288-0.148c-0.09-0.044-0.181-0.085-0.272-0.128
	C181.179,0.744,178.028,0,174.649,0H24.595c-12.131,0-22,9.869-22,22v83.294c0,12.13,9.869,21.999,22,21.999h107.957
	c5.386,0,10.476,2.071,14.33,5.832l11.827,11.537h-0.001c4.308,4.203,9.997,6.42,15.814,6.42c3.018,0,6.07-0.597,8.981-1.824
	c7.985-3.365,13.145-10.798,13.145-18.935V23.652c0-0.417-0.009-0.831-0.027-1.242C196.627,22.272,196.648,22.138,196.648,22z
	 M170.102,20l-62.838,36.247c-4.714,2.719-10.57,2.719-15.282,0L29.142,20H170.102z M174.948,131.052
	c-1.335,0.207-2.017-0.456-2.273-0.707l-11.827-11.537c-7.612-7.426-17.662-11.515-28.296-11.515H24.595c-1.103,0-2-0.897-2-1.999
	V39.312l59.394,34.26c5.438,3.137,11.536,4.705,17.634,4.705s12.195-1.568,17.635-4.706l59.392-34.259v90.889
	C176.477,130.423,175.888,130.903,174.948,131.052z"/>
<path d="M257.323,431.639c-6.793,0-13.643-0.391-20.36-1.163c-5.487-0.63-9.424-5.588-8.794-11.075
	c0.629-5.488,5.591-9.428,11.075-8.794c7.16,0.822,14.446,1.159,21.718,0.99c2.427-0.055,4.882-0.167,7.298-0.332
	c5.524-0.381,10.282,3.784,10.659,9.294s-3.784,10.282-9.294,10.659c-2.718,0.186-5.479,0.312-8.209,0.374
	C260.049,431.623,258.685,431.639,257.323,431.639z M299.391,426.317c-4.449,0-8.51-2.992-9.675-7.5
	c-1.383-5.347,1.831-10.802,7.179-12.185c9.351-2.417,18.526-5.727,27.272-9.835c4.999-2.348,10.956-0.199,13.303,4.799
	c2.349,4.999,0.2,10.955-4.799,13.303c-9.867,4.635-20.22,8.368-30.771,11.096C301.063,426.213,300.219,426.317,299.391,426.317z
	 M207.925,424.199c-0.979,0-1.976-0.145-2.96-0.45c-10.4-3.22-20.563-7.436-30.209-12.53c-4.883-2.58-6.751-8.629-4.171-13.513
	c2.578-4.882,8.629-6.75,13.513-4.171c8.552,4.518,17.563,8.255,26.781,11.109c5.276,1.633,8.229,7.234,6.596,12.51
	C216.146,421.445,212.192,424.199,207.925,424.199z M153.587,395.516c-2.177,0-4.368-0.708-6.206-2.165
	c-8.535-6.768-16.488-14.361-23.639-22.57c-3.628-4.165-3.192-10.481,0.972-14.109c4.164-3.627,10.481-3.194,14.108,0.972
	c6.348,7.287,13.408,14.028,20.984,20.035c4.328,3.432,5.054,9.721,1.623,14.049C159.455,394.218,156.535,395.516,153.587,395.516z
	 M113.252,349.192c-3.426,0-6.762-1.761-8.626-4.926c-5.534-9.396-10.216-19.35-13.913-29.586
	c-1.876-5.194,0.813-10.926,6.008-12.803c5.2-1.877,10.928,0.815,12.803,6.008c3.277,9.074,7.428,17.899,12.335,26.23
	c2.803,4.758,1.218,10.888-3.541,13.691C116.724,348.746,114.977,349.192,113.252,349.192z M92.37,291.428
	c-4.819,0-9.063-3.491-9.859-8.401c-1.308-8.064-2.065-16.326-2.253-24.556c-0.031-1.369-0.047-2.733-0.047-4.094
	c0-1.321,0.015-2.639,0.043-3.954c0.12-5.446,4.573-9.78,9.994-9.78c0.074,0,0.148,0.001,0.224,0.002
	c5.521,0.122,9.899,4.696,9.778,10.218c-0.026,1.168-0.039,2.34-0.039,3.514c0,1.21,0.014,2.423,0.041,3.639
	c0.167,7.313,0.84,14.651,2.001,21.81c0.884,5.452-2.819,10.588-8.271,11.472C93.44,291.386,92.901,291.428,92.37,291.428z
	 M93.772,229.995c-0.68,0-1.37-0.07-2.062-0.215c-5.405-1.133-8.869-6.434-7.735-11.839c2.236-10.666,5.486-21.181,9.66-31.251
	c2.115-5.103,7.968-7.521,13.066-5.41c5.103,2.115,7.524,7.965,5.41,13.067c-3.699,8.926-6.58,18.245-8.563,27.699
	C102.562,226.758,98.404,229.995,93.772,229.995z M117.263,173.232c-1.873,0-3.767-0.525-5.453-1.625
	c-4.626-3.017-5.93-9.213-2.913-13.839c4.925-7.551,10.476-14.789,16.499-21.513c3.685-4.114,10.007-4.461,14.12-0.776
	c4.114,3.685,4.462,10.007,0.776,14.121c-5.346,5.968-10.272,12.393-14.644,19.094C123.731,171.634,120.529,173.232,117.263,173.232
	z"/>
<path d="M404.428,344.079c-1.611,0-3.246-0.391-4.762-1.213c-4.854-2.635-6.653-8.706-4.019-13.56
	c2.446-4.505,4.695-9.185,6.686-13.91c2.145-5.09,8.01-7.478,13.098-5.334c5.09,2.144,7.478,8.008,5.334,13.098
	c-2.244,5.329-4.781,10.607-7.539,15.688C411.413,342.186,407.977,344.079,404.428,344.079z M420.841,299.857
	c-0.698,0-1.407-0.073-2.118-0.227c-5.398-1.165-8.831-6.485-7.667-11.884c2.032-9.419,3.198-19.109,3.467-28.8
	c0.153-5.521,4.718-9.867,10.273-9.719c5.521,0.153,9.872,4.752,9.719,10.273c-0.303,10.919-1.617,21.842-3.908,32.463
	C429.595,296.651,425.449,299.857,420.841,299.857z M422.555,238.438c-4.842,0-9.097-3.523-9.867-8.458
	c-1.494-9.557-3.886-19.012-7.108-28.103c-1.846-5.205,0.878-10.921,6.083-12.767c5.203-1.843,10.921,0.877,12.767,6.083
	c3.637,10.255,6.334,20.92,8.019,31.698c0.853,5.457-2.879,10.571-8.336,11.424C423.589,238.399,423.068,238.438,422.555,238.438z
	 M402.053,180.554c-3.446,0-6.799-1.782-8.655-4.976c-4.852-8.346-10.512-16.294-16.825-23.626
	c-3.604-4.185-3.133-10.499,1.052-14.103c4.184-3.604,10.499-3.133,14.103,1.052c7.114,8.261,13.494,17.219,18.962,26.626
	c2.775,4.775,1.154,10.896-3.62,13.671C405.487,180.117,403.758,180.554,402.053,180.554z M361.953,133.996
	c-2.196,0-4.407-0.72-6.253-2.201c-7.544-6.054-15.686-11.437-24.197-15.997c-4.868-2.608-6.7-8.668-4.092-13.537
	c2.608-4.868,8.667-6.7,13.537-4.092c9.593,5.14,18.768,11.205,27.27,18.027c4.308,3.457,4.997,9.75,1.54,14.058
	C367.783,132.716,364.882,133.996,361.953,133.996z M307.803,105c-0.999,0-2.014-0.15-3.016-0.467
	c-9.199-2.907-18.731-4.969-28.331-6.128c-5.482-0.662-9.391-5.644-8.729-11.126c0.662-5.483,5.639-9.396,11.127-8.729
	c10.827,1.308,21.58,3.633,31.958,6.913c5.267,1.664,8.187,7.282,6.522,12.548C315.987,102.274,312.048,105,307.803,105z
	 M216.33,102.352c-4.472,0-8.544-3.022-9.688-7.556c-1.351-5.355,1.895-10.792,7.25-12.143c10.529-2.657,21.398-4.351,32.305-5.035
	c5.508-0.341,10.261,3.842,10.606,9.354s-3.843,10.261-9.354,10.606c-9.681,0.607-19.324,2.109-28.664,4.466
	C217.964,102.252,217.141,102.352,216.33,102.352z"/>
<g>
</g>
<g>
</g>
<g>
</g>
<g>
</g>
<g>
</g>
<g>
</g>
<g>
</g>
<g>
</g>
<g>
</g>
<g>
</g>
<g>
</g>
<g>
</g>
<g>
</g>
<g>
</g>
<g>
</g>
</svg>
