<?xml version="1.0" encoding="utf-8"?>
<!-- Generator: Adobe Illustrator 21.0.0, SVG Export Plug-In . SVG Version: 6.00 Build 0)  -->
<svg version="1.1" id="Capa_1" xmlns="http://www.w3.org/2000/svg" xmlns:xlink="http://www.w3.org/1999/xlink" x="0px" y="0px"
	 viewBox="0 0 890 933" style="enable-background:new 0 0 890 933;" xml:space="preserve">
<style type="text/css">
	.st0{opacity:0.3993;fill:url(#Path-4_2_);enable-background:new    ;}
	.st1{opacity:0.3993;fill:url(#Path-4_3_);enable-background:new    ;}
	.st2{fill:#4AD295;}
	.st3{fill:url(#SVGID_1_);}
	.st4{fill:url(#SVGID_2_);}
	.st5{fill:url(#SVGID_3_);}
	.st6{fill:url(#SVGID_4_);}
	.st7{opacity:0.4088;fill:#00AF80;enable-background:new    ;}
	.st8{fill:#E2FFE2;}
	.st9{fill:#C7FFC7;}
	.st10{fill:#143B63;}
	.st11{fill:#B1B0F8;}
	.st12{fill:#D7D7FF;}
	.st13{fill:#3636CC;}
	.st14{fill:#0161CD;}
	.st15{fill:#2C8CF4;}
	.st16{fill:#3761C8;}
	.st17{fill:#5EB2FC;}
	.st18{fill:#1273EB;}
	.st19{fill:#92CDFA;}
	.st20{fill:#C7EBFF;}
	.st21{fill:#D5D5FC;}
	.st22{fill:none;stroke:#0161CD;stroke-width:1.49;stroke-linecap:round;stroke-linejoin:round;}
	.st23{fill:#B3B3FC;}
	.st24{fill:none;stroke:#B3B3FC;stroke-width:1.55;stroke-linecap:round;stroke-linejoin:round;}
	.st25{fill:none;stroke:#5EB2FC;stroke-width:1.36;stroke-linecap:round;stroke-linejoin:round;}
	.st26{fill:#E9FFE1;}
	.st27{fill:#D0D7DE;}
	.st28{fill:#E3E7EB;}
	.st29{fill:#F7F9FA;}
	.st30{fill:#568AEF;}
	.st31{fill:none;stroke:#8DF690;stroke-width:1.52;stroke-linecap:round;stroke-linejoin:round;}
	.st32{fill:none;stroke:#4AD295;stroke-width:1.52;stroke-linecap:round;stroke-linejoin:round;}
	.st33{fill:none;stroke:#8DF690;stroke-width:1.55;stroke-linecap:round;stroke-linejoin:round;}
	.st34{fill:none;stroke:#2C8CF4;stroke-width:1.55;stroke-linecap:round;stroke-linejoin:round;}
	.st35{fill:none;stroke:#5EB2FC;stroke-width:1.55;stroke-linecap:round;stroke-linejoin:round;}
	.st36{fill:none;stroke:#1273EB;stroke-width:1.55;stroke-linecap:round;stroke-linejoin:round;}
	.st37{fill:#29478B;}
	.st38{fill:none;}
</style>
<g>

		<linearGradient id="Path-4_2_" gradientUnits="userSpaceOnUse" x1="145.2087" y1="966.8588" x2="45.8228" y2="966.4127" gradientTransform="matrix(-222.0782 -498.7958 -517.9803 230.6197 511350.4688 -199859.2031)">
		<stop  offset="0" style="stop-color:#E3E9ED"/>
		<stop  offset="1" style="stop-color:#CFD9E0"/>
	</linearGradient>
	<path id="Path-4" class="st0" d="M671.1,616.9c-100-25.1-109.1-160.2-214.5-105.6c-105.5,54.6-211.3-82.2-156.1-157.4
		c33.7-45.9,132.8-43.9,173-89.2c25.7-28.9,37-126.8,101.1-182.2c112.2-97,236.5-16.6,173.5,111.7c-15.2,30.9-25.4,84.9,0.7,183.8
		C793,545.8,723.5,630,671.1,616.9z"/>

		<linearGradient id="Path-4_3_" gradientUnits="userSpaceOnUse" x1="45.2087" y1="966.8588" x2="45.8228" y2="966.4127" gradientTransform="matrix(-222.0782 -498.7958 -517.9803 230.6197 511350.4688 -199818.2031)">
		<stop  offset="0" style="stop-color:#E3E9ED"/>
		<stop  offset="1" style="stop-color:#CFD9E0"/>
	</linearGradient>
	<path id="Path-4_1_" class="st1" d="M671.1,657.9c-100-25.1-109.1-160.2-214.5-105.6c-105.5,54.6-211.3-82.2-156.1-157.4
		c33.7-45.9,132.8-43.9,173-89.2c25.7-28.9,37-126.8,101.1-182.2c112.2-97,236.5-16.6,173.5,111.7c-15.2,30.9-25.4,84.9,0.7,183.8
		C793,586.8,723.5,671,671.1,657.9z"/>
</g>
<path id="Oval" class="st2" d="M108.1,656.5c24.5,20.3,23.4,54.3,15.7,68.4s-32.1,17.7-56.6-2.6c-24.5-20.3-30.2-52.2-20.6-70.1
	C56,634.4,83.6,636.3,108.1,656.5z"/>
<g>

		<linearGradient id="SVGID_1_" gradientUnits="userSpaceOnUse" x1="45.4188" y1="967.1842" x2="45.6258" y2="966.786" gradientTransform="matrix(476.5724 -529.2872 -499.173 -449.4574 461240.4688 459040.5312)">
		<stop  offset="0" style="stop-color:#00AF80"/>
		<stop  offset="1" style="stop-color:#4AD295"/>
	</linearGradient>
	<path class="st3" d="M527,412.1c18.1-6.8,36.5-15.2,54.8-23.4C563,394.5,544.7,402.7,527,412.1z"/>

		<linearGradient id="SVGID_2_" gradientUnits="userSpaceOnUse" x1="45.0983" y1="967.0176" x2="45.3054" y2="966.6194" gradientTransform="matrix(476.5724 -529.2872 -499.173 -449.4574 461240.4688 459040.5312)">
		<stop  offset="0" style="stop-color:#00AF80"/>
		<stop  offset="1" style="stop-color:#4AD295"/>
	</linearGradient>
	<path class="st4" d="M813.4,458.8c-10.2-9.2-19.3-17.9-27.9-26c52.4,110.7-20.2,202.8-161,210.7c-48.3,2.7-141-47.9-191.6-53.9
		c-66.6-8-67.6,57.7-137.7,36c-116.5-36.1-190.8-116.2-183.3-161.5c-28.4,2.5-46.8,17.2-46.8,54.6c0,64.8,149.5,155.5,106.7,261.3
		c-39.9,98.9,101.6,100.2,216.6,88.9C642.2,844,990.6,618.3,813.4,458.8z"/>

		<linearGradient id="SVGID_3_" gradientUnits="userSpaceOnUse" x1="45.2768" y1="967.1104" x2="45.4838" y2="966.7122" gradientTransform="matrix(476.5724 -529.2872 -499.173 -449.4574 461240.4688 459040.5312)">
		<stop  offset="0" style="stop-color:#00AF80"/>
		<stop  offset="1" style="stop-color:#4AD295"/>
	</linearGradient>
	<path class="st5" d="M295.3,625.5c70.2,21.7,71.1-44,137.7-36c50.5,6.1,143.3,56.6,191.6,53.9c140.8-7.9,213.3-100,161-210.7
		c-45.5-43.1-76-68.5-176.5-50.8c-9.2,1.6-18.2,3.9-27.2,6.7c-18.3,8.2-36.7,16.6-54.8,23.4C448.7,453.6,382.1,519,332.9,512.1
		c-68.6-9.6-164.5-53-221-48.1C104.5,509.4,178.8,589.5,295.3,625.5z"/>

		<linearGradient id="SVGID_4_" gradientUnits="userSpaceOnUse" x1="45.2491" y1="966.2249" x2="45.2491" y2="965.2249" gradientTransform="matrix(529.6171 -305.7746 -257.1444 -445.3871 224824.0469 444433.75)">
		<stop  offset="0" style="stop-color:#2BC48A"/>
		<stop  offset="1" style="stop-color:#8DF690"/>
	</linearGradient>
	<path class="st6" d="M295.3,625.5c70.2,21.7,71.1-44,137.7-36c50.5,6.1,143.3,56.6,191.6,53.9c140.8-7.9,213.3-100,161-210.7
		c-45.5-43.1-76-68.5-176.5-50.8c-9.2,1.6-18.2,3.9-27.2,6.7c-18.3,8.2-36.7,16.6-54.8,23.4C448.7,453.6,382.1,519,332.9,512.1
		c-68.6-9.6-164.5-53-221-48.1C104.5,509.4,178.8,589.5,295.3,625.5z"/>
</g>
<path id="Path-3" class="st7" d="M225.6,480.9c-8.4-3.4-8.1-2.5-9.3-2.4s-3.9,0.5,2.1,6.1c17.5,59.1,26.3,91,26.4,95.6
	c0.1,7-0.9,26.8-1.9,28.6c-1,1.8-6.5,20.3-6.3,25.7c0.2,5.4,4.3,7.5,8.2,7.5c3.8-0.1,23.8-3.7,25-7.5c1.2-3.8,3.5-7.4,5.7-9.9
	s5.6-10.8,2.2-18.6c-3.3-7.9-2.3-22.3-5.2-25.7c-2.8-3.4-6.6-10.3-4.7-13.8s0.3-14.4-1.9-17.1c-2.1-2.6,1.6-36.7,0-39.7
	c-1-2,9.3-2,30.9,0V657l-13.9,10.9c-1.4,3.6-2,7.8-1.8,12.6c0.4,7.2,21.7,4.5,26.1,0s7.1-25.8,9.5-27c2.4-1.2,9.2-1.9,8.6-5.8
	c-0.6-3.9-4.5-9-3.3-11.1c1.2-2.1,0-13.9,0-18.3c0-4.3,2.2-15.9,3.3-22.9s21.4-62.6,22.4-69.2c1-6.5,63-10.6,75.9-16.6
	s16.6-15.1,14.5-19.5c-2.1-4.4-12.2-6.3-17.5-6.3c-3.5,0-8.9-0.3-16.1-1L225.6,480.9z"/>
<g id="PERSONAJES-02" transform="translate(373.500000, 442.000000) scale(-1, 1) translate(-373.500000, -442.000000) translate(252.000000, 216.000000)">
	<path id="_Trazado_" class="st8" d="M243.5,137.5c5.1-6.3,10.6-6.5,10.6-6.5c2.4,4.8,30.6,13,32.8,13.8c2.2,0.7,5.3-0.9-9.7-7.9
		c7.2,1.3,12.1,2.1,15.6,1.3c3.5-0.8,4-3.6,0.2-3.7c-3.9-0.1-15.6-3.4-15.6-3.4c11,2,19.2-0.3,22-1.7s5.1-4.1,1.5-3.8
		s-14.7,2-21.4-1c7.5,1.2,14.9-0.1,19.6-4.2c3.9-3.4,0-3.6-2.7-2.5c-3.9,1.6-9.4,1.7-15.6,1.2c-3.6-0.4-7.2-1-10.7-1.8
		c1.9-0.3,3.5-1.8,5.2-3.6c1.7-1.8,2.6-4.1,1.4-4.8c-2.1-1.5-11.4,3.4-16.8,4.3c-3.3,0.6-8.5,2.6-20.9,12.1
		c-7,5.4-40.1,33.5-40.1,33.5l13.2,3.4L243.5,137.5z"/>
	<path id="_Trazado_2" class="st9" d="M270.4,117.5h-0.5c-0.1,0-0.3,0-0.4,0l-0.2,0.2c-1.3,1.5-2.7,2.9-4.3,4.1
		c-1.3,1.1-2.8,2.1-4.4,2.7c0,0.1,0.1,0.1,0.1,0.2c5.1,3.6,12.5,0.8,16.5-3.2c0.7-0.8,1.4-1.6,2-2.5
		C275.6,118.7,271.7,117.8,270.4,117.5z"/>
	<path id="_Trazado_3" class="st9" d="M248,128.4c-5.4,1-9.8,4.9-11.4,10.3c0.3,1.1,0.8,2.2,1.5,3l5.3-4.2c4.4-5.5,9.1-6.3,10.3-6.4
		C252.7,129,250.3,127.9,248,128.4z"/>
	<path id="_Trazado_4" class="st8" d="M177.1,359.7c2.1,6.2,3.9,12.5,5.3,19c0.8,4.2,1,8.5,0.5,12.7c-0.3,3.5,1.5,10.6,6.6,17.7
		c7.2,10.1,18.3-0.8,14.6-13.1c-2.4-8.6-4.1-17.5-5-26.4l-10.7-2L177.1,359.7z"/>
	<path id="_Trazado_5" class="st8" d="M253.5,356.9c-2.8,6-4,12.7-3.5,19.3c1.3,6.1-21.4,15.1-18.8,7.8s0.5-9.9,1.5-14.4
		c1-4.5,4.9-8.5,5.9-14.8c1-6.4,8.1-5.6,8.1-5.6L253.5,356.9z"/>
	<path id="_Trazado_6" class="st10" d="M234.7,382.8c2-10.5,17.4-15.6,20.1,2.9c0.5,3.5,14.6,7.6,9.5,23.4c-1.1,3.4-2,6.8-2.6,10.3
		c-4.9,4.1-11.4,5.7-17.6,4.4c-10.3-2.2-17.8-8.6-16.2-14.8c-2,0.8-5.6-4.4-5.6-4.4c0.1-6.4,6.3-14.3,6.8-24.2
		c1.4-3.4,2.3-1.9,2.3-1.9C230.6,382.1,234.7,382.8,234.7,382.8z"/>
	<path id="_Trazado_7" class="st10" d="M212,409.7c-1.9-12.1-13.1-26.2-19.3-6.8c-5.4,1.7-9.4-7.8-9.4-7.8c-4.3,9.8,0.6,17.7-1,21.6
		c-1.6,3.9-1.5,9.5-1.3,11.6s6.5,1,6.6,4.4c0.2,3.4,2.7,23.9,20.9,26.1c18.2,2.1,23.3-6.8,23.7-9.7c1.7-10.9-1.9-22-9.7-29.8
		C219.4,416.1,212,409.7,212,409.7z"/>
	<path id="_Trazado_8" class="st11" d="M159.3,115.8c17.7,22.4,17.7,22.8,22.3,27.3c4.6,4.6,14.7,12.4,16,14.7
		c0.4-6.9,39.4-28.8,43.6-34.9c-2,5-1.1,13.5,4.4,12.1c-5.2,8.5-39.4,46.6-43.8,51.1s-20.1-14.7-26.5-20.6
		c-6.4-5.8-23.7-21.1-23.7-21.1v-23.1L159.3,115.8z"/>
	<path id="_Trazado_9" class="st12" d="M168,142.2c6.2,19.5,17.2,33,33.2,44.3c0.2-0.1,0.4-0.3,0.6-0.4c4.5-4.6,38.7-42.5,43.9-51
		c-5.6,1.3-6.5-7.1-4.4-12.1c-4.2,6.1-43.2,28.1-43.6,34.9c-1.4-2.3-11.4-10.1-16-14.7c-4.3-4.2-4.7-4.9-18.4-22.4
		C164.2,128.1,165.7,135.2,168,142.2z"/>
	<path id="_Trazado_10" class="st13" d="M100.5,207.6c0.8,1.2-0.2,30.3-0.2,30.3l29.9-6.2l27.5-9.1v-16.2l-30.8-10.1l-20,4.3
		L100.5,207.6z"/>
	<path id="_Trazado_11" class="st14" d="M102.8,223.8c18.6-8.2,32-12.6,39-12.5c6.9,0.1,22.1,4.6,22.1,4.6l14.1,9.6l-2.4,56.7
		c0,0-23.9,6.9-34.3,1.7c-1.2,4.6-28.8,10.6-41.8,6.4c-13.1-4.3-16-46.6-7.3-56.1S102.8,223.8,102.8,223.8z"/>
	<path id="_Trazado_12" class="st15" d="M163.8,215.9c39.8,10.7,109,23.4,117.9,44s-43.2,32.4-90.8,27.2c-47.7-5.2-37.1-9-51.3-28.8
		C127.8,241.7,148.5,211.8,163.8,215.9z"/>
	<path id="_Trazado_13" class="st16" d="M236.7,234.9c-23.9-7.4-52.3-13.5-72.9-19c-15.3-4.1-36,25.8-24.3,42.3
		c14.2,19.9-7.5,19.8,40.2,25c1,0.1,19.5,0.9,20.5,0.9c-9.6-27.6,26-35.3,42-38.5c3-0.6,6.2-0.9,10.7-1.7
		C253.2,241.7,236.1,238.1,236.7,234.9z"/>
	<path id="_Trazado_14" class="st15" d="M240,342.4c2.9-13-1.8-64.4,12.4-80.5c10.1-11.5,16.3-14,23.9-9.1s10.8,10.8,1.4,41.2
		c-5.9,18.8-13.1,37.1-21.5,55L240,342.4z"/>
	<path id="_Trazado_15" class="st17" d="M107.7,226.7c13.7,0.3,20.6,5.6,32.4,8.3c29.1,6.6,54.5,28,59.1,39.8
		c6.4,16.5-7.7,25.1-36.5,26.6c-28.8,1.5-58.3-3.5-66-12.6C88.9,279.6,78.9,226.1,107.7,226.7z"/>
	<path id="_Trazado_16" class="st18" d="M100.8,246.2c11,3.2,20.8,9.6,28.2,18.3c5.8,7,7,5.2,14.8-0.3c3-2.1,5.7-4,8.7-6.3
		c13.7-10,24.6-6.4,33.4,0.6c-13.2-11.4-28.9-19.5-45.8-23.6c-11.7-2.6-18.7-8-32.4-8.3c-10.4-0.2-15.8,6.7-18,16
		C93.7,243.8,97.6,245.2,100.8,246.2z"/>
	<path id="_Trazado_17" class="st17" d="M177.9,363.1c-5.1-21.7-23.7-68.2-15.3-84.4c8.4-16.2,19.6-21.3,30.2-12.8
		c10.6,8.5,15,29.9,10.8,46.6s-3.1,47.4-3.1,47.4l-7.7,7.3L177.9,363.1z"/>
	<path id="_Trazado_18" class="st19" d="M239.8,337.7c3.5,4.2,17.2,5.6,19.4,5.7c2.3,0.1,0.1,13.2-5.2,16.4
		c-5.3,3.2-16.1-3.1-17.6-5.6S238.9,336.7,239.8,337.7z"/>
	<path id="_Trazado_19" class="st20" d="M177.1,359.7c10.1,2.4,21.9,0.3,23.6-1.5c3.2-1.5,2.9,9,3.5,12.5c0.6,3.5-20.6,9.4-25.2,4.4
		S177.1,359.7,177.1,359.7z"/>
	<path id="_Trazado_20" class="st18" d="M64.3,122.2l7.1,22.3l13.8-3.2l43.8-9.6l-2-40.5c0,0-20.2-16.7-22.3-16.1
		c-2.1,0.6-16.3,8.3-16.3,8.3l-17.2,21.6L64.3,122.2z"/>
	<path id="_Trazado_21" class="st13" d="M93.7,105.5c9.2,26.3,2.1,107.9,10.9,108.8s27.2-9.5,36.6-10.4c5.6-0.6,11.3,0.3,16.5,2.6
		l-8.7-42.1V138l-1.6-26.6l-12.1-4.6l-20.5-8.8l-12.6-3L93.7,105.5z"/>
	<path id="_Trazado_22" class="st21" d="M135.5,108.7c9.1,20.7,7.3,45.7,8.6,60c1.4,14.3,2.5,74.9,2.5,74.9l8,2.1
		c0,0,2.7-30.8,18.3-27.2c-12.2-9.1-19.6-31.3-18.8-48.8c0.6-12.8-1.5-19.3,1.2-32.1c2.3-10.6,4-21.9,4-21.9L130.2,102
		C135.5,106.8,135.5,108.7,135.5,108.7z"/>
	<path id="_Trazado_23" class="st8" d="M91,110.8c8,15.6,17,35.4,37.9,33.2s6.6-37.2,6.6-37.2l-9.1-5.6c0,0-0.2-3.9,5.2-6.5
		c5.4-2.6-2.6-21.4-2.6-21.4h-24.4L91,110.8z"/>
	<path id="_Trazado_24" class="st9" d="M116,107.2c4.6,11.9,13.7,19,24,25c1.3-10.9-4.6-25.3-4.6-25.3l-9.1-5.6c0,0-0.2-3.9,5.2-6.5
		c5.4-2.6-2.6-21.4-2.6-21.4h-16.9C110.5,84.7,111.9,96.4,116,107.2z"/>
	<g id="_Grupo_2" transform="translate(60.372671, 40.490094)">
		<path id="_Trazado_25" class="st15" d="M95,7.4c6.7,11.8,0.6,29.9,0,41.1c-0.6,11.2,11.7,9.1,17.5,20.1c5.9,11-6.7,22.1-7.2,32.1
			s2.6,11,2.6,11c-6.4-0.8-10.7-13.2-10.7-13.2c1.4,7.3,0.2,15-3.5,21.4c-6.9-7.1-1-16.7-6.4-21.1c-5.8-4.8-16.3-14-20.9-30.4
			C62,52.1,77,52.9,77,52.9l10-32.6L83.7,9.6L95,7.4z"/>
		<path id="_Trazado_26" class="st18" d="M104.7,110.2c-0.9-2.8-1.4-5.6-1.6-8.5c-1-8.1-2.6-11.5-9.7-15c-8.3-4.1-13-11.6-10.9-21.3
			c1.2-5.4,4.9-9.5,6.7-14.5c1.1-3,0.7-6.1,1.5-9.1c0.2-0.6,0.2-1.2,0.1-1.8c-2.3-0.8-4-2.6-4.7-5c-1.2-0.7-2.1-1.7-2.8-2.8l-6,20.7
			c0,0-15.1-0.8-10.4,15.5s15.1,25.5,20.9,30.4c5.4,4.6-0.5,14,6.4,21.1c3.7-6.5,4.9-14.1,3.5-21.4
			C97.4,98.3,100.1,106.7,104.7,110.2z"/>
		<path id="_Trazado_27" class="st9" d="M65.7,66.7c3.7-9.9,4.4-12.3,10.1-12.1c4.7-7.2-3.4-9.8-3.4-9.8l-9.3,1.2L61,54.6l0.5,11.1
			L65.7,66.7z"/>
	</g>
	<path id="_Trazado_28" class="st18" d="M150.9,55.1c1.3-1.5,3.2-2.3,5.1-2l1.2-1.1c-0.4-1.4-1-2.8-1.8-4.1l-11.4,2.2l3.1,9.9
		C148.3,58.3,149.5,56.7,150.9,55.1z"/>
	<path id="_Trazado_29" class="st8" d="M102.6,67.7c3.1,15.2,13.1,27.3,34.5,27.3s15.8-50.4,14.1-55.9c-1.7-5.5-16-18.8-32.8-15.6
		S99.8,58.6,102.6,67.7z"/>
	<path id="_Trazado_30" class="st9" d="M114.2,90.5c4.1-3,4.9-10.3,4.7-15c-0.2-7.6-0.8-5.9-1.6-11.6s-1.4-9.7,0-15.3
		c2.4-9,7.3-17,14.2-23.2c-3.6-1.4-7.4-2-11.3-1.5c-15.3,1.9-19.5,33.5-17.7,42.8C103.6,76.2,107.1,84.9,114.2,90.5z"/>
	<path id="_Trazado_31" class="st22" d="M120.8,58.8l-18.2,3.6"/>
	<path id="_Trazado_32" class="st12" d="M95.2,101.3c9.8,23.4,11.5,58.8,9.4,74s3.3,109,12.3,122.4c-13.1-0.2-35.5-4.7-41.8-9.4
		c-6.3-4.7,7.8-6.8,7.4-12c-0.4-5.2-6.3-0.8-3.4-17.6c2.9-16.8,5.5-37.4,0.6-49.9c-6.3-3.5-22.3,16.4-18.7,2.1s9.9-37.1,6.4-49.7
		c-3.5-12.6-9.3-33.4-3-39.1C70.6,116.5,92.6,108.8,95.2,101.3z"/>
	<path id="_Trazado_33" class="st23" d="M81.1,213.3c3,12.6,0.6,30.5-2,45.5c-2.9,16.8,3,12.4,3.4,17.6c0.4,5.2-13.7,7.3-7.4,12
		s28.7,9.1,41.8,9.4c-6.2-9.2-10.9-61.1-12.4-94.6C96.7,205.1,88.8,211.2,81.1,213.3z"/>
	<path id="_Trazado_34" class="st12" d="M82.9,123.2c-0.3-3.8-0.4-7.7-0.4-11.6c-7,3.8-14.9,7.4-18.2,10.5c-6.2,5.8-0.4,26.5,3,39.1
		c3.4,12.6-2.8,35.4-6.4,49.7s12.4-5.6,18.7-2.1c0.2,0.5,0.4,1.1,0.6,1.7c2.6-10.3,4.5-20.8,5.8-31.3c0.3-3.5,0.5-7.1,0.4-10.6
		C85.3,153.4,84,138.3,82.9,123.2z"/>
	<path id="_Trazado_35" class="st24" d="M82.5,200.6c1.5-7.1,2.7-14.2,3.5-21.4c0.3-3.5,0.5-7.1,0.4-10.6
		c-0.8-10.3-1.6-20.5-2.4-30.8c4.5,0.1,2.9,9.9,1.1,14.1"/>
	<path id="_Trazado_36" class="st15" d="M154.7,30.7C146.6,22.3,122,1,104.6,9.4s-22.3,49-30.2,71.8c-7.1,20.3-14.7,24.3-10.1,41
		c1.5-3.6,3.7-6.9,6.4-9.7c3.5-3.9,10.3-6.4,14.9-3c0.4,0.3-2.1,0.9-1.9,1.3c3.9,2.3,13-4.6,13-4.6c-3,2.9-3,4.8-7.9,8.8
		c6.8,0,9.1-3,9.1-3c-0.6,7.3-10.6,15.5-10.6,15.5c18.4-4.4,28.5-15.6,27.2-36.4c-1.3-20.8-4.4-38.6,4-46.9c1.3-1.3,3.1-3,3.1-3
		c0.8,0.6-1,2.2-1,2.2c6.5,0.6,11-5.9,11-5.9c-0.7,2.6-2.3,4.9-4.4,6.5c6.5,2,13.2-3.6,13.2-3.6c0.6,3.6-5.3,6.2-5.3,6.2
		c6.5,1.7,11.3-3.8,11.3-3.8c-1,2.3-2.3,4.4-3.8,6.4c3.5,0.2,6.9-1.2,9.4-3.7c0,2.4-0.5,4.8-1.5,7C159,51.6,162.9,39.2,154.7,30.7z"
		/>
	<path id="_Trazado_37" class="st18" d="M113,56.9c-2.4,6.4-3.4,13.2-6.4,19.4c-3,6.2-7.8,11.6-14.8,12.8c-4,0.7-12.1-2.9-18.9-4
		c-6.6,17-12.9,21.5-8.6,37c1.5-3.6,3.7-6.9,6.4-9.7c3.5-3.9,10.3-6.4,14.9-3c0.4,0.3-2.1,0.9-1.9,1.3c3.9,2.3,13-4.6,13-4.6
		c-3,2.9-3,4.8-7.9,8.8c6.8,0,9.1-3,9.1-3c-0.6,7.3-10.6,15.5-10.6,15.5c18.4-4.4,28.5-15.6,27.2-36.4C113.4,77.8,111.9,66,113,56.9
		z"/>
	<path id="_Trazado_78" class="st25" d="M155.2,45.8c4.1-2.8-1-11.9-8.4-17.4"/>
	<path id="_Trazado_79" class="st25" d="M143.1,39.7c3.3-3.1,0.1-13.1-4.1-16.7"/>
	<path id="_Trazado_80" class="st26" d="M106.3,205.6c1.3,1.9,3.2,3.3,5.3,4.2c-0.1,0.8-0.1,1.5-0.1,2.3c1.3,0.9,2.7,1.7,4.1,2.5
		c1.2,0.4,5.9-1,7.9-1.2c1-0.1,1.9-0.3,2.9-0.7c-0.7-3.5-0.1-6.8,3.1-8.8c-1.3-1.3-2.8-2.4-4.3-3.3c1.1,0.3,2.3,0.3,3.4,0
		c2.5-0.5,5.2-1.9,5.5-4.6c-0.6-0.6-2.8,0.5-4.9,0c-4.5-1-7.7-5.7-10.6-6.8c-4.8-1.3-9.8-0.5-14,2.1l-3.5,2.9l-2.3,5.5
		C98.7,200,102.3,205.6,106.3,205.6z"/>
	<polygon id="_Trazado_81" class="st26" points="106.3,205.6 108.8,205.6 108.1,202.4 105.6,201.1 99.4,201.2 103.3,205.6 	"/>
	<path id="_Trazado_82" class="st9" d="M106.3,205.6c-1.5-2.5-0.8-7.3-0.8-7.3c-2.4,0.2-5,2.9-5,2.9l3.3,3.9L106.3,205.6z"/>
	<path id="_Trazado_83" class="st21" d="M106.3,205.6c-10.6-6.8,0-15,0-15c-9.6,4.6-38.8,1-44.5,17s5.6,20.2,9.1,20
		C74.3,227.4,101.8,205.1,106.3,205.6z"/>
	<path id="_Trazado_84" class="st24" d="M66.4,201.1c10.3-8.5,31.9-6.7,39.9-10.5c-1.7,1-3.2,2.4-4.1,4.2
		c-4.1,6.5,4.1,10.8,4.1,10.8c-2.7,0.2-11.1,7.6-13.6,9.1c-0.2,0.1-0.8,0.6-0.8,0.6"/>
	<g id="_Grupo_4" transform="translate(56.844720, 167.977973)">
		<g id="_Grupo_5" transform="translate(-0.000000, 49.093392)">
			<path id="_Trazado_85" class="st27" d="M60.5,10.4l-0.2,3.5L95,36.4l5.3-27.3C79.6,9.7,60.5,10.4,60.5,10.4z"/>
			<path id="_Trazado_86" class="st28" d="M196.7,24.4c0,0-43.7-15.8-45-16.4c-0.8-0.3-27.2,0.4-51.3,1.1l-5.3,27.3l101.5-9.4
				L196.7,24.4z"/>
		</g>
		<path id="_Trazado_87" class="st28" d="M60.5,59.5c0,0,90.9-5.6,92.5-5c1.6,0.7,43.7,19.1,43.7,19.1l-101,8.8L60.5,59.5z"/>
		<path id="_Trazado_88" class="st27" d="M70.7,61.6c0,0,78.1-5.9,79.5-5.3s35.2,15,35.2,15L97.3,79L70.7,61.6z"/>
		<g id="_Grupo_6" transform="translate(13.583851, 50.093392)">

				<rect id="_Trazado_89" x="101.5" y="54.4" transform="matrix(7.410596e-02 -0.9973 0.9973 7.410596e-02 83.3145 113.3439)" class="st28" width="2.3" height="-85.2"/>
		</g>
		<g id="_Grupo_7" transform="translate(20.130435, 55.165318)">

				<rect id="_Trazado_90" x="101.8" y="54.2" transform="matrix(7.428002e-02 -0.9972 0.9972 7.428002e-02 83.6807 113.4053)" class="st28" width="2.3" height="-85.2"/>
		</g>
		<g id="_Grupo_8" transform="translate(27.167702, 59.719263)">

				<rect id="_Trazado_91" x="101.4" y="54.6" transform="matrix(7.428002e-02 -0.9972 0.9972 7.428002e-02 83.0034 113.4317)" class="st28" width="2.3" height="-85.2"/>
		</g>
		<path id="_Trazado_92" class="st29" d="M95.6,82.3l19.9-65.3c0.7-2.2,2.6-3.7,4.8-3.9l91.3-6c0.7-0.1,1.5,0.3,1.9,0.8
			s0.6,1.3,0.4,2.1l-17.3,63.4L95.6,82.3z"/>
		<path id="_Trazado_93" class="st30" d="M174.5,44.3c0.8,5.6-5.1,10.8-11.4,11.7c-2.7,0.6-5.4-0.1-7.6-1.7
			c-2.2-1.6-3.6-4.1-3.8-6.8c-0.8-5.6,5.1-10.8,11.4-11.7c2.7-0.6,5.4,0.1,7.6,1.7C172.9,39.1,174.3,41.6,174.5,44.3z"/>
	</g>
	<path id="_Trazado_94" class="st22" d="M120.8,58.8h3.8c0,0,1.4-2.3,7.2-2.3c5.8,0,5.8,2.3,5.8,2.3h2.1"/>
	<path id="_Trazado_95" class="st22" d="M137.7,62.4c0,11.8-16.1,6.6-13.1-3.6"/>
	<path id="_Trazado_96" class="st22" d="M153.6,57.9h4.3c0.3,0,0.6,0.3,0.6,0.6v0.3h-3.8c0,0-1.4-2.3-7.2-2.3
		c-5.8,0-5.8,2.3-5.8,2.3h-2.1"/>
	<path id="_Trazado_97" class="st22" d="M141.6,62.4c0,11.8,16.1,6.6,13.1-3.6"/>
	<path id="_Trazado_98" class="st31" d="M140.8,65.9c0.8,2,3.2,3.7,3.3,6.1c0.1,2.4-3.6,3.9-4.5,4.1"/>
	<path id="_Trazado_99" class="st32" d="M136.1,83.1c-3.6,0-6.7-2.7-6.7-5.2"/>
	<path id="_Trazado_100" class="st32" d="M124.5,54.3c0-3.9,8.2-4.6,8.2-4.6"/>
	<path id="_Trazado_101" class="st9" d="M127.4,110.3c-0.7-2.1-0.7-4.5,0-6.6c-0.4-3-2.7-1.4-2.7-1.4l-1.5,3.8l1.1,3.6l2.3,2.5
		L127.4,110.3z"/>
	<path id="_Trazado_102" class="st26" d="M120.5,190.6c3.4,2.7,6.8,7.7,8.7,10.7c0.9,1.5,1.7,3,2.3,4.6c1.4,3.4,2.7,6.8,3.8,10.4
		c1.5,5.3-9.1-10.6-9.1-10.6l-4.6-2.2l-3.8-7L120.5,190.6z"/>
	<g id="_Grupo_9" transform="translate(51.316770, 192.783660)">
		<path id="_Trazado_103" class="st9" d="M84,23.4c-1.1-3.5-2.3-7-3.8-10.4c-0.7-1.8-1.6-3.6-2.8-5.2c0.6,4.6-0.7,5.9-3.5,5
			c1.6,2.9-1.1,5.2-2.1,4.9c-0.2,2.9-3.8,3.2-3.8,2c-1.6,2.2-2.7,1.4-4.6,0.1c-1.3-0.7-2.4-1.6-3.2-2.8c-0.1,1.7,0,3.4,0.5,5.1
			c0.9,2.5,5.3,3.2,5.3,3.2s2,2.2,3.4,1.6c1-0.6,1.9-1.5,2.4-2.5c0,0-1.1,1.1,0.8,2.7c1.9,1.6,3,0.8,4.1-0.5s2-1.7,1.4-4.4
			c-0.7-2.3-1.7-4.5-3-6.6c2.2,3.2,4.2,6.5,5.8,10c0.8,2.4,3.8,6.5,4.5,4.6C85.9,28.9,84.8,25.9,84,23.4z"/>
	</g>
	<path id="_Trazado_104" class="st33" d="M258.2,124.3c4.5,0,8.7-2.4,11-6.3"/>
	<path id="_Trazado_105" class="st34" d="M88.4,104.2c16.3-4.8,14.3-32.9,6.6-40.8c-5.7-5.9,9.1-41.3,22.1-38.6"/>
	<path id="_Trazado_106" class="st35" d="M102.3,107.2c6-7.5,8.3-42.8,1.7-65.4"/>
	<path id="_Trazado_107" class="st23" d="M84.9,148.4c2.6-1.2,3.3-9.6-0.9-10.6L84.9,148.4z"/>
	<g id="_Grupo_10" transform="translate(42.260870, 181.662381)">
		<path id="_Trazado_108" class="st8" d="M86.1,19c2.5-0.5,5.2-1.9,5.5-4.6c-0.6-0.6-2.8,0.5-4.9,0c-4.5-1-7.7-5.7-10.6-6.8
			c-1.9-0.6-3.9-0.8-5.9-0.6c0,0.1-0.1,0.2-0.1,0.3c-2,3.5-6.2,4.6-8.5,8c-0.5,0.7-0.9,1.5-1.2,2.3c0.8-0.6,1.8-1,2.8-1.2
			c0,0-0.7,4.8,0.8,7.3c1.3,1.9,3.2,3.3,5.3,4.2c-0.1,0.8-0.1,1.5-0.1,2.3c1.3,0.9,2.7,1.7,4.1,2.5c1.2,0.4,5.9-1,7.9-1.2
			c1-0.1,1.9-0.3,2.9-0.7c-0.7-3.5-0.1-6.8,3.1-8.8c-1.3-1.3-2.8-2.4-4.3-3.3C83.9,19.3,85.1,19.3,86.1,19z"/>
	</g>
	<path id="_Trazado_109" class="st36" d="M142.5,102.9c-1.8,8.9,6.6,15,12.7,17.7c3.6,1.5,6.4,4.2,8.1,7.7"/>
	<path id="_Trazado_110" class="st33" d="M279.4,124.7c-1.5,4.3-4.2,8-7.8,10.9"/>
	<path id="_Trazado_111" class="st32" d="M142.2,52c1.8-1.9,7.3-2.7,8.1-1.3"/>
	<ellipse class="st37" cx="147.6" cy="62.4" rx="1.4" ry="1.6"/>
	<ellipse class="st37" cx="131.6" cy="62.5" rx="1.4" ry="1.6"/>
</g>
</svg>
