<svg height="512pt" viewBox="-20 0 512 512" width="512pt" xmlns="http://www.w3.org/2000/svg"><g fill-rule="evenodd"><path d="m419.730469 190.898438h-118.796875l-34.941406 77.179687h-149.195313v191.921875h219.128906c-2.707031-7.152344-4.191406-14.902344-4.191406-23 0-35.890625 29.105469-65 65-65 8.097656 0 15.847656 1.488281 22.996094 4.191406zm0 0" fill="#ffce34"/><path d="m370.6875 61h-184.902344l-56.945312 56.398438 55.085937-54.558594v116.460937h-117.585937l51.492187-51-52.746093 52.246094v47.914063h135.570312l34.941406-77.179688h135.089844zm0 0" fill="#f0f0fb"/><path d="m128.839844 57.574219-71.410156 70.726562h71.410156zm0 0" fill="#bfbfcf"/><path d="m364.363281 463.703125c0 12.550781 3.601563 24.285156 9.804688 34.238281 7.035156 2.621094 14.636719 4.058594 22.566406 4.058594 35.800781 0 65-29.203125 65-65 0-12.550781-3.601563-24.285156-9.804687-34.242188-7.035157-2.617187-14.636719-4.054687-22.566407-4.054687-35.800781 0-65 29.199219-65 65zm0 0" fill="#00d8ce"/></g><path d="m374.207031 226.597656h.511719c5.523438 0 10-4.480468 10-10 0-5.523437-4.476562-10-10-10h-.511719c-5.523437 0-10 4.476563-10 10 0 5.519532 4.476563 10 10 10zm0 0"/><path d="m352.964844 216.597656c0-5.523437-4.476563-10-10-10h-64.019532c-5.519531 0-10 4.476563-10 10 0 5.519532 4.480469 10 10 10h64.019532c5.523437 0 10-4.480468 10-10zm0 0"/><path d="m233.710938 71.632812h64.019531c5.523437 0 10-4.476562 10-10 0-5.519531-4.476563-9.996093-10-9.996093h-64.019531c-5.523438 0-10 4.476562-10 9.996093 0 5.523438 4.476562 10 10 10zm0 0"/><path d="m328.972656 71.632812h.507813c5.523437 0 10-4.476562 10-10 0-5.519531-4.476563-9.996093-10-9.996093h-.507813c-5.523437 0-10 4.476562-10 9.996093 0 5.523438 4.476563 10 10 10zm0 0"/><path d="m185.261719 114.402344h145.203125c5.523437 0 10-4.476563 10-10 0-5.519532-4.476563-10-10-10h-145.203125c-5.519531 0-10 4.480468-10 10 0 5.523437 4.480469 10 10 10zm0 0"/><path d="m429.730469 369.667969v-218.386719c0-5.519531-4.476563-10-10-10h-39.042969v-131.28125c0-5.523438-4.480469-10-10-10h-239.988281c-2.636719 0-5.167969 1.039062-7.039063 2.894531l-120.695312 119.546875c-1.898438 1.875-2.964844 4.433594-2.964844 7.101563v268.683593c0 5.523438 4.476562 10 10 10h31.464844v51.773438c0 5.519531 4.476562 10 10 10h277.9375c12.230468 24.851562 37.8125 42 67.332031 42 41.355469 0 75-33.644531 75-75 0-29.519531-17.148437-55.101562-42.003906-67.332031zm-310.890625-333.847657v82.480469h-83.277344zm-98.839844 352.40625v-249.925781h108.839844c5.523437 0 10-4.476562 10-10v-108.300781h221.847656v121.28125h-125.089844c-3.925781 0-7.488281 2.300781-9.109375 5.878906l-32.28125 71.300782h-142.742187c-5.523438 0-10 4.476562-10 10v159.765624zm41.464844 61.773438v-211.539062h139.191406c3.925781 0 7.488281-2.300782 9.109375-5.875l32.28125-71.304688h167.683594v201.871094c-4.226563-.742188-8.5625-1.152344-12.996094-1.152344-41.355469 0-75 33.644531-75 75 0 4.433594.410156 8.773438 1.148437 13zm335.269531 42c-30.328125 0-55-24.671875-55-55s24.671875-55 55-55c30.324219 0 55 24.671875 55 55s-24.671875 55-55 55zm0 0"/><path d="m425.8125 412.652344c-4.21875-3.5625-10.527344-3.027344-14.089844 1.191406l-22.046875 26.113281-9.484375-7.277343c-4.382812-3.363282-10.660156-2.539063-14.023437 1.84375-3.359375 4.382812-2.535157 10.660156 1.847656 14.023437l17.058594 13.089844c1.8125 1.390625 3.953125 2.066406 6.082031 2.066406 2.851562 0 5.675781-1.214844 7.648438-3.550781l28.199218-33.40625c3.5625-4.222656 3.03125-10.53125-1.191406-14.09375zm0 0"/></svg>