<?xml version="1.0" encoding="UTF-8"?>
<svg width="586px" height="516px" viewBox="0 0 586 516" version="1.1" xmlns="http://www.w3.org/2000/svg" xmlns:xlink="http://www.w3.org/1999/xlink">
    <!-- Generator: Sketch 52.2 (67145) - http://www.bohemiancoding.com/sketch -->
    <title>hizli</title>
    <desc>Created with Sketch.</desc>
    <g id="Page-1" stroke="none" stroke-width="1" fill="none" fill-rule="evenodd">
        <g id="hizli">
            <path d="M579.9,287.5 C577.8,279.2 574.9,271.2 571.2,263.5 C565.3,251.4 558.9,239.4 551.5,228.1 C547.2,221.5 542.7,215.1 538.6,208.4 C537.8,206.7 537.1,204.9 536.5,203.1 C536.3,201.3 536.2,199.6 536.1,197.8 C537.6,184.1 541.6,170.9 544.8,157.6 C549.8,136.4 551.6,114.6 546.8,93.2 C543.8,80 539.5,69.8 532.8,57.8 C527.5,48.2 520.3,40.6 512.8,32.7 C497.5,16.8 475.2,6.4 453.7,2.3 C429.1,-2.4 404.3,1 380.5,7.8 C369.8,10.8 359.6,15 349.5,19.5 C345.1,21.5 340.1,21.7 335.4,20.4 C334.8,20.2 334.2,20.1 333.6,19.9 C320.8,16.6 308.7,13.7 295.5,12.4 C278.3,10.7 261.3,12.5 244.3,15.6 C215.6,21 186.7,28.3 159,37.9 C132.7,47 107.1,59.7 83.6,74.5 C72.6,81.5 62.1,89.2 52.1,97.7 C40.9,107.2 29.2,117.5 20.7,129.6 C7.2,148.8 -0.6,171.1 3.2,194.9 C5.6,210.3 11.2,224.5 15.3,239.3 C15.6,241.1 15.8,242.8 15.9,244.6 C15.4,247.7 14.7,250.8 13.9,253.8 C12,259.2 10,264.6 8.2,270.1 C5.8,277.3 3.2,284.6 1.8,292.1 C0.4,299.2 0.2,306.5 0.1,313.7 C-0.2,335.8 9.6,360.1 24.2,376.6 C34.6,388.3 44.3,396.3 57.9,404.3 C67.8,410.1 79,413.6 90,416.7 C104.6,420.7 120.1,419.5 134.8,422.6 C135.4,423.1 136,423.6 136.6,424.2 C140.3,428.8 143.6,433.7 146.9,438.6 C153.3,448 160.3,456.4 168.3,464.6 C176.5,472.9 187,479.5 197.5,484.4 C208.4,489.4 220.4,493 232.2,494.9 C254.1,498.4 277.3,497.9 299.2,494.7 C322.2,491.4 345.4,485.6 367,476.8 C388.5,468 407.9,455.5 428,444.3 C432.2,442.3 436.5,440.5 441,439 C444,438.6 447,438.4 450,438.4 C460,439.1 470,440.1 480.1,440.4 C491.9,440.7 504.2,438.6 515.3,434.5 C525.2,430.9 535.2,425.4 543.2,418.4 C554.8,408.2 562.3,399.1 570.4,385.9 C582,366.9 585.7,344.7 585.7,322.8 C585.6,310.9 582.8,299.1 579.9,287.5 Z" id="Path" fill="#F8F8F8"></path>
            <g id="XMLID_1_" transform="translate(172.000000, 60.000000)">
                <path d="M125.3,94.3 C133.9,102.9 133.9,117.1 125.3,125.7 C116.7,134.3 102.5,134.3 93.9,125.7 L6.7,38.5 C-1.9,29.9 -1.9,15.7 6.7,7.1 C11,2.8 16.7,0.6 22.4,0.6 C28.1,0.6 33.8,2.8 38.1,7.1 L125.3,94.3 Z" id="Path" fill="#FBE3D6"></path>
                <path d="M113.7,128.8 C105.2,133.8 101.2,133 93.9,125.7 L6.7,38.5 C0.7,32.5 -1.1,23.8 1.2,16.2 C1.3,16.2 115.3,127.9 113.7,128.8 Z" id="Path" fill="#E5CCC1"></path>
                <path d="M125.3,125.7 C116.7,134.3 102.5,134.3 93.9,125.7 L6.7,38.5 C-1.9,29.9 -1.9,15.7 6.7,7.1 C11,2.8 16.7,0.6 22.4,0.6 C28.1,0.6 33.8,2.8 38.1,7.1 L125.3,94.3 C133.9,103 133.9,117.1 125.3,125.7 Z" id="Path" stroke="#3D434A" stroke-width="8.1233" stroke-linecap="round" stroke-linejoin="round"></path>
            </g>
            <path d="M453.7,184.8 C460.5,190.1 463.9,199.2 461.5,208 C450.3,245.8 445,282.4 419.4,312.4 C412.5,320.5 406,329.1 401.3,337.3 C374.7,383.9 369.9,448.7 369.8,459.5 L369.8,510.6 L232.5,510.6 C232.5,510.6 237.6,441.7 232.2,375.6 C226.8,310.7 177.9,265.8 177.9,265.8 L359.4,243 L359.4,270.7 L366,262.8 C366,262.8 401.5,260.3 411.6,222.8 L415.2,209.1 L365.8,159.7 C356.7,150.6 357.2,135.2 367.4,126.8 C376.3,119.5 389.4,120.5 397.5,128.6 L453.7,184.8 Z" id="Path" fill="#FBE3D6"></path>
            <path d="M362.1,133.3 L423.2,194.1 C429.9,200.7 432.3,210.6 429.5,219.5 C426.6,228.5 420.8,238.4 408.8,240.9 C410.9,235.6 414.9,206.3 414.9,206.3 L362.2,155.5 C362.1,155.6 358.2,142 362.1,133.3 Z" id="Path" fill="#E5CCC1"></path>
            <path d="M376,125.3 L397,145.9 C400.8,149.7 406.9,149.7 410.8,145.9 C410.8,145.9 388.6,115.3 376,125.3 Z" id="Path" fill="#FFFAF8"></path>
            <path d="M453.7,184.8 L397.6,128.7 C389.5,120.6 376.4,119.6 367.5,126.9 C357.3,135.3 356.7,150.6 365.9,159.8 L415.3,209.2 L411.7,222.9 C401.6,260.4 366.1,262.9 366.1,262.9 L359.5,270.8 L359.5,243.1 L178,265.9 C178,265.9 226.9,310.8 232.3,375.7 C237.8,441.7 232.6,510.7 232.6,510.7 L370,510.7 L370,459.6 C370.1,448.8 374.9,384 401.5,337.4 C406.2,329.2 412.7,320.6 419.6,312.5 C445.2,282.5 450.4,245.9 461.7,208.1 C463.9,199.2 460.5,190.1 453.7,184.8 Z" id="Path" stroke="#3D434A" stroke-width="8.6428" stroke-linecap="round" stroke-linejoin="round"></path>
            <path d="M341.9,270.6 C341.9,321.4 384.8,362.7 296.6,362.7 C245.8,362.7 204.5,321.5 204.5,270.6 C204.5,219.7 245.7,178.5 296.6,178.5 C347.5,178.5 341.9,219.8 341.9,270.6 Z" id="Path" fill="#000000" opacity="0.15"></path>
            <polygon id="Path" stroke="#3D434A" stroke-width="4.61" fill="#AAB0BA" stroke-linecap="round" stroke-linejoin="round" transform="translate(363.928150, 188.846748) rotate(45.001000) translate(-363.928150, -188.846748) " points="355.57815 180.496748 372.27815 180.496748 372.27815 197.196748 355.57815 197.196748"></polygon>
            <polygon id="Path" stroke="#3D434A" stroke-width="4.424" fill="#D5D7DB" stroke-linecap="round" stroke-linejoin="round" transform="translate(373.955050, 178.793808) rotate(45.001000) translate(-373.955050, -178.793808) " points="357.40505 172.993808 390.50505 172.993808 390.50505 184.593808 357.40505 184.593808"></polygon>
            <polygon id="Path" stroke="#3D434A" stroke-width="6.9206" fill="#AAB0BA" stroke-linecap="round" stroke-linejoin="round" points="280.2 145.9 305.3 145.9 305.3 171 280.2 171"></polygon>
            <circle id="Oval" stroke="#3D434A" stroke-width="9.2275" fill="#D5D7DB" stroke-linecap="round" stroke-linejoin="round" cx="292.8" cy="255.8" r="92.1"></circle>
            <polygon id="Path" stroke="#3D434A" stroke-width="6.6149" fill="#D5D7DB" stroke-linecap="round" stroke-linejoin="round" points="260.9 133.3 324.7 133.3 324.7 146.8 260.9 146.8"></polygon>
            <circle id="Oval" fill="#FFFFFF" cx="292.8" cy="255.8" r="73.6"></circle>
            <path d="M300.4,195 L301.3,195.1 C303,195.3 304.2,196.9 304,198.6 L296.3,258.1 C296.1,259.8 294.5,261 292.8,260.8 L291.9,260.7 C290.2,260.5 289,258.9 289.2,257.2 L296.9,197.7 C297.1,196 298.7,194.8 300.4,195 Z" id="Path" fill="#D5D7DB"></path>
            <circle id="Oval" fill="#3D434A" cx="292.8" cy="255.8" r="7.1"></circle>
            <circle id="Oval" fill="#D5D7DB" cx="292.8" cy="199" r="3.6"></circle>
            <circle id="Oval" fill="#D5D7DB" transform="translate(264.374742, 206.613735) rotate(-30.000000) translate(-264.374742, -206.613735) " cx="264.374742" cy="206.613735" r="3.6"></circle>
            <circle id="Oval" fill="#D5D7DB" transform="translate(243.681938, 227.382715) rotate(-60.000000) translate(-243.681938, -227.382715) " cx="243.681938" cy="227.382715" r="3.6"></circle>
            <circle id="Oval" fill="#D5D7DB" cx="236.1" cy="255.8" r="3.6"></circle>
            <circle id="Oval" fill="#D5D7DB" transform="translate(243.683569, 284.078679) rotate(-30.000000) translate(-243.683569, -284.078679) " cx="243.683569" cy="284.078679" r="3.6"></circle>
            <circle id="Oval" fill="#D5D7DB" transform="translate(264.436419, 304.917079) rotate(-60.000000) translate(-264.436419, -304.917079) " cx="264.436419" cy="304.917079" r="3.6"></circle>
            <circle id="Oval" fill="#D5D7DB" cx="292.8" cy="312.5" r="3.6"></circle>
            <circle id="Oval" fill="#D5D7DB" transform="translate(321.112412, 304.906321) rotate(-30.000000) translate(-321.112412, -304.906321) " cx="321.112412" cy="304.906321" r="3.6"></circle>
            <circle id="Oval" fill="#D5D7DB" transform="translate(341.884179, 284.112598) rotate(-60.000000) translate(-341.884179, -284.112598) " cx="341.884179" cy="284.112598" r="3.6"></circle>
            <circle id="Oval" fill="#D5D7DB" cx="349.5" cy="255.8" r="3.6"></circle>
            <circle id="Oval" fill="#D5D7DB" transform="translate(341.889687, 227.391510) rotate(-30.000000) translate(-341.889687, -227.391510) " cx="341.889687" cy="227.39151" r="3.6"></circle>
            <circle id="Oval" fill="#D5D7DB" transform="translate(321.079699, 206.664837) rotate(-60.000000) translate(-321.079699, -206.664837) " cx="321.079699" cy="206.664837" r="3.6"></circle>
            <path d="M292.3,190.8 L293.2,190.8 C294.9,190.8 296.3,192.2 296.3,193.9 L296.3,253.9 C296.3,255.6 294.9,257 293.2,257 L292.3,257 C290.6,257 289.2,255.6 289.2,253.9 L289.2,193.9 C289.2,192.2 290.6,190.8 292.3,190.8 Z" id="Path" fill="#3D434A"></path>
            <path d="M379.7,255.8 C379.7,303.8 340.8,342.7 292.8,342.7 C244.8,342.7 205.9,303.8 205.9,255.8 C205.9,255.8 224.9,287.7 292.8,287.7 C362.2,287.7 379.7,255.8 379.7,255.8 Z" id="Path" fill="#FFFFFF" opacity="0.4"></path>
            <path d="M295.9,255.3 C295.9,257 294.5,258.4 292.8,258.4" id="Path" stroke="#FFFFFF" stroke-width="2.3069" stroke-linecap="round" stroke-linejoin="round"></path>
            <g id="Group" opacity="0.1" transform="translate(155.000000, 140.000000)" fill="#000000">
                <path d="M73.3,164.4 L73,164.7 L73.3,164.4 Z M88.9,118.7 C88.9,118.8 88.8,118.9 88.6,119 C88.8,118.9 88.9,118.8 88.9,118.7 Z M88.5,119.2 L88.1,119.6 C88.2,119.6 88.3,119.4 88.5,119.2 Z" id="Shape" fill-rule="nonzero"></path>
                <path d="M40.5,35.9 C36,31.8 30.2,29.9 24.5,30.2 C18.8,30.5 13.2,32.9 9.1,37.5 C7.2,39.6 5.9,41.9 4.9,44.4 L3.8,43.4 C-0.6,42.3 4.3,42.8 2.1,45.2 C-2.3,50 1.6,60.7 10.6,68.9 L44.6,99.7 C40.1,95.6 35.7,95 30,95.3 C24.3,95.6 18.7,98 14.6,102.6 C12.7,104.7 11.4,107 10.4,109.5 L9.3,108.5 C4.9,107.4 9.8,107.9 7.6,110.3 C3.2,115.1 7.1,125.8 16.1,134 L46.2,161.2 C55.3,169.4 66.2,172.1 70.6,167.3 C71.6,166.2 75.7,161.7 77.6,159.6 C85.8,150.5 85.1,136.4 76,128.2 L61.9,115.4 C71,123.6 81.9,126.3 86.3,121.5 C87,120.7 91.4,115.9 93.3,113.8 C101.5,104.7 100.8,90.6 91.7,82.4 L82.8,74.4 L53.2,47.6 L40.5,35.9 Z M109.9,77.8 C109.9,77.9 109.8,78 109.6,78.1 C109.7,78 109.8,77.8 109.9,77.8 Z M109.4,78.2 L109,78.6 C109.1,78.6 109.3,78.5 109.4,78.2 Z" id="Shape" fill-rule="nonzero"></path>
                <path d="M112.8,41.4 L74.4,6.6 C69.9,2.5 64.1,0.6 58.4,0.9 C52.7,1.2 47.1,3.6 43,8.2 C41.1,10.3 39.8,12.6 38.8,15.1 L37.7,14.1 C33.3,13 38.2,13.5 36,15.9 C31.6,20.7 35.5,31.4 44.5,39.6 L82.9,74.4 C92,82.6 102.9,85.3 107.3,80.5 C108,79.7 108.6,79.1 109,78.7 C109,78.7 112.4,74.9 114.3,72.8 C122.6,63.7 121.9,49.6 112.8,41.4 Z" id="Path"></path>
            </g>
            <path d="M185.4,230.4 L215.5,260.5 C224.1,269.1 224.1,283.3 215.5,291.9 C206.9,300.5 192.7,300.5 184.1,291.9 L155.4,263.2 C146.8,254.6 146.8,240.4 155.4,231.8 C159.7,227.5 165.4,225.3 171.1,225.3 C176.7,225.2 181.1,226 185.4,230.4 Z" id="Path" fill="#FBE3D6"></path>
            <path d="M209.9,297.4 L208.2,299.1 C203.6,303.7 192.8,300.4 184.1,291.8 L155.4,263.1 C146.8,254.5 143.5,243.6 148.1,239 C150.4,236.7 145.5,235.9 149.8,237.3 L209.9,297.4 Z" id="Path" fill="#E5CCC1"></path>
            <path d="M215.5,291.8 C206.9,300.4 192.7,300.4 184.1,291.8 L155.4,263.1 C146.8,254.5 146.8,240.3 155.4,231.7 C159.7,227.4 165.4,225.2 171.1,225.2 C176.8,225.2 182.5,227.4 186.8,231.7 L215.5,260.4 C224.1,269.1 224.1,283.2 215.5,291.8 Z" id="Path" stroke="#3D434A" stroke-width="8.6428" stroke-linecap="round" stroke-linejoin="round"></path>
            <path d="M188,261.9 L185.6,264.3 C181.3,268.6 181.3,275.7 185.6,280.1 L190.6,285.1 C194.9,289.4 202,289.4 206.4,285.1 L208.8,282.7 C213.1,278.4 213.1,271.3 208.8,266.9 L203.8,261.9 C199.4,257.6 192.3,257.6 188,261.9 Z" id="Path" fill="#FFFAF8"></path>
            <path d="M165.9,257.9 L179.1,244.6 M168.6,245 L177.9,235.7" id="Shape" stroke="#E2C7BC" stroke-width="3.4603" stroke-linecap="round" stroke-linejoin="round"></path>
            <path d="M186.8,281.3 L189.4,283.9 C192.3,286.8 196.3,288 200,287.5 L183.1,270.6 C182.7,274.4 183.9,278.4 186.8,281.3 Z" id="Path" fill="#EFE3DF"></path>
            <path d="M205.1,187.2 L233.4,215.5 C242,224.1 242,238.3 233.4,246.9 C224.8,255.5 210.6,255.5 202,246.9 L161.3,206.2 C152.7,197.6 152.7,183.4 161.3,174.8 C165.6,170.5 171.3,168.3 177,168.3 C182.7,168.4 200.7,182.9 205.1,187.2 Z" id="Path" fill="#FBE3D6"></path>
            <path d="M227.8,252.5 L226.1,254.2 C221.5,258.8 210.7,255.5 202,246.9 L161.3,206.2 C152.7,197.6 149.4,186.7 154,182.1 C156.3,179.8 151.4,179 155.7,180.4 L227.8,252.5 Z" id="Path" fill="#E5CCC1"></path>
            <path d="M233.4,246.9 C224.8,255.5 210.6,255.5 202,246.9 L161.3,206.2 C152.7,197.6 152.7,183.4 161.3,174.8 C165.6,170.5 171.3,168.3 177,168.3 C182.7,168.3 188.4,170.5 192.7,174.8 L233.4,215.5 C242,224.2 242,238.3 233.4,246.9 Z" id="Path" stroke="#3D434A" stroke-width="8.6428" stroke-linecap="round" stroke-linejoin="round"></path>
            <path d="M205.9,217 L203.5,219.4 C199.2,223.7 199.2,230.8 203.5,235.2 L208.5,240.2 C212.8,244.5 219.9,244.5 224.3,240.2 L226.7,237.8 C231,233.5 231,226.4 226.7,222 L221.7,217 C217.3,212.7 210.2,212.7 205.9,217 Z" id="Path" fill="#FFFAF8"></path>
            <path d="M183.8,213 L197,199.7 M186.5,200.1 L195.8,190.8" id="Shape" stroke="#E2C7BC" stroke-width="3.4603" stroke-linecap="round" stroke-linejoin="round"></path>
            <path d="M204.7,236.4 L207.3,239 C210.2,241.9 214.2,243.1 217.9,242.6 L201,225.8 C200.6,229.5 201.8,233.5 204.7,236.4 Z" id="Path" fill="#EFE3DF"></path>
            <path d="M219.7,139 L256.4,175.7 C265,184.3 265,198.5 256.4,207.1 C247.8,215.7 233.6,215.7 225,207.1 L188.3,170.4 C179.7,161.8 179.7,147.6 188.3,139 C192.6,134.7 198.3,132.5 204,132.5 C209.7,132.5 215.3,134.7 219.7,139 Z" id="Path" fill="#FBE3D6"></path>
            <path d="M250.7,212.7 L249,214.4 C244.4,219 233.6,215.7 224.9,207.1 L188.2,170.4 C179.6,161.8 176.3,150.9 180.9,146.3 C183.2,144 178.3,143.2 182.6,144.6 L250.7,212.7 Z" id="Path" fill="#E5CCC1"></path>
            <path d="M256.3,207.1 C247.7,215.7 233.5,215.7 224.9,207.1 L188.2,170.4 C179.6,161.8 179.6,147.6 188.2,139 C192.5,134.7 198.2,132.5 203.9,132.5 C209.6,132.5 215.3,134.7 219.6,139 L256.3,175.7 C265,184.3 265,198.4 256.3,207.1 Z" id="Path" stroke="#3D434A" stroke-width="8.6428" stroke-linecap="round" stroke-linejoin="round"></path>
            <path d="M228.8,177.2 L226.4,179.6 C222.1,183.9 222.1,191 226.4,195.4 L231.4,200.4 C235.7,204.7 242.8,204.7 247.2,200.4 L249.6,198 C253.9,193.7 253.9,186.6 249.6,182.2 L244.6,177.2 C240.3,172.8 233.2,172.8 228.8,177.2 Z" id="Path" fill="#FFFAF8"></path>
            <path d="M206.7,173.1 L220,159.9 M209.5,160.2 L218.8,150.9" id="Shape" stroke="#E2C7BC" stroke-width="3.4603" stroke-linecap="round" stroke-linejoin="round"></path>
            <path d="M227.6,196.5 L230.2,199.1 C233.1,202 237.1,203.2 240.8,202.7 L224,185.9 C223.5,189.7 224.7,193.6 227.6,196.5 Z" id="Path" fill="#EFE3DF"></path>
            <path d="M221.9,122 L235.2,108.7 M221.9,111.4 L226.6,106.8 M233.4,123.8 L242.7,114.5" id="Shape" stroke="#E2C7BC" stroke-width="3.4603" stroke-linecap="round" stroke-linejoin="round"></path>
            <path d="M349.5,354.2 C339.4,340 333.2,302.1 350.6,273.5 C363.9,251.6 388.2,238.4 405.6,237.5" id="Path" stroke="#3D434A" stroke-width="8.6428" fill="#FBE3D6" stroke-linecap="round" stroke-linejoin="round"></path>
            <path d="M420.2,240.3 C420.2,240.3 402.1,240.7 395.6,243.1 C389.1,245.4 347.1,283.7 353,325.4 C358.9,367.1 372.5,347.9 372.5,347.9 C372.5,347.9 446.4,257.5 420.2,240.3 Z" id="Path" fill="#FBE3D6"></path>
            <path d="M389.9,268.9 C393,266.6 396.6,264.6 400.6,262.8 M369.2,301.2 C370.5,295.5 372.7,289.6 376,284.1 M368.9,335.9 C368.9,335.9 365,319.3 369.2,301.2 M409.1,166.5 L433.7,190.8" id="Shape" stroke="#FFFFFF" stroke-width="9.2275" stroke-linecap="round" stroke-linejoin="round"></path>
            <path d="M379.7,93.7 L384.8,55.6 M433.7,116.6 L483.1,64.9 M452.2,159.9 L488.3,160.2" id="Shape" stroke="#FFFFFF" stroke-width="9.2275" stroke-linecap="round" stroke-linejoin="round"></path>
            <circle id="Oval" stroke="#E06B6D" stroke-width="6.2751" stroke-linecap="round" stroke-linejoin="round" cx="509.3" cy="119.1" r="8.1"></circle>
            <polygon id="Path" stroke="#21C8A9" stroke-width="6.2751" stroke-linecap="round" stroke-linejoin="round" points="430.6 39.4 432.3 45.9 438.7 47.5 432.3 49.1 430.6 55.6 429 49.1 422.5 47.5 429 45.9"></polygon>
        </g>
    </g>
</svg>