<svg xmlns="http://www.w3.org/2000/svg" height="512pt" version="1.1" viewBox="0 0 512 512.00001" width="512pt">
<g id="surface1">
<path d="M 441.933594 107.726562 C 408.433594 109.933594 381.941406 137.789062 381.941406 171.847656 L 381.941406 193.738281 L 501.921875 193.738281 L 501.921875 171.847656 C 501.921875 137.789062 475.429688 109.933594 441.933594 107.726562 Z M 441.933594 107.726562 " style=" stroke:none;fill-rule:nonzero;fill:rgb(44.705882%,84.705882%,100%);fill-opacity:1;" />
<path d="M 133.980469 107.726562 C 100.480469 109.933594 73.988281 137.789062 73.988281 171.847656 L 73.988281 193.738281 L 193.96875 193.738281 L 193.96875 171.847656 C 193.96875 137.789062 167.476562 109.933594 133.980469 107.726562 Z M 133.980469 107.726562 " style=" stroke:none;fill-rule:nonzero;fill:rgb(100%,36.470588%,36.470588%);fill-opacity:1;" />
<path d="M 441.933594 415.992188 C 408.433594 418.199219 381.941406 446.054688 381.941406 480.113281 L 381.941406 502.003906 L 501.921875 502.003906 L 501.921875 480.113281 C 501.921875 446.054688 475.429688 418.199219 441.933594 415.992188 Z M 441.933594 415.992188 " style=" stroke:none;fill-rule:nonzero;fill:rgb(100%,36.470588%,36.470588%);fill-opacity:1;" />
<path d="M 133.980469 415.992188 C 100.480469 418.199219 73.988281 446.054688 73.988281 480.113281 L 73.988281 502.003906 L 193.96875 502.003906 L 193.96875 480.113281 C 193.96875 446.054688 167.476562 418.199219 133.980469 415.992188 Z M 133.980469 415.992188 " style=" stroke:none;fill-rule:nonzero;fill:rgb(44.705882%,84.705882%,100%);fill-opacity:1;" />
<path d="M 426.265625 13.328125 C 411.402344 19.679688 400.984375 34.425781 400.984375 51.609375 L 400.984375 65.953125 C 400.984375 83.140625 411.402344 97.886719 426.265625 104.238281 C 441.132812 97.886719 451.550781 83.140625 451.550781 65.953125 L 451.550781 51.609375 C 451.550781 34.425781 441.132812 19.679688 426.265625 13.328125 Z M 426.265625 13.328125 " style=" stroke:none;fill-rule:nonzero;fill:rgb(98.823529%,77.647059%,61.568627%);fill-opacity:1;" />
<path d="M 118.316406 13.328125 C 103.449219 19.679688 93.03125 34.425781 93.03125 51.609375 L 93.03125 65.953125 C 93.03125 83.140625 103.449219 97.886719 118.316406 104.238281 C 133.179688 97.886719 143.597656 83.140625 143.597656 65.953125 L 143.597656 51.609375 C 143.597656 34.425781 133.179688 19.679688 118.316406 13.328125 Z M 118.316406 13.328125 " style=" stroke:none;fill-rule:nonzero;fill:rgb(98.823529%,77.647059%,61.568627%);fill-opacity:1;" />
<path d="M 426.265625 321.59375 C 411.402344 327.941406 400.984375 342.691406 400.984375 359.875 L 400.984375 374.21875 C 400.984375 391.402344 411.402344 406.152344 426.265625 412.5 C 441.132812 406.152344 451.550781 391.402344 451.550781 374.21875 L 451.550781 359.875 C 451.550781 342.691406 441.132812 327.941406 426.265625 321.59375 Z M 426.265625 321.59375 " style=" stroke:none;fill-rule:nonzero;fill:rgb(98.823529%,77.647059%,61.568627%);fill-opacity:1;" />
<path d="M 118.316406 321.59375 C 103.449219 327.941406 93.03125 342.691406 93.03125 359.875 L 93.03125 374.21875 C 93.03125 391.402344 103.449219 406.152344 118.316406 412.5 C 133.179688 406.152344 143.597656 391.402344 143.597656 374.21875 L 143.597656 359.875 C 143.597656 342.691406 133.179688 327.941406 118.316406 321.59375 Z M 118.316406 321.59375 " style=" stroke:none;fill-rule:nonzero;fill:rgb(98.823529%,77.647059%,61.568627%);fill-opacity:1;" />
<path d="M 449.878906 98.59375 C 457.167969 89.695312 461.546875 78.328125 461.546875 65.953125 L 461.546875 51.609375 C 461.546875 23.152344 438.394531 0 409.9375 0 C 381.480469 0 358.324219 23.152344 358.324219 51.609375 L 358.324219 65.953125 C 358.324219 78.328125 362.703125 89.695312 369.992188 98.597656 C 334.839844 104.449219 307.953125 135.0625 307.953125 171.847656 L 307.953125 193.738281 C 307.953125 199.261719 312.429688 203.738281 317.949219 203.738281 L 501.921875 203.738281 C 507.445312 203.738281 511.921875 199.261719 511.921875 193.738281 L 511.921875 171.847656 C 511.921875 135.058594 485.03125 104.449219 449.878906 98.59375 Z M 378.320312 51.609375 C 378.320312 34.179688 392.503906 19.996094 409.9375 19.996094 C 427.371094 19.996094 441.550781 34.179688 441.550781 51.609375 L 441.550781 65.953125 C 441.550781 83.386719 427.367188 97.570312 409.9375 97.570312 C 392.503906 97.570312 378.320312 83.386719 378.320312 65.953125 Z M 491.925781 183.738281 L 327.949219 183.738281 L 327.949219 171.847656 C 327.949219 141.917969 352.300781 117.566406 382.230469 117.566406 L 437.640625 117.566406 C 467.574219 117.566406 491.925781 141.917969 491.925781 171.847656 Z M 491.925781 183.738281 " style=" stroke:none;fill-rule:nonzero;fill:rgb(0%,0%,0%);fill-opacity:1;" />
<path d="M 257.960938 85.15625 L 309.953125 85.15625 C 315.472656 85.15625 319.949219 80.679688 319.949219 75.15625 C 319.949219 69.632812 315.472656 65.15625 309.953125 65.15625 L 257.960938 65.15625 C 252.4375 65.15625 247.960938 69.632812 247.960938 75.15625 C 247.960938 80.679688 252.4375 85.15625 257.960938 85.15625 Z M 257.960938 85.15625 " style=" stroke:none;fill-rule:nonzero;fill:rgb(0%,0%,0%);fill-opacity:1;" />
<path d="M 223.964844 75.15625 C 223.964844 72.527344 222.894531 69.949219 221.035156 68.089844 C 219.175781 66.230469 216.597656 65.160156 213.96875 65.160156 C 211.335938 65.160156 208.757812 66.230469 206.898438 68.089844 C 205.039062 69.949219 203.96875 72.527344 203.96875 75.15625 C 203.96875 77.785156 205.039062 80.367188 206.898438 82.226562 C 208.757812 84.085938 211.335938 85.15625 213.96875 85.15625 C 216.597656 85.15625 219.175781 84.085938 221.035156 82.226562 C 222.894531 80.367188 223.964844 77.785156 223.964844 75.15625 Z M 223.964844 75.15625 " style=" stroke:none;fill-rule:nonzero;fill:rgb(0%,0%,0%);fill-opacity:1;" />
<path d="M 282.289062 427.019531 L 229.628906 427.019531 C 224.109375 427.019531 219.632812 431.496094 219.632812 437.019531 C 219.632812 442.539062 224.109375 447.015625 229.628906 447.015625 L 282.289062 447.015625 C 287.8125 447.015625 292.289062 442.539062 292.289062 437.019531 C 292.289062 431.496094 287.8125 427.019531 282.289062 427.019531 Z M 282.289062 427.019531 " style=" stroke:none;fill-rule:nonzero;fill:rgb(0%,0%,0%);fill-opacity:1;" />
<path d="M 75.03125 291.746094 C 80.550781 291.746094 85.027344 287.273438 85.027344 281.75 L 85.027344 229.757812 C 85.027344 224.234375 80.550781 219.757812 75.03125 219.757812 C 69.507812 219.757812 65.03125 224.234375 65.03125 229.757812 L 65.03125 281.75 C 65.03125 287.273438 69.507812 291.746094 75.03125 291.746094 Z M 75.03125 291.746094 " style=" stroke:none;fill-rule:nonzero;fill:rgb(0%,0%,0%);fill-opacity:1;" />
<path d="M 447.015625 281.75 L 447.015625 229.757812 C 447.015625 224.234375 442.539062 219.757812 437.015625 219.757812 C 431.496094 219.757812 427.019531 224.234375 427.019531 229.757812 L 427.019531 281.75 C 427.019531 287.273438 431.496094 291.746094 437.015625 291.746094 C 442.539062 291.746094 447.015625 287.273438 447.015625 281.75 Z M 447.015625 281.75 " style=" stroke:none;fill-rule:nonzero;fill:rgb(0%,0%,0%);fill-opacity:1;" />
<path d="M 141.929688 98.59375 C 149.214844 89.695312 153.59375 78.328125 153.59375 65.953125 L 153.59375 51.609375 C 153.59375 23.152344 130.441406 0 101.984375 0 C 73.527344 0 50.371094 23.152344 50.371094 51.609375 L 50.371094 65.953125 C 50.371094 78.328125 54.753906 89.695312 62.039062 98.597656 C 26.886719 104.449219 0 135.058594 0 171.847656 L 0 193.738281 C 0 199.257812 4.476562 203.734375 10 203.734375 L 193.96875 203.734375 C 199.492188 203.734375 203.96875 199.257812 203.96875 193.738281 L 203.96875 171.847656 C 203.96875 135.058594 177.082031 104.449219 141.929688 98.59375 Z M 70.371094 51.609375 C 70.371094 34.179688 84.550781 19.996094 101.984375 19.996094 C 119.417969 19.996094 133.597656 34.179688 133.597656 51.609375 L 133.597656 65.953125 C 133.597656 83.386719 119.417969 97.570312 101.984375 97.570312 C 84.550781 97.570312 70.371094 83.386719 70.371094 65.953125 Z M 183.972656 183.738281 L 19.996094 183.738281 L 19.996094 171.847656 C 19.996094 141.917969 44.347656 117.566406 74.28125 117.566406 L 129.6875 117.566406 C 159.621094 117.566406 183.972656 141.917969 183.972656 171.847656 Z M 183.972656 183.738281 " style=" stroke:none;fill-rule:nonzero;fill:rgb(0%,0%,0%);fill-opacity:1;" />
<path d="M 449.878906 406.859375 C 457.167969 397.957031 461.546875 386.59375 461.546875 374.21875 L 461.546875 359.875 C 461.546875 331.417969 438.394531 308.265625 409.9375 308.265625 C 381.476562 308.265625 358.324219 331.417969 358.324219 359.875 L 358.324219 374.21875 C 358.324219 386.59375 362.703125 397.957031 369.992188 406.859375 C 334.839844 412.714844 307.953125 443.324219 307.953125 480.113281 L 307.953125 502 C 307.953125 507.523438 312.429688 512 317.949219 512 L 501.921875 512 C 507.445312 512 511.921875 507.523438 511.921875 502 L 511.921875 480.113281 C 511.921875 443.324219 485.03125 412.714844 449.878906 406.859375 Z M 378.320312 359.875 C 378.320312 342.445312 392.503906 328.261719 409.9375 328.261719 C 427.367188 328.261719 441.550781 342.445312 441.550781 359.875 L 441.550781 374.21875 C 441.550781 391.652344 427.367188 405.835938 409.9375 405.835938 C 392.503906 405.835938 378.320312 391.652344 378.320312 374.21875 Z M 491.925781 492.003906 L 327.949219 492.003906 L 327.949219 480.113281 C 327.949219 450.179688 352.300781 425.832031 382.230469 425.832031 L 437.640625 425.832031 C 467.574219 425.832031 491.925781 450.179688 491.925781 480.113281 Z M 491.925781 492.003906 " style=" stroke:none;fill-rule:nonzero;fill:rgb(0%,0%,0%);fill-opacity:1;" />
<path d="M 141.929688 406.859375 C 149.214844 397.957031 153.59375 386.59375 153.59375 374.21875 L 153.59375 359.875 C 153.59375 331.417969 130.441406 308.265625 101.984375 308.265625 C 73.523438 308.265625 50.371094 331.417969 50.371094 359.875 L 50.371094 374.21875 C 50.371094 386.59375 54.753906 397.960938 62.039062 406.859375 C 26.886719 412.714844 0 443.324219 0 480.113281 L 0 502 C 0 507.523438 4.476562 512 10 512 L 193.96875 512 C 199.492188 512 203.96875 507.523438 203.96875 502 L 203.96875 480.113281 C 203.96875 443.324219 177.082031 412.714844 141.929688 406.859375 Z M 70.371094 359.875 C 70.371094 342.445312 84.550781 328.261719 101.984375 328.261719 C 119.414062 328.261719 133.597656 342.445312 133.597656 359.875 L 133.597656 374.21875 C 133.597656 391.652344 119.414062 405.835938 101.984375 405.835938 C 84.550781 405.835938 70.371094 391.652344 70.371094 374.21875 Z M 183.972656 492.003906 L 19.996094 492.003906 L 19.996094 480.113281 C 19.996094 450.179688 44.347656 425.832031 74.28125 425.832031 L 129.6875 425.832031 C 159.621094 425.832031 183.972656 450.179688 183.972656 480.113281 Z M 183.972656 492.003906 " style=" stroke:none;fill-rule:nonzero;fill:rgb(0%,0%,0%);fill-opacity:1;" />
</g>
</svg>