<?xml version="1.0" encoding="iso-8859-1"?>
<!-- Generator: Adobe Illustrator 19.0.0, SVG Export Plug-In . SVG Version: 6.00 Build 0)  -->
<svg version="1.1" id="Capa_1" xmlns="http://www.w3.org/2000/svg" xmlns:xlink="http://www.w3.org/1999/xlink" x="0px" y="0px"
	 viewBox="0 0 512.001 512.001" style="enable-background:new 0 0 512.001 512.001;" xml:space="preserve">
<path style="fill:#93CA66;" d="M491.195,212.161h-50.4c-4.825-19.96-12.761-38.703-23.27-55.69l35.781-35.781
	c4.219-4.22,4.219-11.061,0-15.28L406.59,58.693c-4.219-4.22-11.061-4.22-15.28,0L355.673,94.33
	c-17.013-10.637-35.806-18.685-55.834-23.598V20.805c0-5.967-4.837-10.805-10.805-10.805h-66.068
	c-5.967,0-10.805,4.837-10.805,10.805v48.931c-20.588,4.552-39.938,12.396-57.464,22.965L120.69,58.693
	c-4.219-4.22-11.061-4.22-15.28,0L58.693,105.41c-4.219,4.219-4.219,11.061,0,15.28l33.152,33.152
	c-11.331,17.673-19.836,37.326-24.911,58.319h-46.13c-5.967,0-10.805,4.837-10.805,10.805v66.068
	c0,5.967,4.837,10.805,10.805,10.805h45.422c4.806,21.395,13.178,41.438,24.458,59.479L58.693,391.31
	c-4.219,4.219-4.219,11.061,0,15.28l46.717,46.717c4.219,4.219,11.061,4.219,15.28,0l32.137-32.137
	c18.017,11.147,38.009,19.399,59.334,24.114v45.912c0,5.967,4.837,10.805,10.805,10.805h66.068c5.967,0,10.805-4.837,10.805-10.805
	v-46.908c20.757-5.092,40.196-13.54,57.693-24.759l33.778,33.778c4.219,4.219,11.061,4.219,15.28,0l54.357-54.357l-42.273-42.273
	c10.461-17.348,18.256-36.483,22.829-56.838h49.693c5.967,0,10.805-4.837,10.805-10.805v-66.068
	C502,216.999,497.163,212.161,491.195,212.161z M256,389.667c-73.822,0-133.667-59.844-133.667-133.667S182.178,122.333,256,122.333
	S389.667,182.178,389.667,256S329.822,389.667,256,389.667z"/>
<g>
	<path style="fill:#4CC1EB;" d="M347,212.451L347,212.451c0-0.866-0.088-1.712-0.255-2.529C346.912,210.74,347,211.585,347,212.451z
		"/>
	<path style="fill:#4CC1EB;" d="M165,212.451L165,212.451c0-0.866,0.088-1.712,0.255-2.529C165.088,210.74,165,211.585,165,212.451z
		"/>
	<path style="fill:#4CC1EB;" d="M168.675,203.579c0.851-0.851,1.825-1.581,2.891-2.161
		C170.5,201.998,169.526,202.728,168.675,203.579z"/>
	<path style="fill:#4CC1EB;" d="M340.434,201.418c1.067,0.58,2.04,1.309,2.891,2.161C342.474,202.728,341.5,201.998,340.434,201.418
		z"/>
	<path style="fill:#4CC1EB;" d="M168.675,203.579c0.851-0.851,1.825-1.581,2.891-2.161
		C170.5,201.998,169.526,202.728,168.675,203.579z"/>
	<path style="fill:#4CC1EB;" d="M340.434,201.418c1.067,0.58,2.04,1.309,2.891,2.161C342.474,202.728,341.5,201.998,340.434,201.418
		z"/>
	<path style="fill:#4CC1EB;" d="M165,212.451L165,212.451c0-0.866,0.088-1.712,0.255-2.529C165.088,210.74,165,211.585,165,212.451z
		"/>
	<path style="fill:#4CC1EB;" d="M346.745,209.923c0.167,0.817,0.255,1.663,0.255,2.529l0,0
		C347,211.585,346.912,210.74,346.745,209.923z"/>
</g>
<path style="fill:#238FB4;" d="M165,212.451l77.953,44.966c8.074,4.658,18.019,4.658,26.094,0L347,212.451
	c0-6.93-5.618-12.547-12.547-12.547H177.547C170.618,199.904,165,205.522,165,212.451z"/>
<path style="fill:#4CC1EB;" d="M242.953,257.417L165,212.451v87.097c0,6.93,5.618,12.547,12.547,12.547h156.906
	c6.93,0,12.547-5.617,12.547-12.547v-87.097l-77.953,44.966C260.973,262.074,251.027,262.074,242.953,257.417z"/>
<path d="M377.16,198.591c-5.152,1.987-7.719,7.775-5.731,12.929c5.467,14.175,8.238,29.14,8.238,44.48
	c0,68.19-55.477,123.667-123.667,123.667S132.333,324.19,132.333,256S187.81,132.333,256,132.333
	c23.862,0,47.021,6.807,66.972,19.685c4.642,2.998,10.831,1.662,13.824-2.979c2.995-4.64,1.662-10.829-2.979-13.824
	c-23.19-14.97-50.1-22.882-77.817-22.882c-79.219,0-143.667,64.448-143.667,143.667S176.781,399.667,256,399.667
	S399.667,335.219,399.667,256c0-17.811-3.223-35.197-9.578-51.678C388.102,199.169,382.316,196.604,377.16,198.591z"/>
<path d="M491.195,202.161h-42.689c-4.364-15.383-10.538-30.161-18.424-44.104l30.296-30.296c8.111-8.112,8.111-21.311,0-29.423
	l-46.717-46.717c-8.11-8.11-21.311-8.112-29.423,0l-30.125,30.125c-13.985-7.996-28.821-14.262-44.274-18.7V20.805
	C309.839,9.333,300.506,0,289.034,0h-66.068c-11.472,0-20.805,9.333-20.805,20.805V61.87c-15.979,4.208-31.333,10.353-45.815,18.337
	l-28.584-28.585c-8.112-8.112-21.313-8.11-29.423,0L51.622,98.339c-8.111,8.112-8.111,21.311,0,29.423l27.577,27.577
	c-8.629,14.719-15.323,30.41-19.977,46.822H20.805C9.333,202.161,0,211.494,0,222.966v66.068c0,11.472,9.333,20.805,20.805,20.805
	h37.583c4.475,16.765,11.082,32.824,19.715,47.92l-26.48,26.479c-8.111,8.112-8.111,21.311,0,29.423l46.717,46.717
	c8.11,8.11,21.311,8.112,29.423,0l26.65-26.651c15.051,8.516,31.055,15.025,47.749,19.422v38.047
	c0,11.472,9.333,20.805,20.805,20.805h66.068c11.472,0,20.805-9.333,20.805-20.805v-39.223c16.186-4.646,31.667-11.28,46.196-19.798
	l28.203,28.203c8.112,8.112,21.313,8.11,29.423,0l54.357-54.357c1.875-1.876,2.929-4.419,2.929-7.071s-1.054-5.195-2.929-7.071
	l-36.852-36.85c7.881-14.295,13.971-29.437,18.175-45.189h41.854c11.472,0,20.805-9.333,20.805-20.805v-66.068
	C512,211.494,502.667,202.161,491.195,202.161z M492,289.034c0,0.443-0.361,0.805-0.805,0.805h-49.692
	c-4.679,0-8.731,3.244-9.757,7.809c-4.272,19.021-11.552,37.144-21.636,53.865c-2.374,3.937-1.758,8.984,1.492,12.235l35.202,35.201
	l-47.286,47.286c-0.313,0.315-0.826,0.313-1.138,0l-33.778-33.778c-3.324-3.322-8.513-3.886-12.469-1.347
	c-16.85,10.803-35.245,18.698-54.678,23.465c-4.472,1.097-7.617,5.106-7.617,9.712v46.908c0,0.443-0.361,0.805-0.805,0.805h-66.068
	c-0.443,0-0.805-0.361-0.805-0.805v-45.912c0-4.691-3.261-8.752-7.841-9.765c-19.922-4.404-38.841-12.093-56.231-22.853
	c-1.626-1.006-3.448-1.496-5.259-1.496c-2.584,0-5.145,1-7.074,2.929l-32.137,32.137c-0.312,0.313-0.824,0.315-1.138,0
	l-46.717-46.717c-0.314-0.313-0.314-0.824,0-1.138l31.992-31.992c3.293-3.293,3.877-8.424,1.407-12.373
	c-10.892-17.421-18.691-36.386-23.181-56.369c-1.025-4.564-5.078-7.808-9.757-7.808H20.805c-0.443,0-0.805-0.361-0.805-0.805
	v-66.068c0-0.443,0.361-0.805,0.805-0.805h46.13c4.617,0,8.635-3.162,9.72-7.65c4.751-19.65,12.694-38.246,23.609-55.271
	c2.537-3.956,1.977-9.146-1.347-12.469l-33.152-33.152c-0.314-0.313-0.314-0.824,0-1.138l46.717-46.717
	c0.313-0.315,0.826-0.313,1.138,0l34.007,34.007c3.251,3.25,8.298,3.866,12.235,1.492c16.894-10.188,35.216-17.51,54.459-21.764
	c4.58-1.013,7.841-5.073,7.841-9.765V20.805c0-0.443,0.361-0.805,0.805-0.805h66.068c0.443,0,0.805,0.361,0.805,0.805v49.927
	c0,4.605,3.146,8.615,7.617,9.712c18.72,4.592,36.523,12.117,52.915,22.366c3.95,2.467,9.08,1.886,12.373-1.408l35.637-35.637
	c0.312-0.313,0.824-0.315,1.138,0l46.717,46.717c0.314,0.313,0.314,0.824,0,1.138l-35.783,35.78
	c-3.28,3.281-3.874,8.387-1.433,12.332c10.123,16.365,17.543,34.122,22.054,52.778c1.085,4.488,5.102,7.65,9.72,7.65h50.4
	c0.443,0,0.805,0.361,0.805,0.805V289.034z"/>
<path d="M351.569,175.75c0.25,0.6,0.561,1.18,0.921,1.72c0.369,0.55,0.779,1.061,1.25,1.521c0.46,0.46,0.97,0.88,1.52,1.25
	c0.54,0.359,1.12,0.659,1.72,0.909c0.61,0.25,1.24,0.45,1.87,0.58c0.65,0.12,1.311,0.19,1.96,0.19c0.65,0,1.311-0.07,1.95-0.19
	c0.64-0.13,1.271-0.33,1.87-0.58s1.189-0.55,1.729-0.909c0.551-0.37,1.061-0.79,1.521-1.25s0.88-0.971,1.24-1.521
	c0.359-0.54,0.67-1.12,0.92-1.72c0.25-0.61,0.439-1.24,0.569-1.87c0.131-0.65,0.2-1.311,0.2-1.96c0-0.65-0.069-1.311-0.2-1.95
	c-0.13-0.64-0.319-1.27-0.569-1.87c-0.25-0.609-0.561-1.189-0.92-1.729c-0.36-0.551-0.78-1.061-1.24-1.521s-0.97-0.88-1.521-1.24
	c-0.54-0.359-1.13-0.67-1.729-0.92s-1.23-0.439-1.87-0.569c-1.29-0.261-2.62-0.261-3.91,0c-0.63,0.13-1.26,0.319-1.87,0.569
	c-0.6,0.25-1.18,0.561-1.72,0.92c-0.55,0.36-1.06,0.78-1.52,1.24c-0.471,0.46-0.881,0.97-1.25,1.521
	c-0.36,0.54-0.671,1.12-0.921,1.729c-0.25,0.601-0.439,1.23-0.569,1.87s-0.19,1.3-0.19,1.95c0,0.649,0.061,1.31,0.19,1.96
	C351.13,174.51,351.319,175.14,351.569,175.75z"/>
<path d="M177.547,189.904c-12.433,0-22.547,10.114-22.547,22.547v87.098c0,12.433,10.114,22.547,22.547,22.547h156.906
	c12.433,0,22.547-10.114,22.547-22.547v-87.098c0-12.433-10.114-22.547-22.547-22.547L177.547,189.904L177.547,189.904z
	 M331.401,209.904l-67.351,38.851c-4.966,2.863-11.135,2.864-16.101,0l-67.352-38.851H331.401z M175,282.236v-52.472L220.483,256
	L175,282.236z M180.599,302.096l60.04-34.634c4.853,2.278,10.104,3.432,15.361,3.432s10.51-1.154,15.364-3.433
	c-0.001,0.001-0.002,0.001-0.003,0.002l60.041,34.633H180.599z M337,282.236L291.517,256L337,229.764V282.236z"/>
<g>
</g>
<g>
</g>
<g>
</g>
<g>
</g>
<g>
</g>
<g>
</g>
<g>
</g>
<g>
</g>
<g>
</g>
<g>
</g>
<g>
</g>
<g>
</g>
<g>
</g>
<g>
</g>
<g>
</g>
</svg>
