<?xml version="1.0" encoding="iso-8859-1"?>
<!-- Generator: Adobe Illustrator 19.0.0, SVG Export Plug-In . SVG Version: 6.00 Build 0)  -->
<svg version="1.1" id="Capa_1" xmlns="http://www.w3.org/2000/svg" xmlns:xlink="http://www.w3.org/1999/xlink" x="0px" y="0px"
	 viewBox="0 0 512 512" style="enable-background:new 0 0 512 512;" xml:space="preserve">
<g>
	<path style="fill:#4CC1EB;" d="M382.23,170.129c0.504,0.294,1.002,0.599,1.484,0.925
		C383.232,170.728,382.735,170.423,382.23,170.129z"/>
	<path style="fill:#4CC1EB;" d="M392.422,180.81c0.33,0.632,0.641,1.274,0.92,1.935C393.063,182.084,392.752,181.441,392.422,180.81
		z"/>
	<path style="fill:#4CC1EB;" d="M388.527,175.221c0.572,0.629,1.114,1.286,1.624,1.968
		C389.641,176.507,389.099,175.85,388.527,175.221z"/>
	<path style="fill:#4CC1EB;" d="M36.572,404.109h293.086l3.685-21.485l-39.834-38.829c-9.103-8.873-4.08-24.332,8.5-26.16
		l55.05-7.999l24.619-49.884c2.813-5.7,8.283-8.549,13.753-8.549v-58.116l-108.429,62.545l0,0l-53.819,31.044
		c-18.855,10.876-42.079,10.876-60.934,0l-47.41-27.347l-49.676-28.655l0,0L10,193.087v184.45
		C10,392.212,21.897,404.109,36.572,404.109z"/>
	<path style="fill:#4CC1EB;" d="M390.151,177.189c0.672,0.899,1.282,1.845,1.838,2.826
		C391.434,179.034,390.823,178.087,390.151,177.189z"/>
	<path style="fill:#4CC1EB;" d="M383.715,171.053c0.707,0.477,1.389,0.988,2.046,1.53
		C385.104,172.041,384.422,171.531,383.715,171.053z"/>
	<path style="fill:#4CC1EB;" d="M376.76,167.71c1.248,0.388,2.457,0.866,3.618,1.426C379.217,168.576,378.008,168.098,376.76,167.71
		z"/>
	<path style="fill:#4CC1EB;" d="M372.905,166.822c0.88,0.134,1.745,0.312,2.594,0.53
		C374.65,167.134,373.785,166.956,372.905,166.822z"/>
</g>
<path style="fill:#F8C55A;" d="M381.677,259.753l-24.619,49.884l-55.05,7.999c-12.58,1.828-17.602,17.287-8.5,26.16l39.834,38.829
	l-3.685,21.485l-5.719,33.343c-2.149,12.529,11.001,22.083,22.253,16.168l49.238-25.886l49.238,25.886
	c11.251,5.915,24.402-3.639,22.253-16.168l-9.404-54.827l39.834-38.829c9.103-8.873,4.08-24.332-8.5-26.16l-55.05-7.999
	l-24.619-49.884c-2.813-5.7-8.283-8.549-13.753-8.549C389.96,251.203,384.49,254.053,381.677,259.753z"/>
<g>
	<path style="fill:#238FB4;" d="M395.43,193.087c0-2.293-0.291-4.518-0.837-6.641c-0.218-0.849-0.478-1.682-0.776-2.496
		c-0.149-0.407-0.308-0.809-0.476-1.207c-0.279-0.66-0.59-1.303-0.92-1.935c-0.14-0.268-0.284-0.532-0.432-0.794
		c-0.556-0.981-1.166-1.928-1.838-2.826c-0.51-0.682-1.052-1.339-1.624-1.968c-0.858-0.944-1.783-1.826-2.767-2.638
		c-0.656-0.542-1.339-1.052-2.046-1.53c-0.482-0.326-0.98-0.63-1.484-0.925c-0.604-0.353-1.219-0.688-1.852-0.993
		c-1.162-0.56-2.37-1.037-3.618-1.426c-0.416-0.129-0.836-0.249-1.261-0.358c-0.849-0.218-1.714-0.396-2.594-0.53
		c-1.32-0.202-2.671-0.306-4.047-0.306h-81.857v89.117L395.43,193.087z"/>
	<path style="fill:#238FB4;" d="M75.162,166.515h-38.59c-4.127,0-8.035,0.941-11.52,2.62c-0.774,0.373-1.528,0.783-2.258,1.227
		c-1.096,0.666-2.139,1.408-3.124,2.221c-2.953,2.437-5.37,5.499-7.049,8.984c-0.373,0.775-0.71,1.57-1.008,2.384
		s-0.557,1.646-0.776,2.496C10.291,188.57,10,190.795,10,193.088l65.162,37.587V166.515z"/>
</g>
<path style="fill:#ABB0B7;" d="M75.162,230.675l49.676,28.655l-6.409-3.697V129.124c0-11.066,8.971-20.037,20.037-20.037h95.546
	V79.269c0-12.525-10.154-22.679-22.679-22.679H97.841c-12.525,0-22.679,10.154-22.679,22.679v87.247V230.675L75.162,230.675z"/>
<path style="fill:#E5EAED;" d="M118.429,129.124v126.508l6.409,3.697l47.41,27.347c18.855,10.876,42.079,10.876,60.934,0
	l53.819-31.044l0,0v-89.117v-37.391c0-11.066-8.971-20.037-20.037-20.037h-32.952h-95.546
	C127.4,109.087,118.429,118.058,118.429,129.124z"/>
<path d="M36.572,414.109h281.224l-3.714,21.652c-1.643,9.575,2.22,19.07,10.079,24.78c4.441,3.228,9.637,4.867,14.869,4.867
	c4.026,0,8.075-0.971,11.814-2.938l44.584-23.439l44.585,23.44c8.599,4.519,18.823,3.781,26.683-1.929
	c7.859-5.71,11.722-15.206,10.08-24.781l-8.515-49.646l36.069-35.159c6.956-6.781,9.413-16.733,6.411-25.973
	s-10.839-15.847-20.454-17.244l-49.847-7.243l-22.292-45.169c-2.741-5.554-7.277-9.759-12.721-12.083v-50.157
	c0-20.166-16.406-36.572-36.571-36.572h-71.857v-27.392c0-16.562-13.475-30.037-30.037-30.037H244.01V79.269
	c0-18.019-14.659-32.678-32.679-32.678H97.841c-18.02,0-32.679,14.659-32.679,32.678v77.247h-28.59
	C16.406,156.516,0,172.922,0,193.087v184.45C0,397.703,16.406,414.109,36.572,414.109z M321.227,394.109H36.572
	c-0.522,0-1.037-0.031-1.547-0.078c-0.16-0.015-0.318-0.039-0.477-0.058c-0.353-0.043-0.704-0.095-1.05-0.161
	c-0.173-0.033-0.344-0.068-0.515-0.105c-0.345-0.077-0.685-0.166-1.021-0.263c-0.146-0.042-0.294-0.081-0.439-0.127
	c-0.472-0.151-0.937-0.318-1.389-0.51c-0.018-0.007-0.034-0.017-0.052-0.024c-0.435-0.186-0.858-0.393-1.272-0.614
	c-0.136-0.073-0.268-0.152-0.402-0.228c-0.296-0.168-0.587-0.344-0.871-0.53c-0.142-0.093-0.282-0.187-0.421-0.284
	c-0.282-0.197-0.556-0.404-0.825-0.617c-0.115-0.092-0.233-0.179-0.346-0.274c-0.371-0.311-0.732-0.634-1.074-0.976
	c-0.028-0.027-0.052-0.058-0.08-0.085c-0.313-0.317-0.613-0.648-0.9-0.99c-0.1-0.119-0.195-0.244-0.292-0.366
	c-0.208-0.263-0.41-0.531-0.603-0.806c-0.098-0.14-0.195-0.281-0.288-0.425c-0.188-0.287-0.365-0.581-0.535-0.879
	c-0.074-0.13-0.152-0.257-0.223-0.389c-0.229-0.429-0.443-0.866-0.635-1.316c-0.024-0.056-0.042-0.115-0.066-0.172
	c-0.138-0.334-0.259-0.677-0.375-1.022l149.084-85.996c1.18,0.613,2.37,1.199,3.576,1.742c9.253,4.165,19.217,6.248,29.18,6.248l0,0
	l0,0c7.672,0,15.34-1.253,22.687-3.723c1.461-0.491,2.913-1.012,4.346-1.601c1.939-0.797,3.847-1.69,5.723-2.666l45.392,26.183
	c-0.271,0.649-0.526,1.309-0.746,1.987c-3.002,9.239-0.545,19.191,6.411,25.972l36.069,35.16L321.227,394.109z M424.834,314.062
	c1.457,2.951,4.272,4.997,7.53,5.47l55.049,7.999c2.964,0.431,4.001,2.684,4.309,3.632c0.309,0.949,0.794,3.38-1.351,5.471
	l-39.834,38.829c-2.356,2.297-3.432,5.607-2.876,8.851l9.403,54.828c0.507,2.951-1.315,4.633-2.123,5.219
	c-0.807,0.586-2.968,1.801-5.62,0.407l-49.238-25.887c-1.456-0.766-3.055-1.148-4.653-1.148s-3.197,0.383-4.653,1.149
	l-49.237,25.886c-2.652,1.395-4.814,0.18-5.621-0.406s-2.629-2.269-2.122-5.219l4.293-25.033l3.43-20l1.68-9.794
	c0.556-3.244-0.52-6.554-2.876-8.851l-39.834-38.83c-1.101-1.073-1.506-2.234-1.601-3.24c-0.09-0.954,0.1-1.769,0.25-2.231
	c0.308-0.948,1.345-3.201,4.307-3.632l20.215-2.937l34.835-5.062c3.258-0.473,6.073-2.519,7.53-5.47l19.404-39.317l5.215-10.566
	c1.324-2.685,3.788-2.975,4.785-2.975h0.001c0.997,0,3.46,0.29,4.784,2.975l5.215,10.566L424.834,314.062z M297.001,176.516h71.857
	c0.522,0,1.037,0.031,1.547,0.078c0.16,0.015,0.318,0.039,0.477,0.058c0.353,0.043,0.704,0.095,1.05,0.161
	c0.173,0.033,0.344,0.067,0.515,0.105c0.345,0.076,0.685,0.166,1.021,0.263c0.146,0.042,0.295,0.081,0.439,0.127
	c0.471,0.151,0.936,0.318,1.388,0.509c0.02,0.009,0.039,0.019,0.06,0.028c0.432,0.185,0.852,0.391,1.264,0.61
	c0.137,0.073,0.271,0.153,0.406,0.23c0.295,0.168,0.584,0.343,0.867,0.528c0.143,0.093,0.284,0.188,0.424,0.286
	c0.281,0.196,0.553,0.402,0.821,0.614c0.116,0.093,0.236,0.181,0.35,0.277c0.37,0.311,0.73,0.633,1.072,0.975
	c0.03,0.03,0.057,0.063,0.086,0.093c0.31,0.315,0.607,0.643,0.892,0.981c0.102,0.122,0.199,0.248,0.297,0.373
	c0.207,0.26,0.406,0.526,0.597,0.798c0.099,0.142,0.197,0.285,0.292,0.43c0.186,0.285,0.362,0.577,0.531,0.873
	c0.075,0.132,0.154,0.26,0.225,0.394c0.228,0.427,0.442,0.864,0.633,1.313c0.026,0.061,0.046,0.126,0.072,0.188
	c0.136,0.33,0.255,0.668,0.37,1.008L297,238.32v-61.804H297.001z M291.998,264.294L291.998,264.294L385.43,210.4v32.844
	c-5.443,2.324-9.979,6.528-12.721,12.082l-22.292,45.169l-49.848,7.243c-1.494,0.217-2.939,0.574-4.336,1.034l-40.672-23.461
	L291.998,264.294z M266.964,119.087c5.534,0,10.037,4.502,10.037,10.037v27.392v20v73.34l-32.989,19.029l-15.826,9.129
	c-0.982,0.566-1.979,1.097-2.989,1.593c-1.221,0.599-2.466,1.129-3.722,1.625c-0.733,0.289-1.471,0.56-2.213,0.814
	c-0.168,0.058-0.339,0.107-0.508,0.163c-0.58,0.192-1.162,0.38-1.748,0.551c-0.195,0.057-0.392,0.106-0.587,0.16
	c-0.554,0.155-1.11,0.305-1.668,0.441c-0.257,0.063-0.516,0.117-0.774,0.175c-0.471,0.107-0.942,0.211-1.415,0.304
	c-0.493,0.097-0.988,0.18-1.483,0.263c-0.305,0.051-0.61,0.107-0.916,0.152c-0.57,0.084-1.141,0.152-1.713,0.217
	c-0.251,0.029-0.502,0.064-0.753,0.089c-0.616,0.061-1.233,0.102-1.85,0.141c-0.215,0.013-0.429,0.035-0.643,0.046
	c-0.829,0.041-1.658,0.063-2.488,0.063c-3.409,0-6.816-0.349-10.169-1.027c-0.979-0.198-1.955-0.416-2.923-0.672
	c-1.918-0.507-3.808-1.146-5.668-1.88l0,0c-2.294-0.906-4.541-1.967-6.71-3.218l-48.815-28.158v-0.001v-73.34v-20v-27.392
	c0-5.534,4.503-10.037,10.037-10.037h85.546h20h22.95V119.087z M85.162,176.516v-20V79.269c0-6.991,5.688-12.678,12.679-12.678
	h113.492c6.991,0,12.679,5.688,12.679,12.678v19.819h-85.546c-16.563,0-30.037,13.475-30.037,30.037v27.392v20v61.803
	l-23.267-13.422V176.516z M21.315,186.621c0.191-0.45,0.406-0.887,0.635-1.316c0.071-0.132,0.149-0.259,0.223-0.389
	c0.17-0.298,0.347-0.592,0.534-0.879c0.094-0.144,0.191-0.285,0.289-0.426c0.192-0.275,0.394-0.543,0.603-0.805
	c0.097-0.122,0.191-0.247,0.292-0.366c0.287-0.341,0.586-0.672,0.9-0.99c0.027-0.028,0.052-0.058,0.08-0.085
	c0.343-0.342,0.703-0.665,1.074-0.976c0.113-0.094,0.231-0.182,0.346-0.274c0.269-0.214,0.543-0.421,0.825-0.617
	c0.139-0.097,0.279-0.191,0.421-0.284c0.284-0.186,0.575-0.362,0.871-0.53c0.134-0.076,0.266-0.156,0.402-0.228
	c0.413-0.22,0.835-0.427,1.268-0.612c0.019-0.008,0.038-0.019,0.057-0.027c0.452-0.191,0.917-0.358,1.389-0.509
	c0.145-0.046,0.293-0.084,0.439-0.127c0.336-0.098,0.677-0.187,1.021-0.263c0.171-0.038,0.343-0.073,0.515-0.105
	c0.346-0.065,0.697-0.117,1.05-0.161c0.159-0.019,0.317-0.043,0.477-0.058c0.51-0.047,1.025-0.078,1.547-0.078h28.59v36.846
	l-44.288-25.546c0.116-0.344,0.237-0.687,0.374-1.021C21.272,186.738,21.291,186.678,21.315,186.621z M149.869,285.312L20,360.224
	V210.4L149.869,285.312z"/>
<path d="M224.012,164.581h-62.741c-5.522,0-10,4.477-10,10c0,0.662,0.068,1.309,0.191,1.935c0.902,4.596,4.949,8.065,9.809,8.065
	h62.741h20h0.148c4.86,0,8.907-3.469,9.809-8.065c0.123-0.626,0.191-1.273,0.191-1.935c0-5.523-4.478-10-10-10h-0.148H224.012z"/>
<path d="M204.16,217.437h-42.89c-5.522,0-10,4.477-10,10s4.478,10,10,10h42.89c5.522,0,10-4.477,10-10
	S209.683,217.437,204.16,217.437z"/>
<path d="M253.39,223.612c-0.25-0.6-0.56-1.18-0.92-1.73c-0.36-0.54-0.78-1.05-1.24-1.52c-0.46-0.46-0.97-0.88-1.52-1.24
	c-0.54-0.36-1.12-0.67-1.73-0.92c-0.6-0.25-1.229-0.44-1.87-0.57c-0.694-0.14-1.396-0.198-2.098-0.188
	c-0.603,0.009-1.206,0.067-1.802,0.188c-0.641,0.13-1.271,0.32-1.88,0.57c-0.601,0.25-1.181,0.56-1.721,0.92
	c-0.55,0.36-1.06,0.78-1.52,1.24c-0.46,0.47-0.88,0.98-1.24,1.52c-0.37,0.55-0.67,1.13-0.92,1.73s-0.45,1.23-0.58,1.87
	c-0.12,0.65-0.189,1.3-0.189,1.96c0,2.63,1.069,5.2,2.93,7.07c0.46,0.46,0.97,0.88,1.52,1.24c0.54,0.36,1.12,0.67,1.721,0.92
	c0.609,0.25,1.239,0.44,1.88,0.57c0.591,0.12,1.199,0.183,1.802,0.192c0.049,0.001,0.099,0.008,0.148,0.008
	c0.649,0,1.31-0.07,1.949-0.2c0.641-0.13,1.271-0.32,1.87-0.57c0.61-0.25,1.19-0.56,1.73-0.92c0.55-0.36,1.06-0.78,1.52-1.24
	c1.86-1.87,2.931-4.44,2.931-7.07c0-0.66-0.07-1.31-0.2-1.96C253.84,224.842,253.64,224.212,253.39,223.612z"/>
<g>
</g>
<g>
</g>
<g>
</g>
<g>
</g>
<g>
</g>
<g>
</g>
<g>
</g>
<g>
</g>
<g>
</g>
<g>
</g>
<g>
</g>
<g>
</g>
<g>
</g>
<g>
</g>
<g>
</g>
</svg>
