<?xml version="1.0"?>
<svg xmlns="http://www.w3.org/2000/svg" height="512px" viewBox="-81 0 512 512" width="512px" class=""><g><path d="m246.230469 252.203125s13.96875 126.742187 85.175781 180.207031c7.53125 5.652344 5.335938 17.476563-3.695312 20.125-11.347657 3.332032-25.738282 6.179688-40.175782 5.328125-9.550781-.5625-18.015625 6.078125-19.644531 15.507813-.859375 4.988281-1.527344 10.808594-1.640625 17.164062-.207031 11.496094-13.25 17.996094-22.550781 11.234375-37.332031-27.152343-102.546875-93.507812-105.300781-225.078125.964843-.1875 107.832031-24.488281 107.832031-24.488281zm0 0" fill="#00ce8e" data-original="#00CE8E" class="" style="fill:#EA2505" data-old_color="#E92505"/><path d="m275.621094 357.480469c-23.519532-52.027344-29.390625-105.277344-29.390625-105.277344s-106.863281 24.300781-107.828125 24.488281c1.929687 92.191406 34.523437 152.363282 66.707031 189.464844 2.832031-17.414062 9.019531-33.386719 15.21875-46.042969 7.003906-14.304687 17.9375-26.203125 31.058594-35.230469 10.355469-7.121093 18.464843-17.839843 24.234375-27.402343zm0 0" fill="#00a65b" data-original="#00A65B" class="" style="fill:#B52A0A" data-old_color="#B32A0A"/><path d="m103.695312 252.203125s-13.96875 126.742187-85.175781 180.207031c-7.527343 5.652344-5.335937 17.476563 3.699219 20.125 11.34375 3.332032 25.738281 6.179688 40.175781 5.328125 9.546875-.5625 18.015625 6.078125 19.640625 15.507813.863282 4.988281 1.53125 10.808594 1.644532 17.164062.207031 11.496094 13.25 17.996094 22.546874 11.234375 37.335938-27.152343 102.546876-93.507812 105.300782-225.078125-.964844-.1875-107.832032-24.488281-107.832032-24.488281zm0 0" fill="#60daa8" data-original="#60DAA8" class="" style="fill:#EE684A" data-old_color="#EE6849"/><path d="m103.695312 252.203125s-5.074218 46.019531-24.679687 94.292969c11.082031 9.328125 28.476563 19.757812 54.917969 26.398437 25.066406 6.296875 40.394531 19.734375 49.707031 32.871094 15.503906-33.554687 26.773437-76.011719 27.882813-129.074219-.960938-.1875-107.828126-24.488281-107.828126-24.488281zm0 0" fill="#00ce8e" data-original="#00CE8E" class="" style="fill:#EA2505" data-old_color="#E92505"/><path d="m336.15625 189.816406-22.855469 22.230469 8.683594 30.652344c3.179687 11.234375-3.546875 22.878906-14.871094 25.730469l-30.90625 7.78125-7.78125 30.90625c-2.851562 11.324218-14.496093 18.054687-25.730469 14.871093l-30.652343-8.683593-22.230469 22.859374c-8.132812 8.359376-21.5625 8.359376-29.695312 0l-22.230469-22.859374-30.652344 8.683593c-11.234375 3.183594-22.878906-3.542969-25.730469-14.871093l-7.78125-30.90625-30.90625-7.78125c-11.324218-2.851563-18.054687-14.496094-14.871094-25.730469l8.683594-30.652344-22.855468-22.230469c-8.363282-8.132812-8.363282-21.5625 0-29.695312l22.855468-22.230469-8.683594-30.652344c-3.183593-11.238281 3.546876-22.882812 14.871094-25.730469l30.90625-7.785156 7.78125-30.90625c2.851563-11.324218 14.492188-18.054687 25.730469-14.871094l30.648437 8.683594 22.234376-22.855468c8.128906-8.363282 21.5625-8.363282 29.691406 0l22.234375 22.855468 30.648437-8.683594c11.238282-3.183593 22.878906 3.546876 25.734375 14.871094l7.78125 30.90625 30.90625 7.785156c11.324219 2.847657 18.050781 14.496094 14.867188 25.730469l-8.683594 30.648438 22.859375 22.234375c8.363281 8.132812 8.363281 21.5625 0 29.695312zm0 0" fill="#76e7e7" data-original="#76E7E7" class="" style="fill:#060BF0" data-old_color="#060CF2"/><path d="m272.203125 174.96875c0 53.703125-43.535156 97.238281-97.238281 97.238281s-97.238282-43.535156-97.238282-97.238281 43.535157-97.238281 97.238282-97.238281 97.238281 43.535156 97.238281 97.238281zm0 0" fill="#fffcdc" data-original="#FFFCDC" class="" style="fill:#FFFCDC"/><path d="m169.960938 224.230469c-3.269532 0-6.550782-1.0625-9.285157-3.222657l-43.253906-34.117187c-6.503906-5.132813-7.617187-14.566406-2.488281-21.070313 5.132812-6.503906 14.5625-7.617187 21.066406-2.484374l32.824219 25.890624 43.375-43.039062c5.878906-5.835938 15.378906-5.800781 21.210937.078125 5.835938 5.882813 5.800782 15.378906-.082031 21.214844l-52.800781 52.398437c-2.90625 2.882813-6.726563 4.351563-10.566406 4.351563zm0 0" fill="#f4e74d" data-original="#F4E74D" class="active-path" style="fill:#F8D200" data-old_color="#F7D102"/><path d="m174.964844 279.710938c57.753906 0 104.738281-46.988282 104.738281-104.742188s-46.984375-104.742188-104.738281-104.742188c-25.859375 0-50.6875 9.5-69.917969 26.753907-3.082031 2.765625-3.339844 7.507812-.574219 10.589843 2.765625 3.082032 7.507813 3.339844 10.589844.574219 16.472656-14.777343 37.746094-22.917969 59.902344-22.917969 49.480468 0 89.738281 40.257813 89.738281 89.742188 0 49.480469-40.257813 89.742188-89.738281 89.742188-49.480469 0-89.738282-40.261719-89.738282-89.742188 0-15.011719 3.777344-29.863281 10.921876-42.945312 1.984374-3.636719.648437-8.191407-2.988282-10.175782-3.636718-1.984375-8.191406-.648437-10.175781 2.988282-8.347656 15.28125-12.757813 32.617187-12.757813 50.132812 0 57.753906 46.984376 104.742188 104.738282 104.742188zm0 0" data-original="#000000" class="" style="fill:#000000"/><path d="m156.027344 226.894531c3.953125 3.121094 8.898437 4.835938 13.933594 4.835938 5.980468 0 11.609374-2.320313 15.851562-6.527344l52.800781-52.398437c8.808594-8.738282 8.863281-23.015626.121094-31.820313-8.734375-8.804687-23.007813-8.863281-31.816406-.125l-38.660157 38.363281-27.609374-21.777344c-9.738282-7.683593-23.914063-6.011718-31.601563 3.730469-7.683594 9.738281-6.007813 23.917969 3.730469 31.601563zm-35.207032-56.425781c4.101563-4.867188 9.164063-2.328125 10.535157-1.246094l32.824219 25.894532c2.976562 2.347656 7.238281 2.101562 9.929687-.566407l43.371094-43.039062c2.933593-2.914063 7.695312-2.898438 10.605469.039062 2.914062 2.933594 2.898437 7.691407-.039063 10.605469l-52.800781 52.398438c-1.414063 1.40625-3.292969 2.175781-5.285156 2.175781-1.703126 0-3.308594-.554688-4.644532-1.613281l-43.25-34.117188c-3.246094-2.5625-3.910156-7.371094-1.246094-10.53125zm0 0" data-original="#000000" class="" style="fill:#000000"/><path d="m335.910156 426.414062c-22.828125-17.140624-42.035156-44.195312-57.089844-80.40625-1.589843-3.824218-5.976562-5.636718-9.804687-4.046874-3.824219 1.589843-5.636719 5.980468-4.046875 9.804687 16.097656 38.71875 36.933594 67.871094 61.9375 86.644531 1.734375 1.300782 1.617188 3.105469 1.488281 3.816406-.128906.726563-.667969 2.488282-2.796875 3.113282-13.660156 4.007812-26.316406 5.699218-37.621094 5.035156-13.410156-.785156-25.203124 8.546875-27.476562 21.71875-1.050781 6.101562-1.640625 12.261719-1.75 18.304688-.066406 3.679687-2.617188 5.34375-3.714844 5.886718-1.089844.546875-3.953125 1.578125-6.921875-.582031-17.964843-13.0625-43.535156-36.21875-64.589843-72.894531 14.335937-26.898438 26.210937-60.136719 31.921874-100.742188l25.203126 7.140625c7.398437 2.097657 15.148437 1.132813 21.808593-2.71875 6.660157-3.847656 11.359375-10.078125 13.238281-17.539062l6.6875-26.558594 26.558594-6.6875c7.460938-1.878906 13.691406-6.582031 17.539063-13.242187 3.851562-6.660157 4.816406-14.40625 2.71875-21.808594l-7.464844-26.347656 19.652344-19.113282c5.507812-5.359375 8.539062-12.539062 8.539062-20.222656 0-7.6875-3.03125-14.867188-8.539062-20.226562l-19.652344-19.113282 7.464844-26.347656c2.097656-7.402344 1.132812-15.148438-2.71875-21.808594-3.847657-6.660156-10.078125-11.363281-17.535157-13.242187l-26.558593-6.6875-6.691407-26.558594c-1.878906-7.460937-6.582031-13.691406-13.242187-17.539063-6.65625-3.847656-14.402344-4.8125-21.804687-2.71875l-26.347657 7.464844-19.113281-19.648437c-5.359375-5.507813-12.539062-8.542969-20.222656-8.542969s-14.867188 3.035156-20.226563 8.542969l-19.109375 19.652343-26.351562-7.464843c-7.398438-2.097657-15.144532-1.132813-21.804688 2.714843-6.660156 3.851563-11.363281 10.078126-13.242187 17.539063l-6.6875 26.558594-26.558594 6.6875c-7.460937 1.878906-13.6875 6.582031-17.539063 13.242187-3.851562 6.660156-4.8125 14.40625-2.71875 21.808594l7.464844 26.347656-19.652344 19.113282c-5.507812 5.359374-8.539062 12.539062-8.539062 20.226562 0 7.683594 3.03125 14.867188 8.539062 20.222656l19.652344 19.113282-7.464844 26.347656c-2.097656 7.402344-1.132812 15.148437 2.71875 21.808594 3.847657 6.660156 10.078126 11.363281 17.535157 13.242187l26.558593 6.6875 6.691407 26.558594c1.117187 4.441406 3.246093 8.441406 6.183593 11.769531-19.8125 60.902344-46.929687 91.074219-66.398437 105.691406-5.75 4.320313-8.527344 11.40625-7.242187 18.492188 1.289062 7.113281 6.398437 12.796875 13.332031 14.832031 15.320312 4.492187 29.695312 6.382813 42.730469 5.613281 5.785156-.324218 10.835937 3.65625 11.808593 9.296875.925781 5.347657 1.441407 10.742188 1.535157 16.019531.144531 8.128907 4.640624 21.332032 21.703124 21.332032 18.941407 0 55.578126-39.53125 77.070313-74.277344 21.453125 34.695312 58.039063 74.28125 77.09375 74.28125 16.425781 0 21.558594-13.203125 21.703125-21.332031.09375-5.28125.609375-10.671875 1.53125-16.023438.976562-5.640625 6.054688-9.628906 11.8125-9.296875 13.035156.769532 27.410156-1.121094 42.726562-5.613281 6.9375-2.035156 12.046876-7.71875 13.335938-14.832031 1.285156-7.085938-1.492188-14.167969-7.246094-18.488282zm-260.359375-157.476562-30.90625-7.78125c-3.492187-.878906-6.40625-3.082031-8.210937-6.199219-1.800782-3.121093-2.253906-6.746093-1.273438-10.214843l8.6875-30.648438c.75-2.652344-.011718-5.5-1.988281-7.421875l-22.855469-22.234375c-2.582031-2.507812-4-5.871094-4-9.46875 0-3.601562 1.417969-6.960938 4-9.472656l22.855469-22.230469c1.976563-1.921875 2.738281-4.769531 1.988281-7.421875l-8.6875-30.652344c-.980468-3.464844-.527344-7.09375 1.273438-10.210937 1.804687-3.121094 4.71875-5.324219 8.214844-6.203125l30.90625-7.78125c2.675781-.675782 4.765624-2.765625 5.441406-5.441406l7.78125-30.910157c.878906-3.492187 3.082031-6.410156 6.199218-8.210937 3.121094-1.804688 6.746094-2.253906 10.210938-1.273438l30.652344 8.683594c2.652344.753906 5.5-.007812 7.421875-1.984375l22.230469-22.859375c2.511718-2.578125 5.871093-4 9.472656-4 3.597656 0 6.960937 1.421875 9.472656 4l22.230469 22.859375c1.921875 1.976563 4.769531 2.738281 7.417969 1.984375l30.652343-8.683594c3.464844-.980468 7.09375-.527344 10.210938 1.273438 3.121093 1.800781 5.324219 4.71875 6.203125 8.214844l7.78125 30.90625c.675781 2.675781 2.765625 4.769531 5.441406 5.441406l30.90625 7.78125c3.492188.878906 6.410156 3.082031 8.210938 6.203125 1.804687 3.117187 2.253906 6.746093 1.273437 10.210937l-8.683594 30.652344c-.753906 2.648438.011719 5.5 1.984375 7.421875l22.859375 22.230469c2.578125 2.507812 4 5.871094 4 9.472656 0 3.597656-1.421875 6.960938-4 9.46875l-22.859375 22.234375c-1.972656 1.917969-2.738281 4.769531-1.984375 7.417969l8.683594 30.652344c.980469 3.46875.53125 7.09375-1.273437 10.214843-1.800782 3.117188-4.71875 5.320313-8.210938 6.199219l-30.90625 7.78125c-2.679688.675781-4.769531 2.765625-5.441406 5.441406l-7.785156 30.910156c-.878907 3.492188-3.078126 6.40625-6.199219 8.210938-3.121094 1.804688-6.746094 2.253906-10.210938 1.273438l-30.648437-8.683594c-2.652344-.75-5.5.011718-7.421875 1.984375l-22.230469 22.859375c-2.511719 2.582031-5.875 4-9.472656 4-3.601563 0-6.960938-1.417969-9.472656-4l-22.230469-22.855469c-1.433594-1.472656-3.515625-3.101563-7.421875-1.988281l-30.648438 8.683594c-3.46875.980468-7.09375.53125-10.214844-1.273438-3.117187-1.800781-5.320312-4.71875-6.199218-8.214844l-7.78125-30.90625c-.675782-2.675781-2.765625-4.765625-5.445313-5.441406zm26.261719 226.765625c-2.96875 2.160156-5.828125 1.128906-6.921875.582031-1.09375-.542968-3.648437-2.207031-3.714844-5.886718-.109375-6.046876-.695312-12.203126-1.75-18.304688-2.273437-13.171875-14.0625-22.503906-27.476562-21.71875-11.300781.664062-23.960938-1.027344-37.621094-5.035156-2.128906-.625-2.664063-2.386719-2.796875-3.113282-.128906-.714843-.242188-2.515624 1.492188-3.820312 36.5-27.40625 58.191406-73.078125 70.425781-109.328125 5.109375 1.554687 10.554687 1.621094 15.828125.125l26.347656-7.464844 19.113281 19.652344c5.359375 5.507813 12.542969 8.542969 20.226563 8.542969 15.445312 0 22.34375-10.722656 22.34375-10.722656-17.832032 88.167968-66.609375 135.484374-95.496094 156.492187zm0 0" data-original="#000000" class="" style="fill:#000000"/></g> </svg>
