<?xml version="1.0" encoding="iso-8859-1"?>
<!-- Generator: Adobe Illustrator 19.0.0, SVG Export Plug-In . SVG Version: 6.00 Build 0)  -->
<svg version="1.1" id="Capa_1" xmlns="http://www.w3.org/2000/svg" xmlns:xlink="http://www.w3.org/1999/xlink" x="0px" y="0px"
	 viewBox="0 0 512 512" style="enable-background:new 0 0 512 512;" xml:space="preserve">
<path style="fill:#4CC1EB;" d="M297.673,313.741v12.155c0,6.099-7.6,8.89-11.548,4.241l-23.927-28.18
	c-8.518-10.032-21.014-15.815-34.175-15.815h-47.609v164.333h151.172V286.141h-6.314
	C310.03,286.141,297.673,298.498,297.673,313.741z"/>
<path style="fill:#F8C55A;" d="M444.471,83.342c0-40.506-32.836-73.342-73.342-73.342H140.872C100.366,10,67.53,42.836,67.53,83.342
	v129.457c0,40.506,32.836,73.342,73.342,73.342h39.542h47.609c13.161,0,25.657,5.783,34.175,15.815l23.927,28.18
	c3.947,4.649,11.548,1.858,11.548-4.241V313.74c0-15.243,12.357-27.6,27.6-27.6h6.314h39.542c40.506,0,73.342-32.836,73.342-73.342
	V83.342z M130.702,129.37c-12.299,0-22.269-9.97-22.269-22.269V58.756c0-0.614,0.062-1.213,0.181-1.792s0.293-1.137,0.518-1.669
	c0.225-0.532,0.5-1.037,0.82-1.51c0.32-0.473,0.684-0.914,1.086-1.316c0.603-0.604,1.293-1.121,2.049-1.531
	c0.504-0.274,1.038-0.5,1.594-0.673c0.835-0.26,1.723-0.4,2.644-0.4h111.192c4.911,0,8.892,3.981,8.892,8.892v48.344
	c0,12.299-9.97,22.269-22.269,22.269L130.702,129.37L130.702,129.37z M402.084,223.393c0,12.299-9.97,22.269-22.269,22.269h-84.437
	c-12.299,0-22.269-9.97-22.269-22.269v-48.344c0-4.911,3.981-8.892,8.892-8.892h111.192c4.911,0,8.892,3.981,8.892,8.892
	L402.084,223.393L402.084,223.393z"/>
<g>
	<path style="fill:#E5EAED;" d="M180.414,450.475v29.109c0,5.03,1.656,9.672,4.453,13.412c0.215,0.288,0.437,0.57,0.666,0.847
		c0.239,0.29,0.486,0.573,0.739,0.85c0.472,0.517,0.968,1.013,1.486,1.484c0.531,0.482,1.085,0.94,1.66,1.37
		c0.863,0.646,1.774,1.23,2.727,1.748c3.176,1.726,6.816,2.706,10.685,2.706h106.34c3.869,0,7.509-0.98,10.685-2.706
		c0.953-0.518,1.864-1.102,2.727-1.748c0.575-0.43,1.129-0.888,1.66-1.37c0.518-0.471,1.014-0.967,1.486-1.484
		c0.253-0.277,0.5-0.56,0.739-0.85c0.229-0.277,0.45-0.559,0.666-0.847c2.797-3.74,4.453-8.383,4.453-13.412v-29.109l0,0H180.414
		L180.414,450.475z"/>
	<path style="fill:#E5EAED;" d="M237.408,107.101V58.756l-52.695,30.396c-7.298,4.21-16.288,4.21-23.586,0l-52.695-30.396V107.1
		c0,12.299,9.97,22.269,22.269,22.269h84.437C227.438,129.37,237.408,119.399,237.408,107.101z"/>
	<path style="fill:#E5EAED;" d="M108.614,56.964c0.118-0.579,0.293-1.137,0.518-1.669C108.907,55.827,108.732,56.385,108.614,56.964
		z"/>
	<path style="fill:#E5EAED;" d="M109.952,53.785c0.32-0.473,0.684-0.914,1.086-1.316C110.635,52.871,110.271,53.312,109.952,53.785z
		"/>
	<path style="fill:#E5EAED;" d="M113.086,50.938c0.504-0.274,1.038-0.5,1.594-0.673C114.124,50.438,113.591,50.664,113.086,50.938z"
		/>
	<path style="fill:#E5EAED;" d="M111.038,52.469c0.603-0.604,1.293-1.121,2.049-1.531C112.331,51.348,111.641,51.865,111.038,52.469
		z"/>
</g>
<path style="fill:#ABB0B7;" d="M184.714,89.152l52.695-30.396c0-4.911-3.981-8.892-8.892-8.892H117.325
	c-0.921,0-1.809,0.14-2.644,0.4c-0.557,0.173-1.09,0.4-1.594,0.673c-0.756,0.411-1.446,0.928-2.049,1.531
	c-0.402,0.402-0.766,0.843-1.086,1.316c-0.32,0.473-0.595,0.979-0.82,1.51c-0.225,0.532-0.4,1.09-0.518,1.669
	s-0.181,1.178-0.181,1.792l52.695,30.396C168.426,93.362,177.416,93.362,184.714,89.152z"/>
<path style="fill:#E5EAED;" d="M325.803,205.444l-52.695-30.396v48.344c0,12.299,9.97,22.269,22.269,22.269h84.437
	c12.299,0,22.269-9.97,22.269-22.269v-48.344l-52.695,30.396C342.091,209.654,333.102,209.654,325.803,205.444z"/>
<path style="fill:#ABB0B7;" d="M393.192,166.157H282c-4.911,0-8.892,3.981-8.892,8.892l52.695,30.396
	c7.298,4.21,16.287,4.21,23.586,0l52.695-30.396C402.084,170.138,398.103,166.157,393.192,166.157z"/>
<path d="M57.529,83.343v129.456c0,45.955,37.388,83.343,83.343,83.343h29.542v154.333v29.109c0,17.874,14.542,32.416,32.416,32.416
	h106.34c17.874,0,32.416-14.542,32.416-32.416v-29.109V296.142h29.542c45.955,0,83.343-37.388,83.343-83.343V83.343
	C454.471,37.388,417.083,0,371.128,0H140.872C94.917,0,57.529,37.388,57.529,83.343z M321.586,479.584
	c0,5.616-3.748,10.373-8.874,11.901c-0.732,0.218-1.493,0.371-2.274,0.45c-0.417,0.042-0.84,0.064-1.268,0.064H202.83
	c-0.428,0-0.851-0.022-1.268-0.064c-0.782-0.08-1.542-0.232-2.274-0.45c-5.126-1.528-8.874-6.286-8.874-11.901v-19.109h131.172
	V479.584z M190.414,440.475V296.142h37.609c10.244,0,19.922,4.479,26.552,12.288l23.927,28.179
	c3.231,3.807,7.802,5.863,12.544,5.863c1.925,0,3.878-0.339,5.78-1.038c6.589-2.42,10.847-8.519,10.847-15.538v-12.154
	c0-8.439,5.974-15.504,13.913-17.204v143.938H190.414V440.475z M140.872,20h230.256c34.928,0,63.343,28.415,63.343,63.343v129.456
	c0,34.928-28.415,63.343-63.343,63.343h-29.542h-16.313c-1.244,0-2.473,0.064-3.687,0.183
	c-19.008,1.859-33.913,17.928-33.913,37.417v2.769l-17.852-21.025c-10.438-12.292-25.672-19.343-41.798-19.343h-37.609h-20h-29.542
	c-34.928,0-63.343-28.415-63.343-63.343V83.343C77.529,48.415,105.944,20,140.872,20z"/>
<path d="M130.702,139.37h84.438c17.793,0,32.269-14.476,32.269-32.27V58.756c0-10.417-8.475-18.892-18.892-18.892H117.325
	c-10.417,0-18.892,8.475-18.892,18.892v48.345C98.434,124.895,112.909,139.37,130.702,139.37z M215.474,59.864L179.718,80.49
	c-4.193,2.418-9.401,2.418-13.593,0l-35.757-20.626H215.474z M156.131,97.814c5.179,2.987,10.983,4.48,16.79,4.48
	c5.805,0,11.611-1.494,16.79-4.48l37.697-21.746V107.1c0,6.766-5.504,12.27-12.269,12.27h-84.438
	c-6.765,0-12.269-5.504-12.269-12.27V76.069L156.131,97.814z"/>
<path d="M295.378,255.662h26.208h20h38.229c17.794,0,32.27-14.476,32.27-32.27v-48.344c0-10.417-8.475-18.892-18.892-18.892H282
	c-10.417,0-18.892,8.475-18.892,18.892v47.932v0.412c0,7.362,2.483,14.152,6.649,19.588
	C275.66,250.683,284.946,255.662,295.378,255.662z M380.148,176.157l-35.757,20.625c-4.191,2.417-9.4,2.418-13.592,0l-35.756-20.625
	H380.148z M320.807,214.106c5.178,2.987,10.983,4.48,16.789,4.48c5.807,0,11.612-1.493,16.789-4.48l37.699-21.746v31.032
	c0,6.766-5.504,12.27-12.27,12.27H334.86h-39.483c-6.766,0-12.27-5.504-12.27-12.27v-0.412v-30.619L320.807,214.106z"/>
<path d="M220.926,201.017c-2.938-4.676-9.109-6.087-13.787-3.15c-4.677,2.938-6.087,9.109-3.15,13.787l0.394,0.628h-21.226
	c-2.56,0-4.642-2.082-4.642-4.642v-27.572l0.801,0.503c4.678,2.938,10.85,1.525,13.786-3.151c2.938-4.678,1.526-10.85-3.151-13.786
	l-16.118-10.12c-3.252-2.041-7.385-2.041-10.635,0l-16.117,10.12c-4.678,2.937-6.089,9.109-3.151,13.786
	c1.899,3.025,5.151,4.684,8.479,4.684c1.816,0,3.656-0.495,5.308-1.532l0.8-0.502v27.572c0,12.625,9.545,23.057,21.797,24.472
	c0.934,0.108,1.882,0.169,2.845,0.169h21.442l-0.61,0.972c-1.913,3.045-1.971,6.72-0.495,9.728c0.791,1.611,2.015,3.034,3.646,4.059
	c1.652,1.038,3.49,1.533,5.308,1.532c3.326,0,6.579-1.658,8.479-4.684l0.57-0.907l9.551-15.211c0.848-1.35,1.323-2.853,1.467-4.38
	c0.015-0.135,0.02-0.272,0.029-0.409c0.001-0.019,0.002-0.038,0.003-0.056c0.009-0.182,0.029-0.364,0.028-0.546
	c0-0.032,0.005-0.064,0.005-0.097c0-2.433-0.87-4.661-2.314-6.395L220.926,201.017z"/>
<path d="M303.125,86.628c1.899,3.025,5.152,4.684,8.479,4.684c1.816,0,3.655-0.494,5.308-1.532
	c4.678-2.937,6.089-9.109,3.151-13.786l-0.395-0.629h21.227c2.56,0,4.642,2.082,4.642,4.642v27.572l-0.801-0.503
	c-4.679-2.939-10.85-1.526-13.786,3.151c-2.938,4.678-1.526,10.85,3.151,13.786l16.118,10.12c1.626,1.021,3.472,1.531,5.317,1.531
	s3.692-0.511,5.317-1.531l16.117-10.12c4.678-2.937,6.089-9.109,3.151-13.786c-2.937-4.677-9.109-6.088-13.786-3.151l-0.8,0.502
	V80.006c0-13.588-11.054-24.642-24.642-24.642h-21.442l0.61-0.971c2.937-4.678,1.526-10.85-3.15-13.787
	c-4.68-2.939-10.851-1.526-13.787,3.15l-10.121,16.117c-0.848,1.351-1.323,2.855-1.467,4.383c-0.017,0.152-0.022,0.306-0.032,0.46
	c-0.009,0.183-0.029,0.366-0.028,0.55c0,0.033-0.005,0.064-0.005,0.097c0,2.435,0.872,4.665,2.318,6.399L303.125,86.628z"/>
<path d="M299.4,394.585h-44.473c-5.522,0-10,4.478-10,10s4.478,10,10,10H299.4c5.522,0,10-4.478,10-10
	S304.923,394.585,299.4,394.585z"/>
<path d="M212.6,367.404h45.473c5.522,0,10-4.478,10-10s-4.478-10-10-10H212.6c-5.522,0-10,4.478-10,10
	S207.077,367.404,212.6,367.404z"/>
<path d="M224.16,400.76c-0.25-0.6-0.561-1.18-0.92-1.729c-0.36-0.54-0.78-1.061-1.24-1.521s-0.97-0.88-1.521-1.24
	c-0.54-0.359-1.12-0.67-1.729-0.92c-0.601-0.25-1.23-0.439-1.87-0.569c-1.29-0.261-2.62-0.261-3.91,0
	c-0.63,0.13-1.26,0.319-1.87,0.569c-0.6,0.25-1.18,0.561-1.72,0.92c-0.55,0.36-1.061,0.78-1.521,1.24s-0.88,0.98-1.25,1.521
	c-0.359,0.55-0.67,1.13-0.92,1.729s-0.439,1.23-0.569,1.87c-0.13,0.65-0.19,1.3-0.19,1.96c0,2.63,1.061,5.2,2.93,7.06
	c0.46,0.471,0.971,0.881,1.521,1.25c0.54,0.36,1.12,0.67,1.72,0.92c0.61,0.25,1.24,0.44,1.87,0.57c0.65,0.13,1.3,0.19,1.96,0.19
	c0.65,0,1.311-0.061,1.95-0.19s1.27-0.32,1.87-0.57c0.609-0.25,1.189-0.56,1.729-0.92c0.551-0.369,1.061-0.779,1.521-1.25
	c1.859-1.85,2.93-4.43,2.93-7.06c0-0.66-0.07-1.31-0.2-1.96C224.6,401.99,224.41,401.359,224.16,400.76z"/>
<path d="M246.77,480.06c0.25,0.601,0.561,1.19,0.92,1.73c0.36,0.55,0.78,1.06,1.24,1.52s0.97,0.88,1.521,1.24
	c0.54,0.36,1.119,0.67,1.72,0.92c0.61,0.25,1.24,0.44,1.88,0.57s1.3,0.2,1.95,0.2c2.63,0,5.21-1.07,7.069-2.931
	c0.461-0.46,0.881-0.97,1.24-1.52c0.36-0.54,0.67-1.13,0.92-1.73s0.44-1.229,0.57-1.87c0.13-0.64,0.2-1.3,0.2-1.949
	c0-0.66-0.07-1.311-0.2-1.96c-0.13-0.631-0.32-1.261-0.57-1.87c-0.25-0.601-0.56-1.181-0.92-1.721c-0.359-0.55-0.779-1.06-1.24-1.52
	c-2.319-2.33-5.779-3.39-9.02-2.74c-0.64,0.13-1.27,0.32-1.88,0.57c-0.601,0.25-1.18,0.56-1.72,0.92
	c-0.551,0.37-1.061,0.78-1.521,1.25c-0.46,0.46-0.88,0.97-1.25,1.52c-0.36,0.54-0.67,1.12-0.92,1.721
	c-0.25,0.609-0.44,1.239-0.57,1.87c-0.13,0.649-0.189,1.3-0.189,1.96c0,0.649,0.06,1.31,0.189,1.949
	C246.319,478.83,246.52,479.46,246.77,480.06z"/>
<g>
</g>
<g>
</g>
<g>
</g>
<g>
</g>
<g>
</g>
<g>
</g>
<g>
</g>
<g>
</g>
<g>
</g>
<g>
</g>
<g>
</g>
<g>
</g>
<g>
</g>
<g>
</g>
<g>
</g>
</svg>
