<?xml version="1.0" encoding="iso-8859-1"?>
<!-- Generator: Adobe Illustrator 19.0.0, SVG Export Plug-In . SVG Version: 6.00 Build 0)  -->
<svg version="1.1" id="Capa_1" xmlns="http://www.w3.org/2000/svg" xmlns:xlink="http://www.w3.org/1999/xlink" x="0px" y="0px"
	 viewBox="0 0 511.997 511.997" style="enable-background:new 0 0 511.997 511.997;" xml:space="preserve">
<path style="fill:#F39E54;" d="M465.924,271.695c-5.079-3.443-6.251-10.548-2.507-15.409c7.688-9.982,12.018-22.684,11.294-36.416
	c-1.481-28.084-24.45-50.735-52.551-51.853c-20.828-0.828-39.196,9.966-49.174,26.415c21.581,6.56,37.712,26.162,38.945,49.542
	c0.724,13.733-3.605,26.434-11.294,36.416c-3.744,4.861-2.572,11.966,2.507,15.409c21.768,14.757,36.076,39.686,36.076,67.965
	v57.975h40.071c12.542,0,22.709-10.167,22.709-22.709v-59.37C502,311.381,487.692,286.452,465.924,271.695z"/>
<path style="fill:#EB5664;" d="M403.144,295.799c-5.079-3.443-6.251-10.548-2.507-15.409c7.689-9.982,12.018-22.684,11.294-36.416
	c-1.233-23.38-17.364-42.982-38.945-49.542c-4.342-1.32-8.899-2.124-13.606-2.311c-23.39-0.931-43.686,12.791-52.469,32.726
	c23.282,5.44,41.07,25.871,42.367,50.473c0.724,13.733-3.605,26.434-11.294,36.416c-3.744,4.861-2.572,11.966,2.507,15.409
	c21.768,14.757,36.076,39.686,36.076,67.965v50.732h39.944c12.542,0,22.709-10.167,22.709-22.709v-1.395v-57.975
	C439.22,335.484,424.911,310.556,403.144,295.799z"/>
<path style="fill:#F8C55A;" d="M376.567,395.111c0-28.28-14.308-53.208-36.076-67.965c-5.079-3.443-6.251-10.548-2.507-15.409
	c7.689-9.982,12.018-22.684,11.294-36.416c-1.298-24.602-19.085-45.033-42.367-50.473c-3.295-0.77-6.699-1.241-10.183-1.38
	c-31.323-1.246-57.108,23.778-57.108,54.824c0,12.544,4.211,24.103,11.295,33.344c3.764,4.91,2.696,12.036-2.424,15.507
	c-21.77,14.757-36.08,39.687-36.08,67.969v59.37c0,12.542,10.167,22.709,22.709,22.709h118.74c12.542,0,22.709-10.167,22.709-22.709
	v-8.637v-50.734H376.567z"/>
<path style="fill:#4CC1EB;" d="M35.942,191.462h109.26c2.938,0,5.763,1.128,7.893,3.151l43.764,41.561
	c5.866,5.571,15.551,1.413,15.551-6.678v-26.572c0-6.33,5.132-11.462,11.462-11.462h14.32c14.328,0,25.942-11.615,25.942-25.942
	V52.325c0-9.676-7.844-17.52-17.52-17.52H27.52c-9.676,0-17.52,7.844-17.52,17.52V165.52C10,179.847,21.615,191.462,35.942,191.462z
	 M27.52,34.805h219.093c9.676,0,17.52,7.844,17.52,17.52l-102.695,59.237c-15.083,8.7-33.661,8.7-48.744,0L10,52.325
	C10,42.649,17.844,34.805,27.52,34.805z"/>
<path style="fill:#E5EAED;" d="M161.439,111.562l102.695-59.237c0-9.676-7.844-17.52-17.52-17.52H27.52
	c-9.676,0-17.52,7.844-17.52,17.52l102.695,59.237C127.778,120.263,146.355,120.263,161.439,111.562z"/>
<path d="M471.536,263.418c-0.207-0.14-0.28-0.355-0.306-0.512c-0.033-0.207,0.003-0.381,0.108-0.518
	c9.433-12.244,14.177-27.531,13.359-43.046c-1.744-33.067-29.039-60.002-62.14-61.318c-17.837-0.711-34.737,5.697-47.58,18.04
	c-2.306,2.216-4.418,4.574-6.345,7.048c-2.895-0.527-5.85-0.864-8.855-0.984c-17.858-0.713-34.737,5.698-47.581,18.04
	c-4.274,4.108-7.894,8.695-10.842,13.634c-1.4-0.15-2.807-0.271-4.23-0.327c-17.831-0.708-34.737,5.697-47.58,18.04
	c-12.85,12.348-19.926,28.96-19.926,46.777c0,14.393,4.619,28.027,13.358,39.428c0.193,0.252,0.2,0.515,0.172,0.691
	c-0.05,0.305-0.21,0.414-0.271,0.455c-25.341,17.177-40.47,45.68-40.47,76.246v59.37c0,18.036,14.673,32.709,32.709,32.709h118.74
	c17.578,0,31.956-13.941,32.673-31.347h29.979c15.058,0,27.764-10.23,31.552-24.104h31.228c18.036,0,32.709-14.673,32.709-32.709
	v-59.37C512,309.098,496.873,280.596,471.536,263.418z M366.566,411.739v20v4.104v18.638c0,0.46-0.028,0.914-0.076,1.362
	c-0.682,6.369-6.086,11.347-12.632,11.347h-118.74c-7.008,0-12.709-5.701-12.709-12.709v-59.37c0-23.925,11.848-46.24,31.692-59.691
	c4.679-3.172,7.883-8.207,8.791-13.813c0.916-5.658-0.558-11.51-4.042-16.056c-6.039-7.878-9.231-17.304-9.231-27.26
	c0-12.323,4.896-23.814,13.783-32.356c8.244-7.921,18.909-12.295,30.272-12.494c0.268-0.005,0.535-0.019,0.804-0.019
	c0.615,0,1.232,0.012,1.852,0.037c5.998,0.239,11.714,1.703,16.915,4.132c14.643,6.839,25.158,21.388,26.047,38.255
	c0.566,10.746-2.712,21.325-9.229,29.787c-0.001,0-0.001,0-0.001,0c-3.452,4.482-4.914,10.277-4.01,15.898
	c0.397,2.468,1.259,4.813,2.472,6.951c1.559,2.747,3.711,5.146,6.356,6.939c4.811,3.262,9.147,7.049,12.963,11.249
	c11.921,13.123,18.724,30.317,18.724,48.44L366.566,411.739L366.566,411.739z M429.22,411.739v11.395
	c0,3.321-1.291,6.339-3.384,8.605c-2.324,2.516-5.638,4.104-9.325,4.104h-29.944v-4.104v-20v-16.628
	c0-28.915-13.545-55.979-36.461-73.36c-1.306-0.991-2.637-1.956-4.003-2.883c-0.207-0.14-0.279-0.354-0.305-0.51
	c-0.033-0.208,0.003-0.382,0.108-0.52c9.432-12.244,14.176-27.531,13.358-43.045c-0.072-1.368-0.204-2.722-0.362-4.068
	c-2.662-22.633-17.29-41.895-37.25-51.244c1.336-1.717,2.802-3.354,4.403-4.893c8.438-8.109,19.411-12.513,31.076-12.513
	c0.432,0,0.866,0.014,1.3,0.026c0.184,0.005,0.367,0.004,0.552,0.011c6.752,0.269,13.148,2.089,18.851,5.094
	c13.626,7.182,23.261,21.179,24.11,37.294c0.567,10.745-2.711,21.324-9.23,29.788h0.001c-3.452,4.481-4.914,10.275-4.011,15.896
	c0.906,5.64,4.124,10.703,8.828,13.893c19.842,13.452,31.688,35.765,31.688,59.688L429.22,411.739L429.22,411.739z M492,399.03
	c0,7.008-5.701,12.709-12.709,12.709H449.22v-47.975c0-30.563-15.127-59.065-40.465-76.242c-0.206-0.14-0.279-0.355-0.305-0.511
	c-0.033-0.208,0.004-0.382,0.108-0.519c9.433-12.246,14.177-27.533,13.358-43.045c-1.191-22.596-14.317-42.321-33.07-52.973
	c8.437-8.102,19.406-12.502,31.065-12.502c0.615,0,1.232,0.012,1.852,0.037c22.885,0.91,41.757,19.529,42.962,42.387
	c0.566,10.747-2.712,21.325-9.23,29.788l0,0c-3.452,4.481-4.914,10.275-4.011,15.895c0.905,5.639,4.123,10.703,8.828,13.894
	C480.154,293.424,492,315.738,492,339.661V399.03z"/>
<path d="M35.942,201.462h109.26c0.377,0,0.734,0.143,1.007,0.402l43.764,41.562c3.645,3.461,8.396,5.284,13.225,5.284
	c2.558,0,5.137-0.512,7.583-1.563c7.064-3.034,11.629-9.962,11.629-17.65v-26.572c0-0.806,0.656-1.462,1.462-1.462h14.32
	c19.818,0,35.942-16.124,35.942-35.942V52.325c0-15.175-12.346-27.52-27.521-27.52H27.521C12.346,24.805,0,37.15,0,52.325V165.52
	C0,185.338,16.124,201.462,35.942,201.462z M21.738,47.524c0.158-0.191,0.327-0.373,0.503-0.547
	c0.063-0.062,0.131-0.119,0.197-0.179c0.124-0.114,0.248-0.227,0.379-0.332c0.081-0.065,0.166-0.125,0.249-0.186
	c0.124-0.091,0.248-0.181,0.377-0.265c0.092-0.059,0.186-0.115,0.28-0.171c0.129-0.076,0.26-0.149,0.394-0.217
	c0.099-0.05,0.199-0.099,0.3-0.145c0.138-0.063,0.278-0.12,0.42-0.175c0.103-0.04,0.206-0.079,0.311-0.114
	c0.15-0.05,0.303-0.093,0.457-0.133c0.102-0.027,0.202-0.056,0.305-0.079c0.173-0.038,0.35-0.065,0.527-0.091
	c0.089-0.013,0.176-0.031,0.266-0.041c0.269-0.029,0.541-0.047,0.818-0.047h219.093c0.277,0,0.549,0.017,0.818,0.047
	c0.089,0.01,0.175,0.027,0.262,0.04c0.178,0.026,0.357,0.053,0.531,0.092c0.102,0.022,0.2,0.051,0.3,0.077
	c0.156,0.041,0.311,0.084,0.463,0.135c0.103,0.034,0.204,0.073,0.305,0.112c0.144,0.055,0.286,0.114,0.426,0.177
	c0.1,0.045,0.198,0.093,0.295,0.142c0.136,0.069,0.269,0.143,0.399,0.22c0.093,0.055,0.186,0.109,0.276,0.168
	c0.131,0.085,0.257,0.176,0.382,0.268c0.082,0.061,0.166,0.12,0.246,0.184c0.132,0.106,0.257,0.22,0.382,0.335
	c0.064,0.059,0.132,0.115,0.194,0.176c0.177,0.174,0.345,0.356,0.504,0.547c0.005,0.006,0.011,0.011,0.016,0.017l-95.971,55.358
	c-11.948,6.894-26.798,6.895-38.75,0l-95.97-55.358C21.727,47.535,21.732,47.53,21.738,47.524z M107.698,120.224
	c9.058,5.225,19.213,7.837,29.368,7.837c10.156,0,20.312-2.613,29.369-7.837l87.698-50.587v95.883
	c0,8.791-7.151,15.942-15.942,15.942h-14.32c-11.834,0-21.462,9.628-21.462,21.462v24.73L159.98,187.36
	c-4.006-3.804-9.255-5.898-14.778-5.898H35.942c-8.791,0-15.942-7.151-15.942-15.942V69.637L107.698,120.224z"/>
<path d="M44.943,166.721c2.331,0,4.673-0.811,6.567-2.462l32.12-28.001c4.163-3.629,4.596-9.946,0.967-14.109
	s-9.946-4.595-14.109-0.966l-32.12,28.001c-4.163,3.629-4.596,9.946-0.967,14.109C39.379,165.56,42.153,166.721,44.943,166.721z"/>
<path d="M190.503,136.257l32.12,28.001c1.896,1.652,4.236,2.462,6.567,2.462c2.789,0,5.564-1.161,7.542-3.429
	c3.629-4.163,3.196-10.48-0.967-14.109l-32.12-28.001c-4.164-3.629-10.479-3.197-14.109,0.966
	C185.907,126.311,186.34,132.628,190.503,136.257z"/>
<g>
</g>
<g>
</g>
<g>
</g>
<g>
</g>
<g>
</g>
<g>
</g>
<g>
</g>
<g>
</g>
<g>
</g>
<g>
</g>
<g>
</g>
<g>
</g>
<g>
</g>
<g>
</g>
<g>
</g>
</svg>
