<?xml version="1.0" encoding="iso-8859-1"?>
<!-- Generator: Adobe Illustrator 19.0.0, SVG Export Plug-In . SVG Version: 6.00 Build 0)  -->
<svg version="1.1" id="Capa_1" xmlns="http://www.w3.org/2000/svg" xmlns:xlink="http://www.w3.org/1999/xlink" x="0px" y="0px"
	 viewBox="0 0 512 512" style="enable-background:new 0 0 512 512;" xml:space="preserve">
<path style="fill:#ADE5FF;" d="M36.292,216.2v250.075c0,19.731,15.995,35.724,35.725,35.724h367.968
	c19.731,0,35.725-15.995,35.725-35.724V216.2L278.064,69.974c-13.11-9.699-31.017-9.699-44.126,0L36.292,216.2z"/>
<path style="fill:#72D8FF;" d="M320.728,371.182H191.273L36.292,216.2v250.075c0,19.731,15.995,35.724,35.725,35.724h367.968
	c19.731,0,35.725-15.995,35.725-35.724V216.2L320.728,371.182z"/>
<path style="fill:#4DBAF6;" d="M301.525,351.979c-25.143-25.143-65.907-25.143-91.05,0L61.914,500.541
	c3.205,0.944,6.593,1.458,10.104,1.458h367.967c3.51,0,6.899-0.515,10.104-1.458L301.525,351.979z"/>
<path style="fill:#FF5D5D;" d="M319.046,10c-24.833,0-47.226,10.7-63.045,27.847C240.181,20.7,217.788,10,192.955,10
	c-47.93,0-86.786,39.853-86.786,89.016c0,68.864,149.832,163.712,149.832,163.712S405.833,167.88,405.833,99.016
	C405.832,49.854,366.976,10,319.046,10z"/>
<path d="M481.945,207.786l-82.563-61.083c10.932-17.323,16.45-33.256,16.45-47.686C415.832,44.418,372.413,0,319.046,0
	c-23.127,0-45.595,8.608-63.045,23.902C238.55,8.608,216.082,0,192.955,0c-53.368,0-96.786,44.418-96.786,99.017
	c0,14.502,5.572,30.521,16.611,47.943l-82.7,60.809c-2.563,1.885-4.076,4.876-4.076,8.057v250.403
	c0,25.239,20.533,45.771,45.771,45.771h368.45c25.239,0,45.771-20.533,45.771-45.771V215.825
	C485.997,212.654,484.494,209.672,481.945,207.786z M192.955,20c21.265,0,41.044,8.746,55.695,24.628
	c1.893,2.053,4.558,3.22,7.35,3.22s5.457-1.167,7.35-3.22C278.002,28.746,297.781,20,319.046,20
	c42.339,0,76.786,35.447,76.786,79.017c0,49.778-96.281,123.276-139.831,151.814C212.45,222.293,116.169,148.795,116.169,99.017
	C116.169,55.446,150.615,20,192.955,20z M46.003,466.228v-226.26L177.046,371.01L59.387,488.669
	c-0.032,0.032-0.058,0.067-0.089,0.099C51.377,484.365,46.003,475.914,46.003,466.228z M217.487,358.853
	c21.237-21.237,55.791-21.237,77.028,0l133.146,133.146H84.34l28.305-28.306H244c5.523,0,10-4.478,10-10c0-5.522-4.477-10-10-10
	H132.645l22.938-22.938h64.744c5.523,0,10-4.478,10-10c0-5.522-4.477-10-10-10h-44.744L217.487,358.853z M452.703,488.768
	c-0.031-0.032-0.058-0.067-0.089-0.099L334.954,371.01l31.039-31.038c3.905-3.905,3.906-10.237,0-14.143
	c-3.906-3.903-10.237-3.904-14.142,0l-31.039,31.039l-12.157-12.157c-29.034-29.033-76.277-29.033-105.312,0l-12.156,12.156
	L51.306,216.986l73.071-53.729c12.567,15.976,29.301,33.001,50.174,51.011c37.585,32.431,74.545,55.926,76.1,56.91
	c1.633,1.034,3.491,1.551,5.349,1.551c1.858,0,3.716-0.517,5.349-1.551c1.555-0.984,38.514-24.48,76.1-56.91
	c20.976-18.099,37.774-35.204,50.362-51.246l72.908,53.94l-49.506,49.506c-3.905,3.905-3.905,10.237,0,14.143
	c1.953,1.952,4.512,2.929,7.071,2.929c2.559,0,5.119-0.977,7.071-2.929l40.643-40.642V466.23
	C465.997,475.914,460.624,484.365,452.703,488.768z"/>
<path d="M279.646,73.182c2.706,0,5.406-1.085,7.385-3.22c0.006-0.006,0.072-0.077,0.078-0.084
	c3.741-4.056,3.459-10.343-0.593-14.089c-4.051-3.746-10.401-3.471-14.153,0.577c-0.006,0.006-0.072,0.077-0.078,0.084
	c-3.741,4.057-3.459,10.343,0.593,14.089C274.793,72.31,277.222,73.182,279.646,73.182z"/>
<path d="M315.145,57.443c21.686,0,39.328,18.649,39.328,41.572c0,5.522,4.477,10,10,10c5.523,0,10-4.478,10-10
	c0-33.951-26.615-61.572-59.328-61.572c-5.523,0-10,4.478-10,10S309.622,57.443,315.145,57.443z"/>
<path d="M58.524,101.695h6.859c5.523,0,10-4.478,10-10s-4.477-10-10-10h-6.859c-5.523,0-10,4.478-10,10
	S53.001,101.695,58.524,101.695z"/>
<path d="M16.862,81.695h-6.859c-5.523,0-10,4.478-10,10s4.477,10,10,10h6.859c5.523,0,10-4.478,10-10S22.385,81.695,16.862,81.695z"
	/>
<path d="M37.693,129.385c5.523,0,10-4.478,10-10v-6.859c0-5.522-4.477-10-10-10s-10,4.478-10,10v6.859
	C27.693,124.907,32.17,129.385,37.693,129.385z"/>
<path d="M37.693,80.865c5.523,0,10-4.478,10-10v-6.859c0-5.522-4.477-10-10-10s-10,4.478-10,10v6.859
	C27.693,76.388,32.17,80.865,37.693,80.865z"/>
<path d="M501.997,118.005h-6.859c-5.523,0-10,4.478-10,10s4.477,10,10,10h6.859c5.523,0,10-4.478,10-10
	S507.52,118.005,501.997,118.005z"/>
<path d="M446.618,138.005h6.859c5.523,0,10-4.478,10-10s-4.477-10-10-10h-6.859c-5.523,0-10,4.478-10,10
	S441.095,138.005,446.618,138.005z"/>
<path d="M474.307,165.694c5.523,0,10-4.478,10-10v-6.858c0-5.522-4.477-10-10-10c-5.523,0-10,4.478-10,10v6.858
	C464.307,161.217,468.785,165.694,474.307,165.694z"/>
<path d="M474.307,117.174c5.523,0,10-4.478,10-10v-6.858c0-5.522-4.477-10-10-10c-5.523,0-10,4.478-10,10v6.858
	C464.307,112.696,468.785,117.174,474.307,117.174z"/>
<path d="M281,463.69c2.63,0,5.21-1.06,7.07-2.93c1.86-1.86,2.93-4.43,2.93-7.07c0-2.63-1.07-5.21-2.93-7.069
	c-1.86-1.86-4.44-2.931-7.07-2.931c-2.63,0-5.21,1.07-7.07,2.931c-1.86,1.859-2.93,4.439-2.93,7.069c0,2.641,1.07,5.21,2.93,7.07
	C275.79,462.631,278.37,463.69,281,463.69z"/>
<path d="M383.093,294.587l-0.687,0.688c-3.904,3.906-3.901,10.238,0.005,14.142c1.953,1.951,4.51,2.927,7.068,2.927
	c2.56,0,5.121-0.978,7.074-2.932l0.687-0.688c3.904-3.906,3.901-10.238-0.005-14.142
	C393.329,290.679,386.997,290.681,383.093,294.587z"/>
<g>
</g>
<g>
</g>
<g>
</g>
<g>
</g>
<g>
</g>
<g>
</g>
<g>
</g>
<g>
</g>
<g>
</g>
<g>
</g>
<g>
</g>
<g>
</g>
<g>
</g>
<g>
</g>
<g>
</g>
</svg>
