<?xml version="1.0" encoding="iso-8859-1"?>
<!-- Generator: Adobe Illustrator 19.0.0, SVG Export Plug-In . SVG Version: 6.00 Build 0)  -->
<svg version="1.1" id="Capa_1" xmlns="http://www.w3.org/2000/svg" xmlns:xlink="http://www.w3.org/1999/xlink" x="0px" y="0px"
	 viewBox="0 0 512.001 512.001" style="enable-background:new 0 0 512.001 512.001;" xml:space="preserve">
<g>
	<path style="fill:#4CC1EB;" d="M302.772,496.741c-0.68,0.508-1.384,0.985-2.112,1.427
		C301.388,497.725,302.092,497.249,302.772,496.741z"/>
	<path style="fill:#4CC1EB;" d="M300.66,498.167c-0.728,0.442-1.479,0.85-2.25,1.222C299.181,499.018,299.932,498.61,300.66,498.167
		z"/>
	<path style="fill:#4CC1EB;" d="M61.909,484.63c-0.594-1.622-1.033-3.318-1.301-5.071C60.876,481.312,61.316,483.008,61.909,484.63z
		"/>
	<path style="fill:#4CC1EB;" d="M311.325,485.832c-1.005,2.375-2.346,4.573-3.965,6.535
		C308.979,490.405,310.32,488.207,311.325,485.832z"/>
	<path style="fill:#4CC1EB;" d="M304.732,495.123c0.94-0.855,1.819-1.776,2.628-2.757
		C306.551,493.347,305.673,494.268,304.732,495.123z"/>
	<path style="fill:#4CC1EB;" d="M66.348,492.366c0.809,0.981,1.688,1.902,2.628,2.757C68.036,494.268,67.157,493.347,66.348,492.366
		z"/>
	<path style="fill:#4CC1EB;" d="M66.348,492.366c-1.618-1.961-2.96-4.159-3.965-6.535C63.388,488.207,64.73,490.405,66.348,492.366z
		"/>
	<path style="fill:#4CC1EB;" d="M313.101,479.559c-0.268,1.753-0.708,3.449-1.302,5.071
		C312.393,483.008,312.833,481.312,313.101,479.559z"/>
	<path style="fill:#4CC1EB;" d="M75.299,499.39c-0.771-0.372-1.522-0.78-2.25-1.222C73.776,498.61,74.527,499.018,75.299,499.39z"/>
	<path style="fill:#4CC1EB;" d="M73.049,498.167c-0.728-0.442-1.432-0.918-2.112-1.427
		C71.616,497.249,72.321,497.725,73.049,498.167z"/>
	<polygon style="fill:#4CC1EB;" points="313.406,356.045 220.412,356.045 220.412,241.579 220.412,192.537 313.406,192.537 
		313.406,76.934 60.303,76.934 60.303,435.066 313.406,435.066 	"/>
	<path style="fill:#4CC1EB;" d="M80.16,501.167c-1.692-0.435-3.318-1.033-4.861-1.777C76.842,500.133,78.468,500.731,80.16,501.167z
		"/>
	<path style="fill:#4CC1EB;" d="M84.069,501.863c-0.89-0.09-1.767-0.225-2.628-0.401C82.302,501.638,83.179,501.773,84.069,501.863z
		"/>
	<path style="fill:#4CC1EB;" d="M292.268,501.462c-0.862,0.176-1.739,0.311-2.628,0.401
		C290.53,501.773,291.407,501.638,292.268,501.462z"/>
	<path style="fill:#4CC1EB;" d="M298.41,499.39c-1.543,0.743-3.169,1.342-4.861,1.777
		C295.241,500.731,296.867,500.133,298.41,499.39z"/>
</g>
<g>
	<path style="fill:#93CA66;" d="M313.406,36.473L313.406,36.473c0-14.621-11.852-26.473-26.472-26.473H86.776
		c-14.62,0-26.472,11.852-26.472,26.472l0,0v40.462h253.102V36.473z"/>
	<path style="fill:#93CA66;" d="M61.909,484.63c0.148,0.406,0.306,0.806,0.474,1.202c1.005,2.375,2.346,4.573,3.965,6.535
		c0.809,0.981,1.688,1.902,2.628,2.757c0.627,0.57,1.281,1.11,1.96,1.618c0.68,0.508,1.384,0.985,2.112,1.427s1.479,0.85,2.25,1.222
		c1.543,0.743,3.169,1.342,4.861,1.777c0.423,0.109,0.85,0.208,1.281,0.296c0.862,0.176,1.739,0.311,2.628,0.401
		c0.89,0.09,1.793,0.137,2.707,0.137h200.157c0.914,0,1.817-0.046,2.707-0.137s1.767-0.225,2.628-0.401
		c0.431-0.088,0.858-0.187,1.281-0.296c1.692-0.435,3.318-1.033,4.861-1.777c0.771-0.372,1.522-0.78,2.25-1.222
		s1.432-0.918,2.112-1.427c0.679-0.508,1.334-1.048,1.96-1.618c0.94-0.855,1.819-1.776,2.628-2.757
		c1.619-1.961,2.96-4.159,3.965-6.535c0.167-0.396,0.325-0.797,0.474-1.202c0.594-1.622,1.034-3.318,1.302-5.071
		c0.201-1.314,0.305-2.661,0.305-4.031v-40.462H60.303v40.462c0,1.371,0.104,2.717,0.305,4.031
		C60.876,481.312,61.316,483.008,61.909,484.63z"/>
</g>
<path style="fill:#EB5664;" d="M310.678,281.001c-6.783,3.913-15.138,3.913-21.921,0l-68.345-39.423v114.466h92.993h100.649
	c10.099,0,18.286-8.187,18.286-18.286V210.823L310.678,281.001z"/>
<path style="fill:#F39E54;" d="M220.412,241.579l68.345,39.423c6.783,3.913,15.138,3.913,21.921,0l121.663-70.178
	c0-0.631-0.032-1.255-0.094-1.87c-0.812-7.991-6.769-14.462-14.507-16.045c-1.19-0.244-2.423-0.372-3.685-0.372H313.406h-92.993
	v49.042H220.412z"/>
<path d="M50.303,76.935v358.131v40.462c0,20.111,16.361,36.473,36.473,36.473h200.157c20.111,0,36.473-16.361,36.473-36.473v-40.462
	v-69.021h90.649c15.597,0,28.286-12.689,28.286-28.286V210.823c0-15.597-12.689-28.286-28.286-28.286h-90.649V76.935V36.473
	C323.405,16.361,307.044,0,286.933,0H86.775C66.664,0,50.303,16.361,50.303,36.473V76.935z M303.405,475.527
	c0,9.083-7.39,16.473-16.473,16.473H86.775c-9.083,0-16.473-7.39-16.473-16.473v-30.462h233.103V475.527z M420.27,343.221
	c-0.074,0.084-0.148,0.167-0.226,0.248c-0.137,0.143-0.28,0.28-0.426,0.413c-0.073,0.066-0.144,0.135-0.219,0.199
	c-0.204,0.173-0.416,0.336-0.636,0.488c-0.023,0.016-0.045,0.035-0.068,0.051c-0.246,0.167-0.502,0.318-0.765,0.458
	c-0.079,0.042-0.162,0.077-0.242,0.117c-0.189,0.093-0.38,0.181-0.576,0.259c-0.101,0.04-0.204,0.076-0.307,0.113
	c-0.186,0.066-0.375,0.125-0.567,0.177c-0.107,0.029-0.215,0.058-0.323,0.083c-0.205,0.047-0.413,0.084-0.623,0.115
	c-0.098,0.015-0.194,0.033-0.293,0.045c-0.309,0.035-0.623,0.057-0.941,0.057h-90.649h-20h-72.993v-33.266l46.711-26.944
	l6.638,3.829c4.921,2.839,10.438,4.258,15.956,4.258c1.232,0,2.463-0.082,3.688-0.223c4.263-0.492,8.447-1.829,12.27-4.034
	l6.637-3.829l1.093,0.631l97.347,56.152c-0.04,0.055-0.081,0.11-0.123,0.164C420.514,342.933,420.395,343.079,420.27,343.221z
	 M230.412,289.691v-30.8l26.698,15.4L230.412,289.691z M422.341,320.446l-80.015-46.155l80.015-46.155L422.341,320.446
	L422.341,320.446z M414.055,202.537c0.319,0,0.632,0.022,0.941,0.057c0.099,0.011,0.196,0.03,0.294,0.045
	c0.21,0.031,0.417,0.068,0.622,0.115c0.109,0.025,0.217,0.054,0.325,0.084c0.192,0.052,0.38,0.112,0.566,0.177
	c0.103,0.036,0.206,0.073,0.307,0.113c0.197,0.078,0.388,0.166,0.576,0.259c0.08,0.039,0.163,0.075,0.242,0.117
	c0.263,0.14,0.52,0.291,0.765,0.458c0.024,0.016,0.045,0.035,0.068,0.051c0.22,0.153,0.432,0.315,0.636,0.488
	c0.076,0.064,0.147,0.134,0.221,0.201c0.146,0.133,0.289,0.269,0.425,0.412c0.077,0.081,0.152,0.164,0.226,0.248
	c0.125,0.142,0.245,0.289,0.36,0.439c0.042,0.054,0.082,0.109,0.123,0.164l-97.347,56.153l-1.093,0.63l-16.631,9.593
	c-3.679,2.12-8.249,2.122-11.928,0l-16.63-9.593l-46.711-26.945v-33.265h72.993h20h90.65V202.537z M70.303,36.473
	C70.303,27.39,77.692,20,86.775,20h200.157c9.083,0,16.473,7.39,16.473,16.473v30.462H70.303V36.473z M303.405,86.935v95.603
	h-72.993v-16.87c0-5.522-4.478-10-10-10s-10,4.478-10,10v26.87v49.041v65.425v49.042v27.657c0,5.522,4.478,10,10,10s10-4.478,10-10
	v-17.657h72.993v59.021H70.303V86.935H303.405z"/>
<path d="M229.898,33.467h-86.089c-5.522,0-10,4.478-10,10s4.478,10,10,10h86.089c5.522,0,10-4.478,10-10
	S235.421,33.467,229.898,33.467z"/>
<path d="M174.371,478.533h24.966c5.522,0,10-4.478,10-10s-4.478-10-10-10h-24.966c-5.522,0-10,4.478-10,10
	S168.849,478.533,174.371,478.533z"/>
<path d="M461.699,153.667c0-5.522-4.478-10-10-10H347.988c-5.522,0-10,4.478-10,10s4.478,10,10,10h103.711
	C457.222,163.667,461.699,159.189,461.699,153.667z"/>
<path d="M369.988,384c-5.522,0-10,4.478-10,10s4.478,10,10,10h22c5.522,0,10-4.478,10-10s-4.478-10-10-10H369.988z"/>
<path d="M214.86,133.979c0.54,0.36,1.12,0.67,1.73,0.92c0.6,0.25,1.229,0.44,1.87,0.57c0.64,0.13,1.3,0.2,1.95,0.2
	c0.649,0,1.31-0.07,1.949-0.2c0.641-0.13,1.271-0.32,1.87-0.57c0.61-0.25,1.19-0.56,1.73-0.92c0.55-0.359,1.06-0.779,1.52-1.239
	s0.88-0.971,1.24-1.521c0.36-0.54,0.67-1.12,0.92-1.729c0.25-0.601,0.45-1.23,0.57-1.87c0.13-0.641,0.2-1.301,0.2-1.95
	c0-0.65-0.07-1.311-0.2-1.96c-0.12-0.641-0.32-1.271-0.57-1.87s-0.56-1.18-0.92-1.72c-0.36-0.551-0.78-1.061-1.24-1.521
	s-0.97-0.88-1.52-1.25c-0.54-0.359-1.12-0.67-1.73-0.92c-0.6-0.25-1.229-0.439-1.87-0.57c-1.279-0.26-2.609-0.26-3.899,0
	c-0.641,0.131-1.271,0.32-1.87,0.57c-0.61,0.25-1.19,0.561-1.73,0.92c-0.55,0.37-1.06,0.79-1.52,1.25s-0.88,0.97-1.24,1.521
	c-0.359,0.54-0.67,1.12-0.92,1.72s-0.45,1.229-0.57,1.87c-0.13,0.649-0.199,1.31-0.199,1.96c0,2.63,1.069,5.21,2.93,7.07
	C213.801,133.2,214.311,133.62,214.86,133.979z"/>
<g>
</g>
<g>
</g>
<g>
</g>
<g>
</g>
<g>
</g>
<g>
</g>
<g>
</g>
<g>
</g>
<g>
</g>
<g>
</g>
<g>
</g>
<g>
</g>
<g>
</g>
<g>
</g>
<g>
</g>
</svg>
