<?xml version="1.0"?>
<svg xmlns="http://www.w3.org/2000/svg" height="512px" viewBox="-111 0 512 512" width="512px" class=""><g><path d="m246.464844 10.019531h-34.832032l-6.917968 34.175781c-1.792969 8.839844-9.5625 15.191407-18.578125 15.191407h-82.71875c-9.019531 0-16.789063-6.351563-18.578125-15.191407l-6.921875-34.175781h-34.828125c-18.277344 0-33.089844 14.816407-33.089844 33.089844v425.800781c0 18.273438 14.8125 33.089844 33.089844 33.089844h203.375c18.273437 0 33.089844-14.816406 33.089844-33.089844v-425.800781c-.003907-18.273437-14.816407-33.089844-33.089844-33.089844zm-41.019532 427c0 6.8125-5.523437 12.332031-12.335937 12.332031h-96.667969c-6.8125 0-12.335937-5.519531-12.335937-12.332031v-52.335937c0-6.8125 5.523437-12.332032 12.335937-12.332032h96.667969c6.8125 0 12.335937 5.519532 12.335937 12.332032zm-60.667968-119.519531c-53.714844 0-97.253906-43.542969-97.253906-97.253906 0-53.714844 43.539062-97.257813 97.253906-97.257813 53.710937 0 97.253906 43.542969 97.253906 97.253907 0 53.714843-43.542969 97.257812-97.253906 97.257812zm0 0" fill="#eef8fd" data-original="#EEF8FD" class="" style="fill:#EEF8FD"/><path d="m103.417969 59.390625h82.71875c9.015625 0 16.785156-6.355469 18.578125-15.195313l6.917968-34.171874.003907-.023438h-133.722657l.003907.019531 6.921875 34.175781c1.789062 8.839844 9.558594 15.195313 18.578125 15.195313zm0 0" fill="#56caf4" data-original="#56CAF4" style="fill:#56CAF4"/><path d="m144.777344 122.988281c-53.714844 0-97.253906 43.542969-97.253906 97.253907 0 53.714843 43.539062 97.253906 97.253906 97.253906 53.710937 0 97.253906-43.539063 97.253906-97.253906 0-53.710938-43.542969-97.253907-97.253906-97.253907zm48.695312 127h-30.566406v13.46875c0 9.460938-7.667969 17.132813-17.128906 17.132813-9.460938 0-17.132813-7.671875-17.132813-17.132813v-13.46875h-32.566406c-2.296875 0-3.691406-2.539062-2.460937-4.480469l5.6875-8.949218c.960937-1.511719 1.46875-3.265625 1.46875-5.054688v-13.519531c0-24.300781 19.699218-44 44.003906-44 24.300781 0 44 19.699219 44 44v13.519531c0 1.789063.511718 3.542969 1.46875 5.054688l5.6875 8.949218c1.230468 1.941407-.160156 4.480469-2.460938 4.480469zm0 0" fill="#ee4a77" data-original="#EE4A77" style="fill:#F60044" class="active-path" data-old_color="#F60045"/><path d="m190.246094 236.558594c-.957032-1.511719-1.46875-3.265625-1.46875-5.054688v-13.519531c0-24.300781-19.699219-44-44-44-24.304688 0-44.003906 19.699219-44.003906 44v13.519531c0 1.789063-.507813 3.542969-1.46875 5.054688l-5.6875 8.949218c-1.230469 1.941407.164062 4.480469 2.460937 4.480469h97.394531c2.300782 0 3.695313-2.539062 2.460938-4.480469zm0 0" fill="#ffca49" data-original="#FFCA49" style="fill:#FFCA49" class=""/><path d="m128.644531 263.457031c0 9.460938 7.671875 17.132813 17.132813 17.132813 9.460937 0 17.128906-7.671875 17.128906-17.132813v-13.46875h-34.261719zm0 0" fill="#ffca49" data-original="#FFCA49" style="fill:#FFCA49" class=""/><path d="m193.109375 372.347656h-96.667969c-6.8125 0-12.335937 5.523438-12.335937 12.335938v52.335937c0 6.808594 5.523437 12.332031 12.335937 12.332031h96.667969c6.8125 0 12.335937-5.523437 12.335937-12.332031v-52.335937c0-6.8125-5.523437-12.335938-12.335937-12.335938zm0 0" fill="#56caf4" data-original="#56CAF4" style="fill:#56CAF4"/><g fill="#231f20"><path d="m246.464844.0195312h-34.183594c-.214844-.0117187-.429688-.0195312-.644531-.0195312h-133.722657c-.214843 0-.429687.0078125-.640624.0195312h-34.183594c-23.761719 0-43.089844 19.3320308-43.089844 43.0898438v425.800781c0 23.761719 19.328125 43.089844 43.089844 43.089844h203.375c23.757812 0 43.089844-19.328125 43.089844-43.089844v-425.800781c-.003907-23.757813-19.332032-43.0898438-43.089844-43.0898438zm-47.0625 19.9999998-4.492188 22.191407c-.84375 4.15625-4.53125 7.175781-8.773437 7.175781h-82.722657c-4.242187 0-7.933593-3.019531-8.773437-7.175781l-4.492187-22.191407zm70.148437 448.890625c0 12.730469-10.355469 23.089844-23.089843 23.089844h-203.371094c-12.730469 0-23.089844-10.359375-23.089844-23.089844v-425.800781c0-12.730469 10.355469-23.089844 23.089844-23.089844h26.652344l5.296874 26.160157c2.722657 13.449218 14.65625 23.207031 28.378907 23.207031h82.71875c13.71875 0 25.652343-9.757813 28.378906-23.207031l5.296875-26.160157h26.652344c12.730468 0 23.089844 10.359375 23.089844 23.089844v425.800781zm0 0" data-original="#000000" class="" style="fill:#000000" data-old_color="#000000"/><path d="m114.773438 44.695312h30.003906c5.519531 0 10-4.480468 10-10 0-5.523437-4.480469-10-10-10h-30.003906c-5.519532 0-10 4.476563-10 10 0 5.519532 4.480468 10 10 10zm0 0" data-original="#000000" class="" style="fill:#000000" data-old_color="#000000"/><path d="m144.777344 112.988281c-10.109375 0-20.113282 1.40625-29.738282 4.179688-5.308593 1.53125-8.371093 7.070312-6.84375 12.378906 1.53125 5.308594 7.074219 8.375 12.378907 6.839844 7.824219-2.253907 15.96875-3.394531 24.203125-3.394531 48.109375 0 87.253906 39.140624 87.253906 87.253906 0 48.109375-39.144531 87.25-87.253906 87.25-48.113282 0-87.253906-39.140625-87.253906-87.253906 0-13.886719 3.160156-27.15625 9.398437-39.4375.351563-.691407.710937-1.378907 1.078125-2.0625 2.632812-4.851563.828125-10.921876-4.027344-13.554688-4.855468-2.628906-10.925781-.828125-13.554687 4.027344-.453125.835937-.898438 1.679687-1.328125 2.53125-7.675782 15.113281-11.566406 31.433594-11.566406 48.496094 0 59.140624 48.113281 107.253906 107.253906 107.253906 59.136718 0 107.253906-48.113282 107.253906-107.253906 0-59.140626-48.117188-107.253907-107.253906-107.253907zm0 0" data-original="#000000" class="" style="fill:#000000" data-old_color="#000000"/><path d="m90.773438 231.335938-5.59375 8.808593c-2.527344 3.976563-2.691407 9.015625-.421876 13.144531 2.269532 4.132813 6.605469 6.699219 11.320313 6.699219h22.566406v3.46875c0 14.960938 12.171875 27.132813 27.128907 27.132813 14.960937 0 27.132812-12.171875 27.132812-27.132813v-3.46875h20.566406c4.710938 0 9.050782-2.566406 11.316406-6.699219 2.269532-4.128906 2.109376-9.167968-.417968-13.140624l-5.59375-8.8125v-13.351563c0-26.359375-18.988282-48.371094-44.003906-53.074219v-6.835937c0-5.519531-4.476563-10-10-10-5.519532 0-10 4.480469-10 10v6.835937c-25.015626 4.703125-44 26.714844-44 53.074219zm62.132812 32.121093c0 3.933594-3.199219 7.132813-7.128906 7.132813-3.933594 0-7.132813-3.199219-7.132813-7.132813v-3.46875h14.261719zm-42.132812-31.953125v-13.519531c0-18.746094 15.253906-34 34.003906-34 18.746094 0 34 15.253906 34 34v13.519531c0 2.953125.667968 5.847656 1.949218 8.484375h-71.902343c1.28125-2.636719 1.949219-5.53125 1.949219-8.484375zm0 0" data-original="#000000" class="" style="fill:#000000" data-old_color="#000000"/><path d="m193.109375 362.347656h-96.667969c-12.316406 0-22.335937 10.019532-22.335937 22.335938v52.335937c0 12.316407 10.019531 22.332031 22.335937 22.332031h96.667969c12.316406 0 22.335937-10.015624 22.335937-22.332031v-52.335937c0-12.316406-10.019531-22.335938-22.335937-22.335938zm-3.722656 20-39.933594 22.847656c-2.882813 1.648438-6.46875 1.648438-9.355469 0l-39.933594-22.847656zm3.722656 57.003906h-96.667969c-1.289062 0-2.335937-1.046874-2.335937-2.332031v-35.09375l36.0625 20.628907c4.503906 2.578124 9.558593 3.867187 14.609375 3.867187 5.050781 0 10.101562-1.289063 14.609375-3.867187l36.058593-20.628907v35.09375c0 1.285157-1.046874 2.332031-2.335937 2.332031zm0 0" data-original="#000000" class="" style="fill:#000000" data-old_color="#000000"/><path d="m83.113281 155.035156h.023438c5.523437 0 9.988281-4.476562 9.988281-10 0-5.519531-4.492188-10-10.015625-10-5.519531 0-10 4.480469-10 10 0 5.523438 4.480469 10 10.003906 10zm0 0" data-original="#000000" class="" style="fill:#000000" data-old_color="#000000"/></g></g> </svg>
