<?xml version="1.0" encoding="UTF-8"?>
<svg width="477px" height="438px" viewBox="0 0 477 438" version="1.1" xmlns="http://www.w3.org/2000/svg" xmlns:xlink="http://www.w3.org/1999/xlink">
    <!-- Generator: Sketch 52.2 (67145) - http://www.bohemiancoding.com/sketch -->
    <title>Untitled</title>
    <desc>Created with Sketch.</desc>
    <g id="Page-1" stroke="none" stroke-width="1" fill="none" fill-rule="evenodd">
        <g id="ozellik-shape" fill="#F8F8F8">
            <path d="M401.6,34 C415.74,47.13 464.49,95.54 474.47,173.54 C482.62,237.21 460.88,289.02 449.8,310.88 C448.91,312.63 448.15,314.07 447.64,315.04 L410.22,365.13 C404.76,371.44 398.87,377.85 392.5,384.28 C375.228458,401.732785 356.359289,417.528516 336.14,431.46 C334.45,431.92 331.91,432.59 328.8,433.29 C279.56,444.5 236.8,432.15 199.47,420.88 C168.72,411.6 149.18,401.79 144.85,399.69 C132.28,393.6 118.51,385.24 97.97,370.38 C50.97,336.38 23.22,278.88 23.22,278.88 C23.22,278.88 6.22,243.88 1.47,202.13 C-3.28,160.38 29.47,76.88 29.47,76.88 C33.4459761,69.4431414 38.2861499,62.5017549 43.89,56.2 C56.0717021,42.7032444 71.379323,32.4020189 88.47,26.2 C190.027238,-11.1961451 302.03062,-8.40616529 401.6,34 Z" id="Path"></path>
        </g>
    </g>
</svg>