<svg height="512pt" viewBox="0 0 512 512" width="512pt" xmlns="http://www.w3.org/2000/svg"><path d="m453.082031 502.007812h-394.601562c-26.894531 0-48.699219-21.804687-48.699219-48.699218v-394.597656c0-26.898438 21.804688-48.703126 48.699219-48.703126h394.601562c26.894531 0 48.699219 21.804688 48.699219 48.703126v394.597656c0 26.894531-21.804688 48.699218-48.699219 48.699218zm0 0" fill="#e1f4fd"/><path d="m348.230469 372.367188h-290.164063c-7.710937 0-13.964844 6.253906-13.964844 13.964843v67.4375c0 7.714844 6.253907 13.96875 13.964844 13.96875h303.382813v-95.371093zm0 0" fill="#3fc5f2"/><path d="m454.195312 372.367188h-92.746093v95.371093h92.746093c7.714844 0 13.964844-6.253906 13.964844-13.96875v-67.4375c0-7.710937-6.25-13.964843-13.964844-13.964843zm0 0" fill="#ff9274"/><path d="m374.214844 160.152344c0 33.503906-14.222656 63.691406-36.949219 84.851562-1.023437.945313-2.050781 1.871094-3.097656 2.777344-2.097657 1.773438-4.207031 3.519531-6.402344 5.164062-2.363281 1.765626-4.796875 3.449219-7.289063 5.035157-7.8125-26.941407-32.671874-46.640625-62.132812-46.640625s-54.324219 19.699218-62.132812 46.640625c-2.496094-1.585938-4.929688-3.269531-7.292969-5.035157-2.195313-1.644531-4.304688-3.390624-6.402344-5.164062-1.046875-.90625-2.074219-1.832031-3.09375-2.777344-22.730469-21.160156-36.953125-51.347656-36.953125-84.851562 0-63.996094 51.878906-115.871094 115.875-115.871094 63.992188 0 115.871094 51.878906 115.871094 115.871094zm0 0" fill="#fcdd6d"/><path d="m323.03125 276.03125c0 35.730469-28.960938 64.691406-64.6875 64.691406-35.730469 0-64.691406-28.960937-64.691406-64.691406 0-35.726562 28.960937-64.691406 64.691406-64.691406 35.726562 0 64.6875 28.964844 64.6875 64.691406zm0 0" fill="#c4aea7"/><path d="m337.265625 212.039062v32.964844c-1.019531.945313-2.050781 1.871094-3.097656 2.777344-2.09375 1.773438-4.207031 3.519531-6.402344 5.164062-2.359375 1.765626-4.796875 3.449219-7.289063 5.035157-7.808593-26.941407-32.671874-46.640625-62.132812-46.640625s-54.324219 19.699218-62.132812 46.640625c-2.492188-1.585938-4.929688-3.269531-7.289063-5.035157-2.199219-1.644531-4.308594-3.390624-6.402344-5.164062-1.050781-.90625-2.078125-1.832031-3.097656-2.777344v-32.964844c0-29.289062 23.738281-53.03125 53.019531-53.03125h51.804688c29.277344.003907 53.019531 23.742188 53.019531 53.03125zm0 0" fill="#00e5be"/><path d="m299.078125 118.605469c0 22.316406-18.089844 40.410156-40.40625 40.410156s-40.40625-18.09375-40.40625-40.410156c0-22.316407 18.089844-40.40625 40.40625-40.40625s40.40625 18.089843 40.40625 40.40625zm0 0" fill="#00e5be"/><path d="m454.414062 362.359375h-105.964843c-5.523438 0-10 4.476563-10 10s4.476562 10 10 10h3.21875v75.371094h-293.382813c-2.1875 0-3.964844-1.78125-3.964844-3.96875v-67.4375c0-2.1875 1.777344-3.964844 3.964844-3.964844h220.765625c5.523438 0 10-4.476563 10-10s-4.476562-10-10-10h-220.765625c-13.214844 0-23.964844 10.75-23.964844 23.964844v67.4375c0 13.214843 10.75 23.96875 23.964844 23.96875h396.128906c13.214844 0 23.964844-10.753907 23.964844-23.96875v-67.4375c0-13.214844-10.75-23.964844-23.964844-23.964844zm3.964844 91.402344c0 2.1875-1.777344 3.964843-3.964844 3.964843h-82.746093v-75.371093h82.746093c2.1875 0 3.964844 1.78125 3.964844 3.96875zm0 0"/><path d="m432.246094 390.269531c-5.519532 0-10 4.476563-10 10v14.648438c0 .835937-.679688 1.515625-1.515625 1.515625h-7.964844c3.378906-3.714844 3.5-9.460938.105469-13.320313-3.648438-4.148437-9.96875-4.550781-14.113282-.902343l-18.710937 16.460937c-2.136719 1.882813-3.371094 4.585937-3.394531 7.433594 0 .054687.007812.113281.007812.167969 0 .054687-.007812.105468-.007812.160156 0 3.617187 1.925781 6.773437 4.796875 8.53125l17.195312 15.59375c1.914063 1.738281 4.320313 2.59375 6.714844 2.59375 2.722656 0 5.4375-1.105469 7.410156-3.285156 3.492188-3.84375 3.421875-9.667969 0-13.433594h7.960938c11.867187 0 21.519531-9.652344 21.519531-21.519532v-14.644531c-.003906-5.519531-4.480469-10-10.003906-10zm0 0"/><path d="m172.84375 252.332031c1.152344 1.070313 2.25 2.054688 3.347656 3.003907.03125.023437.058594.046874.085938.070312 1.988281 1.683594 4.359375 3.65625 6.867187 5.539062.652344.488282 1.332031.957032 1.996094 1.433594-.820313 4.425782-1.273437 8.984375-1.273437 13.644532 0 41.1875 33.507812 74.691406 74.691406 74.691406s74.691406-33.503906 74.691406-74.691406c0-4.660157-.449219-9.21875-1.273438-13.644532.671876-.480468 1.347657-.949218 2.003907-1.441406 2.523437-1.890625 4.886719-3.859375 6.863281-5.53125.027344-.023438.054688-.046875.082031-.070312 1.101563-.953126 2.195313-1.933594 3.351563-3.003907.003906 0 .003906-.003906.007812-.003906.003906-.003906.007813-.007813.011719-.011719 25.507813-23.75 40.136719-57.34375 40.136719-92.171875 0-69.40625-56.464844-125.871093-125.871094-125.871093s-125.875 56.464843-125.875 125.871093c0 34.828125 14.628906 68.421875 40.15625 92.1875zm86.21875-103.332031h-.34375c-16.6875-.09375-30.234375-13.691406-30.234375-30.402344 0-16.765625 13.640625-30.40625 30.40625-30.40625s30.40625 13.640625 30.40625 30.40625c0 16.710938-13.546875 30.308594-30.234375 30.402344zm-26.402344 20h26.058594c.058594 0 .113281.003906.171875.003906s.117187-.003906.171875-.003906h25.398438c23.722656 0 43.023437 19.304688 43.023437 43.03125v28.480469c-.175781.144531-.347656.292969-.527344.441406-.148437.125-.292969.246094-.445312.375-.410157.34375-.835938.695313-1.269531 1.046875-.859376-1.695312-1.789063-3.347656-2.769532-4.964844-10.160156-16.753906-26.898437-29.132812-45.917968-33.859375-20.042969-4.984375-41.675782-1.296875-58.929688 10.050781-9.28125 6.105469-17.214844 14.304688-22.976562 23.808594-.980469 1.613282-1.910157 3.269532-2.769532 4.964844-.769531-.628906-1.511718-1.25-2.242187-1.867188v-28.476562c0-23.726562 19.300781-43.03125 43.023437-43.03125zm25.898438 161.714844c-30.15625 0-54.691406-24.535156-54.691406-54.691406 0-5.59375.851562-10.996094 2.417968-16.085938.035156-.109375.070313-.21875.105469-.328125.246094-.785156.507813-1.558594.789063-2.324219.007812-.023437.015624-.046875.023437-.070312 1.214844-3.308594 2.742187-6.46875 4.546875-9.441406 8.421875-13.859376 22.917969-23.507813 38.972656-25.859376 16.273438-2.382812 33.054688 2.964844 45.09375 14.136719 6.976563 6.476563 12.222656 14.785157 15.019532 23.890625 1.566406 5.085938 2.414062 10.488282 2.414062 16.082032 0 30.15625-24.53125 54.691406-54.691406 54.691406zm0-276.445313c58.378906 0 105.875 47.496094 105.875 105.875 0 20.46875-6.015625 40.429688-16.953125 57.410157v-5.523438c0-30.136719-21.261719-55.386719-49.566407-61.570312 7.109376-8.691407 11.382813-19.785157 11.382813-31.863282 0-27.792968-22.613281-50.40625-50.40625-50.40625-27.796875 0-50.410156 22.613282-50.410156 50.40625 0 12.019532 4.234375 23.0625 11.28125 31.734375-28.585938 5.96875-50.125 31.363281-50.125 61.699219v5.519531c-10.9375-16.984375-16.949219-36.941406-16.949219-57.40625 0-58.378906 47.496094-105.875 105.871094-105.875zm0 0"/><path d="m82.5625 426.277344c-5.523438 0-10 4.480468-10 10 0 5.523437 4.476562 10 10 10h35.601562c5.523438 0 10-4.476563 10-10 0-5.519532-4.476562-10-10-10zm0 0"/><path d="m258.890625 232.027344c-13.101563 0-23.761719 10.660156-23.761719 23.765625 0 5.523437 4.476563 10 10 10 5.523438 0 10-4.476563 10-10 0-2.074219 1.6875-3.765625 3.761719-3.765625s3.761719 1.691406 3.761719 3.765625c0 1.144531-.511719 2.214843-1.40625 2.933593-7.851563 6.328126-12.355469 15.832032-12.355469 26.082032 0 5.523437 4.476563 10 10 10s10-4.476563 10-10c0-4.167969 1.789063-7.996094 4.902344-10.507813 5.628906-4.535156 8.859375-11.28125 8.859375-18.507812 0-13.105469-10.660156-23.765625-23.761719-23.765625zm0 0"/><path d="m268.121094 308.070312c-1.636719-3.925781-5.6875-6.457031-9.941406-6.148437-4.152344.300781-7.746094 3.234375-8.894532 7.230469-1.148437 4 .382813 8.457031 3.785156 10.871094 3.367188 2.394531 7.925782 2.464843 11.371094.1875 3.941406-2.609376 5.460938-7.792969 3.679688-12.140626zm0 0"/><path d="m322.21875 366.808594c-2.347656-3.585938-6.953125-5.246094-11.058594-4.0625-4.011718 1.152344-6.964844 4.785156-7.230468 8.960937-.253907 4.003907 1.960937 7.84375 5.558593 9.613281 3.890625 1.917969 8.738281 1.054688 11.710938-2.117187 3.144531-3.351563 3.574219-8.570313 1.019531-12.394531zm0 0"/><path d="m453.300781 0h-394.601562c-32.367188 0-58.699219 26.332031-58.699219 58.699219v394.601562c0 32.367188 26.332031 58.699219 58.699219 58.699219h394.601562c32.367188 0 58.699219-26.332031 58.699219-58.699219v-394.601562c0-32.367188-26.332031-58.699219-58.699219-58.699219zm38.699219 453.300781c0 21.339844-17.359375 38.699219-38.699219 38.699219h-394.601562c-21.339844 0-38.699219-17.359375-38.699219-38.699219v-394.601562c0-21.339844 17.359375-38.699219 38.699219-38.699219h394.601562c21.339844 0 38.699219 17.359375 38.699219 38.699219zm0 0"/></svg>