<svg height="512pt" viewBox="-2 0 512 512" width="512pt" xmlns="http://www.w3.org/2000/svg"><path d="m70.265625 381.472656c-33.285156 0-60.265625 26.980469-60.265625 60.261719 0 33.285156 26.980469 60.265625 60.265625 60.265625h286.03125v-120.527344zm0 0" fill="#eef8fd"/><path d="m437.601562 381.472656h-81.304687v120.527344h81.304687c33.28125 0 60.261719-26.980469 60.261719-60.265625 0-33.28125-26.980469-60.261719-60.261719-60.261719zm0 0" fill="#ee4a77"/><path d="m130.03125 337.859375h247.800781c14.863281 0 26.914063-12.050781 26.914063-26.917969v-137.613281c0-14.863281-12.050782-26.914063-26.914063-26.914063h-59.703125c-14.242187 17.199219-35.265625 28.578126-58.972656 30.046876l-.027344.003906c-.222656.011718-.445312.023437-.667968.035156-.03125.003906-.058594.003906-.089844.007812-.457032.023438-.917969.042969-1.375.058594-.058594.003906-.113282.003906-.167969.007813-.179687.003906-.359375.011719-.542969.015625-.050781 0-.101562.003906-.152344.003906-.21875.007812-.433593.011719-.652343.015625-.058594 0-.117188 0-.175781 0-.164063.003906-.328126.007813-.492188.007813-.078125 0-.152344.003906-.226562.003906-.203126 0-.402344 0-.605469 0-.015625 0-.03125 0-.050781 0-.015626 0-.03125 0-.046876 0-.203124 0-.40625 0-.605468 0-.078125-.003906-.152344-.003906-.226563-.003906-.164062 0-.328125-.003907-.492187-.007813-.058594 0-.117188 0-.175782 0-.21875-.003906-.4375-.011719-.65625-.015625-.050781 0-.101562-.003906-.152343-.003906-.179688-.003906-.359375-.011719-.539063-.015625-.054687-.003907-.113281-.003907-.167968-.007813-.460938-.015625-.917969-.035156-1.378907-.058594-.027343-.003906-.058593-.003906-.085937-.007812-.222656-.011719-.445313-.023438-.667969-.035156l-.03125-.003906c-23.707031-1.46875-44.726563-12.847657-58.96875-30.046876h-59.703125c-14.867188 0-26.917969 12.050782-26.917969 26.914063v137.617187c.003907 14.863282 12.054688 26.914063 26.917969 26.914063zm0 0" fill="#56caf4"/><g fill="#eef8fd"><path d="m257.445312 115.558594c.027344-.003906.050782-.003906.078126-.007813-.027344.003907-.050782.003907-.078126.007813zm0 0"/><path d="m250.734375 115.59375c.019531 0 .039063.003906.054687.003906-.015624 0-.035156-.003906-.054687-.003906zm0 0"/><path d="m256.195312 115.671875c.046876-.003906.097657-.007813.144532-.011719-.046875.003906-.097656.007813-.144532.011719zm0 0"/><path d="m256.609375 115.640625c.042969-.003906.085937-.007813.128906-.011719-.042969.003906-.085937.007813-.128906.011719zm0 0"/><path d="m251.125 115.628906c.042969.003906.085938.007813.128906.011719-.042968-.003906-.085937-.007813-.128906-.011719zm0 0"/><path d="m253.933594 115.753906c.40625 0 .8125-.007812 1.214844-.023437-.402344.015625-.808594.023437-1.214844.023437-.410156 0-.816406-.007812-1.21875-.023437.402344.015625.808594.023437 1.21875.023437zm0 0"/><path d="m250.339844 115.550781c.027344.003907.054687.003907.082031.007813-.027344-.003906-.054687-.003906-.082031-.007813zm0 0"/><path d="m252.316406 115.710938c.097656.007812.191406.011718.289063.015624-.097657-.003906-.195313-.007812-.289063-.015624zm0 0"/><path d="m257.074219 115.597656c.019531 0 .035156-.003906.054687-.003906-.019531 0-.035156.003906-.054687.003906zm0 0"/><path d="m255.722656 115.703125c.074219-.003906.148438-.007813.226563-.015625-.078125.007812-.152344.011719-.226563.015625zm0 0"/><path d="m251.523438 115.660156c.046874.003906.097656.007813.144531.011719-.046875-.003906-.097657-.007813-.144531-.011719zm0 0"/><path d="m251.914062 115.6875c.078126.007812.152344.011719.230469.015625-.078125-.003906-.152343-.007813-.230469-.015625zm0 0"/><path d="m255.257812 115.726562c.097657-.003906.191407-.007812.289063-.015624-.09375.007812-.191406.011718-.289063.015624zm0 0"/><path d="m252.382812 176.609375c-.21875-.003906-.4375-.007813-.652343-.015625.214843.007812.433593.011719.652343.015625zm0 0"/><path d="m249.402344 176.5c-.222656-.011719-.445313-.023438-.667969-.035156.222656.011718.445313.023437.667969.035156zm0 0"/><path d="m256.136719 176.59375c-.21875.007812-.4375.011719-.65625.015625.21875-.003906.4375-.007813.65625-.015625zm0 0"/><path d="m256.828125 176.574219c-.179687.003906-.359375.011719-.539063.015625.179688-.003906.359376-.011719.539063-.015625zm0 0"/><path d="m253.050781 176.617188c-.164062 0-.328125-.003907-.492187-.007813.164062.003906.328125.007813.492187.007813zm0 0"/><path d="m255.304688 176.609375c-.164063.003906-.328126.007813-.492188.007813.164062 0 .328125-.003907.492188-.007813zm0 0"/><path d="m258.371094 176.507812c-.457032.023438-.914063.042969-1.375.058594.460937-.015625.917968-.035156 1.375-.058594zm0 0"/><path d="m251.574219 176.589844c-.179688-.003906-.359375-.011719-.539063-.015625.179688.003906.359375.011719.539063.015625zm0 0"/><path d="m250.867188 176.566406c-.460938-.015625-.917969-.035156-1.375-.058594.457031.023438.914062.042969 1.375.058594zm0 0"/><path d="m248.707031 176.460938c-14.042969-.871094-27.140625-5.226563-38.449219-12.203126v-19.914062c0-16.042969 8.652344-30.058594 21.542969-37.648438-5.824219-5.726562-9.4375-13.699218-9.4375-22.511718 0-17.433594 14.132813-31.566406 31.566407-31.566406 17.433593 0 31.570312 14.132812 31.570312 31.566406 0 8.8125-3.613281 16.785156-9.4375 22.511718 12.890625 7.589844 21.542969 21.605469 21.542969 37.648438v19.914062c-11.308594 6.976563-24.40625 11.332032-38.449219 12.203126 23.707031-1.46875 44.726562-12.847657 58.972656-30.046876 11.9375-14.417968 19.113282-32.921874 19.113282-53.101562 0-46.011719-37.296876-83.3125-83.308594-83.3125-46.011719 0-83.3125 37.300781-83.3125 83.3125 0 20.179688 7.175781 38.683594 19.113281 53.101562 14.242187 17.199219 35.265625 28.578126 58.972656 30.046876zm0 0"/><path d="m259.128906 176.464844c-.222656.011718-.445312.023437-.667968.035156.222656-.011719.445312-.023438.667968-.035156zm0 0"/></g><path d="m297.609375 144.34375c0-16.042969-8.65625-30.054688-21.546875-37.648438 5.824219-5.726562 9.4375-13.699218 9.4375-22.511718 0-17.433594-14.132812-31.566406-31.566406-31.566406s-31.570313 14.132812-31.570313 31.566406c0 8.816406 3.613281 16.785156 9.4375 22.511718-12.890625 7.59375-21.542969 21.605469-21.542969 37.648438v19.914062c11.308594 6.976563 24.40625 11.332032 38.449219 12.203126l.03125.003906c.222657.011718.445313.023437.667969.039062.03125 0 .058594 0 .085938.003906.460937.023438.917968.042969 1.378906.058594.054687.003906.113281.003906.167968.007813.179688.003906.359376.011719.539063.015625.050781.003906.101563.003906.152344.003906.21875.007812.4375.011719.65625.015625.058593 0 .117187 0 .175781.003906.164062 0 .328125.003907.492188.003907.074218.003906.148437.003906.226562.003906.199219 0 .402344.003906.605469.003906h.046875.050781c.203125 0 .40625-.003906.605469-.003906.074218 0 .148437 0 .226562-.003906.164063 0 .328125-.003907.492188-.003907.058594-.003906.117187-.003906.175781-.003906.21875-.003906.4375-.007813.652344-.015625.050781 0 .101562 0 .152343-.003906.183594-.003906.363282-.011719.542969-.015625.054688-.003907.109375-.003907.167969-.007813.460938-.015625.917969-.035156 1.375-.058594.03125-.003906.058594-.003906.089844-.003906.222656-.015625.445312-.027344.667968-.039062l.027344-.003906c14.042969-.871094 27.144532-5.226563 38.453125-12.203126v-19.914062zm-42.460937-28.613281c-.402344.011719-.808594.023437-1.214844.023437-.410156 0-.816406-.011718-1.21875-.023437.402344.011719.808594.023437 1.21875.023437.40625 0 .8125-.007812 1.214844-.023437zm3.152343-.277344c-.003906 0-.007812 0-.011719 0zm-.777343.097656c-.027344.003907-.050782.003907-.078126.007813.027344-.003906.050782-.003906.078126-.007813zm-.394532.042969c-.019531 0-.035156.003906-.054687.003906.019531 0 .035156-.003906.054687-.003906zm-.390625.035156c-.042969.003906-.085937.007813-.128906.011719.042969-.003906.085937-.007813.128906-.011719zm-.398437.03125c-.046875.003906-.097656.007813-.144532.011719.046876-.003906.097657-.007813.144532-.011719zm-.390625.027344c-.078125.007812-.152344.011719-.226563.015625.074219-.003906.148438-.007813.226563-.015625zm-.402344.023438c-.097656.007812-.191406.011718-.289063.015624.097657-.003906.195313-.007812.289063-.015624zm-5.972656-.257813c-.003907 0-.007813 0-.007813 0zm3.03125.273437c-.097657-.003906-.191407-.007812-.289063-.015624.09375.007812.191406.011718.289063.015624zm-.460938-.023437c-.078125-.003906-.152343-.007813-.230469-.015625.078126.007812.152344.011719.230469.015625zm-.476562-.03125c-.046875-.003906-.097657-.007813-.144531-.011719.046874.003906.097656.007813.144531.011719zm-.414063-.03125c-.042968-.003906-.085937-.007813-.128906-.011719.042969.003906.085938.007813.128906.011719zm-.464844-.042969c-.015624 0-.035156-.003906-.054687-.003906.019531 0 .039063.003906.054687.003906zm-.367187-.039062c-.027344-.003906-.054687-.003906-.082031-.007813.027344.003907.054687.003907.082031.007813zm0 0" fill="#ffca49"/><path d="m437.601562 371.472656h-367.335937c-38.746094 0-70.265625 31.519532-70.265625 70.261719 0 38.746094 31.519531 70.265625 70.265625 70.265625h367.335937c38.742188 0 70.261719-31.519531 70.261719-70.265625 0-38.742187-31.519531-70.261719-70.261719-70.261719zm-417.601562 70.261719c0-27.714844 22.546875-50.261719 50.265625-50.261719h276.03125v100.527344h-276.03125c-27.71875 0-50.265625-22.546875-50.265625-50.265625zm417.601562 50.265625h-71.304687v-100.527344h71.304687c27.714844 0 50.261719 22.546875 50.261719 50.261719 0 27.71875-22.546875 50.265625-50.261719 50.265625zm0 0" fill="#231f20"/><path d="m431.363281 411.585938c-3.546875-4.230469-9.855469-4.785157-14.085937-1.234376-4.230469 3.546876-4.785156 9.855469-1.238282 14.085938l6.121094 7.296875h-19.945312c-5.523438 0-10 4.480469-10 10 0 5.523437 4.476562 10 10 10h19.945312l-6.121094 7.300781c-3.546874 4.230469-2.992187 10.539063 1.238282 14.085938 1.871094 1.570312 4.152344 2.339844 6.421875 2.339844 2.851562 0 5.6875-1.21875 7.664062-3.574219l19.898438-23.726563c3.117187-3.714844 3.117187-9.132812 0-12.851562zm0 0" fill="#231f20"/><path d="m102.671875 421.675781c-3.90625-3.902343-10.234375-3.902343-14.140625 0l-5.917969 5.917969-5.914062-5.917969c-3.90625-3.902343-10.234375-3.902343-14.144531 0-3.90625 3.90625-3.90625 10.238281 0 14.144531l5.917968 5.914063-5.917968 5.917969c-3.90625 3.90625-3.90625 10.238281 0 14.144531 1.953124 1.949219 4.511718 2.925781 7.070312 2.925781s5.117188-.976562 7.070312-2.925781l5.917969-5.917969 5.914063 5.917969c1.953125 1.949219 4.511718 2.925781 7.074218 2.925781 2.558594 0 5.117188-.976562 7.070313-2.925781 3.902344-3.90625 3.902344-10.238281 0-14.144531l-5.917969-5.917969 5.917969-5.914063c3.90625-3.90625 3.90625-10.238281 0-14.144531zm0 0" fill="#231f20"/><path d="m174.992188 421.675781c-3.902344-3.902343-10.234376-3.902343-14.140626 0l-5.917968 5.917969-5.914063-5.917969c-3.90625-3.902343-10.234375-3.902343-14.144531 0-3.902344 3.90625-3.902344 10.238281 0 14.144531l5.917969 5.914063-5.917969 5.917969c-3.902344 3.90625-3.902344 10.238281 0 14.144531 1.953125 1.949219 4.511719 2.925781 7.070312 2.925781 2.5625 0 5.121094-.976562 7.074219-2.925781l5.914063-5.917969 5.917968 5.917969c1.953126 1.949219 4.511719 2.925781 7.070313 2.925781s5.117187-.976562 7.070313-2.925781c3.90625-3.90625 3.90625-10.238281 0-14.144531l-5.917969-5.917969 5.917969-5.914063c3.90625-3.90625 3.90625-10.238281 0-14.144531zm0 0" fill="#231f20"/><path d="m247.3125 421.675781c-3.90625-3.902343-10.234375-3.902343-14.140625 0l-5.917969 5.917969-5.914062-5.917969c-3.90625-3.902343-10.234375-3.902343-14.144532 0-3.90625 3.90625-3.90625 10.238281 0 14.144531l5.917969 5.914063-5.917969 5.917969c-3.90625 3.90625-3.90625 10.238281 0 14.144531 1.953126 1.949219 4.511719 2.925781 7.070313 2.925781s5.121094-.976562 7.074219-2.925781l5.914062-5.917969 5.917969 5.917969c1.949219 1.949219 4.511719 2.925781 7.070313 2.925781 2.558593 0 5.117187-.976562 7.070312-2.925781 3.90625-3.90625 3.90625-10.238281 0-14.144531l-5.917969-5.917969 5.917969-5.914063c3.90625-3.90625 3.90625-10.238281 0-14.144531zm0 0" fill="#231f20"/><path d="m313.71875 441.734375 5.917969-5.914063c3.902343-3.90625 3.902343-10.238281 0-14.144531-3.90625-3.902343-10.238281-3.902343-14.144531 0l-5.917969 5.917969-5.914063-5.917969c-3.90625-3.902343-10.234375-3.902343-14.144531 0-3.902344 3.90625-3.902344 10.238281 0 14.144531l5.917969 5.914063-5.917969 5.917969c-3.902344 3.90625-3.902344 10.238281 0 14.144531 1.953125 1.949219 4.511719 2.925781 7.074219 2.925781 2.558594 0 5.117187-.976562 7.070312-2.925781l5.914063-5.917969 5.917969 5.917969c1.953124 1.949219 4.511718 2.925781 7.070312 2.925781s5.117188-.976562 7.070312-2.925781c3.90625-3.90625 3.90625-10.238281 0-14.144531zm0 0" fill="#231f20"/><path d="m403.335938 146.652344c-.019532-.019532-.035157-.035156-.054688-.054688-.003906-.003906-.011719-.007812-.015625-.011718-.039063-.039063-.082031-.078126-.121094-.117188l-.007812-.003906c-.371094-.355469-.753907-.699219-1.136719-1.035156-.042969-.035157-4.128906-3.101563-4.15625-3.121094-.414062-.261719-3.160156-1.832032-3.402344-1.945313-.914062-.46875-4.191406-1.808593-4.226562-1.820312-.832032-.296875-5.890625-1.5625-6.367188-1.636719-1.992187-.328125-4.015625-.496094-6.015625-.496094h-41.140625c6.875-13.226562 10.550782-28.027344 10.550782-43.101562 0-51.449219-41.859376-93.308594-93.308594-93.308594-51.453125 0-93.3125 41.859375-93.3125 93.308594 0 15.074218 3.675781 29.875 10.554687 43.101562h-41.144531c-2 0-4.023438.167969-6.015625.496094-.476563.074219-.953125.160156-1.417969.257812-.5625.109376-2.226562.53125-2.570312.632813-.761719.203125-1.542969.445313-2.378906.746094-.03125.011719-4.710938 2.058593-4.953126 2.1875-.039062.019531-.078124.042969-.113281.0625-.378906.207031-2.148437 1.25-2.558593 1.515625-.03125.019531-2.375 1.664062-2.796876 1.996094-.402343.316406-1.320312 1.085937-1.363281 1.125-.425781.371093-.851562.757812-1.265625 1.15625-.011718.011718-.023437.023437-.035156.035156-.007812.007812-.015625.015625-.027344.023437-7.253906 6.917969-11.414062 16.636719-11.414062 26.683594v137.613281c0 7.0625 2 13.929688 5.785156 19.855469.578125.902344 1.277344 1.683594 2.066406 2.335937.417969.929688.988282 1.804688 1.703125 2.597657 6.988281 7.707031 16.960938 12.128906 27.359375 12.128906h18.195313.074219 229.527343.160157c10.339843-.046875 20.242187-4.460937 27.195312-12.128906 0-.003907 0-.003907 0-.003907l.003906-.003906c6.15625-6.796875 9.550782-15.601562 9.550782-24.785156v-137.609375c0-10.046875-4.15625-19.757813-11.40625-26.675781zm-73.875 79.476562 64.738281-57.089844c.359375 1.378907.542969 2.820313.542969 4.289063v135.671875zm-75.527344-206.128906c40.421875 0 73.308594 32.886719 73.308594 73.308594 0 17.035156-5.96875 33.625-16.808594 46.722656-.007813.007812-.015625.015625-.023438.027344-.910156 1.097656-1.847656 2.164062-2.8125 3.199218-.304687-14.773437-6.773437-28.734374-17.519531-38.566406 3.449219-6.054687 5.421875-13.054687 5.421875-20.507812 0-22.921875-18.644531-41.566406-41.566406-41.566406s-41.570313 18.644531-41.570313 41.566406c0 7.453125 1.972657 14.453125 5.421875 20.507812-10.742187 9.832032-17.214844 23.792969-17.515625 38.566406-.972656-1.042968-1.917969-2.117187-2.832031-3.222656-10.84375-13.097656-16.816406-29.691406-16.816406-46.722656 0-40.425781 32.886718-73.3125 73.3125-73.3125zm1.121094 85.722656c-.003907 0-.011719 0-.019532 0-.078125.003906-.15625.007813-.234375.011719-.015625 0-.03125 0-.042969 0-.078124.003906-.160156.007813-.238281.007813-.011719 0-.023437.003906-.035156.003906-.082031 0-.160156 0-.242187.003906-.011719 0-.023438 0-.035157 0-.09375.003906-.183593.003906-.277343.003906-.089844 0-.183594 0-.273438-.003906-.011719 0-.023438 0-.039062 0-.078126 0-.15625-.003906-.238282-.003906-.011718 0-.023437-.003906-.035156-.003906-.078125 0-.160156-.003907-.238281-.007813-.015625 0-.027344 0-.042969 0-.078125-.003906-.15625-.007813-.238281-.011719-.003907 0-.011719 0-.019531 0-11.371094-.585937-20.445313-10.023437-20.445313-21.539062 0-11.894532 9.675781-21.566406 21.570313-21.566406 11.890624 0 21.566406 9.671874 21.566406 21.566406.003906 11.515625-9.066406 20.953125-20.441406 21.539062zm-23.519532 13.492188c6.183594 3.96875 13.308594 6.21875 20.769532 6.503906.011718 0 .023437.003906.039062.003906.167969.003906.335938.011719.507812.015625h.042969c.148438.003907.292969.007813.441407.007813h.109374c.164063.003906.324219.003906.488282.003906.160156 0 .324218 0 .484375-.003906h.113281c.144531 0 .292969-.003906.441406-.007813h.042969c.167969-.003906.339844-.011719.507813-.015625.011718 0 .027343 0 .039062-.003906 7.460938-.285156 14.585938-2.539062 20.765625-6.503906 7.078125 6.332031 11.28125 15.484375 11.28125 25.128906v14.101562c-10.273437 5.316407-21.78125 8.171876-33.675781 8.171876-11.894532 0-23.402344-2.855469-33.675782-8.171876v-14.101562c0-9.644531 4.203126-18.796875 11.277344-25.128906zm-46.347656 37.195312c17.675781 19.257813 42.464844 30.210938 68.746094 30.210938s51.066406-10.953125 68.742187-30.210938h55.15625c.148438 0 .296875.003906.445313.007813l-68.992188 60.835937c-.050781.042969-.101562.085938-.148437.128906l-42.171875 37.183594c-7.433594 6.550782-18.636719 6.550782-26.066406 0l-42.167969-37.183594c-.046875-.042968-.09375-.082031-.144531-.121093l-69-60.847657c.148437-.003906.296874-.003906.445312-.003906zm-60.71875 170.503906 13.011719-16.515624c3.417969-4.335938 2.667969-10.625-1.667969-14.042969-4.339844-3.417969-10.625-2.671875-14.042969 1.667969l-8.648437 10.976562v-135.671875c0-1.46875.183594-2.910156.542968-4.289063l64.742188 57.089844-10.445312 13.257813c-3.417969 4.339843-2.671876 10.625 1.667968 14.042969 4.339844 3.417968 10.625 2.671874 14.042969-1.667969l9.757813-12.382813 34.242187 30.191406c7.484375 6.601563 16.871094 9.898438 26.261719 9.898438 9.386718 0 18.777344-3.296875 26.265625-9.898438l34.238281-30.191406 68.957031 87.535156c-1.773437.621094-3.652343.945313-5.5625.945313h-247.796875c-1.914062 0-3.792968-.328125-5.566406-.945313zm0 0" fill="#231f20"/><path d="m152.816406 264.769531c-5.519531 0-10 4.476563-10 10v.023438c0 5.523437 4.480469 9.988281 10 9.988281 5.523438 0 10-4.488281 10-10.011719 0-5.523437-4.476562-10-10-10zm0 0" fill="#231f20"/></svg>