<?xml version="1.0" encoding="utf-8"?>
<!-- Generator: Adobe Illustrator 22.1.0, SVG Export Plug-In . SVG Version: 6.00 Build 0)  -->
<svg version="1.1" id="Layer_1" xmlns="http://www.w3.org/2000/svg" xmlns:xlink="http://www.w3.org/1999/xlink" x="0px" y="0px"
	 viewBox="0 0 900 900" style="enable-background:new 0 0 900 900;" xml:space="preserve">
<style type="text/css">
	.st0{fill:#FBAF3D;}
	.st1{fill:#FFD72E;}
	.st2{fill:#F38154;}
	.st3{fill:#FFFFFF;}
	.st4{fill:#A2CC3B;}
	.st5{fill:#709B2C;}
	.st6{fill:#4C842F;}
	.st7{fill:#517F38;}
	.st8{fill:#3B6837;}
	.st9{fill:#65B15B;}
	.st10{fill:#62324A;}
	.st11{fill:#A0523A;}
	.st12{fill:#6075B0;}
	.st13{fill:#794061;}
	.st14{fill:#072859;}
	.st15{fill:#F3885E;}
	.st16{fill:#FFBE62;}
	.st17{opacity:0.54;fill:#B0ACBF;}
	.st18{fill:#7C4B39;}
	.st19{fill:#FCBBA4;}
	.st20{fill:#081344;}
	.st21{opacity:0.2;fill:#081344;}
	.st22{fill:#DADAE0;}
	.st23{fill:none;stroke:#B0ACBF;stroke-width:1.7994;stroke-miterlimit:10;}
	.st24{fill:#244689;}
	.st25{fill:#D26552;}
	.st26{fill:#FFC7B0;}
	.st27{fill:#F4A891;}
	.st28{fill:#0A194D;}
	.st29{fill:#FC9F7B;}
	.st30{fill:#B0ACBF;}
	.st31{fill:#0C0F39;}
	.st32{fill:#87888D;}
	.st33{fill:#6C1A48;}
	.st34{opacity:0.62;fill:#0C0F39;}
	.st35{opacity:0.16;fill:#0C0F39;}
	.st36{fill:#747577;}
	.st37{fill:#F1AE9B;}
	.st38{fill:#FFBD48;}
	.st39{fill:#F14747;}
	.st40{fill:#394679;}
	.st41{fill:#1C1C2D;}
	.st42{fill:#848383;}
	.st43{fill:none;stroke:#0A194D;stroke-width:1.1138;stroke-linecap:round;stroke-miterlimit:10;}
	.st44{fill:#9C9694;}
	.st45{fill:#25253A;}
	.st46{fill:#F4A22A;}
	.st47{fill:#716F82;}
	.st48{fill:#B1AEC1;}
	.st49{fill:#DDDDDD;}
	.st50{fill:#2D2D3A;}
	.st51{fill:#2F558C;}
	.st52{fill:#ECEEF0;}
	.st53{fill:#EA5444;}
	.st54{fill:#A29FB0;}
	.st55{fill:#6E89C4;}
	.st56{fill:#FFC543;}
	.st57{fill:#313D6E;}
	.st58{fill:#85818E;}
	.st59{opacity:0.55;fill:#C5CBED;}
	.st60{opacity:0.37;fill:#6C1A48;}
	.st61{fill:#884C2E;}
	.st62{fill:none;stroke:#0A194D;stroke-width:1.1846;stroke-linecap:round;stroke-miterlimit:10;}
	.st63{fill:#0A0A2C;}
	.st64{fill:#A36440;}
	.st65{opacity:0.33;fill:#6C1A48;}
	.st66{opacity:0.48;fill:#6C1A48;}
	.st67{fill:#BF7847;}
	.st68{fill:#DD9762;}
	.st69{opacity:0.64;fill:#4F1B0A;}
	.st70{opacity:0.84;}
	.st71{fill:#AB7340;}
	.st72{fill:none;stroke:#B0ACBF;stroke-width:1.2685;stroke-miterlimit:10;}
	.st73{fill:none;stroke:#0A194D;stroke-width:1.7821;stroke-miterlimit:10;}
	.st74{fill:#868498;}
	.st75{fill:#2B3563;}
	.st76{fill:none;stroke:#FFFFFF;stroke-width:2.0651;stroke-linecap:round;stroke-miterlimit:10;}
	.st77{fill:#FFDCD4;}
	.st78{fill:none;stroke:#F3885E;stroke-width:2.0538;stroke-linecap:round;stroke-miterlimit:10;}
</style>
<g>
	<g>
		<path class="st0" d="M131.4,620v19.6l90.9,0c5.4,0,9.8-4.4,9.8-9.8c0-2.7-1.1-5.2-2.9-6.9c-1.8-1.8-4.2-2.9-6.9-2.9L131.4,620z"/>
		<path class="st1" d="M184.5,626.6v-6.5h38c4.3,0,7.9,2.7,9.2,6.5H184.5z"/>
		<path class="st2" d="M109.7,620v19.6l90.9,0c5.4,0,9.8-4.4,9.8-9.8c0-2.7-1.1-5.2-2.9-6.9c-1.8-1.8-4.2-2.9-6.9-2.9L109.7,620z"/>
		<path class="st3" d="M109.7,623.4V636l88.3,0c3.5,0,6.3-2.8,6.3-6.3c0-1.7-0.7-3.3-1.8-4.5c-1.1-1.1-2.7-1.8-4.5-1.8L109.7,623.4z
			"/>
	</g>
	<g>
		<path class="st4" d="M127.8,639.8v19.6h90.9c5.4,0,9.8-4.4,9.8-9.8c0-1.7-0.4-3.2-1.1-4.6c-0.5-0.9-1-1.6-1.7-2.3
			c-1.8-1.8-4.2-2.9-6.9-2.9H127.8z"/>
		<path class="st5" d="M137.3,639.8v5.2h90.2c-0.5-0.9-1-1.6-1.7-2.3c-1.8-1.8-4.2-2.9-6.9-2.9H137.3z"/>
		<path class="st5" d="M137.3,659.4v-5.2h90.2c-0.5,0.9-1,1.6-1.7,2.3c-1.8,1.8-4.2,2.9-6.9,2.9H137.3z"/>
		<path class="st6" d="M97.7,639.8v19.6l90.9,0c5.4,0,9.8-4.4,9.8-9.8c0-2.7-1.1-5.2-2.9-6.9c-1.8-1.8-4.2-2.9-6.9-2.9L97.7,639.8z"
			/>
		<path class="st3" d="M97.7,643.1v12.6l88.3,0c3.5,0,6.3-2.8,6.3-6.3c0-1.7-0.7-3.3-1.8-4.5c-1.1-1.1-2.7-1.8-4.5-1.8L97.7,643.1z"
			/>
	</g>
</g>
<g>
	<g>
		<g>
			<path class="st7" d="M695.2,191.1c7.8,10.6,23.5,12.4,23.5,12.4s3-15.5-4.8-26.1c-7.8-10.6-23.5-12.4-23.5-12.4
				S687.4,180.5,695.2,191.1z"/>
			<path class="st8" d="M728,184.8c-7.2,7.1-6.8,19-6.8,19s12,0.6,19.1-6.5c7.2-7.1,6.8-19,6.8-19S735.2,177.7,728,184.8z"/>
			<path class="st9" d="M710.3,179.4c-1.5,13.1,8.9,25,8.9,25s12.7-9.3,14.1-22.5c1.5-13.1-8.9-25-8.9-25S711.7,166.3,710.3,179.4z"
				/>
		</g>
		<g>
			<polygon class="st10" points="711.2,240.6 738.4,240.6 747.3,201 702.3,201 			"/>
			<polygon class="st11" points="701,240.6 728.2,240.6 732.2,201 692.1,201 			"/>
		</g>
	</g>
	<g>
		<g>
			
				<rect x="601.7" y="434.8" transform="matrix(0.9847 0.1743 -0.1743 0.9847 89.9768 -98.1186)" class="st12" width="4.1" height="57.1"/>
			
				<rect x="604.4" y="433.7" transform="matrix(0.9847 0.1743 -0.1743 0.9847 86.3705 -99.1177)" class="st12" width="6.4" height="17.2"/>
		</g>
		<g>
			<polygon class="st13" points="594,499 589.9,498.7 594.6,441.7 597.1,438.1 598.8,442.1 			"/>
		</g>
		<g>
			<polygon class="st14" points="588.3,501.9 584.2,502.7 573.3,446.6 574.7,442.4 577.3,445.8 			"/>
		</g>
		<g>
			<polygon class="st15" points="597.4,515 579.7,515 573.9,468.1 603.2,468.1 			"/>
			<polygon class="st16" points="604.1,515 586.4,515 583.8,468.1 609.9,468.1 			"/>
		</g>
	</g>
	<rect x="549.7" y="254" class="st17" width="211.1" height="30"/>
	<g>
		<path class="st18" d="M669.2,298.5l-11.7,7.2c-8.4,5.2-11.5,16.1-7,24.9c0.9,1.8,1.5,2.9,1.3,2.8c-0.4-0.5,17.9-34.7,17.9-34.7"/>
		<path class="st19" d="M699.5,410h6c5.5,0,10.1-4.5,10.1-10.1l0-28.3c0-5.5-4.5-10.1-10.1-10.1h-6c-5.5,0-10.1,4.5-10.1,10.1v28.3
			C689.5,405.5,694,410,699.5,410z"/>
		<path class="st18" d="M652.2,333.4c-0.3,2.3,10.4,6.1,10.6,8.6l-1.7,4.8c13.1-4.8,1.5,2.5,1.5,2.5c3.9,11.6,2.5,18,13.7,22.4
			c5.6,2.2,11.6,3.2,18,2.8c8.5-0.6,16.1,2.1,22.3-0.9c1.3-0.6,2.5-1.4,3.6-2.6c2.2-2.2,4.1-4.6,5.8-7.2c0.6-1,1.2-2,1.8-3.1
			c3.4-6.5,10.2-25.5,9.7-33.4c-1.5-22.1-22.7-36.8-47-35.2c-0.6,0-1.2,0.1-1.9,0.1c-13.1,0.9-24.4,7.9-31.2,18
			c-0.4,0.5-0.7,1.1-1.1,1.7c0,0,0,0,0,0c-2,3.2-3,17-3,17C652.6,330.4,652.3,331.9,652.2,333.4z"/>
		<path class="st19" d="M653.1,340.5l0.3,6.1l0.5,10l0.8,3.6c0.1,1.6,0.9,9.9,1.2,11.4c2.8,14.2,12.1,17.2,26.6,19
			c0.4,0.1,0.9,0.1,1.3,0.1c1.5,0.2,3.1,0.2,4.7,0.1c1.5-0.1,3.1-0.3,4.5-0.6c2.9-0.5,5.7-1.4,8.2-2.7c0,0,0,0,0,0
			c6.4-3,11.7-8,15.1-14c2.6-4.6,4.2-9.8,4.3-15.3c0-0.4,0-0.8,0-1.2c0-0.4,0-0.9,0-1.4v-0.2l0-1.1l-0.2-2.9l-0.5-9.9l0-0.1v0
			l-0.1-1.8l-0.1-1.4l-0.1-1.3l0-0.3c-0.1-2.3-0.6-4.5-1.3-6.6c-0.4-1.5-1-2.9-1.6-4.3c-0.1-0.2-0.2-0.4-0.3-0.6
			c-0.5-1.1-1.1-2.3-1.7-3.3c0,0,0,0,0,0c-2.4-4.1-5.7-7.6-9.6-10.3c-0.8-0.6-1.6-1.1-2.4-1.6c-5.6-3.3-12.3-5.1-19.3-4.7
			c-5.8,0.3-10.1,2-14.8,4.9c-2.8,1.7-5.4,3.8-7.6,6.2c-3.1,3.4-5.2,7.4-6.7,11.9c-0.1,0.3-0.2,0.5-0.2,0.8
			c-0.4,1.5-0.8,2.9-0.9,4.5C653,335.7,653,338,653.1,340.5z"/>
		<path class="st18" d="M665.4,310.4c-7.1,19.6,11.6,18,12.5,27c0.1,1,0.5,2.5,0.7,9.9l1.4,4.6c0.4,1.4,1.7,2.4,3.2,2.4
			c1.9,0,3.4-1.5,3.4-3.4v-0.1l-0.2-7.3l3.6,9.7c2.6,7,6.6,13.3,11.6,18.6c4.2,4.4,9.1,8.1,14.5,11c0,0,22.8-13.6,22.8-44.6
			c0-2.5-0.1-5-0.4-7.7c-0.3-2.4-0.7-4.7-1.2-6.8c-9.5-38.5-56.8-25.4-61.3-23.7C671.3,301.9,665.4,310.4,665.4,310.4z"/>
		<path class="st19" d="M649.1,361.2c0,0.1,0,0.5,0,0.5c0.1,2.1,1.9,3.8,6.4,3.7l-0.6-16.5C651.2,354.5,649.4,357.7,649.1,361.2z"/>
		<path class="st18" d="M651.6,341.2h10.1c1.2,0,2.1-1,2.1-2.1l0,0c0-1.2-1-2.1-2.1-2.1h-10.1c-1.2,0-2.1,1-2.1,2.1l0,0
			C649.4,340.2,650.4,341.2,651.6,341.2z"/>
		<path class="st20" d="M657.3,348.8L657.3,348.8c0.8,0,1.5-0.7,1.5-1.5V345c0-0.8-0.7-1.5-1.5-1.5l0,0c-0.8,0-1.5,0.7-1.5,1.5v2.2
			C655.7,348.1,656.4,348.8,657.3,348.8z"/>
		<path class="st21" d="M701.7,371.8c4.2,4.4,9.1,8.1,14.5,11c0,0,22.8-13.6,22.8-44.6c0-2.5-0.1-5-0.4-7.7
			c-0.3-2.4-0.7-4.7-1.2-6.8c-1,5.9-3.7,14.8-10.5,25.9C716.6,366.4,705.4,370.7,701.7,371.8z"/>
		<path class="st18" d="M655.6,370.5l0.3,11.6c0,9.9,11.7,13.8,20.4,12.9l13.8-1.5l-1.4-12l-3.8-22.9l6.1-17.1l-12.5,5.2l0,0
			c0.9,13.6-8.8,24.6-22.4,24L655.6,370.5z"/>
		<path class="st19" d="M687.4,341c-1.4,0-2.5,1.1-2.5,2.5l0.1,8.6l0.1,7.5l3,0c0.2,0,0.4,0,0.6,0c4.9-0.4,8.8-4.7,8.8-9.6
			c0-2.6-1.1-4.7-2.8-6.4c-1.6-1.5-3.6-2.4-6-2.5l0,0c-0.3,0-0.5,0-0.8,0L687.4,341z"/>
	</g>
	<g>
		<g>
			<rect x="553.9" y="202.8" class="st22" width="114.7" height="24.4"/>
			<rect x="615.8" y="202.6" class="st3" width="53.1" height="25"/>
			<g>
				<line class="st23" x1="554" y1="207.3" x2="668.8" y2="207.3"/>
				<line class="st23" x1="554" y1="212.2" x2="668.8" y2="212.2"/>
				<line class="st23" x1="554" y1="217.1" x2="668.8" y2="217.1"/>
				<line class="st23" x1="554" y1="222.1" x2="668.8" y2="222.1"/>
			</g>
		</g>
		<g>
			<g>
				<path class="st24" d="M454.5,320l-3.7,142.2h-84.4l-2.2-140.5c0-18,13.6-32.9,31.5-35.9c2.2-0.4,4.4-0.5,6.6-0.5l12.9,0
					C436.3,285.2,454.5,299.9,454.5,320z"/>
				<g>
					<path class="st25" d="M422.4,266.5l-20.2,0c-15.8,0-28.5-12.8-28.5-28.5l0-19.9c0-19.8,16-35.9,35.8-35.9l5.6,0
						c19.8,0,35.9,16,35.9,35.8l0,19.9C451,253.8,438.2,266.5,422.4,266.5z"/>
					<path class="st26" d="M383.9,226.1l-0.5,8.6l-0.4,5.8l-2.7-0.1c-0.2,0-0.4,0-0.6-0.1c-4.5-0.5-7.9-3.9-7.7-7.8
						c0.1-2,1.2-3.6,2.9-4.9c1.5-1.1,3.5-1.7,5.6-1.7h0c0.2,0,0.5,0,0.7,0L383.9,226.1z"/>
					<path class="st26" d="M443.2,226.3l0.5,8.6l0.4,5.8l2.7-0.1c0.2,0,0.4,0,0.6-0.1c4.5-0.5,7.9-3.9,7.7-7.8
						c-0.1-2-1.2-3.6-2.9-4.9c-1.5-1.1-3.5-1.7-5.6-1.7h0c-0.2,0-0.5,0-0.7,0L443.2,226.3z"/>
					<path class="st27" d="M414.9,298.9l-5.9,0c-5.7,0-10.4-4.7-10.4-10.4l0-30.1c0-5.7,4.7-10.4,10.4-10.4l5.9,0
						c5.7,0,10.4,4.7,10.4,10.4l0,30.1C425.3,294.2,420.6,298.9,414.9,298.9z"/>
					<path class="st26" d="M448.4,224.9l-0.8,15.8l-0.1,2.4c-0.1,1.6-0.3,3.1-0.6,4.6c-2.5,12.5-12.6,22.4-25.4,25.6
						c-1.4,0.4-2.9,0.6-4.4,0.8c-0.4,0.1-0.9,0.1-1.4,0.1c-0.9,0.1-1.9,0.1-2.8,0.1c-0.7,0-1.4,0-2.1,0c-1.6-0.1-3.1-0.3-4.6-0.5
						c-0.6-0.1-1.2-0.2-1.8-0.4c-2.3-0.5-4.5-1.3-6.6-2.2c0,0,0,0,0,0c-10.1-4.5-17.4-13.5-19.4-24c0,0,0-0.1,0-0.1
						c-0.2-1.1-0.3-2.3-0.4-3.5c0-0.4,0-0.7-0.1-1.1c0-0.4,0-0.7,0-1.1c0-0.4,0-0.9,0-1.3v-0.2l0-1.1l0.2-2.8l0.2-4.8v0l0.2-4.9
						l0-0.1v0l0.1-1.8l0.1-1.4l0.1-1.3l0-0.3c0.1-2.2,0.6-4.4,1.3-6.5c0.5-1.4,1-2.9,1.7-4.2c0.1-0.2,0.2-0.4,0.3-0.6
						c0.5-1.1,1.1-2.2,1.8-3.3c0,0,0,0,0,0c2.5-4,5.9-7.4,9.8-10.1c0.8-0.5,1.6-1,2.4-1.5c5.8-3.3,12.6-5,19.8-4.6
						c9.6,0.5,18.2,4.6,24.2,10.9c1.8,1.9,3.2,3.9,4.4,6c1,1.8,1.8,3.6,2.5,5.6c0.4,1.2,0.8,2.5,1,3.8c0,0,0,0,0,0
						c0.1,0.4,0.1,0.9,0.2,1.3c0.1,0.8,0.2,1.6,0.2,2.3C448.5,221.8,448.5,223.4,448.4,224.9z"/>
					<g>
						<path class="st28" d="M426.3,235.1L426.3,235.1c-0.9,0-1.6-0.7-1.6-1.5l0-4.7c0-0.8,0.7-1.5,1.5-1.5h0.1
							c0.8,0,1.5,0.7,1.5,1.5l0,4.7C427.8,234.4,427.1,235.1,426.3,235.1z"/>
						<path class="st28" d="M399.2,235L399.2,235c-0.9,0-1.6-0.7-1.6-1.5l0-4.7c0-0.8,0.7-1.5,1.5-1.5h0.1c0.8,0,1.5,0.7,1.5,1.5
							l0,4.7C400.7,234.3,400,235,399.2,235z"/>
						<path class="st25" d="M432,223.1l-11.7,0c-0.9,0-1.6-0.7-1.6-1.6l0,0c0-0.9,0.7-1.6,1.6-1.6l11.7,0c0.9,0,1.6,0.7,1.6,1.6l0,0
							C433.5,222.4,432.8,223.1,432,223.1z"/>
						<path class="st25" d="M405.3,223.1l-11.7,0c-0.9,0-1.6-0.7-1.6-1.6l0,0c0-0.9,0.7-1.6,1.6-1.6l11.7,0c0.9,0,1.6,0.7,1.6,1.6
							l0,0C406.9,222.4,406.1,223.1,405.3,223.1z"/>
						<path class="st3" d="M421.9,249.6c-3.2,4.5-6.1,7.4-10.4,6.8c-3.6-0.5-6.6-3.1-8.4-7L421.9,249.6z"/>
						<path class="st29" d="M408.9,239.9l7.4,0C416.3,239.9,412.8,244.7,408.9,239.9z"/>
					</g>
					<path class="st26" d="M448.4,224.9l-0.8,15.8l-0.1,2.4c-0.1,1.6-0.3,3.1-0.6,4.6c-2.5,12.5-12.6,22.4-25.4,25.6
						c-1.4,0.4-2.9,0.6-4.4,0.8c-0.4,0.1-0.9,0.1-1.4,0.1c-0.9,0.1-1.9,0.1-2.8,0.1c-0.7,0-1.4,0-2.1,0c-1.8-0.1-3.5-0.3-5.2-0.5
						c-0.3-0.1-0.7-0.1-1-0.2c-2.3-0.5-4.6-1.3-6.7-2.2c0,0,0,0,0,0c-10.1-4.6-17.5-13.6-19.5-24.2c0,0,0-0.1,0-0.1
						c-0.2-1.1-0.4-2.3-0.4-3.5c0-0.4,0-0.7-0.1-1.1c0-0.4,0-0.7,0-1.1c0-0.4,0-0.9,0-1.3v-0.2l0-1.1l0.2-2.8l0.2-4.8
						c1.6,17.6,8.1,39.9,31.1,40.8c31.9,1.2,38.5-32.2,39-51.5C448.5,221.8,448.5,223.4,448.4,224.9z"/>
				</g>
				<g>
					<polygon class="st24" points="427.9,462.2 394.3,462.2 395.4,282.7 402.8,282.5 410.7,299.5 419.4,283 427.4,283.1 					"/>
				</g>
			</g>
			<polygon class="st30" points="402.9,282.4 398,290.3 391.5,287 398.5,277.2 			"/>
			<polygon class="st30" points="419.5,282.9 424.8,290.3 431.2,288.2 425.4,278.1 			"/>
			<ellipse class="st25" cx="440.4" cy="204" rx="12.3" ry="11.7"/>
			<ellipse class="st25" cx="420.9" cy="207.9" rx="9.4" ry="9"/>
			<path class="st25" d="M414.9,208.5c0,4.6-3.9,8.4-8.8,8.4c-4.9,0-8.8-3.8-8.8-8.4c0-4.6,3.9-8.4,8.8-8.4
				C411,200.1,414.9,203.9,414.9,208.5z"/>
			<path class="st25" d="M398.3,206.3c0,4.4-3.7,8-8.3,8s-8.3-3.6-8.3-8c0-4.4,3.7-8,8.3-8C394.5,198.3,398.3,201.9,398.3,206.3z"/>
			<path class="st25" d="M400.9,189.5c0,0,17.6-4.8,27,1.5c9.4,6.3,14.5,15,14.5,15l-36.1,3l-21.7-3.3l8.3-15.2"/>
			<path class="st25" d="M385.2,208.5l-4,25.4c-0.2,1.2-1.6,1.8-2.6,1.2l0,0c-0.5-0.3-0.8-0.8-0.8-1.3l-1.2-18.5
				C376.6,215.3,383,200,385.2,208.5z"/>
			<path class="st25" d="M440.5,211.8l4,25.4c0.2,1.2,1.6,1.8,2.6,1.1l0,0c0.5-0.3,0.8-0.8,0.8-1.3l1.2-23.6
				C449.2,213.5,442.7,203.3,440.5,211.8z"/>
			<path class="st25" d="M381.5,232.7c-0.5,6.2,3,34.4,29.7,35c26.7,0.6,32.1-26.7,32.5-32.4c0.4-5.7,4.4-5.1,4.4-3.9l-0.2,14.7
				c0,17.2-14.6,31.2-32.7,31.2l-3.8,0c-18,0-33.9-13.1-33.9-30.3l0.2-14.1C377.7,232.8,381.5,232.2,381.5,232.7z"/>
		</g>
		
			<rect x="385.8" y="691.9" transform="matrix(0.9996 -2.785996e-02 2.785996e-02 0.9996 -19.3633 11.2676)" class="st31" width="17.7" height="17.2"/>
		<g>
			<path class="st32" d="M408,710.7l-26.1,0.7v0c-0.2-5.7,4.3-10.4,10-10.6l5.5-0.2C403.1,700.5,407.8,705,408,710.7L408,710.7z"/>
			
				<rect x="381.4" y="710.8" transform="matrix(0.9996 -2.786028e-02 2.786028e-02 0.9996 -19.7084 11.278)" class="st28" width="26.9" height="4.2"/>
		</g>
		<polygon class="st33" points="407,478.9 406.9,484.1 405.7,685.3 405.7,685.3 405.4,695.3 405.4,696.9 405.4,697 384.6,697.7 
			382.6,697.7 373,579 368.7,486.9 368.6,484.1 368.4,480.8 368.4,480.1 402.7,479 405.2,478.9 		"/>
		<path class="st34" d="M410.7,503.2c0,0,0,0.4,0,1.3C410.7,503.8,410.7,503.3,410.7,503.2z"/>
		<polygon class="st33" points="450.6,459.2 450.1,484.7 368.6,484.3 366.4,459.2 		"/>
		<path class="st35" d="M410.7,503.2c0,0,0,0.4,0,1.3C410.7,503.8,410.7,503.3,410.7,503.2z"/>
		<polygon class="st36" points="381.2,692 406.2,691.7 405.7,697.4 381.7,698.1 		"/>
		<polygon class="st31" points="429,708.4 446.7,707.9 446.2,690.7 428.4,691.2 		"/>
		<g>
			<path class="st32" d="M424.9,710.4l26.1-0.7l0,0c-0.2-5.7-5-10.2-10.7-10l-5.5,0.2C429.2,700,424.7,704.7,424.9,710.4
				L424.9,710.4z"/>
			<polygon class="st28" points="424.7,714.4 451.7,713.7 451.5,709.4 424.6,710.2 			"/>
		</g>
		<polygon class="st33" points="411.7,479 412.1,484.2 425.7,685 425.7,685 426.5,694.9 426.7,696.5 426.7,696.6 447.4,696.2 
			449.5,696.1 451.7,577 450.4,484.8 450.4,482 450.3,478.7 450.3,478.1 416,478.9 413.5,478.9 		"/>
		<polygon class="st36" points="450.5,690.3 425.5,691.4 426.3,697.1 450.3,696.4 		"/>
		<g>
			<path class="st37" d="M374.2,318.3c0,0-10.6,31.2-11.7,70.5c-0.9,30.2-2.1,100.3-2.1,100.3l-13.7-0.3c0,0-4.2-40.6-4-96.5
				c0.2-55.9,15.7-80.3,21.5-82.2C370.1,308.1,374.7,311.6,374.2,318.3z"/>
			<g>
				<path class="st37" d="M370.5,506.5l-7.1-13.1c-0.8-1.5-2.7-2.2-4.1-1.5l-0.3,0.1c-1.4,0.7-1.9,2.6-1.1,4.1l7.1,13.1
					c0.8,1.5,2.7,2.2,4.1,1.5l0.3-0.1C370.8,509.9,371.3,508,370.5,506.5z"/>
				<path class="st37" d="M344,494.9c0,0,0.9,9.8,1.1,12.6c0.4,5.5,1.9,8.2,5.5,8.5l7.2-1.4c3.9-1.4,5.6-2.2,5.9-5.6l0.9-11.3
					c0.3-3.4-3.5-12.8-7.1-13.1l-7.3-0.9C346.6,483.3,344.3,491.4,344,494.9z"/>
				<path class="st37" d="M358.3,511.3l1.8,12.8c0.2,2.1,1.6,3.7,3,3.6l0,0c1.4-0.1,2.4-1.9,2.2-4l-1.8-12.8c-0.2-2.1-1.6-3.7-3-3.6
					l0,0C359.1,507.4,358.1,509.2,358.3,511.3z"/>
				<path class="st37" d="M352.6,514.7l1.8,12.8c0.2,2.1,1.6,3.7,3,3.6l0,0c1.4-0.1,2.4-1.9,2.2-4l-1.8-12.8c-0.2-2.1-1.6-3.7-3-3.6
					l0,0C353.3,510.8,352.4,512.6,352.6,514.7z"/>
				<path class="st37" d="M346,511.8l1.8,12.8c0.2,2.1,1.6,3.7,3,3.6l0,0c1.4-0.1,2.4-1.9,2.2-4l-1.8-12.8c-0.2-2.1-1.6-3.7-3-3.6
					l0,0C346.7,508,345.8,509.8,346,511.8z"/>
			</g>
		</g>
		<g>
			<path class="st37" d="M445.9,318.3c0,0,10.6,31.2,11.7,70.5c0.9,30.2,2.1,100.3,2.1,100.3l13.7-0.3c0,0,4.2-40.6,4-96.5
				c-0.2-55.9-15.7-80.3-21.5-82.2S445.4,311.6,445.9,318.3z"/>
			<g>
				<path class="st37" d="M449.7,506.5l7.1-13.1c0.8-1.5,2.7-2.2,4.1-1.5l0.3,0.1c1.4,0.7,1.9,2.6,1.1,4.1l-7.1,13.1
					c-0.8,1.5-2.7,2.2-4.1,1.5l-0.3-0.1C449.3,509.9,448.8,508,449.7,506.5z"/>
				<path class="st37" d="M476.1,494.9c0,0-0.9,9.8-1.1,12.6c-0.4,5.5-1.9,8.2-5.5,8.5l-7.2-1.4c-3.9-1.4-5.6-2.2-5.9-5.6l-0.9-11.3
					c-0.3-3.4,3.5-12.8,7.1-13.1l7.3-0.9C473.5,483.3,475.9,491.4,476.1,494.9z"/>
				<path class="st37" d="M461.8,511.3l-1.8,12.8c-0.2,2.1-1.6,3.7-3,3.6l0,0c-1.4-0.1-2.4-1.9-2.2-4l1.8-12.8
					c0.2-2.1,1.6-3.7,3-3.6l0,0C461.1,507.4,462,509.2,461.8,511.3z"/>
				<path class="st37" d="M467.6,514.7l-1.8,12.8c-0.2,2.1-1.6,3.7-3,3.6l0,0c-1.4-0.1-2.4-1.9-2.2-4l1.8-12.8
					c0.2-2.1,1.6-3.7,3-3.6l0,0C466.8,510.8,467.8,512.6,467.6,514.7z"/>
				<path class="st37" d="M474.2,511.8l-1.8,12.8c-0.2,2.1-1.6,3.7-3,3.6l0,0c-1.4-0.1-2.4-1.9-2.2-4l1.8-12.8
					c0.2-2.1,1.6-3.7,3-3.6l0,0C473.4,508,474.4,509.8,474.2,511.8z"/>
			</g>
		</g>
		<g>
			<ellipse class="st3" cx="411" cy="332.8" rx="2.1" ry="2.1"/>
			<path class="st3" d="M413.2,361.6c0,1.1-1,2.1-2.1,2.1s-2.1-0.9-2.1-2.1c0-1.1,1-2.1,2.1-2.1S413.2,360.5,413.2,361.6z"/>
			<path class="st3" d="M413.2,390.4c0,1.1-1,2.1-2.1,2.1s-2.1-0.9-2.1-2.1c0-1.1,1-2.1,2.1-2.1S413.2,389.2,413.2,390.4z"/>
			<ellipse class="st3" cx="411" cy="419.2" rx="2.1" ry="2.1"/>
			<path class="st3" d="M413.2,448c0,1.1-1,2.1-2.1,2.1s-2.1-0.9-2.1-2.1c0-1.1,1-2.1,2.1-2.1S413.2,446.8,413.2,448z"/>
		</g>
		<path class="st24" d="M388.5,287.7l-10.9,3.9c-14.3,5.2-24.9,17.2-28.3,32l-6.1,26.3l30.5,6.3L388.5,287.7z"/>
		<path class="st24" d="M430.4,288.7l11.1,4c14.3,5.2,24.9,17.2,28.3,32l6.1,26.3l-30.5,6.3L430.4,288.7z"/>
		<path class="st17" d="M276.4,738.5h574.7c9.9,0,17.9-8,17.9-17.9v0c0-9.9-8-17.9-17.9-17.9H276.4c-9.9,0-17.9,8-17.9,17.9v0
			C258.5,730.5,266.5,738.5,276.4,738.5z"/>
		<g>
			<path class="st25" d="M253.6,331.5l-2.7-4.8c-3.7-6.5-10.4-10.7-17.8-11.2h0c-7.5-0.5-14.7,2.8-19.2,8.8l0,0
				c-0.4,0.5-0.7,1-1,1.4c-6.4,9.2-8.9,24.3-4.2,46.3l8.8,56.2l29.5,4.2l9.4-89.1C256.6,339.1,255.6,335.1,253.6,331.5z"/>
			<g>
				<g>
					<g>
						<path class="st26" d="M355.3,494.2l13.8-4c1-0.3,1.6-1.4,1.3-2.4l0,0c-0.3-1-1.4-1.6-2.4-1.3l-13.8,4c-1,0.3-1.6,1.4-1.3,2.4
							l0,0C353.2,493.9,354.3,494.5,355.3,494.2z"/>
						<path class="st26" d="M360.3,497.5l11.1-3.2c1-0.3,1.6-1.4,1.3-2.4l0,0c-0.3-1-1.4-1.6-2.4-1.3l-11.1,3.2
							c-1,0.3-1.6,1.4-1.3,2.4l0,0C358.2,497.2,359.3,497.8,360.3,497.5z"/>
						<path class="st26" d="M358.3,502.7l13.1-3.8c1-0.3,1.6-1.4,1.3-2.4l0,0c-0.3-1-1.4-1.6-2.4-1.3l-13.1,3.8
							c-1,0.3-1.6,1.4-1.3,2.4l0,0C356.2,502.4,357.3,503,358.3,502.7z"/>
					</g>
					<path class="st26" d="M360.9,489.9c-0.1,0-1.9,0.2-3.7,0.4c-3.2,0.3-6.3,1.5-9.1,3.2l-5.2,3.4c0,0,4.3,9,4.8,9.1
						c10.9,0.6,14-4.7,14-4.7L360.9,489.9z"/>
				</g>
				<g>
					<path class="st26" d="M266.7,454.2c0,0,6.4,17.1,12.9,31.1c1.8,3.9,3.6,7.5,5.3,10.4c0.5,0.9,1,1.7,1.5,2.5
						c6.5,10,15.1,15.7,27.4,14.1c0.1,0,36.1-6.1,36.1-6.1l-2.1-12.5l-37.2,3.2c-4,0.5-10-5.1-12.6-8.9c-0.2-0.3-0.4-0.6-0.5-0.9
						c-1.2-2.1-2.6-4.7-4-7.6c-8.4-17.4-19-46-19-46L266.7,454.2z"/>
				</g>
			</g>
			<path class="st38" d="M271.4,422c0.7,1.1,17.9,34.6,17.9,34.6l-13.4,12.3L271.4,422z"/>
			<g>
				<path class="st33" d="M277.4,590.7l-80.6,8l-29.6-150.1l45.6-0.3c20.1-0.1,37.4,13.9,41.6,33.6L277.4,590.7z"/>
				<path class="st39" d="M175.2,591.6l-17.7-131.4c-0.8-5.9,3.4-11.3,9.2-12.1l0,0c5.9-0.8,11.3,3.4,12.1,9.2l17.7,131.4
					c0.8,5.9-3.4,11.3-9.2,12.1l0,0C181.4,601.6,175.9,597.5,175.2,591.6z"/>
				<g>
					<g>
						<rect x="235.9" y="609.6" class="st40" width="12.5" height="73.7"/>
						<path class="st28" d="M248.4,613.9v16.6l-12.5-4.8v-11.3C239,614.3,245,614.1,248.4,613.9z"/>
					</g>
					<path class="st40" d="M271.1,615.6h-55.8c-3.1,0-5.6-2.5-5.6-5.6l0,0c0-3.1,2.5-5.6,5.6-5.6h55.8c3.1,0,5.6,2.5,5.6,5.6l0,0
						C276.6,613.1,274.1,615.6,271.1,615.6z"/>
					<path class="st33" d="M298.4,608.9h-64.1c-7.7,0-14-6.3-14-14v0c0-7.7,6.3-14,14-14h64.1c7.7,0,14,6.3,14,14v0
						C312.3,602.6,306,608.9,298.4,608.9z"/>
					<path class="st39" d="M242,609.3h-51.3c-7.7,0-14-6.3-14-14l0,0c0-7.7,6.3-14,14-14H242c7.7,0,14,6.3,14,14l0,0
						C256,603,249.7,609.3,242,609.3z"/>
					<g>
						<g>
							<path class="st28" d="M295,707.8h-7.8c0-9.3-7.6-16.9-16.9-16.9h-56.9c-9.3,0-16.9,7.6-16.9,16.9h-7.8
								c0-13.6,11.1-24.7,24.7-24.7h56.9C284,683.1,295,694.2,295,707.8z"/>
						</g>
						<rect x="232.9" y="671.4" class="st28" width="18.2" height="11.9"/>
					</g>
					<g>
						<path class="st28" d="M198.7,715.4c0,3.6-2.9,6.5-6.5,6.5s-6.5-2.9-6.5-6.5c0-3.6,2.9-6.5,6.5-6.5S198.7,711.8,198.7,715.4z"
							/>
						<path class="st40" d="M201.6,714.8h-17.8v-2c0-4.7,3.8-8.5,8.5-8.5h0.7c4.7,0,8.5,3.8,8.5,8.5V714.8z"/>
						<path class="st28" d="M298,715.4c0,3.6-2.9,6.5-6.5,6.5c-3.6,0-6.5-2.9-6.5-6.5c0-3.6,2.9-6.5,6.5-6.5
							C295.1,708.9,298,711.8,298,715.4z"/>
						<path class="st40" d="M300.9,714.8h-17.8v-2c0-4.7,3.8-8.5,8.5-8.5h0.7c4.7,0,8.5,3.8,8.5,8.5V714.8z"/>
					</g>
					<rect x="237.2" y="685.5" class="st28" width="10.3" height="23.4"/>
					<g>
						<path class="st28" d="M249.1,715.4c0,3.6-2.9,6.5-6.5,6.5c-3.6,0-6.5-2.9-6.5-6.5c0-3.6,2.9-6.5,6.5-6.5
							C246.2,708.9,249.1,711.8,249.1,715.4z"/>
						<path class="st40" d="M252,714.8h-17.8v-2c0-4.7,3.8-8.5,8.5-8.5h0.7c4.7,0,8.5,3.8,8.5,8.5V714.8z"/>
					</g>
				</g>
			</g>
			<path class="st14" d="M266.7,599l-0.5-0.2C266.3,599.1,266.7,599,266.7,599z"/>
			<path class="st14" d="M266.7,599l-0.5-0.2C266.3,599.1,266.7,599,266.7,599z"/>
			<path class="st41" d="M218.9,535.5l0.6,23.9c0.3,13.1,5.6,24.1,22.3,24.6l43.5,5.6v-26.2l-5.6-17.9L218.9,535.5z"/>
			<g>
				<g>
					<path class="st42" d="M318.7,720.5l45.4,1.2c2.7,0.1,5-2.1,5-4.9l0,0c0.1-2.1-1.2-4.1-3.2-4.8l-22.2-8.6l-24.6,0L318.7,720.5z"
						/>
					<path class="st28" d="M364.9,723.1l-45.9-0.9l0.1-3.4l49.2,1l0,0C368.2,721.6,366.7,723.1,364.9,723.1z"/>
				</g>
				<g>
					<line class="st43" x1="342.4" y1="710.2" x2="348" y2="704.5"/>
					<line class="st43" x1="346.4" y1="712" x2="351.9" y2="706.3"/>
					<line class="st43" x1="350.1" y1="714.3" x2="356.4" y2="707.8"/>
				</g>
				<g>
					<path class="st41" d="M318.7,705.7c2.7-45.3,4.4-98,0.9-106.5c-3.6-5.3-27-10.8-49.2-16.9l4.7-30.5
						c17.9,2.8,60.7,16.9,69.9,32.7c3.9,6.7,5.2,30.6,3.4,76.8c-1,24.2-2.1,43.1-2.1,43.1L318.7,705.7z"/>
				</g>
			</g>
			<g>
				<g>
					<path class="st44" d="M285.2,721.1l45.4,1.2c2.7,0.1,5-2.1,5-4.9l0,0c0.1-2.1-1.2-4.1-3.2-4.8l-22.2-8.6l-24.6,0L285.2,721.1z"
						/>
					<path class="st28" d="M331.4,723.6l-45.9-0.9l0.1-3.4l49.2,1l0,0C334.8,722.2,333.2,723.7,331.4,723.6z"/>
				</g>
				<g>
					<line class="st43" x1="308.9" y1="710.8" x2="314.5" y2="705.1"/>
					<line class="st43" x1="312.9" y1="712.6" x2="318.4" y2="706.8"/>
					<line class="st43" x1="316.7" y1="714.9" x2="322.9" y2="708.4"/>
				</g>
				<g>
					<path class="st45" d="M285.2,706.3c2.7-45.3,4.4-98,0.9-106.5c-3.3-3.3-29.4-9.6-51.1-15.9c-8.2-2.4-14.2-9.4-15.4-17.8
						l-1.1-13.9l23.8-1.1c17.9,2.8,60,18.2,69.2,34c3.9,6.7,5.2,30.6,3.4,76.8c-1,24.2-2.1,43.1-2.1,43.1L285.2,706.3z"/>
				</g>
			</g>
			<path class="st38" d="M281.7,548.8l-44.8,1.9l-18.8,0.8h-0.1l-5.5-92.1c-0.6-12.5,0.7-21.9,3.1-28.8
				c6.8-20.5,22.2-20.4,23.7-20.4l16.2,0.2c13.8,0,24.4,23.3,25.8,47.3l0.2,62.8l0.1,22L281.7,548.8z"/>
			<path class="st46" d="M281.7,548.8l-44.8,1.9l-18.8,0.8h-0.1l-5.5-92.1c-0.6-12.5,0.7-21.9,3.1-28.8l8.7,13.3l15.7,51.7l26,12.7
				l15.6,12.3l0.1,22L281.7,548.8z"/>
		</g>
		<line class="st40" x1="771.4" y1="704.4" x2="771.4" y2="709.6"/>
		<rect x="630.3" y="578.1" class="st28" width="68.1" height="13.5"/>
		
			<rect x="628.3" y="532" transform="matrix(-1 -1.224647e-16 1.224647e-16 -1 1271.9155 1252.9821)" class="st47" width="15.3" height="189"/>
		
			<rect x="685.3" y="532" transform="matrix(-1 -1.224647e-16 1.224647e-16 -1 1385.8934 1252.9821)" class="st48" width="15.3" height="189"/>
		<rect x="253.5" y="579.2" class="st47" width="64.6" height="13.5"/>
		
			<rect x="252.1" y="532.1" transform="matrix(-1 -1.224647e-16 1.224647e-16 -1 519.5279 1253.1649)" class="st47" width="15.3" height="189"/>
		
			<rect x="307.8" y="532" transform="matrix(-1 -1.224647e-16 1.224647e-16 -1 630.8523 1252.9821)" class="st48" width="15.3" height="189"/>
		<path class="st25" d="M233.2,533h213.5v-11c0-3.3-2.7-6-6-6H239.3c-3.3,0-6,2.7-6,6V533z"/>
		<g>
			<path class="st29" d="M718.6,522v11H295.5v-11c0-3.3,2.7-6,6.1-6h411C715.9,515.9,718.6,518.6,718.6,522z"/>
			<path class="st25" d="M675,515.9V533H559.5c-2-4.5-5.3-11.7-7.6-17.1H675z"/>
		</g>
		<g>
			<path class="st49" d="M571.8,516.5h-86.9c-0.5-0.7-0.9-1.5-1.1-2.3L464.4,444c-0.9-3.3,1.6-6.7,5.1-6.7h76.5
				c2.4,0,4.4,1.6,5.1,3.8L571.8,516.5z"/>
			<path class="st50" d="M494.4,517.1H576l-21.7-78.5c-0.6-2.3-2.7-3.8-5.1-3.8h-76.4c-3.5,0-6,3.3-5.1,6.6l19.4,70.1
				C488.1,514.9,491,517.1,494.4,517.1z"/>
			<path class="st51" d="M472,444.5l15.9,57.2l3.3,12h80.9l-3.3-12l-16.6-59.8c-0.6-2.1-2.5-3.6-4.7-3.6h-70.8
				C473.5,438.4,471.2,441.4,472,444.5z"/>
			<g>
				<g>
					<polygon class="st52" points="519.7,446.2 544.6,446.2 544,444.4 519.1,444.4 					"/>
					<polygon class="st53" points="497.1,446.2 508.9,446.2 508.3,444.4 496.5,444.4 					"/>
					<polygon class="st54" points="480.1,446.2 491.9,446.2 491.3,444.4 479.5,444.4 					"/>
					<polygon class="st55" points="493.2,446.2 496,446.2 495.5,444.4 492.7,444.4 					"/>
					<polygon class="st54" points="510.2,446.2 518.5,446.2 518,444.4 509.7,444.4 					"/>
				</g>
				<g>
					<polygon class="st49" points="537,476 525.2,476 524.7,474.3 536.5,474.3 					"/>
					<polygon class="st56" points="554,476 542.3,476 541.7,474.3 553.5,474.3 					"/>
					<polygon class="st55" points="540.9,476 538.1,476 537.5,474.3 540.3,474.3 					"/>
				</g>
				<g>
					<polygon class="st53" points="537.6,453.6 546.9,453.6 546.4,451.9 537.1,451.9 					"/>
					<polygon class="st55" points="515,453.6 519,453.6 518.5,451.9 514.5,451.9 					"/>
					<polygon class="st53" points="482.4,453.6 502,453.6 501.4,451.9 481.9,451.9 					"/>
					<polygon class="st55" points="503.4,453.6 514,453.6 513.4,451.9 502.8,451.9 					"/>
					<polygon class="st55" points="520.4,453.6 536.4,453.6 535.9,451.9 519.8,451.9 					"/>
				</g>
				<g>
					<polygon class="st57" points="551.8,498.5 561.1,498.5 560.6,496.7 551.2,496.7 					"/>
				</g>
				<g>
					<polygon class="st49" points="540,461.1 549.3,461.1 548.8,459.4 539.4,459.4 					"/>
					<polygon class="st49" points="524.7,461.1 534.1,461.1 533.5,459.4 524.2,459.4 					"/>
					<polygon class="st55" points="487.4,461.1 503.4,461.1 502.9,459.4 486.8,459.4 					"/>
				</g>
				<g>
					<polygon class="st55" points="551.7,468.6 535.6,468.6 535.1,466.8 551.1,466.8 					"/>
				</g>
			</g>
			<polygon class="st50" points="487.9,501.7 491.2,513.7 572.1,513.7 568.8,501.7 			"/>
			<g>
				<path class="st58" d="M531.5,517.3h99.4c2.3,0,4.2-1.9,4.2-4.2l0,0c0-2.3-1.9-4.2-4.2-4.2h-99.4c-2.3,0-4.2,1.9-4.2,4.2l0,0
					C527.3,515.4,529.2,517.3,531.5,517.3z"/>
			</g>
			<polygon class="st59" points="481.9,434.8 533,508.7 564.2,508.7 513.1,434.8 			"/>
			<g>
				<g>
					<path class="st49" d="M493.9,517.3h58.9c2.4,0,4.3-1.9,4.3-4.3l0,0c0-2.4-1.9-4.3-4.3-4.3h-58.9c-2.4,0-4.3,1.9-4.3,4.3l0,0
						C489.6,515.3,491.6,517.3,493.9,517.3z"/>
				</g>
				<g>
					
						<rect x="514.5" y="511.4" transform="matrix(-1 -1.224647e-16 1.224647e-16 -1 1037.2308 1025.2642)" class="st20" width="8.2" height="2.5"/>
					
						<rect x="525.2" y="511.4" transform="matrix(-1 -1.224647e-16 1.224647e-16 -1 1056.3257 1025.2642)" class="st20" width="6" height="2.5"/>
				</g>
			</g>
		</g>
		<g>
			<g>
				<path class="st39" d="M404.6,494.3v22.5h18.8v-22.5c0-1-0.8-1.8-1.8-1.8h-15.2C405.4,492.5,404.6,493.3,404.6,494.3z"/>
				<g>
					<path class="st39" d="M423.2,512.9c0.2-0.1,6-3.5,6.5-9.4c0.2-2.3-0.7-3.7-1.4-4.4c-2.1-2.1-5.5-2-5.9-2l0.1,2.7
						c0.7,0,2.7,0.1,3.8,1.2c0.5,0.5,0.7,1.3,0.6,2.3c-0.4,4.5-5.1,7.3-5.2,7.3L423.2,512.9z"/>
				</g>
			</g>
			<path class="st39" d="M413.4,516.8h10v-22.5c0-1-0.8-1.8-1.8-1.8H421c0,1.2-0.3,10.1-2.9,16.6C416,514.7,414,516.4,413.4,516.8z"
				/>
			<g>
				<path class="st60" d="M428.3,499.1c-1.5-1.5-3.6-1.9-4.9-2v-2.8c0-1-0.8-1.8-1.8-1.8H421c0,1.2-0.3,10.1-2.9,16.6
					c-2.2,5.6-4.1,7.3-4.7,7.7h10v-4c1.1-0.7,5.8-4,6.3-9.3C429.9,501.2,429.1,499.8,428.3,499.1z M427,503.2
					c-0.2,2.8-2.1,4.9-3.6,6.1v-9.5c0.9,0.1,2.2,0.4,2.9,1.1C426.9,501.5,427.1,502.3,427,503.2z"/>
			</g>
		</g>
		<g>
			<g>
				<g>
					<path class="st49" d="M425.3,517.5h-67.2c-4.4,0-7.3-4.6-5.4-8.6l23.4-50c2-4.4,6.4-7.1,11.2-7.1h61.9c3.2,0,5.3,3.3,4,6.2
						L425.3,517.5z"/>
					<g>
						<g>
							<path class="st22" d="M358.4,517.7h-47.9c-1.9,0-3.5-1.6-3.5-3.5l0,0c0-1.9,1.6-3.5,3.5-3.5h47.9c1.9,0,3.5,1.6,3.5,3.5l0,0
								C361.9,516.1,360.3,517.7,358.4,517.7z"/>
						</g>
						<g>
							<rect x="334.3" y="513" class="st3" width="6.8" height="2.1"/>
							<rect x="327.3" y="513" class="st3" width="5" height="2.1"/>
						</g>
					</g>
					<path class="st54" d="M424.3,517.5h-67.4c-2.4,0-4-2.5-3-4.7l25.3-53.9c2-4.4,6.4-7.1,11.2-7.1h61.9c3.2,0,5.3,3.3,4,6.2
						l-26.1,55.8C429.1,516.1,426.8,517.5,424.3,517.5z"/>
				</g>
				<path class="st3" d="M409.6,488.5c-1.6,3.7-4.6,6-6.7,5.2c-2.1-0.9-2.5-4.6-0.9-8.4c1.6-3.7,4.6-6,6.7-5.2
					C410.8,481,411.2,484.8,409.6,488.5z"/>
			</g>
			<g>
				<g>
					<g>
						<path class="st26" d="M302.1,504.2l14.2-2.2c1-0.2,1.7-1.1,1.6-2.2l0,0c-0.2-1-1.1-1.7-2.2-1.6l-14.2,2.2
							c-1,0.2-1.7,1.1-1.6,2.2l0,0C300,503.6,301,504.4,302.1,504.2z"/>
						<path class="st26" d="M306.5,508l11.4-1.8c1-0.2,1.7-1.1,1.6-2.2l0,0c-0.2-1-1.1-1.7-2.2-1.6l-11.4,1.8
							c-1,0.2-1.7,1.1-1.6,2.2l0,0C304.5,507.5,305.5,508.2,306.5,508z"/>
						<path class="st26" d="M303.9,513l13.5-2.1c1-0.2,1.7-1.1,1.6-2.2l0,0c-0.2-1-1.1-1.7-2.2-1.6l-13.5,2.1
							c-1,0.2-1.7,1.1-1.6,2.2l0,0C301.9,512.4,302.9,513.2,303.9,513z"/>
					</g>
					<path class="st26" d="M308.2,500.6c-0.2,0-1.9,0-3.8-0.1c-3.2-0.1-6.5,0.6-9.4,2.1l-5.6,2.7c0,0,3.2,9.5,3.6,9.6
						c10.8,2,14.5-2.9,14.5-2.9L308.2,500.6z"/>
				</g>
				<g>
					<path class="st26" d="M219.3,453.2c0,0,4.2,17.8,8.8,32.4c1.3,4.1,2.6,7.9,3.9,11c0.4,0.9,0.8,1.8,1.2,2.6
						c5.1,10.8,13,17.4,25.3,17.5c0.1,0,36.6-1.5,36.6-1.5l-0.5-12.6l-37.3-1.5c-4.1,0-9.3-6.3-11.3-10.4c-0.2-0.3-0.3-0.6-0.4-0.9
						c-0.9-2.2-1.9-5-3-8c-6.1-18.3-12.9-48-12.9-48L219.3,453.2z"/>
				</g>
			</g>
			<path class="st38" d="M232.7,422.4l8.2,36.5l-23.4,7.1c0,0-1.3-4.6-2.3-9.9c-1-5.3-2.1-19,0.5-25.3
				C218.1,424.7,225.9,423.6,232.7,422.4z"/>
		</g>
		<g>
			<g>
				<g>
					<path class="st61" d="M668.4,732.8l-49.3-1c-2.9-0.1-5.3-2.5-5.2-5.4l0,0c0-2.3,1.5-4.3,3.7-5l24.6-8l26.7,1.2L668.4,732.8z"/>
					<path class="st28" d="M618.1,733.1l49.9,1.4l0.1-3.6l-53.5-1.5l0,0C614.6,731.4,616.1,733.1,618.1,733.1z"/>
				</g>
				<g>
					<line class="st62" x1="642.6" y1="720.6" x2="636.9" y2="714.2"/>
					<line class="st62" x1="638.3" y1="722.3" x2="632.7" y2="715.9"/>
					<line class="st62" x1="634.1" y1="724.6" x2="627.8" y2="717.3"/>
				</g>
				<g>
					<path class="st63" d="M670.7,715.8c-2.9-48.1-2.1-92.6,1.7-101.6c3.8-5.6,33.8-17.7,63.8-19l-14-30.6
						c-39.3,2-67.4,16.7-77.2,33.6c-4.1,7.1-7.7,21.5-5.8,70.5c1,25.7,2.3,45.8,2.3,45.8L670.7,715.8z"/>
				</g>
				<g>
					<path class="st64" d="M625.1,733.2l-49.3,0.4c-2.9,0-5.3-2.3-5.4-5.3l0,0c0-2.3,1.4-4.3,3.5-5.1l24.3-8.7L625,715L625.1,733.2z
						"/>
					<path class="st28" d="M574.8,734.9l49.9,0l0-3.6l-53.5,0l0,0C571.2,733.3,572.8,734.9,574.8,734.9z"/>
				</g>
				<g>
					<line class="st62" x1="598.9" y1="721.7" x2="593.1" y2="715.5"/>
					<line class="st62" x1="594.7" y1="723.5" x2="588.9" y2="717.3"/>
					<line class="st62" x1="590.6" y1="725.9" x2="584.1" y2="718.9"/>
				</g>
				<g>
					<path class="st45" d="M626.9,715.8c-2.9-48.1-2.1-92.6,1.7-101.6c3.8-5.6,33.8-17.7,63.8-19l-14-30.6
						c-39.3,2-67.4,16.7-77.2,33.6c-4.1,7.1-7.7,21.5-5.8,70.5c1,25.7,2.3,45.8,2.3,45.8L626.9,715.8z"/>
				</g>
				<path class="st45" d="M669.1,573.3c0,5.4,1.9,10.3,5.1,14.2c4.1,4.9,10.3,8.1,17.2,8.1h37.4c1.1,0,2.2-0.1,3.3-0.2
					c2.7-0.4,5.3-1.3,7.7-2.6c0.4-0.2,0.8-0.5,1.2-0.7c6.1-4,10.1-10.9,10.1-18.7l-0.7-11.9l-80.7-0.7L669.1,573.3z"/>
				<g>
					<g>
						<g>
							<path class="st26" d="M643.4,509.9l-19.3-3.1c-1.4-0.2-2.4-1.6-2.2-3l0,0c0.2-1.4,1.6-2.4,3-2.2l19.3,3.1
								c1.4,0.2,2.4,1.6,2.2,3l0,0C646.2,509.1,644.8,510.1,643.4,509.9z"/>
							<path class="st26" d="M637.3,515.1l-15.5-2.5c-1.4-0.2-2.4-1.6-2.2-3l0,0c0.2-1.4,1.6-2.4,3-2.2l15.5,2.5
								c1.4,0.2,2.4,1.6,2.2,3l0,0C640,514.3,638.7,515.3,637.3,515.1z"/>
							<path class="st26" d="M640.9,521.8l-18.3-2.9c-1.4-0.2-2.4-1.6-2.2-3l0,0c0.2-1.4,1.6-2.4,3-2.2l18.3,2.9
								c1.4,0.2,2.4,1.6,2.2,3l0,0C643.6,521.1,642.3,522.1,640.9,521.8z"/>
						</g>
						<path class="st26" d="M635.1,504.9c0.2,0,2.6,0,5.1-0.1c4.4-0.1,8.8,0.9,12.8,2.9l7.6,3.7c0,0-4.4,12.9-5,13
							c-14.7,2.7-19.7-4-19.7-4L635.1,504.9z"/>
					</g>
					
						<rect x="646.4" y="504.8" transform="matrix(-1 -1.224647e-16 1.224647e-16 -1 1299.4083 1030.8063)" class="st3" width="6.5" height="21.2"/>
				</g>
				<g>
					<path class="st33" d="M695.7,528.3c15.4,0,29.4-9,35.9-22.9l0.3-0.7l20.1-61.4l-24.8-8.1L707.6,495c-2.3,4.5-7,7.3-12.1,7.2
						l-42.7-0.4l-0.3,26.1l42.7,0.4C695.4,528.3,695.5,528.3,695.7,528.3z"/>
				</g>
				<g>
					<g>
						<path class="st26" d="M556.6,501.1c1.6-2.8,4-5.2,6.9-6.6c0,0,0,0,0.1,0c4-1.9,8.4-2.9,12.8-2.8l8.5,0.2
							c0,0,1.7,20.1,1.6,19.5c-0.2-1.2-8.2-2.4-29.7-2.4c-2,0-3.3-2.1-2.4-3.9L556.6,501.1z"/>
					</g>
					
						<rect x="581.3" y="491.3" transform="matrix(-1 -1.224647e-16 1.224647e-16 -1 1170.6499 1004.2351)" class="st3" width="8.1" height="21.7"/>
				</g>
				<path class="st39" d="M753.8,579.8c0,0-8.4,0.9-19.6,1.4c-2,0.1-4.2,0.2-6.4,0.2c-13,0.3-28.3-0.1-39.2-2.9
					c-6.6-1.7-11.6-3.5-15.3-5.1c-1.5-0.7-2.8-1.3-4-1.9c-4.1-2.2-5.7-3.8-5.9-4c0,0,0,0,0,0l-0.6-69.6l-0.5-54.7
					c0-21.6,17.5-39,39-39h13.2c2.3,0,4.6,0.2,6.8,0.6c2.3,0.4,4.5,1,6.6,1.8c0,0,0,0,0,0c15,5.5,25.6,19.8,25.6,36.7L753.8,579.8z"
					/>
				<path class="st65" d="M753.8,579.8c0,0-8.4,0.9-19.6,1.4c-2,0.1-4.2,0.2-6.4,0.2c-7,0.2-14.6,0.1-21.8-0.4l-0.3-147.2
					c0-11.2-4.1-21.4-11-29.2c2.2-0.4,4.4-0.6,6.7-0.6h13.2c2.3,0,4.6,0.2,6.8,0.6c2.3,0.4,4.5,1,6.6,1.8c0,0,0,0,0,0
					c15,5.5,25.6,19.8,25.6,36.7L753.8,579.8z"/>
				<path class="st66" d="M687.7,443.7c-1.5,6.6-10.7,47.8-14.9,66.8l-0.3-32.3c0,0-1.4,5.5-5.3,12.5l-2-17
					C665.3,473.7,689.7,435,687.7,443.7z"/>
				<g>
					<g>
						<rect x="710" y="622.6" class="st40" width="13.2" height="73.3"/>
						<path class="st28" d="M710,626.9v16.6l13.2-4.8v-11.2C719.8,627.3,713.5,627,710,626.9z"/>
					</g>
					<path class="st40" d="M685.7,628.5h59.6c3.1,0,5.6-2.5,5.6-5.6v0c0-3.1-2.5-5.6-5.6-5.6h-59.6c-3.1,0-5.6,2.5-5.6,5.6v0
						C680.1,626,682.6,628.5,685.7,628.5z"/>
					<g>
						<g>
							<path class="st28" d="M661.2,723h8.2c0-9.3,8-16.8,17.9-16.8h60.1c9.8,0,17.9,7.6,17.9,16.8h8.2c0-13.6-11.7-24.6-26.1-24.6
								h-60.1C672.9,698.3,661.2,709.4,661.2,723z"/>
						</g>
						
							<rect x="707" y="684.1" transform="matrix(-1 -1.224647e-16 1.224647e-16 -1 1433.2635 1384.1602)" class="st28" width="19.2" height="16.1"/>
					</g>
					<g>
						<path class="st28" d="M762.8,730.5c0,3.6,3.1,6.5,6.8,6.5s6.8-2.9,6.8-6.5c0-3.6-3.1-6.5-6.8-6.5S762.8,726.9,762.8,730.5z"/>
						<path class="st40" d="M759.8,729.9h18.7v-1.7c0-4.8-3.9-8.7-8.7-8.7h-1.2c-4.8,0-8.7,3.9-8.7,8.7V729.9z"/>
						<path class="st28" d="M658.1,730.5c0,3.6,3.1,6.5,6.8,6.5s6.8-2.9,6.8-6.5c0-3.6-3.1-6.5-6.8-6.5S658.1,726.9,658.1,730.5z"/>
						<path class="st40" d="M655.1,729.9h18.7v-1.7c0-4.8-3.9-8.7-8.7-8.7h-1.2c-4.8,0-8.7,3.9-8.7,8.7V729.9z"/>
					</g>
					
						<rect x="711.3" y="700.7" transform="matrix(-1 -1.224647e-16 1.224647e-16 -1 1433.5402 1424.8082)" class="st28" width="10.9" height="23.3"/>
					<g>
						<path class="st28" d="M709.7,730.5c0,3.6,3.1,6.5,6.8,6.5s6.8-2.9,6.8-6.5c0-3.6-3.1-6.5-6.8-6.5S709.7,726.9,709.7,730.5z"/>
						<path class="st40" d="M706.7,729.9h18.7v-1.7c0-4.8-3.9-8.7-8.7-8.7h-1.2c-4.8,0-8.7,3.9-8.7,8.7V729.9z"/>
					</g>
				</g>
				<path class="st33" d="M821.5,480.3l-17.6,127.4c-1.1,7.7-7.6,13.6-15.4,13.8l-40.2,0.7l24.5-160.2l32.8,0
					C815.3,462,822.8,470.6,821.5,480.3z"/>
				<g>
					<path class="st39" d="M629.3,516.4c15.4,0,29.4-9,35.9-22.9l29-62.6l-23.7-10.9l-29,62.6c-2.2,4.8-7,7.9-12.3,7.8l-42.7-0.4
						l-0.3,26.1l42.7,0.4C629.1,516.4,629.2,516.4,629.3,516.4z"/>
				</g>
				<path class="st39" d="M648,622.3h103c7.6,0,13.9-6.2,13.9-13.9v0c0-7.6-6.2-13.9-13.9-13.9H648c-7.6,0-13.9,6.2-13.9,13.9v0
					C634.1,616,640.3,622.3,648,622.3z"/>
				<rect x="687.5" y="395.2" class="st3" width="40.3" height="11.3"/>
				<path class="st39" d="M766.5,604.7l18.7-130.7c0.8-5.8-3.5-11.2-9.7-12h0c-6.2-0.8-11.9,3.3-12.7,9.2l-18.7,130.7
					c-0.8,5.8,3.5,11.2,9.7,12l0,0C760,614.7,763.2,619,766.5,604.7z"/>
				<path class="st66" d="M673.3,573.4c-1.5-0.7-2.8-1.3-4-1.9c-4.1-2.2-5.7-3.8-5.9-4c0,0,0,0,0,0l-0.6-69.6
					c7.4-10,9.8-19.7,9.8-19.7L673.3,573.4z"/>
			</g>
		</g>
		<g>
			<g>
				<path class="st12" d="M148.3,660.3v18.7h80c5.2,0,9.4-4.2,9.4-9.4c0-2.6-1-4.9-2.7-6.6c-1.7-1.7-4-2.7-6.6-2.7H148.3z"/>
				<path class="st28" d="M126.3,660.3v18.7h80c5.2,0,9.4-4.2,9.4-9.4c0-2.6-1-4.9-2.7-6.6c-1.7-1.7-4-2.7-6.6-2.7H126.3z"/>
				<path class="st3" d="M126.3,663.5v12h77.5c3.3,0,6-2.7,6-6c0-1.7-0.7-3.2-1.8-4.3c-1.1-1.1-2.6-1.8-4.3-1.8H126.3z"/>
			</g>
		</g>
		<g>
			<rect x="155.7" y="658.5" class="st67" width="124.9" height="80.1"/>
			<rect x="103.5" y="658.5" class="st68" width="124.9" height="80.1"/>
			<path class="st50" d="M178.1,680.9h-24.4c-3.2,0-5.8-2.6-5.8-5.8l0,0c0-3.2,2.6-5.8,5.8-5.8h24.4c3.2,0,5.8,2.6,5.8,5.8l0,0
				C183.9,678.3,181.3,680.9,178.1,680.9z"/>
			<path class="st69" d="M153.8,686.3c0-2.4-1-4.5-2.5-6.1c-1.6-1.6-3.7-2.5-6.1-2.5h-4c1.7-0.8,2.9-2.5,2.9-4.5v-12.4
				c0-0.8-0.2-1.6-0.6-2.3h-40V683v11.9v43.3h37.4c2.7,0,4.9-2.2,4.9-4.9V721c0-2.7-2.2-4.9-4.9-4.9h-1.5c1.1-0.9,1.8-2.2,1.8-3.7
				V700c0-2.7-2.2-4.9-4.9-4.9l-0.3-0.1h9.3C149.9,694.9,153.8,691.1,153.8,686.3z"/>
		</g>
		<g class="st70">
			<g>
				<path class="st71" d="M100.1,718.5H39.8v-20.8h60.3c2.5,0,4.6,2.1,4.6,4.6v11.6C104.7,716.4,102.7,718.5,100.1,718.5z"/>
				<path class="st71" d="M97.9,717.1h-58v-18.2h58c2.2,0,4,1.8,4,4v10.3C101.8,715.4,100.1,717.1,97.9,717.1z"/>
			</g>
			<g>
				<path class="st71" d="M101.2,679.1h-58v-18.2h58c2.2,0,4,1.8,4,4v10.3C105.1,677.3,103.4,679.1,101.2,679.1z"/>
			</g>
			<g>
				<path class="st71" d="M104.5,738.2H44.2v-20.8h60.3c2.5,0,4.6,2.1,4.6,4.6v11.6C109.1,736.2,107.1,738.2,104.5,738.2z"/>
				<path class="st71" d="M102.3,736.9h-58v-18.2h58c2.2,0,4,1.8,4,4v10.3C106.2,735.1,104.5,736.9,102.3,736.9z"/>
			</g>
			<g>
				<path class="st71" d="M53.7,681v16.2H112c4.5,0,8.1-3.6,8.1-8.1c0-2.2-0.9-4.3-2.4-5.7c-1.5-1.5-3.5-2.4-5.7-2.4H53.7z"/>
				<path class="st71" d="M53.7,683.8v10.4h56.1c2.9,0,5.2-2.3,5.2-5.2c0-1.4-0.6-2.7-1.5-3.7c-0.9-0.9-2.2-1.5-3.7-1.5H53.7z"/>
			</g>
			<g>
				<line class="st71" x1="42.5" y1="665.3" x2="102.9" y2="665.3"/>
				<line class="st71" x1="42.5" y1="668.7" x2="102.9" y2="668.7"/>
				<line class="st71" x1="42.5" y1="672.2" x2="102.9" y2="672.2"/>
				<line class="st71" x1="42.5" y1="675.7" x2="102.9" y2="675.7"/>
			</g>
			<g>
				<line class="st71" x1="39.8" y1="702.7" x2="100.2" y2="702.7"/>
				<line class="st71" x1="39.8" y1="706.2" x2="100.2" y2="706.2"/>
				<line class="st71" x1="39.8" y1="709.7" x2="100.2" y2="709.7"/>
				<line class="st71" x1="39.8" y1="713.2" x2="100.2" y2="713.2"/>
			</g>
			<g>
				<line class="st71" x1="44.4" y1="722.7" x2="104.7" y2="722.7"/>
				<line class="st71" x1="44.4" y1="726.2" x2="104.7" y2="726.2"/>
				<line class="st71" x1="44.4" y1="729.6" x2="104.7" y2="729.6"/>
				<line class="st71" x1="44.4" y1="733.1" x2="104.7" y2="733.1"/>
			</g>
		</g>
		<g>
			<g>
				<path class="st33" d="M116.6,715.4H47v-24.1h69.7c2.9,0,5.3,2.4,5.3,5.3v13.4C122,713,119.6,715.4,116.6,715.4z"/>
				<path class="st33" d="M91.3,715.4H21.5v-24.1h69.7c2.9,0,5.3,2.4,5.3,5.3v13.4C96.6,713,94.2,715.4,91.3,715.4z"/>
				<path class="st3" d="M88.7,713.8H21.5v-21h67.2c2.5,0,4.6,2,4.6,4.6v11.9C93.3,711.8,91.2,713.8,88.7,713.8z"/>
				<rect x="99.9" y="698.9" class="st3" width="19.4" height="8.6"/>
				<rect x="101.8" y="700.8" class="st28" width="15.9" height="1.7"/>
				<rect x="101.8" y="703.7" class="st28" width="15.9" height="1.7"/>
			</g>
			<g>
				<path class="st33" d="M119.9,672.9H50.2v-24.1h69.7c2.9,0,5.3,2.4,5.3,5.3v13.4C125.2,670.5,122.8,672.9,119.9,672.9z"/>
				<path class="st33" d="M94.5,672.9H24.1v-24.1h70.4c2.9,0,5.3,2.4,5.3,5.3v13.4C99.8,670.5,97.4,672.9,94.5,672.9z"/>
				<path class="st3" d="M91.9,671.3H24.1v-21h67.8c2.5,0,4.6,2,4.6,4.6v11.9C96.5,669.3,94.4,671.3,91.9,671.3z"/>
				<rect x="103.2" y="656.4" class="st3" width="19.4" height="8.6"/>
				<rect x="105.1" y="658.3" class="st28" width="15.9" height="1.7"/>
				<rect x="105.1" y="661.1" class="st28" width="15.9" height="1.7"/>
			</g>
			<g>
				<path class="st28" d="M121.7,738.2H52v-24.1h69.7c2.9,0,5.3,2.4,5.3,5.3v13.4C127,735.8,124.6,738.2,121.7,738.2z"/>
				<path class="st28" d="M96.3,738.2H26.7v-24.1h69.7c2.9,0,5.3,2.4,5.3,5.3v13.4C101.7,735.8,99.3,738.2,96.3,738.2z"/>
				<path class="st3" d="M93.8,736.7H26.7v-21h67.1c2.5,0,4.6,2,4.6,4.6v11.9C98.3,734.6,96.3,736.7,93.8,736.7z"/>
				<rect x="105" y="721.7" class="st3" width="19.4" height="8.6"/>
				<rect x="106.9" y="723.6" class="st28" width="15.9" height="1.7"/>
				<rect x="106.9" y="726.5" class="st28" width="15.9" height="1.7"/>
			</g>
			<g>
				<path class="st25" d="M46.3,672.4v18.7h80.1c5.2,0,9.4-4.2,9.4-9.4c0-2.6-1-4.9-2.7-6.6c-1.7-1.7-4-2.7-6.6-2.7H46.3z"/>
				<path class="st29" d="M37,672.4v18.7h67.4c5.2,0,9.4-4.2,9.4-9.4c0-2.6-1-4.9-2.7-6.6c-1.7-1.7-4-2.7-6.6-2.7H37z"/>
				<path class="st3" d="M37,675.6v12h64.8c3.3,0,6-2.7,6-6c0-1.7-0.7-3.2-1.8-4.3c-1.1-1.1-2.6-1.8-4.3-1.8H37z"/>
			</g>
			<g>
				<line class="st72" x1="24.1" y1="655.3" x2="93.9" y2="655.3"/>
				<line class="st72" x1="24.1" y1="659.3" x2="93.9" y2="659.3"/>
				<line class="st72" x1="24.1" y1="663.3" x2="93.9" y2="663.3"/>
				<line class="st72" x1="24.1" y1="667.4" x2="93.9" y2="667.4"/>
			</g>
			<g>
				<line class="st72" x1="21.5" y1="697.2" x2="91.3" y2="697.2"/>
				<line class="st72" x1="21.5" y1="701.2" x2="91.3" y2="701.2"/>
				<line class="st72" x1="21.5" y1="705.2" x2="91.3" y2="705.2"/>
				<line class="st72" x1="21.5" y1="709.3" x2="91.3" y2="709.3"/>
			</g>
			<g>
				<line class="st72" x1="26.8" y1="720.3" x2="96.6" y2="720.3"/>
				<line class="st72" x1="26.8" y1="724.3" x2="96.6" y2="724.3"/>
				<line class="st72" x1="26.8" y1="728.3" x2="96.6" y2="728.3"/>
				<line class="st72" x1="26.8" y1="732.3" x2="96.6" y2="732.3"/>
			</g>
		</g>
		<rect x="551.1" y="240" class="st25" width="211.1" height="16.2"/>
		<rect x="566.6" y="226.7" class="st33" width="106.8" height="14.3"/>
		<rect x="532.7" y="226.7" class="st39" width="106.8" height="14.3"/>
		<path class="st73" d="M396.9,675.8v-23.5c0-4.8,3.9-8.8,8.8-8.8l0,0c4.8,0,8.8,3.9,8.8,8.8v29.1h15.1V663
			c0-6.5-5.3-11.8-11.8-11.8l0,0c-6.5,0-11.8,5.3-11.8,11.8v18.4"/>
		<path class="st12" d="M498,663.9h-10.5v-7.2c0-2.9,2.4-5.3,5.3-5.3l0,0c2.9,0,5.3,2.4,5.3,5.3V663.9z"/>
		<path class="st16" d="M483.4,663.9h-13.5v-9.2c0-3.7,3-6.7,6.7-6.7l0,0c3.7,0,6.7,3,6.7,6.7V663.9z"/>
		<g>
			<path class="st74" d="M511.7,709h-47.2c-5.9,0-10.7-4.8-10.7-10.7v-26.7c0-5.9,4.8-10.7,10.7-10.7h47.2c5.9,0,10.7,4.8,10.7,10.7
				v26.7C522.4,704.2,517.6,709,511.7,709z"/>
			<path class="st30" d="M500.5,709h-47.2c-5.9,0-10.7-4.8-10.7-10.7v-26.7c0-5.9,4.8-10.7,10.7-10.7h47.2c5.9,0,10.7,4.8,10.7,10.7
				v26.7C511.2,704.2,506.4,709,500.5,709z"/>
		</g>
		<rect x="454.9" y="671.5" class="st28" width="41.9" height="26.3"/>
		<path class="st12" d="M411.1,701.8h-52.6v-24.3c0-8.1,6.6-14.7,14.7-14.7h23.2c8.1,0,14.7,6.6,14.7,14.7V701.8z"/>
		<path class="st75" d="M429.5,701.8h-52.6v-24.3c0-8.1,6.6-14.7,14.7-14.7h23.2c8.1,0,14.7,6.6,14.7,14.7V701.8z"/>
		<g>
			<rect x="376.2" y="672.3" class="st67" width="75.4" height="70"/>
			<rect x="344.7" y="672.3" class="st68" width="75.4" height="70"/>
			<path class="st50" d="M389.1,691.9h-13.3c-2.3,0-4.2-1.9-4.2-4.2V686c0-2.3,1.9-4.2,4.2-4.2h13.3c2.3,0,4.2,1.9,4.2,4.2v1.7
				C393.2,690,391.4,691.9,389.1,691.9z"/>
		</g>
		<g>
			<rect x="466.8" y="672.3" class="st67" width="75.4" height="70"/>
			<rect x="435.2" y="672.3" class="st68" width="75.4" height="70"/>
			<path class="st50" d="M479.6,691.9h-13.3c-2.3,0-4.2-1.9-4.2-4.2V686c0-2.3,1.9-4.2,4.2-4.2h13.3c2.3,0,4.2,1.9,4.2,4.2v1.7
				C483.8,690,481.9,691.9,479.6,691.9z"/>
		</g>
		<g>
			<g>
				<rect x="428.9" y="505.4" class="st28" width="39.2" height="11.7"/>
				<rect x="417.9" y="505.4" class="st12" width="39.2" height="11.7"/>
			</g>
			<path class="st76" d="M433.6,513L433.6,513c-3.9,0.6-6.8,3.9-6.8,7.8l-0.1,5c-0.2,7.7-6.3,13.8-14,13.9l-13.1,0.2
				c-5.9,0.1-10.9-4.5-11.3-10.4l-0.1-1.4c-0.4-6.3-5.4-11.4-11.7-12v0l-34.9-0.1c-1.2,0-2.2-0.5-3-1.4l-0.4-0.6"/>
			<path class="st76" d="M440.6,514L440.6,514c-3.4,0.2-6.1,3.1-6,6.5l1,37.2c0.3,9.9-7.8,17.9-17.7,17.6h0
				c-9.1-0.3-16.4-7.6-16.6-16.7l-0.9-36.2c-0.1-3.4-2.8-6.1-6.2-6.2l-16.7-0.1"/>
			<path class="st3" d="M446.3,515.7h-7.6c-0.9,0-1.5-0.7-1.5-1.5l0,0c0-0.9,0.7-1.5,1.5-1.5h7.6c0.9,0,1.5,0.7,1.5,1.5l0,0
				C447.9,515,447.2,515.7,446.3,515.7z"/>
			<path class="st3" d="M433.9,515h-7.6c-0.9,0-1.5-0.7-1.5-1.5l0,0c0-0.9,0.7-1.5,1.5-1.5h7.6c0.9,0,1.5,0.7,1.5,1.5l0,0
				C435.5,514.3,434.8,515,433.9,515z"/>
		</g>
	</g>
	<rect x="519.7" y="240" class="st29" width="211.1" height="16.2"/>
</g>
<path class="st27" d="M248.2,417.9h-3.4c-4.4,0-8-3.6-8-8v-25.2c0-4.4,3.6-8,8-8h3.4c4.4,0,8,3.6,8,8V410
	C256.2,414.3,252.6,417.9,248.2,417.9z"/>
<g>
	<path class="st3" d="M247,320.1l-2.8-3.1c0,0-14.3,2.3-20,14.7l2.1,3.1L247,320.1z"/>
	<g>
		<path class="st15" d="M292.4,355.4c0,0.5-0.1,1-0.1,1.6c-0.3,2.5-0.8,4.9-1.6,7.2c-3.3,9.8-37-19.6-46.4-15.9
			c-4.7,1.9-7.6,41.6-8.4,41c-16-14.5-15.2-32.3-14.7-39c1.3-18.7,18.8-32.6,37.3-32.2c0.5,0,1.1,0,1.6,0.1
			c11.7,0.8,21.7,7.3,27.4,16.7c0,0,0,0,0,0c1.7,2.7,3,5.7,3.8,8.9C292.2,347.4,292.7,351.3,292.4,355.4z"/>
		<g>
			<path class="st77" d="M245.9,362.6c0,0.8-0.2,1.5-0.5,2.2c-0.3,0.8-0.9,1.7-1.5,2.2c-1.2,1.1-2.8,1.8-4.5,1.7l-3.7-0.2l-2.8-0.1
				l0.4-8.4h0l0.1-1.6l0.1-1.2l0.1-1.1l0-0.3h0l6.5,0.3c1.7,0.1,3.1,0.8,4.2,1.9c0.6,0.7,1.1,1.5,1.4,2.4
				C245.8,361.1,245.9,361.8,245.9,362.6z"/>
			<path class="st26" d="M232.5,373.1c0,0.3,0,0.6,0,1c0,0.1,0,0.2,0,0.3c0.2,4.1,1.2,8,3,11.5c0.1,0.2,0.2,0.3,0.3,0.5
				c2.9,5.4,7.5,9.9,13.2,12.6c0,0,0,0,0,0c2.2,1,4.5,1.8,7,2.3c0.9,0.2,1.8,0.3,2.7,0.4c0.4,0,0.7,0.1,1.1,0.1
				c1.4,0.1,2.7,0.1,4-0.1c0.4,0,0.7-0.1,1.1-0.1c12.3-1.5,22.3-10.8,24.6-22.8c0.2-1.3,0.4-2.6,0.5-4l0.1-2l0.7-13.6
				c0.1-2.1,0.1-4.1-0.2-6c-0.2-1.5-0.5-3-1-4.4c-1.3-3.8-3-7.2-5.7-10.1c-5-5.4-12.1-9-20-9.4c-5.9-0.3-11.6,1.2-16.4,4
				c-0.7,0.4-1.4,0.9-2,1.3c-3.3,2.3-6.1,5.3-8.1,8.7c0,0,0,0,0,0c-0.5,0.9-1,1.9-1.5,2.8c-0.1,0.2-0.2,0.3-0.2,0.5
				c-0.5,1.2-1,2.4-1.4,3.6c-0.6,1.8-1,3.7-1.1,5.6l0,0.3l-0.1,1.1l-0.1,1.2l-0.1,1.6v0l0,0.1l0,0.3l0,0.7l-0.4,7.4l-0.1,2.4l0,0.9
				v0.2C232.5,372.3,232.5,372.7,232.5,373.1z"/>
			<path class="st77" d="M228.3,366c-0.1,2.7,1.7,5.2,4.3,5.8c0.2,0.1,0.5,0.1,0.7,0.1c0.1,0,0.2,0,0.4,0l1.8,0.1l0.2-3.7l0-0.8
				l0.3-6.7l-1.8-0.1c-0.2,0-0.3,0-0.5,0h0c-0.2,0-0.5,0-0.7,0.1c0,0,0,0,0,0c-1.1,0.1-2.1,0.6-2.9,1.3
				C229.1,363.2,228.4,364.5,228.3,366z"/>
		</g>
		<path class="st26" d="M232.6,371.9L232.6,371.9c0,0.4,0,0.8,0,1.2c0,0.3,0,0.6,0,1c0,0.1,0,0.2,0,0.3c0.1,0,0.1,0,0.2,0
			c0.1,4.1,1.1,7.9,2.8,11.5c0.1,0.2,0.2,0.3,0.3,0.5c2.9,5.6,7.6,10.2,13.3,12.9c0,0,0,0,0,0c4.9,3,5.2,2.5,5.2,2.5
			s2.4-0.3,2.1-0.5c-2-1.3-7.2-6.2-10.4-14.8c-1.8-4.7-2.2-12.3-2.1-19.2v-0.5c0-3.1,0.2-6.1,0.3-8.5c0,0,0-0.1,0-0.1
			c0.2-3.3,0.4-5.4,0.4-5.4c-2.2-4.9-6.2-4.4-10.1-2.3c-0.5,1.7-0.9,3.4-1,5.3c0,0.1,0,0.2,0,0.3h0l0,0.3l-0.1,1.1l-0.1,1.2
			l-0.1,1.6v0c-0.1,0-0.1,0-0.2,0l0,0.7c-1.1,0.1-2.1,0.6-2.9,1.3c-1.1,1-1.8,2.2-1.9,3.8C228.1,368.7,230,371.2,232.6,371.9z"/>
		<path class="st15" d="M281.6,343.7c0.5,2.5-0.4,4.9-2,6.4c-1.3,1.3-3.1,2.1-5.1,2.1c0,0-28.5,2.1-32.6,11l-3.1,5.6
			c-0.4,0.8-1.3,1.3-2.3,1.2c0,0,0,0-0.1,0c-1.1-0.1-2-0.9-2.2-2.1c-0.7-5.5-3.9-21.3-3.9-22.5c0-2,1.9-4.3,3.2-5.6
			c1.3-1.3,3.1-2.1,5.1-2.1l35.5,0C277.7,337.7,280.9,340.2,281.6,343.7z"/>
		<path class="st39" d="M268.8,385.5h4.5c0.6,0,1.1-0.5,1.1-1.1l0,0c0-0.6-0.5-1.1-1.1-1.1h-4.5c-0.6,0-1.1,0.5-1.1,1.1l0,0
			C267.7,385,268.2,385.5,268.8,385.5z"/>
		<path class="st39" d="M269,387.5h3.2c0.8,0,1.4-0.7,1.4-1.4l0,0c0-0.8-0.7-1.4-1.4-1.4H269c-0.8,0-1.4,0.7-1.4,1.4l0,0
			C267.5,386.8,268.2,387.5,269,387.5z"/>
		<path class="st26" d="M275.9,376.8c0,0-0.3,2.1-3.3,2c-2.6-0.1-2.8-1.9-2.8-1.9L275.9,376.8z"/>
		<path class="st40" d="M228.6,373.6c0,1.7,1.4,3.1,3.1,3.1c1.7,0,3.1-1.4,3.1-3.1c0-1.7-1.4-3.1-3.1-3.1
			C230,370.5,228.6,371.9,228.6,373.6z"/>
		<path class="st15" d="M279.6,342.5c0,0,8.7-0.3,12.2,10c0,0,2-10.5-12.4-21.3c-14.4-10.8-39.8-1.8-41.8,2.8
			c-2.1,4.6-1.8,8.2-1.8,8.2L279.6,342.5z"/>
		<g>
			<path class="st78" d="M266.5,360.7c0,0-4.9-2.3-10,0.8"/>
			<path class="st78" d="M286.8,360.1c0,0-4.9-2.3-10,0.8"/>
		</g>
		<path class="st28" d="M261.8,369.9L261.8,369.9c-0.7,0-1.3-0.6-1.3-1.3v-2.4c0-0.7,0.6-1.3,1.3-1.3l0,0c0.7,0,1.3,0.6,1.3,1.3v2.4
			C263.1,369.4,262.5,369.9,261.8,369.9z"/>
		<path class="st28" d="M281.7,369.9L281.7,369.9c-0.7,0-1.3-0.6-1.3-1.3v-2.4c0-0.7,0.6-1.3,1.3-1.3l0,0c0.7,0,1.3,0.6,1.3,1.3v2.4
			C282.9,369.4,282.4,369.9,281.7,369.9z"/>
	</g>
</g>
</svg>
