<?xml version="1.0" encoding="UTF-8"?>
<svg width="916px" height="677px" viewBox="0 0 916 677" version="1.1" xmlns="http://www.w3.org/2000/svg" xmlns:xlink="http://www.w3.org/1999/xlink">
    <!-- Generator: Sketch 52.2 (67145) - http://www.bohemiancoding.com/sketch -->
    <title>64666</title>
    <desc>Created with Sketch.</desc>
    <g id="Page-1" stroke="none" stroke-width="1" fill="none" fill-rule="evenodd">
        <g id="64666">
            <polyline id="Fill-4" fill="#3B455A" points="904.609 464.348 900.056 549.033 891.558 663.354 878.842 664.258 863.394 560.427 842.021 472.565 904.609 464.348"></polyline>
            <polyline id="Fill-5" fill="#474EBB" points="879.297 669.614 893.535 675.513 899.922 668.148 892.559 661.762 878.808 662.739 879.297 669.614"></polyline>
            <polyline id="Fill-6" fill="#3B455A" points="807.146 458.007 804.354 508.828 812.635 659.939 825.366 660.576 844.447 561.466 861.277 452.78 807.146 458.007"></polyline>
            <polyline id="Fill-7" fill="#474EBB" points="825.024 662.96 810.912 669.155 804.372 664.909 811.601 658.369 825.368 659.057 825.024 662.96"></polyline>
            <path d="M876.303,301.932 L836.432,299.316 C836.432,299.316 814.445,302.587 801.624,355.649 C794.491,385.17 793.85,431.245 794.685,466.317 C795.828,471.277 802.178,492.952 825.055,488.287 C864.342,480.277 885.13,473.03 902.484,475.509 C917.288,478.094 915.214,457.944 912.966,442.596 L905.152,395.14 L876.303,301.932" id="Fill-8" fill="#437ECA"></path>
            <path d="M866.599,252.836 C856.502,251.043 846.123,249.492 836.188,251.888 C834.013,252.413 831.689,253.273 830.578,255.216 C830.147,255.969 829.938,256.825 829.748,257.671 C827.607,267.171 824.976,281.231 831.518,289.632 C832.766,291.234 834.403,292.479 836.149,293.473 C838.483,294.801 841.043,295.665 843.67,296.072 C843.228,298.43 842.571,300.748 841.711,302.987 C844.144,306.347 854.846,306.32 856.685,302.928 C856.678,300.058 856.67,297.188 856.662,294.318 C857.941,293.74 859.172,293.049 860.319,292.223 C864.762,289.027 867.582,284.339 869.119,279.161 C870.793,273.522 873.253,268.127 874.758,262.389 C875.306,260.298 875.708,257.921 874.545,256.1 C873.307,254.161 870.783,253.587 868.52,253.18 C867.88,253.065 867.24,252.95 866.599,252.836" id="Fill-9" fill="#B97262"></path>
            <path d="M833.518,259.582 C838.332,256.197 845.694,254.522 850.358,254.667 C864.459,255.106 870.035,265.218 871.318,278.112 C874.988,273.03 882.001,266.539 882.179,260.187 C882.324,254.987 881.315,247.947 878.227,243.589 C875.336,239.512 868.291,237.498 864.059,235.24 C860.068,233.112 856.078,230.984 852.088,228.857 C851.258,228.414 850.405,227.964 849.473,227.842 C848.37,227.697 847.266,228.023 846.201,228.345 C837.091,231.105 827.981,233.864 818.872,236.624 C817.122,237.154 815.134,237.905 814.553,239.639 C814.199,240.693 814.48,241.843 814.763,242.919 C816.005,247.656 818.214,252.459 818.91,257.281 C819.588,260.07 821.86,274.42 826.773,272.551 C828.137,270.099 828.234,267.144 829.269,264.536 C830.032,262.608 831.565,260.954 833.518,259.582" id="Fill-10" fill="#3B455A"></path>
            <polyline id="Fill-11" fill="#437ECA" points="836.432 299.316 821.943 304.387 770.675 362.732 768.248 381.363 795.608 422.602 801.886 406.813 789.753 376.003 806.477 363.173 827.31 310.555 836.432 299.316"></polyline>
            <polyline id="Fill-12" fill="#437ECA" points="868.022 305.674 894.094 275.071 884.37 195.444 896.143 189.683 915.795 270.054 911.637 290.458 882.787 333.919 868.022 305.674"></polyline>
            <polyline id="Fill-13" fill="#B97262" points="893.623 190.916 893.321 183.603 884.437 172.804 878.883 178.188 883.067 187.935 880.82 191.444 884.37 195.444 893.623 190.916"></polyline>
            <polyline id="Fill-14" fill="#EFBFA5" points="184.28 287.042 197.44 277.841 195.568 269.45 182.229 274.049 175.79 278.246 175.79 282.898 184.28 287.042"></polyline>
            <path d="M59.25,641.882 C57.892,640.387 56.307,639.57 54.516,639.853 C52.796,640.123 51.249,641.288 50.54,642.848 C50.056,643.911 49.954,645.097 49.858,646.257 C49.362,652.26 49.407,666.513 57.403,668.564 C60.764,669.426 63.543,664.058 64.44,661.04 C65.792,656.494 63.791,646.881 59.25,641.882" id="Fill-15" fill="#3B455A"></path>
            <path d="M62.094,551.322 L61.675,587.938 C62.162,604.201 59.623,620.556 60.109,636.82 C60.222,640.56 61.196,644.505 60.254,648.212 C59.333,651.838 56.386,652.479 53.362,650.643 C49.31,648.183 49.963,642.438 49.288,638.246 C47.434,626.729 45.259,615.266 43.323,603.763 C42.374,598.123 44.331,590.219 43.905,584.512 L37.989,553.826 L62.094,551.322" id="Fill-16" fill="#EFBFA5"></path>
            <polyline id="Fill-17" fill="#CCD2D9" points="20.259 492.16 36.195 562.949 39.58 629.799 64.849 629.231 71.72 442.241 22.735 443.131 20.259 492.16"></polyline>
            <path d="M95.393,637.57 C93.976,636.154 92.361,635.431 90.588,635.818 C88.886,636.19 87.394,637.448 86.753,639.051 C86.317,640.144 86.266,641.336 86.22,642.503 C85.982,648.54 86.636,662.801 94.693,664.383 C98.079,665.047 100.748,662.494 101.513,659.421 C102.666,654.792 100.133,642.306 95.393,637.57" id="Fill-18" fill="#3B455A"></path>
            <path d="M82.074,556.462 L84.218,593.018 C84.394,603.177 85.747,613.257 86.799,623.348 C87.776,632.72 86.255,642.482 91.154,651.007 C92.69,653.681 95.795,655.46 97.964,652.212 C99.637,649.709 98.643,645.534 98.964,642.695 C100.273,631.104 101.905,619.552 103.297,607.971 C103.979,602.294 101.652,594.49 101.808,588.769 L106.271,557.841 L82.074,556.462" id="Fill-19" fill="#EFBFA5"></path>
            <polyline id="Fill-20" fill="#CCD2D9" points="114.051 487.831 116.108 556.547 105.324 626.036 79.62 626.806 80.754 551.601 67.153 489.234 62.587 448.41 103.373 443.6 114.051 487.831"></polyline>
            <polyline id="Fill-21" fill="#EBB044" points="81.787 302.968 37.847 301.919 12.372 349.3 21.426 393.678 23.039 446.786 85.717 447.642 106.34 444.293 100.864 387.548 103.732 318.306 81.787 302.968"></polyline>
            <polyline id="Fill-22" fill="#EBB044" points="36.39 305.187 0.722 359.515 6.082 389.779 61.325 428.047 71.72 418.959 34.788 372.272 36.221 342.77 36.39 305.187"></polyline>
            <polyline id="Fill-23" fill="#EBB044" points="79.126 333.642 121.345 348.865 145.776 342.853 187.995 287.459 173.292 281.055 128.95 319.133 88.816 307.107 79.126 333.642"></polyline>
            <polyline id="Fill-24" fill="#FFFFFF" points="50.846 302.717 64.477 321.982 70.885 321.458 81.565 301.919 50.846 302.717"></polyline>
            <polyline id="Fill-25" fill="#EFBFA5" points="61.646 421.269 61.407 428.68 74.489 433.441 82.028 427.729 82.033 419.102 74.754 418.695 74.526 416.798 72.143 415.265 61.646 421.269"></polyline>
            <path d="M66.947,264.042 C69.798,261.527 73.057,261.071 76.691,261.044 C78.409,261.031 78.983,261.475 79.869,261.319 C80.267,261.25 80.728,261.059 81.383,260.651 C82.684,259.841 83.844,257.722 84.453,255.994 C87.823,258.125 90.275,261.975 90.951,267.837 C91.686,274.21 91.674,280.934 89.49,287.31 C87.306,293.687 82.644,299.683 76.597,302.049 C76.244,302.187 75.895,302.308 75.546,302.421 C72.955,303.267 70.495,303.442 68.212,303.076 L60.588,299.443 C60.209,299.12 59.841,298.78 59.484,298.424 C56.979,287.577 59.694,270.437 66.947,264.042" id="Fill-26" fill="#EFBFA5"></path>
            <path d="M64.347,258.036 C65.247,257.44 66.169,256.905 67.105,256.433 C66.169,256.905 65.247,257.44 64.347,258.036 Z M3.617,395.313 C4.195,398.701 5.941,401.766 8.339,404.251 C8.53,403.082 8.73,401.922 8.939,400.771 C8.73,401.922 8.53,403.082 8.339,404.251 C9.889,405.856 11.708,407.223 13.667,408.271 C18.66,410.939 24.447,411.778 30.108,411.77 C34.639,411.763 39.233,411.247 43.66,412.218 C48.085,413.188 52.469,416.07 53.588,420.461 C54.206,422.884 54.004,425.928 56.099,427.294 C57.082,427.935 58.322,427.988 59.495,428.022 C63.079,428.125 67.151,428.031 69.558,425.373 C73.284,421.258 71.108,413.004 76.142,410.664 C77.617,409.979 79.321,410.085 80.924,409.813 C87.736,408.661 91.068,400.955 90.413,393.881 C90.278,392.414 89.975,390.975 89.492,389.627 C86.678,381.775 80.155,375.949 75.216,369.228 C65.574,356.105 59.054,338.573 64.983,323.043 C65.542,321.583 66.167,320.116 66.556,318.608 C66.77,317.779 66.915,316.938 66.931,316.078 C67.017,311.446 63.571,307.633 61.343,303.572 C61.135,303.192 60.939,302.792 60.755,302.374 C60.304,301.35 59.929,300.207 59.619,298.981 C59.572,298.797 59.527,298.612 59.484,298.424 C52.645,291.603 49.904,278.932 54.405,269.462 C54.662,268.923 54.933,268.397 55.22,267.882 C54.933,268.397 54.662,268.923 54.405,269.462 C49.904,278.932 52.645,291.603 59.484,298.424 C56.979,287.577 59.694,270.437 66.947,264.042 C69.798,261.527 73.057,261.071 76.691,261.044 C78.409,261.031 78.983,261.475 79.869,261.319 C80.267,261.25 80.728,261.059 81.383,260.651 C82.684,259.841 83.844,257.722 84.453,255.994 C87.823,258.125 90.275,261.975 90.951,267.837 C91.686,274.21 91.674,280.934 89.49,287.31 C87.306,293.687 82.644,299.683 76.596,302.049 C76.244,302.187 75.895,302.308 75.546,302.421 C75.847,302.965 76.227,303.508 76.72,304.051 C80.032,307.694 85.345,308.54 90.228,309.17 C90.819,309.247 91.441,309.32 91.997,309.104 C92.913,308.747 93.384,307.687 93.392,306.704 C93.399,305.721 93.046,304.777 92.775,303.833 C89.938,293.953 94.965,282.667 95.803,272.707 C96.64,262.766 94.588,251.949 86.609,245.228 C85.254,245.6 83.94,246.109 82.685,246.737 C82.56,246.571 82.432,246.407 82.299,246.248 C70.75,232.379 54.442,244.235 45.669,254.826 C38.438,263.557 32.41,273.581 29.646,284.659 C27.06,295.02 26.196,310.246 27.29,320.837 C27.928,327.02 30.374,333.087 31.667,339.143 C32.471,342.91 32.83,346.674 32.027,350.458 C30.355,358.336 24.121,364.114 18.033,369.584 C17.478,371.006 16.927,372.446 16.378,373.908 C15.83,375.37 15.284,376.853 14.743,378.357 C14.395,379.326 14.057,380.312 13.73,381.313 C14.057,380.312 14.395,379.326 14.743,378.357 C15.284,376.853 15.83,375.37 16.378,373.908 C16.927,372.446 17.478,371.006 18.033,369.584 C17.191,370.341 16.352,371.092 15.527,371.842 C8.747,378.011 2.076,386.275 3.617,395.313 Z" id="Fill-27" fill="#333E51"></path>
            <polygon id="Fill-28" fill="#EBB044" points="688.697 157.505 873.985 157.505 873.985 12.879 688.697 12.879"></polygon>
            <path d="M680.146,89.709 L681.022,211.582 L858.428,210.305 C871.846,210.208 882.64,198.504 882.536,184.162 L881.847,88.258 L781.448,151.86 L680.146,89.709" id="Fill-29" fill="#474EBB"></path>
            <polygon id="Fill-30" fill="#F7F7F7" points="722.221 42.746 859.381 42.746 859.381 39.792 722.221 39.792"></polygon>
            <polygon id="Fill-31" fill="#F7F7F7" points="703.303 65.876 859.381 65.876 859.381 62.812 703.303 62.812"></polygon>
            <polygon id="Fill-32" fill="#F7F7F7" points="703.303 88.951 859.381 88.951 859.381 85.886 703.303 85.886"></polygon>
            <polyline id="Fill-33" fill="#455063" points="185.21 178.731 159.658 231.977 159.591 156.639 410.321 0.088 185.21 178.731"></polyline>
            <polyline id="Fill-34" fill="#8AB8BF" points="184.492 180.229 185.21 178.731 270.533 111.021 184.492 180.229"></polyline>
            <polyline id="Fill-35" fill="#4A5465" points="159.854 231.142 159.654 157.209 310.248 79.077 270.533 111.021 185.21 178.731 184.492 180.229 159.854 231.142"></polyline>
            <polyline id="Fill-36" fill="#3B455A" points="159.658 231.977 184.439 179.55 409.766 0.864 159.658 231.977"></polyline>
            <polyline id="Fill-37" fill="#707F78" points="409.766 0.864 410.321 0.088 407.397 2.35 409.766 0.864"></polyline>
            <polyline id="Fill-38" fill="#FFFFFF" points="409.766 0.864 407.397 2.35 184.501 179.219 184.245 179.374 256.084 243.9 409.766 0.864"></polyline>
            <polyline id="Fill-39" fill="#FFFFFF" points="410.321 0.088 97.936 101.85 159.231 156.906 407.397 2.35 410.321 0.088"></polyline>
            <polyline id="Fill-40" fill="#474EBB" points="285.662 655.052 284.657 662.861 299.272 669.697 308.085 665.873 301.28 657.06 286.666 647.242 285.662 655.052"></polyline>
            <polyline id="Fill-41" fill="#3B455A" points="285.167 652.431 296.438 552.836 282.877 441.339 285.927 417.622 346.496 415.321 348.682 453.924 338.514 552.988 300.26 657.52 285.167 652.431"></polyline>
            <polyline id="Fill-42" fill="#E6816C" points="352.182 305.125 382.647 313.423 417.883 375.857 401.192 391.312 377.702 363.494 352.182 305.125"></polyline>
            <polyline id="Fill-43" fill="#3B455A" points="390.939 426.482 391.099 526.986 370.868 656.368 356.307 656.223 348.303 536.574 329.57 416.819 390.939 426.482"></polyline>
            <polyline id="Fill-44" fill="#474EBB" points="356.33 662.363 371.998 667.413 379.949 662.599 372.155 654.647 356.408 654.49 356.33 662.363"></polyline>
            <path d="M276.609,460.664 C276.749,456.309 276.991,452.674 277.025,451.376 C277.337,439.692 278.378,428.035 279.841,416.436 C281.151,406.04 282.806,380.232 284.584,369.901 C286.054,361.371 291.172,340.08 294.871,332.167 C304.067,312.492 301.226,310.674 341.625,304.832 C359.332,302.271 363.517,313.305 377.992,325.995 C379.419,327.246 379.34,334.697 379.672,336.671 C380.255,340.146 380.88,343.615 381.597,347.067 C382.16,349.781 382.781,352.486 383.478,355.174 L383.477,355.173 C383.477,355.173 395.629,410.475 403.665,422.22 C411.701,433.964 428.303,450.384 400.532,460.41 C395.61,462.001 390.658,463.515 385.535,464.324 C385.535,464.324 362.822,461.8 351.142,461.887 C340.384,461.968 329.583,463.057 319.006,464.88 C311.934,466.062 304.717,467.779 298.391,471.084 C292.355,474.236 288,478.874 281.875,482.14 C281.295,482.448 280.659,482.769 280,482.677 C276.482,482.189 276.317,469.831 276.609,460.664" id="Fill-45" fill="#E6816C"></path>
            <path d="M341.672,310.38 C339.633,311.387 334.822,311.748 329.803,309.782 C328.792,309.386 328.109,308.411 328.124,307.325 C328.164,304.276 328.409,301.23 328.857,298.215 C325.093,296.891 320.743,294.907 320.087,290.971 C319.881,289.731 320.095,288.464 320.309,287.226 C321.194,282.106 322.079,276.986 322.963,271.866 C323.269,270.096 323.595,268.273 324.558,266.756 C326.248,264.093 329.527,262.929 332.633,262.39 C340.562,261.013 349.201,262.73 355.348,267.923 C356.984,269.305 358.463,270.966 359.185,272.983 C360.296,276.092 359.465,279.521 358.626,282.715 C357.852,285.663 357.078,288.611 356.304,291.559 C355.414,294.949 354.128,298.804 350.862,300.075 C349.127,300.75 347.08,300.553 345.509,301.552 C342.739,303.313 343.113,307.431 341.672,310.38" id="Fill-46" fill="#B97262"></path>
            <path d="M387.429,259.321 C388.208,258.042 389.046,256.809 389.985,255.652 C392.018,253.146 394.523,250.997 396.159,248.215 C397.794,245.434 398.37,241.662 396.407,239.101 C395.141,237.447 393.085,236.621 391.087,236.033 C384.503,234.095 377.398,233.964 370.748,235.657 C364.413,237.27 358.744,239.939 352.367,237.558 C346.375,235.321 342.048,236.232 335.786,238.466 C329.01,240.884 319.913,241.455 313.779,244.868 C311.218,246.293 309.174,248.521 307.581,250.981 C302.061,259.506 302.031,271.261 307.506,279.814 C308.734,281.733 310.204,283.487 311.749,285.162 C314.945,288.629 318.77,292.912 323.167,294.196 C323.272,290.262 319.688,277.857 322.709,274.632 C327.504,269.516 338.346,271.301 344.293,272.561 C350.782,273.935 356.564,278.529 362.997,279.511 C367.625,280.217 373.533,277.948 377.469,275.555 C382.326,272.601 384.587,263.988 387.429,259.321" id="Fill-47" fill="#3B455A"></path>
            <polyline id="Fill-48" fill="#E6816C" points="308.085 312.393 282.877 334.48 254.757 393.576 290.275 435.831 296.386 412.201 308.085 312.393"></polyline>
            <polyline id="Fill-49" fill="#474EBB" points="480.835 334.508 169.236 357.966 332.349 443.373 480.835 334.508"></polyline>
            <path d="M159.467,365.129 L174.573,565.792 L466.67,543.802 C488.764,542.139 505.232,521.648 503.455,498.034 L491.567,340.127 L333.311,456.155 L159.467,365.129" id="Fill-50" fill="#474EBB"></path>
            <path d="M424.925,338.717 C424.722,341.393 424.717,344.118 424.925,346.876 C425.565,355.381 428.157,363.271 432.224,370.147 L480.835,334.508 L424.925,338.717" id="Fill-51" fill="#353E93"></path>
            <path d="M482.502,396.391 C487.066,396.047 491.454,395.141 495.604,393.747 L491.567,340.127 L438.68,378.902 C449.425,390.743 465.322,397.684 482.502,396.391" id="Fill-52" fill="#353E93"></path>
            <path d="M437.65,339.23 C435.424,309.658 457.593,283.88 487.165,281.653 C516.737,279.427 542.516,301.596 544.742,331.168 C546.968,360.74 524.8,386.519 495.228,388.745 C465.655,390.971 439.877,368.803 437.65,339.23" id="Fill-53" fill="#D34E4E"></path>
            <polyline id="Fill-54" fill="#FFFFFF" points="502.37 364.556 489.795 365.306 487.328 323.914 479.469 324.382 478.719 311.807 499.153 310.589 502.37 364.556"></polyline>
            <path d="M680.006,649.623 C681.36,648.131 682.942,647.317 684.729,647.598 C686.445,647.868 687.989,649.031 688.696,650.587 C689.179,651.647 689.281,652.831 689.377,653.988 C689.229,652.194 690.47,674.034 681.849,676.247 C678.495,677.106 675.722,674.724 674.826,671.714 C673.478,667.177 675.475,654.611 680.006,649.623" id="Fill-55" fill="#3B455A"></path>
            <path d="M677.168,559.264 L677.586,595.798 C677.1,612.025 679.634,628.344 679.148,644.572 C679.036,648.304 678.063,652.24 679.004,655.938 C679.924,659.557 682.863,660.196 685.881,658.364 C689.924,655.91 689.272,650.178 689.945,645.995 C691.796,634.504 693.966,623.065 695.897,611.588 C696.845,605.961 694.893,598.074 695.317,592.38 L701.219,561.762 L677.168,559.264" id="Fill-56" fill="#EFBFA5"></path>
            <polyline id="Fill-57" fill="#C4CACE" points="718.91 500.232 703.01 570.864 699.632 637.567 674.419 637.001 667.563 450.424 716.439 451.312 718.91 500.232"></polyline>
            <path d="M643.942,648.295 C645.356,646.882 646.968,646.161 648.736,646.548 C650.436,646.919 651.924,648.174 652.563,649.772 C652.999,650.863 653.05,652.053 653.096,653.217 C653.022,651.353 652.991,673.409 644.641,675.049 C641.262,675.711 638.6,673.164 637.836,670.098 C636.686,665.479 639.213,653.021 643.942,648.295" id="Fill-58" fill="#3B455A"></path>
            <path d="M657.231,564.393 L655.093,600.867 C654.918,611.003 653.567,621.062 652.518,631.13 C651.543,640.481 653.06,650.223 648.172,658.729 C646.64,661.396 643.541,663.171 641.377,659.931 C639.708,657.434 640.699,653.268 640.38,650.435 C639.073,638.869 637.445,627.343 636.057,615.787 C635.376,610.122 637.697,602.336 637.541,596.628 L633.089,565.769 L657.231,564.393" id="Fill-59" fill="#EFBFA5"></path>
            <polyline id="Fill-60" fill="#C4CACE" points="625.325 495.913 623.273 564.478 634.033 633.813 659.681 634.58 658.549 559.542 672.12 497.313 676.676 456.58 635.98 451.78 625.325 495.913"></polyline>
            <polyline id="Fill-61" fill="#E06B6D" points="657.519 311.459 701.36 310.413 726.78 357.688 717.745 401.969 716.137 454.959 653.598 455.813 633.02 452.472 638.483 395.853 635.351 320.219 657.519 311.459"></polyline>
            <polyline id="Fill-62" fill="#E06B6D" points="702.814 313.673 738.404 367.88 733.056 398.078 677.936 436.262 667.563 427.193 704.413 380.61 702.983 351.172 702.814 313.673"></polyline>
            <polyline id="Fill-63" fill="#E06B6D" points="655.325 340.104 632.489 385.758 607.866 390.651 546.516 363.864 557.098 351.86 613.047 362.101 635.351 320.219 655.325 340.104"></polyline>
            <path d="M660.264,274.726 C666.873,255.511 692.24,262.712 697.471,279.821 C700.882,290.982 692.262,305.466 680.697,308.671 C680.646,309.111 680.608,309.521 680.607,309.869 C680.599,311.661 680.378,313.427 680.112,315.217 C680.014,315.884 669.893,313.94 668.765,313.718 C668.369,313.64 667.929,313.533 667.716,313.201 C667.309,312.566 667.972,310.694 668.046,309.988 C668.134,309.155 668.221,308.321 668.309,307.488 C662.604,304.703 659.005,298.773 657.999,292.736 C656.989,286.67 658.277,280.5 660.264,274.726" id="Fill-64" fill="#EFBFA5"></path>
            <path d="M676.813,257.363 C678.174,258.744 678.708,260.67 679.101,262.52 C679.335,263.624 679.536,264.767 679.3,265.86 C678.357,270.223 674.031,269.995 670.686,271.4 C666.56,273.134 663.001,276.327 660.69,280.003 C657.073,285.76 658.7,293.168 660.168,299.518 C660.685,301.755 661.726,305.083 659.99,307.079 C658.227,309.107 654.15,308.793 652.038,307.75 C650.108,306.796 648.523,305.033 646.403,304.678 C644.161,304.303 641.13,305.289 640.086,303.231 C639.796,302.658 639.769,301.958 639.402,301.434 C638.162,299.662 635.08,301.737 633.334,300.488 C632.26,299.72 632.267,298.082 632.63,296.786 C632.993,295.49 633.605,294.177 633.352,292.859 C633.135,291.726 632.317,290.831 631.813,289.8 C630.814,287.764 631.159,285.113 632.645,283.394 C635.407,280.198 640.752,280.804 643.711,277.798 C645.253,276.232 645.851,273.973 646.425,271.834 C646.999,269.697 647.689,267.442 649.337,265.994 C651.373,264.204 654.313,264.508 656.321,262.386 C657.501,261.138 658.288,259.515 659.612,258.43 C661.358,256.999 664.771,255.899 666.943,255.169 C670.388,254.012 674.239,254.749 676.813,257.363" id="Fill-65" fill="#333E51"></path>
            <path d="M692.859,288.027 C692.978,294.352 689.836,301.189 692.75,306.756 C695.689,312.375 703.02,313.388 709.266,313.681 C710.293,313.729 723.478,314.867 723.533,314.617 C724.52,310.212 725.541,305.719 727.844,301.851 C730.146,297.982 733.995,294.778 738.404,294.503 C737.132,294.282 736.49,292.725 736.638,291.412 C736.785,290.099 737.465,288.915 737.857,287.653 C738.823,284.553 737.884,280.937 735.546,278.758 C730.883,274.412 722.427,276.217 718.43,271.225 C715.951,268.128 716.246,263.639 714.947,259.859 C712.436,252.551 704.435,251.022 698.454,247.722 C692.142,244.238 686.197,242.329 678.911,243.543 C669.879,245.048 663.165,254.244 666.648,262.897 C671.116,273.996 688.979,273.038 692.323,284.307 C692.682,285.517 692.836,286.762 692.859,288.027" id="Fill-66" fill="#333E51"></path>
            <polyline id="Fill-67" fill="#C4CACE" points="688.392 311.208 674.79 330.432 668.396 329.908 657.74 310.413 688.392 311.208"></polyline>
            <path d="M585.248,412.91 C586.358,412.91 587.446,413.346 588.158,414.075 L619.524,446.229 L639.444,426.795 L608.14,394.704 C607.317,393.862 606.914,392.782 607.004,391.664 C607.1,390.462 607.756,389.326 608.804,388.549 L631.417,371.766 L524.698,329.09 L564.722,436.839 L582.39,414.221 C583.04,413.388 584.082,412.91 585.248,412.91 Z M619.415,455.829 C618.345,455.829 617.356,455.42 616.631,454.676 L585.655,422.923 L566.414,447.553 C565.729,448.43 564.756,448.912 563.673,448.912 C561.99,448.912 560.27,447.695 559.67,446.081 L514.054,323.275 C513.504,321.795 513.828,320.335 514.917,319.328 C515.581,318.477 516.548,317.993 517.601,317.993 C518.079,317.993 518.569,318.091 519.057,318.286 L640.691,366.928 C642.184,367.524 643.188,368.759 643.38,370.229 C643.568,371.682 642.919,373.113 641.644,374.061 L616.986,392.36 L647.897,424.048 C649.421,425.608 649.418,428.188 647.89,429.681 L622.264,454.681 C621.517,455.41 620.478,455.829 619.415,455.829 Z" id="Fill-68" fill="#FFFFFF"></path>
            <path d="M646.842,428.607 C638.3,436.94 629.759,445.273 621.218,453.606 C620.731,454.08 620.071,454.33 619.415,454.33 C618.789,454.33 618.167,454.103 617.704,453.629 C616.308,452.197 614.911,450.766 613.515,449.334 C604.187,439.771 594.858,430.209 585.53,420.646 C578.765,429.308 571.998,437.969 565.232,446.63 C564.801,447.183 564.242,447.412 563.673,447.412 C562.584,447.412 561.453,446.575 561.076,445.56 C559.207,440.528 557.338,435.497 555.47,430.466 C547.302,408.478 539.134,386.488 530.966,364.499 C525.797,350.584 520.628,336.669 515.459,322.753 C515.073,321.713 515.396,320.876 516.027,320.348 C516.385,319.836 516.924,319.492 517.601,319.492 C517.879,319.492 518.18,319.55 518.5,319.679 C523.483,321.671 528.467,323.664 533.449,325.657 C555.229,334.366 577.008,343.075 598.787,351.784 C612.569,357.296 626.353,362.808 640.135,368.319 C642.182,369.138 642.56,371.513 640.75,372.855 C632.071,379.297 623.394,385.738 614.715,392.179 C615.442,392.925 616.171,393.671 616.898,394.417 C626.874,404.643 636.85,414.869 646.825,425.095 C647.749,426.042 647.815,427.657 646.842,428.607 Z M648.972,423 L619.259,392.541 L642.537,375.264 C644.256,373.988 645.127,372.034 644.867,370.036 C644.605,368.019 643.253,366.336 641.248,365.535 L519.614,316.894 C518.949,316.628 518.271,316.493 517.601,316.493 C516.118,316.493 514.757,317.151 513.809,318.313 C512.35,319.727 511.903,321.793 512.648,323.798 L558.265,446.604 C559.084,448.811 561.358,450.411 563.673,450.411 C565.228,450.411 566.621,449.725 567.597,448.476 L585.78,425.198 L615.558,455.723 C616.568,456.759 617.938,457.329 619.415,457.329 C620.865,457.329 622.285,456.755 623.312,455.754 L648.936,430.754 C651.083,428.659 651.099,425.181 648.972,423 Z" id="Fill-69" fill="#FFFFFF"></path>
            <path d="M619.551,444.108 L589.231,413.028 C588.229,412 586.777,411.41 585.248,411.41 C583.618,411.41 582.146,412.098 581.208,413.298 L565.192,433.8 L527.282,331.738 L622.774,369.925 L628.192,372.091 L628.367,372.161 L607.909,387.345 C606.514,388.38 605.64,389.911 605.509,391.545 C605.385,393.102 605.938,394.595 607.066,395.752 L636.992,426.429 L637.324,426.769 L619.551,444.108 Z M609.213,393.657 C608.006,392.42 608.413,390.706 609.697,389.753 C617.953,383.625 626.209,377.497 634.466,371.37 C630.939,369.96 627.414,368.55 623.888,367.14 C602.109,358.431 580.33,349.722 558.551,341.012 C546.405,336.155 534.261,331.299 522.115,326.442 C523.36,329.793 524.604,333.145 525.85,336.496 C534.018,358.485 542.186,380.474 550.354,402.463 C554.985,414.935 559.618,427.405 564.251,439.877 C570.691,431.633 577.132,423.389 583.572,415.144 C583.968,414.637 584.603,414.409 585.248,414.409 C585.938,414.409 586.643,414.669 587.085,415.122 C588.481,416.554 589.878,417.985 591.274,419.417 C600.683,429.061 610.091,438.705 619.498,448.35 C626.854,441.173 634.209,433.997 641.564,426.82 C640.756,425.992 639.947,425.163 639.139,424.334 C629.164,414.108 619.188,403.883 609.213,393.657 Z" id="Fill-70" fill="#FFFFFF"></path>
            <polyline id="Fill-71" fill="#437ECA" points="517.852 322.078 563.468 444.885 585.337 416.89 619.452 451.861 645.077 426.861 610.961 391.89 639.486 370.719 517.852 322.078"></polyline>
            <polyline id="Fill-72" fill="#EFBFA5" points="655.399 431.962 655.637 439.356 642.585 444.107 635.063 438.408 635.057 429.8 642.319 429.395 642.548 427.501 644.926 425.972 655.399 431.962"></polyline>
            <polyline id="Fill-73" fill="#B97262" points="259.861 355.036 267.245 345.179 282.23 342.268 290.299 350.322 276.011 365.198 259.861 355.036"></polyline>
            <polyline id="Fill-74" fill="#B97262" points="379.141 340.785 386.525 330.927 401.51 328.016 409.579 336.07 395.291 350.947 379.141 340.785"></polyline>
        </g>
    </g>
</svg>