<?xml version="1.0" encoding="iso-8859-1"?>
<!-- Generator: Adobe Illustrator 19.0.0, SVG Export Plug-In . SVG Version: 6.00 Build 0)  -->
<svg version="1.1" id="Capa_1" xmlns="http://www.w3.org/2000/svg" xmlns:xlink="http://www.w3.org/1999/xlink" x="0px" y="0px"
	 viewBox="0 0 512 512" style="enable-background:new 0 0 512 512;" xml:space="preserve">
<path style="fill:#FFCDAC;" d="M405.994,408.88l-72.931-16.564c-17.072-5.705-28.44-12.763-28.44-28.506v-34.337H283.86v34.337
	c0,15.744-11.369,22.801-28.44,28.506l-72.931,16.564c-34.321,7.22-57.626,24.149-57.626,53.938V502h217.25h76.5h4.375h40.65
	l-0.017-39.182C463.621,433.029,440.316,416.1,405.994,408.88z"/>
<path style="fill:#32C8AF;" d="M396.928,406.821l-58.713-13.334c-13.633,8.157-28.456,17.026-41.715,24.958l40.5,24.232
	C337,442.676,366.327,425.129,396.928,406.821z"/>
<path style="fill:#FFFFFF;" d="M186.989,408.88l9.079-2.062l-22.287-13.334l-67.792,15.396
	c-34.321,7.22-57.626,24.149-57.626,53.938V502h81v-39.182C129.362,433.029,152.667,416.1,186.989,408.88z"/>
<path style="fill:#32C8AF;" d="M405.994,408.88l-9.067-2.059C366.327,425.129,337,442.676,337,442.676l-40.5-24.232
	c-22.505,13.465-40.5,24.232-40.5,24.232l-59.932-35.858l-9.079,2.062c-34.321,7.22-57.626,24.149-57.626,53.938V502h212.75h80.875
	h0.125h40.525l-0.017-39.182C463.621,433.029,440.316,416.1,405.994,408.88z"/>
<path style="fill:#C8F5FF;" d="M277.667,10.239C211.65,14.202,159.333,68.987,159.333,136v120H197h161.75H396V136
	C396,68.987,343.683,14.202,277.667,10.239z"/>
<g>
	<path style="fill:#78D2FA;" d="M460,220.667v-33.333C460,167.819,444.181,152,424.667,152H424.5v104h0.167
		C444.181,256,460,240.181,460,220.667z"/>
	<path style="fill:#78D2FA;" d="M116,255.958V152.042c-18.74,0.871-33.667,16.336-33.667,35.291v33.333
		C82.333,239.622,97.26,255.087,116,255.958z"/>
</g>
<g>
	<path style="fill:#FFCDAC;" d="M356,240V140c0-40.665-26.972-75.025-64-86.181C254.972,64.975,228,99.335,228,140v100
		c0,40.665,26.972,75.025,64,86.181C329.028,315.025,356,280.665,356,240z"/>
	<path style="fill:#FFCDAC;" d="M285.714,52.172c0.011,0.002,0.022,0.005,0.033,0.007C285.736,52.176,285.725,52.174,285.714,52.172
		z"/>
	<path style="fill:#FFCDAC;" d="M282.48,51.511c0.056,0.01,0.112,0.022,0.168,0.032C282.592,51.532,282.536,51.521,282.48,51.511z"
		/>
	<path style="fill:#FFCDAC;" d="M272.53,50.237c0.08,0.006,0.16,0.009,0.24,0.015C272.69,50.247,272.61,50.243,272.53,50.237z"/>
	<path style="fill:#FFCDAC;" d="M275.81,50.534c0.175,0.019,0.35,0.04,0.525,0.06C276.16,50.574,275.985,50.553,275.81,50.534z"/>
	<path style="fill:#FFCDAC;" d="M279.192,50.965c0.051,0.007,0.101,0.014,0.152,0.021C279.294,50.979,279.243,50.972,279.192,50.965
		z"/>
	<path style="fill:#FFCDAC;" d="M269.015,50.056c0.254,0.008,0.508,0.018,0.761,0.029C269.523,50.074,269.269,50.064,269.015,50.056
		z"/>
	<path style="fill:#FFCDAC;" d="M292,53.819L292,53.819L292,53.819z"/>
</g>
<g>
	<path style="fill:#FAE196;" d="M269.777,50.085c0.921,0.038,1.839,0.087,2.753,0.153C271.616,50.172,270.698,50.123,269.777,50.085
		z"/>
	<path style="fill:#FAE196;" d="M266,50c1.01,0,2.014,0.023,3.015,0.056C268.014,50.023,267.01,50,266,50z"/>
	<path style="fill:#FAE196;" d="M272.77,50.253c1.019,0.076,2.031,0.172,3.04,0.282C274.801,50.425,273.789,50.328,272.77,50.253z"
		/>
	<path style="fill:#FAE196;" d="M276.335,50.594c0.957,0.11,1.91,0.231,2.857,0.371C278.245,50.826,277.292,50.704,276.335,50.594z"
		/>
	<path style="fill:#FAE196;" d="M285.747,52.179c2.113,0.474,4.198,1.021,6.253,1.64C289.945,53.2,287.86,52.652,285.747,52.179z"/>
	<path style="fill:#FAE196;" d="M279.344,50.986c1.051,0.157,2.097,0.332,3.136,0.524C281.441,51.318,280.396,51.143,279.344,50.986
		z"/>
	<path style="fill:#FAE196;" d="M292,53.819C254.972,64.975,228,99.335,228,140v44.587c18.85-4.437,36.93-11.658,53.637-21.419
		l-0.005,0.098c16.437,16.437,38.731,25.672,61.977,25.672H356V140C356,99.335,329.028,64.975,292,53.819z"/>
	<path style="fill:#FAE196;" d="M282.648,51.543c1.028,0.193,2.051,0.401,3.066,0.629C284.698,51.945,283.676,51.735,282.648,51.543
		z"/>
</g>
<path style="fill:#FFFFFF;" d="M228,240v-55.413V140c0-40.665,26.972-75.025,64-86.181l0,0c-2.054-0.619-4.14-1.167-6.253-1.64
	c-0.011-0.002-0.022-0.005-0.033-0.007c-1.016-0.227-2.038-0.436-3.066-0.629c-0.056-0.01-0.112-0.022-0.168-0.032
	c-1.039-0.193-2.084-0.368-3.136-0.524c-0.051-0.008-0.101-0.014-0.152-0.021c-0.947-0.14-1.901-0.261-2.857-0.371
	c-0.175-0.02-0.35-0.041-0.525-0.06c-1.009-0.11-2.022-0.206-3.04-0.282c-0.08-0.006-0.16-0.009-0.24-0.015
	c-0.914-0.066-1.832-0.115-2.753-0.153c-0.254-0.01-0.507-0.021-0.761-0.029C268.014,50.023,267.01,50,266,50h-20
	c-49.706,0-90,40.294-90,90v49.764V240c0,49.706,40.294,90,90,90h20c9.041,0,17.768-1.339,26-3.819
	C254.972,315.025,228,280.665,228,240z"/>
<path d="M473.621,462.817c0-32.179-23.256-54.801-65.489-63.707l-72.361-16.434c-17.762-6.007-21.147-11.279-21.147-18.867v-36.455
	c14.209-7.941,26.292-19.245,35.163-32.831h17.689c17.784,0,32.785-12.116,37.2-28.524h19.991C449.664,266,470,245.664,470,220.667
	v-33.333C470,162.336,449.664,142,424.667,142H406v-6C406,61.009,344.991,0,270,0h-28c-74.991,0-136,61.009-136,136v6H87.333
	C62.336,142,42,162.336,42,187.333v33.333C42,245.664,62.336,266,87.333,266h62.102c7.108,26.372,24.754,48.463,48.128,61.459
	c-0.133,0.65-0.203,1.324-0.203,2.014v34.337c0,7.587-3.385,12.86-21.148,18.867l-72.36,16.434
	c-42.233,8.905-65.489,31.528-65.489,63.707V502c0,5.523,4.477,10,10,10h293.75c5.523,0,10-4.477,10-10s-4.477-10-10-10H58.362
	v-29.183c0-22.362,16.716-37.217,49.685-44.152c0.052-0.011,0.104-0.022,0.156-0.034l63.882-14.508l78.78,47.135
	c1.581,0.945,3.357,1.418,5.134,1.418s3.554-0.473,5.134-1.418l78.775-47.132l63.87,14.506c0.052,0.012,0.104,0.023,0.156,0.034
	c32.968,6.935,49.685,21.79,49.685,44.156L453.633,492h-30.646c-5.523,0-10,4.477-10,10s4.477,10,10,10h40.65
	c2.653,0,5.197-1.054,7.073-2.931c1.875-1.876,2.928-4.421,2.927-7.074L473.621,462.817z M367.476,274.524h-7.621
	c1.028-2.785,1.93-5.63,2.71-8.524h20.48C379.745,271.119,374.006,274.524,367.476,274.524z M328.158,125.681
	c-3.905-3.905-10.237-3.905-14.143,0c-34.875,34.876-81.245,54.083-130.567,54.083H166V140c0-44.112,35.888-80,80-80h20
	c44.112,0,80,35.888,80,80v38.938h-2.391c-16.446,0-32.101-5.096-45.195-14.511c10.615-7.209,20.558-15.419,29.744-24.605
	C332.063,135.918,332.063,129.586,328.158,125.681z M424.667,162C438.635,162,450,173.365,450,187.333v33.333
	C450,234.635,438.635,246,424.667,246H406v-84H424.667z M62,220.667v-33.333C62,173.365,73.365,162,87.333,162H106v84H87.333
	C73.365,246,62,234.635,62,220.667z M126,246v-94v-16c0-63.962,52.038-116,116-116h28c63.962,0,116,52.038,116,116v16v94h-20.185
	c0.118-1.986,0.185-3.985,0.185-6V140c0-55.14-44.86-100-100-100h-20c-55.14,0-100,44.86-100,100v100c0,2.015,0.067,4.014,0.185,6
	H126z M166,240v-40.236h17.448c27.011,0,53.361-5.241,78.316-15.578c6.292-2.606,12.417-5.506,18.367-8.69
	c17.676,15.168,39.94,23.442,63.478,23.442H346V240c0,12.357-2.819,24.066-7.843,34.524h-45.021c-5.523,0-10,4.477-10,10
	s4.477,10,10,10h31.33C309.853,310.183,289.057,320,266,320h-20C201.888,320,166,284.112,166,240z M256,431.023l-59.109-35.366
	c11.466-6.117,20.469-15.442,20.469-31.847v-27.996C226.437,338.532,236.05,340,246,340h20c9.944,0,19.551-1.466,28.623-4.181
	v27.991c0,16.409,9.008,25.735,20.478,31.852L256,431.023z"/>
<path d="M256,294.52c2.63,0,5.21-1.06,7.07-2.93c1.86-1.86,2.93-4.43,2.93-7.07c0-2.63-1.07-5.21-2.93-7.07
	c-1.86-1.86-4.44-2.92-7.07-2.92s-5.21,1.06-7.07,2.92c-1.86,1.87-2.93,4.44-2.93,7.07c0,2.64,1.07,5.21,2.93,7.07
	C250.79,293.46,253.37,294.52,256,294.52z"/>
<path d="M381.65,492c-2.63,0-5.21,1.07-7.07,2.93c-1.86,1.86-2.93,4.44-2.93,7.07s1.07,5.21,2.93,7.07
	c1.86,1.86,4.44,2.93,7.07,2.93c2.64,0,5.21-1.07,7.07-2.93c1.87-1.86,2.93-4.44,2.93-7.07s-1.06-5.21-2.93-7.07
	C386.86,493.07,384.29,492,381.65,492z"/>
<g>
</g>
<g>
</g>
<g>
</g>
<g>
</g>
<g>
</g>
<g>
</g>
<g>
</g>
<g>
</g>
<g>
</g>
<g>
</g>
<g>
</g>
<g>
</g>
<g>
</g>
<g>
</g>
<g>
</g>
</svg>
