<?xml version="1.0"?>
<svg xmlns="http://www.w3.org/2000/svg" height="512px" viewBox="0 -10 512.00225 512" width="512px" class=""><g><path d="m301.464844 243.769531-53.9375-53.9375-230.75 230.753907c-12.394532 12.390624-12.394532 32.480468 0 44.871093l9.0625 9.066407c12.390625 12.390624 32.484375 12.390624 44.875 0zm0 0" fill="#4e5660" data-original="#4E5660" class=""/><path d="m93.675781 343.683594-76.898437 76.902344c-12.394532 12.390624-12.394532 32.480468 0 44.871093l9.0625 9.066407c12.390625 12.390624 32.484375 12.390624 44.875 0l39.824218-39.824219c-15.3125-24.148438-18.996093-58.300781-16.863281-91.015625zm0 0" fill="#383c43" data-original="#383C43" class=""/><path d="m247.527344 189.832031-50.359375 50.359375c2.277343 1.105469 4.644531 2.058594 7.109375 2.796875l12.882812 3.859375c6.082032 1.824219 10.394532 7.230469 10.820313 13.566406l.894531 13.421876c.765625 11.441406 5.578125 21.742187 12.964844 29.558593l59.625-59.625zm0 0" fill="#383c43" data-original="#383C43" class=""/><path d="m310.539062 274.710938-21.054687 14.605468c-14.503906 10.0625-34.4375.460938-35.617187-17.152344l-1.707032-25.566406c-.632812-9.457031-7.070312-17.527344-16.148437-20.246094l-24.546875-7.355468c-16.90625-5.066406-21.832032-26.640625-8.796875-38.539063l18.925781-17.277343c7-6.390626 9.296875-16.457032 5.761719-25.25l-9.554688-23.777344c-6.578125-16.378906 7.214844-33.675782 24.648438-30.90625l25.308593 4.023437c9.359376 1.488281 18.660157-2.992187 23.332032-11.238281l12.632812-22.292969c8.703125-15.359375 30.828125-15.359375 39.53125 0l12.632813 22.292969c4.671875 8.246094 13.972656 12.726562 23.332031 11.238281l25.308594-4.023437c17.429687-2.769532 31.226562 14.527344 24.644531 30.90625l-9.554687 23.777344c-3.53125 8.792968-1.234376 18.859374 5.765624 25.25l18.921876 17.277343c13.035156 11.898438 8.113281 33.472657-8.796876 38.539063l-24.546874 7.355468c-9.078126 2.71875-15.511719 10.789063-16.144532 20.246094l-1.710937 25.566406c-1.175781 17.613282-21.109375 27.214844-35.613281 17.152344l-21.054688-14.605468c-7.789062-5.402344-18.113281-5.402344-25.898438 0zm0 0" fill="#f7ef87" data-original="#F7EF87" class="active-path" style="fill:#E1D857" data-old_color="#E2D956"/><path d="m211.464844 218.996094 24.546875 7.351562c9.078125 2.722656 15.515625 10.792969 16.148437 20.25l1.707032 25.566406c1.175781 17.613282 21.113281 27.210938 35.617187 17.152344l21.054687-14.605468c7.789063-5.402344 18.109376-5.402344 25.898438 0l21.054688 14.605468c10.515624 7.292969 23.875 4.25 30.882812-4.683594-86.6875-54.53125-103.460938-160.316406-85.324219-229.707031l-11.960937 21.105469c-4.671875 8.246094-13.972656 12.726562-23.332032 11.238281l-25.308593-4.023437c-17.429688-2.773438-31.226563 14.527344-24.644531 30.90625l9.554687 23.777344c3.53125 8.792968 1.234375 18.855468-5.765625 25.246093l-18.921875 17.277344c-13.039063 11.902344-8.117187 33.476563 8.792969 38.542969zm0 0" fill="#efd176" data-original="#EFD176" class="" style="fill:#E4BE48" data-old_color="#E4BE49"/><path d="m353.4375 145.359375c-1.917969 0-3.839844-.730469-5.304688-2.195313-2.929687-2.929687-2.929687-7.679687 0-10.609374l16.578126-16.578126c2.929687-2.929687 7.679687-2.929687 10.609374 0 2.929688 2.929688 2.929688 7.679688 0 10.605469l-16.578124 16.582031c-1.464844 1.464844-3.386719 2.195313-5.304688 2.195313zm0 0" fill="#efd176" data-original="#EFD176" class="" style="fill:#E4BE48" data-old_color="#E4BE49"/><path d="m293.539062 145.359375c-1.921874 0-3.839843-.730469-5.304687-2.195313l-16.578125-16.578124c-2.929688-2.929688-2.929688-7.679688 0-10.609376 2.929688-2.925781 7.679688-2.925781 10.605469 0l16.578125 16.582032c2.929687 2.925781 2.929687 7.675781 0 10.605468-1.460938 1.464844-3.382813 2.195313-5.300782 2.195313zm0 0" fill="#f7ef87" data-original="#F7EF87" class="active-path" style="fill:#E1D857" data-old_color="#E2D956"/><path d="m323.488281 241.109375c-4.144531 0-7.5-3.355469-7.5-7.5v-23.445313c0-4.140624 3.355469-7.5 7.5-7.5 4.140625 0 7.5 3.359376 7.5 7.5v23.445313c0 4.144531-3.359375 7.5-7.5 7.5zm0 0" fill="#f7ef87" data-original="#F7EF87" class="active-path" style="fill:#E1D857" data-old_color="#E2D956"/><path d="m370.015625 221.839844c-1.917969 0-3.839844-.734375-5.304687-2.199219l-16.578126-16.578125c-2.929687-2.929688-2.929687-7.675781 0-10.605469 2.929688-2.929687 7.679688-2.929687 10.609376 0l16.578124 16.578125c2.929688 2.929688 2.929688 7.675782 0 10.605469-1.464843 1.464844-3.386718 2.199219-5.304687 2.199219zm0 0" fill="#efd176" data-original="#EFD176" class="" style="fill:#E4BE48" data-old_color="#E4BE49"/><path d="m70.710938 474.523438 59.132812-59.132813c-12.734375-6.84375-22.269531-6.308594-34.949219-18.988281-12.679687-12.679688-12.144531-22.214844-18.988281-34.949219l-59.132812 59.128906c-12.390626 12.390625-12.390626 32.484375 0 44.875l9.066406 9.0625c12.390625 12.394531 32.480468 12.394531 44.871094.003907zm0 0" fill="#a3defe" data-original="#A3DEFE" class=""/><path d="m498.460938 319.03125c8.050781 3.429688 8.050781 14.84375 0 18.269531-14.410157 6.132813-25.886719 17.609375-32.019532 32.019531-3.425781 8.054688-14.839844 8.054688-18.269531 0-6.132813-14.410156-17.605469-25.886718-32.015625-32.019531-8.054688-3.425781-8.054688-14.839843 0-18.269531 14.410156-6.128906 25.882812-17.605469 32.015625-32.015625 3.429687-8.054687 14.84375-8.054687 18.269531 0 6.132813 14.410156 17.609375 25.886719 32.019532 32.015625zm0 0" fill="#8eafe2" data-original="#8EAFE2" class="" style="fill:#0099FF" data-old_color="#0091FF"/><path d="m170.945312 124.195312c3.273438 8.117188-4.800781 16.191407-12.917968 12.917969-14.523438-5.851562-30.753906-5.851562-45.277344 0-8.117188 3.273438-16.191406-4.800781-12.917969-12.917969 5.851563-14.523437 5.851563-30.753906 0-45.277343-3.273437-8.121094 4.800781-16.191407 12.917969-12.917969 14.523438 5.851562 30.753906 5.851562 45.277344 0 8.117187-3.273438 16.191406 4.796875 12.917968 12.917969-5.851562 14.523437-5.851562 30.753906 0 45.277343zm0 0" fill="#eda1ab" data-original="#EDA1AB" class="" style="fill:#FF0A00" data-old_color="#EDA1AB"/><path d="m70.710938 474.523438 39.824218-39.824219c-6.726562-10.617188-11.214844-23.15625-13.945312-36.671875-.558594-.519532-1.125-1.054688-1.695313-1.625-12.679687-12.683594-12.144531-22.214844-18.988281-34.949219l-59.132812 59.128906c-12.390626 12.390625-12.390626 32.484375 0 44.875l9.066406 9.0625c12.390625 12.394531 32.480468 12.394531 44.871094.003907zm0 0" fill="#7acefa" data-original="#7ACEFA" class=""/><path d="m413.117188 233.535156 24.546874-7.355468c10.5625-3.164063 18.332032-11.472657 20.785157-22.222657s-.941407-21.605469-9.085938-29.042969l-18.925781-17.277343c-4.660156-4.257813-6.210938-11.050781-3.859375-16.910157l9.554687-23.777343c4.109376-10.234375 2.460938-21.488281-4.414062-30.109375s-17.476562-12.730469-28.371094-11l-25.308594 4.019531c-6.234374.992187-12.515624-2.03125-15.628906-7.523437l-2.984375-5.269532c-2.042969-3.605468-6.621093-4.871094-10.222656-2.828125-3.605469 2.042969-4.871094 6.621094-2.828125 10.222657l2.984375 5.269531c6.179687 10.90625 18.648437 16.910156 31.035156 14.945312l25.308594-4.023437c5.484375-.875 10.824219 1.199218 14.289063 5.542968 3.460937 4.339844 4.292968 10.007813 2.222656 15.160157l-9.554688 23.777343c-4.675781 11.632813-1.59375 25.128907 7.664063 33.582032l18.925781 17.277344c4.101562 3.746093 5.8125 9.214843 4.574219 14.625-1.234375 5.414062-5.148438 9.597656-10.46875 11.191406l-24.546875 7.355468c-12.007813 3.597657-20.640625 14.421876-21.476563 26.933594l-1.710937 25.566406c-.367188 5.539063-3.578125 10.285157-8.578125 12.695313-5.003907 2.410156-10.714844 1.957031-15.277344-1.207031l-21.054687-14.605469c-10.304688-7.148437-24.144532-7.144531-34.449219 0l-21.054688 14.605469c-4.5625 3.167968-10.273437 3.617187-15.273437 1.207031-5.003906-2.410156-8.210938-7.15625-8.582032-12.695313l-1.710937-25.566406c-.835937-12.511718-9.464844-23.335937-21.476563-26.933594l-19.242187-5.765624c-.007813-.003907-.015625-.003907-.027344-.007813l-5.277343-1.582031c-5.320313-1.59375-9.230469-5.777344-10.46875-11.191406-1.234376-5.414063.476562-10.878907 4.574218-14.625l18.925782-17.277344c9.257812-8.453125 12.339843-21.949219 7.664062-33.582032l-9.554688-23.777343c-2.066406-5.152344-1.238281-10.820313 2.226563-15.164063 3.460937-4.339844 8.804687-6.410156 14.285156-5.539062l25.308594 4.023437c12.378906 1.96875 24.851563-4.039062 31.035156-14.945312l12.632813-22.296875c4.125-7.28125 12.367187-8.953125 18.375-6.84375 3.914062 1.371094 8.191406-.683594 9.5625-4.59375 1.371094-3.90625-.683594-8.1875-4.59375-9.558594-13.863282-4.867188-29.171875.851562-36.394532 13.601562l-12.632812 22.296876c-3.113281 5.492187-9.394531 8.515624-15.628906 7.527343l-25.308594-4.023437c-10.890625-1.734375-21.496094 2.378906-28.371094 11s-8.523437 19.878906-4.414062 30.109375l9.554687 23.777343c2.351563 5.859376.800781 12.65625-3.859375 16.914063l-18.925781 17.277344c-8.144531 7.433593-11.539063 18.289062-9.085937 29.039062 1.949218 8.535157 7.257812 15.519531 14.644531 19.625l-132.585938 132.589844c-.015625.015625-.035156.03125-.050781.046875l-59.058594 59.0625c-15.296875 15.292969-15.296875 40.183594 0 55.480469l9.0625 9.0625c7.648438 7.648437 17.695313 11.472656 27.738282 11.472656 10.046874 0 20.09375-3.824219 27.742187-11.472656l8.261719-8.261719c2.929687-2.929688 2.929687-7.679688 0-10.605469-2.929688-2.929687-7.675782-2.929687-10.605469 0l-8.261719 8.261719c-9.449218 9.445312-24.820312 9.445312-34.269531 0l-9.0625-9.066406c-9.449219-9.445313-9.449219-24.816406 0-34.265625l51.394531-51.394531c.207032.5625.417969 1.121093.628906 1.6875 2.929688 7.863281 5.957032 15.992187 15.488282 25.523437s17.664062 12.5625 25.527344 15.492187c.566406.210938 1.125.417969 1.683593.628907l-18.085937 18.089843c-2.929688 2.925782-2.929688 7.675782 0 10.605469 1.464844 1.464844 3.382812 2.195313 5.300781 2.195313 1.921875 0 3.839844-.730469 5.304687-2.195313l25.882813-25.882812c.007813-.007813.019531-.019531.027344-.027344l124.703125-124.703125c1.105468.722656 2.269531 1.382812 3.488281 1.96875 4.230469 2.039062 8.714844 3.042969 13.171875 3.042969 6.007812 0 11.960938-1.832031 17.164062-5.4375l21.054688-14.605469c5.191406-3.601562 12.160156-3.597656 17.347656 0l21.054688 14.605469c9.0625 6.28125 20.402344 7.179687 30.335937 2.394531 9.933594-4.785156 16.304688-14.207031 17.039063-25.210938l1.710937-25.566406c.421875-6.300781 4.765625-11.75 10.816407-13.5625zm-284.796876 172.773438c-2.839843-1.257813-5.507812-2.253906-7.964843-3.171875-7.226563-2.691407-12.933594-4.816407-20.15625-12.039063-7.222657-7.21875-9.347657-12.925781-12.039063-20.152344-.917968-2.460937-1.910156-5.128906-3.171875-7.96875l133.921875-133.921874 14.949219 4.480468c6.046875 1.8125 10.394531 7.261719 10.816406 13.5625l1.707031 25.566406c.292969 4.367188 1.484376 8.476563 3.421876 12.15625zm373.078126-94.175782c-12.691407-5.402343-22.652344-15.363281-28.054688-28.054687-2.78125-6.539063-8.925781-10.601563-16.035156-10.601563-7.105469 0-13.25 4.0625-16.035156 10.601563-5.398438 12.691406-15.363282 22.652344-28.054688 28.054687-6.539062 2.78125-10.601562 8.925782-10.601562 16.035157s4.0625 13.253906 10.601562 16.035156c12.691406 5.402344 22.652344 15.363281 28.054688 28.054687 2.785156 6.539063 8.929687 10.601563 16.035156 10.601563 7.109375 0 13.253906-4.0625 16.039062-10.601563 5.398438-12.691406 15.359375-22.652343 28.050782-28.054687 6.539062-2.78125 10.601562-8.925781 10.605468-16.035156-.003906-7.109375-4.066406-13.253907-10.605468-16.035157zm-5.875 18.269532c-16.277344 6.925781-29.054688 19.703125-35.980469 35.980468-.519531 1.21875-1.5 1.476563-2.234375 1.476563-.730469 0-1.714844-.253906-2.234375-1.476563-6.925781-16.277343-19.703125-29.054687-35.980469-35.980468-1.222656-.519532-1.476562-1.5-1.476562-2.234375 0-.730469.253906-1.714844 1.476562-2.234375 16.273438-6.925782 29.054688-19.703125 35.980469-35.980469.519531-1.21875 1.5-1.476563 2.234375-1.476563.730468 0 1.710937.257813 2.230468 1.476563 6.925782 16.277344 19.707032 29.054687 35.980469 35.980469 1.222657.519531 1.476563 1.5 1.476563 2.234375.003906.730469-.253906 1.714843-1.472656 2.234375zm-294.757813-295.613282h12.285156v12.285157c0 4.140625 3.359375 7.5 7.5 7.5 4.144531 0 7.5-3.359375 7.5-7.5v-12.285157h12.289063c4.140625 0 7.5-3.359374 7.5-7.5 0-4.144531-3.359375-7.503906-7.5-7.503906h-12.289063v-12.285156c0-4.140625-3.355469-7.5-7.5-7.5-4.140625 0-7.5 3.359375-7.5 7.5v12.289062h-12.285156c-4.144531 0-7.5 3.355469-7.5 7.5 0 4.140626 3.355469 7.5 7.5 7.5zm154.945313 310.386719c-2.929688-2.929687-7.679688-2.929687-10.605469 0l-8.6875 8.6875-8.6875-8.6875c-2.929688-2.929687-7.679688-2.929687-10.609375 0-2.929688 2.929688-2.929688 7.679688 0 10.609375l8.6875 8.6875-8.6875 8.6875c-2.929688 2.929688-2.929688 7.675782 0 10.605469 1.464844 1.464844 3.386718 2.199219 5.304687 2.199219s3.839844-.734375 5.300781-2.199219l8.6875-8.6875 8.6875 8.6875c1.464844 1.464844 3.386719 2.199219 5.304688 2.199219s3.839844-.734375 5.304688-2.199219c2.925781-2.929687 2.925781-7.675781 0-10.605469l-8.6875-8.6875 8.6875-8.6875c2.929687-2.929687 2.929687-7.679687 0-10.609375zm-258.996094-204.945312c3.371094 3.371093 7.730468 5.144531 12.222656 5.144531 2.203125 0 4.445312-.429688 6.613281-1.304688 12.792969-5.152343 26.878907-5.152343 39.671875 0 6.59375 2.660157 13.8125 1.1875 18.839844-3.839843 5.023438-5.027344 6.496094-12.246094 3.839844-18.835938-5.152344-12.792969-5.152344-26.882812 0-39.671875 2.65625-6.59375 1.1875-13.8125-3.839844-18.839844-5.027344-5.023437-12.246094-6.496093-18.835938-3.839843-12.792968 5.15625-26.882812 5.15625-39.671874 0-6.59375-2.65625-13.8125-1.183594-18.835938 3.839843-5.027344 5.027344-6.5 12.246094-3.84375 18.839844 5.15625 12.789063 5.15625 26.878906 0 39.671875-2.65625 6.589844-1.183594 13.808594 3.839844 18.835938zm10.074218-64.117188c-.496093-1.230469.015626-2.105469.535157-2.621093.367187-.371094.917969-.738282 1.652343-.738282.292969 0 .617188.058594.96875.203125 16.40625 6.609375 34.480469 6.609375 50.886719 0 1.226563-.5 2.105469.015625 2.621094.535157.519531.515624 1.03125 1.390624.535156 2.621093-6.609375 16.410157-6.609375 34.480469 0 50.886719l6.957031-2.804688-6.957031 2.804688c.496094 1.230469-.015625 2.105469-.535156 2.621094-.515625.519531-1.394531 1.03125-2.621094.535156-16.410156-6.613281-34.480469-6.609375-50.886719 0-1.230468.496094-2.105468-.015625-2.625-.535156-.515624-.515625-1.027343-1.390625-.53125-2.625 6.609376-16.402344 6.609376-34.472656 0-50.882813zm0 0" data-original="#000000" class="" style="fill:#000000"/></g> </svg>
