<?xml version="1.0"?>
<svg xmlns="http://www.w3.org/2000/svg" height="512px" viewBox="0 -16 480 480" width="512px" class=""><g><path d="m136 112h208v256h-208zm0 0" fill="#78b9eb" data-original="#78B9EB" class=""/><path d="m344 144v224h-208v-16zm0 0" fill="#5aaae7" data-original="#5AAAE7"/><path d="m472 144v96h-160v-96zm0 0" fill="#ffde55" data-original="#FFDE55" class=""/><path d="m8 272v-96h160v96zm0 0" fill="#00ccb3" data-original="#00CCB3" class="active-path" style="fill:#FF1100" data-old_color="#00CCB3"/><path d="m136 368h208v16c0 17.671875-14.328125 32-32 32h-144c-17.671875 0-32-14.328125-32-32zm0 0" fill="#acabb1" data-original="#ACABB1"/><path d="m168 64h144c17.671875 0 32 14.328125 32 32v16h-208v-16c0-17.671875 14.328125-32 32-32zm0 0" fill="#acabb1" data-original="#ACABB1"/><path d="m216 384h48v16h-48zm0 0" data-original="#000000" class=""/><path d="m176 80h16v16h-16zm0 0" data-original="#000000" class=""/><path d="m208 80h32v16h-32zm0 0" data-original="#000000" class=""/><path d="m472 136h-120v-40c-.027344-22.082031-17.917969-39.972656-40-40h-144c-22.082031.027344-39.972656 17.917969-40 40v72h-120c-4.417969 0-8 3.582031-8 8v96c0 4.417969 3.582031 8 8 8h64v40c0 4.417969 3.582031 8 8 8h48v56c.027344 22.082031 17.917969 39.972656 40 40h144c22.082031-.027344 39.972656-17.917969 40-40v-88h40c4.417969 0 8-3.582031 8-8v-40h72c4.417969 0 8-3.582031 8-8v-96c0-4.417969-3.582031-8-8-8zm-304-64h144c13.253906 0 24 10.746094 24 24v8h-192v-8c0-13.253906 10.746094-24 24-24zm-152 112h144v80h-144zm72 128v-32h40v32zm224 96h-144c-13.253906 0-24-10.746094-24-24v-8h192v8c0 13.253906-10.746094 24-24 24zm24-48h-192v-32h96v-16h-96v-32h24c4.417969 0 8-3.582031 8-8v-96c0-4.417969-3.582031-8-8-8h-24v-48h192v16h-24c-4.417969 0-8 3.582031-8 8v96c0 4.417969 3.582031 8 8 8h24v32h-72v16h72zm48-80h-32v-32h32zm80-48h-144v-80h144zm0 0" data-original="#000000" class=""/><path d="m40 96h16v-16h16v-16h-16v-16h-16v16h-16v16h16zm0 0" data-original="#000000" class=""/><path d="m424 48h16v-16h16v-16h-16v-16h-16v16h-16v16h16zm0 0" data-original="#000000" class=""/><path d="m408 400h-16v16h-16v16h16v16h16v-16h16v-16h-16zm0 0" data-original="#000000" class=""/><path d="m32 336h-16v16h-16v16h16v16h16v-16h16v-16h-16zm0 0" data-original="#000000" class=""/><path d="m32 200h16v16h-16zm0 0" data-original="#000000" class=""/><path d="m64 200h64v16h-64zm0 0" data-original="#000000" class=""/><path d="m48 232h64v16h-64zm0 0" data-original="#000000" class=""/><path d="m336 168h32v16h-32zm0 0" data-original="#000000" class=""/><path d="m384 168h64v16h-64zm0 0" data-original="#000000" class=""/><path d="m352 200h80v16h-80zm0 0" data-original="#000000" class=""/></g> </svg>
