<svg height="512pt" viewBox="0 -5 512.00107 512" width="512pt" xmlns="http://www.w3.org/2000/svg"><path d="m404.855469 251.429688c0 82.210937-66.644531 148.855468-148.855469 148.855468s-148.855469-66.644531-148.855469-148.855468c0-82.210938 66.644531-148.855469 148.855469-148.855469s148.855469 66.644531 148.855469 148.855469zm0 0" fill="#56caf4"/><path d="m428.695312 165.867188-78.394531-90.785157c-4.703125-5.445312-4.101562-13.671875 1.34375-18.375l50.414063-43.535156c5.445312-4.703125 13.675781-4.101563 18.378906 1.34375l78.394531 90.78125c4.703125 5.445313 4.097657 13.675781-1.347656 18.378906l-50.414063 43.535157c-5.445312 4.703124-13.671874 4.101562-18.375-1.34375zm0 0" fill="#ee4a77"/><path d="m83.308594 336.996094 78.394531 90.78125c4.703125 5.445312 4.101563 13.671875-1.34375 18.375l-50.417969 43.539062c-5.445312 4.703125-13.671875 4.097656-18.375-1.34375l-78.394531-90.785156c-4.703125-5.445312-4.101563-13.671875 1.34375-18.375l50.417969-43.535156c5.445312-4.703125 13.671875-4.101563 18.375 1.34375zm0 0" fill="#ffca49"/><g fill="#231f20"><path d="m256 92.574219c-87.59375 0-158.855469 71.261719-158.855469 158.855469s71.261719 158.855468 158.855469 158.855468 158.855469-71.261718 158.855469-158.855468-71.261719-158.855469-158.855469-158.855469zm123.828125 96.0625-23.761719-5.503907c-8.765625-2.03125-17.601562-3.789062-26.488281-5.277343-1.484375-8.886719-3.246094-17.71875-5.277344-26.488281l-5.503906-23.761719c26.230469 13.355469 47.675781 34.800781 61.03125 61.03125zm9.058594 102.964843-37.332031 8.648438c-6.300782 1.457031-12.632813 2.769531-18.996094 3.9375 4.15625-34.992188 4.15625-70.515625 0-105.507812 6.363281 1.164062 12.695312 2.476562 18.996094 3.9375l37.332031 8.648437c.015625.003906.035156.007813.050781.011719 3.847656 12.714844 5.917969 26.195312 5.917969 40.152344 0 13.957031-2.070313 27.441406-5.917969 40.160156-.019531.003906-.035156.007812-.050781.011718zm-191.453125-8.6875c-.410156-5.507812-5.207032-9.644531-10.714844-9.230468-5.507812.410156-9.640625 5.207031-9.230469 10.714844.492188 6.59375 1.132813 13.195312 1.921875 19.78125-6.351562-1.164063-12.675781-2.472657-18.960937-3.929688l-37.335938-8.648438c-.015625-.003906-.03125-.007812-.046875-.011718-3.847656-12.71875-5.921875-26.199219-5.921875-40.160156 0-13.953126 2.070313-27.433594 5.917969-40.152344.019531-.003906.035156-.007813.054688-.011719l37.332031-8.648437c6.285156-1.457032 12.609375-2.765626 18.960937-3.929688-.039062.320312-.082031.683594-.125 1.070312-.636718 5.589844 3.445313 10.613282 9.046875 11.121094 5.417969.492188 10.238281-3.4375 10.851563-8.84375.277344-2.441406.566406-4.855468.796875-6.589844 37.101562-4.917968 74.910156-4.917968 112.015625-.003906 4.910156 37.09375 4.910156 74.894532 0 111.988282-37.105469 4.914062-74.910156 4.910156-112.011719-.003907-1.089844-8.15625-1.941406-16.339843-2.550781-24.511719zm98.722656-164.417968c.003906.015625.007812.035156.011719.050781l8.648437 37.332031c1.460938 6.300782 2.773438 12.632813 3.9375 19-34.992187-4.160156-70.519531-4.160156-105.511718 0 1.171874-6.375 2.484374-12.714844 3.941406-19l8.648437-37.332031c.003907-.019531.007813-.035156.011719-.050781 12.71875-3.851563 26.199219-5.921875 40.15625-5.921875s27.441406 2.070312 40.15625 5.921875zm-102.949219 9.109375-5.507812 23.761719c-2.023438 8.746093-3.789063 17.59375-5.285157 26.492187-8.882812 1.484375-17.714843 3.242187-26.476562 5.273437l-23.765625 5.503907c13.355469-26.230469 34.804687-47.675781 61.035156-61.03125zm-61.03125 186.625 23.761719 5.503906c8.761719 2.03125 17.59375 3.789063 26.476562 5.273437 1.496094 8.894532 3.257813 17.738282 5.285157 26.488282l5.503906 23.757812c-26.226563-13.351562-47.671875-34.796875-61.027344-61.023437zm83.667969 70.136719c-.003906-.019532-.007812-.03125-.011719-.046876l-8.648437-37.335937c-1.457032-6.289063-2.769532-12.625-3.941406-18.996094 17.496093 2.082031 35.128906 3.121094 52.757812 3.121094s35.257812-1.039063 52.753906-3.121094c-1.164062 6.367188-2.476562 12.699219-3.9375 18.996094l-8.648437 37.335937c-.003907.015626-.007813.03125-.007813.046876-12.71875 3.847656-26.203125 5.917968-40.160156 5.917968s-27.4375-2.070312-40.15625-5.917968zm102.953125-9.109376 5.503906-23.757812c2.03125-8.769531 3.792969-17.605469 5.277344-26.488281 8.886719-1.488281 17.71875-3.246094 26.488281-5.277344l23.757813-5.503906c-13.351563 26.226562-34.800781 47.671875-61.027344 61.027343zm0 0"/><path d="m478.75 213.488281c.691406 0 1.398438-.070312 2.101562-.222656 5.402344-1.15625 8.839844-6.472656 7.6875-11.875-1.382812-6.441406-3.054687-12.902344-4.96875-19.203125-1.601562-5.285156-7.1875-8.265625-12.476562-6.660156-5.28125 1.605468-8.265625 7.191406-6.660156 12.476562 1.753906 5.765625 3.285156 11.679688 4.546875 17.578125 1.007812 4.695313 5.152343 7.90625 9.769531 7.90625zm0 0"/><path d="m274.910156 468.433594c-11.089844.953125-22.476562 1.0625-33.578125.324218-5.503906-.363281-10.273437 3.804688-10.640625 9.3125-.367187 5.511719 3.804688 10.277344 9.3125 10.640626 5.289063.355468 10.671875.53125 15.996094.53125 6.871094 0 13.808594-.296876 20.617188-.882813 5.503906-.472656 9.582031-5.316406 9.109374-10.816406-.472656-5.503907-5.335937-9.578125-10.816406-9.109375zm0 0"/><path d="m339.867188 452.515625c-10.300782 4.300781-21.019532 7.828125-31.855469 10.480469-5.367188 1.316406-8.648438 6.730468-7.335938 12.09375 1.117188 4.566406 5.207031 7.621094 9.707031 7.621094.785157 0 1.585938-.09375 2.386719-.289063 11.84375-2.898437 23.550781-6.753906 34.804688-11.453125 5.097656-2.128906 7.5-7.984375 5.375-13.082031-2.132813-5.09375-7.988281-7.5-13.082031-5.371094zm0 0"/><path d="m482.875 228.292969c-5.515625.3125-9.730469 5.039062-9.417969 10.550781.234375 4.171875.355469 8.410156.355469 12.585938 0 7-.335938 14.058593-.996094 20.980468-.523437 5.5 3.503906 10.382813 9.003906 10.90625.320313.03125.644532.046875.960938.046875 5.09375 0 9.449219-3.875 9.945312-9.050781.71875-7.550781 1.085938-15.25 1.085938-22.882812 0-4.554688-.132812-9.167969-.390625-13.71875-.3125-5.511719-5.039063-9.742188-10.546875-9.417969zm0 0"/><path d="m396.878906 417.554688c-8.519531 7.230468-17.660156 13.855468-27.167968 19.6875-4.707032 2.886718-6.183594 9.042968-3.296876 13.753906 1.890626 3.074218 5.171876 4.773437 8.535157 4.773437 1.78125 0 3.589843-.480469 5.21875-1.480469 10.378906-6.363281 20.355469-13.59375 29.652343-21.484374 4.210938-3.574219 4.726563-9.886719 1.152344-14.09375-3.574218-4.210938-9.886718-4.730469-14.09375-1.15625zm0 0"/><path d="m479.222656 298.242188c-5.351562-1.371094-10.792968 1.863281-12.160156 7.214843-2.761719 10.816407-6.394531 21.507813-10.800781 31.777344-2.175781 5.074219.175781 10.953125 5.25 13.132813 1.285156.550781 2.621093.8125 3.9375.8125 3.878906 0 7.570312-2.269532 9.195312-6.0625 4.8125-11.214844 8.78125-22.894532 11.796875-34.714844 1.363282-5.351563-1.863281-10.796875-7.21875-12.160156zm0 0"/><path d="m454.472656 363.796875c-4.683594-2.933594-10.855468-1.519531-13.785156 3.160156-5.929688 9.453125-12.644531 18.535157-19.960938 26.984375-3.617187 4.175782-3.160156 10.492188 1.011719 14.105469 1.894531 1.640625 4.222657 2.441406 6.542969 2.441406 2.800781 0 5.585938-1.171875 7.5625-3.453125 7.988281-9.226562 15.316406-19.136718 21.789062-29.453125 2.933594-4.679687 1.515626-10.851562-3.160156-13.785156zm0 0"/><path d="m207.992188 463.9375c-2.757813-.621094-5.546876-1.304688-8.285157-2.039062-3.085937-.824219-6.195312-1.726563-9.238281-2.683594-5.269531-1.664063-10.886719 1.261718-12.542969 6.53125-1.660156 5.265625 1.261719 10.882812 6.53125 12.542968 3.324219 1.046876 6.722657 2.035157 10.09375 2.933594 2.996094.800782 6.042969 1.546875 9.054688 2.226563.738281.164062 1.476562.246093 2.203125.246093 4.574218 0 8.703125-3.160156 9.746094-7.808593 1.214843-5.386719-2.171876-10.738281-7.5625-11.949219zm0 0"/><path d="m31.179688 289.78125c-5.398438 1.160156-8.835938 6.480469-7.671876 11.878906 1.382813 6.441406 3.058594 12.902344 4.980469 19.199219 1.3125 4.3125 5.277344 7.089844 9.558594 7.089844.96875 0 1.949219-.140625 2.921875-.4375 5.28125-1.609375 8.257812-7.199219 6.648438-12.480469-1.757813-5.765625-3.289063-11.679688-4.558594-17.574219-1.160156-5.402343-6.480469-8.839843-11.878906-7.675781zm0 0"/><path d="m28.3125 269.195312c.113281 0 .226562 0 .339844-.003906 5.519531-.1875 9.84375-4.8125 9.660156-10.332031-.082031-2.457031-.125-4.957031-.125-7.429687 0-10.511719.753906-21.074219 2.246094-31.394532.789062-5.464844-3.003906-10.535156-8.46875-11.324218-5.464844-.789063-10.539063 3-11.328125 8.46875-1.625 11.261718-2.449219 22.785156-2.449219 34.25 0 2.695312.046875 5.417968.136719 8.101562.183593 5.40625 4.621093 9.664062 9.988281 9.664062zm0 0"/><path d="m36.75 188.542969c1.054688.355469 2.121094.519531 3.175781.519531 4.179688 0 8.078125-2.644531 9.480469-6.828125 4.105469-12.265625 9.351562-24.238281 15.597656-35.597656 2.660156-4.839844.894532-10.917969-3.941406-13.578125-4.839844-2.664063-10.921875-.898438-13.582031 3.941406-6.820313 12.40625-12.554688 25.488281-17.039063 38.886719-1.753906 5.238281 1.070313 10.902343 6.308594 12.65625zm0 0"/><path d="m216.160156 37.089844c.578125 0 1.164063-.050782 1.75-.152344 12.484375-2.203125 25.300782-3.320312 38.089844-3.320312l.652344.003906h.019531c5.511719 0 9.988281-4.464844 10-9.980469.011719-5.523437-4.453125-10.007813-9.976563-10.019531l-.695312-.003906c-13.949219 0-27.933594 1.21875-41.5625 3.625-5.441406.957031-9.074219 6.144531-8.113281 11.582031.855469 4.851562 5.074219 8.265625 9.835937 8.265625zm0 0"/><path d="m72.636719 115.851562c1.851562 1.5 4.078125 2.230469 6.289062 2.230469 2.914063 0 5.800781-1.265625 7.777344-3.703125 8.152344-10.0625 17.257813-19.453125 27.0625-27.914062 4.183594-3.609375 4.648437-9.921875 1.039063-14.105469-3.609376-4.179687-9.925782-4.644531-14.105469-1.035156-10.699219 9.234375-20.636719 19.484375-29.535157 30.460937-3.476562 4.289063-2.816406 10.585938 1.472657 14.066406zm0 0"/><path d="m140.253906 65.179688c1.730469 0 3.484375-.449219 5.082032-1.394532 11.148437-6.59375 22.953124-12.207031 35.074218-16.695312 5.179688-1.917969 7.824219-7.671875 5.90625-12.847656-1.914062-5.183594-7.671875-7.828126-12.847656-5.910157-13.242188 4.902344-26.132812 11.035157-38.3125 18.238281-4.753906 2.808594-6.328125 8.941407-3.519531 13.695313 1.867187 3.15625 5.199219 4.914063 8.617187 4.914063zm0 0"/><path d="m295.5 37.1875c5.929688 1.089844 11.886719 2.4375 17.703125 4.015625.878906.238281 1.757813.351563 2.625.351563 4.402344 0 8.4375-2.929688 9.644531-7.382813 1.449219-5.328125-1.699218-10.824219-7.03125-12.269531-6.351562-1.722656-12.859375-3.199219-19.339844-4.386719-5.417968-.988281-10.640624 2.605469-11.636718 8.035156-.992188 5.433594 2.605468 10.644531 8.035156 11.636719zm0 0"/><path d="m195.539062 239.929688c-.25-.609376-.558593-1.1875-.917968-1.730469-.371094-.550781-.789063-1.058594-1.25-1.519531-.460938-.460938-.96875-.878907-1.519532-1.238282-.539062-.359375-1.121093-.671875-1.71875-.921875-.613281-.25-1.242187-.4375-1.871093-.570312-1.289063-.257813-2.621094-.257813-3.910157 0-.640624.132812-1.269531.320312-1.871093.570312-.609375.25-1.191407.5625-1.730469.921875-.550781.359375-1.058594.777344-1.519531 1.238282-.460938.460937-.878907.96875-1.238281 1.519531-.359376.542969-.671876 1.121093-.921876 1.730469-.25.601562-.4375 1.230468-.570312 1.871093-.128906.640625-.199219 1.300781-.199219 1.949219s.070313 1.308594.199219 1.949219c.132812.640625.320312 1.269531.570312 1.882812.25.597657.5625 1.179688.921876 1.71875.359374.550781.777343 1.058594 1.238281 1.519531.460937.460938.96875.878907 1.519531 1.238282.539062.371094 1.121094.671875 1.730469.921875.601562.25 1.230469.449219 1.871093.578125.640626.132812 1.300782.191406 1.949219.191406.648438 0 1.308594-.058594 1.960938-.191406.628906-.128906 1.257812-.328125 1.871093-.578125.597657-.25 1.179688-.550781 1.71875-.921875.550782-.359375 1.058594-.777344 1.519532-1.238282.460937-.460937.878906-.96875 1.25-1.519531.359375-.539062.667968-1.121093.917968-1.71875.25-.613281.441407-1.242187.570313-1.882812.132813-.640625.191406-1.300781.191406-1.949219s-.058593-1.308594-.191406-1.949219c-.128906-.640625-.320313-1.269531-.570313-1.871093zm0 0"/><path d="m506.757812 99.1875c-.015624-.015625-.027343-.035156-.042968-.050781-.042969-.050781-.085938-.105469-.132813-.15625-.058593-.074219-.121093-.144531-.183593-.214844l-78.394532-90.785156c-.0625-.070313-.125-.144531-.1875-.214844-.011718-.011719-.019531-.023437-.03125-.035156-.050781-.058594-.101562-.113281-.152344-.171875-.046874-.050782-.09375-.097656-.136718-.148438-.015625-.015625-.035156-.035156-.050782-.050781-.058593-.066406-.117187-.128906-.175781-.191406-.003906-.003907-.007812-.003907-.007812-.007813-3.953125-4.164062-9.238281-6.675781-15.003907-7.097656-6.136718-.449219-12.078124 1.519531-16.734374 5.539062l-50.414063 43.535157c-4.519531 3.902343-7.300781 9.289062-7.871094 15.210937-.003906.027344-.003906.050782-.007812.078125-.003907.070313-.011719.140625-.015625.210938-.003906.035156-.007813.070312-.011719.101562-.003906.050781-.007813.097657-.011719.148438 0 .015625 0 .035156-.003906.050781 0 .027344-.003906.054688-.003906.082031-.003906.078125-.007813.15625-.015625.234375v.03125c-.332031 5.878906 1.558593 11.5625 5.34375 16.074219.007812.011719.015625.019531.023437.03125.066406.074219.132813.152344.195313.226563l78.394531 90.785156c.140625.160156.28125.316406.421875.472656.03125.03125.058594.0625.089844.09375.035156.042969.074219.082031.113281.125.0625.0625.121094.125.179688.191406.007812.003906.011718.007813.015624.015625 2.574219 2.683594 5.664063 4.613281 8.980469 5.769531.011719.003907.019531.007813.03125.011719.066407.023438.132813.046875.199219.066407 2.1875.746093 4.496094 1.164062 6.851562 1.222656h.242188c.109375 0 .214844 0 .324219-.003906 5.332031 0 10.6875-1.839844 15.03125-5.589844l50.414062-43.535156c4.65625-4.019532 7.46875-9.613282 7.917969-15.75.4375-5.945313-1.402344-11.714844-5.179688-16.304688zm-75.449218 54.40625-68.488282-79.308594 38.398438-1.734375-.171875 16.644531c-.125 12.253907 8.9375 22.746094 21.078125 24.40625l16.488281 2.253907zm20.496094-56.121094c-.003907 0-.003907 0-.007813 0l-26.960937-3.6875c-.511719-.070312-.992188-.226562-1.429688-.453125-.058594-.03125-.117188-.0625-.171875-.097656-.085937-.046875-.167969-.097656-.25-.152344-.109375-.074219-.210937-.152343-.3125-.234375-.023437-.019531-.050781-.039062-.074219-.0625-.964844-.816406-1.5625-2.042968-1.550781-3.382812l.28125-27.214844c0-.007812 0-.015625 0-.027344l.320313-30.941406 60.835937 70.449219zm-50.109376-70.773437-.269531 25.824219-31.265625 1.410156zm50.816407 122.601562 5.949219-30.730469 25.585937 3.496094zm0 0"/><path d="m169.464844 421.46875c-.0625-.074219-.128906-.152344-.195313-.226562l-78.394531-90.78125c-.019531-.023438-.039062-.050782-.0625-.074219-2.699219-3.101563-6.058594-5.308594-9.691406-6.582031-2.269532-.804688-4.671875-1.257813-7.125-1.316407-.179688-.003906-.363282 0-.546875.003907-5.339844-.003907-10.703125 1.832031-15.050781 5.589843l-50.417969 43.535157c-4.65625 4.019531-7.46875 9.613281-7.917969 15.75-.433594 5.945312 1.402344 11.714843 5.175781 16.304687.03125.035156.0625.070313.089844.105469.03125.035156.058594.070312.089844.105468.058593.074219.121093.144532.183593.214844l78.394532 90.785156c4.019531 4.65625 9.613281 7.464844 15.75 7.914063.574218.042969 1.144531.066406 1.714844.066406 5.519531 0 10.796874-1.957031 15.015624-5.601562l50.417969-43.539063c4.597657-3.96875 7.398438-9.476562 7.898438-15.523437 0-.003907 0-.003907 0-.007813.003906-.070312.011719-.140625.015625-.214844.441406-6.019531-1.445313-11.859374-5.320313-16.476562-.007812-.011719-.015625-.019531-.023437-.03125zm-58.511719-7.800781c.125-12.253907-8.933594-22.746094-21.074219-24.40625l-16.492187-2.257813 7.308593-37.734375 68.488282 79.308594-38.398438 1.730469zm-81.433594-12.472657 30.671875 4.191407c.003906 0 .007813 0 .011719.003906l26.964844 3.683594c2.179687.300781 3.808593 2.183593 3.785156 4.386719l-.597656 58.179687-8.402344-9.726563zm29.96875-47.632812-5.949219 30.730469-25.585937-3.5zm50.820313 122.597656.265625-25.820312 31.269531-1.410156zm0 0"/></g></svg>