<?xml version="1.0" encoding="UTF-8"?>
<svg width="512px" height="512px" viewBox="0 0 512 512" version="1.1" xmlns="http://www.w3.org/2000/svg" xmlns:xlink="http://www.w3.org/1999/xlink">
    <!-- Generator: Sketch 52.2 (67145) - http://www.bohemiancoding.com/sketch -->
    <title>1</title>
    <desc>Created with Sketch.</desc>
    <g id="Page-1" stroke="none" stroke-width="1" fill="none" fill-rule="evenodd">
        <g id="1">
            <polygon id="Path" fill="#EDF2FA" points="331.625 416.688 502 416.688 502 85.21 426.779 10 275.428 10 275.428 416.688"></polygon>
            <rect id="Rectangle" fill="#FFB954" x="249" y="238.86" width="24" height="79.14"></rect>
            <polyline id="Path" fill="#7D9BFF" points="426.779 10.964 426.779 85.221 501.036 85.221"></polyline>
            <path d="M448,463 L448,357 C448,335.461 430.539,318 409,318 L144.46,318 C122.921,318 105.46,335.461 105.46,357 L105.46,463 C105.46,484.539 122.921,502 144.46,502 L409,502 C430.539,502 448,484.539 448,463 Z" id="Path" fill="#B3B6C3"></path>
            <path d="M92.527,32.144 L92.527,26.822 C69.746,26.822 49.122,36.056 34.193,50.985 L92.527,109.32 L92.527,80.153 L63.359,50.985 C71.558,42.787 81.48,36.321 92.527,32.144 Z" id="Path" fill="#FFFFFF"></path>
            <path d="M92.527,10 L92.527,109.32 L125.365,109.32 L125.365,15.565 C115.085,11.964 104.036,10 92.527,10 Z" id="Path" fill="#FFFFFF"></path>
            <rect id="Rectangle" fill="#FFFFFF" x="313.05" y="276" width="48" height="42"></rect>
            <rect id="Rectangle" fill="#FF5D5D" x="335.5" y="276" width="25.553" height="42"></rect>
            <rect id="Rectangle" fill="#FFFFFF" x="400" y="254" width="48" height="64"></rect>
            <rect id="Rectangle" fill="#A0E557" x="422.5" y="254" width="25.5" height="64"></rect>
            <path d="M509.07,78.139 L433.85,2.929 C431.975,1.054 429.432,0 426.779,0 L204.424,0 C198.902,0 194.424,4.478 194.424,10 L194.424,41 C194.424,46.522 198.902,51 204.424,51 C209.946,51 214.424,46.522 214.424,41 L214.424,20 L416.779,20 L416.779,85.221 C416.779,90.743 421.257,95.221 426.779,95.221 L492,95.221 L492,406.688 L458,406.688 L458,357 C458,346.145 454.446,336.107 448.449,327.977 C453.762,327.74 458,323.371 458,318 L458,254 C458,248.478 453.522,244 448,244 L400,244 C394.478,244 390,248.478 390,254 L390,308 L371.053,308 L371.053,276 C371.053,270.478 366.575,266 361.053,266 L313.053,266 C307.531,266 303.053,270.478 303.053,276 L303.053,308 L283,308 L283,238.863 C283,233.341 278.522,228.863 273,228.863 L246.667,228.863 C241.145,228.863 236.667,233.341 236.667,238.863 C236.667,244.385 241.145,248.863 246.667,248.863 L263,248.863 L263,308 L239,308 L239,278.833 C239,260.729 224.271,246 206.167,246 L189.274,246 C179.073,246 170.774,237.701 170.774,227.5 C170.774,217.299 179.073,209 189.274,209 L325.667,209 C331.189,209 335.667,204.522 335.667,199 C335.667,193.478 331.189,189 325.667,189 L189.274,189 C168.045,189 150.774,206.271 150.774,227.5 C150.774,248.729 168.045,266 189.274,266 L206.167,266 C213.243,266 219,271.757 219,278.833 L219,308 L49,308 C21.981,308 0,329.981 0,357 L0,463 C0,490.019 21.981,512 49,512 L409,512 C436.019,512 458,490.019 458,463 L458,426.687 L502,426.687 C507.522,426.687 512,422.209 512,416.687 L512,85.21 C512,82.558 510.946,80.014 509.07,78.139 Z M410,264 L438,264 L438,308 L410,308 L410,264 Z M323.053,286 L351.053,286 L351.053,308 L323.053,308 L323.053,286 Z M438,463 C438,478.99 424.99,492 409,492 L49,492 C33.01,492 20,478.99 20,463 L20,357 C20,341.01 33.01,328 49,328 L409,328 C424.99,328 438,341.01 438,357 L438,463 Z M436.779,34.14 L477.866,75.221 L436.779,75.221 L436.779,34.14 Z" id="Shape" fill="#000000" fill-rule="nonzero"></path>
            <path d="M101.439,381.439 C104.069,381.439 106.649,380.37 108.509,378.509 C110.369,376.648 111.439,374.069 111.439,371.439 C111.439,368.809 110.37,366.229 108.509,364.359 C106.649,362.509 104.069,361.439 101.439,361.439 C98.809,361.439 96.229,362.509 94.37,364.359 C92.51,366.229 91.439,368.809 91.439,371.439 C91.439,374.069 92.509,376.649 94.37,378.509 C96.229,380.37 98.81,381.439 101.439,381.439 Z" id="Path" fill="#000000"></path>
            <path d="M151.667,361.438 L143.959,361.438 C138.437,361.438 133.959,365.916 133.959,371.438 C133.959,376.96 138.437,381.438 143.959,381.438 L151.667,381.438 C157.189,381.438 161.667,376.96 161.667,371.438 C161.667,365.916 157.189,361.438 151.667,361.438 Z" id="Path" fill="#000000"></path>
            <path d="M186.479,381.439 C189.109,381.439 191.689,380.37 193.549,378.509 C195.409,376.639 196.479,374.069 196.479,371.439 C196.479,368.809 195.41,366.229 193.549,364.37 C191.689,362.5 189.109,361.439 186.479,361.439 C183.849,361.439 181.269,362.5 179.41,364.37 C177.55,366.229 176.479,368.809 176.479,371.439 C176.479,374.069 177.549,376.649 179.41,378.509 C181.27,380.37 183.85,381.439 186.479,381.439 Z" id="Path" fill="#000000"></path>
            <path d="M229,381.439 C231.63,381.439 234.21,380.37 236.069,378.509 C237.929,376.649 239,374.069 239,371.439 C239,368.799 237.93,366.229 236.069,364.37 C234.21,362.51 231.63,361.439 229,361.439 C226.37,361.439 223.79,362.509 221.93,364.37 C220.07,366.229 219,368.8 219,371.439 C219,374.069 220.069,376.649 221.93,378.509 C223.791,380.369 226.37,381.439 229,381.439 Z" id="Path" fill="#000000"></path>
            <path d="M271.52,381.439 C274.15,381.439 276.73,380.37 278.59,378.509 C280.45,376.648 281.52,374.069 281.52,371.439 C281.52,368.799 280.451,366.229 278.59,364.37 C276.73,362.5 274.15,361.439 271.52,361.439 C268.89,361.439 266.31,362.5 264.451,364.37 C262.591,366.22 261.52,368.8 261.52,371.439 C261.52,374.069 262.59,376.649 264.451,378.509 C266.31,380.37 268.89,381.439 271.52,381.439 Z" id="Path" fill="#000000"></path>
            <path d="M314.04,381.439 C316.67,381.439 319.25,380.37 321.109,378.509 C322.969,376.649 324.04,374.069 324.04,371.439 C324.04,368.809 322.97,366.229 321.109,364.37 C319.25,362.51 316.67,361.439 314.04,361.439 C311.41,361.439 308.83,362.509 306.97,364.37 C305.11,366.229 304.04,368.8 304.04,371.439 C304.04,374.069 305.109,376.649 306.97,378.509 C308.831,380.369 311.41,381.439 314.04,381.439 Z" id="Path" fill="#000000"></path>
            <path d="M356.56,381.439 C359.19,381.439 361.77,380.37 363.63,378.509 C365.49,376.648 366.56,374.069 366.56,371.439 C366.56,368.799 365.491,366.229 363.63,364.37 C361.77,362.5 359.19,361.439 356.56,361.439 C353.93,361.439 351.35,362.5 349.491,364.37 C347.631,366.229 346.56,368.8 346.56,371.439 C346.56,374.069 347.63,376.649 349.491,378.509 C351.35,380.37 353.93,381.439 356.56,381.439 Z" id="Path" fill="#000000"></path>
            <path d="M101.439,451.939 C98.809,451.939 96.229,453.009 94.37,454.87 C92.51,456.729 91.439,459.3 91.439,461.939 C91.439,464.569 92.509,467.149 94.37,469.009 C96.229,470.869 98.809,471.939 101.439,471.939 C104.069,471.939 106.649,470.87 108.509,469.009 C110.369,467.148 111.439,464.569 111.439,461.939 C111.439,459.299 110.37,456.729 108.509,454.87 C106.649,453.01 104.069,451.939 101.439,451.939 Z" id="Path" fill="#000000"></path>
            <path d="M143.96,451.939 C141.33,451.939 138.75,453 136.89,454.87 C135.03,456.729 133.96,459.309 133.96,461.939 C133.96,464.569 135.029,467.149 136.89,469.009 C138.751,470.869 141.33,471.939 143.96,471.939 C146.59,471.939 149.17,470.87 151.029,469.009 C152.889,467.149 153.96,464.569 153.96,461.939 C153.96,459.299 152.89,456.729 151.029,454.87 C149.17,453 146.59,451.939 143.96,451.939 Z" id="Path" fill="#000000"></path>
            <path d="M271.731,451.938 L186.479,451.938 C180.957,451.938 176.479,456.416 176.479,461.938 C176.479,467.46 180.957,471.938 186.479,471.938 L228.961,471.938 C228.974,471.938 228.987,471.94 229,471.94 C229.013,471.94 229.026,471.938 229.039,471.938 L271.481,471.938 C271.494,471.938 271.507,471.94 271.52,471.94 C271.533,471.94 271.546,471.938 271.559,471.938 L271.732,471.938 C277.254,471.938 281.732,467.46 281.732,461.938 C281.732,456.416 277.254,451.938 271.731,451.938 Z" id="Path" fill="#000000"></path>
            <path d="M314.04,451.939 C311.41,451.939 308.83,453.009 306.97,454.87 C305.11,456.729 304.04,459.3 304.04,461.939 C304.04,464.569 305.109,467.149 306.97,469.009 C308.831,470.869 311.41,471.939 314.04,471.939 C316.67,471.939 319.25,470.87 321.109,469.009 C322.969,467.149 324.04,464.569 324.04,461.939 C324.04,459.299 322.97,456.729 321.109,454.87 C319.25,453.01 316.67,451.939 314.04,451.939 Z" id="Path" fill="#000000"></path>
            <path d="M363.652,451.938 L356.561,451.938 C351.039,451.938 346.561,456.416 346.561,461.938 C346.561,467.46 351.039,471.938 356.561,471.938 L363.652,471.938 C369.174,471.938 373.652,467.46 373.652,461.938 C373.652,456.416 369.175,451.938 363.652,451.938 Z" id="Path" fill="#000000"></path>
            <path d="M58.069,406.689 C55.439,406.689 52.859,407.75 51,409.609 C49.14,411.479 48.069,414.059 48.069,416.689 C48.069,419.319 49.139,421.899 51,423.759 C52.859,425.619 55.439,426.689 58.069,426.689 C60.7,426.689 63.279,425.62 65.139,423.759 C67.009,421.899 68.069,419.319 68.069,416.689 C68.069,414.059 67.009,411.479 65.139,409.609 C63.279,407.75 60.7,406.689 58.069,406.689 Z" id="Path" fill="#000000"></path>
            <path d="M107,406.688 L100.805,406.688 C95.283,406.688 90.805,411.166 90.805,416.688 C90.805,422.21 95.283,426.688 100.805,426.688 L107,426.688 C112.522,426.688 117,422.21 117,416.688 C117,411.166 112.522,406.688 107,406.688 Z" id="Path" fill="#000000"></path>
            <path d="M143.54,426.689 C146.16,426.689 148.74,425.62 150.609,423.759 C152.469,421.899 153.54,419.319 153.54,416.689 C153.54,414.049 152.47,411.479 150.609,409.62 C148.74,407.75 146.16,406.689 143.54,406.689 C140.899,406.689 138.33,407.75 136.46,409.62 C134.6,411.479 133.54,414.05 133.54,416.689 C133.54,419.319 134.6,421.899 136.46,423.759 C138.33,425.62 140.899,426.689 143.54,426.689 Z" id="Path" fill="#000000"></path>
            <path d="M186.27,426.689 C188.9,426.689 191.48,425.62 193.34,423.759 C195.2,421.898 196.27,419.319 196.27,416.689 C196.27,414.049 195.201,411.479 193.34,409.62 C191.48,407.76 188.9,406.689 186.27,406.689 C183.64,406.689 181.06,407.759 179.201,409.62 C177.341,411.479 176.27,414.059 176.27,416.689 C176.27,419.319 177.34,421.899 179.201,423.759 C181.06,425.62 183.64,426.689 186.27,426.689 Z" id="Path" fill="#000000"></path>
            <path d="M229,426.688 L236.333,426.688 C241.855,426.688 246.333,422.21 246.333,416.688 C246.333,411.166 241.855,406.688 236.333,406.688 L229,406.688 C223.478,406.688 219,411.166 219,416.688 C219,422.21 223.478,426.688 229,426.688 Z" id="Path" fill="#000000"></path>
            <path d="M280.333,406.688 L271.731,406.688 C266.209,406.688 261.731,411.166 261.731,416.688 C261.731,422.21 266.209,426.688 271.731,426.688 L280.333,426.688 C285.855,426.688 290.333,422.21 290.333,416.688 C290.333,411.166 285.855,406.688 280.333,406.688 Z" id="Path" fill="#000000"></path>
            <path d="M314.46,406.689 C311.83,406.689 309.25,407.759 307.39,409.62 C305.53,411.479 304.46,414.05 304.46,416.689 C304.46,419.319 305.529,421.899 307.39,423.759 C309.251,425.619 311.83,426.689 314.46,426.689 C317.1,426.689 319.67,425.62 321.529,423.759 C323.399,421.899 324.46,419.319 324.46,416.689 C324.46,414.049 323.399,411.479 321.529,409.62 C319.67,407.76 317.1,406.689 314.46,406.689 Z" id="Path" fill="#000000"></path>
            <path d="M357.189,406.689 C354.559,406.689 351.99,407.75 350.12,409.609 C348.26,411.479 347.2,414.059 347.2,416.689 C347.2,419.319 348.26,421.899 350.12,423.759 C351.99,425.619 354.559,426.689 357.189,426.689 C359.83,426.689 362.399,425.62 364.259,423.759 C366.129,421.899 367.199,419.319 367.199,416.689 C367.199,414.059 366.129,411.479 364.259,409.609 C362.399,407.75 359.83,406.689 357.189,406.689 Z" id="Path" fill="#000000"></path>
            <path d="M399.93,406.689 C397.29,406.689 394.72,407.75 392.86,409.62 C391.001,411.479 389.93,414.059 389.93,416.689 C389.93,419.319 391,421.899 392.86,423.759 C394.72,425.619 397.291,426.689 399.93,426.689 C402.56,426.689 405.14,425.62 407,423.759 C408.859,421.889 409.93,419.319 409.93,416.689 C409.93,414.059 408.86,411.479 407,409.62 C405.14,407.75 402.56,406.689 399.93,406.689 Z" id="Path" fill="#000000"></path>
            <path d="M360.333,199 C360.333,204.522 364.811,209 370.333,209 L437.086,209 C442.608,209 447.086,204.522 447.086,199 C447.086,193.478 442.608,189 437.086,189 L370.333,189 C364.811,189 360.333,193.478 360.333,199 Z" id="Path" fill="#000000"></path>
            <path d="M256.268,118 L317.149,118 C322.671,118 327.149,113.522 327.149,108 C327.149,102.478 322.671,98 317.149,98 L256.268,98 C250.746,98 246.268,102.478 246.268,108 C246.268,113.522 250.745,118 256.268,118 Z" id="Path" fill="#000000"></path>
            <path d="M341.269,108 C341.269,113.522 345.747,118 351.269,118 L385.39,118 C390.912,118 395.39,113.522 395.39,108 C395.39,102.478 390.912,98 385.39,98 L351.269,98 C345.746,98 341.269,102.478 341.269,108 Z" id="Path" fill="#000000"></path>
            <path d="M341.672,54 L256.268,54 C250.746,54 246.268,58.478 246.268,64 C246.268,69.522 250.746,74 256.268,74 L341.672,74 C347.194,74 351.672,69.522 351.672,64 C351.672,58.478 347.194,54 341.672,54 Z" id="Path" fill="#000000"></path>
            <path d="M390.13,71.069 C391.99,69.21 393.06,66.63 393.06,64 C393.06,61.359 391.991,58.79 390.13,56.93 C388.269,55.07 385.7,54 383.06,54 C380.43,54 377.85,55.069 375.991,56.93 C374.131,58.79 373.06,61.36 373.06,64 C373.06,66.63 374.13,69.21 375.991,71.069 C377.85,72.93 380.43,74 383.06,74 C385.7,74 388.27,72.93 390.13,71.069 Z" id="Path" fill="#000000"></path>
            <path d="M256.268,162 L336.755,162 C342.277,162 346.755,157.522 346.755,152 C346.755,146.478 342.277,142 336.755,142 L256.268,142 C250.746,142 246.268,146.478 246.268,152 C246.268,157.522 250.745,162 256.268,162 Z" id="Path" fill="#000000"></path>
            <path d="M375.92,159.069 C377.779,157.21 378.85,154.63 378.85,152 C378.85,149.37 377.78,146.79 375.92,144.93 C374.05,143.07 371.48,142 368.84,142 C366.21,142 363.63,143.069 361.77,144.93 C359.911,146.79 358.84,149.37 358.84,152 C358.84,154.63 359.91,157.21 361.77,159.069 C363.64,160.929 366.21,162 368.84,162 C371.47,162 374.05,160.93 375.92,159.069 Z" id="Path" fill="#000000"></path>
            <path d="M402.96,142 C400.33,142 397.76,143.069 395.899,144.93 C394.029,146.79 392.96,149.37 392.96,152 C392.96,154.63 394.029,157.21 395.899,159.069 C397.75,160.929 400.33,162 402.96,162 C405.6,162 408.17,160.93 410.04,159.069 C411.899,157.21 412.97,154.63 412.97,152 C412.97,149.37 411.9,146.79 410.04,144.93 C408.17,143.069 405.6,142 402.96,142 Z" id="Path" fill="#000000"></path>
            <path d="M444.16,159.069 C446.019,157.21 447.09,154.63 447.09,152 C447.09,149.37 446.02,146.79 444.16,144.93 C442.3,143.07 439.72,142 437.09,142 C434.45,142 431.88,143.069 430.02,144.93 C428.15,146.79 427.09,149.37 427.09,152 C427.09,154.63 428.15,157.21 430.02,159.069 C431.88,160.929 434.451,162 437.09,162 C439.72,162 442.29,160.93 444.16,159.069 Z" id="Path" fill="#000000"></path>
            <g id="cancel">
                <path d="M121.09375,6.38732891 C78.9291383,16.394043 46.09375,55.4321289 46.09375,100 C46.09375,144.567871 78.9291383,183.605957 121.09375,193.612671 C163.258362,183.605957 196.09375,144.567871 196.09375,100 C196.09375,55.4321289 163.258362,16.394043 121.09375,6.38732891 Z" id="Path" fill="#FD3C65"></path>
                <path d="M135.629273,64.3707273 C140.206909,68.9453125 140.206909,76.3671875 135.629273,80.9417727 L116.571045,100 L135.629273,119.058227 C140.206909,123.632812 140.206909,131.054688 135.629273,135.629273 C133.340454,137.918091 130.343628,139.0625 127.34375,139.0625 C124.343872,139.0625 121.347046,137.918091 119.058227,135.629273 L100,116.571045 L80.9417727,135.629273 C78.6529539,137.918091 75.6561281,139.0625 72.65625,139.0625 C69.6563719,139.0625 66.6595461,137.918091 64.3707273,135.629273 C59.7930906,131.054688 59.7930906,123.632812 64.3707273,119.058227 L83.4289551,100 L64.3707273,80.9417727 C59.7930906,76.3671875 59.7930906,68.9453125 64.3707273,64.3707273 C68.9498902,59.7930906 76.3626098,59.7930906 80.9417727,64.3707273 L100,83.4289551 L119.058227,64.3707273 C123.63739,59.7930906 131.05011,59.7930906 135.629273,64.3707273 Z" id="Path" fill="#FFFFFF"></path>
                <path d="M191.943359,61.5859984 C186.807251,49.7512816 179.499817,39.0487672 170.225525,29.774475 C160.951233,20.5001832 150.248718,13.1927492 138.414002,8.05664062 C126.097107,2.70996094 113.172912,0 100,0 C86.8270875,0 73.902893,2.70996094 61.5859984,8.05664062 C49.7512816,13.1927492 39.0487672,20.5001832 29.774475,29.774475 C20.5001832,39.0487672 13.1927492,49.7512816 8.05664062,61.5859984 C2.70996094,73.902893 -2.84217094e-14,86.8270875 -2.84217094e-14,100 C-2.84217094e-14,113.172913 2.70996094,126.097107 8.05664062,138.414002 C13.1927492,150.248718 20.5001832,160.951233 29.774475,170.225525 C39.0487672,179.499817 49.7512816,186.807251 61.5859984,191.943359 C73.902893,197.290039 86.8270875,200 100,200 C113.172912,200 126.097107,197.290039 138.414002,191.943359 C150.248718,186.807251 160.951233,179.499817 170.225525,170.225525 C179.499817,160.951233 186.807251,150.248718 191.943359,138.414002 C197.290039,126.097107 200,113.172912 200,100 C200,86.8270875 197.290039,73.902893 191.943359,61.5859984 Z M100,192.1875 C50.0289918,192.1875 7.8125,149.971008 7.8125,100 C7.8125,50.0289918 50.0289918,7.8125 100,7.8125 C149.971008,7.8125 192.1875,50.0289918 192.1875,100 C192.1875,149.971008 149.971008,192.1875 100,192.1875 Z" id="Shape" fill="#000000" fill-rule="nonzero"></path>
                <path d="M176.553345,67.8924563 C172.306824,58.026123 166.255188,49.1256715 158.564758,41.4352418 C150.874329,33.7463379 141.973877,27.6931762 132.107544,23.4481812 C121.855164,19.0338133 111.051941,16.796875 100,16.796875 C84.9761961,16.796875 69.314575,21.9268797 54.7088625,31.6329957 C52.911377,32.8277586 52.4230957,35.2523805 53.617859,37.0483398 C54.8110961,38.845825 57.2372438,39.3341063 59.0332031,38.1393434 C72.3526,29.2877195 86.5188598,24.609375 100,24.609375 C140.866089,24.609375 175.390625,59.1339109 175.390625,100 C175.390625,140.866089 140.866089,175.390625 100,175.390625 C59.1339109,175.390625 24.609375,140.866089 24.609375,100 C24.609375,86.5219117 29.2877195,72.355652 38.1362914,59.0316773 C39.3295289,57.235718 38.8412477,54.8110961 37.0437621,53.617859 C35.246277,52.4230957 32.8216555,52.9129027 31.628418,54.7103883 C21.9253539,69.317627 16.796875,84.979248 16.796875,100 C16.796875,111.051941 19.0338133,121.855164 23.4466555,132.107544 C27.6931762,141.973877 33.7448121,150.874329 41.4352418,158.564758 C49.1256715,166.253662 58.026123,172.306824 67.8924562,176.551819 C78.1448363,180.966187 88.948059,183.203125 100,183.203125 C111.051941,183.203125 121.855164,180.966187 132.107544,176.553345 C141.973877,172.306824 150.874329,166.255188 158.564758,158.564758 C166.253662,150.874329 172.306824,141.973877 176.551819,132.107544 C180.966187,121.855164 183.203125,111.051941 183.203125,100 C183.203125,88.948059 180.966187,78.1448363 176.553345,67.8924563 Z" id="Path" fill="#000000"></path>
                <path d="M44.53125,41.015625 C42.3751832,41.015625 40.625,42.7658082 40.625,44.921875 C40.625,47.0779418 42.3751832,48.828125 44.53125,48.828125 C46.6873168,48.828125 48.4375,47.0779418 48.4375,44.921875 C48.4375,42.7658082 46.6873168,41.015625 44.53125,41.015625 Z" id="Path" fill="#000000"></path>
                <path d="M57.03125,127.34375 C57.03125,131.518555 58.6578367,135.441589 61.6088867,138.391113 C64.5614625,141.343689 68.4844969,142.96875 72.65625,142.96875 C76.8280031,142.96875 80.7510375,141.343689 83.7036133,138.391113 L100,122.094727 L116.296387,138.391113 C119.248963,141.343689 123.171997,142.96875 127.34375,142.96875 C131.515503,142.96875 135.438537,141.343689 138.389588,138.392639 C141.342163,135.441589 142.96875,131.518555 142.96875,127.34375 C142.96875,123.168945 141.342163,119.245911 138.391113,116.296387 L122.094727,100 L138.389588,83.7051391 C141.342163,80.7540895 142.96875,76.8310547 142.96875,72.65625 C142.96875,68.4814453 141.342163,64.5584105 138.391113,61.6088867 C135.438537,58.6563109 131.515503,57.03125 127.34375,57.03125 C123.171997,57.03125 119.248962,58.6563109 116.296387,61.6088867 L100,77.9052734 L83.7036133,61.6088867 C80.7510375,58.6563109 76.8280031,57.03125 72.65625,57.03125 C68.4844969,57.03125 64.5614625,58.6563109 61.6104125,61.6073609 C58.6578367,64.5584105 57.03125,68.4814453 57.03125,72.65625 C57.03125,76.8310547 58.6578367,80.7540895 61.6088867,83.7036133 L77.9052734,100 L61.6104125,116.294861 C58.6578367,119.245911 57.03125,123.168945 57.03125,127.34375 Z M67.1325684,121.820068 L86.1923219,102.761841 C87.716675,101.235962 87.716675,98.7640383 86.1923219,97.2381594 L67.1325684,78.1784059 C65.6570434,76.7028809 64.84375,74.7421266 64.84375,72.65625 C64.84375,70.5703734 65.6570434,68.6096191 67.1325684,67.1325684 C68.6096191,65.6570434 70.5703734,64.84375 72.65625,64.84375 C74.7421266,64.84375 76.7028809,65.6570434 78.1799316,67.1325684 L97.2381594,86.1923219 C98.7640383,87.716675 101.235962,87.716675 102.761841,86.1923219 L121.821594,67.1325684 C123.297119,65.6570434 125.257873,64.84375 127.34375,64.84375 C129.429627,64.84375 131.390381,65.6570434 132.867432,67.1340941 C134.342957,68.6096191 135.15625,70.5703734 135.15625,72.65625 C135.15625,74.7421266 134.342957,76.7028809 132.867432,78.1799316 L113.807678,97.2381594 C112.283325,98.7640383 112.283325,101.237488 113.807678,102.761841 L132.867432,121.821594 C134.342957,123.297119 135.15625,125.257873 135.15625,127.34375 C135.15625,129.429627 134.342957,131.390381 132.867432,132.867432 C131.390381,134.342957 129.429627,135.15625 127.34375,135.15625 C125.257873,135.15625 123.297119,134.342957 121.820068,132.867432 L102.761841,113.807678 C101.998902,113.044739 100.999451,112.664795 100,112.664795 C99.0005492,112.664795 98.0010984,113.044739 97.2381594,113.807678 L78.1799316,132.867432 C76.7028809,134.342957 74.7421266,135.15625 72.65625,135.15625 C70.5703734,135.15625 68.6096191,134.342957 67.1325684,132.865906 C65.6570434,131.390381 64.84375,129.429627 64.84375,127.34375 C64.84375,125.257873 65.6570434,123.297119 67.1325684,121.820068 Z" id="Shape" fill="#000000" fill-rule="nonzero"></path>
            </g>
        </g>
    </g>
</svg>