<svg height="512pt" viewBox="0 0 512 512" width="512pt" xmlns="http://www.w3.org/2000/svg"><path d="m414 10h-240c-8.835938 0-16 7.164062-16 16v392c0 8.835938 7.164062 16 16 16h312c8.835938 0 16-7.164062 16-16v-320zm0 0" fill="#fff"/><path d="m502 98h-72c-8.835938 0-16-7.164062-16-16v-72zm0 0" fill="#feda9b"/><path d="m448 461.996094v-210.257813c0-22.089843-17.910156-40-40-40h-250c-22.089844 0-40 17.910157-40 40v210.257813c0 22.089844 17.910156 40 40 40h250c22.089844 0 40-17.910156 40-40zm0 0" fill="#36d28f"/><path d="m264.332031 63.996094h77.582031v48h-77.582031zm0 0" fill="#ff5d5d"/><path d="m509.070312 90.929688-88-88c-1.875-1.875-4.417968-2.929688-7.070312-2.929688h-240c-14.335938 0-26 11.664062-26 26v175.738281h-98c-27.570312 0-50 22.429688-50 50v210.257813c0 27.570312 22.429688 50 50 50h358c27.570312 0 50-22.429688 50-50v-17.996094h28c14.335938 0 26-11.664062 26-26v-320c0-2.652344-1.054688-5.195312-2.929688-7.070312zm-85.070312-56.789063 53.859375 53.859375h-47.859375c-3.308594 0-6-2.691406-6-6zm-404 427.855469v-210.257813c0-11.851562 6.910156-22.121093 16.914062-26.988281l69.914063 69.914062c1.953125 1.953126 4.511719 2.929688 7.070313 2.929688 2.5625 0 5.121093-.976562 7.074218-2.929688 3.902344-3.90625 3.902344-10.238281 0-14.144531l-58.785156-58.78125h333.625l-112.277344 112.277344c-.359375.363281-.679687.753906-.976562 1.15625-16.453125-8.15625-34.691406-12.472656-53.59375-12.472656-32.285156 0-62.640625 12.570312-85.46875 35.398437l-119.253906 119.257813c-2.691407-4.496094-4.242188-9.75-4.242188-15.359375zm388 30h-358c-3.613281 0-7.082031-.644532-10.296875-1.820313l117.9375-117.933593c19.050781-19.050782 44.382813-29.542969 71.324219-29.542969s52.269531 10.492187 71.320312 29.542969l117.953125 117.953124c-3.195312 1.164063-6.644531 1.800782-10.238281 1.800782zm30-30c0 5.628906-1.5625 10.898437-4.269531 15.402344l-119.300781-119.296876c-4.511719-4.515624-9.324219-8.621093-14.378907-12.3125l121.039063-121.039062c10 4.871094 16.910156 15.136719 16.910156 26.988281zm54-43.996094c0 3.308594-2.691406 6-6 6h-28v-172.261719c0-27.570312-22.429688-50-50-50h-240v-175.738281c0-3.308594 2.691406-6 6-6h230v62c0 14.335938 11.664062 26 26 26h62zm0 0"/><path d="m151.1875 314.878906c0-2.632812-1.066406-5.199218-2.929688-7.070312-1.859374-1.859375-4.4375-2.929688-7.070312-2.929688-2.628906 0-5.207031 1.070313-7.066406 2.929688-1.859375 1.871094-2.933594 4.4375-2.933594 7.070312 0 2.640625 1.070312 5.21875 2.933594 7.078125 1.859375 1.859375 4.4375 2.921875 7.066406 2.921875 2.632812 0 5.210938-1.0625 7.070312-2.921875 1.863282-1.867187 2.929688-4.4375 2.929688-7.078125zm0 0"/><path d="m309 149.996094h-97.644531c-5.523438 0-10 4.476562-10 10 0 5.523437 4.476562 10 10 10h97.644531c5.523438 0 10-4.476563 10-10 0-5.523438-4.476562-10-10-10zm0 0"/><path d="m454.648438 169.996094c2.628906 0 5.199218-1.066406 7.070312-2.929688 1.859375-1.859375 2.929688-4.4375 2.929688-7.070312 0-2.628906-1.070313-5.207032-2.929688-7.066406-1.871094-1.863282-4.441406-2.933594-7.070312-2.933594-2.640626 0-5.21875 1.070312-7.078126 2.933594-1.859374 1.859374-2.921874 4.429687-2.921874 7.066406 0 2.632812 1.0625 5.210937 2.921874 7.070312 1.859376 1.863282 4.441407 2.929688 7.078126 2.929688zm0 0"/><path d="m406.835938 149.996094h-51.835938c-5.523438 0-10 4.476562-10 10 0 5.523437 4.476562 10 10 10h51.835938c5.519531 0 10-4.476563 10-10 0-5.523438-4.480469-10-10-10zm0 0"/><path d="m351.917969 111.996094v-48c0-5.523438-4.480469-10-10-10h-136c-5.523438 0-10 4.476562-10 10v48c0 5.523437 4.476562 10 10 10h136c5.519531 0 10-4.476563 10-10zm-20-10h-116v-28h116zm0 0"/></svg>