<?xml version="1.0" encoding="iso-8859-1"?>
<!-- Generator: Adobe Illustrator 19.0.0, SVG Export Plug-In . SVG Version: 6.00 Build 0)  -->
<svg version="1.1" id="Capa_1" xmlns="http://www.w3.org/2000/svg" xmlns:xlink="http://www.w3.org/1999/xlink" x="0px" y="0px"
	 viewBox="0 0 512.001 512.001" style="enable-background:new 0 0 512.001 512.001;" xml:space="preserve">
<path style="fill:#6A80FF;" d="M209.501,313.414v148.583c0,22.091,11.996,40,26.795,40h155.409c14.798,0,26.795-17.909,26.795-40
	V314.582V198.583V50c0-22.091-11.996-40-26.795-40H236.296c-14.798,0-26.795,17.909-26.795,40v147.415V313.414z"/>
<rect x="208.409" y="64" style="fill:#C9F3FF;" width="210.089" height="383.998"/>
<path style="fill:#FFFFFF;" d="M228,255.999c0-40.769,26.521-75.339,63.25-87.411c-9.046-2.974-18.709-4.588-28.75-4.588
	c-50.81,0-91.999,41.19-91.999,91.999s41.19,91.999,91.999,91.999c10.041,0,19.704-1.615,28.75-4.588
	C254.522,331.337,228,296.767,228,255.999z"/>
<path style="fill:#62CD4D;" d="M354.499,255.999c0-40.769-26.521-75.339-63.25-87.411C254.521,180.66,228,215.23,228,255.999
	s26.521,75.339,63.25,87.411C327.979,331.337,354.499,296.767,354.499,255.999z"/>
<path style="fill:#FFFFFF;" d="M438.368,336.174l9.131-6.322v-88.907c0-14.401,9.821-26.505,23.129-29.989
	c-4.338-11.886-15.742-20.372-29.129-20.372l0,0c-17.121,0-31,13.879-31,31v88.907l-9.131,6.323
	c-38.758,26.836-61.884,70.978-61.884,118.118v67.065h37v-47.705C376.484,407.151,399.611,363.009,438.368,336.174z"/>
<g>
	<path style="fill:#FEDA9B;" d="M465.848,415.405c4.388-10.173,6.651-21.136,6.651-32.216V221.583c0-3.734-0.661-7.313-1.871-10.628
		c-13.309,3.484-23.129,15.588-23.129,29.989v88.907l-9.131,6.322c-38.758,26.836-61.884,70.978-61.884,118.118v47.706h52.015
		L465.848,415.405z"/>
	<path style="fill:#FEDA9B;" d="M79.835,391.196L79.835,391.196c0,9.389,5.142,17.842,13.104,22.28l10.985,3.375
		c16.414,5.043,33.025-7.231,33.025-24.402l0,0c0-9.389-5.142-17.842-13.104-22.28l-10.985-3.375
		C96.446,361.751,79.835,374.026,79.835,391.196z"/>
	<path style="fill:#FEDA9B;" d="M79.835,337.785L79.835,337.785c0,9.389,5.142,17.842,13.104,22.28l10.985,3.375
		c16.414,5.043,33.025-7.231,33.025-24.402l0,0c0-9.389-5.142-17.842-13.104-22.28l-10.985-3.375
		C96.446,308.34,79.835,320.614,79.835,337.785z"/>
	<path style="fill:#FEDA9B;" d="M79.835,284.374L79.835,284.374c0,9.389,5.142,17.842,13.104,22.28l10.985,3.375
		c16.414,5.043,33.025-7.231,33.025-24.402l0,0c0-9.389-5.142-17.842-13.104-22.28l-10.985-3.375
		C96.446,254.93,79.835,267.203,79.835,284.374z"/>
	<path style="fill:#FEDA9B;" d="M79.835,230.964L79.835,230.964c0,9.389,5.142,17.842,13.104,22.28l10.985,3.375
		c16.414,5.043,33.025-7.231,33.025-24.402l0,0c0-9.389-5.142-17.842-13.104-22.28l-10.985-3.375
		C96.446,201.519,79.835,213.793,79.835,230.964z"/>
</g>
<path d="M143.491,54c-2.64,0-5.21,1.07-7.07,2.93c-1.87,1.86-2.93,4.44-2.93,7.07c0,2.63,1.06,5.21,2.93,7.07
	c1.86,1.86,4.43,2.93,7.07,2.93c2.63,0,5.21-1.07,7.07-2.93c1.86-1.86,2.93-4.44,2.93-7.07c0-2.63-1.07-5.21-2.93-7.07
	S146.122,54,143.491,54z"/>
<path d="M441.499,180.583c-4.544,0-8.912,0.754-13,2.125V50c0-27.57-22.43-50-50-50H146.501c-27.57,0-50,22.43-50,50v140.466
	l-21.038-6.464c-10.887-3.345-22.386-1.381-31.547,5.387c-9.161,6.769-14.415,17.184-14.415,28.574
	c0,10.543,4.551,20.155,12.082,26.732c-7.707,6.739-12.082,16.299-12.082,26.679c0,10.543,4.551,20.155,12.082,26.732
	c-7.707,6.739-12.082,16.299-12.082,26.679c0,10.543,4.551,20.155,12.082,26.732c-7.707,6.739-12.082,16.299-12.082,26.679
	c0,15.702,10.084,29.351,25.094,33.961l41.906,12.875v36.967c0,27.57,22.43,50,50,50h192.983c5.523,0,10-4.478,10-10v-67.066
	c0-43.851,21.524-84.935,57.577-109.896l9.131-6.322c2.698-1.868,4.308-4.94,4.308-8.222v-88.907c0-11.58,9.42-21,21-21
	s21,9.42,21,21V383.19c0,9.774-1.963,19.28-5.833,28.255l-37.349,86.594c-2.188,5.07,0.15,10.955,5.222,13.143
	c1.291,0.557,2.634,0.82,3.956,0.82c3.871,0,7.557-2.262,9.187-6.043l37.349-86.591c4.957-11.491,7.469-23.662,7.469-36.177V221.583
	C482.499,198.976,464.107,180.583,441.499,180.583z M55.801,205.476c2.723-2.012,5.918-3.053,9.181-3.053
	c1.535,0,3.085,0.23,4.607,0.698l46.392,14.253c6.56,2.016,10.968,7.98,10.968,14.843c0,4.978-2.296,9.53-6.3,12.488
	c-4.003,2.958-9.029,3.817-13.788,2.354l-46.392-14.253c-6.56-2.016-10.968-7.98-10.968-14.843
	C49.501,212.986,51.798,208.434,55.801,205.476z M60.469,339.628c-6.56-2.015-10.967-7.979-10.967-14.843
	c0-4.979,2.296-9.53,6.3-12.489c2.723-2.012,5.918-3.052,9.181-3.052c1.533,0,3.082,0.23,4.603,0.696l31.402,9.648h0.002
	l14.992,4.606c6.561,2.017,10.968,7.981,10.968,14.844c0,4.979-2.296,9.53-6.3,12.489c-4.003,2.958-9.027,3.815-13.785,2.355
	l-9.448-2.903L60.469,339.628z M64.982,255.834c1.535,0,3.085,0.23,4.607,0.698l46.391,14.252
	c6.561,2.017,10.968,7.981,10.968,14.844c0,4.979-2.296,9.53-6.3,12.489c-4.003,2.958-9.028,3.814-13.785,2.355l-9.448-2.903
	l-36.947-11.352c-6.56-2.015-10.967-7.979-10.967-14.843c0-4.979,2.296-9.53,6.3-12.488
	C58.524,256.874,61.719,255.834,64.982,255.834z M49.501,378.196c0-4.979,2.296-9.53,6.3-12.489
	c2.723-2.012,5.918-3.052,9.181-3.052c1.533,0,3.082,0.23,4.603,0.696l31.402,9.648h0.002l14.992,4.606
	c6.561,2.017,10.968,7.981,10.968,14.844c0,4.979-2.296,9.53-6.3,12.489c-4.004,2.958-9.029,3.817-13.788,2.354l-46.393-14.254
	C53.909,391.024,49.501,385.06,49.501,378.196z M116.501,461.997v-4h212.983v34H146.501
	C129.959,491.997,116.501,478.539,116.501,461.997z M400.499,221.583v83.669l-4.824,3.34
	c-41.447,28.698-66.191,75.929-66.191,126.34v3.066H116.501v-10.364c5.706-0.821,11.197-3.037,16.033-6.61
	c9.161-6.769,14.415-17.184,14.415-28.574c0-10.542-4.551-20.154-12.082-26.731c7.708-6.739,12.082-16.299,12.082-26.68
	c0-10.542-4.551-20.154-12.082-26.732c7.707-6.739,12.082-16.299,12.082-26.679c0-10.542-4.551-20.154-12.082-26.732
	c7.707-6.739,12.082-16.299,12.082-26.679c0-15.702-10.084-29.349-25.094-33.961l-5.354-1.645V50c0-16.542,13.458-30,30-30h231.999
	c16.542,0,30,13.458,30,30v4H178.988c-5.523,0-10,4.477-10,10s4.477,10,10,10H408.5v123.287
	C403.476,204.091,400.499,212.495,400.499,221.583z"/>
<path d="M263.5,357.998c-27.245,0-52.859-10.609-72.125-29.875c-14.869-14.869-24.658-33.638-28.309-54.275
	c-3.567-20.161-1.072-40.669,7.213-59.309c2.244-5.047,8.153-7.318,13.2-5.076c5.046,2.243,7.319,8.153,5.076,13.2
	c-13.686,30.789-6.869,67.487,16.962,91.317c15.489,15.488,36.081,24.017,57.983,24.017s42.495-8.529,57.983-24.018
	c31.972-31.972,31.972-83.994,0-115.964c-24.075-24.076-59.772-30.799-90.945-17.126c-5.058,2.218-10.956-0.085-13.174-5.142
	c-2.218-5.058,0.084-10.956,5.142-13.174c18.597-8.155,39.03-10.564,59.09-6.965c20.541,3.686,39.225,13.459,54.031,28.265
	c39.77,39.77,39.77,104.48,0,144.249C316.36,347.389,290.746,357.998,263.5,357.998z"/>
<path d="M198.411,200.935c-2.542,0-5.082-0.969-7.027-2.914l-0.06-0.06c-3.905-3.905-3.905-10.237,0-14.143
	c3.905-3.905,10.237-3.905,14.143,0c3.905,3.905,3.935,10.267,0.03,14.172C203.536,199.951,200.973,200.935,198.411,200.935z"/>
<path d="M260.628,287.352c-2.56,0-5.118-0.976-7.071-2.929l-31.308-31.308c-3.905-3.905-3.905-10.237,0-14.143
	c3.905-3.905,10.237-3.905,14.143,0l24.237,24.237l44.596-44.595c3.905-3.904,10.237-3.905,14.142,0
	c3.905,3.905,3.905,10.237,0,14.142l-51.668,51.668C265.747,286.376,263.187,287.352,260.628,287.352z"/>
<g>
</g>
<g>
</g>
<g>
</g>
<g>
</g>
<g>
</g>
<g>
</g>
<g>
</g>
<g>
</g>
<g>
</g>
<g>
</g>
<g>
</g>
<g>
</g>
<g>
</g>
<g>
</g>
<g>
</g>
</svg>
