<?xml version="1.0" encoding="iso-8859-1"?>
<!-- Generator: Adobe Illustrator 19.0.0, SVG Export Plug-In . SVG Version: 6.00 Build 0)  -->
<svg version="1.1" id="Capa_1" xmlns="http://www.w3.org/2000/svg" xmlns:xlink="http://www.w3.org/1999/xlink" x="0px" y="0px"
	 viewBox="0 0 512.002 512.002" style="enable-background:new 0 0 512.002 512.002;" xml:space="preserve">
<g>
	<path style="fill:#4CC1EB;" d="M36.983,501.323c-5.758-1.314-10.816-4.466-14.526-8.805L196.63,356.353L22.287,220.834
		c-3.957,4.704-6.345,10.771-6.345,17.399v236.719C15.942,487.826,24.938,498.59,36.983,501.323z"/>
	<path style="fill:#4CC1EB;" d="M489.769,221.004l-174.3,136.264l174.06,135.299c4.067-4.733,6.531-10.884,6.531-17.614V238.234
		c0-14.938-12.109-27.047-27.047-27.047h-0.092C477.311,211.187,484.808,215.008,489.769,221.004z"/>
	<path style="fill:#4CC1EB;" d="M470.462,501.96c-0.381,0.02-0.764,0.028-1.149,0.032
		C469.697,501.988,470.081,501.981,470.462,501.96z"/>
	<path style="fill:#4CC1EB;" d="M42.989,502h0.027c-0.507,0-1.01-0.015-1.51-0.042C41.997,501.984,42.491,502,42.989,502z"/>
	<path style="fill:#4CC1EB;" d="M39.825,501.81c-0.432-0.051-0.861-0.109-1.286-0.18C38.965,501.7,39.394,501.759,39.825,501.81z"/>
	<path style="fill:#4CC1EB;" d="M473.257,501.666c-0.168,0.026-0.337,0.047-0.506,0.071
		C472.92,501.713,473.09,501.692,473.257,501.666z"/>
	<path style="fill:#4CC1EB;" d="M471.873,501.848c-0.21,0.022-0.423,0.036-0.634,0.053
		C471.45,501.884,471.663,501.87,471.873,501.848z"/>
	<path style="fill:#4CC1EB;" d="M41.345,501.946c-0.445-0.027-0.888-0.063-1.326-0.111
		C40.457,501.882,40.899,501.919,41.345,501.946z"/>
	<path style="fill:#4CC1EB;" d="M38.381,501.601c-0.443-0.077-0.883-0.162-1.319-0.26C37.498,501.438,37.937,501.525,38.381,501.601
		z"/>
	<path style="fill:#4CC1EB;" d="M41.57,211.224c0.162-0.008,0.326-0.009,0.489-0.014C41.897,211.216,41.733,211.216,41.57,211.224z"
		/>
	<path style="fill:#4CC1EB;" d="M475.93,501.104c-0.118,0.031-0.236,0.061-0.355,0.09
		C475.694,501.164,475.813,501.135,475.93,501.104z"/>
	<path style="fill:#4CC1EB;" d="M477.207,500.733c-0.092,0.029-0.184,0.059-0.277,0.087
		C477.022,500.792,477.114,500.762,477.207,500.733z"/>
	<path style="fill:#4CC1EB;" d="M478.424,500.315c-0.058,0.021-0.115,0.044-0.174,0.065
		C478.309,500.359,478.366,500.336,478.424,500.315z"/>
	<path style="fill:#4CC1EB;" d="M479.546,499.872c-0.002,0.001-0.005,0.002-0.007,0.003
		C479.541,499.874,479.544,499.873,479.546,499.872z"/>
	<path style="fill:#4CC1EB;" d="M474.612,501.416c-0.141,0.03-0.284,0.056-0.426,0.084
		C474.328,501.473,474.47,501.446,474.612,501.416z"/>
	<path style="fill:#4CC1EB;" d="M281.814,383.579c-14.702,11.494-35.335,11.522-50.068,0.07l-35.116-27.296L22.457,492.517
		c3.711,4.339,8.768,7.492,14.526,8.805c0.026,0.006,0.052,0.012,0.079,0.018c0.435,0.098,0.876,0.184,1.319,0.26
		c0.053,0.009,0.106,0.019,0.159,0.028c0.425,0.071,0.854,0.13,1.286,0.18c0.064,0.008,0.128,0.017,0.193,0.024
		c0.439,0.048,0.881,0.084,1.326,0.111c0.054,0.003,0.107,0.009,0.161,0.012c0.5,0.028,1.003,0.042,1.51,0.042h425.997h0.027
		c0.091,0,0.181-0.007,0.272-0.008c0.385-0.004,0.768-0.012,1.149-0.032c0.261-0.014,0.518-0.038,0.777-0.059
		c0.212-0.017,0.424-0.031,0.634-0.053c0.295-0.031,0.587-0.071,0.879-0.112c0.169-0.023,0.338-0.044,0.506-0.071
		c0.312-0.049,0.62-0.106,0.928-0.166c0.142-0.027,0.285-0.054,0.426-0.084c0.324-0.068,0.645-0.143,0.964-0.223
		c0.119-0.029,0.237-0.059,0.355-0.09c0.336-0.088,0.669-0.183,0.999-0.284c0.093-0.028,0.185-0.058,0.277-0.087
		c0.351-0.111,0.699-0.228,1.044-0.353c0.058-0.021,0.116-0.043,0.174-0.065c0.375-0.139,0.748-0.284,1.115-0.44
		c0.002-0.001,0.005-0.002,0.007-0.003c3.876-1.638,7.294-4.148,9.999-7.292l-0.016-0.013l-174.06-135.299L281.814,383.579z"/>
</g>
<path style="fill:#238FB4;" d="M231.746,383.648c14.734,11.453,35.367,11.424,50.068-0.07l33.654-26.31l174.301-136.265
	c-4.961-5.996-12.458-9.816-20.848-9.816l-164.468-39.539v88.626c0,10.894-8.832,19.726-19.726,19.726h-57.452
	c-10.894,0-19.726-8.832-19.726-19.726v-88.636L42.897,211.187c-0.281,0-0.558,0.015-0.837,0.023
	c-0.163,0.005-0.327,0.006-0.489,0.014c-7.751,0.375-14.643,4.011-19.338,9.568l0.055,0.043L196.63,356.353L231.746,383.648z"/>
<path style="fill:#F8C55A;" d="M207.549,260.274c0,10.894,8.832,19.726,19.726,19.726h57.452c10.894,0,19.726-8.832,19.726-19.726
	v-88.626v-43.161h34.073c9.303,0,14.369-10.865,8.389-17.992l-80.096-95.451c-5.644-6.726-15.993-6.726-21.638,0l-80.096,95.451
	c-5.98,7.126-0.913,17.992,8.389,17.992h34.073v43.151v88.636H207.549z"/>
<path d="M14.857,499.016c0.023,0.027,0.048,0.052,0.071,0.079c0.408,0.473,0.825,0.939,1.256,1.391
	c0.022,0.023,0.045,0.047,0.067,0.07c0.434,0.454,0.88,0.896,1.334,1.325c0.034,0.032,0.068,0.065,0.102,0.098
	c0.47,0.441,0.95,0.869,1.441,1.284c0.008,0.007,0.017,0.015,0.025,0.022c0.63,0.531,1.278,1.041,1.943,1.53
	c2.01,1.478,4.158,2.744,6.411,3.784c0.009,0.004,0.018,0.008,0.027,0.012c0.588,0.271,1.183,0.526,1.784,0.765
	c0.016,0.006,0.031,0.012,0.047,0.019c0.598,0.237,1.203,0.459,1.814,0.665c0.015,0.005,0.029,0.01,0.044,0.015
	c0.613,0.206,1.232,0.396,1.857,0.57c0.012,0.003,0.025,0.007,0.037,0.011c0.624,0.173,1.254,0.33,1.888,0.47
	c0.015,0.003,0.029,0.007,0.044,0.01c0.631,0.139,1.267,0.261,1.907,0.367c0.018,0.003,0.036,0.007,0.054,0.01
	c0.633,0.104,1.27,0.19,1.911,0.261c0.025,0.003,0.05,0.007,0.076,0.01c0.645,0.07,1.293,0.123,1.943,0.159
	c0.019,0.001,0.038,0.003,0.057,0.004c0.66,0.035,1.323,0.055,1.992,0.055h0.027h425.997h0.027c0.126,0,0.251-0.009,0.377-0.01
	c0.52-0.005,1.039-0.015,1.555-0.042c0.294-0.015,0.585-0.045,0.877-0.067c0.352-0.027,0.705-0.049,1.055-0.086
	c0.315-0.033,0.628-0.079,0.941-0.12c0.323-0.042,0.647-0.081,0.968-0.132c0.327-0.052,0.65-0.114,0.975-0.175
	c0.3-0.056,0.601-0.109,0.899-0.172c0.343-0.072,0.682-0.155,1.022-0.236c0.268-0.065,0.537-0.129,0.803-0.199
	c0.369-0.098,0.736-0.204,1.101-0.313c0.221-0.066,0.442-0.132,0.661-0.202c0.407-0.13,0.811-0.268,1.213-0.411
	c0.158-0.056,0.315-0.114,0.472-0.172c0.457-0.17,0.911-0.349,1.36-0.537c0.075-0.031,0.15-0.064,0.224-0.096
	c5.164-2.2,9.826-5.562,13.581-9.926c0.161-0.187,0.306-0.385,0.452-0.583c5.296-6.409,8.482-14.622,8.482-23.566V238.234
	c0-19.336-14.893-35.25-33.808-36.897c-0.086-0.008-0.173-0.013-0.26-0.02c-0.516-0.042-1.033-0.073-1.553-0.094
	c-0.081-0.003-0.161-0.012-0.242-0.015l-155.744-37.441v-25.28h24.073c8.233,0,15.509-4.636,18.989-12.098
	s2.354-16.016-2.939-22.323l-80.096-95.45C269.885,3.141,263.149,0,256.001,0c-7.148,0-13.884,3.141-18.479,8.617l-80.096,95.451
	c-5.292,6.307-6.419,14.86-2.939,22.322c3.479,7.462,10.756,12.098,18.989,12.098h24.073v25.268L41.623,201.209
	c-0.121,0.004-0.24,0.017-0.36,0.022c-0.191,0.008-0.381,0.023-0.571,0.035c-0.486,0.029-0.97,0.063-1.452,0.111
	c-0.039,0.004-0.078,0.009-0.118,0.013c-9.5,0.97-18.286,5.562-24.527,12.948c-0.322,0.381-0.601,0.789-0.86,1.208
	c-4.877,6.274-7.791,14.145-7.791,22.688v236.719c0,9.135,3.335,17.498,8.838,23.964C14.807,498.949,14.83,498.984,14.857,499.016z
	 M445.689,445.824c-4.359-3.388-10.643-2.602-14.033,1.758c-3.389,4.36-2.602,10.643,1.758,14.033l38.707,30.087
	c-0.352,0.065-0.707,0.12-1.066,0.163c-0.118,0.014-0.235,0.037-0.353,0.049c-0.556,0.055-1.119,0.086-1.689,0.086H43.016
	c-0.196,0-0.388-0.021-0.583-0.028c-0.364-0.012-0.729-0.021-1.087-0.055c-0.448-0.044-0.891-0.115-1.331-0.194
	c-0.084-0.015-0.171-0.023-0.255-0.039l156.888-122.652l28.961,22.512c9.17,7.129,20.148,10.691,31.126,10.691
	c11.024,0,22.049-3.594,31.238-10.777l27.513-21.509l52.373,40.71c4.361,3.389,10.644,2.603,14.033-1.758
	c3.389-4.36,2.602-10.643-1.758-14.033l-48.4-37.622L485.98,236.66c0.048,0.519,0.08,1.043,0.08,1.574v236.719
	c0,0.725-0.06,1.434-0.149,2.136L445.689,445.824z M173.476,118.487c-0.227,0-0.606,0-0.863-0.55
	c-0.256-0.549-0.012-0.84,0.133-1.014l80.096-95.451c1.076-1.281,2.441-1.472,3.159-1.472c0.718,0,2.083,0.191,3.159,1.473
	l80.096,95.45c0.146,0.173,0.39,0.464,0.133,1.014s-0.636,0.55-0.863,0.55h-34.073c-5.523,0-10,4.477-10,10v30.472v20.57v21.658v20
	v39.087c0,5.363-4.363,9.726-9.726,9.726h-57.452c-5.363,0-9.726-4.363-9.726-9.726v-39.087v-20v-21.666v-20.569v-30.464
	c0-5.523-4.477-10-10-10L173.476,118.487L173.476,118.487z M42.897,221.187c0.787,0,1.571-0.093,2.335-0.276l82.114-19.724
	l70.202-16.862v16.862v20v39.087c0,16.391,13.335,29.726,29.726,29.726h57.452c16.391,0,29.726-13.335,29.726-29.726v-39.087v-20
	v-16.85l70.09,16.85l82.041,19.723c0.766,0.184,1.55,0.277,2.337,0.277c1.302,0,2.583,0.147,3.825,0.432L315.45,344.589
	l-16.248,12.702L275.654,375.7c-11.108,8.684-26.641,8.706-37.772,0.052l-24.988-19.423l-16.283-12.657L39.5,221.549l-0.021-0.016
	C40.594,221.305,41.738,221.187,42.897,221.187z M180.364,356.375L26.077,476.994c-0.081-0.67-0.134-1.349-0.134-2.041V238.234
	c0-0.613,0.036-1.218,0.1-1.815L180.364,356.375z"/>
<path d="M416.291,424.63c-0.25-0.6-0.56-1.18-0.92-1.72c-0.37-0.55-0.79-1.06-1.25-1.52s-0.97-0.88-1.52-1.25
	c-0.54-0.36-1.12-0.67-1.72-0.92c-0.61-0.25-1.24-0.44-1.87-0.57c-1.29-0.26-2.62-0.26-3.91,0c-0.64,0.13-1.27,0.32-1.87,0.57
	c-0.61,0.25-1.19,0.56-1.73,0.92c-0.55,0.37-1.06,0.79-1.52,1.25s-0.88,0.97-1.24,1.52c-0.36,0.54-0.67,1.12-0.92,1.72
	c-0.25,0.61-0.44,1.24-0.57,1.87c-0.13,0.65-0.2,1.31-0.2,1.96s0.07,1.31,0.2,1.95s0.32,1.27,0.57,1.87
	c0.25,0.61,0.56,1.19,0.92,1.73c0.36,0.55,0.78,1.06,1.24,1.52s0.97,0.88,1.52,1.24c0.54,0.36,1.12,0.67,1.73,0.92
	c0.6,0.25,1.23,0.44,1.87,0.57c0.64,0.13,1.3,0.2,1.95,0.2s1.31-0.07,1.96-0.2c0.63-0.13,1.26-0.32,1.87-0.57
	c0.6-0.25,1.18-0.56,1.72-0.92c0.55-0.36,1.06-0.78,1.52-1.24s0.88-0.97,1.25-1.52c0.36-0.54,0.67-1.12,0.92-1.73
	c0.25-0.6,0.44-1.23,0.57-1.87c0.13-0.64,0.19-1.3,0.19-1.95s-0.06-1.31-0.19-1.96C416.731,425.87,416.541,425.24,416.291,424.63z"
	/>
<g>
</g>
<g>
</g>
<g>
</g>
<g>
</g>
<g>
</g>
<g>
</g>
<g>
</g>
<g>
</g>
<g>
</g>
<g>
</g>
<g>
</g>
<g>
</g>
<g>
</g>
<g>
</g>
<g>
</g>
</svg>
