<?xml version="1.0" encoding="iso-8859-1"?>
<!-- Generator: Adobe Illustrator 19.0.0, SVG Export Plug-In . SVG Version: 6.00 Build 0)  -->
<svg version="1.1" id="Capa_1" xmlns="http://www.w3.org/2000/svg" xmlns:xlink="http://www.w3.org/1999/xlink" x="0px" y="0px"
	 viewBox="0 0 512.001 512.001" style="enable-background:new 0 0 512.001 512.001;" xml:space="preserve">
<path style="fill:#EB5664;" d="M52.421,252.049L295.14,494.767c9.665,9.665,25.335,9.665,35,0L464.967,359.94
	c9.665-9.665,9.665-25.335,0-35l-12.292-12.292L330.14,435.183c-9.665,9.665-25.335,9.665-35,0L52.421,192.464
	c-3.263-3.263-5.925-6.993-7.962-11.015l-4.335,34.783C38.48,229.429,43.018,242.645,52.421,252.049z"/>
<path style="fill:#93CA66;" d="M295.14,435.183c9.665,9.665,25.335,9.665,35,0l122.535-122.535l12.292-12.292
	c9.665-9.665,9.665-25.335,0-35L222.249,22.637c-9.403-9.403-22.62-13.941-35.816-12.296L75.313,24.188
	c-11.159,1.391-19.949,10.181-21.339,21.34l-13.848,111.12c-1.074,8.616,0.503,17.234,4.335,24.801
	c2.036,4.022,4.698,7.752,7.962,11.015L295.14,435.183z M249.208,264.925c-27.007,0-48.902-21.894-48.902-48.902
	s21.894-48.902,48.902-48.902s48.902,21.894,48.902,48.902S276.216,264.925,249.208,264.925z M94.554,64.769
	c9.385-9.385,24.602-9.385,33.987,0c9.385,9.385,9.385,24.602,0,33.987c-9.385,9.385-24.602,9.385-33.987,0
	S85.169,74.155,94.554,64.769z"/>
<g>
	<circle style="fill:#E5EAED;" cx="111.552" cy="81.761" r="24.03"/>
	<circle style="fill:#E5EAED;" cx="249.204" cy="216.023" r="48.902"/>
</g>
<path d="M45.35,259.12l242.718,242.719c6.774,6.774,15.672,10.161,24.571,10.161s17.797-3.387,24.571-10.161l134.827-134.828
	c6.563-6.563,10.177-15.289,10.177-24.571c0-9.282-3.614-18.008-10.177-24.571l-5.221-5.221l5.221-5.221
	c6.563-6.563,10.177-15.29,10.177-24.571s-3.614-18.008-10.177-24.571L229.321,15.566C217.654,3.899,201.57-1.626,185.195,0.418
	L74.076,14.265c-15.72,1.959-28.067,14.307-30.026,30.026l-13.847,111.12c-1.199,9.624,0.233,19.139,3.97,27.724l-3.97,31.859
	C28.161,231.37,33.683,247.452,45.35,259.12z M50.048,157.885l9.84-78.959l4.008-32.159c0.825-6.625,6.028-11.828,12.653-12.653
	l111.12-13.848c10.205-1.271,20.234,2.169,27.508,9.444l242.718,242.718c5.75,5.75,5.75,15.107,0,20.857l-5.221,5.221
	l-14.142,14.142L323.069,428.111c-5.75,5.75-15.107,5.751-20.858,0L223.55,349.45c-3.906-3.906-10.237-3.905-14.143,0
	c-3.905,3.905-3.905,10.237,0,14.143l78.662,78.662c6.774,6.774,15.672,10.161,24.571,10.161s17.797-3.387,24.571-10.161
	l115.464-115.464l5.22,5.22c5.75,5.751,5.75,15.107,0,20.858L323.069,487.696c-5.75,5.75-15.107,5.751-20.858,0L59.493,244.978
	c-7.274-7.274-10.717-17.3-9.444-27.508l1.466-11.768l88.416,88.416c3.905,3.904,10.237,3.904,14.143,0
	c3.905-3.905,3.905-10.237,0-14.143l-94.581-94.581c-1.813-1.813-3.387-3.797-4.71-5.912
	C50.796,173.11,49.093,165.549,50.048,157.885z"/>
<path d="M87.482,105.828c6.635,6.634,15.35,9.952,24.064,9.952c8.715,0,17.43-3.317,24.065-9.952
	c5.782-5.783,9.043-13.146,9.786-20.712c0.659-6.715-0.673-13.586-3.984-19.658c-1.519-2.785-3.447-5.405-5.801-7.759
	c-13.27-13.269-34.86-13.269-48.13,0c-4.464,4.464-7.419,9.872-8.88,15.586c-1.685,6.594-1.371,13.596,0.944,20.037
	C81.189,97.89,83.83,102.175,87.482,105.828z M101.625,71.841c0.636-0.636,1.323-1.191,2.041-1.679
	c2.37-1.611,5.124-2.424,7.882-2.424c1.618,0,3.232,0.293,4.772,0.847c1.88,0.677,3.647,1.752,5.15,3.256
	c4.298,4.298,5.204,10.708,2.749,15.915c-0.67,1.421-1.576,2.757-2.749,3.93c-5.471,5.472-14.373,5.471-19.844,0
	c-0.322-0.322-0.621-0.658-0.905-1.002C96.176,85.177,96.476,76.99,101.625,71.841z"/>
<path d="M175.434,329.344c0.54,0.36,1.12,0.67,1.73,0.92c0.6,0.25,1.23,0.44,1.87,0.57s1.3,0.19,1.95,0.19
	c0.65,0,1.31-0.06,1.95-0.19c0.64-0.13,1.27-0.32,1.87-0.57c0.61-0.25,1.19-0.56,1.73-0.92c0.55-0.37,1.06-0.79,1.52-1.25
	c1.86-1.85,2.93-4.43,2.93-7.07c0-0.65-0.07-1.3-0.2-1.95c-0.12-0.64-0.32-1.27-0.57-1.87c-0.25-0.6-0.56-1.18-0.92-1.73
	c-0.36-0.54-0.78-1.06-1.24-1.52c-0.46-0.46-0.97-0.88-1.52-1.24c-0.54-0.36-1.12-0.67-1.73-0.92c-0.6-0.25-1.23-0.44-1.87-0.57
	c-1.28-0.26-2.61-0.26-3.9,0c-0.64,0.13-1.27,0.32-1.87,0.57c-0.61,0.25-1.19,0.56-1.73,0.92c-0.55,0.36-1.06,0.78-1.52,1.24
	c-0.46,0.46-0.88,0.98-1.24,1.52c-0.36,0.55-0.67,1.13-0.92,1.73c-0.25,0.6-0.44,1.23-0.57,1.87c-0.13,0.65-0.2,1.3-0.2,1.95
	c0,2.64,1.07,5.22,2.93,7.07C174.374,328.554,174.884,328.974,175.434,329.344z"/>
<path d="M249.209,274.925c32.478,0,58.902-26.423,58.902-58.902s-26.423-58.902-58.902-58.902
	c-32.479,0-58.902,26.423-58.902,58.902S216.73,274.925,249.209,274.925z M249.209,177.122c21.45,0,38.902,17.451,38.902,38.902
	s-17.451,38.902-38.902,38.902s-38.902-17.451-38.902-38.902S227.758,177.122,249.209,177.122z"/>
<g>
</g>
<g>
</g>
<g>
</g>
<g>
</g>
<g>
</g>
<g>
</g>
<g>
</g>
<g>
</g>
<g>
</g>
<g>
</g>
<g>
</g>
<g>
</g>
<g>
</g>
<g>
</g>
<g>
</g>
</svg>
