<?xml version="1.0" encoding="iso-8859-1"?>
<!-- Generator: Adobe Illustrator 19.0.0, SVG Export Plug-In . SVG Version: 6.00 Build 0)  -->
<svg version="1.1" id="Capa_1" xmlns="http://www.w3.org/2000/svg" xmlns:xlink="http://www.w3.org/1999/xlink" x="0px" y="0px"
	 viewBox="0 0 511.998 511.998" style="enable-background:new 0 0 511.998 511.998;" xml:space="preserve">
<g>
	<path style="fill:#4CC1EB;" d="M32.462,499.875c-0.003-0.001-0.005-0.002-0.008-0.003C32.457,499.873,32.46,499.874,32.462,499.875
		z"/>
	<path style="fill:#4CC1EB;" d="M39.25,501.737c-0.169-0.023-0.338-0.044-0.506-0.071C38.911,501.692,39.081,501.713,39.25,501.737z
		"/>
	<path style="fill:#4CC1EB;" d="M489.544,492.517c-3.711,4.339-8.768,7.492-14.526,8.805c12.046-2.732,21.041-13.497,21.041-26.369
		V238.234c0-6.628-2.388-12.696-6.345-17.399L315.371,356.352L489.544,492.517z"/>
	<path style="fill:#4CC1EB;" d="M40.763,501.901c-0.212-0.017-0.424-0.031-0.635-0.053C40.338,501.87,40.551,501.884,40.763,501.901
		z"/>
	<path style="fill:#4CC1EB;" d="M37.816,501.5c-0.142-0.028-0.285-0.054-0.427-0.084C37.531,501.446,37.674,501.473,37.816,501.5z"
		/>
	<path style="fill:#4CC1EB;" d="M473.461,501.629c-0.425,0.071-0.854,0.13-1.286,0.18
		C472.607,501.759,473.036,501.7,473.461,501.629z"/>
	<path style="fill:#4CC1EB;" d="M469.941,211.211c0.163,0.005,0.327,0.006,0.49,0.014
		C470.268,211.216,470.104,211.216,469.941,211.211z"/>
	<path style="fill:#4CC1EB;" d="M36.426,501.194c-0.119-0.03-0.237-0.059-0.355-0.09C36.188,501.135,36.307,501.164,36.426,501.194z
		"/>
	<path style="fill:#4CC1EB;" d="M42.688,501.992c-0.385-0.004-0.769-0.012-1.149-0.032C41.92,501.981,42.304,501.988,42.688,501.992
		z"/>
	<path style="fill:#4CC1EB;" d="M469.012,502c0.498,0,0.992-0.016,1.483-0.042c-0.5,0.028-1.003,0.042-1.51,0.042H469.012z"/>
	<path style="fill:#4CC1EB;" d="M471.983,501.834c-0.439,0.048-0.881,0.084-1.326,0.111
		C471.102,501.919,471.544,501.882,471.983,501.834z"/>
	<path style="fill:#4CC1EB;" d="M33.75,500.38c-0.058-0.021-0.116-0.043-0.174-0.065C33.635,500.336,33.692,500.359,33.75,500.38z"
		/>
	<path style="fill:#4CC1EB;" d="M196.532,357.268l-174.3-136.264c4.961-5.996,12.458-9.816,20.848-9.816h-0.092
		c-14.938,0-27.047,12.109-27.047,27.047v236.719c0,6.73,2.464,12.881,6.531,17.614L196.532,357.268z"/>
	<path style="fill:#4CC1EB;" d="M35.071,500.82c-0.093-0.028-0.185-0.058-0.277-0.087C34.887,500.762,34.979,500.792,35.071,500.82z
		"/>
	<path style="fill:#4CC1EB;" d="M474.939,501.341c-0.436,0.098-0.875,0.184-1.319,0.26
		C474.064,501.525,474.503,501.438,474.939,501.341z"/>
	<path style="fill:#4CC1EB;" d="M489.544,492.517L315.371,356.352l-35.116,27.296c-14.734,11.453-35.367,11.424-50.068-0.07
		l-33.654-26.31L22.472,492.567l-0.016,0.013c2.705,3.144,6.123,5.654,9.998,7.292c0.003,0.001,0.005,0.002,0.008,0.003
		c0.367,0.155,0.739,0.3,1.115,0.44c0.058,0.021,0.115,0.044,0.174,0.065c0.345,0.125,0.693,0.242,1.044,0.353
		c0.092,0.029,0.184,0.059,0.277,0.087c0.33,0.101,0.663,0.195,0.999,0.284c0.118,0.031,0.237,0.061,0.355,0.09
		c0.319,0.079,0.64,0.154,0.963,0.222c0.142,0.03,0.284,0.056,0.427,0.084c0.308,0.059,0.616,0.117,0.928,0.166
		c0.168,0.026,0.337,0.047,0.506,0.071c0.292,0.04,0.584,0.081,0.879,0.112c0.21,0.022,0.423,0.036,0.635,0.053
		c0.259,0.021,0.516,0.045,0.777,0.059c0.381,0.02,0.764,0.028,1.149,0.032c0.09,0,0.18,0.007,0.271,0.007h0.027h425.997
		c0.507,0,1.01-0.015,1.51-0.042c0.054-0.003,0.107-0.009,0.161-0.012c0.445-0.027,0.887-0.063,1.326-0.111
		c0.065-0.007,0.128-0.017,0.193-0.024c0.431-0.051,0.86-0.109,1.286-0.18c0.053-0.009,0.106-0.019,0.159-0.028
		c0.443-0.077,0.883-0.162,1.319-0.26c0.026-0.006,0.052-0.012,0.079-0.018C480.776,500.009,485.833,496.856,489.544,492.517z"/>
</g>
<path style="fill:#238FB4;" d="M22.232,221.004l174.301,136.265l33.654,26.31c14.702,11.494,35.335,11.522,50.068,0.07
	l35.116-27.296l174.342-135.518l0.055-0.043c-4.695-5.556-11.587-9.192-19.338-9.568c-0.162-0.008-0.326-0.009-0.49-0.014
	c-0.279-0.009-0.556-0.023-0.837-0.023l-123.818-29.741l-78.466,93.509c-5.644,6.726-15.993,6.726-21.638,0l-78.453-93.494
	L43.08,211.187C34.69,211.187,27.193,215.008,22.232,221.004z"/>
<path style="fill:#EB5664;" d="M245.181,274.955c5.644,6.726,15.993,6.726,21.638,0l78.466-93.509l1.629-1.941
	c5.98-7.126,0.913-17.992-8.39-17.992h-34.073V29.726c0-10.894-8.832-19.726-19.726-19.726h-57.452
	c-10.894,0-19.726,8.832-19.726,19.726v131.787h-34.073c-9.303,0-14.369,10.865-8.389,17.992l1.642,1.957L245.181,274.955z"/>
<path d="M14.875,499.102c3.755,4.364,8.417,7.725,13.581,9.926c0.075,0.032,0.149,0.064,0.224,0.096
	c0.45,0.188,0.903,0.367,1.36,0.537c0.157,0.058,0.314,0.116,0.472,0.172c0.402,0.144,0.806,0.281,1.213,0.411
	c0.219,0.07,0.44,0.136,0.661,0.202c0.366,0.109,0.732,0.216,1.101,0.313c0.267,0.071,0.535,0.135,0.803,0.199
	c0.34,0.082,0.679,0.164,1.022,0.236c0.298,0.063,0.599,0.117,0.899,0.172c0.325,0.06,0.648,0.123,0.975,0.175
	c0.321,0.051,0.645,0.09,0.968,0.132c0.314,0.041,0.626,0.087,0.941,0.12c0.35,0.037,0.703,0.059,1.055,0.086
	c0.293,0.022,0.584,0.052,0.877,0.067c0.517,0.027,1.036,0.037,1.555,0.042c0.126,0.001,0.251,0.01,0.377,0.01h0.027h425.998h0.026
	c0.668,0,1.332-0.02,1.991-0.055c0.023-0.001,0.047-0.004,0.07-0.005c0.646-0.036,1.29-0.088,1.93-0.158
	c0.029-0.003,0.058-0.008,0.087-0.011c0.636-0.071,1.27-0.156,1.899-0.26c0.022-0.004,0.043-0.008,0.065-0.012
	c0.636-0.105,1.268-0.227,1.895-0.365c0.018-0.004,0.036-0.008,0.054-0.012c0.63-0.14,1.257-0.295,1.877-0.467
	c0.016-0.004,0.031-0.009,0.047-0.013c0.621-0.173,1.236-0.362,1.846-0.567c0.018-0.006,0.035-0.012,0.053-0.018
	c0.608-0.205,1.21-0.426,1.806-0.662c0.017-0.007,0.035-0.014,0.052-0.021c0.599-0.239,1.192-0.493,1.778-0.763
	c0.011-0.005,0.022-0.01,0.033-0.015c2.252-1.04,4.4-2.307,6.411-3.784c0.665-0.489,1.313-0.999,1.943-1.53
	c0.006-0.005,0.011-0.01,0.017-0.015c0.494-0.417,0.977-0.848,1.45-1.292c0.032-0.03,0.063-0.06,0.094-0.09
	c0.458-0.433,0.907-0.878,1.345-1.336c0.019-0.019,0.037-0.039,0.056-0.059c0.434-0.455,0.854-0.924,1.265-1.4
	c0.022-0.026,0.046-0.049,0.068-0.075c0.026-0.03,0.047-0.064,0.073-0.094c5.505-6.466,8.842-14.831,8.842-23.969V238.234
	c0-8.543-2.915-16.414-7.791-22.688c-0.259-0.419-0.538-0.827-0.86-1.208c-6.242-7.387-15.027-11.979-24.527-12.948
	c-0.04-0.004-0.079-0.009-0.118-0.013c-0.482-0.048-0.967-0.082-1.452-0.111c-0.19-0.011-0.38-0.026-0.571-0.035
	c-0.12-0.005-0.24-0.018-0.36-0.022l-110.982-26.658c0.363-3.657-0.241-7.42-1.883-10.941c-3.479-7.462-10.755-12.098-18.988-12.098
	h-24.073V29.726C314.452,13.335,301.117,0,284.727,0h-57.453c-16.391,0-29.726,13.335-29.726,29.726v121.787h-24.073
	c-8.233,0-15.509,4.635-18.989,12.097c-1.645,3.528-2.248,7.298-1.881,10.961L41.804,201.208c-0.081,0.003-0.161,0.011-0.242,0.015
	c-0.519,0.021-1.037,0.052-1.553,0.094c-0.086,0.007-0.173,0.012-0.26,0.02c-18.916,1.647-33.808,17.561-33.808,36.897v236.719
	c0,8.944,3.186,17.157,8.482,23.566C14.57,498.716,14.714,498.914,14.875,499.102z M470.656,491.917
	c-0.365,0.035-0.737,0.045-1.109,0.056c-0.188,0.006-0.374,0.027-0.563,0.027H42.988c-0.57,0-1.133-0.031-1.689-0.086
	c-0.119-0.012-0.235-0.035-0.353-0.049c-0.359-0.043-0.714-0.098-1.066-0.163l38.707-30.087c4.36-3.39,5.147-9.672,1.758-14.033
	c-3.39-4.361-9.672-5.147-14.033-1.758L26.09,477.089c-0.088-0.701-0.149-1.411-0.149-2.136V238.234c0-0.531,0.032-1.055,0.08-1.574
	l154.245,120.586l-48.4,37.622c-4.36,3.39-5.147,9.672-1.758,14.033c3.391,4.361,9.672,5.147,14.033,1.758l52.373-40.71
	l27.513,21.509c9.19,7.185,20.213,10.777,31.238,10.777c10.977,0,21.957-3.563,31.126-10.691l28.962-22.512l156.889,122.652
	c-0.09,0.017-0.183,0.026-0.274,0.042C471.534,491.803,471.098,491.873,470.656,491.917z M485.959,236.419
	c0.063,0.597,0.1,1.202,0.1,1.815v236.719c0,0.692-0.054,1.37-0.134,2.041L331.636,356.375L485.959,236.419z M172.613,172.063
	c0.256-0.55,0.636-0.55,0.862-0.55h34.073c5.523,0,10-4.477,10-10v-2.554V29.726c0-5.363,4.363-9.726,9.726-9.726h57.453
	c5.362,0,9.726,4.363,9.726,9.726v129.225v2.561c0,5.523,4.478,10,10,10h34.073c0.227,0,0.606,0,0.862,0.549
	c0.256,0.55,0.012,0.841-0.134,1.015l-12.016,14.319l-11.573,13.791l-16.782,20l-39.724,47.34C258.084,269.809,256.718,270,256,270
	s-2.083-0.191-3.159-1.473l-39.725-47.34l-16.783-20l-11.562-13.779l-12.026-14.332C172.6,172.903,172.356,172.612,172.613,172.063z
	 M43.08,221.187c0.787,0,1.572-0.093,2.337-0.277l82.041-19.723l35.588-8.556l7.179,8.556l16.782,20l50.513,60.196
	C242.116,286.859,248.852,290,256,290c7.148,0,13.885-3.141,18.479-8.617l50.512-60.196l16.783-20l7.193-8.572l35.687,8.572
	l82.114,19.724c0.766,0.184,1.549,0.276,2.336,0.276c1.159,0,2.304,0.118,3.418,0.346l-0.021,0.016L315.389,343.673l-16.283,12.657
	l-24.989,19.424c-11.132,8.653-26.665,8.631-37.771-0.053l-23.548-18.409L196.55,344.59L39.255,221.619
	C40.496,221.334,41.778,221.187,43.08,221.187z"/>
<path d="M114.18,424.63c-0.25-0.6-0.56-1.18-0.92-1.72c-0.36-0.55-0.78-1.06-1.24-1.52c-0.46-0.46-0.97-0.88-1.52-1.25
	c-0.54-0.36-1.12-0.67-1.73-0.92c-0.6-0.25-1.23-0.44-1.87-0.57c-1.29-0.26-2.62-0.26-3.9,0c-0.64,0.13-1.27,0.32-1.88,0.57
	c-0.6,0.25-1.18,0.56-1.72,0.92c-0.55,0.37-1.06,0.79-1.52,1.25c-0.46,0.46-0.88,0.97-1.25,1.52c-0.36,0.54-0.67,1.12-0.92,1.72
	c-0.25,0.61-0.44,1.24-0.57,1.87c-0.13,0.65-0.19,1.31-0.19,1.96s0.06,1.31,0.19,1.95c0.13,0.64,0.32,1.27,0.57,1.87
	c0.25,0.61,0.56,1.19,0.92,1.73c0.37,0.55,0.79,1.06,1.25,1.52c0.46,0.46,0.97,0.88,1.52,1.24c0.54,0.36,1.12,0.67,1.72,0.92
	c0.61,0.25,1.24,0.44,1.88,0.57s1.3,0.2,1.95,0.2s1.31-0.07,1.95-0.2s1.27-0.32,1.87-0.57c0.61-0.25,1.19-0.56,1.73-0.92
	c0.55-0.36,1.06-0.78,1.52-1.24c0.46-0.46,0.88-0.97,1.24-1.52c0.36-0.54,0.67-1.12,0.92-1.73c0.25-0.6,0.44-1.23,0.57-1.87
	c0.13-0.64,0.2-1.3,0.2-1.95s-0.07-1.31-0.2-1.96C114.62,425.87,114.43,425.24,114.18,424.63z"/>
<g>
</g>
<g>
</g>
<g>
</g>
<g>
</g>
<g>
</g>
<g>
</g>
<g>
</g>
<g>
</g>
<g>
</g>
<g>
</g>
<g>
</g>
<g>
</g>
<g>
</g>
<g>
</g>
<g>
</g>
</svg>
