<?xml version="1.0" encoding="iso-8859-1"?>
<!-- Generator: Adobe Illustrator 19.0.0, SVG Export Plug-In . SVG Version: 6.00 Build 0)  -->
<svg version="1.1" id="Capa_1" xmlns="http://www.w3.org/2000/svg" xmlns:xlink="http://www.w3.org/1999/xlink" x="0px" y="0px"
	 viewBox="0 0 512.002 512.002" style="enable-background:new 0 0 512.002 512.002;" xml:space="preserve">
<path style="fill:#93CA66;" d="M201.46,296.371c-11.581,0-22.903-0.86-33.884-2.476c-9.807,16.863-15.276,35.603-15.276,55.344
	c0,73.784,76.324,133.598,170.475,133.598c12.778,0,25.224-1.11,37.199-3.199c30.364,21.107,63.441,23.507,85.226,21.997
	c7.764-0.538,10.438-10.561,4.026-14.973c-12.926-8.894-21.286-19.04-26.596-29.141c42.782-24.272,70.62-63.727,70.62-108.282
	c0-62.801-55.298-115.471-129.813-129.763C332.92,265.178,271.843,296.371,201.46,296.371z M415.001,351.455
	c12.518,0,22.667,10.148,22.667,22.667c0,12.518-10.148,22.667-22.667,22.667s-22.667-10.148-22.667-22.667
	S402.483,351.455,415.001,351.455z M243.001,396.788c-12.518,0-22.667-10.148-22.667-22.667c0-12.518,10.148-22.667,22.667-22.667
	s22.667,10.148,22.667,22.667C265.668,386.64,255.52,396.788,243.001,396.788z M329.001,396.788
	c-12.518,0-22.667-10.148-22.667-22.667c0-12.518,10.148-22.667,22.667-22.667s22.667,10.148,22.667,22.667
	C351.668,386.64,341.52,396.788,329.001,396.788z"/>
<path style="fill:#F8C55A;" d="M94.439,269.238c-5.876,11.179-15.239,22.409-29.875,32.16c-6.449,4.297-3.828,14.365,3.897,14.985
	c23.3,1.872,59.746-0.234,93.131-23.441c1.982,0.346,3.979,0.657,5.984,0.952c10.982,1.616,22.304,2.476,33.884,2.476
	c70.383,0,131.46-31.193,161.978-76.896c13.236-19.821,20.732-42.368,20.732-66.29C384.17,74.106,302.368,10,201.46,10
	C100.553,10,18.751,74.106,18.751,153.185C18.751,200.938,48.587,243.224,94.439,269.238z M283.668,159.455
	c12.518,0,22.667,10.148,22.667,22.667c0,12.518-10.148,22.667-22.667,22.667c-12.519,0-22.667-10.148-22.667-22.667
	C261.001,169.603,271.149,159.455,283.668,159.455z M197.668,159.455c12.518,0,22.667,10.148,22.667,22.667
	c0,12.518-10.148,22.667-22.667,22.667s-22.667-10.148-22.667-22.667C175.001,169.603,185.149,159.455,197.668,159.455z
	 M111.668,159.455c12.518,0,22.667,10.148,22.667,22.667c0,12.518-10.148,22.667-22.667,22.667s-22.667-10.148-22.667-22.667
	C89.001,169.603,99.149,159.455,111.668,159.455z"/>
<g>
	<circle style="fill:#E5EAED;" cx="111.67" cy="182.12" r="22.667"/>
	<circle style="fill:#E5EAED;" cx="197.67" cy="182.12" r="22.667"/>
	<circle style="fill:#E5EAED;" cx="283.67" cy="182.12" r="22.667"/>
	<circle style="fill:#E5EAED;" cx="243" cy="374.12" r="22.667"/>
	<circle style="fill:#E5EAED;" cx="329" cy="374.12" r="22.667"/>
	<circle style="fill:#E5EAED;" cx="415" cy="374.12" r="22.667"/>
</g>
<path d="M80.646,272.592c-5.512,7.708-12.755,14.573-21.627,20.484c-6.532,4.352-9.478,12.084-7.503,19.697
	c1.976,7.619,8.313,12.949,16.144,13.578c4.353,0.35,9.052,0.565,14.032,0.565c19.421,0,43.058-3.283,66.599-14.657
	c-3.944,11.909-5.99,24.311-5.99,36.98c0,38.825,19.094,75.169,53.763,102.339c33.95,26.606,78.951,41.259,126.713,41.259
	c11.72,0,23.445-0.903,34.914-2.688c26.735,17.369,54.933,21.853,76.907,21.853c3.984,0,7.766-0.147,11.296-0.392
	c7.82-0.542,14.208-5.776,16.272-13.334c2.075-7.594-0.778-15.387-7.27-19.853c-7.466-5.137-13.639-11.031-18.437-17.591
	c42.019-27.131,66.792-68.209,66.792-111.594c0-38.825-19.094-75.169-53.763-102.339c-20.146-15.788-44.183-27.366-70.379-34.172
	c9.867-18.641,15.059-38.832,15.059-59.542c0-41.386-20.365-80.138-57.346-109.118C300.563,15.65,252.49,0,201.46,0
	S102.359,15.65,66.097,44.067C29.117,73.048,8.751,111.8,8.751,153.186c0,25.004,7.721,49.806,22.328,71.724
	C43.284,243.222,60.296,259.561,80.646,272.592z M201.46,20c95.232,0,172.709,59.747,172.709,133.186
	c0,19.248-5.403,38.056-15.612,55.261c-3.784,6.378-8.231,12.534-13.308,18.412c-4.62,5.347-9.754,10.466-15.397,15.305
	c-1.08,0.926-2.175,1.839-3.287,2.741c-4.289,3.479-4.947,9.776-1.469,14.065c3.479,4.29,9.776,4.947,14.066,1.469
	c1.253-1.016,2.488-2.046,3.706-3.091c9.609-8.239,17.955-17.21,24.974-26.738c66.616,15.038,115.408,62.524,115.408,118.629
	c0,39.068-24.507,76.295-65.555,99.584c-4.695,2.664-6.429,8.573-3.917,13.351c5.965,11.348,14.584,21.336,25.657,29.747
	c-20.355,0.695-48.17-2.708-73.754-20.493c-1.687-1.172-3.681-1.789-5.708-1.789c-0.572,0-1.147,0.049-1.719,0.149
	c-11.604,2.024-23.542,3.05-35.48,3.05c-88.486,0-160.476-55.446-160.476-123.598c0-15.69,3.824-30.703,10.777-44.524
	c9.383,1.1,18.884,1.656,28.383,1.656c19.325,0,38.401-2.262,56.7-6.722c5.366-1.308,8.655-6.718,7.348-12.083
	c-1.309-5.366-6.717-8.658-12.084-7.347c-16.75,4.083-34.233,6.153-51.964,6.153c-5.453,0-10.905-0.211-16.33-0.607
	c-7.346-0.536-14.642-1.421-21.819-2.672c-0.272-0.047-0.544-0.077-0.817-0.102c-2.336-0.212-4.673,0.395-6.61,1.742
	c-28.307,19.678-59.102,23.07-81.511,22.011c12.567-9.198,22.282-20.23,28.918-32.851c2.512-4.778,0.778-10.687-3.917-13.351
	c-44.222-25.089-70.623-65.222-70.623-107.354C28.751,79.747,106.228,20,201.46,20z"/>
<path d="M111.668,214.788c18.012,0,32.666-14.654,32.666-32.667c0-18.012-14.654-32.667-32.666-32.667
	c-18.013,0-32.667,14.654-32.667,32.667S93.656,214.788,111.668,214.788z M111.668,169.455c6.984,0,12.666,5.682,12.666,12.667
	s-5.682,12.667-12.666,12.667s-12.667-5.683-12.667-12.667S104.684,169.455,111.668,169.455z"/>
<path d="M197.668,214.788c18.012,0,32.666-14.654,32.666-32.667c0-18.012-14.654-32.667-32.666-32.667
	c-18.013,0-32.667,14.654-32.667,32.667S179.656,214.788,197.668,214.788z M197.668,169.455c6.984,0,12.666,5.682,12.666,12.667
	s-5.682,12.667-12.666,12.667s-12.667-5.683-12.667-12.667S190.684,169.455,197.668,169.455z"/>
<path d="M270.086,211.819c4.139,1.901,8.737,2.969,13.582,2.969c8.449,0,16.159-3.225,21.964-8.508
	c6.571-5.979,10.702-14.596,10.702-24.159c0-18.012-14.654-32.667-32.666-32.667c-18.013,0-32.667,14.654-32.667,32.667
	C251.001,195.289,258.837,206.654,270.086,211.819z M283.668,169.455c6.984,0,12.666,5.682,12.666,12.667
	s-5.682,12.667-12.666,12.667s-12.667-5.683-12.667-12.667S276.684,169.455,283.668,169.455z"/>
<path d="M298.301,284.62c0.65,0,1.31-0.06,1.95-0.19s1.27-0.32,1.87-0.57c0.609-0.25,1.189-0.56,1.729-0.92
	c0.55-0.37,1.061-0.78,1.521-1.24c0.46-0.47,0.88-0.98,1.239-1.53c0.36-0.54,0.671-1.12,0.921-1.72c0.25-0.61,0.449-1.23,0.569-1.87
	c0.13-0.65,0.2-1.31,0.2-1.96c0-2.63-1.07-5.2-2.93-7.07c-0.46-0.46-0.971-0.88-1.521-1.24c-0.54-0.36-1.12-0.67-1.729-0.92
	c-0.601-0.25-1.23-0.44-1.87-0.57c-1.29-0.26-2.62-0.26-3.91,0c-0.63,0.13-1.26,0.32-1.87,0.57c-0.6,0.25-1.18,0.56-1.72,0.92
	c-0.55,0.36-1.061,0.78-1.521,1.24c-1.859,1.86-2.93,4.44-2.93,7.07c0,0.65,0.06,1.31,0.19,1.96c0.13,0.64,0.319,1.26,0.569,1.87
	c0.25,0.6,0.561,1.18,0.92,1.72c0.37,0.55,0.79,1.06,1.25,1.53c0.46,0.46,0.971,0.87,1.521,1.24c0.54,0.36,1.12,0.67,1.72,0.92
	c0.61,0.25,1.24,0.44,1.87,0.57C296.991,284.56,297.651,284.62,298.301,284.62z"/>
<path d="M243.001,341.455c-18.013,0-32.667,14.654-32.667,32.667s14.654,32.667,32.667,32.667s32.667-14.654,32.667-32.667
	C275.668,356.109,261.014,341.455,243.001,341.455z M243.001,386.788c-6.984,0-12.667-5.683-12.667-12.667
	s5.683-12.667,12.667-12.667s12.667,5.682,12.667,12.667S249.986,386.788,243.001,386.788z"/>
<path d="M296.334,374.121c0,18.013,14.654,32.667,32.667,32.667s32.667-14.654,32.667-32.667c0-18.012-14.654-32.667-32.667-32.667
	S296.334,356.109,296.334,374.121z M329.001,361.455c6.984,0,12.667,5.682,12.667,12.667s-5.683,12.667-12.667,12.667
	s-12.667-5.683-12.667-12.667S322.017,361.455,329.001,361.455z"/>
<path d="M415.001,406.788c18.013,0,32.667-14.654,32.667-32.667c0-18.012-14.654-32.667-32.667-32.667s-32.667,14.654-32.667,32.667
	S396.989,406.788,415.001,406.788z M415.001,361.455c6.984,0,12.667,5.682,12.667,12.667s-5.683,12.667-12.667,12.667
	s-12.667-5.683-12.667-12.667S408.017,361.455,415.001,361.455z"/>
<g>
</g>
<g>
</g>
<g>
</g>
<g>
</g>
<g>
</g>
<g>
</g>
<g>
</g>
<g>
</g>
<g>
</g>
<g>
</g>
<g>
</g>
<g>
</g>
<g>
</g>
<g>
</g>
<g>
</g>
</svg>
