<?xml version="1.0" encoding="iso-8859-1"?>
<!-- Generator: Adobe Illustrator 19.0.0, SVG Export Plug-In . SVG Version: 6.00 Build 0)  -->
<svg version="1.1" id="Capa_1" xmlns="http://www.w3.org/2000/svg" xmlns:xlink="http://www.w3.org/1999/xlink" x="0px" y="0px"
	 viewBox="0 0 512 512" style="enable-background:new 0 0 512 512;" xml:space="preserve">
<path style="fill:#93CA66;" d="M269.23,201.973l78.545-93.753c4.772-5.696,4.022-14.182-1.673-18.954l-71.591-59.978
	c-5.696-4.772-14.182-4.022-18.953,1.673L147.506,159.932c-4.772,5.696-4.023,14.182,1.673,18.953l27.557,23.087h10.377h82.116
	V201.973z"/>
<polygon style="fill:#EB5664;" points="82.287,201.973 105.916,459.245 278.525,459.245 302.154,201.973 269.23,201.973 
	187.114,201.973 176.737,201.973 134.701,201.973 "/>
<path style="fill:#E5EAED;" d="M105.916,459.245l2.294,24.98c0.925,10.069,9.37,17.774,19.481,17.774H138.9h44.012h73.836
	c10.111,0,18.557-7.705,19.481-17.774l2.294-24.98l0,0H105.916L105.916,459.245z"/>
<path d="M62.129,191.972c-5.524,0-10.001,4.478-10.001,10.001s4.478,10.001,10.001,10.001h11.033L98.251,485.14
	c1.406,15.314,14.064,26.86,29.441,26.86h129.056c15.377,0,28.034-11.547,29.441-26.86l25.089-273.166h11.033
	c5.524,0,10.001-4.478,10.001-10.001s-4.478-10.001-10.001-10.001h-20.158h-11.498l64.786-77.329c0.519-0.619,1-1.257,1.444-1.912
	c0.001-0.001,0.002-0.003,0.003-0.004c0.363-0.536,0.701-1.083,1.014-1.639c0.253-0.446,0.477-0.905,0.699-1.365
	c0.052-0.108,0.112-0.212,0.162-0.32c0.235-0.507,0.442-1.024,0.639-1.545c0.024-0.063,0.052-0.124,0.075-0.186
	c0.195-0.528,0.363-1.065,0.519-1.606c0.016-0.057,0.036-0.113,0.052-0.17c0.148-0.53,0.271-1.067,0.382-1.607
	c0.014-0.071,0.032-0.142,0.046-0.214c0.101-0.519,0.179-1.043,0.244-1.569c0.012-0.099,0.026-0.197,0.037-0.295
	c0.055-0.5,0.093-1.003,0.116-1.508c0.006-0.131,0.012-0.262,0.016-0.392c0.014-0.481,0.014-0.963-0.001-1.447
	c-0.005-0.153-0.013-0.305-0.021-0.457c-0.015-0.295-0.014-0.589-0.04-0.886c-0.018-0.209-0.054-0.413-0.078-0.621
	c-0.005-0.041-0.01-0.082-0.015-0.124c-0.068-0.569-0.156-1.133-0.265-1.69c-0.006-0.029-0.012-0.059-0.018-0.088
	c-0.114-0.575-0.249-1.144-0.404-1.705c-0.005-0.018-0.01-0.035-0.015-0.053c-0.16-0.573-0.341-1.137-0.543-1.692
	c-0.006-0.016-0.012-0.033-0.018-0.049c-0.202-0.552-0.425-1.096-0.668-1.63c-0.012-0.027-0.024-0.055-0.036-0.082
	c-0.239-0.519-0.496-1.029-0.773-1.529c-0.023-0.043-0.045-0.086-0.068-0.129c-0.273-0.487-0.564-0.963-0.872-1.429
	c-0.034-0.052-0.064-0.105-0.098-0.156c-0.343-0.511-0.703-1.012-1.088-1.497c-0.012-0.015-0.022-0.032-0.034-0.047
	c-0.415-0.522-0.867-1.022-1.331-1.513c-0.081-0.086-0.151-0.178-0.234-0.263c-0.548-0.563-1.129-1.103-1.744-1.618l-71.589-59.979
	c-9.913-8.306-24.736-6.998-33.043,2.916L139.84,153.509c-4.023,4.803-5.937,10.884-5.386,17.126c0.069,0.78,0.175,1.551,0.318,2.31
	c0.999,5.318,3.781,10.086,7.984,13.607l6.469,5.42H82.287L62.129,191.972L62.129,191.972z M262.854,37.825l-14.386,81.77
	c0,0.003-0.001,0.005-0.002,0.007l-0.306,1.741l0,0c-1.246,7.08-6.215,13.01-12.968,15.476l-0.243,0.089l-79.407,29.006
	L262.854,37.825z M245.858,153.991c0.217-0.106,0.427-0.225,0.642-0.335c0.255-0.13,0.51-0.262,0.762-0.397
	c0.504-0.271,0.999-0.554,1.489-0.846c0.207-0.123,0.418-0.241,0.622-0.368c0.681-0.422,1.351-0.859,2.003-1.319
	c0.084-0.059,0.164-0.124,0.248-0.184c0.567-0.406,1.123-0.827,1.668-1.261c0.209-0.167,0.411-0.34,0.616-0.51
	c0.416-0.346,0.826-0.698,1.227-1.059c0.214-0.193,0.427-0.388,0.637-0.586c0.398-0.374,0.786-0.758,1.168-1.148
	c0.181-0.184,0.365-0.365,0.542-0.553c0.53-0.562,1.046-1.135,1.543-1.726c0.028-0.033,0.056-0.066,0.083-0.1
	c0.494-0.591,0.967-1.2,1.426-1.818c0.156-0.21,0.303-0.425,0.455-0.637c0.315-0.442,0.623-0.888,0.92-1.342
	c0.16-0.244,0.316-0.49,0.471-0.738c0.283-0.454,0.555-0.915,0.82-1.38c0.135-0.236,0.272-0.471,0.402-0.71
	c0.327-0.601,0.637-1.212,0.933-1.831c0.05-0.103,0.105-0.204,0.154-0.307c0.337-0.72,0.649-1.453,0.944-2.195
	c0.091-0.229,0.172-0.462,0.259-0.694c0.199-0.528,0.389-1.059,0.566-1.597c0.09-0.275,0.176-0.552,0.261-0.83
	c0.07-0.229,0.149-0.454,0.215-0.685l72.804-26.594l-75.178,89.734h-25.386L245.858,153.991z M281.36,48.075l45.045,37.739
	L271.17,105.99L281.36,48.075z M168.875,182.34l55.236-20.176l-5.245,29.81h-38.494L168.875,182.34z M173.101,211.974h31.147h11.099
	h20.309h12.147l0,0h26.094h17.294L269.4,449.244h-7.401c-5.524,0-10.001,4.478-10.001,10.001c0,5.524,4.478,10.001,10.001,10.001
	h5.564l-1.292,14.065c-0.455,4.953-4.549,8.688-9.522,8.688H127.692c-4.974,0-9.067-3.734-9.522-8.688l-1.292-14.065h65.112
	c5.524,0,10.001-4.478,10.001-10.001c0-5.524-4.478-10.001-10.001-10.001H115.04L93.248,211.974H173.101z"/>
<path d="M458.98,30.271c2.277-5.033,0.043-10.958-4.989-13.235C405.589-4.865,370.474-1.683,349.538,4.845
	c-23.555,7.343-35.306,20.567-35.795,21.128c-3.634,4.159-3.234,10.508,0.925,14.143c1.904,1.664,4.256,2.482,6.594,2.482
	c2.769,0,5.522-1.149,7.492-3.404c0.091-0.101,9.302-10.125,27.964-15.624c25.036-7.376,55.821-3.334,89.028,11.69
	C450.776,37.535,456.703,35.302,458.98,30.271z"/>
<path d="M413.46,59.739c2.206-5.064-0.11-10.957-5.174-13.164c-28.073-12.233-56.965,3.937-58.181,4.632
	c-4.784,2.731-6.441,8.807-3.728,13.602c1.838,3.248,5.229,5.07,8.718,5.07c1.662,0,3.345-0.413,4.896-1.282
	c0.214-0.12,21.537-11.861,40.306-3.683C405.358,67.12,411.253,64.805,413.46,59.739z"/>
<path d="M192.221,425.738c5.524,0,10.001-4.478,10.001-10.001V254.11c0-5.524-4.478-10.001-10.001-10.001
	s-10.001,4.478-10.001,10.001v161.625C182.219,421.259,186.697,425.738,192.221,425.738z"/>
<path d="M131.337,420.235c0.434,5.224,4.807,9.175,9.956,9.175c0.277,0,0.557-0.011,0.838-0.035c5.505-0.457,9.597-5.29,9.14-10.793
	l-14.173-170.818c-0.457-5.505-5.295-9.599-10.793-9.14c-5.505,0.457-9.597,5.29-9.14,10.793L131.337,420.235z"/>
<path d="M242.309,429.375c0.281,0.023,0.56,0.035,0.838,0.035c5.149,0,9.522-3.951,9.956-9.175l14.173-170.818
	c0.457-5.505-3.635-10.337-9.14-10.793c-5.49-0.454-10.336,3.635-10.793,9.14L233.17,418.582
	C232.712,424.087,236.805,428.919,242.309,429.375z"/>
<path d="M212.763,463.075c0.25,0.6,0.56,1.18,0.92,1.72c0.36,0.55,0.78,1.06,1.24,1.52c0.46,0.46,0.97,0.88,1.52,1.24
	c0.54,0.37,1.12,0.67,1.73,0.92c0.6,0.25,1.23,0.45,1.87,0.57c0.64,0.13,1.3,0.2,1.95,0.2s1.31-0.07,1.95-0.2
	c0.64-0.12,1.27-0.32,1.88-0.57c0.6-0.25,1.18-0.55,1.72-0.92c0.55-0.36,1.06-0.78,1.52-1.24c0.46-0.46,0.88-0.97,1.24-1.52
	c0.36-0.54,0.67-1.12,0.92-1.72c0.25-0.61,0.45-1.24,0.57-1.87c0.13-0.65,0.2-1.31,0.2-1.96c0-0.65-0.07-1.31-0.2-1.95
	c-0.12-0.64-0.32-1.27-0.57-1.87c-0.25-0.61-0.56-1.19-0.92-1.73c-0.36-0.55-0.78-1.06-1.24-1.52c-0.46-0.46-0.97-0.88-1.52-1.24
	c-0.54-0.36-1.12-0.67-1.72-0.92c-0.61-0.25-1.24-0.44-1.88-0.57c-1.28-0.26-2.61-0.26-3.9,0c-0.64,0.13-1.27,0.32-1.87,0.57
	c-0.61,0.25-1.19,0.56-1.73,0.92c-0.55,0.36-1.06,0.78-1.52,1.24c-0.46,0.46-0.88,0.97-1.24,1.52c-0.36,0.54-0.67,1.12-0.92,1.73
	c-0.25,0.6-0.45,1.23-0.57,1.87c-0.13,0.64-0.2,1.3-0.2,1.95c0,0.65,0.07,1.31,0.2,1.96
	C212.313,461.834,212.513,462.464,212.763,463.075z"/>
<g>
</g>
<g>
</g>
<g>
</g>
<g>
</g>
<g>
</g>
<g>
</g>
<g>
</g>
<g>
</g>
<g>
</g>
<g>
</g>
<g>
</g>
<g>
</g>
<g>
</g>
<g>
</g>
<g>
</g>
</svg>
