<?xml version="1.0" encoding="iso-8859-1"?>
<!-- Generator: Adobe Illustrator 19.0.0, SVG Export Plug-In . SVG Version: 6.00 Build 0)  -->
<svg version="1.1" id="Capa_1" xmlns="http://www.w3.org/2000/svg" xmlns:xlink="http://www.w3.org/1999/xlink" x="0px" y="0px"
	 viewBox="0 0 512.002 512.002" style="enable-background:new 0 0 512.002 512.002;" xml:space="preserve">
<g>
	<path style="fill:#93CA66;" d="M157.858,185.091c0.138-0.116,0.279-0.228,0.419-0.341
		C158.137,184.863,157.996,184.976,157.858,185.091z"/>
	<path style="fill:#93CA66;" d="M498.549,192.269c0.51,0.894,0.975,1.817,1.38,2.773
		C499.525,194.086,499.059,193.163,498.549,192.269z"/>
	<path style="fill:#93CA66;" d="M475.644,178.945c7.278,0,13.867,2.95,18.636,7.719
		C489.511,181.895,482.922,178.945,475.644,178.945H174.77c-2.528,0-4.97,0.363-7.284,1.028c2.314-0.664,4.756-1.028,7.284-1.028
		H475.644z"/>
	<path style="fill:#93CA66;" d="M164.308,181.108c0.655-0.284,1.325-0.538,2.006-0.769
		C165.633,180.57,164.963,180.825,164.308,181.108z"/>
	<path style="fill:#93CA66;" d="M283.214,293.138l-134.799-87.837l-1.051,25.35c-0.305,7.356-6.358,13.163-13.72,13.163H35.849
		c-8.493,0-15.377,6.885-15.377,15.377c0,8.492,6.885,15.378,15.377,15.378h88.332c11.653,0,20.961,9.702,20.478,21.345l0,0
		c-0.455,10.98-9.489,19.647-20.478,19.647h-23.008c-8.493,0-15.377,6.885-15.377,15.377l0,0c0,8.493,6.885,15.377,15.377,15.377
		h27.085c7.807,0,14.043,6.5,13.72,14.301l-1.145,27.635c0,14.556,11.8,26.356,26.356,26.356h300.874
		c14.556,0,26.356-11.8,26.356-26.356L502,205.301l-149.126,89.18C331.305,307.38,304.27,306.858,283.214,293.138z"/>
	<path style="fill:#93CA66;" d="M500.505,196.548c0.25,0.709,0.475,1.43,0.665,2.166
		C500.981,197.978,500.755,197.258,500.505,196.548z"/>
</g>
<path style="fill:#8DCC99;" d="M500.505,196.548c-0.179-0.509-0.368-1.013-0.577-1.506c-0.404-0.956-0.87-1.879-1.38-2.773
	c-0.542-0.95-1.134-1.866-1.785-2.737c-0.759-1.015-1.589-1.973-2.484-2.867c-4.769-4.769-11.358-7.719-18.636-7.719H174.771
	c-2.528,0-4.97,0.363-7.284,1.028c-0.395,0.113-0.786,0.236-1.172,0.367c-0.681,0.231-1.351,0.485-2.006,0.769
	c-2.179,0.944-4.204,2.174-6.03,3.642c-0.14,0.113-0.281,0.226-0.419,0.341c-5.771,4.835-9.443,12.092-9.443,20.209l0,0
	l134.799,87.837c21.056,13.72,48.09,14.242,69.66,1.343L502,205.301c0-2.274-0.288-4.481-0.83-6.587
	C500.981,197.978,500.755,197.258,500.505,196.548z"/>
<path style="fill:#93CA66;" d="M25.369,347.382h11.147c8.488,0,15.369-6.881,15.369-15.369s-6.881-15.369-15.369-15.369H25.369
	c-8.488,0-15.369,6.881-15.369,15.369S16.881,347.382,25.369,347.382z"/>
<path d="M130.833,388.24c0,0.004-0.001,0.007-0.001,0.011c0,19.42,15.306,35.333,34.488,36.308c0.619,0.031,1.242,0.047,1.868,0.047
	h300.874c0.625,0,1.247-0.016,1.865-0.047c0.193-0.01,0.384-0.031,0.576-0.044c0.422-0.028,0.846-0.054,1.264-0.096
	c0.238-0.024,0.472-0.061,0.709-0.09c0.369-0.045,0.74-0.085,1.105-0.141c0.269-0.041,0.534-0.096,0.801-0.143
	c0.328-0.058,0.658-0.109,0.983-0.176c0.29-0.059,0.575-0.133,0.863-0.199c0.297-0.069,0.597-0.13,0.891-0.206
	c0.288-0.074,0.571-0.162,0.856-0.243c0.288-0.082,0.58-0.157,0.865-0.246c0.283-0.088,0.56-0.189,0.84-0.284
	c0.282-0.095,0.567-0.185,0.846-0.287c0.28-0.102,0.553-0.217,0.83-0.326c0.272-0.107,0.548-0.209,0.817-0.323
	c0.277-0.117,0.547-0.246,0.82-0.37c0.262-0.119,0.528-0.232,0.787-0.357c0.268-0.129,0.528-0.269,0.792-0.404
	c0.258-0.132,0.519-0.259,0.774-0.397c0.26-0.141,0.512-0.293,0.768-0.44c0.251-0.144,0.505-0.283,0.752-0.433
	c0.255-0.155,0.504-0.321,0.755-0.482c0.24-0.154,0.483-0.302,0.718-0.461c0.248-0.168,0.489-0.346,0.733-0.519
	c0.23-0.164,0.465-0.323,0.691-0.492c0.242-0.18,0.475-0.371,0.712-0.557c0.22-0.173,0.444-0.341,0.66-0.519
	c0.231-0.19,0.453-0.39,0.679-0.586c0.214-0.185,0.431-0.365,0.64-0.555c0.219-0.198,0.429-0.406,0.643-0.609
	c0.207-0.197,0.418-0.389,0.62-0.591c0.21-0.209,0.41-0.427,0.615-0.641c0.197-0.206,0.397-0.407,0.589-0.618
	c0.198-0.217,0.386-0.443,0.579-0.664c0.189-0.217,0.382-0.431,0.565-0.652c0.185-0.223,0.36-0.454,0.54-0.682
	c0.181-0.229,0.365-0.454,0.541-0.687c0.176-0.234,0.342-0.476,0.512-0.714c0.168-0.235,0.34-0.467,0.503-0.706
	c0.164-0.242,0.318-0.491,0.477-0.737c0.158-0.245,0.319-0.486,0.471-0.734c0.153-0.25,0.295-0.507,0.442-0.76
	c0.146-0.252,0.296-0.5,0.435-0.756c0.142-0.259,0.272-0.524,0.408-0.787c0.133-0.258,0.271-0.514,0.398-0.776
	c0.128-0.265,0.246-0.535,0.368-0.804c0.122-0.267,0.248-0.531,0.363-0.801c0.115-0.271,0.22-0.547,0.329-0.822
	c0.109-0.274,0.223-0.546,0.326-0.824s0.194-0.561,0.29-0.841s0.196-0.558,0.285-0.841s0.166-0.571,0.249-0.857
	c0.083-0.287,0.17-0.572,0.246-0.863c0.075-0.29,0.139-0.584,0.208-0.877c0.068-0.291,0.141-0.58,0.202-0.874
	c0.062-0.297,0.111-0.599,0.166-0.899c0.054-0.295,0.112-0.587,0.158-0.884c0.048-0.305,0.083-0.614,0.123-0.922
	c0.039-0.296,0.082-0.591,0.113-0.889c0.033-0.313,0.053-0.629,0.077-0.943c0.023-0.298,0.052-0.595,0.068-0.896
	c0.017-0.319,0.021-0.64,0.03-0.961c0.007-0.265,0.023-0.528,0.025-0.795l7.575-182.76c0.006-0.138,0.009-0.276,0.009-0.414
	c0-20.047-16.309-36.356-36.355-36.356H174.771l0,0c-0.04,0-0.08,0.003-0.12,0.003c-0.584,0.002-1.166,0.015-1.744,0.044
	c-0.23,0.012-0.456,0.036-0.685,0.052c-0.385,0.027-0.772,0.049-1.155,0.088c-0.288,0.029-0.572,0.073-0.858,0.109
	c-0.318,0.04-0.639,0.073-0.955,0.122c-0.308,0.047-0.612,0.109-0.917,0.164c-0.289,0.052-0.581,0.097-0.868,0.155
	c-0.309,0.063-0.613,0.141-0.92,0.212c-0.278,0.065-0.559,0.122-0.834,0.193c-0.314,0.081-0.623,0.176-0.934,0.265
	c-0.262,0.075-0.527,0.143-0.787,0.224c-0.309,0.096-0.612,0.206-0.918,0.31c-0.256,0.087-0.515,0.168-0.768,0.26
	c-0.301,0.11-0.596,0.233-0.893,0.351c-0.251,0.1-0.506,0.193-0.754,0.298c-0.297,0.125-0.587,0.264-0.88,0.397
	c-0.242,0.11-0.488,0.214-0.727,0.329c-0.29,0.139-0.572,0.291-0.857,0.438c-0.236,0.121-0.475,0.237-0.708,0.363
	c-0.28,0.152-0.552,0.315-0.827,0.474c-0.231,0.133-0.466,0.261-0.694,0.4c-0.273,0.166-0.539,0.343-0.807,0.516
	c-0.222,0.143-0.447,0.28-0.666,0.427c-0.264,0.178-0.519,0.367-0.778,0.551c-0.215,0.154-0.435,0.302-0.647,0.46
	c-0.251,0.187-0.493,0.384-0.738,0.578c-0.212,0.166-0.427,0.328-0.635,0.499c-0.241,0.198-0.473,0.407-0.709,0.611
	c-0.203,0.176-0.41,0.347-0.609,0.528c-0.232,0.21-0.454,0.429-0.68,0.645c-0.194,0.185-0.393,0.366-0.583,0.556
	c-0.221,0.22-0.432,0.449-0.647,0.674c-0.186,0.195-0.376,0.386-0.558,0.585c-0.208,0.229-0.407,0.466-0.61,0.7
	c-0.178,0.205-0.36,0.406-0.533,0.616c-0.196,0.236-0.382,0.481-0.572,0.723c-0.17,0.216-0.344,0.427-0.509,0.647
	c-0.183,0.244-0.357,0.496-0.534,0.745c-0.16,0.225-0.325,0.447-0.481,0.676c-0.171,0.251-0.331,0.51-0.495,0.766
	c-0.151,0.235-0.307,0.467-0.453,0.705c-0.157,0.257-0.303,0.52-0.453,0.781c-0.142,0.246-0.288,0.488-0.425,0.738
	c-0.143,0.261-0.275,0.529-0.411,0.793c-0.132,0.256-0.269,0.51-0.395,0.77c-0.129,0.265-0.247,0.537-0.369,0.806
	c-0.121,0.266-0.247,0.53-0.362,0.8c-0.116,0.271-0.22,0.547-0.329,0.822c-0.109,0.274-0.223,0.546-0.325,0.824
	c-0.102,0.275-0.192,0.556-0.287,0.835c-0.097,0.283-0.198,0.564-0.288,0.85c-0.088,0.278-0.164,0.562-0.244,0.843
	c-0.084,0.292-0.173,0.582-0.25,0.877c-0.073,0.282-0.135,0.569-0.202,0.854c-0.07,0.299-0.145,0.596-0.208,0.898
	c-0.059,0.285-0.107,0.574-0.159,0.862c-0.056,0.307-0.117,0.613-0.165,0.923c-0.045,0.286-0.077,0.575-0.115,0.863
	c-0.042,0.316-0.088,0.631-0.121,0.95c-0.03,0.289-0.048,0.582-0.072,0.873c-0.026,0.322-0.056,0.642-0.074,0.967
	c-0.016,0.292-0.019,0.586-0.028,0.88c-0.009,0.289-0.026,0.577-0.027,0.868l-1.042,25.159c-0.083,2.006-1.721,3.577-3.729,3.577
	H35.849c-13.993,0-25.377,11.384-25.377,25.377c0,13.993,11.384,25.377,25.377,25.377h88.333c2.886,0,5.576,1.147,7.574,3.229
	s3.033,4.818,2.914,7.701c-0.234,5.642-4.84,10.062-10.487,10.062h-23.008c-13.993,0-25.377,11.384-25.377,25.377
	s11.384,25.377,25.377,25.377h27.085c1.385,0,2.282,0.719,2.693,1.148c0.412,0.429,1.093,1.354,1.036,2.738l-1.145,27.635
	C130.836,387.971,130.833,388.106,130.833,388.24z M485.151,370.339l-115.063-74.5l121.154-72.452L485.151,370.339z
	 M159.668,199.035c0.054-0.13,0.116-0.255,0.174-0.383c0.143-0.319,0.292-0.634,0.455-0.943c0.08-0.151,0.163-0.3,0.248-0.448
	c0.161-0.284,0.331-0.563,0.509-0.836c0.09-0.138,0.178-0.277,0.272-0.413c0.212-0.306,0.437-0.603,0.669-0.894
	c0.069-0.086,0.132-0.177,0.203-0.261c0.308-0.37,0.632-0.726,0.971-1.068c0.079-0.08,0.165-0.153,0.245-0.232
	c0.266-0.257,0.538-0.507,0.821-0.746c0.125-0.105,0.253-0.206,0.381-0.308c0.256-0.204,0.518-0.4,0.786-0.588
	c0.137-0.096,0.274-0.192,0.414-0.284c0.294-0.193,0.596-0.374,0.902-0.549c0.117-0.066,0.23-0.138,0.349-0.202
	c0.427-0.229,0.865-0.442,1.314-0.634c0.07-0.03,0.144-0.053,0.215-0.082c0.381-0.156,0.768-0.299,1.163-0.426
	c0.154-0.05,0.311-0.092,0.467-0.137c0.324-0.094,0.651-0.179,0.983-0.253c0.172-0.038,0.345-0.075,0.519-0.108
	c0.341-0.065,0.688-0.116,1.036-0.159c0.158-0.019,0.314-0.044,0.473-0.059c0.506-0.047,1.016-0.078,1.534-0.078h300.874
	c0.514,0,1.02,0.03,1.522,0.077c0.156,0.015,0.31,0.038,0.465,0.057c0.348,0.042,0.693,0.093,1.033,0.157
	c0.171,0.032,0.34,0.067,0.509,0.104c0.334,0.074,0.663,0.159,0.989,0.253c0.15,0.043,0.301,0.083,0.449,0.13
	c0.425,0.136,0.842,0.287,1.251,0.456c0.038,0.016,0.077,0.028,0.115,0.043c0.448,0.189,0.883,0.4,1.309,0.627
	c0.122,0.065,0.239,0.137,0.359,0.204c0.303,0.171,0.6,0.348,0.891,0.537c0.136,0.088,0.27,0.18,0.403,0.272
	c0.275,0.191,0.543,0.391,0.806,0.598c0.118,0.093,0.239,0.185,0.354,0.281c0.318,0.265,0.625,0.542,0.922,0.83
	c0.046,0.044,0.095,0.085,0.14,0.13c0.341,0.339,0.666,0.694,0.976,1.062c0.079,0.094,0.152,0.193,0.229,0.288
	c0.225,0.279,0.443,0.563,0.649,0.857c0.091,0.13,0.179,0.262,0.266,0.394c0.185,0.28,0.362,0.566,0.53,0.858
	c0.077,0.133,0.155,0.265,0.228,0.4c0.188,0.348,0.361,0.703,0.524,1.065c0.036,0.08,0.078,0.158,0.113,0.239
	c0.178,0.414,0.334,0.839,0.478,1.27l-139.778,83.59l-3.636,2.174c-5.913,3.536-12.36,5.865-18.977,7.01
	c-3.757,0.65-7.568,0.917-11.368,0.8c-9.156-0.282-18.243-2.785-26.343-7.493c-0.802-0.466-1.598-0.946-2.38-1.456l-129.497-84.383
	C159.32,199.921,159.485,199.473,159.668,199.035z M128.258,336.315h-27.085c-2.965,0-5.377-2.412-5.377-5.377
	s2.412-5.377,5.377-5.377h23.008c16.407,0,29.791-12.841,30.47-29.233c0.347-8.378-2.659-16.325-8.464-22.375
	c-5.806-6.051-13.621-9.383-22.006-9.383H35.849c-2.965,0-5.377-2.412-5.377-5.377s2.412-5.377,5.377-5.377h97.795
	c12.768,0,23.183-9.993,23.711-22.749l0.323-7.792l114.25,74.447l-17.213,10.355c-4.733,2.847-6.261,8.991-3.414,13.724
	s8.992,6.262,13.724,3.414l27.216-16.372c8.631,3.247,17.764,4.88,26.903,4.88c10.714,0,21.432-2.247,31.355-6.74l133.151,86.212
	c-0.144,0.451-0.306,0.894-0.487,1.328c-0.054,0.13-0.117,0.255-0.174,0.383c-0.143,0.319-0.292,0.634-0.454,0.941
	c-0.081,0.153-0.165,0.302-0.25,0.452c-0.16,0.281-0.328,0.557-0.503,0.828c-0.092,0.142-0.183,0.284-0.279,0.422
	c-0.206,0.297-0.424,0.585-0.649,0.867c-0.076,0.095-0.146,0.194-0.224,0.288c-0.306,0.368-0.628,0.722-0.965,1.061
	c-0.081,0.081-0.168,0.156-0.25,0.236c-0.264,0.255-0.535,0.504-0.816,0.742c-0.127,0.107-0.258,0.209-0.388,0.313
	c-0.253,0.201-0.512,0.395-0.777,0.582c-0.14,0.098-0.28,0.196-0.422,0.289c-0.289,0.19-0.586,0.368-0.888,0.54
	c-0.121,0.069-0.239,0.143-0.363,0.209c-0.426,0.228-0.862,0.441-1.309,0.632c-0.07,0.03-0.144,0.053-0.215,0.082
	c-0.381,0.156-0.768,0.299-1.162,0.426c-0.155,0.05-0.314,0.093-0.471,0.138c-0.323,0.093-0.648,0.178-0.979,0.252
	c-0.173,0.039-0.346,0.075-0.521,0.108c-0.341,0.064-0.686,0.115-1.034,0.158c-0.158,0.019-0.315,0.044-0.475,0.059
	c-0.505,0.047-1.016,0.078-1.533,0.078H167.188c-0.514,0-1.02-0.03-1.522-0.077c-0.157-0.015-0.312-0.038-0.468-0.057
	c-0.347-0.042-0.691-0.093-1.031-0.157c-0.172-0.032-0.343-0.068-0.512-0.105c-0.331-0.073-0.658-0.158-0.982-0.251
	c-0.152-0.044-0.306-0.084-0.457-0.132c-0.414-0.133-0.821-0.28-1.221-0.444c-0.048-0.02-0.099-0.035-0.147-0.056
	c-0.446-0.188-0.88-0.399-1.305-0.625c-0.124-0.066-0.244-0.139-0.366-0.208c-0.299-0.169-0.595-0.345-0.882-0.532
	c-0.139-0.09-0.276-0.184-0.412-0.279c-0.271-0.188-0.535-0.385-0.794-0.589c-0.122-0.096-0.246-0.191-0.365-0.29
	c-0.307-0.256-0.603-0.524-0.89-0.801c-0.057-0.055-0.117-0.105-0.173-0.161c-0.339-0.337-0.662-0.691-0.971-1.056
	c-0.081-0.096-0.155-0.197-0.234-0.295c-0.223-0.276-0.439-0.558-0.644-0.849c-0.093-0.132-0.182-0.267-0.271-0.401
	c-0.183-0.276-0.357-0.559-0.523-0.846c-0.079-0.137-0.159-0.273-0.234-0.412c-0.181-0.336-0.349-0.68-0.506-1.03
	c-0.042-0.093-0.089-0.182-0.129-0.276c-0.179-0.416-0.336-0.844-0.48-1.277L202.21,363c4.732-2.847,6.261-8.991,3.414-13.724
	c-2.846-4.732-8.99-6.262-13.724-3.414l-40.309,24.248l0.376-9.078c0.271-6.52-2.068-12.704-6.585-17.412
	C140.865,338.909,134.784,336.315,128.258,336.315z"/>
<path d="M25.369,357.382h11.147c13.989,0,25.369-11.381,25.369-25.37s-11.38-25.369-25.369-25.369H25.369
	C11.38,306.644,0,318.024,0,332.013S11.38,357.382,25.369,357.382z M25.369,326.644h11.147c2.96,0,5.369,2.409,5.369,5.369
	c0,2.961-2.409,5.37-5.369,5.37H25.369c-2.96,0-5.369-2.409-5.369-5.37S22.409,326.644,25.369,326.644z"/>
<path d="M244.452,140.725c0,5.523,4.477,10,10,10h162.125c5.522,0,10-4.477,10-10s-4.478-10-10-10H254.452
	C248.929,130.725,244.452,135.202,244.452,140.725z"/>
<path d="M343.357,87.396H181.152c-5.523,0-10,4.477-10,10c0,5.523,4.477,10,10,10h162.205c5.522,0,10-4.477,10-10
	C353.357,91.873,348.88,87.396,343.357,87.396z"/>
<path d="M375.04,102.941c0.37,0.55,0.79,1.06,1.25,1.53c0.46,0.46,0.97,0.87,1.52,1.24c0.54,0.36,1.12,0.67,1.721,0.92
	c0.609,0.25,1.239,0.44,1.869,0.57c0.65,0.13,1.311,0.2,1.96,0.2c0.65,0,1.311-0.07,1.95-0.2c0.641-0.13,1.271-0.32,1.87-0.57
	c0.601-0.25,1.19-0.56,1.73-0.92c0.55-0.37,1.06-0.78,1.52-1.24c0.46-0.47,0.88-0.98,1.24-1.53c0.36-0.54,0.67-1.12,0.92-1.72
	c0.25-0.6,0.44-1.23,0.57-1.87c0.13-0.65,0.199-1.3,0.199-1.96c0-2.63-1.069-5.21-2.93-7.07c-0.46-0.46-0.97-0.88-1.52-1.24
	c-0.54-0.36-1.13-0.67-1.73-0.92s-1.229-0.44-1.87-0.57c-1.29-0.26-2.62-0.26-3.91,0c-0.63,0.13-1.26,0.32-1.869,0.57
	c-0.601,0.25-1.181,0.56-1.721,0.92c-0.55,0.36-1.06,0.78-1.52,1.24c-1.87,1.86-2.931,4.44-2.931,7.07c0,0.66,0.061,1.31,0.19,1.96
	c0.13,0.64,0.32,1.27,0.57,1.87S374.68,102.401,375.04,102.941z"/>
<path d="M220.43,340.161c0.25,0.6,0.56,1.18,0.92,1.72c0.37,0.55,0.78,1.06,1.25,1.52c1.86,1.87,4.43,2.93,7.07,2.93
	c0.65,0,1.31-0.06,1.95-0.19s1.27-0.32,1.87-0.57s1.19-0.56,1.73-0.92c0.55-0.37,1.06-0.79,1.52-1.25s0.88-0.97,1.24-1.52
	c0.36-0.54,0.67-1.12,0.92-1.72s0.44-1.23,0.57-1.87c0.13-0.65,0.2-1.3,0.2-1.96c0-2.63-1.07-5.21-2.93-7.07
	c-0.46-0.46-0.97-0.88-1.52-1.24c-0.54-0.36-1.13-0.67-1.73-0.92s-1.23-0.44-1.87-0.57c-3.25-0.66-6.7,0.41-9.02,2.73
	c-1.87,1.86-2.93,4.44-2.93,7.07c0,0.66,0.06,1.31,0.19,1.96C219.99,338.931,220.18,339.561,220.43,340.161z"/>
<g>
</g>
<g>
</g>
<g>
</g>
<g>
</g>
<g>
</g>
<g>
</g>
<g>
</g>
<g>
</g>
<g>
</g>
<g>
</g>
<g>
</g>
<g>
</g>
<g>
</g>
<g>
</g>
<g>
</g>
</svg>
