<?xml version="1.0" encoding="iso-8859-1"?>
<!-- Generator: Adobe Illustrator 19.0.0, SVG Export Plug-In . SVG Version: 6.00 Build 0)  -->
<svg version="1.1" id="Capa_1" xmlns="http://www.w3.org/2000/svg" xmlns:xlink="http://www.w3.org/1999/xlink" x="0px" y="0px"
	 viewBox="0 0 512 512" style="enable-background:new 0 0 512 512;" xml:space="preserve">
<path style="fill:#4CC1EB;" d="M409.787,167.307c10.698-12.906,17.222-29.394,17.496-47.402
	c0.634-41.686-32.832-76.476-74.512-77.391c-13.518-0.297-26.25,2.941-37.359,8.832C298.663,26.41,270.202,10,237.905,10
	c-41.785,0-77.152,27.468-89.036,65.332c-1.411-0.1-2.831-0.168-4.268-0.168c-33.078,0-59.894,26.815-59.894,59.893
	c0,7.898,1.531,15.437,4.311,22.338c5.64,14,19.384,23.036,34.476,23.036h102.105v-26.147H286.4v26.147h94.977
	C392.313,180.431,402.809,175.726,409.787,167.307z"/>
<path style="fill:#F8C55A;" d="M225.599,154.284v26.147v43.636c0,3.62-2.935,6.555-6.555,6.555h-28.65
	c-1.209,0-1.883,1.396-1.131,2.343l53.982,67.929c6.522,8.207,18.985,8.207,25.507,0l53.982-67.929
	c0.752-0.946,0.078-2.343-1.131-2.343h-28.65c-3.62,0-6.555-2.935-6.555-6.555v-43.636v-26.147L225.599,154.284L225.599,154.284z"/>
<path style="fill:#ABB0B7;" d="M231.914,362.152h65.083v-23.393c0-5.147-4.173-9.32-9.32-9.32h-69.225
	c-16.315,0-29.542,13.226-29.542,29.542v119.23c0,5.147,4.173,9.32,9.32,9.32h24.363V371.472
	C222.594,366.325,226.767,362.152,231.914,362.152z"/>
<path style="fill:#E5EAED;" d="M231.914,502h89.447c5.147,0,9.32-4.173,9.32-9.32V371.472c0-5.147-4.173-9.32-9.32-9.32h-24.363
	h-65.083c-5.147,0-9.32,4.173-9.32,9.32v116.059v5.148C222.594,497.827,226.767,502,231.914,502z"/>
<path d="M417.487,173.688c12.468-15.042,19.498-34.089,19.796-53.632c0.718-47.234-37.096-86.504-84.293-87.541
	c-11.785-0.256-23.514,1.91-34.367,6.313C299.083,14.368,269.504,0,237.905,0c-22.436,0-43.774,7.072-61.71,20.452
	c-15.545,11.596-27.312,26.964-34.347,44.765c-37.269,1.451-67.142,32.223-67.142,69.84c0,9.007,1.694,17.78,5.036,26.075
	c7.17,17.799,24.344,29.299,43.751,29.299h92.105v30.19h-25.205c-4.433,0-8.382,2.48-10.308,6.473s-1.407,8.627,1.349,12.091
	l53.981,67.929c5.018,6.313,12.52,9.934,20.583,9.934c8.063,0,15.565-3.621,20.583-9.934l53.978-67.925
	c2.76-3.468,3.278-8.103,1.353-12.096s-5.875-6.473-10.308-6.473H296.4v-30.19h84.977
	C395.506,190.431,408.667,184.329,417.487,173.688z M303.877,240.621l-42.952,54.05c-1.644,2.068-3.791,2.377-4.925,2.377
	c-1.134,0-3.281-0.309-4.925-2.377l-42.952-54.05h10.922c9.128,0,16.555-7.426,16.555-16.554v-33.636v-20v-6.147h40.8v6.147v20
	v33.636c0,9.128,7.427,16.554,16.555,16.554L303.877,240.621L303.877,240.621z M296.4,164.284h12.233c5.522,0,10-4.477,10-10
	s-4.478-10-10-10H286.4h-60.801h-22.233c-5.522,0-10,4.477-10,10s4.478,10,10,10h12.233v6.147h-92.105
	c-11.204,0-21.096-6.583-25.2-16.773c-2.38-5.908-3.587-12.167-3.587-18.601c0-27.511,22.382-49.894,49.894-49.894
	c1.044,0,2.176,0.045,3.564,0.144c0.096,0.007,0.192,0.004,0.288,0.008c0.057,0.003,0.112,0.012,0.168,0.014
	c0.14,0.004,14.153,0.513,22.699,8.717c1.938,1.861,4.433,2.786,6.924,2.786c2.627,0,5.251-1.029,7.215-3.075
	c3.825-3.984,3.695-10.314-0.289-14.139c-6.947-6.669-15.479-10.221-22.509-12.118C176.293,38.682,205.239,20,237.905,20
	c24.652,0,47.777,10.856,63.529,29.428c-2.885,2.919-6.181,6.888-9.847,12.298c-3.098,4.573-1.901,10.791,2.671,13.888
	c1.718,1.165,3.669,1.722,5.6,1.722c3.205,0,6.354-1.539,8.288-4.392c6.253-9.231,10.168-11.851,10.853-12.264
	c0.042-0.016,0.081-0.037,0.123-0.054c0.13-0.052,0.256-0.111,0.383-0.168c0.17-0.076,0.339-0.152,0.502-0.237
	c0.03-0.015,0.06-0.027,0.09-0.042c9.93-5.266,21.154-7.915,32.455-7.669c36.246,0.796,65.285,30.96,64.733,67.241
	c-0.231,15.221-5.486,29.458-15.196,41.173c-5.008,6.042-12.557,9.506-20.712,9.506H296.4V164.284z"/>
<path d="M282.619,115.982h-53.238c-5.522,0-10,4.477-10,10s4.478,10,10,10h53.238c5.522,0,10-4.477,10-10
	S288.141,115.982,282.619,115.982z"/>
<path d="M287.678,319.439h-69.225c-21.804,0-39.542,17.738-39.542,39.542v119.23c0,10.653,8.667,19.32,19.32,19.32h15.004
	c2.161,8.308,9.704,14.469,18.679,14.469h89.446c10.653,0,19.32-8.667,19.32-19.32V371.472c0-10.653-8.667-19.32-19.32-19.32
	h-14.363v-13.393C306.997,328.106,298.33,319.439,287.678,319.439z M222.594,386.523c5.522,0,10-4.477,10-10v-4.371h54.403h20
	h13.684V492h-19.496h-68.591v-14.469v-21.008c0-5.523-4.478-10-10-10s-10,4.477-10,10v21.008h-13.683v-118.55
	c0-10.775,8.767-19.542,19.542-19.542h68.544v12.712h-55.083c-10.653,0-19.32,8.667-19.32,19.32v5.051
	C212.594,382.046,217.071,386.523,222.594,386.523z"/>
<path d="M254.286,419.766h32.711h16.447c1.253,0,2.447-0.241,3.553-0.662c3.766-1.434,6.447-5.069,6.447-9.338
	s-2.681-7.904-6.447-9.338c-1.105-0.421-2.3-0.662-3.553-0.662h-16.447h-32.711c-5.522,0-10,4.477-10,10
	S248.764,419.766,254.286,419.766z"/>
<path d="M254.286,462.842h32.711h16.447c1.253,0,2.447-0.241,3.553-0.662c3.766-1.434,6.447-5.069,6.447-9.338
	s-2.681-7.904-6.447-9.338c-1.105-0.421-2.3-0.662-3.553-0.662h-16.447h-32.711c-5.522,0-10,4.477-10,10
	S248.764,462.842,254.286,462.842z"/>
<path d="M212.79,418.48c0.13,0.63,0.319,1.26,0.569,1.87c0.25,0.6,0.561,1.18,0.921,1.72c0.359,0.55,0.779,1.06,1.239,1.52
	c0.46,0.47,0.971,0.88,1.521,1.25c0.54,0.36,1.12,0.67,1.729,0.92c0.601,0.25,1.23,0.44,1.87,0.57c0.641,0.13,1.3,0.19,1.95,0.19
	c0.66,0,1.31-0.06,1.96-0.19c0.64-0.13,1.26-0.32,1.87-0.57c0.6-0.25,1.18-0.56,1.72-0.92c0.55-0.37,1.061-0.78,1.521-1.25
	c0.46-0.46,0.88-0.97,1.25-1.52c0.359-0.54,0.67-1.12,0.92-1.72c0.25-0.61,0.439-1.24,0.569-1.87c0.131-0.65,0.19-1.31,0.19-1.96
	s-0.06-1.31-0.19-1.95s-0.319-1.27-0.569-1.87c-0.25-0.61-0.561-1.19-0.92-1.73c-0.37-0.55-0.79-1.06-1.25-1.52
	s-0.971-0.88-1.521-1.24c-0.54-0.36-1.12-0.67-1.72-0.92c-0.61-0.25-1.23-0.44-1.87-0.57c-1.29-0.26-2.62-0.26-3.91,0
	c-0.64,0.13-1.27,0.32-1.87,0.57c-0.609,0.25-1.189,0.56-1.729,0.92c-0.55,0.36-1.061,0.78-1.521,1.24s-0.88,0.97-1.239,1.52
	c-0.36,0.54-0.671,1.12-0.921,1.73c-0.25,0.6-0.439,1.23-0.569,1.87s-0.2,1.3-0.2,1.95C212.59,417.17,212.66,417.83,212.79,418.48z"
	/>
<g>
</g>
<g>
</g>
<g>
</g>
<g>
</g>
<g>
</g>
<g>
</g>
<g>
</g>
<g>
</g>
<g>
</g>
<g>
</g>
<g>
</g>
<g>
</g>
<g>
</g>
<g>
</g>
<g>
</g>
</svg>
