<?xml version="1.0" encoding="iso-8859-1"?>
<!-- Generator: Adobe Illustrator 19.0.0, SVG Export Plug-In . SVG Version: 6.00 Build 0)  -->
<svg version="1.1" id="Capa_1" xmlns="http://www.w3.org/2000/svg" xmlns:xlink="http://www.w3.org/1999/xlink" x="0px" y="0px"
	 viewBox="0 0 512 512" style="enable-background:new 0 0 512 512;" xml:space="preserve">
<g>
	<path style="fill:#F39E54;" d="M10.069,198.022c0.031-0.547,0.086-1.09,0.138-1.633C10.156,196.932,10.1,197.475,10.069,198.022z"
		/>
	<path style="fill:#F39E54;" d="M10.274,195.597c0.077-0.683,0.178-1.36,0.287-2.036C10.452,194.237,10.351,194.914,10.274,195.597z
		"/>
	<path style="fill:#F39E54;" d="M446.889,435.434c0,8.262-4.186,15.548-10.553,19.849
		C442.703,450.981,446.889,443.697,446.889,435.434V327.31l0,0V435.434z"/>
	<path style="fill:#F39E54;" d="M446.889,274.06L446.889,274.06v-73.591c0-0.211-0.015-0.419-0.018-0.63
		c0.003,0.21,0.018,0.419,0.018,0.63V274.06z"/>
	<path style="fill:#F39E54;" d="M11.079,190.839c0.71-3.128,1.762-6.158,3.129-9.039C12.842,184.681,11.788,187.711,11.079,190.839z
		"/>
	<path style="fill:#F39E54;" d="M10.611,193.202c0.133-0.785,0.288-1.564,0.463-2.338C10.899,191.637,10.744,192.416,10.611,193.202
		z"/>
	<path style="fill:#F39E54;" d="M442.682,181.8c1.367,2.881,2.419,5.911,3.129,9.039C445.101,187.711,444.049,184.681,442.682,181.8
		z"/>
	<path style="fill:#F39E54;" d="M446.683,196.389c0.051,0.543,0.107,1.086,0.138,1.633
		C446.789,197.475,446.734,196.932,446.683,196.389z"/>
	<path style="fill:#F39E54;" d="M33.937,459.37L33.937,459.37C20.718,459.37,10,448.654,10,435.433V200.469
		c0-0.211,0.015-0.419,0.018-0.63c-0.003,0.21-0.018,0.419-0.018,0.63v234.966C10,448.654,20.718,459.37,33.937,459.37z"/>
	<path style="fill:#F39E54;" d="M431.183,457.918c-1.1,0.403-2.237,0.727-3.406,0.966
		C428.946,458.645,430.083,458.321,431.183,457.918z"/>
	<path style="fill:#F39E54;" d="M436.336,455.282c-1.273,0.86-2.634,1.601-4.066,2.207
		C433.702,456.884,435.063,456.143,436.336,455.282z"/>
	<path style="fill:#F39E54;" d="M446.329,193.561c0.109,0.676,0.21,1.354,0.287,2.036
		C446.539,194.914,446.437,194.237,446.329,193.561z"/>
	<path style="fill:#F39E54;" d="M445.815,190.863c0.175,0.774,0.33,1.553,0.463,2.338
		C446.145,192.416,445.99,191.637,445.815,190.863z"/>
	<path style="fill:#F39E54;" d="M250.842,290.428l191.837-108.634c-2.767-5.828-6.825-11.042-11.969-15.199L244.918,16.497
		c-9.61-7.764-23.336-7.764-32.946,0L26.181,166.595c-5.144,4.156-9.202,9.37-11.969,15.199l191.837,108.634
		C219.943,298.297,236.948,298.297,250.842,290.428z"/>
</g>
<g>
	<path style="fill:#F8C55A;" d="M10,435.433c0,13.22,10.717,23.937,23.937,23.937h253.013
		c-23.293-18.728-45.061-29.314-60.972-35.209c-11.227-4.16-10.563-20.453,1.06-23.325c39.666-9.802,93.486,18.506,104.413,24.595
		c1.041,0.58,2.337,0.076,2.732-1.049c20.398-58.027,74.568-115.266,112.705-150.323v-73.591c0-0.211-0.015-0.419-0.018-0.63
		c-0.009-0.607-0.017-1.214-0.051-1.818c-0.031-0.547-0.086-1.09-0.138-1.633c-0.025-0.263-0.037-0.529-0.067-0.792
		c-0.077-0.683-0.178-1.36-0.287-2.036c-0.019-0.119-0.031-0.24-0.051-0.359c-0.133-0.785-0.288-1.564-0.463-2.338
		c-0.001-0.008-0.003-0.016-0.004-0.023c-0.71-3.128-1.762-6.158-3.129-9.039c-0.001-0.002-0.002-0.004-0.003-0.006l0,0
		L250.841,290.427c-13.895,7.868-30.899,7.868-44.794,0L14.211,181.794l0,0c-0.001,0.002-0.002,0.004-0.003,0.006
		c-1.367,2.881-2.419,5.911-3.129,9.039c-0.002,0.008-0.003,0.016-0.005,0.023c-0.175,0.774-0.33,1.553-0.463,2.338
		c-0.02,0.119-0.032,0.24-0.051,0.359c-0.109,0.676-0.21,1.354-0.287,2.036c-0.03,0.263-0.042,0.528-0.067,0.792
		c-0.051,0.543-0.107,1.086-0.138,1.633c-0.034,0.604-0.042,1.211-0.051,1.818c-0.003,0.21-0.018,0.419-0.018,0.63v234.965H10z"/>
	<path style="fill:#F8C55A;" d="M446.889,435.434V327.31c-33.155,39.197-61.448,91.954-80.408,132.061h56.471
		c1.653,0,3.266-0.167,4.824-0.486c1.169-0.239,2.306-0.563,3.406-0.966c0.367-0.134,0.729-0.277,1.087-0.429
		c1.432-0.606,2.792-1.347,4.066-2.207C442.703,450.981,446.889,443.697,446.889,435.434z"/>
</g>
<path style="fill:#93CA66;" d="M334.185,424.382c-0.395,1.125-1.691,1.629-2.732,1.049c-10.927-6.089-64.749-34.397-104.413-24.595
	c-11.623,2.872-12.288,19.165-1.06,23.325c15.911,5.895,37.679,16.482,60.972,35.209c11.994,9.643,24.393,21.441,36.605,35.877
	c8.17,9.658,23.67,7.318,28.671-4.302c3.858-8.967,8.649-19.719,14.254-31.574c18.961-40.108,47.253-92.864,80.408-132.061l0,0
	c14.46-17.095,29.844-31.612,45.783-41.373c9.208-5.638,12.079-17.691,6.513-26.944l0,0c-6.263-10.411-20.359-12.76-29.639-4.917
	c-6.373,5.386-14.115,12.13-22.657,19.983l0,0C408.753,309.116,354.584,366.355,334.185,424.382z"/>
<path d="M2.671,448.631c0.43,1.015,0.908,2.004,1.431,2.966c0.719,1.322,1.524,2.592,2.406,3.801
	c6.177,8.464,16.172,13.974,27.428,13.974h0.001H283.41c10.691,8.863,21.667,19.518,32.511,32.336
	c5.197,6.143,12.67,9.565,20.553,9.565c1.344,0,2.699-0.1,4.058-0.302c9.344-1.393,17.15-7.401,20.882-16.073
	c3.079-7.154,6.924-15.832,11.436-25.527h50.103c6.432,0,12.453-1.799,17.584-4.92c9.796-5.958,16.353-16.737,16.353-29.017l0,0
	V330.986c13.074-15.089,26.849-27.852,41.005-36.521c13.822-8.463,18.246-26.689,9.861-40.628
	c-4.502-7.484-12.025-12.594-20.643-14.019c-8.603-1.423-17.361,0.989-24.022,6.617c0,0,0,0-0.001,0
	c-1.994,1.685-4.066,3.456-6.201,5.299v-51.269c0-16.256-7.252-31.438-19.897-41.653L251.202,8.718
	c-13.188-10.654-32.33-10.655-45.516,0l-25.182,20.344c-0.017,0.014-0.035,0.028-0.052,0.042L19.897,158.817
	C7.252,169.032,0,184.214,0,200.469v234.965c0,3.509,0.535,6.895,1.528,10.08C1.859,446.577,2.241,447.616,2.671,448.631z
	 M33.938,449.37c-0.31,0-0.613-0.026-0.917-0.046l51.786-59.54c3.624-4.167,3.184-10.483-0.983-14.109
	c-4.168-3.624-10.484-3.185-14.109,0.984l-49.715,57.158V200.469c0-1.261,0.073-2.524,0.218-3.781l138.038,78.169l-34.061,39.163
	c-3.625,4.167-3.185,10.483,0.982,14.109c1.894,1.647,4.231,2.455,6.559,2.455c2.793,0,5.572-1.164,7.549-3.438l36.731-42.231
	l25.105,14.217c16.855,9.544,37.794,9.544,54.649,0l25.104-14.216l71.347,82.032c-9.583,14.718-17.905,29.944-24.155,45.365
	c-21.586-10.959-66.833-30.224-103.426-21.183c-9.573,2.366-16.12,10.28-16.677,20.162c-0.556,9.879,5.287,18.821,14.541,22.25
	c9.356,3.467,20.538,8.521,32.738,15.832H33.938V449.37z M422.953,449.37H382.44c4.704-9.523,9.883-19.596,15.477-29.887
	l25.954,29.84C423.565,449.344,423.262,449.37,422.953,449.37z M436.889,433.817l-28.571-32.85
	c8.792-15.129,18.379-30.294,28.571-44.491V433.817z M476.002,261.714c2.207-1.865,4.994-2.631,7.85-2.16
	c2.865,0.474,5.268,2.105,6.765,4.595c2.744,4.562,1.324,10.51-3.166,13.26c-10.484,6.42-20.696,14.717-30.561,24.357
	c-6.842,6.686-13.519,14.021-20.001,21.838c-15.359,18.521-29.637,39.729-42.495,61.354c-3.629,6.104-7.144,12.24-10.539,18.358
	c-8.751,15.768-16.7,31.409-23.719,46.054c-3.317,6.921-6.427,13.619-9.315,20.001c-2.805,6.198-5.404,12.104-7.778,17.622
	c-1.404,3.262-4.284,4.021-5.458,4.196c-1.165,0.172-4.12,0.287-6.392-2.399c-5.973-7.06-11.991-13.511-17.996-19.418
	c-7.649-7.526-15.272-14.158-22.746-20.001c-22.984-17.971-44.544-28.49-60.995-34.586c-1.075-0.398-1.587-1.196-1.521-2.37
	c0.086-1.519,1.081-1.765,1.506-1.87c4.763-1.177,9.925-1.71,15.35-1.71c26.462,0,59.128,12.701,81.797,25.333
	c3.073,1.712,6.722,1.979,10.008,0.735c3.294-1.248,5.854-3.873,7.026-7.203c5.317-15.126,13.094-30.262,22.331-44.967
	c3.646-5.804,7.523-11.538,11.563-17.181c18.273-25.511,39.947-49.078,59.374-68.166c7.055-6.932,13.812-13.273,20.001-18.902
	C464.201,271.836,470.723,266.174,476.002,261.714z M363.964,349.972l-65.331-75.114l138.039-78.169
	c0.144,1.256,0.217,2.519,0.217,3.78v69.17C413.504,291.331,386.515,319.172,363.964,349.972z M32.465,174.375L186.688,49.78
	l117.133,96.626c1.863,1.537,4.117,2.287,6.357,2.287c2.883,0,5.742-1.24,7.72-3.637c3.515-4.26,2.91-10.563-1.351-14.078
	L202.566,36.951l15.69-12.676c2.952-2.385,6.57-3.577,10.188-3.577s7.236,1.193,10.188,3.578l185.791,150.098
	c1.493,1.206,2.866,2.524,4.112,3.935l-149.489,84.653c-0.638,0.276-1.253,0.623-1.836,1.04l-31.296,17.723
	c-10.773,6.102-24.162,6.102-34.938,0l-31.3-17.725c-0.581-0.415-1.194-0.76-1.829-1.036L28.354,178.31
	C29.599,176.899,30.972,175.581,32.465,174.375z"/>
<path d="M113.545,348.295c-0.25-0.61-0.561-1.19-0.92-1.73c-0.36-0.55-0.78-1.06-1.24-1.52c-0.46-0.46-0.97-0.88-1.521-1.24
	c-0.54-0.36-1.119-0.67-1.729-0.92c-0.6-0.25-1.23-0.44-1.87-0.57c-1.29-0.26-2.62-0.26-3.9,0c-0.64,0.13-1.27,0.32-1.88,0.57
	c-0.6,0.25-1.18,0.56-1.72,0.92c-0.55,0.36-1.06,0.78-1.52,1.24c-0.46,0.46-0.881,0.97-1.25,1.52c-0.36,0.54-0.671,1.12-0.921,1.73
	c-0.25,0.6-0.439,1.23-0.569,1.87s-0.19,1.3-0.19,1.95c0,2.63,1.07,5.21,2.931,7.07c0.46,0.46,0.97,0.88,1.52,1.25
	c0.54,0.36,1.12,0.66,1.72,0.91c0.61,0.25,1.24,0.45,1.88,0.57c0.641,0.13,1.301,0.2,1.95,0.2c0.65,0,1.311-0.07,1.95-0.2
	c0.64-0.12,1.271-0.32,1.87-0.57c0.61-0.25,1.189-0.55,1.729-0.91c0.551-0.37,1.061-0.79,1.521-1.25c1.86-1.86,2.93-4.44,2.93-7.07
	c0-0.65-0.069-1.31-0.2-1.95C113.995,349.525,113.795,348.895,113.545,348.295z"/>
<path d="M331.784,168.788c0.25,0.61,0.55,1.19,0.92,1.73c0.36,0.55,0.78,1.06,1.24,1.52c0.46,0.46,0.97,0.88,1.521,1.24
	c0.54,0.36,1.119,0.67,1.72,0.92c0.61,0.25,1.24,0.45,1.88,0.57c0.64,0.13,1.3,0.2,1.95,0.2c2.63,0,5.21-1.07,7.069-2.93
	c0.461-0.46,0.881-0.97,1.24-1.52c0.36-0.54,0.67-1.12,0.92-1.73c0.25-0.6,0.45-1.23,0.57-1.87c0.13-0.64,0.2-1.3,0.2-1.95
	c0-0.65-0.07-1.31-0.2-1.95c-0.12-0.64-0.32-1.27-0.57-1.87c-0.25-0.61-0.56-1.19-0.92-1.73c-0.359-0.55-0.779-1.06-1.24-1.52
	c-0.46-0.46-0.97-0.88-1.52-1.24c-0.54-0.36-1.12-0.67-1.73-0.92c-0.6-0.25-1.229-0.45-1.869-0.57c-1.29-0.26-2.62-0.26-3.9,0
	c-0.64,0.12-1.27,0.32-1.88,0.57c-0.601,0.25-1.18,0.56-1.72,0.92c-0.551,0.36-1.061,0.78-1.521,1.24
	c-0.46,0.46-0.88,0.97-1.24,1.52c-0.37,0.54-0.67,1.12-0.92,1.73c-0.25,0.6-0.45,1.23-0.569,1.87c-0.131,0.64-0.2,1.3-0.2,1.95
	c0,0.65,0.069,1.31,0.2,1.95C331.333,167.557,331.534,168.187,331.784,168.788z"/>
<g>
</g>
<g>
</g>
<g>
</g>
<g>
</g>
<g>
</g>
<g>
</g>
<g>
</g>
<g>
</g>
<g>
</g>
<g>
</g>
<g>
</g>
<g>
</g>
<g>
</g>
<g>
</g>
<g>
</g>
</svg>
