<?xml version="1.0" encoding="iso-8859-1"?>
<!-- Generator: Adobe Illustrator 19.0.0, SVG Export Plug-In . SVG Version: 6.00 Build 0)  -->
<svg version="1.1" id="Capa_1" xmlns="http://www.w3.org/2000/svg" xmlns:xlink="http://www.w3.org/1999/xlink" x="0px" y="0px"
	 viewBox="0 0 512 512" style="enable-background:new 0 0 512 512;" xml:space="preserve">
<path style="fill:#4CC1EB;" d="M212.729,42.03h-29.488c-4.926,0-8.919,3.993-8.919,8.919v47.938c0,2.779-2.252,5.031-5.031,5.031
	h-18.312c-3.013,0-4.742,3.43-2.951,5.852l39.434,53.324c5.231,7.074,15.813,7.074,21.044,0l39.434-53.324
	c1.791-2.422,0.062-5.852-2.951-5.852h-18.312c-2.779,0-5.031-2.252-5.031-5.031V50.949C221.648,46.024,217.654,42.03,212.729,42.03
	z"/>
<path style="fill:#93CA66;" d="M330.145,136.369h29.488c4.926,0,8.919-3.993,8.919-8.919V79.512c0-2.779,2.252-5.031,5.031-5.031
	h18.312c3.013,0,4.742-3.429,2.951-5.852l-39.434-53.324c-5.231-7.074-15.813-7.074-21.044,0L294.933,68.63
	c-1.791,2.422-0.062,5.852,2.951,5.852h18.312c2.779,0,5.031,2.252,5.031,5.031v47.938
	C321.226,132.376,325.219,136.369,330.145,136.369z"/>
<path style="fill:#F39E54;" d="M313.155,221.964H118.298c-12.457,0-22.556,10.099-22.556,22.556v21.892h206.901L313.155,221.964z"/>
<path style="fill:#F8C55A;" d="M53.167,289.747V475.81c0,14.464,11.726,26.19,26.19,26.19h42.576h310.712
	c2.712,0,5.328-0.412,7.788-1.177s4.765-1.883,6.855-3.295c0.697-0.471,1.369-0.974,2.016-1.508c1.94-1.601,3.646-3.476,5.058-5.566
	c2.824-4.18,4.473-9.219,4.473-14.643V321.845v-55.434v-44.448v-15.676c0-9.096-7.374-16.47-16.47-16.47h-99.12
	c-13.178,0-24.628,9.058-27.661,21.882l-2.427,10.263l-10.512,44.448H95.742h-19.24C63.614,266.412,53.167,276.859,53.167,289.747z"
	/>
<path d="M212.729,32.03h-29.488c-10.432,0-18.919,8.487-18.919,18.919v42.968h-13.343c-5.191,0-9.869,2.88-12.206,7.515
	c-2.337,4.636-1.872,10.108,1.215,14.282l39.435,53.325c4.399,5.948,11.165,9.359,18.562,9.359c7.398,0,14.164-3.411,18.562-9.359
	l39.434-53.324c3.087-4.173,3.553-9.646,1.216-14.282s-7.015-7.516-12.207-7.516h-13.343V50.95
	C231.647,40.518,223.161,32.03,212.729,32.03z M232.436,113.918l-31.97,43.23c-0.805,1.088-1.9,1.251-2.481,1.251
	c-0.581,0-1.676-0.163-2.481-1.251l-31.969-43.23h5.757c8.288,0,15.031-6.743,15.031-15.031V52.03h27.326v46.857
	c0,8.288,6.743,15.031,15.031,15.031C226.68,113.918,232.436,113.918,232.436,113.918z"/>
<path d="M330.146,146.369h29.487c10.432,0,18.919-8.487,18.919-18.919V84.481h13.343c5.191,0,9.869-2.88,12.206-7.515
	c2.337-4.636,1.871-10.108-1.215-14.282L363.451,9.359C359.052,3.411,352.286,0,344.889,0s-14.163,3.411-18.562,9.359
	l-39.436,53.325c-3.086,4.174-3.551,9.647-1.214,14.282s7.014,7.515,12.206,7.515h13.343v42.969
	C311.226,137.882,319.713,146.369,330.146,146.369z M310.438,64.481l31.969-43.23c0.805-1.089,1.901-1.251,2.482-1.251
	s1.677,0.163,2.481,1.251l31.969,43.23h-5.757c-8.288,0-15.031,6.743-15.031,15.031v46.856h-27.326V79.513
	c0-8.288-6.743-15.031-15.031-15.031L310.438,64.481L310.438,64.481z"/>
<path d="M43.167,475.81c0,19.955,16.235,36.19,36.19,36.19h42.575h310.712c19.955,0,36.19-16.235,36.19-36.19v-23.133V221.964
	v-15.676c0-14.595-11.874-26.47-26.47-26.47h-99.12c-17.897,0-33.274,12.164-37.393,29.581l-0.607,2.565H118.298
	c-17.951,0-32.556,14.604-32.556,32.556v11.892h-9.24c-18.381,0-33.335,14.954-33.335,33.335V475.81z M105.742,244.52
	c0-6.923,5.632-12.556,12.556-12.556h182.216l-5.782,24.447h-36.548H105.742V244.52z M63.167,289.747
	c0-7.353,5.982-13.335,13.335-13.335h9.24h20h152.441h44.459h33.382c5.523,0,10-4.477,10-10s-4.477-10-10-10h-20.741l5.782-24.447
	l4.248-17.962c0.166-0.7,0.382-1.375,0.622-2.038c2.612-7.243,9.447-12.146,17.309-12.146h99.12c3.567,0,6.47,2.902,6.47,6.47v5.676
	v20v210.713H146.011c-5.523,0-10,4.477-10,10s4.477,10,10,10h302.823v13.133c0,8.927-7.263,16.19-16.19,16.19H121.932H89.58H79.356
	c-8.927,0-16.19-7.263-16.19-16.19L63.167,289.747L63.167,289.747z"/>
<path d="M95,456.5c0.25,0.6,0.56,1.19,0.92,1.73c0.36,0.55,0.78,1.06,1.24,1.52c0.46,0.46,0.97,0.88,1.52,1.24
	c0.54,0.36,1.12,0.67,1.73,0.92c0.6,0.25,1.23,0.44,1.87,0.57s1.3,0.2,1.95,0.2c0.501,0,1.008-0.053,1.512-0.132
	c0.149-0.023,0.299-0.038,0.448-0.068c0.63-0.13,1.26-0.32,1.87-0.57c0.6-0.25,1.18-0.56,1.72-0.92c0.55-0.36,1.06-0.78,1.52-1.24
	c0.46-0.46,0.88-0.97,1.25-1.52c0.36-0.54,0.67-1.13,0.92-1.73s0.44-1.23,0.57-1.87c0.13-0.64,0.19-1.3,0.19-1.95
	c0-0.65-0.06-1.31-0.19-1.96c-0.13-0.63-0.32-1.26-0.57-1.87c-0.25-0.6-0.56-1.18-0.92-1.72c-0.37-0.55-0.79-1.06-1.25-1.52
	c-0.46-0.46-0.97-0.88-1.52-1.25c-0.54-0.36-1.12-0.67-1.72-0.92c-0.61-0.25-1.24-0.44-1.87-0.57
	c-0.148-0.03-0.299-0.044-0.448-0.067c-1.149-0.177-2.321-0.163-3.462,0.067c-0.64,0.13-1.27,0.32-1.87,0.57
	c-0.61,0.25-1.19,0.56-1.73,0.92c-0.55,0.37-1.06,0.79-1.52,1.25c-0.46,0.46-0.88,0.97-1.24,1.52c-0.36,0.54-0.67,1.12-0.92,1.72
	c-0.25,0.61-0.44,1.24-0.57,1.87c-0.13,0.65-0.2,1.31-0.2,1.96s0.07,1.31,0.2,1.95C94.56,455.27,94.75,455.9,95,456.5z"/>
<g>
</g>
<g>
</g>
<g>
</g>
<g>
</g>
<g>
</g>
<g>
</g>
<g>
</g>
<g>
</g>
<g>
</g>
<g>
</g>
<g>
</g>
<g>
</g>
<g>
</g>
<g>
</g>
<g>
</g>
</svg>
