<?xml version="1.0" encoding="iso-8859-1"?>
<!-- Generator: Adobe Illustrator 19.0.0, SVG Export Plug-In . SVG Version: 6.00 Build 0)  -->
<svg version="1.1" id="Capa_1" xmlns="http://www.w3.org/2000/svg" xmlns:xlink="http://www.w3.org/1999/xlink" x="0px" y="0px"
	 viewBox="0 0 512 512" style="enable-background:new 0 0 512 512;" xml:space="preserve">
<g>
	<path style="fill:#F39E54;" d="M10.044,217.755c0.026-0.464,0.072-0.924,0.117-1.385C10.116,216.831,10.07,217.291,10.044,217.755z
		"/>
	<path style="fill:#F39E54;" d="M10.207,215.825c0.065-0.574,0.148-1.144,0.241-1.711C10.355,214.681,10.272,215.251,10.207,215.825
		z"/>
	<path style="fill:#F39E54;" d="M10.848,212.035c0.566-2.492,1.404-4.907,2.493-7.202C12.252,207.129,11.414,209.543,10.848,212.035
		z"/>
	<path style="fill:#F39E54;" d="M10.476,213.917c0.105-0.619,0.227-1.234,0.365-1.845C10.703,212.683,10.581,213.298,10.476,213.917
		z"/>
	<path style="fill:#F39E54;" d="M357.921,240.908L357.921,240.908V219.7c0-0.411-0.02-0.82-0.035-1.229
		c0.015,0.409,0.035,0.818,0.035,1.229V240.908z"/>
	<path style="fill:#F39E54;" d="M29.062,425.879L29.062,425.879c-10.528,0-19.062-8.535-19.062-19.062V219.7
		c0-0.203,0.014-0.404,0.017-0.606C10.013,219.296,10,219.497,10,219.7v187.117C10,417.344,18.534,425.879,29.062,425.879z"/>
	<path style="fill:#F39E54;" d="M85.256,245.545v-103.21l-62.371,50.389c-4.097,3.31-7.329,7.462-9.532,12.104l152.771,86.512
		L85.256,245.545z"/>
	<path style="fill:#F39E54;" d="M354.567,204.828c-2.203-4.641-5.436-8.794-9.532-12.104l-62.371-50.389v103.21L354.567,204.828z"/>
	<path style="fill:#F39E54;" d="M357.447,214.005c0.1,0.602,0.187,1.207,0.256,1.816
		C357.634,215.212,357.547,214.607,357.447,214.005z"/>
	<path style="fill:#F39E54;" d="M357.733,216.183c0.053,0.521,0.103,1.043,0.132,1.569
		C357.836,217.226,357.787,216.704,357.733,216.183z"/>
	<path style="fill:#F39E54;" d="M343.074,425.395c-0.22,0.05-0.44,0.098-0.662,0.14
		C342.634,425.493,342.854,425.445,343.074,425.395z"/>
	<path style="fill:#F39E54;" d="M357.921,406.816c0,7.896-4.801,14.67-11.642,17.564
		C353.12,421.487,357.921,414.712,357.921,406.816v-29.88l0,0V406.816z"/>
	<path style="fill:#F39E54;" d="M354.568,204.829c1.362,2.869,2.331,5.925,2.866,9.085
		C356.899,210.754,355.93,207.699,354.568,204.829z"/>
</g>
<path style="fill:#F8C55A;" d="M10,406.816c0,10.528,8.535,19.062,19.063,19.062h309.796c1.216,0,2.4-0.126,3.553-0.343
	c0.223-0.042,0.443-0.09,0.662-0.14c1.106-0.25,2.181-0.582,3.205-1.015c6.842-2.894,11.642-9.668,11.642-17.564v-29.88
	c-15.332-5.657-28.852-16.498-37.662-31.757c-20.025-34.685-8.141-79.036,26.543-99.061c3.613-2.086,7.334-3.805,11.119-5.209V219.7
	c0-0.411-0.02-0.82-0.035-1.229c-0.008-0.239-0.007-0.48-0.02-0.719c-0.03-0.525-0.079-1.048-0.132-1.569
	c-0.012-0.12-0.017-0.242-0.031-0.361c-0.069-0.609-0.156-1.214-0.256-1.816c-0.005-0.03-0.008-0.061-0.013-0.091
	c-0.535-3.16-1.504-6.216-2.866-9.085c0,0-0.001-0.001-0.001-0.002l0,0l-71.903,40.717l0,0l-80.868,45.794
	c-1.383,0.783-2.805,1.469-4.256,2.056c-0.725,0.294-1.458,0.563-2.197,0.808c-7.387,2.448-15.379,2.448-22.767,0
	c-0.739-0.245-1.471-0.514-2.197-0.808c-1.451-0.587-2.873-1.273-4.256-2.056l-152.77-86.511l0,0c0,0,0,0.001-0.001,0.002
	c-1.09,2.295-1.927,4.71-2.493,7.202c-0.003,0.012-0.005,0.025-0.007,0.037c-0.138,0.611-0.26,1.226-0.365,1.845
	c-0.011,0.065-0.017,0.131-0.028,0.196c-0.093,0.568-0.177,1.137-0.241,1.711c-0.02,0.181-0.029,0.364-0.046,0.546
	c-0.044,0.46-0.091,0.921-0.117,1.384c-0.025,0.446-0.03,0.895-0.038,1.343C10.013,219.296,10,219.497,10,219.7V406.816z"/>
<g>
	<path style="fill:#4CC1EB;" d="M166.124,291.339c1.383,0.783,2.805,1.469,4.256,2.056c0.725,0.294,1.458,0.563,2.197,0.808
		c7.387,2.448,15.379,2.448,22.767,0c0.739-0.245,1.471-0.514,2.197-0.808c1.451-0.587,2.873-1.273,4.256-2.056l80.868-45.794l0,0
		v-103.21V27.741c0-6.752-5.474-12.226-12.226-12.226H97.482c-6.752,0-12.226,5.474-12.226,12.226v114.594v103.21L166.124,291.339z"
		/>
	<path style="fill:#4CC1EB;" d="M406.159,377.67l19.786,34.271l24.892-14.372l-19.786-34.271c-3.556,3.132-7.469,5.964-11.731,8.424
		C415.058,374.183,410.649,376.156,406.159,377.67z"/>
</g>
<path style="fill:#E5EAED;" d="M346.802,246.118c-34.685,20.025-46.569,64.376-26.543,99.061c8.81,15.259,22.33,26.1,37.662,31.757
	l0,0c15.236,5.622,32.26,6.12,48.238,0.734c4.491-1.514,8.899-3.487,13.161-5.948c4.262-2.46,8.175-5.292,11.731-8.424
	c25.388-22.358,32.377-60.214,14.812-90.637c-17.939-31.072-55.397-43.825-87.942-31.753l0,0
	C354.136,242.312,350.415,244.032,346.802,246.118z"/>
<path style="fill:#EB5664;" d="M423.145,413.557c-3.609,2.083-4.845,6.698-2.762,10.307l34.671,60.052
	c6.945,12.029,22.327,16.151,34.356,9.206l0,0c12.029-6.945,16.151-22.327,9.206-34.356l-34.671-60.052
	c-2.084-3.609-6.698-4.845-10.307-2.762l-2.8,1.617l-24.892,14.372L423.145,413.557z"/>
<path d="M422.973,318.92c0.003,0,0.006,0,0.009,0c5.518,0,9.995-4.472,10-9.991c0.008-8.734-2.308-17.367-6.694-24.967
	c-9.6-16.627-27.473-26.143-46.633-24.849c-5.511,0.374-9.675,5.143-9.302,10.653c0.374,5.51,5.143,9.674,10.653,9.301
	c11.502-0.776,22.207,4.929,27.961,14.895c2.631,4.557,4.019,9.727,4.015,14.949C412.978,314.434,417.451,318.915,422.973,318.92z"
	/>
<path d="M472.605,393.715c-2.343-4.059-6.127-6.963-10.654-8.176c-2.246-0.603-4.541-0.75-6.78-0.462l-11.584-20.064
	c23.923-25.845,29.445-65.292,10.936-97.352c-17.941-31.076-53.18-46.053-86.603-39.846v-8.116c0-13.563-6.051-26.23-16.601-34.754
	l-58.656-47.387V27.741c0-12.256-9.97-22.226-22.225-22.226H97.482c-12.256,0-22.226,9.97-22.226,22.226v109.817l-58.655,47.387
	C6.051,193.469,0,206.137,0,219.699v187.117c0,16.025,13.037,29.062,29.062,29.062h309.796c1.002,0,1.991-0.051,2.967-0.15
	c14.637-1.491,26.096-13.889,26.096-28.911v-16.784c5.079,0.956,10.188,1.44,15.274,1.44c6.132,0,12.228-0.695,18.196-2.061
	l11.574,20.047c-4.149,5.46-4.88,13.103-1.242,19.406l34.671,60.052c6.504,11.264,18.342,17.568,30.5,17.568
	c5.959,0,11.995-1.515,17.516-4.703c8.131-4.695,13.947-12.275,16.377-21.343c2.431-9.069,1.183-18.542-3.512-26.672
	L472.605,393.715z M292.664,163.269l46.088,37.234c0.43,0.348,0.843,0.712,1.246,1.084l-47.334,26.804V163.269z M287.592,254.247
	c0.001,0,0.001-0.001,0.001-0.001l60.328-34.162v14.199c-2.063,0.973-4.108,2.015-6.118,3.175
	c-19.088,11.02-32.742,28.815-38.447,50.105c-5.705,21.291-2.777,43.528,8.244,62.616c8.542,14.796,21.166,26.306,36.322,33.4
	v16.506L243.027,279.483L287.592,254.247z M95.256,147.112v-25.711v-93.66c0-1.228,0.999-2.227,2.227-2.227h172.956
	c1.228,0,2.226,0.999,2.226,2.227v93.66v25.711v92.605l-49.319,27.928c-0.571,0.255-1.124,0.566-1.651,0.935l-24.826,14.059
	c-7.961,4.509-17.854,4.509-25.816,0l-24.828-14.06c-0.525-0.368-1.077-0.678-1.645-0.932l-49.322-27.93v-92.605H95.256z
	 M80.328,254.247l44.565,25.236L20,400.085V220.083l60.323,34.16C80.324,254.244,80.326,254.246,80.328,254.247z M29.169,200.503
	l46.087-37.233v65.121l-47.333-26.804C28.326,201.215,28.739,200.851,29.169,200.503z M32.769,415.879L142.653,289.54l18.544,10.501
	c7.02,3.976,14.892,5.963,22.763,5.963l0,0c7.871,0,15.743-1.988,22.763-5.963l18.544-10.501l109.884,126.339H32.769z
	 M390.739,370.963c-7.681,0.94-15.417,0.417-22.818-1.433h-0.001c-7.095-1.774-13.881-4.767-20-8.912
	c-7.572-5.13-14.13-12-19.002-20.438c-8.349-14.462-10.568-31.31-6.246-47.44c3.924-14.643,12.823-27.089,25.248-35.509
	c1.262-0.855,2.548-1.683,3.882-2.453c5.171-2.985,10.594-5.137,16.118-6.514h0.001c4.968-1.238,10.016-1.85,15.035-1.85
	c21.622,0,42.682,11.214,54.248,31.247c12.915,22.37,10.388,49.488-4.251,68.931c-4.897,6.504-11.148,12.15-18.632,16.471
	C406.836,367.383,398.821,369.974,390.739,370.963z M420.471,382.461c1.295-0.661,2.581-1.347,3.849-2.079
	c1.27-0.733,2.511-1.498,3.727-2.288l9.13,15.814l-7.572,4.372L420.471,382.461z M491.469,475.263
	c-1.047,3.909-3.554,7.176-7.058,9.2c-7.233,4.176-16.52,1.689-20.697-5.545l-14.045-24.327L430.27,420.99l9.335-5.389l7.572-4.372
	l9.335-5.39l19.405,33.61l14.039,24.316C491.979,467.271,492.517,471.354,491.469,475.263z"/>
<path d="M124.319,81.509h20.315h31.825h15.002h31.825h20.315c5.523,0,10-4.477,10-10s-4.477-10-10-10h-46.533h-26.217h-46.533
	c-5.523,0-10,4.477-10,10C114.319,77.032,118.796,81.509,124.319,81.509z"/>
<path d="M243.602,128.508c1.67,0,3.242-0.415,4.625-1.139c3.193-1.67,5.374-5.008,5.374-8.861c0-5.523-4.477-10-10-10h-18.72
	h-60.564c-5.523,0-10,4.477-10,10s4.477,10,10,10H243.602z"/>
<path d="M253.602,165.508c0-5.523-4.477-10-10-10H124.319c-5.523,0-10,4.477-10,10s4.477,10,10,10h119.283
	C249.125,175.507,253.602,171.03,253.602,165.508z"/>
<path d="M251.875,204.197c-0.54-0.36-1.12-0.67-1.72-0.92c-0.61-0.25-1.23-0.45-1.87-0.57c-1.29-0.26-2.62-0.26-3.91,0
	c-0.64,0.12-1.27,0.32-1.87,0.57c-0.6,0.25-1.19,0.56-1.73,0.92c-0.55,0.36-1.06,0.78-1.52,1.24s-0.88,0.97-1.24,1.52
	c-0.36,0.54-0.67,1.12-0.92,1.72c-0.25,0.61-0.44,1.24-0.57,1.88s-0.2,1.3-0.2,1.95s0.07,1.31,0.2,1.95
	c0.13,0.64,0.32,1.27,0.57,1.87c0.25,0.61,0.56,1.19,0.92,1.73c0.36,0.55,0.78,1.06,1.24,1.52s0.97,0.88,1.52,1.24
	c0.54,0.36,1.13,0.67,1.73,0.92c0.6,0.25,1.23,0.45,1.87,0.57c0.65,0.13,1.3,0.2,1.95,0.2c0.66,0,1.31-0.07,1.96-0.2
	c0.63-0.12,1.26-0.32,1.87-0.57c0.6-0.25,1.18-0.56,1.72-0.92c0.55-0.36,1.06-0.78,1.52-1.24c0.47-0.46,0.88-0.97,1.25-1.52
	c0.36-0.54,0.67-1.12,0.92-1.73c0.25-0.6,0.44-1.23,0.57-1.87s0.19-1.3,0.19-1.95s-0.06-1.31-0.19-1.95s-0.32-1.27-0.57-1.88
	c-0.25-0.6-0.56-1.18-0.92-1.72c-0.37-0.55-0.78-1.06-1.25-1.52C252.935,204.976,252.424,204.557,251.875,204.197z"/>
<path d="M216.329,212.507c0-5.523-4.477-10-10-10h-82.01c-5.523,0-10,4.477-10,10s4.477,10,10,10h82.01
	C211.852,222.506,216.329,218.029,216.329,212.507z"/>
<path d="M115.087,122.328c0.25,0.61,0.56,1.19,0.92,1.73c0.36,0.55,0.78,1.06,1.24,1.52s0.97,0.88,1.52,1.24
	c0.299,0.199,0.612,0.379,0.933,0.545c0.26,0.135,0.524,0.263,0.797,0.375c0.6,0.25,1.23,0.45,1.87,0.57c0.64,0.13,1.3,0.2,1.95,0.2
	c2.63,0,5.21-1.07,7.07-2.93c0.46-0.46,0.88-0.97,1.25-1.52c0.36-0.54,0.67-1.12,0.92-1.73c0.25-0.6,0.44-1.23,0.57-1.87
	s0.19-1.3,0.19-1.95c0-0.65-0.06-1.31-0.19-1.95c-0.048-0.238-0.113-0.472-0.178-0.706c-0.11-0.396-0.234-0.787-0.392-1.164
	c-0.25-0.61-0.56-1.19-0.92-1.73c-0.37-0.55-0.79-1.06-1.25-1.52s-0.97-0.88-1.52-1.24c-0.54-0.36-1.12-0.67-1.72-0.92
	c-0.61-0.25-1.24-0.45-1.87-0.57c-1.3-0.26-2.62-0.26-3.91,0c-0.64,0.12-1.27,0.32-1.87,0.57c-0.61,0.25-1.19,0.56-1.73,0.92
	c-0.55,0.36-1.06,0.78-1.52,1.24s-0.88,0.97-1.24,1.52c-0.36,0.54-0.67,1.12-0.92,1.73c-0.25,0.6-0.44,1.23-0.57,1.87
	s-0.2,1.3-0.2,1.95c0,0.65,0.07,1.31,0.2,1.95C114.647,121.098,114.837,121.728,115.087,122.328z"/>
<g>
</g>
<g>
</g>
<g>
</g>
<g>
</g>
<g>
</g>
<g>
</g>
<g>
</g>
<g>
</g>
<g>
</g>
<g>
</g>
<g>
</g>
<g>
</g>
<g>
</g>
<g>
</g>
<g>
</g>
</svg>
