<?xml version="1.0" encoding="iso-8859-1"?>
<!-- Generator: Adobe Illustrator 19.0.0, SVG Export Plug-In . SVG Version: 6.00 Build 0)  -->
<svg version="1.1" id="Capa_1" xmlns="http://www.w3.org/2000/svg" xmlns:xlink="http://www.w3.org/1999/xlink" x="0px" y="0px"
	 viewBox="0 0 511.999 511.999" style="enable-background:new 0 0 511.999 511.999;" xml:space="preserve">
<g>
	<path style="fill:#E5EAED;" d="M19.372,24.224c0.677-0.616,1.384-1.199,2.119-1.748C20.757,23.025,20.05,23.608,19.372,24.224z"/>
	<path style="fill:#E5EAED;" d="M403.76,298.726c28.636,0,54.407,12.256,72.364,31.804V86.425H10V45.4
		c0-8.393,3.615-15.942,9.372-21.175C13.615,29.457,10,37.007,10,45.4v335.506c0,15.799,12.808,28.607,28.607,28.607h267.706
		c-0.524-4.108-0.794-8.296-0.794-12.547C305.519,342.709,349.503,298.726,403.76,298.726z"/>
</g>
<path style="fill:#EB5664;" d="M10,45.4v41.026h466.124V45.4c0-4.937-1.251-9.582-3.453-13.635
	c-1.321-2.432-2.985-4.651-4.926-6.592c-0.97-0.971-2.011-1.872-3.112-2.696c-4.773-3.569-10.698-5.683-17.116-5.683H38.607
	c-6.418,0-12.343,2.114-17.116,5.683c-0.734,0.549-1.441,1.133-2.119,1.748C13.615,29.457,10,37.007,10,45.4z"/>
<path style="fill:#4CC1EB;" d="M403.76,298.726c-54.257,0-98.241,43.984-98.241,98.24c0,4.251,0.27,8.438,0.794,12.547
	c6.161,48.332,47.44,85.694,97.447,85.694c54.257,0,98.24-43.984,98.24-98.241c0-25.62-9.811-48.947-25.876-66.437
	C458.167,310.98,432.396,298.726,403.76,298.726z M364.394,438.454c-4.811,1.728-10.16-1.517-8.644-5.244l12.477-30.654
	c1.486-3.65,1.486-7.533,0-11.183L355.75,360.72c-1.517-3.727,3.833-6.972,8.644-5.244l96.433,34.647
	c7.819,2.809,7.819,10.875,0,13.684L364.394,438.454z"/>
<path style="fill:#F8C55A;" d="M460.826,403.808c7.819-2.809,7.819-10.875,0-13.684l-96.433-34.647
	c-4.811-1.728-10.16,1.517-8.644,5.244l12.477,30.654c1.486,3.65,1.486,7.533,0,11.183l-12.477,30.654
	c-1.517,3.727,3.833,6.972,8.644,5.244L460.826,403.808z"/>
<path d="M486.123,86.425V45.4c0-21.288-17.318-38.606-38.606-38.606H38.606C17.318,6.792,0,24.111,0,45.4v41.026v294.48
	c0,21.288,17.318,38.606,38.606,38.606h259.281c10.402,48.898,53.918,85.694,105.872,85.694c59.684,0,108.24-48.556,108.24-108.24
	c0-26.739-9.751-51.24-25.877-70.146V86.425H486.123z M492,396.966c0,48.656-39.584,88.24-88.24,88.24
	c-40.866,0-75.328-27.925-85.317-65.694c-1.696-6.413-2.688-13.108-2.885-20c-0.024-0.846-0.039-1.695-0.039-2.546
	c0-7.521,0.946-14.988,2.813-22.194c0.282-1.091,0.592-2.195,0.919-3.283c1.593-5.289-1.404-10.866-6.692-12.458
	c-5.285-1.588-10.865,1.404-12.458,6.693c-0.402,1.336-0.782,2.694-1.13,4.035c-2.29,8.843-3.451,17.997-3.451,27.208
	c0,0.851,0.013,1.7,0.032,2.546H38.606c-10.26,0-18.606-8.347-18.606-18.606V96.425h292c5.522,0,10-4.477,10-10s-4.478-10-10-10H20
	V45.4c0-10.26,8.347-18.606,18.606-18.606h408.91c10.26,0,18.606,8.347,18.606,18.606v31.026H392c-5.522,0-10,4.477-10,10
	s4.478,10,10,10h74.123v212.12c-17.64-12.479-39.16-19.82-62.363-19.82c-18.752,0-37.232,4.874-53.444,14.094
	c-4.8,2.73-6.479,8.835-3.748,13.636c2.729,4.8,8.836,6.481,13.637,3.749c13.203-7.51,28.265-11.479,43.556-11.479
	c24.327,0,46.385,9.895,62.363,25.871c8.655,8.654,15.52,19.095,20,30.711C489.915,375.14,492,385.814,492,396.966z"/>
<path d="M466.093,381.497c-0.61-0.283-1.233-0.551-1.886-0.785l-96.432-34.646c-6.505-2.336-13.909-0.746-18.422,3.959
	c-3.791,3.952-4.889,9.494-2.865,14.466l12.477,30.654c0.499,1.225,0.499,2.416,0,3.642l-0.295,0.725l-8.14,20l-4.041,9.928
	c-0.001,0-0.001,0-0.001,0.001c-2.022,4.971-0.925,10.514,2.866,14.465c3.127,3.26,7.64,5.024,12.28,5.024
	c2.059,0,4.143-0.348,6.141-1.065l78.916-28.354l17.517-6.293c7.7-2.767,12.483-8.994,12.483-16.253
	C476.69,390.323,472.676,384.552,466.093,381.497z M443.208,399.513l-55.666,20l-18.06,6.489l2.641-6.489l5.366-13.184
	c0.9-2.21,1.467-4.502,1.708-6.816c0.418-4.008-0.149-8.081-1.708-11.908l-8.007-19.673l80.813,29.035L443.208,399.513z"/>
<path d="M336.069,332.04c-0.25-0.6-0.56-1.18-0.92-1.73c-0.369-0.54-0.79-1.06-1.25-1.52s-0.97-0.87-1.52-1.24
	c-0.54-0.36-1.12-0.67-1.72-0.92c-0.61-0.25-1.24-0.44-1.87-0.57c-3.25-0.65-6.71,0.41-9.03,2.73c-0.46,0.46-0.88,0.98-1.24,1.52
	c-0.359,0.55-0.67,1.13-0.92,1.73s-0.439,1.23-0.569,1.87c-0.131,0.65-0.2,1.3-0.2,1.96c0,0.65,0.069,1.3,0.2,1.95
	c0.13,0.64,0.319,1.27,0.569,1.87s0.561,1.18,0.92,1.73c0.36,0.54,0.78,1.06,1.24,1.52c1.86,1.86,4.44,2.93,7.07,2.93
	c0.649,0,1.31-0.07,1.96-0.2c0.63-0.13,1.26-0.32,1.87-0.57c0.6-0.25,1.18-0.56,1.72-0.92c0.55-0.36,1.06-0.78,1.52-1.24
	s0.881-0.98,1.25-1.52c0.36-0.55,0.67-1.13,0.92-1.73s0.44-1.23,0.57-1.87s0.19-1.3,0.19-1.95c0-0.66-0.061-1.31-0.19-1.96
	C336.51,333.27,336.319,332.64,336.069,332.04z"/>
<path d="M348.17,95.66c0.61,0.25,1.24,0.44,1.88,0.57s1.3,0.2,1.95,0.2c0.649,0,1.31-0.07,1.95-0.2s1.27-0.32,1.869-0.57
	c0.61-0.25,1.19-0.56,1.73-0.92c0.55-0.36,1.06-0.78,1.52-1.24c0.461-0.46,0.881-0.98,1.24-1.52c0.36-0.54,0.67-1.13,0.92-1.73
	c0.25-0.6,0.45-1.23,0.58-1.87s0.19-1.3,0.19-1.95c0-2.64-1.07-5.21-2.931-7.08c-0.46-0.46-0.97-0.87-1.52-1.24
	c-0.54-0.36-1.12-0.67-1.73-0.92c-0.6-0.25-1.229-0.44-1.869-0.57c-1.29-0.26-2.61-0.26-3.9,0c-0.64,0.13-1.27,0.32-1.88,0.57
	c-0.601,0.25-1.18,0.56-1.72,0.92c-0.551,0.37-1.061,0.78-1.521,1.24s-0.88,0.98-1.24,1.52c-0.359,0.55-0.67,1.13-0.92,1.73
	c-0.25,0.6-0.45,1.23-0.569,1.87c-0.131,0.65-0.2,1.3-0.2,1.96c0,0.65,0.069,1.31,0.2,1.95c0.119,0.64,0.319,1.27,0.569,1.87
	c0.25,0.6,0.561,1.19,0.92,1.73c0.36,0.54,0.78,1.06,1.24,1.52s0.97,0.88,1.521,1.24C346.99,95.099,347.569,95.41,348.17,95.66z"/>
<path d="M75,326.866c0,5.523,4.478,10,10,10h64c5.522,0,10-4.477,10-10s-4.478-10-10-10H85C79.478,316.866,75,321.342,75,326.866z"
	/>
<path d="M188,357H53c-5.522,0-10,4.477-10,10s4.478,10,10,10h135c5.522,0,10-4.477,10-10S193.522,357,188,357z"/>
<g>
</g>
<g>
</g>
<g>
</g>
<g>
</g>
<g>
</g>
<g>
</g>
<g>
</g>
<g>
</g>
<g>
</g>
<g>
</g>
<g>
</g>
<g>
</g>
<g>
</g>
<g>
</g>
<g>
</g>
</svg>
