<?xml version="1.0" encoding="iso-8859-1"?>
<!-- Generator: Adobe Illustrator 19.0.0, SVG Export Plug-In . SVG Version: 6.00 Build 0)  -->
<svg version="1.1" id="Capa_1" xmlns="http://www.w3.org/2000/svg" xmlns:xlink="http://www.w3.org/1999/xlink" x="0px" y="0px"
	 viewBox="0 0 511.999 511.999" style="enable-background:new 0 0 511.999 511.999;" xml:space="preserve">
<path style="fill:#E5EAED;" d="M247.072,189.161c0-41.708,23.36-77.957,57.708-96.387V81.795H46.289v348.41H304.78V285.548
	C270.432,267.118,247.072,230.869,247.072,189.161z"/>
<g>
	<path style="fill:#4CC1EB;" d="M46.289,475.89c0,14.42,11.69,26.11,26.11,26.11h206.27c14.42,0,26.11-11.69,26.11-26.11v-45.685
		H46.289V475.89z M175.535,437.093c16.021,0,29.009,12.988,29.009,29.009s-12.988,29.009-29.009,29.009
		s-29.009-12.988-29.009-29.009C146.525,450.081,159.513,437.093,175.535,437.093z"/>
	<path style="fill:#4CC1EB;" d="M304.78,36.569V36.11c0-14.42-11.69-26.11-26.11-26.11H72.399c-14.42,0-26.11,11.69-26.11,26.11
		v0.459v45.226H304.78V36.569z"/>
</g>
<path d="M205.773,55.897h-60.478c-5.523,0-10-4.477-10-10s4.477-10,10-10h60.478c5.523,0,10,4.477,10,10
	S211.296,55.897,205.773,55.897z"/>
<path style="fill:#F8C55A;" d="M264.661,390.405l-17.739-16.839c-4.189-3.976-9.744-6.193-15.52-6.193H107.378
	c-7.188,0-13.016-5.827-13.016-13.016v-17.233c0-7.188,5.827-13.016,13.016-13.016h149.63c7.188,0,13.016,5.827,13.016,13.016
	v50.978C270.024,390.891,266.685,392.326,264.661,390.405z"/>
<path d="M266.845,401.28c-3.311,0-6.569-1.25-9.069-3.623l-17.739-16.839c-2.341-2.222-5.408-3.446-8.636-3.446H107.378
	c-12.691,0-23.016-10.325-23.016-23.016v-17.233c0-12.691,10.325-23.016,23.016-23.016h149.63c12.691,0,23.016,10.325,23.016,23.016
	v50.978c0,5.273-3.131,10.025-7.976,12.107C270.37,400.929,268.6,401.28,266.845,401.28z M271.546,383.152h0.01H271.546z
	 M107.378,334.108c-1.663,0-3.016,1.353-3.016,3.016v17.233c0,1.663,1.353,3.016,3.016,3.016h124.023
	c8.375,0,16.332,3.175,22.405,8.941l6.217,5.902v-35.091c0-1.663-1.353-3.016-3.016-3.016H107.378V334.108z"/>
<path style="fill:#F8C55A;" d="M170.004,188.756l-8.369-5.314c-4.893-3.107-5.886-9.859-2.049-14.202
	c4.901-5.549,7.668-13.026,7.014-21.15c-1.121-13.92-12.524-25.115-26.461-26.002c-16.536-1.053-30.277,12.047-30.277,28.357
	c0,7.134,2.63,13.652,6.973,18.641c3.86,4.434,3.044,11.21-1.918,14.36l-8.364,5.31c-7.591,4.82-12.189,13.187-12.189,22.178v16.846
	c0,5.003,4.056,9.059,9.059,9.059h69.713c5.003,0,9.059-4.056,9.059-9.059v-16.846C182.193,201.943,177.595,193.576,170.004,188.756
	z"/>
<path d="M173.135,246.839h-69.713c-10.509,0-19.059-8.55-19.059-19.059v-16.846c0-12.482,6.292-23.929,16.829-30.62l7.833-4.973
	c-5.915-6.948-9.163-15.768-9.163-24.896c0-10.571,4.422-20.783,12.133-28.019c7.82-7.338,18.041-10.995,28.78-10.319
	c18.887,1.203,34.274,16.326,35.793,35.18c0.831,10.309-2.375,20.243-9.036,28.054l7.833,4.973l0,0
	c10.538,6.691,16.829,18.138,16.829,30.62v16.846C192.193,238.289,183.644,246.839,173.135,246.839z M104.363,226.839h67.831
	v-15.905c0-5.6-2.822-10.734-7.55-13.736l-8.369-5.313c-4.819-3.06-8.043-8.057-8.844-13.708c-0.798-5.63,0.9-11.301,4.66-15.557
	c3.337-3.778,4.95-8.652,4.541-13.727c-0.726-9.017-8.09-16.25-17.128-16.826c-5.162-0.332-10.075,1.426-13.823,4.943
	c-3.752,3.521-5.819,8.292-5.819,13.434c0,4.441,1.604,8.729,4.516,12.075c3.802,4.366,5.509,10.131,4.682,15.814
	c-0.812,5.585-4.013,10.526-8.783,13.554l-8.364,5.31c-4.727,3.001-7.549,8.136-7.549,13.736v15.906H104.363z"/>
<circle style="fill:#238FB4;" cx="175.539" cy="466.1" r="29.01"/>
<path style="fill:#EB5664;" d="M356.39,79.843c-18.667,0-36.238,4.683-51.61,12.932c-34.348,18.43-57.708,54.678-57.708,96.387
	s23.36,77.957,57.708,96.387c15.372,8.248,32.944,12.932,51.61,12.932c60.375,0,109.319-48.944,109.319-109.319
	C465.709,128.786,416.765,79.843,356.39,79.843z"/>
<path style="fill:#ABB0B7;" d="M334.088,230.862c-0.526,1.936-0.812,3.971-0.812,6.073v5.074c0,12.765,10.348,23.114,23.114,23.114
	s23.114-10.348,23.114-23.114v-5.074c0-2.103-0.286-4.137-0.812-6.073C363.891,232.849,348.889,232.849,334.088,230.862z"/>
<path style="fill:#E5EAED;" d="M416.439,185.525c-1.146-31.918-28.079-56.871-60.018-56.871h-0.063
	c-31.939,0-58.871,24.953-60.018,56.871c-0.026,0.729-0.039,1.461-0.039,2.196v23.508c0,6.142,3.986,11.574,9.846,13.415l0,0
	c9.163,2.88,18.511,4.952,27.941,6.218c14.801,1.987,29.803,1.987,44.604,0c9.43-1.266,18.778-3.338,27.941-6.218l0,0
	c5.86-1.842,9.846-7.273,9.846-13.415v-23.508C416.479,186.986,416.466,186.254,416.439,185.525z"/>
<path d="M369.504,242.009c0,7.231-5.883,13.114-13.114,13.114s-13.114-5.883-13.114-13.114v-0.107c-6.693-0.5-13.368-1.384-20-2.65
	v2.757c0,18.259,14.855,33.114,33.114,33.114s33.114-14.855,33.114-33.114v-2.758c-6.632,1.267-13.308,2.15-20,2.651V242.009z"/>
<path d="M247.119,195.91c-0.65,0-1.31-0.07-1.95-0.2c-0.64-0.12-1.27-0.32-1.87-0.57s-1.18-0.56-1.73-0.92
	c-0.54-0.36-1.06-0.78-1.52-1.24s-0.88-0.97-1.24-1.52c-0.36-0.54-0.67-1.12-0.92-1.73c-0.25-0.6-0.44-1.23-0.57-1.87
	s-0.2-1.3-0.2-1.95s0.07-1.31,0.2-1.95c0.13-0.64,0.32-1.27,0.57-1.88c0.25-0.6,0.56-1.18,0.92-1.72c0.36-0.55,0.78-1.06,1.24-1.52
	s0.98-0.88,1.52-1.24c0.55-0.37,1.13-0.67,1.73-0.92s1.23-0.45,1.87-0.57c1.29-0.26,2.62-0.26,3.91,0c0.64,0.12,1.27,0.32,1.87,0.57
	s1.18,0.55,1.73,0.92c0.54,0.36,1.05,0.78,1.51,1.24c0.47,0.46,0.88,0.97,1.25,1.52c0.36,0.54,0.67,1.12,0.92,1.72
	c0.25,0.61,0.44,1.24,0.57,1.88s0.19,1.3,0.19,1.95s-0.06,1.31-0.19,1.95s-0.32,1.27-0.57,1.87c-0.25,0.61-0.56,1.19-0.92,1.73
	c-0.37,0.55-0.78,1.06-1.25,1.52C252.329,194.84,249.759,195.91,247.119,195.91z"/>
<path d="M356.39,69.842c-14.259,0-28.365,2.557-41.61,7.476v-40.75V36.11c0-19.911-16.199-36.11-36.11-36.11H72.399
	c-19.911,0-36.11,16.199-36.11,36.11v0.458v45.227v348.409v45.685c0,19.911,16.199,36.11,36.11,36.11H278.67
	c19.911,0,36.11-16.199,36.11-36.11v-45.685V300.911c13.093,4.903,27.147,7.568,41.61,7.568
	c65.792,0,119.319-53.526,119.319-119.318S422.183,69.842,356.39,69.842z M56.289,36.569c0-8.883,7.227-16.11,16.11-16.11H278.67
	c8.883,0,16.11,7.227,16.11,16.11v35.227H56.289V36.569z M146.396,492H72.399c-8.883,0-16.11-7.227-16.11-16.11v-35.685h90.107
	c-6.134,6.894-9.871,15.966-9.871,25.898C136.525,476.034,140.262,485.106,146.396,492z M175.535,485.111
	c-10.482,0-19.009-8.527-19.009-19.009s8.527-19.009,19.009-19.009s19.009,8.527,19.009,19.009
	C194.544,476.584,186.017,485.111,175.535,485.111z M294.78,475.89c0,8.883-7.227,16.11-16.11,16.11h-73.997
	c6.134-6.894,9.871-15.966,9.871-25.897c0-9.932-3.737-19.004-9.871-25.898h90.107V475.89z M356.39,288.479
	c-14.651,0-28.799-3.278-41.61-9.217c-7.133-3.307-13.846-7.442-20-12.305c-14.048-11.102-25.172-25.98-31.611-43.448
	c-1.91-5.182-7.658-7.833-12.841-5.924c-5.182,1.91-7.834,7.659-5.924,12.841c9.546,25.898,27.654,47.069,50.376,60.799v128.978
	H56.289V91.795h231.122c-13.281,9.431-24.587,21.541-33.067,35.5c-2.565,4.224-4.888,8.648-6.903,13.149
	c-2.257,5.041,0,10.956,5.041,13.213s10.956,0,13.213-5.041c1.676-3.744,3.608-7.424,5.743-10.938
	c6.298-10.368,14.223-19.287,23.342-26.521c6.163-4.889,12.876-8.999,20-12.273c12.791-5.878,26.912-9.043,41.61-9.043
	c54.765,0,99.319,44.554,99.319,99.319S411.155,288.479,356.39,288.479z"/>
<path d="M366.39,119.358v-6.448c0-5.523-4.477-10-10-10s-10,4.477-10,10v6.444c3.279-0.463,6.609-0.7,9.969-0.7
	C359.742,118.654,363.093,118.892,366.39,119.358z"/>
<path d="M426.433,185.167c-0.647-18.02-8.319-34.829-21.602-47.329c-10.693-10.063-24.064-16.447-38.441-18.48
	c-3.298-0.466-6.648-0.704-10.031-0.704c-3.36,0-6.69,0.237-9.969,0.7c-14.356,2.027-27.739,8.413-38.44,18.484
	c-13.283,12.5-20.955,29.309-21.603,47.333c-0.03,0.846-0.045,1.697-0.045,2.551v23.508c0,10.563,6.771,19.788,16.848,22.956
	c6.646,2.089,13.364,3.776,20.126,5.067c6.632,1.267,13.307,2.15,20,2.65c4.366,0.326,8.74,0.492,13.113,0.492
	c4.374,0,8.748-0.166,13.114-0.492c6.692-0.5,13.368-1.384,20-2.651c6.763-1.292,13.482-2.979,20.127-5.067h-0.001
	c10.078-3.167,16.849-12.392,16.849-22.955v-23.508C426.479,186.865,426.464,186.012,426.433,185.167z M406.479,211.229
	c0,1.783-1.143,3.34-2.844,3.875l0,0c-6.244,1.963-12.562,3.521-18.921,4.691c-18.758,3.45-37.888,3.449-56.646,0
	c-6.36-1.17-12.677-2.729-18.922-4.691c-1.701-0.535-2.844-2.092-2.844-3.875v-23.508c0-0.616,0.011-1.23,0.033-1.837
	c0.869-24.194,20.302-44.187,44.474-46.905c1.847-0.208,3.718-0.326,5.614-0.326c1.877,0,3.73,0.116,5.559,0.321
	c24.14,2.699,43.595,22.701,44.465,46.913c0.022,0.608,0.033,1.22,0.033,1.834v23.508H406.479z"/>
<g>
</g>
<g>
</g>
<g>
</g>
<g>
</g>
<g>
</g>
<g>
</g>
<g>
</g>
<g>
</g>
<g>
</g>
<g>
</g>
<g>
</g>
<g>
</g>
<g>
</g>
<g>
</g>
<g>
</g>
</svg>
