<?xml version="1.0" encoding="iso-8859-1"?>
<!-- Generator: Adobe Illustrator 19.0.0, SVG Export Plug-In . SVG Version: 6.00 Build 0)  -->
<svg version="1.1" id="Capa_1" xmlns="http://www.w3.org/2000/svg" xmlns:xlink="http://www.w3.org/1999/xlink" x="0px" y="0px"
	 viewBox="0 0 512 512" style="enable-background:new 0 0 512 512;" xml:space="preserve">
<path style="fill:#F8C55A;" d="M85.797,362.935L85.797,362.935c0,10.798-8.753,19.551-19.551,19.551H47.265v21.913
	c0,23.367,18.942,42.308,42.308,42.308h240.16c11.052,0,20.011-8.959,20.011-20.011v-114.94l-80.034-144.393
	c-4.44-8.01-1.545-18.102,6.464-22.542l73.57-40.778V85.302c0-11.052-8.959-20.011-20.011-20.011H89.574
	c-23.367,0-42.308,18.942-42.308,42.308v21.913h18.981c10.798,0,19.551,8.753,19.551,19.551l0,0
	c0,10.798-8.753,19.551-19.551,19.551H47.265v67.835h18.981c10.798,0,19.551,8.753,19.551,19.551l0,0
	c0,10.798-8.753,19.551-19.551,19.551H47.265v67.835h18.981C77.043,343.385,85.797,352.137,85.797,362.935z M201.287,165.119
	c17.64,0,31.938,14.3,31.938,31.938s-14.3,31.939-31.938,31.939c-17.64,0-31.938-14.3-31.938-31.939
	S183.648,165.119,201.287,165.119z M150.39,303.311c0-28.11,22.788-50.897,50.897-50.897l0,0c28.11,0,50.897,22.788,50.897,50.897
	v25.963c0,5.89-4.775,10.664-10.664,10.664h-80.466c-5.89,0-10.664-4.775-10.664-10.664L150.39,303.311L150.39,303.311z"/>
<g>
	<path style="fill:#EB5664;" d="M85.797,149.064L85.797,149.064c0-10.798-8.753-19.551-19.551-19.551H47.265H29.551
		c-10.798,0-19.551,8.753-19.551,19.551l0,0c0,10.798,8.753,19.551,19.551,19.551h17.715h18.981
		C77.043,168.614,85.797,159.86,85.797,149.064z"/>
	<path style="fill:#EB5664;" d="M29.551,382.485h17.715h18.981c10.798,0,19.551-8.753,19.551-19.551l0,0
		c0-10.798-8.753-19.551-19.551-19.551H47.265H29.551c-10.798,0-19.551,8.753-19.551,19.551l0,0
		C10,373.732,18.753,382.485,29.551,382.485z"/>
	<path style="fill:#EB5664;" d="M85.797,255.999L85.797,255.999c0-10.798-8.753-19.551-19.551-19.551H47.265H29.551
		c-10.798,0-19.551,8.753-19.551,19.551l0,0c0,10.798,8.753,19.551,19.551,19.551h17.715h18.981
		C77.043,275.55,85.797,266.797,85.797,255.999z"/>
</g>
<g>
	<path style="fill:#93CA66;" d="M161.054,339.938h80.466c5.89,0,10.664-4.775,10.664-10.664v-25.963
		c0-28.11-22.788-50.897-50.897-50.897l0,0c-28.11,0-50.897,22.788-50.897,50.897v25.963
		C150.39,335.163,155.165,339.938,161.054,339.938z"/>
	<circle style="fill:#93CA66;" cx="201.287" cy="197.056" r="31.938"/>
</g>
<g>
	<path style="fill:#4CC1EB;" d="M384.637,86.947c0.031,0,0.061-0.005,0.092-0.005C384.698,86.942,384.668,86.946,384.637,86.947z"/>
	<path style="fill:#4CC1EB;" d="M269.711,167.363l80.034,144.393l20.49,36.966c4.44,8.01,14.532,10.904,22.542,6.464l100.671-55.8
		l-105.175-63.255c-8.539-5.135-13.692-14.433-13.522-24.395l2.097-122.714l-27.102,15.022l-73.57,40.778
		C268.166,149.262,265.271,159.353,269.711,167.363z"/>
</g>
<path style="fill:#238FB4;" d="M388.271,236.131l105.175,63.255c8.01-4.44,10.904-14.532,6.464-22.542L399.387,95.486
	c-1.665-3.004-4.125-5.288-6.971-6.736c-1.423-0.724-2.943-1.239-4.509-1.53c-0.522-0.097-1.049-0.169-1.579-0.216
	c-0.53-0.047-1.064-0.068-1.598-0.064c-0.031,0-0.061,0.005-0.092,0.005c-2.109,0.03-4.236,0.459-6.267,1.329
	c-0.515,0.221-1.024,0.469-1.524,0.747l-2.097,122.714C374.579,221.698,379.732,230.996,388.271,236.131z"/>
<path d="M201.287,242.414c-33.578,0-60.896,27.319-60.896,60.897v25.962c0,11.394,9.27,20.664,20.664,20.664h80.466
	c11.395,0,20.665-9.27,20.665-20.664v-25.962C262.184,269.733,234.865,242.414,201.287,242.414z M242.184,329.274
	c0,0.366-0.298,0.664-0.665,0.664h-80.466c-0.366,0-0.664-0.298-0.664-0.664v-25.962c0-22.551,18.347-40.897,40.896-40.897
	c22.551,0,40.897,18.347,40.897,40.897v25.962H242.184z"/>
<path d="M201.287,238.997c23.125,0,41.938-18.814,41.938-41.938s-18.814-41.938-41.938-41.938s-41.938,18.814-41.938,41.938
	S178.162,238.997,201.287,238.997z M201.287,175.119c12.098,0,21.939,9.842,21.939,21.939c0,12.098-9.842,21.939-21.939,21.939
	s-21.939-9.842-21.939-21.939C179.348,184.961,189.19,175.119,201.287,175.119z"/>
<path d="M509.851,274.436c-0.155-0.36-0.32-0.716-0.491-1.071c-0.026-0.055-0.05-0.111-0.076-0.165
	c-0.198-0.404-0.407-0.805-0.627-1.202L408.134,90.638c-1.776-3.205-4.122-5.899-6.841-8.026c-8.158-6.382-19.68-7.664-29.294-2.336
	c-0.002,0.001-0.004,0.002-0.005,0.003l-12.249,6.789v-1.766c0-16.548-13.463-30.011-30.011-30.011H89.574
	c-28.843,0-52.308,23.465-52.308,52.308v11.914h-7.715C13.256,119.513,0,132.769,0,149.064s13.256,29.551,29.551,29.551h7.715
	v47.835h-7.715C13.256,226.448,0,239.705,0,255.999s13.256,29.551,29.551,29.551h7.715v47.835h-7.715
	C13.256,333.385,0,346.641,0,362.935c0,16.295,13.256,29.551,29.551,29.551h7.715V404.4c0,28.843,23.466,52.308,52.308,52.308
	h240.16c16.548,0,30.011-13.463,30.011-30.011v-24.515v-51.756l1.743,3.145l0,0c3.227,5.822,8.398,10.139,14.656,12.268
	c0.417,0.142,0.839,0.274,1.266,0.397c2.431,0.697,4.905,1.042,7.366,1.042c1.668,0,3.33-0.159,4.966-0.474
	c2.727-0.525,5.383-1.486,7.882-2.871c0.001-0.001,0.002-0.001,0.003-0.002l100.668-55.797c0.396-0.22,0.785-0.449,1.167-0.687
	c0.056-0.035,0.11-0.073,0.165-0.108c0.329-0.208,0.655-0.42,0.973-0.641c0.005-0.004,0.01-0.008,0.016-0.011
	c5.009-3.48,8.64-8.533,10.344-14.475c1.703-5.94,1.302-12.147-1.099-17.751C509.857,274.453,509.854,274.444,509.851,274.436z
	 M384.975,198.589l1.733-101.384c1.616,0.466,3.055,1.546,3.934,3.13l100.522,181.359c0.109,0.197,0.206,0.396,0.293,0.599
	c0.015,0.035,0.026,0.071,0.04,0.106c0.07,0.171,0.136,0.342,0.191,0.516c0.004,0.011,0.006,0.023,0.009,0.034
	c0.381,1.238,0.379,2.537,0.036,3.739l-86.894-52.26l-11.415-6.865c-5.461-3.285-8.786-9.283-8.677-15.655L384.975,198.589z
	 M366.552,106.161l-1.376,80.52l-5.432-3.267l-20-12.028l-43.58-26.211l43.58-24.156l20-11.085L366.552,106.161z M29.551,158.613
	c-5.266,0-9.551-4.285-9.551-9.551c0-5.266,4.285-9.551,9.551-9.551h7.715h20h8.98c5.266,0,9.551,4.285,9.551,9.551
	c0,5.266-4.285,9.551-9.551,9.551h-8.98h-20H29.551z M29.551,265.55c-5.266,0-9.551-4.285-9.551-9.551
	c0-5.266,4.285-9.551,9.551-9.551h7.715h20h8.98c5.266,0,9.551,4.285,9.551,9.551s-4.285,9.551-9.551,9.551h-8.98h-20H29.551z
	 M29.551,372.485c-5.266,0-9.551-4.285-9.551-9.551c0-5.266,4.285-9.551,9.551-9.551h7.715h20h8.98c5.266,0,9.551,4.285,9.551,9.551
	c0,5.266-4.285,9.551-9.551,9.551h-8.98h-20H29.551z M339.745,314.342v77.839H224.88c-5.523,0-10,4.477-10,10
	c0,5.523,4.477,10,10,10h114.864v14.515c0,5.52-4.491,10.011-10.011,10.011H89.574c-17.815,0-32.308-14.494-32.308-32.309v-11.914
	h8.98c16.294,0,29.551-13.256,29.551-29.551c0-16.295-13.256-29.551-29.551-29.551h-8.98v-47.835h8.98
	c16.294,0,29.551-13.256,29.551-29.551s-13.256-29.551-29.551-29.551h-8.98v-47.835h8.98c16.294,0,29.551-13.256,29.551-29.551
	S82.54,119.51,66.245,119.51h-8.98v-11.914c0-17.815,14.494-32.308,32.308-32.308h240.16c5.52,0,10.011,4.491,10.011,10.011V98.15
	l-68.417,37.922c-0.776,0.43-1.526,0.895-2.247,1.393c-0.631,0.435-1.24,0.895-1.827,1.379c-4.105,3.386-7.093,7.925-8.592,13.15
	c-1.957,6.825-1.14,14.004,2.303,20.214L339.745,314.342z M382.913,347.007c-0.125-0.036-0.245-0.082-0.366-0.125
	c-0.082-0.029-0.167-0.053-0.248-0.085c-0.126-0.05-0.247-0.11-0.369-0.167c-0.073-0.034-0.148-0.063-0.22-0.1
	c-0.132-0.068-0.258-0.146-0.385-0.223c-0.056-0.034-0.115-0.063-0.171-0.099c-0.14-0.091-0.274-0.191-0.407-0.292
	c-0.037-0.028-0.076-0.052-0.112-0.081c-0.152-0.121-0.298-0.251-0.439-0.386c-0.013-0.013-0.028-0.024-0.041-0.036
	c-0.46-0.447-0.857-0.964-1.176-1.54l0,0l-19.236-34.703l-20-36.082l-61.288-110.572c-0.109-0.197-0.207-0.397-0.294-0.6
	c-0.008-0.019-0.014-0.039-0.022-0.058c-0.59-1.411-0.652-2.939-0.254-4.337l61.858,37.202l20,12.029l5.037,3.029l-0.031,1.785
	c-0.23,13.487,6.808,26.184,18.367,33.134l1.529,0.92L382.913,347.007z M403.07,338.047l1.376-80.52l69.012,41.505L403.07,338.047z"
	/>
<path d="M194.117,398.357c-0.25-0.6-0.56-1.18-0.92-1.73c-0.37-0.54-0.78-1.06-1.25-1.52c-0.46-0.46-0.97-0.88-1.52-1.24
	c-0.54-0.36-1.12-0.67-1.72-0.92c-0.61-0.25-1.23-0.44-1.87-0.57c-1.29-0.26-2.62-0.26-3.91,0c-0.64,0.13-1.27,0.32-1.87,0.57
	c-0.6,0.25-1.19,0.56-1.73,0.92c-0.55,0.36-1.06,0.78-1.52,1.24s-0.88,0.98-1.24,1.52c-0.36,0.55-0.67,1.13-0.92,1.73
	c-0.25,0.6-0.44,1.23-0.57,1.87c-0.13,0.65-0.2,1.3-0.2,1.96c0,0.65,0.07,1.3,0.2,1.95c0.13,0.64,0.32,1.27,0.57,1.87
	c0.25,0.6,0.56,1.18,0.92,1.73c0.36,0.54,0.78,1.05,1.24,1.52c0.46,0.46,0.97,0.88,1.52,1.24c0.54,0.36,1.13,0.67,1.73,0.92
	s1.23,0.44,1.87,0.57c0.64,0.13,1.3,0.19,1.95,0.19c0.66,0,1.31-0.06,1.96-0.19c0.64-0.13,1.26-0.32,1.87-0.57
	c0.6-0.25,1.18-0.56,1.72-0.92c0.55-0.36,1.06-0.78,1.52-1.24c0.47-0.47,0.88-0.98,1.25-1.52c0.36-0.55,0.67-1.13,0.92-1.73
	c0.25-0.6,0.44-1.23,0.57-1.87c0.13-0.65,0.19-1.3,0.19-1.95c0-0.66-0.06-1.31-0.19-1.96
	C194.557,399.587,194.367,398.957,194.117,398.357z"/>
<g>
</g>
<g>
</g>
<g>
</g>
<g>
</g>
<g>
</g>
<g>
</g>
<g>
</g>
<g>
</g>
<g>
</g>
<g>
</g>
<g>
</g>
<g>
</g>
<g>
</g>
<g>
</g>
<g>
</g>
</svg>
