<?xml version="1.0" encoding="iso-8859-1"?>
<!-- Generator: Adobe Illustrator 19.0.0, SVG Export Plug-In . SVG Version: 6.00 Build 0)  -->
<svg version="1.1" id="Capa_1" xmlns="http://www.w3.org/2000/svg" xmlns:xlink="http://www.w3.org/1999/xlink" x="0px" y="0px"
	 viewBox="0 0 512.001 512.001" style="enable-background:new 0 0 512.001 512.001;" xml:space="preserve">
<path style="fill:#E5EAED;" d="M340.022,364.527l-14.954,17.559c-5.1,5.988-14.897,2.382-14.897-5.484V258.841
	c0-17.206,13.948-31.155,31.155-31.155h19.021V98.017c0-17.449-14.145-31.594-31.594-31.594h-25.544l-4.606,26.148
	c-0.994,5.641-5.894,9.754-11.622,9.754h-61.962c-5.728,0-10.628-4.113-11.622-9.754l-4.606-26.148h-25.544
	c-17.449,0-31.594,14.145-31.594,31.594V126.5h19.021c17.206,0,31.155,13.948,31.155,31.155v117.76
	c0,7.866-9.797,11.472-14.897,5.484l-14.954-17.559c-5.381-6.318-12.486-10.79-20.325-12.961v163.603
	c0,17.449,14.145,31.594,31.594,31.594h145.506c17.449,0,31.594-14.145,31.594-31.594v-62.417
	C352.508,353.737,345.403,358.21,340.022,364.527z"/>
<path style="fill:#4CC1EB;" d="M225.019,102.325h61.962c5.728,0,10.628-4.113,11.622-9.754l4.606-26.148h-94.418l4.606,26.148
	C214.39,98.213,219.291,102.325,225.019,102.325z"/>
<path style="fill:#93CA66;" d="M470.845,227.687H360.347h-19.021c-17.206,0-31.155,13.948-31.155,31.155v117.761
	c0,7.865,9.797,11.472,14.897,5.484l14.954-17.559c5.381-6.319,12.486-10.791,20.325-12.961c3.537-0.98,7.223-1.492,10.969-1.492
	h99.53c17.206,0,31.155-13.948,31.155-31.155v-60.078C502,241.635,488.052,227.687,470.845,227.687z"/>
<path style="fill:#EB5664;" d="M171.978,263.34l14.954,17.559c5.1,5.988,14.897,2.382,14.897-5.484v-117.76
	c0-17.206-13.948-31.155-31.155-31.155h-19.021H41.155C23.948,126.5,10,140.448,10,157.655v60.078
	c0,17.206,13.948,31.155,31.155,31.155h99.53c3.745,0,7.432,0.512,10.969,1.492C159.492,252.55,166.597,257.022,171.978,263.34z"/>
<path d="M470.846,217.687H370.347V98.017c0-22.935-18.659-41.593-41.594-41.593h-25.544h-94.418h-25.544
	c-22.935,0-41.594,18.659-41.594,41.593V116.5H41.155C18.462,116.5,0,134.962,0,157.655v60.078
	c0,22.693,18.462,41.155,41.155,41.155h99.53c0.324,0,0.646,0.016,0.969,0.026v155.069c0,22.935,18.659,41.593,41.594,41.593
	h145.506c22.935,0,41.594-18.659,41.594-41.593v-53.882c0.323-0.01,0.645-0.026,0.969-0.026h99.53
	c22.692,0,41.154-18.462,41.154-41.154v-60.079C512,236.149,493.538,217.687,470.846,217.687z M291.294,76.424l-2.539,14.412
	c-0.151,0.863-0.897,1.489-1.773,1.489h-61.963c-0.875,0-1.621-0.626-1.773-1.488l-2.539-14.413H291.294z M140.685,238.888h-99.53
	c-11.665,0-21.155-9.49-21.155-21.155v-60.078c0-11.665,9.49-21.155,21.155-21.155h100.499h20h9.021
	c11.665,0,21.154,9.49,21.154,21.155v113.571l-12.238-14.369c-4.974-5.841-11.119-10.397-17.938-13.465
	c-6.225-2.801-13.013-4.345-20-4.477C141.33,238.908,141.009,238.888,140.685,238.888z M350.347,413.983
	c0,11.907-9.687,21.593-21.594,21.593H183.247c-11.907,0-21.594-9.687-21.594-21.593V267.029c0.953,0.871,1.863,1.799,2.712,2.795
	l14.954,17.558c3.603,4.23,8.693,6.516,13.971,6.516c2.15,0,4.333-0.38,6.458-1.162c7.339-2.702,12.082-9.501,12.082-17.322v-117.76
	c0-22.693-18.462-41.155-41.154-41.155h-9.021V98.017c0-11.907,9.687-21.593,21.594-21.593h17.152l3.15,17.883
	c1.839,10.44,10.869,18.019,21.47,18.019h61.963c10.601,0,19.63-7.578,21.471-18.019l3.15-17.883h17.151
	c11.907,0,21.594,9.687,21.594,21.593v119.67h-9.021c-22.692,0-41.154,18.462-41.154,41.154v117.761
	c0,7.821,4.742,14.62,12.082,17.321c2.125,0.782,4.307,1.162,6.457,1.162c5.277,0,10.368-2.286,13.971-6.516l14.954-17.558
	c0.849-0.996,1.759-1.924,2.712-2.796v45.768H350.347z M492,318.921c0,11.665-9.49,21.154-21.154,21.154h-99.53
	c-0.324,0-0.646,0.02-0.969,0.026c-6.986,0.132-13.775,1.677-20,4.477c-6.819,3.068-12.963,7.625-17.938,13.465l-12.237,14.369
	v-113.57c0-11.665,9.49-21.154,21.154-21.154h9.021h20h100.499c11.664,0,21.154,9.49,21.154,21.154V318.921z"/>
<path d="M60,175h81.653h3.847c5.523,0,10-4.477,10-10s-4.477-10-10-10h-3.847H60c-5.523,0-10,4.477-10,10S54.477,175,60,175z"/>
<path d="M141.68,217.43c0.6,0.25,1.23,0.44,1.87,0.57s1.3,0.19,1.95,0.19s1.31-0.06,1.95-0.19s1.27-0.32,1.87-0.57
	c0.61-0.25,1.19-0.56,1.73-0.92c0.55-0.36,1.06-0.78,1.52-1.24s0.88-0.98,1.24-1.52c0.36-0.55,0.67-1.13,0.92-1.73
	c0.25-0.6,0.45-1.23,0.58-1.87c0.13-0.65,0.19-1.3,0.19-1.96c0-2.63-1.07-5.2-2.93-7.07c-0.46-0.46-0.97-0.88-1.52-1.24
	c-0.54-0.36-1.12-0.67-1.73-0.92c-0.6-0.25-1.23-0.44-1.87-0.57c-1.29-0.26-2.61-0.26-3.9,0c-0.64,0.13-1.27,0.32-1.87,0.57
	c-0.009,0.004-0.017,0.009-0.026,0.012c-0.6,0.248-1.172,0.553-1.704,0.907c-0.55,0.36-1.06,0.78-1.52,1.24s-0.88,0.98-1.24,1.52
	c-0.36,0.55-0.67,1.13-0.92,1.73c-0.25,0.6-0.45,1.23-0.57,1.87c-0.13,0.65-0.2,1.3-0.2,1.95c0,0.66,0.07,1.31,0.2,1.96
	c0.12,0.64,0.32,1.27,0.57,1.87c0.25,0.6,0.56,1.18,0.92,1.73c0.36,0.54,0.78,1.06,1.24,1.52s0.97,0.88,1.52,1.24
	c0.532,0.354,1.104,0.66,1.704,0.907C141.662,217.421,141.671,217.426,141.68,217.43z"/>
<path d="M105.5,198.195H60c-5.523,0-10,4.477-10,10s4.477,10,10,10h45.5c5.523,0,10-4.477,10-10S111.023,198.195,105.5,198.195z"/>
<path d="M448.835,299.487h-78.488h-7.012c-5.522,0-10,4.477-10,10s4.478,10,10,10h7.012h78.488c5.522,0,10-4.477,10-10
	S454.357,299.487,448.835,299.487z"/>
<path d="M458.069,262.47c-0.25-0.61-0.56-1.19-0.92-1.73c-0.369-0.55-0.779-1.06-1.25-1.52c-0.46-0.46-0.97-0.88-1.51-1.24
	c-0.55-0.36-1.13-0.67-1.729-0.92c-0.601-0.25-1.23-0.44-1.87-0.57c-1.29-0.26-2.62-0.26-3.91,0c-0.64,0.13-1.271,0.32-1.87,0.57
	s-1.19,0.56-1.729,0.92c-0.551,0.36-1.061,0.78-1.521,1.24s-0.88,0.97-1.24,1.52c-0.359,0.54-0.67,1.12-0.92,1.73
	c-0.25,0.6-0.439,1.23-0.569,1.87c-0.131,0.64-0.2,1.3-0.2,1.95c0,0.66,0.069,1.31,0.2,1.96c0.13,0.63,0.319,1.26,0.569,1.87
	c0.25,0.6,0.561,1.18,0.92,1.72c0.36,0.55,0.78,1.06,1.24,1.52s0.97,0.88,1.521,1.25c0.539,0.36,1.13,0.67,1.729,0.92
	s1.23,0.44,1.87,0.57c0.65,0.13,1.3,0.19,1.95,0.19c0.66,0,1.31-0.06,1.96-0.19c0.64-0.13,1.27-0.32,1.87-0.57s1.18-0.56,1.729-0.92
	c0.54-0.37,1.05-0.79,1.51-1.25c1.87-1.86,2.94-4.44,2.94-7.07c0-0.65-0.07-1.31-0.2-1.95S458.319,263.07,458.069,262.47z"/>
<path d="M363.335,276.292h7.012h38.488c5.522,0,10-4.477,10-10s-4.478-10-10-10h-38.488h-7.012c-5.522,0-10,4.477-10,10
	S357.813,276.292,363.335,276.292z"/>
<path d="M303.209,401h-94.418c-5.523,0-10,4.477-10,10s4.477,10,10,10h94.418c5.522,0,10-4.477,10-10S308.731,401,303.209,401z"/>
<g>
</g>
<g>
</g>
<g>
</g>
<g>
</g>
<g>
</g>
<g>
</g>
<g>
</g>
<g>
</g>
<g>
</g>
<g>
</g>
<g>
</g>
<g>
</g>
<g>
</g>
<g>
</g>
<g>
</g>
</svg>
