<?xml version="1.0" encoding="iso-8859-1"?>
<!-- Generator: Adobe Illustrator 19.0.0, SVG Export Plug-In . SVG Version: 6.00 Build 0)  -->
<svg version="1.1" id="Capa_1" xmlns="http://www.w3.org/2000/svg" xmlns:xlink="http://www.w3.org/1999/xlink" x="0px" y="0px"
	 viewBox="0 0 512 512" style="enable-background:new 0 0 512 512;" xml:space="preserve">
<path style="fill:#E5EAED;" d="M361.594,408.802c-0.031,0.042-0.063,0.082-0.095,0.123c-0.301,0.396-0.612,0.784-0.936,1.165
	c-0.083,0.098-0.166,0.197-0.25,0.296c-0.368,0.421-0.743,0.836-1.138,1.236l-18.388,18.672l-18.966,19.259
	c-5.212,5.292-12.33,8.273-19.757,8.273h-11.084l0,0H158.457v8.415c0,19.739,16.001,35.741,35.741,35.741h192.18
	c19.739,0,35.741-16.001,35.741-35.741V189.569c0-19.739-16.001-35.741-35.741-35.741h-19.231v238.337
	C367.147,398.2,365.175,404.029,361.594,408.802z"/>
<g>
	<path style="fill:#4CC1EB;" d="M97.684,135.725v290.246c0,17.593,14.261,31.855,31.855,31.855h28.919h132.523v-44.431
		c0-7.902,6.405-14.307,14.307-14.307h60.949c-0.904,3.5-2.47,6.805-4.643,9.715c3.581-4.774,5.553-10.603,5.553-16.637V153.829
		v-18.103c0-17.593-14.261-31.855-31.855-31.855h-136.59l11.353,38.599L148.89,160.46l-16.646-56.59h-2.706
		C111.945,103.87,97.684,118.132,97.684,135.725z M153.583,159.08l51.779-15.23c14.505-4.267,30.046,1.93,37.637,15.006l0.43,0.739
		c4.195,7.228,0.508,16.475-7.509,18.834l-33.037,9.717l2.441-0.718l11.391,54.287c1.055,5.03-1.932,10.026-6.862,11.475l0,0
		c-4.873,1.434-10.037-1.073-11.926-5.788l-20.716-51.705l-30.595,8.999c-8.017,2.358-16.124-3.42-16.51-11.768l-0.039-0.855
		C129.366,176.971,139.078,163.346,153.583,159.08z"/>
	<path style="fill:#4CC1EB;" d="M340.787,430.295l18.388-18.672c0.395-0.401,0.77-0.815,1.138-1.236
		c-0.367,0.422-0.743,0.836-1.138,1.236L340.787,430.295z"/>
	<path style="fill:#4CC1EB;" d="M361.499,408.926c-0.3,0.397-0.613,0.783-0.936,1.165
		C360.887,409.71,361.199,409.321,361.499,408.926z"/>
</g>
<path style="fill:#238FB4;" d="M302.064,457.826c7.428,0,14.546-2.98,19.757-8.273l18.966-19.259l18.388-18.672
	c0.395-0.401,0.771-0.814,1.138-1.236c0.085-0.097,0.167-0.196,0.25-0.296c0.323-0.381,0.636-0.768,0.936-1.165
	c0.031-0.041,0.064-0.082,0.095-0.123c2.173-2.91,3.74-6.215,4.643-9.715h-60.949c-7.902,0-14.307,6.405-14.307,14.307v44.431l0,0
	h11.084V457.826z"/>
<polygon style="fill:#EB5664;" points="210.056,142.468 198.703,103.87 179.767,39.494 118.601,57.485 132.244,103.87 
	148.89,160.461 "/>
<path style="fill:#F39E54;" d="M130.104,192.928c0.386,8.348,8.493,14.126,16.51,11.768l30.595-8.999l0,0l25.673-7.551l33.037-9.717
	c8.017-2.358,11.704-11.606,7.509-18.834l-0.43-0.739c-7.59-13.075-23.132-19.272-37.637-15.006l-51.779,15.23
	c-14.505,4.267-24.216,17.891-23.518,32.995L130.104,192.928z"/>
<path style="fill:#E5EAED;" d="M177.21,195.697l20.716,51.705c1.889,4.715,7.054,7.221,11.926,5.788l0,0
	c4.93-1.451,7.918-6.446,6.862-11.475l-11.391-54.287l-2.441,0.718L177.21,195.697L177.21,195.697z"/>
<path d="M304.659,297.965H200.242c-5.533,0-10.018,4.485-10.018,10.018c0,5.533,4.485,10.018,10.018,10.018h104.417
	c5.532,0,10.018-4.485,10.018-10.018C314.677,302.45,310.192,297.965,304.659,297.965z"/>
<path d="M150.923,311.819c0.25,0.601,0.561,1.182,0.922,1.723c0.361,0.551,0.781,1.062,1.242,1.523
	c0.461,0.461,0.972,0.882,1.523,1.242c0.541,0.361,1.122,0.671,1.733,0.922c0.601,0.25,1.232,0.451,1.873,0.571
	c0.641,0.13,1.302,0.2,1.953,0.2s1.312-0.07,1.964-0.2c0.631-0.12,1.262-0.321,1.873-0.571c0.601-0.25,1.182-0.561,1.723-0.922
	c0.551-0.361,1.062-0.781,1.523-1.242c0.45-0.45,0.861-0.949,1.224-1.485c0.009-0.013,0.02-0.025,0.028-0.038
	c0.361-0.541,0.671-1.122,0.922-1.723c0.25-0.611,0.441-1.242,0.571-1.883s0.19-1.302,0.19-1.953c0-0.651-0.06-1.312-0.19-1.953
	c-0.13-0.641-0.321-1.272-0.571-1.873c-0.25-0.611-0.561-1.192-0.922-1.733c-0.009-0.013-0.019-0.025-0.028-0.038
	c-0.364-0.536-0.774-1.035-1.224-1.485c-0.461-0.461-0.972-0.882-1.523-1.242c-0.541-0.361-1.122-0.671-1.723-0.922
	c-0.611-0.25-1.242-0.441-1.873-0.571c-1.292-0.26-2.625-0.26-3.917,0c-0.641,0.13-1.272,0.321-1.873,0.571
	c-0.611,0.25-1.192,0.561-1.733,0.922c-0.551,0.361-1.062,0.781-1.523,1.242c-0.461,0.461-0.882,0.972-1.242,1.523
	c-0.361,0.541-0.671,1.122-0.922,1.733c-0.25,0.601-0.441,1.232-0.571,1.873c-0.13,0.641-0.2,1.302-0.2,1.953
	c0,0.651,0.07,1.312,0.2,1.953C150.482,310.577,150.672,311.208,150.923,311.819z"/>
<path d="M242.699,365.93h-74.224h-8.304c-5.533,0-10.018,4.485-10.018,10.018s4.485,10.018,10.018,10.018h8.304h74.224
	c5.533,0,10.018-4.485,10.018-10.018S248.232,365.93,242.699,365.93z"/>
<path d="M357.901,308.042c0.25,0.601,0.551,1.182,0.922,1.723c0.361,0.551,0.781,1.062,1.242,1.523s0.972,0.882,1.523,1.252
	c0.541,0.361,1.122,0.671,1.724,0.922c0.61,0.25,1.241,0.441,1.883,0.571c0.641,0.13,1.302,0.19,1.953,0.19
	c0.65,0,1.312-0.06,1.952-0.19c0.642-0.13,1.273-0.321,1.873-0.571c0.611-0.25,1.192-0.561,1.733-0.922
	c0.551-0.371,1.062-0.791,1.523-1.252s0.882-0.972,1.242-1.523c0.361-0.541,0.671-1.122,0.922-1.723
	c0.25-0.611,0.451-1.242,0.571-1.873c0.13-0.651,0.2-1.312,0.2-1.963c0-2.635-1.072-5.219-2.936-7.083
	c-0.461-0.461-0.972-0.882-1.523-1.242c-0.541-0.361-1.122-0.671-1.733-0.922c-0.601-0.25-1.231-0.441-1.873-0.571
	c-1.292-0.26-2.614-0.26-3.906,0c-0.642,0.13-1.273,0.321-1.883,0.571c-0.602,0.25-1.183,0.561-1.724,0.922
	c-0.551,0.361-1.062,0.781-1.523,1.242c-1.863,1.863-2.935,4.448-2.935,7.083c0,0.651,0.069,1.312,0.199,1.963
	C357.449,306.8,357.65,307.431,357.901,308.042z"/>
<path d="M386.378,143.811h-9.212v-8.085c0-23.089-18.784-41.873-41.874-41.873H206.198l-13.994-47.575l2.067-0.608
	c5.973-1.757,10.903-5.734,13.885-11.2c2.981-5.466,3.656-11.765,1.899-17.738c-3.626-12.33-16.606-19.41-28.938-15.783
	L96.596,25.811c-12.33,3.627-19.41,16.608-15.783,28.936c1.757,5.973,5.734,10.903,11.2,13.885
	c3.472,1.894,7.281,2.857,11.128,2.857c2.209,0,4.431-0.318,6.609-0.958l2.068-0.608l7.417,25.216
	c-18.121,4.603-31.568,21.052-31.568,40.586v290.245c0,23.089,18.783,41.872,41.872,41.872h18.942
	C149.329,492.334,169.505,512,194.199,512h192.179c25.232,0,45.759-20.528,45.759-45.758V189.569
	C432.137,164.338,411.609,143.811,386.378,143.811z M208.191,153.46c2.145-0.631,4.318-0.935,6.464-0.935
	c7.944,0,15.486,4.169,19.656,11.321c0.008,0.013,0.017,0.026,0.025,0.04l0.429,0.738c0.609,1.05,0.377,2.019,0.183,2.503
	c-0.192,0.484-0.69,1.347-1.855,1.69l-30.587,8.997c-0.003,0.001-0.005,0.001-0.008,0.002l-28.113,8.27h-0.001l-5.908,1.738
	l-20.036,5.893l-4.652,1.368c-1.166,0.343-2.051-0.113-2.475-0.417c-0.424-0.303-1.145-0.991-1.201-2.206l-0.04-0.853
	c-0.396-8.545,3.962-16.367,11.026-20.597c1.634-0.979,3.413-1.765,5.312-2.324l25.89-7.616L208.191,153.46z M206.522,241.922
	l-6.604-16.482l-9.312-23.241l7.14-2.1l5.317,25.341L206.522,241.922z M197.619,135.685l-20.972,6.169l-20.972,6.169L131.039,64.27
	l20.972-6.169l20.972-6.169L197.619,135.685z M104.096,51.309c-1.729,0.511-3.551-0.485-4.061-2.215
	c-0.509-1.731,0.485-3.552,2.215-4.061l84.522-24.861c1.731-0.508,3.552,0.485,4.062,2.215c0.333,1.131-0.024,2.046-0.266,2.489
	c-0.242,0.445-0.817,1.239-1.948,1.572l-11.676,3.434c0,0-0.001,0-0.002,0l-30.583,8.996L104.096,51.309z M412.101,466.242
	c0,14.184-11.54,25.723-25.724,25.723H194.199c-13.645,0-24.838-10.681-25.669-24.121h122.451h11.083h0.001
	c3.767,0,7.498-0.577,11.065-1.676c5.944-1.831,11.425-5.112,15.83-9.585l37.353-37.931c0.009-0.009,0.016-0.018,0.025-0.027
	c0.528-0.537,1.036-1.093,1.53-1.66c0.094-0.108,0.186-0.218,0.279-0.328c0.461-0.539,0.899-1.093,1.325-1.653
	c0.005-0.006,0.009-0.012,0.013-0.018c4.973-6.532,7.681-14.463,7.681-22.8v-47.887c0-5.533-4.486-10.018-10.018-10.018
	c-5.532,0-10.018,4.485-10.018,10.018v44.791h-51.841c-13.414,0-24.325,10.912-24.325,24.325v34.413H168.475h-20.036h-18.902
	c-12.041,0-21.837-9.796-21.837-21.837V135.725c0-10.448,7.377-19.201,17.195-21.336l12.309,41.845
	c-11.146,8.306-17.82,21.742-17.146,36.303l0.04,0.853c0.327,7.073,3.821,13.485,9.586,17.594c3.943,2.811,8.556,4.266,13.253,4.265
	c1.834,0,3.68-0.236,5.504-0.686c0.335-0.082,0.669-0.158,1.002-0.256l19.034-5.599l2.824-0.83l7.037,17.562h-9.86h-8.304
	c-5.533,0-10.018,4.485-10.018,10.018s4.485,10.018,10.018,10.018h8.304h17.887l2.265,5.654
	c3.099,7.733,10.456,12.493,18.384,12.493c1.874,0,3.78-0.266,5.669-0.821l0,0c7.959-2.34,13.445-9.401,14.17-17.325h77.81
	c5.532,0,10.018-4.485,10.018-10.018s-4.486-10.018-10.018-10.018h-81.123l-6.508-31.013l21.718-6.387
	c6.792-1.998,12.191-6.915,14.813-13.492c1.38-3.462,1.877-7.12,1.528-10.701c-0.315-3.222-1.311-6.382-2.995-9.282l-0.429-0.738
	c-2.208-3.804-4.925-7.158-8.021-10.016c-7.164-6.615-16.367-10.558-26.049-11.22l-5.501-18.702h123.2
	c12.041,0,21.838,9.796,21.838,21.837v8.085v20.036v100.289c0,5.533,4.486,10.018,10.018,10.018c5.532,0,10.018-4.485,10.018-10.018
	V163.847h9.212c14.184,0,25.724,11.54,25.724,25.723v276.672H412.101z M300.999,447.808v-34.413c0-2.365,1.924-4.29,4.29-4.29
	h42.305l-3.87,3.93l-29.04,29.488c-0.601,0.61-1.256,1.155-1.935,1.668c-2.119,1.6-4.572,2.727-7.169,3.258
	c-0.007,0.001-0.013,0.004-0.02,0.005c-0.117,0.024-0.237,0.032-0.355,0.054c-1.033,0.188-2.083,0.3-3.141,0.3L300.999,447.808
	L300.999,447.808z"/>
<g>
</g>
<g>
</g>
<g>
</g>
<g>
</g>
<g>
</g>
<g>
</g>
<g>
</g>
<g>
</g>
<g>
</g>
<g>
</g>
<g>
</g>
<g>
</g>
<g>
</g>
<g>
</g>
<g>
</g>
</svg>
