<?xml version="1.0" encoding="iso-8859-1"?>
<!-- Generator: Adobe Illustrator 19.0.0, SVG Export Plug-In . SVG Version: 6.00 Build 0)  -->
<svg version="1.1" id="Capa_1" xmlns="http://www.w3.org/2000/svg" xmlns:xlink="http://www.w3.org/1999/xlink" x="0px" y="0px"
	 viewBox="0 0 512 512" style="enable-background:new 0 0 512 512;" xml:space="preserve">
<path style="fill:#4CC1EB;" d="M36.324,146.849v221.847h439.353V146.849c0-14.863-12.049-26.912-26.912-26.912h-59.534
	c0.164,0.283,0.319,0.57,0.466,0.862l0,0c0,0.001,0.001,0.002,0.001,0.003c0.137,0.272,0.265,0.548,0.387,0.827
	c0.007,0.016,0.014,0.033,0.021,0.049c0.115,0.266,0.222,0.535,0.323,0.807c0.013,0.036,0.026,0.073,0.04,0.109
	c0.092,0.255,0.179,0.513,0.259,0.773c0.019,0.061,0.036,0.123,0.054,0.184c0.07,0.24,0.137,0.48,0.196,0.723
	c0.023,0.092,0.042,0.185,0.063,0.278c0.049,0.218,0.097,0.436,0.138,0.656c0.024,0.13,0.042,0.26,0.063,0.391
	c0.03,0.189,0.062,0.378,0.085,0.568c0.022,0.182,0.036,0.366,0.053,0.55c0.013,0.145,0.03,0.288,0.039,0.433
	c0.021,0.333,0.032,0.668,0.032,1.004v0.001l0,0v130.016L120.813,225.64v-97.485l0,0v-0.001c0-0.336,0.011-0.671,0.032-1.004
	c0.009-0.144,0.026-0.286,0.038-0.428c0.016-0.186,0.031-0.371,0.053-0.555c0.023-0.19,0.055-0.377,0.085-0.565
	c0.021-0.131,0.039-0.262,0.063-0.393c0.04-0.22,0.089-0.438,0.138-0.656c0.021-0.093,0.04-0.186,0.063-0.278
	c0.059-0.242,0.126-0.482,0.196-0.72c0.018-0.063,0.036-0.125,0.055-0.188c0.08-0.26,0.166-0.516,0.258-0.771
	c0.013-0.036,0.026-0.073,0.04-0.109c0.1-0.272,0.208-0.541,0.323-0.807c0.007-0.017,0.014-0.033,0.021-0.049
	c0.121-0.279,0.25-0.555,0.387-0.827c0-0.001,0.001-0.002,0.001-0.003l0,0c0.147-0.292,0.302-0.579,0.466-0.862H63.236
	C48.373,119.937,36.324,131.986,36.324,146.849z"/>
<path style="fill:#F8C55A;" d="M36.324,407.007c0,14.863,12.049,26.912,26.912,26.912h162.286h60.956h162.286
	c14.863,0,26.912-12.049,26.912-26.912v-38.311H36.324V407.007z"/>
<rect x="225.521" y="433.92" style="fill:#4CC1EB;" width="60.956" height="68.08"/>
<g>
	<path style="fill:#F39E54;" d="M391.451,128.155L391.451,128.155L391.451,128.155z"/>
	<path style="fill:#F39E54;" d="M121.084,125.208c0.041-0.22,0.088-0.438,0.138-0.656
		C121.173,124.77,121.124,124.987,121.084,125.208z"/>
	<path style="fill:#F39E54;" d="M391.38,126.717c0.013,0.144,0.03,0.288,0.039,0.433C391.41,127.004,391.393,126.861,391.38,126.717
		z"/>
	<path style="fill:#F39E54;" d="M391.242,125.598c0.03,0.189,0.061,0.378,0.085,0.568
		C391.304,125.976,391.272,125.788,391.242,125.598z"/>
	<path style="fill:#F39E54;" d="M120.936,126.166c0.023-0.19,0.055-0.377,0.085-0.565
		C120.991,125.789,120.96,125.976,120.936,126.166z"/>
	<path style="fill:#F39E54;" d="M120.845,127.15c0.009-0.144,0.026-0.286,0.038-0.428
		C120.871,126.864,120.854,127.006,120.845,127.15z"/>
	<polygon style="fill:#F39E54;" points="120.813,128.155 120.813,128.155 120.813,128.154 	"/>
	<path style="fill:#F39E54;" d="M391.042,124.552c0.049,0.218,0.097,0.436,0.138,0.656
		C391.139,124.987,391.091,124.77,391.042,124.552z"/>
	<path style="fill:#F39E54;" d="M390.107,121.678c0.115,0.266,0.222,0.535,0.323,0.807
		C390.33,122.213,390.222,121.944,390.107,121.678z"/>
	<path style="fill:#F39E54;" d="M389.699,120.802c0.137,0.272,0.265,0.548,0.387,0.827
		C389.964,121.349,389.836,121.074,389.699,120.802z"/>
	<path style="fill:#F39E54;" d="M390.47,122.594c0.093,0.255,0.179,0.513,0.259,0.773
		C390.649,123.107,390.562,122.85,390.47,122.594z"/>
	<path style="fill:#F39E54;" d="M390.782,123.551c0.071,0.24,0.137,0.48,0.196,0.723
		C390.92,124.031,390.853,123.791,390.782,123.551z"/>
	<path style="fill:#F39E54;" d="M121.535,123.366c0.08-0.26,0.166-0.517,0.258-0.771
		C121.702,122.849,121.615,123.106,121.535,123.366z"/>
	<path style="fill:#F39E54;" d="M121.285,124.274c0.06-0.242,0.126-0.482,0.196-0.72
		C121.411,123.792,121.344,124.031,121.285,124.274z"/>
	<path style="fill:#F39E54;" d="M121.834,122.485c0.101-0.272,0.208-0.541,0.323-0.807
		C122.042,121.944,121.934,122.213,121.834,122.485z"/>
	<path style="fill:#F39E54;" d="M122.178,121.629c0.122-0.279,0.25-0.555,0.387-0.827
		C122.428,121.074,122.299,121.349,122.178,121.629z"/>
	<path style="fill:#F39E54;" d="M241.915,169.248c9.117,3.701,19.318,3.701,28.434,0l119.349-48.449
		c-0.147-0.292-0.302-0.579-0.466-0.862c-1.306-2.25-3.143-4.196-5.413-5.629l-61.545-38.861V147.7l-51.712,21.359
		c-9.241,3.817-19.618,3.817-28.859,0L189.99,147.7V75.447l-61.545,38.861c-2.27,1.434-4.107,3.379-5.413,5.629
		c-0.164,0.283-0.319,0.57-0.466,0.862L241.915,169.248z"/>
</g>
<path style="fill:#E5EAED;" d="M189.99,147.7l51.712,21.359c9.241,3.817,19.618,3.817,28.859,0l51.712-21.359V75.447V19.101
	c0-5.027-4.075-9.101-9.101-9.101h-114.08c-5.027,0-9.101,4.075-9.101,9.101v56.345V147.7H189.99z"/>
<path style="fill:#F8C55A;" d="M241.915,169.248l-119.349-48.449l0,0c0,0.001-0.001,0.002-0.001,0.003
	c-0.137,0.272-0.265,0.548-0.387,0.827c-0.007,0.016-0.014,0.033-0.021,0.049c-0.115,0.266-0.222,0.535-0.323,0.807
	c-0.014,0.036-0.027,0.073-0.04,0.109c-0.092,0.255-0.178,0.512-0.258,0.771c-0.019,0.062-0.036,0.125-0.055,0.188
	c-0.07,0.239-0.136,0.479-0.196,0.72c-0.023,0.092-0.042,0.185-0.063,0.278c-0.05,0.218-0.097,0.436-0.138,0.656
	c-0.024,0.13-0.042,0.262-0.063,0.393c-0.03,0.188-0.061,0.376-0.085,0.565c-0.023,0.184-0.037,0.37-0.053,0.555
	c-0.013,0.143-0.03,0.285-0.038,0.428c-0.021,0.333-0.032,0.668-0.032,1.004v0.001v97.485l270.639,32.531V128.155v-0.001
	c0-0.336-0.011-0.671-0.032-1.004c-0.009-0.145-0.026-0.289-0.039-0.433c-0.016-0.184-0.03-0.367-0.053-0.55
	c-0.024-0.191-0.055-0.379-0.085-0.568c-0.021-0.13-0.039-0.261-0.063-0.391c-0.041-0.22-0.088-0.438-0.138-0.656
	c-0.021-0.093-0.04-0.186-0.063-0.278c-0.06-0.243-0.126-0.484-0.196-0.723c-0.018-0.061-0.035-0.123-0.054-0.184
	c-0.08-0.26-0.166-0.518-0.259-0.773c-0.013-0.036-0.026-0.073-0.04-0.109c-0.101-0.272-0.208-0.541-0.323-0.807
	c-0.007-0.017-0.014-0.033-0.021-0.049c-0.122-0.279-0.25-0.555-0.387-0.827c0-0.001-0.001-0.002-0.001-0.003l0,0l-119.349,48.449
	C261.232,172.949,251.032,172.949,241.915,169.248z"/>
<path d="M26.324,146.85v221.847v38.312c0,20.354,16.559,36.912,36.912,36.912h152.286V492h-26.811c-5.523,0-10,4.478-10,10
	s4.477,10,10,10h36.811h60.956h36.812c5.522,0,10-4.478,10-10s-4.478-10-10-10h-26.812v-48.08h152.287
	c20.354,0,36.912-16.559,36.912-36.912v-38.312V146.85c0-20.354-16.559-36.912-36.912-36.912h-54.611
	c-1.474-1.537-3.143-2.914-4.998-4.085l-56.884-35.917V19.102C332.273,8.569,323.704,0,313.172,0h-114.08
	c-10.533,0-19.102,8.569-19.102,19.102v50.833l-56.884,35.917c-1.854,1.171-3.523,2.548-4.997,4.085H63.237
	C42.883,109.938,26.324,126.496,26.324,146.85z M235.523,492v-48.08h40.956V492H235.523z M130.813,134.939l107.341,43.574
	c11.593,4.705,24.361,4.705,35.957,0l107.34-43.574v111.957L130.813,216.77V134.939z M332.273,129.938v-20v-16.35l25.894,16.35
	l12.405,7.833L340.6,129.938l-8.327,3.38V129.938z M199.99,129.938v-20V80.959V57.307V20h112.283v37.307v23.652v28.979v20v11.073
	l-45.529,18.806c-6.842,2.828-14.38,2.826-21.224,0.001l-45.53-18.807L199.99,129.938L199.99,129.938z M154.096,109.938
	l25.894-16.35v16.35v20v3.38l-8.326-3.38l-29.973-12.168L154.096,109.938z M110.813,214.498l-24.271-2.91
	c-5.485-0.666-10.462,3.255-11.119,8.738c-0.658,5.483,3.255,10.462,8.738,11.119l337.948,40.52
	c0.404,0.049,0.806,0.072,1.203,0.072c4.991,0,9.308-3.731,9.916-8.811c0.657-5.483-3.255-10.462-8.738-11.119l-23.038-2.762
	V129.938h47.314c9.325,0,16.912,7.587,16.912,16.912v211.847h-25.787c-5.522,0-10,4.478-10,10s4.478,10,10,10h25.786v28.312
	c0,9.325-7.587,16.912-16.912,16.912H286.478h-60.956H63.237c-9.325,0-16.912-7.587-16.912-16.912v-28.312h313.566
	c5.522,0,10-4.478,10-10s-4.478-10-10-10H46.324V146.85c0-9.325,7.587-16.912,16.912-16.912h47.576L110.813,214.498L110.813,214.498
	z"/>
<path d="M220.798,67.821c1.716,1.386,3.897,2.219,6.275,2.219h58.118c2.377,0,4.558-0.833,6.275-2.219
	c2.27-1.833,3.725-4.636,3.725-7.781c0-5.522-4.478-10-10-10h-22.9h-12.318h-22.9c-5.523,0-10,4.478-10,10
	C217.073,63.185,218.528,65.987,220.798,67.821z"/>
<path d="M295.191,110.124c0-0.063-0.008-0.124-0.009-0.187c-0.1-5.436-4.531-9.813-9.991-9.813h-58.118
	c-5.46,0-9.89,4.378-9.991,9.813c-0.001,0.063-0.009,0.124-0.009,0.187c0,5.522,4.477,10,10,10h58.118
	C290.714,120.124,295.191,115.646,295.191,110.124z"/>
<path d="M264.834,391.308h-16.883c-5.523,0-10,4.478-10,10s4.477,10,10,10h16.883c5.522,0,10-4.478,10-10
	S270.356,391.308,264.834,391.308z"/>
<path d="M390.661,372.52c0.25,0.601,0.56,1.19,0.92,1.73c0.359,0.55,0.779,1.06,1.239,1.52c0.461,0.46,0.971,0.88,1.521,1.24
	c0.54,0.36,1.12,0.67,1.72,0.92c0.61,0.25,1.24,0.44,1.88,0.57c0.641,0.13,1.301,0.2,1.95,0.2c0.65,0,1.311-0.07,1.95-0.2
	s1.27-0.32,1.87-0.57c0.609-0.25,1.189-0.56,1.729-0.92c0.551-0.36,1.061-0.78,1.521-1.24s0.88-0.97,1.24-1.52
	c0.359-0.54,0.67-1.13,0.92-1.73s0.439-1.229,0.569-1.87c0.13-0.64,0.2-1.3,0.2-1.949c0-0.66-0.07-1.311-0.2-1.96
	c-0.12-0.641-0.319-1.261-0.569-1.87c-0.25-0.601-0.561-1.181-0.92-1.721c-0.36-0.55-0.78-1.06-1.24-1.52
	c-0.46-0.47-0.97-0.88-1.521-1.25c-0.54-0.36-1.12-0.67-1.729-0.92c-0.601-0.25-1.23-0.44-1.87-0.57c-1.29-0.26-2.62-0.26-3.9,0
	c-0.64,0.13-1.27,0.32-1.88,0.57c-0.6,0.25-1.18,0.56-1.72,0.92c-0.55,0.37-1.06,0.78-1.521,1.25c-0.46,0.46-0.88,0.97-1.25,1.52
	c-0.35,0.54-0.659,1.12-0.909,1.721c-0.25,0.609-0.45,1.229-0.57,1.87c-0.13,0.649-0.2,1.31-0.2,1.96c0,0.649,0.07,1.31,0.2,1.949
	C390.211,371.29,390.411,371.92,390.661,372.52z"/>
<g>
</g>
<g>
</g>
<g>
</g>
<g>
</g>
<g>
</g>
<g>
</g>
<g>
</g>
<g>
</g>
<g>
</g>
<g>
</g>
<g>
</g>
<g>
</g>
<g>
</g>
<g>
</g>
<g>
</g>
</svg>
