<?xml version="1.0" encoding="iso-8859-1"?>
<!-- Generator: Adobe Illustrator 19.0.0, SVG Export Plug-In . SVG Version: 6.00 Build 0)  -->
<svg version="1.1" id="Capa_1" xmlns="http://www.w3.org/2000/svg" xmlns:xlink="http://www.w3.org/1999/xlink" x="0px" y="0px"
	 viewBox="0 0 512 512" style="enable-background:new 0 0 512 512;" xml:space="preserve">
<g>
	<path style="fill:#238FB4;" d="M478.395,332.71c0.07,0.619,0.119,1.241,0.157,1.864
		C478.514,333.951,478.464,333.328,478.395,332.71z"/>
	<path style="fill:#238FB4;" d="M34.296,328.628h140.929c4.201,0,7.607,3.406,7.607,7.607v37.642
		c0,6.618,5.365,11.983,11.983,11.983h122.371c6.618,0,11.983-5.365,11.983-11.983v-37.642c0-4.201,3.406-7.607,7.607-7.607h140.929
		c-0.579-2.561-1.424-5.063-2.534-7.459l-63.357-136.729c-4.203-9.071-13.292-14.876-23.289-14.876h-29.149v61.069
		c0,7.872-6.382,14.254-14.253,14.254H166.879c-7.872,0-14.253-6.382-14.253-14.254v-61.069h-29.149
		c-9.998,0-19.086,5.805-23.289,14.876L36.83,321.169c-1.692,3.652-2.775,7.545-3.222,11.527
		C33.763,331.327,33.993,329.969,34.296,328.628z"/>
	<path style="fill:#238FB4;" d="M478.57,334.783c0.038,0.686,0.058,1.374,0.058,2.063
		C478.628,336.156,478.608,335.469,478.57,334.783z"/>
	<path style="fill:#238FB4;" d="M477.705,328.628c0.302,1.337,0.531,2.69,0.686,4.053
		C478.238,331.317,478.008,329.965,477.705,328.628z"/>
	<path style="fill:#238FB4;" d="M33.447,334.594c0.039-0.631,0.089-1.26,0.16-1.886C33.536,333.335,33.485,333.964,33.447,334.594z"
		/>
	<path style="fill:#238FB4;" d="M33.373,336.845c0-0.689,0.02-1.378,0.058-2.064C33.394,335.468,33.373,336.156,33.373,336.845z"/>
</g>
<path style="fill:#4CC1EB;" d="M329.17,336.235v37.642c0,6.618-5.365,11.983-11.983,11.983H194.815
	c-6.618,0-11.983-5.365-11.983-11.983v-37.642c0-4.201-3.406-7.607-7.607-7.607H34.296c-0.303,1.342-0.533,2.699-0.688,4.068
	c0,0.004-0.001,0.008-0.002,0.012c-0.071,0.626-0.121,1.256-0.16,1.886c-0.004,0.063-0.012,0.125-0.015,0.187
	c-0.039,0.686-0.058,1.375-0.058,2.064c0,0.001,0,0.002,0,0.003l0,0v136.572c0,15.785,12.796,28.581,28.581,28.581h388.093
	c15.785,0,28.581-12.796,28.581-28.581V336.849l0,0c0-0.001,0-0.002,0-0.003c0-0.689-0.02-1.377-0.058-2.063
	c-0.004-0.07-0.013-0.14-0.017-0.21c-0.038-0.623-0.088-1.245-0.157-1.864c-0.001-0.009-0.003-0.019-0.004-0.028
	c-0.155-1.363-0.383-2.716-0.686-4.053l0,0l0,0H336.777C332.576,328.628,329.17,332.034,329.17,336.235z"/>
<path style="fill:#F8C55A;" d="M166.879,244.887h178.243c7.872,0,14.253-6.382,14.253-14.254v-61.069v-37.872l-84.649,48.828
	c-11.589,6.685-25.863,6.685-37.452,0l-84.649-48.828v37.872v61.069C152.626,238.507,159.007,244.887,166.879,244.887z"/>
<path style="fill:#F39E54;" d="M237.275,180.521c11.589,6.685,25.863,6.685,37.452,0l84.649-48.828c0-1.968-0.399-3.843-1.12-5.548
	c-0.361-0.853-0.802-1.663-1.314-2.421c-0.256-0.379-0.53-0.746-0.821-1.097c-0.581-0.704-1.228-1.351-1.932-1.932
	c-0.352-0.291-0.718-0.564-1.097-0.821c-0.758-0.512-1.569-0.953-2.421-1.314c-1.705-0.721-3.58-1.12-5.548-1.12H166.879
	c-1.968,0-3.843,0.399-5.548,1.12c-0.853,0.361-1.663,0.802-2.421,1.314c-0.379,0.256-0.745,0.53-1.097,0.821
	c-0.704,0.581-1.351,1.228-1.932,1.932c-0.291,0.352-0.564,0.718-0.821,1.097c-0.512,0.758-0.953,1.568-1.314,2.421
	c-0.721,1.705-1.12,3.58-1.12,5.548L237.275,180.521z"/>
<path d="M24.542,326.422c-0.013,0.058-0.022,0.118-0.035,0.176c-0.065,0.291-0.114,0.584-0.173,0.876
	c-0.113,0.556-0.229,1.111-0.321,1.67c-0.05,0.301-0.083,0.604-0.127,0.906c-0.08,0.55-0.166,1.099-0.227,1.65
	c-0.045,0.406-0.068,0.812-0.102,1.218c-0.038,0.45-0.087,0.9-0.111,1.35c-0.048,0.86-0.073,1.721-0.073,2.58v115.693v20.879
	c0,21.273,17.307,38.58,38.581,38.58h388.094c21.273,0,38.58-17.307,38.58-38.58v-20.879V336.848c0-0.859-0.025-1.719-0.072-2.579
	c-0.026-0.478-0.077-0.956-0.118-1.433c-0.032-0.378-0.054-0.756-0.095-1.133c-0.065-0.586-0.154-1.17-0.241-1.754
	c-0.039-0.266-0.068-0.533-0.112-0.799c-0.1-0.604-0.224-1.205-0.348-1.806c-0.05-0.244-0.09-0.49-0.144-0.733
	c-0.014-0.062-0.023-0.124-0.037-0.186c-0.032-0.142-0.076-0.279-0.114-0.419c-0.733-3.113-1.764-6.154-3.102-9.042l-63.357-136.729
	c-5.82-12.557-18.523-20.671-32.363-20.671h-19.148v-27.872c0-13.373-10.88-24.253-24.254-24.253H166.88
	c-13.374,0-24.253,10.88-24.253,24.253v27.872h-19.149c-13.84,0-26.543,8.114-32.363,20.672L27.756,316.965
	c-1.342,2.896-2.375,5.946-3.108,9.067C24.613,326.161,24.572,326.289,24.542,326.422z M468.628,473.421
	c0,10.245-8.335,18.58-18.58,18.58H61.954c-10.246,0-18.581-8.335-18.581-18.58v-10.879H355c5.522,0,10-4.478,10-10s-4.478-10-10-10
	H43.373V338.628h129.458v35.249c0,12.122,9.862,21.983,21.983,21.983h122.371c12.122,0,21.983-9.861,21.983-21.983v-35.249h129.458
	v103.914h-33.627c-5.522,0-10,4.478-10,10s4.478,10,10,10h33.627v10.879H468.628z M349.376,159.564v20v33.757l-55.75-32.158
	l2.772-1.599l34.672-20l18.306-10.559V159.564z M165.628,234.678L239,192.355c5.463,2.09,11.229,3.157,17.001,3.157
	s11.538-1.068,17.001-3.157l73.372,42.323c-0.086,0.027-0.169,0.059-0.257,0.08c-0.073,0.018-0.145,0.037-0.22,0.051
	c-0.252,0.047-0.509,0.078-0.775,0.078H166.88c-0.265,0-0.523-0.032-0.775-0.078c-0.074-0.014-0.147-0.034-0.22-0.051
	C165.797,234.738,165.714,234.706,165.628,234.678z M166.106,127.518c0.252-0.046,0.508-0.078,0.773-0.078h178.242
	c0.265,0,0.522,0.032,0.774,0.078c0.076,0.014,0.149,0.034,0.223,0.052c0.087,0.021,0.169,0.053,0.254,0.079l-55.33,31.916
	l-17.431,10.055l-3.882,2.239c-8.47,4.884-18.99,4.884-27.459,0l-3.882-2.239l-17.431-10.055l-55.329-31.916
	c0.085-0.026,0.167-0.058,0.253-0.079C165.957,127.553,166.03,127.532,166.106,127.518z M180.932,159.564l34.672,20l2.771,1.599
	l-55.75,32.158v-33.757v-20v-10.56L180.932,159.564z M109.261,188.645c2.556-5.516,8.136-9.08,14.216-9.08h19.149v51.069
	c0,13.374,10.88,24.254,24.253,24.254h178.242c13.374,0,24.254-10.88,24.254-24.254v-51.069h19.148c6.08,0,11.66,3.564,14.217,9.08
	l60.231,129.983H336.777c-9.709,0-17.607,7.898-17.607,17.607v37.642c0,1.094-0.89,1.983-1.983,1.983H194.815
	c-1.094,0-1.983-0.89-1.983-1.983v-37.642c0-9.709-7.898-17.607-17.607-17.607H49.029L109.261,188.645z"/>
<path d="M256.001,89.548c5.522,0,10-4.478,10-10V29.373l12.473,8.862c1.758,1.249,3.78,1.85,5.783,1.85
	c3.129,0,6.211-1.464,8.16-4.209c3.199-4.502,2.143-10.745-2.359-13.943L261.793,1.85c-3.469-2.466-8.116-2.466-11.584,0
	l-28.265,20.083c-4.502,3.198-5.559,9.441-2.36,13.943c3.199,4.503,9.442,5.56,13.944,2.359l12.473-8.862v50.173
	C246.001,85.07,250.478,89.548,256.001,89.548z"/>
<path d="M404.23,448.72c-0.25-0.61-0.56-1.189-0.92-1.729c-0.359-0.551-0.779-1.061-1.24-1.521c-0.46-0.46-0.97-0.88-1.52-1.24
	c-0.54-0.359-1.12-0.67-1.73-0.92c-0.6-0.25-1.229-0.45-1.869-0.569c-1.29-0.261-2.61-0.261-3.9,0
	c-0.64,0.119-1.27,0.319-1.87,0.569c-0.61,0.25-1.189,0.561-1.729,0.92c-0.551,0.36-1.061,0.78-1.521,1.24s-0.88,0.97-1.24,1.521
	c-0.359,0.54-0.67,1.119-0.92,1.729c-0.25,0.6-0.45,1.23-0.569,1.87c-0.131,0.64-0.2,1.3-0.2,1.95c0,0.649,0.069,1.31,0.2,1.96
	c0.119,0.63,0.319,1.26,0.569,1.87c0.25,0.6,0.561,1.18,0.92,1.72c0.36,0.55,0.78,1.06,1.24,1.52s0.97,0.881,1.521,1.25
	c0.54,0.36,1.119,0.671,1.729,0.921c0.601,0.239,1.23,0.439,1.87,0.569s1.3,0.19,1.95,0.19c0.649,0,1.31-0.061,1.95-0.19
	c0.64-0.13,1.27-0.33,1.869-0.569c0.61-0.25,1.19-0.561,1.73-0.921c0.55-0.369,1.06-0.79,1.52-1.25c0.461-0.46,0.881-0.97,1.24-1.52
	c0.36-0.54,0.67-1.12,0.92-1.72c0.25-0.61,0.45-1.24,0.57-1.87c0.13-0.65,0.2-1.311,0.2-1.96c0-0.65-0.07-1.311-0.2-1.95
	C404.68,449.951,404.48,449.32,404.23,448.72z"/>
<g>
</g>
<g>
</g>
<g>
</g>
<g>
</g>
<g>
</g>
<g>
</g>
<g>
</g>
<g>
</g>
<g>
</g>
<g>
</g>
<g>
</g>
<g>
</g>
<g>
</g>
<g>
</g>
<g>
</g>
</svg>
