<?xml version="1.0" encoding="iso-8859-1"?>
<!-- Generator: Adobe Illustrator 19.0.0, SVG Export Plug-In . SVG Version: 6.00 Build 0)  -->
<svg version="1.1" id="Capa_1" xmlns="http://www.w3.org/2000/svg" xmlns:xlink="http://www.w3.org/1999/xlink" x="0px" y="0px"
	 viewBox="0 0 512 512" style="enable-background:new 0 0 512 512;" xml:space="preserve">
<path style="fill:#EB5664;" d="M294.077,483.232l118.906-154.811c60.529-78.807,53.249-190.275-17.015-260.54l0,0
	c-77.302-77.302-202.632-77.302-279.934,0l0,0c-70.264,70.264-77.545,181.734-17.015,260.54l118.906,154.811
	C237.141,508.253,274.859,508.253,294.077,483.232z M111.355,207.842c0-79.885,64.759-144.645,144.645-144.645
	s144.645,64.759,144.645,144.645S335.885,352.486,256,352.486S111.355,287.727,111.355,207.842z"/>
<path style="fill:#E5EAED;" d="M400.645,207.842c0-79.885-64.759-144.645-144.645-144.645s-144.645,64.759-144.645,144.645
	S176.115,352.486,256,352.486S400.645,287.727,400.645,207.842z M164.983,248.7v-87.114c0-0.433,0.022-0.861,0.065-1.283
	c0.129-1.265,0.445-2.475,0.921-3.602c0.159-0.375,0.335-0.741,0.528-1.097c0.386-0.711,0.839-1.381,1.351-2
	c0.256-0.31,0.526-0.607,0.81-0.891c0.851-0.852,1.825-1.581,2.892-2.161c1.778-0.966,3.816-1.514,5.982-1.514h156.936
	c2.166,0,4.204,0.549,5.982,1.514c1.067,0.58,2.04,1.309,2.892,2.161c0.284,0.284,0.554,0.581,0.81,0.891
	c0.511,0.62,0.964,1.289,1.351,2c0.193,0.356,0.37,0.722,0.528,1.097c0.476,1.126,0.793,2.336,0.921,3.602
	c0.043,0.422,0.065,0.85,0.065,1.283V248.7c0,6.931-5.619,12.549-12.549,12.549H177.532
	C170.602,261.249,164.983,255.631,164.983,248.7z"/>
<g>
	<path style="fill:#4CC1EB;" d="M168.658,152.712c0.851-0.852,1.825-1.581,2.892-2.161
		C170.484,151.131,169.509,151.86,168.658,152.712z"/>
	<path style="fill:#4CC1EB;" d="M340.45,150.551c1.067,0.58,2.04,1.309,2.892,2.161C342.491,151.86,341.516,151.131,340.45,150.551z
		"/>
	<path style="fill:#4CC1EB;" d="M347.017,248.7v-87.114l-77.968,44.975c-8.076,4.659-18.023,4.659-26.099,0l-77.968-44.975V248.7
		c0,6.931,5.619,12.549,12.549,12.549h156.936C341.398,261.249,347.017,255.631,347.017,248.7z"/>
</g>
<path style="fill:#238FB4;" d="M269.049,206.561l77.968-44.975c0-0.433-0.022-0.861-0.065-1.283
	c-0.129-1.265-0.445-2.475-0.921-3.602c-0.159-0.375-0.335-0.741-0.528-1.097c-0.386-0.711-0.839-1.381-1.351-2
	c-0.256-0.31-0.526-0.607-0.81-0.891c-0.851-0.852-1.825-1.581-2.892-2.161c-1.778-0.966-3.816-1.514-5.982-1.514H177.532
	c-2.166,0-4.204,0.549-5.982,1.514c-1.067,0.58-2.04,1.309-2.892,2.161c-0.284,0.284-0.554,0.581-0.81,0.891
	c-0.511,0.62-0.964,1.289-1.351,2c-0.193,0.356-0.37,0.722-0.528,1.097c-0.476,1.126-0.793,2.336-0.921,3.602
	c-0.043,0.422-0.065,0.85-0.065,1.283l77.968,44.975C251.027,211.218,260.974,211.218,269.049,206.561z"/>
<path d="M256,512c18.171,0,34.941-8.266,46.01-22.675l118.906-154.812c30.754-40.04,45.878-89.837,42.587-140.217
	c-3.29-50.381-24.763-97.788-60.463-133.489c-81.079-81.078-213.002-81.077-294.08,0.001c-35.7,35.7-57.173,83.106-60.463,133.488
	c-3.291,50.38,11.833,100.177,42.587,140.217L209.99,489.325C221.059,503.734,237.83,512,256,512z M123.106,74.952
	c36.639-36.639,84.766-54.958,132.893-54.958c48.128,0,96.256,18.32,132.895,54.959c66.473,66.473,73.418,172.82,16.156,247.375
	v-0.001L286.146,477.139c-7.252,9.442-18.239,14.857-30.146,14.857c-11.906,0-22.893-5.415-30.146-14.857L106.948,322.33
	C49.688,247.774,56.633,141.425,123.106,74.952z"/>
<path d="M410.646,207.842c0-25.599-6.387-50.964-18.472-73.354c-2.622-4.86-8.691-6.675-13.552-4.051
	c-4.861,2.624-6.675,8.691-4.052,13.553c10.514,19.48,16.07,41.56,16.07,63.852c0,74.242-60.401,134.642-134.642,134.642
	s-134.641-60.4-134.641-134.642c0-74.243,60.401-134.643,134.642-134.643c23.567,0,46.751,6.174,67.049,17.853
	c4.787,2.759,10.902,1.106,13.657-3.681c2.756-4.788,1.107-10.902-3.681-13.657c-23.327-13.425-49.963-20.52-77.026-20.52
	c-85.272,0-154.646,69.374-154.646,154.647s69.373,154.646,154.646,154.646S410.646,293.114,410.646,207.842z"/>
<path d="M177.532,139.035c-12.435,0-22.551,10.117-22.551,22.552v87.114c0,12.435,10.116,22.551,22.551,22.551h156.936
	c12.435,0,22.551-10.116,22.551-22.551v-87.114c0-12.435-10.116-22.552-22.551-22.552L177.532,139.035L177.532,139.035z
	 M331.417,159.038l-59.953,34.583l-7.412,4.276c-4.965,2.866-11.135,2.867-16.104,0l-7.412-4.276l-59.952-34.583H331.417z
	 M174.984,231.383v-52.481l45.492,26.241L174.984,231.383z M180.585,251.247l60.051-34.64c4.854,2.279,10.106,3.433,15.365,3.433
	c5.257,0,10.51-1.154,15.364-3.433l60.053,34.641H180.585V251.247z M337.016,231.383l-45.492-26.241l45.492-26.241V231.383z"/>
<path d="M355.279,116.493c0.54,0.36,1.12,0.671,1.72,0.921c0.61,0.25,1.23,0.439,1.87,0.569c0.65,0.13,1.3,0.2,1.96,0.2
	c2.631,0,5.211-1.07,7.071-2.941c1.86-1.859,2.931-4.431,2.931-7.07c0-0.65-0.069-1.311-0.2-1.95c-0.13-0.64-0.319-1.27-0.569-1.87
	c-0.25-0.6-0.561-1.189-0.92-1.729c-0.36-0.551-0.78-1.061-1.24-1.521c-0.46-0.46-0.97-0.88-1.521-1.24
	c-0.54-0.359-1.119-0.67-1.729-0.92c-0.6-0.25-1.23-0.439-1.87-0.569c-1.29-0.261-2.621-0.261-3.911,0
	c-0.64,0.13-1.26,0.319-1.87,0.569c-0.6,0.25-1.18,0.561-1.72,0.92c-0.55,0.36-1.06,0.78-1.52,1.24
	c-0.471,0.46-0.881,0.97-1.25,1.521c-0.36,0.54-0.671,1.119-0.921,1.729c-0.25,0.601-0.439,1.23-0.569,1.87s-0.19,1.3-0.19,1.95
	c0,2.641,1.061,5.211,2.932,7.07C354.219,115.704,354.729,116.124,355.279,116.493z"/>
<g>
</g>
<g>
</g>
<g>
</g>
<g>
</g>
<g>
</g>
<g>
</g>
<g>
</g>
<g>
</g>
<g>
</g>
<g>
</g>
<g>
</g>
<g>
</g>
<g>
</g>
<g>
</g>
<g>
</g>
</svg>
