<?xml version="1.0" encoding="iso-8859-1"?>
<!-- Generator: Adobe Illustrator 19.0.0, SVG Export Plug-In . SVG Version: 6.00 Build 0)  -->
<svg version="1.1" id="Capa_1" xmlns="http://www.w3.org/2000/svg" xmlns:xlink="http://www.w3.org/1999/xlink" x="0px" y="0px"
	 viewBox="0 0 511.999 511.999" style="enable-background:new 0 0 511.999 511.999;" xml:space="preserve">
<g>
	<path style="fill:#F39E54;" d="M501.258,232.743c0.089,0.35,0.175,0.7,0.248,1.054
		C501.433,233.444,501.346,233.094,501.258,232.743z"/>
	<path style="fill:#F39E54;" d="M500.786,231.118c0.127,0.385,0.247,0.773,0.355,1.165
		C501.034,231.892,500.913,231.505,500.786,231.118z"/>
	<path style="fill:#F39E54;" d="M277.433,306.834l221.379-80.185c-2.393-4.244-6.043-7.912-10.688-10.529L376.24,153.086v117.199
		l-98.477,36.292c-14.047,5.177-29.479,5.177-43.526,0l-98.477-36.292V153.086L23.876,216.121
		c-4.646,2.617-8.295,6.285-10.688,10.529l221.379,80.185C248.415,311.85,263.585,311.85,277.433,306.834z"/>
	<path style="fill:#F39E54;" d="M501.623,234.447c0.054,0.302,0.11,0.603,0.152,0.908
		C501.733,235.049,501.676,234.749,501.623,234.447z"/>
	<path style="fill:#F39E54;" d="M500.217,229.565c0.167,0.412,0.323,0.827,0.468,1.247
		C500.541,230.392,500.384,229.977,500.217,229.565z"/>
	<path style="fill:#F39E54;" d="M501.873,236.268c0.022,0.227,0.052,0.452,0.068,0.679
		C501.926,236.72,501.895,236.496,501.873,236.268z"/>
	<path style="fill:#F39E54;" d="M11.315,230.811c0.145-0.42,0.301-0.835,0.468-1.247C11.616,229.977,11.459,230.392,11.315,230.811z
		"/>
	<path style="fill:#F39E54;" d="M10.859,232.284c0.108-0.391,0.227-0.779,0.355-1.165C11.087,231.505,10.966,231.892,10.859,232.284
		z"/>
	<path style="fill:#F39E54;" d="M10.494,233.798c0.073-0.354,0.159-0.704,0.248-1.054C10.654,233.094,10.567,233.444,10.494,233.798
		z"/>
	<path style="fill:#F39E54;" d="M11.857,229.382c0.183-0.44,0.377-0.875,0.585-1.305C12.234,228.507,12.039,228.941,11.857,229.382z
		"/>
	<path style="fill:#F39E54;" d="M10.059,236.948c0.016-0.228,0.046-0.453,0.068-0.679C10.105,236.496,10.074,236.72,10.059,236.948z
		"/>
	<path style="fill:#F39E54;" d="M10.225,235.354c0.042-0.304,0.098-0.606,0.152-0.908C10.324,234.749,10.267,235.049,10.225,235.354
		z"/>
	<path style="fill:#F39E54;" d="M499.558,228.077c0.208,0.43,0.403,0.866,0.585,1.305
		C499.961,228.941,499.766,228.507,499.558,228.077z"/>
	<path style="fill:#F39E54;" d="M498.816,226.656c0.248,0.44,0.481,0.886,0.701,1.337
		C499.297,227.542,499.064,227.096,498.816,226.656z"/>
	<path style="fill:#F39E54;" d="M12.483,227.993c0.22-0.451,0.453-0.897,0.701-1.337C12.936,227.096,12.703,227.542,12.483,227.993z
		"/>
</g>
<path style="fill:#E5EAED;" d="M234.237,306.577c14.047,5.177,29.479,5.177,43.526,0l98.477-36.292V153.086V63.203
	c0-16.299-13.213-29.511-29.511-29.511H165.271c-16.299,0-29.511,13.212-29.511,29.511v89.883v117.199L234.237,306.577z M256,85.343
	c43.423,0,78.624,35.201,78.624,78.625S299.423,242.591,256,242.591s-78.624-35.201-78.624-78.625S212.577,85.343,256,85.343z"/>
<path style="fill:#F8C55A;" d="M501.873,236.268c-0.03-0.305-0.057-0.611-0.098-0.915c-0.042-0.304-0.098-0.606-0.152-0.908
	c-0.039-0.216-0.072-0.434-0.117-0.649c-0.073-0.354-0.159-0.704-0.248-1.054c-0.039-0.153-0.075-0.308-0.117-0.46
	c-0.108-0.391-0.227-0.779-0.355-1.165c-0.034-0.102-0.066-0.205-0.101-0.307c-0.145-0.42-0.301-0.835-0.468-1.247
	c-0.025-0.061-0.049-0.122-0.074-0.183c-0.183-0.44-0.377-0.875-0.585-1.305c-0.013-0.028-0.027-0.055-0.04-0.083
	c-0.22-0.451-0.454-0.897-0.701-1.337c-0.001-0.002-0.002-0.005-0.004-0.007l0,0l-221.379,80.185
	c-13.848,5.016-29.017,5.016-42.866,0L13.188,226.65l0,0c-0.001,0.002-0.002,0.005-0.004,0.007c-0.248,0.44-0.481,0.886-0.701,1.337
	c-0.014,0.028-0.027,0.055-0.04,0.083c-0.208,0.43-0.403,0.866-0.585,1.305c-0.025,0.061-0.049,0.122-0.074,0.183
	c-0.167,0.412-0.323,0.827-0.468,1.247c-0.035,0.102-0.067,0.205-0.101,0.307c-0.127,0.385-0.247,0.773-0.355,1.165
	c-0.042,0.153-0.078,0.307-0.117,0.46c-0.089,0.35-0.175,0.7-0.248,1.054c-0.044,0.215-0.078,0.432-0.117,0.649
	c-0.054,0.302-0.11,0.603-0.152,0.908c-0.042,0.303-0.068,0.609-0.099,0.915c-0.022,0.227-0.052,0.452-0.068,0.679
	C10.021,237.49,10,238.034,10,238.582v210.514c0,16.134,13.079,29.212,29.212,29.212l0,0h433.575l0,0
	c16.134,0,29.212-13.079,29.212-29.212V238.582c0-0.547-0.021-1.092-0.059-1.633C501.926,236.72,501.896,236.496,501.873,236.268z
	 M381.375,434.239c-11.771,0-21.313-9.542-21.313-21.313s9.542-21.313,21.313-21.313s21.313,9.542,21.313,21.313
	S393.146,434.239,381.375,434.239z"/>
<path style="fill:#4CC1EB;" d="M177.376,163.967c0,43.423,35.201,78.625,78.624,78.625s78.624-35.201,78.624-78.625
	S299.423,85.343,256,85.343S177.376,120.545,177.376,163.967z M293.729,157.293c5.073,3.004,5.073,10.346,0,13.35l-51.401,30.435
	c-5.171,3.062-11.709-0.665-11.709-6.675v-60.87c0-6.01,6.538-9.737,11.709-6.675L293.729,157.293z"/>
<g>
	<path style="fill:#EB5664;" d="M230.619,133.533v60.87c0,6.01,6.538,9.737,11.709,6.675l51.401-30.435
		c5.073-3.004,5.073-10.346,0-13.35l-51.401-30.435C237.157,123.796,230.619,127.523,230.619,133.533z"/>
	<circle style="fill:#EB5664;" cx="381.37" cy="412.93" r="21.313"/>
</g>
<path d="M511.846,235.576c-0.047-0.516-0.095-1.031-0.166-1.545c-0.035-0.254-0.084-0.505-0.125-0.758
	c-0.082-0.51-0.167-1.02-0.273-1.526c-0.044-0.211-0.098-0.421-0.146-0.632c-0.127-0.557-0.263-1.113-0.418-1.665
	c-0.04-0.142-0.086-0.283-0.127-0.425c-0.186-0.631-0.389-1.258-0.611-1.879c-0.02-0.056-0.042-0.112-0.062-0.167
	c-0.654-1.797-1.443-3.555-2.393-5.241c-0.154-0.273-0.32-0.536-0.496-0.789c-3.284-5.482-8.068-10.2-13.996-13.54L386.24,147.242
	v-84.04c0-21.787-17.725-39.512-39.511-39.512H165.271c-21.787,0-39.511,17.725-39.511,39.512v84.04L18.968,207.408
	c-5.929,3.34-10.713,8.058-13.996,13.54c-0.176,0.254-0.342,0.516-0.496,0.79c-0.951,1.686-1.739,3.444-2.393,5.241
	c-0.02,0.056-0.042,0.111-0.062,0.167c-0.223,0.622-0.425,1.25-0.612,1.881c-0.041,0.141-0.087,0.28-0.126,0.421
	c-0.155,0.552-0.292,1.108-0.419,1.666c-0.048,0.21-0.102,0.42-0.146,0.631c-0.105,0.507-0.191,1.016-0.273,1.526
	c-0.041,0.253-0.09,0.504-0.125,0.758c-0.071,0.514-0.119,1.029-0.166,1.545c-0.022,0.243-0.055,0.486-0.072,0.729
	C0.029,237.063,0,237.822,0,238.581v210.515c0,21.622,17.591,39.213,39.212,39.213h433.575c21.622,0,39.212-17.591,39.212-39.213
	V238.581c0-0.759-0.029-1.518-0.082-2.276C511.902,236.061,511.868,235.819,511.846,235.576z M386.24,170.198l93.549,52.705
	l-93.549,33.884V170.198z M145.76,158.931v-22.956V63.203c0-10.759,8.753-19.512,19.511-19.512h181.458
	c10.758,0,19.511,8.753,19.511,19.512v72.772v22.955v104.383l-91.935,33.881c-11.805,4.35-24.806,4.35-36.61,0l-91.935-33.881
	V158.931z M125.76,170.198v86.589l-93.549-33.884L125.76,170.198z M492,449.096c0,10.594-8.619,19.213-19.212,19.213H39.212
	C28.618,468.309,20,459.69,20,449.096V239.753l211.161,76.483c16.017,5.802,33.66,5.801,49.678,0L492,239.753V449.096z"/>
<path d="M344.625,163.967c0-6.268-0.658-12.384-1.902-18.287c-2.283-10.839-6.553-20.954-12.41-29.947
	c-15.819-24.289-43.21-40.383-74.294-40.39c-0.006,0-0.013,0-0.019,0c-0.008,0-0.015,0-0.023,0
	c-9.785,0.002-19.403,1.591-28.584,4.72c-1.247,0.425-2.509,0.888-3.75,1.374c-5.141,2.018-7.674,7.82-5.657,12.962
	c0.095,0.242,0.206,0.473,0.318,0.704c2.253,4.66,7.747,6.871,12.644,4.954c0.959-0.377,1.932-0.733,2.896-1.062
	c7.109-2.424,14.564-3.652,22.157-3.652c25.727,0,48.18,14.238,59.927,35.24c5.531,9.889,8.698,21.271,8.698,33.384
	c0,37.84-30.785,68.624-68.625,68.624s-68.625-30.784-68.625-68.624c0-7.561,1.219-14.986,3.624-22.071
	c0.942-2.773,0.586-5.667-0.726-8.044c-1.162-2.105-3.073-3.805-5.529-4.639c-5.229-1.772-10.909,1.026-12.683,6.256
	c-1.138,3.352-2.065,6.762-2.79,10.216c-1.256,5.984-1.895,12.1-1.895,18.283c0,48.867,39.757,88.624,88.625,88.624
	S344.625,212.835,344.625,163.967z"/>
<path d="M238.375,212.154c3.134,0,6.267-0.825,9.048-2.473l51.401-30.435c5.454-3.229,8.71-8.941,8.71-15.279
	s-3.256-12.05-8.71-15.279l-51.4-30.435c-5.475-3.243-12.313-3.299-17.841-0.148c-5.529,3.151-8.964,9.063-8.964,15.428v60.869
	c0,6.364,3.435,12.276,8.964,15.428C232.303,211.38,235.339,212.154,238.375,212.154z M240.619,137.467l44.756,26.5l-44.756,26.5
	V137.467z"/>
<path d="M60.013,397.484c0-5.522-4.477-10-10-10s-10,4.478-10,10v30.884c0,5.522,4.477,10,10,10s10-4.478,10-10v-5.442H351.71
	c4.183,12.376,15.896,21.313,29.666,21.313c13.769,0,25.482-8.938,29.666-21.313h40.946v5.442c0,5.522,4.477,10,10,10
	s10-4.478,10-10v-30.884c0-5.522-4.477-10-10-10s-10,4.478-10,10v5.441h-40.946c-4.183-12.375-15.896-21.313-29.665-21.313
	s-25.483,8.938-29.666,21.313H60.013V397.484z M376.101,402.926c1.576-0.835,3.37-1.313,5.274-1.313s3.698,0.478,5.274,1.313
	c3.587,1.899,6.039,5.667,6.039,10s-2.451,8.1-6.037,10c-1.577,0.835-3.371,1.313-5.276,1.313s-3.699-0.478-5.276-1.313
	c-3.586-1.9-6.037-5.667-6.037-10S372.515,404.825,376.101,402.926z"/>
<path d="M189.36,111.59c0.13,0.64,0.32,1.27,0.57,1.87c0.25,0.609,0.56,1.189,0.92,1.729c0.37,0.551,0.78,1.061,1.24,1.521
	c0.47,0.46,0.98,0.88,1.53,1.24c0.54,0.359,1.12,0.67,1.72,0.92c0.61,0.25,1.24,0.439,1.87,0.569c0.65,0.13,1.31,0.2,1.96,0.2
	s1.31-0.07,1.95-0.2s1.27-0.319,1.87-0.569s1.19-0.561,1.73-0.92c0.55-0.36,1.06-0.78,1.52-1.24s0.88-0.97,1.24-1.521
	c0.36-0.54,0.67-1.12,0.92-1.729c0.25-0.601,0.44-1.23,0.57-1.87s0.2-1.3,0.2-1.95c0-0.649-0.07-1.31-0.2-1.95
	c-0.13-0.64-0.32-1.27-0.57-1.88c-0.25-0.6-0.56-1.18-0.92-1.72c-0.36-0.55-0.78-1.06-1.24-1.521
	c-0.144-0.144-0.301-0.276-0.455-0.412c-0.337-0.297-0.687-0.58-1.065-0.827c-0.54-0.36-1.12-0.67-1.73-0.92
	c-0.6-0.25-1.23-0.45-1.87-0.58c-1.29-0.261-2.62-0.261-3.91,0c-0.64,0.13-1.26,0.33-1.87,0.58c-0.6,0.25-1.18,0.56-1.72,0.92
	c-0.55,0.359-1.06,0.779-1.53,1.239c-0.46,0.461-0.87,0.971-1.24,1.521c-0.36,0.54-0.67,1.12-0.92,1.72
	c-0.25,0.61-0.44,1.24-0.57,1.88c-0.13,0.641-0.19,1.301-0.19,1.95c0,0.595,0.057,1.197,0.166,1.785
	C189.346,111.479,189.349,111.535,189.36,111.59z"/>
<g>
</g>
<g>
</g>
<g>
</g>
<g>
</g>
<g>
</g>
<g>
</g>
<g>
</g>
<g>
</g>
<g>
</g>
<g>
</g>
<g>
</g>
<g>
</g>
<g>
</g>
<g>
</g>
<g>
</g>
</svg>
