<?xml version="1.0" encoding="iso-8859-1"?>
<!-- Generator: Adobe Illustrator 19.0.0, SVG Export Plug-In . SVG Version: 6.00 Build 0)  -->
<svg version="1.1" id="Capa_1" xmlns="http://www.w3.org/2000/svg" xmlns:xlink="http://www.w3.org/1999/xlink" x="0px" y="0px"
	 viewBox="0 0 512 512" style="enable-background:new 0 0 512 512;" xml:space="preserve">
<g>
	<path style="fill:#F39E54;" d="M501.623,234.447c0.054,0.302,0.11,0.603,0.152,0.908
		C501.733,235.05,501.676,234.749,501.623,234.447z"/>
	<path style="fill:#F39E54;" d="M498.816,226.657c0.248,0.44,0.481,0.886,0.701,1.337
		C499.297,227.542,499.064,227.097,498.816,226.657z"/>
	<path style="fill:#F39E54;" d="M501.873,236.269c0.022,0.227,0.052,0.452,0.068,0.679
		C501.926,236.721,501.895,236.496,501.873,236.269z"/>
	<path style="fill:#F39E54;" d="M10.059,236.948c0.016-0.228,0.046-0.453,0.068-0.679C10.105,236.496,10.074,236.721,10.059,236.948
		z"/>
	<path style="fill:#F39E54;" d="M277.433,306.834l221.379-80.185c-2.393-4.244-6.043-7.912-10.688-10.529L376.24,153.086v117.199
		l-98.477,36.292c-14.047,5.177-29.479,5.177-43.526,0l-98.477-36.292V153.086L23.876,216.121
		c-4.646,2.617-8.295,6.285-10.688,10.529l221.379,80.185C248.416,311.85,263.584,311.85,277.433,306.834z"/>
	<path style="fill:#F39E54;" d="M499.558,228.077c0.208,0.43,0.403,0.866,0.585,1.305
		C499.961,228.942,499.766,228.507,499.558,228.077z"/>
	<path style="fill:#F39E54;" d="M500.217,229.565c0.167,0.412,0.323,0.827,0.468,1.247
		C500.541,230.392,500.384,229.977,500.217,229.565z"/>
	<path style="fill:#F39E54;" d="M501.258,232.744c0.089,0.35,0.175,0.7,0.248,1.054
		C501.433,233.444,501.346,233.094,501.258,232.744z"/>
	<path style="fill:#F39E54;" d="M500.786,231.119c0.127,0.385,0.247,0.773,0.355,1.165
		C501.034,231.892,500.913,231.505,500.786,231.119z"/>
	<path style="fill:#F39E54;" d="M11.315,230.812c0.145-0.42,0.301-0.835,0.468-1.247C11.616,229.977,11.459,230.392,11.315,230.812z
		"/>
	<path style="fill:#F39E54;" d="M10.859,232.284c0.108-0.391,0.227-0.779,0.355-1.165C11.087,231.505,10.966,231.892,10.859,232.284
		z"/>
	<path style="fill:#F39E54;" d="M12.483,227.994c0.22-0.451,0.454-0.897,0.701-1.337C12.936,227.097,12.703,227.542,12.483,227.994z
		"/>
	<path style="fill:#F39E54;" d="M10.494,233.798c0.073-0.354,0.159-0.704,0.248-1.054C10.654,233.094,10.567,233.444,10.494,233.798
		z"/>
	<path style="fill:#F39E54;" d="M10.225,235.354c0.042-0.304,0.098-0.606,0.152-0.908C10.324,234.749,10.267,235.05,10.225,235.354z
		"/>
	<path style="fill:#F39E54;" d="M11.857,229.382c0.183-0.44,0.377-0.875,0.585-1.305C12.234,228.507,12.039,228.942,11.857,229.382z
		"/>
</g>
<path style="fill:#E5EAED;" d="M234.237,306.577c14.047,5.177,29.479,5.177,43.526,0l98.477-36.292V153.086V63.203
	c0-16.299-13.213-29.511-29.511-29.511H165.271c-16.299,0-29.511,13.212-29.511,29.511v89.883v117.199L234.237,306.577z
	 M204,222.727c-14.083,0-25.5-8.954-25.5-20c0-11.046,11.417-20,25.5-20s25.5,8.954,25.5,20
	C229.5,213.773,218.083,222.727,204,222.727z M300,199.377c-14.083,0-25.5-8.954-25.5-20c0-11.046,11.417-20,25.5-20
	s25.5,8.954,25.5,20C325.5,190.423,314.083,199.377,300,199.377z"/>
<path style="fill:#F8C55A;" d="M501.873,236.269c-0.03-0.305-0.057-0.611-0.098-0.915c-0.042-0.304-0.098-0.606-0.152-0.908
	c-0.039-0.216-0.072-0.434-0.117-0.649c-0.073-0.354-0.159-0.704-0.248-1.054c-0.039-0.153-0.074-0.308-0.117-0.46
	c-0.108-0.391-0.227-0.779-0.355-1.165c-0.034-0.102-0.066-0.205-0.101-0.307c-0.145-0.42-0.301-0.835-0.468-1.247
	c-0.025-0.061-0.049-0.122-0.074-0.183c-0.183-0.44-0.377-0.875-0.585-1.305c-0.013-0.028-0.027-0.055-0.04-0.083
	c-0.22-0.451-0.454-0.897-0.701-1.337c-0.001-0.002-0.002-0.005-0.004-0.007l0,0l-221.379,80.185
	c-13.848,5.016-29.017,5.016-42.866,0L13.188,226.65l0,0c-0.001,0.002-0.002,0.005-0.004,0.007c-0.248,0.44-0.481,0.886-0.701,1.337
	c-0.013,0.028-0.027,0.055-0.04,0.083c-0.208,0.43-0.403,0.866-0.585,1.305c-0.025,0.061-0.05,0.122-0.074,0.183
	c-0.167,0.412-0.323,0.827-0.468,1.247c-0.035,0.102-0.067,0.205-0.101,0.307c-0.127,0.385-0.247,0.773-0.355,1.165
	c-0.042,0.153-0.078,0.307-0.117,0.46c-0.089,0.35-0.175,0.7-0.248,1.054c-0.044,0.215-0.078,0.432-0.117,0.649
	c-0.054,0.302-0.11,0.603-0.152,0.908c-0.042,0.303-0.068,0.609-0.098,0.915c-0.022,0.227-0.052,0.452-0.068,0.679
	c-0.039,0.541-0.06,1.085-0.06,1.633v210.514c0,16.134,13.079,29.212,29.212,29.212l0,0h433.575l0,0
	c16.134,0,29.212-13.079,29.212-29.212V238.582c0-0.547-0.021-1.092-0.059-1.633C501.926,236.721,501.896,236.496,501.873,236.269z
	 M305.815,392.376l-35.328,25.649c-4.281,3.108-10.28,0.05-10.28-5.24v-51.299c0-5.29,5.999-8.348,10.28-5.24l35.328,25.649
	C309.377,384.482,309.377,389.791,305.815,392.376z"/>
<g>
	<ellipse style="fill:#EB5664;" cx="204" cy="202.73" rx="25.5" ry="20"/>
	<ellipse style="fill:#EB5664;" cx="300" cy="179.38" rx="25.5" ry="20"/>
</g>
<path style="fill:#4CC1EB;" d="M305.815,381.896l-35.328-25.649c-4.281-3.108-10.28-0.05-10.28,5.24v51.299
	c0,5.29,5.999,8.348,10.28,5.24l35.328-25.649C309.377,389.791,309.377,384.482,305.815,381.896z"/>
<path d="M511.847,235.585c-0.047-0.52-0.096-1.04-0.167-1.558c-0.034-0.248-0.083-0.494-0.122-0.742
	c-0.083-0.516-0.169-1.031-0.276-1.544c-0.043-0.206-0.096-0.409-0.143-0.615c-0.128-0.564-0.266-1.125-0.423-1.683
	c-0.038-0.136-0.082-0.271-0.122-0.407c-0.188-0.636-0.392-1.268-0.616-1.895c-0.019-0.052-0.039-0.104-0.058-0.157
	c-0.655-1.8-1.444-3.559-2.396-5.247c-0.153-0.272-0.318-0.533-0.493-0.785c-3.284-5.484-8.068-10.204-13.999-13.545L386.24,147.243
	v-84.04c0-21.787-17.725-39.512-39.512-39.512H165.271c-21.787,0-39.512,17.725-39.512,39.512v84.04L18.968,207.408
	c-5.931,3.341-10.715,8.061-13.999,13.546c-0.174,0.252-0.339,0.513-0.492,0.784c-0.952,1.688-1.742,3.447-2.396,5.247
	c-0.019,0.052-0.039,0.104-0.058,0.157c-0.225,0.627-0.429,1.258-0.616,1.895c-0.04,0.136-0.084,0.271-0.122,0.407
	c-0.157,0.558-0.295,1.119-0.423,1.683c-0.047,0.205-0.1,0.409-0.143,0.615c-0.107,0.513-0.193,1.028-0.276,1.544
	c-0.04,0.247-0.088,0.494-0.122,0.742c-0.072,0.518-0.12,1.038-0.167,1.558c-0.022,0.24-0.055,0.479-0.071,0.719
	C0.029,237.062,0,237.822,0,238.581v210.515c0,21.622,17.591,39.213,39.213,39.213h433.574c21.622,0,39.213-17.591,39.213-39.213
	V238.581c0-0.76-0.029-1.519-0.082-2.277C511.902,236.064,511.869,235.825,511.847,235.585z M386.24,170.198l93.55,52.706
	l-93.55,33.884V170.198z M145.76,158.93v-22.955V63.203c0-10.759,8.753-19.512,19.512-19.512h181.457
	c10.759,0,19.512,8.753,19.512,19.512v72.772v22.955v104.383l-91.936,33.881c-11.805,4.35-24.805,4.35-36.609,0l-91.936-33.881
	L145.76,158.93L145.76,158.93z M125.76,170.198v86.589l-93.55-33.884L125.76,170.198z M492,449.096
	c0,10.594-8.619,19.213-19.213,19.213H39.213C28.619,468.309,20,459.69,20,449.096V239.753l211.161,76.483
	c16.018,5.802,33.661,5.801,49.677,0L492,239.753V449.096z"/>
<path d="M239.452,201.171c0.029-0.311,0.048-0.625,0.048-0.943v-91.572l28.738-4.939l31.22-5.366l16.042-2.757v11.795v22.955v22.05
	c-4.686-1.93-9.945-3.016-15.5-3.016c-19.575,0-35.5,13.458-35.5,30c0,16.542,15.925,30,35.5,30s35.5-13.458,35.5-30
	c0-0.347-0.017-0.69-0.031-1.035c0.012-0.204,0.031-0.407,0.031-0.615v-36.116v-22.955V94.021c0-5.519-2.421-10.724-6.641-14.281
	s-9.761-5.059-15.199-4.125L271.857,82.8l-36.844,6.333c-8.988,1.545-15.513,9.286-15.513,18.406v9.846v58.358
	c-4.686-1.93-9.945-3.016-15.5-3.016c-19.575,0-35.5,13.458-35.5,30c0,16.542,15.925,30,35.5,30s35.5-13.458,35.5-30
	C239.5,202.206,239.484,201.687,239.452,201.171z M300,189.377c-9.135,0-15.5-5.271-15.5-10s6.365-10,15.5-10s15.5,5.271,15.5,10
	S309.135,189.377,300,189.377z M204,212.728c-9.135,0-15.5-5.271-15.5-10s6.365-10,15.5-10s15.5,5.271,15.5,10
	S213.135,212.728,204,212.728z"/>
<path d="M259.2,346.809c-5.547,2.827-8.993,8.452-8.993,14.679v51.298c0,6.227,3.446,11.852,8.993,14.679
	c2.377,1.212,4.941,1.81,7.494,1.81c3.405,0,6.788-1.064,9.668-3.156l35.328-25.648c4.256-3.09,6.796-8.073,6.796-13.332
	s-2.54-10.242-6.796-13.332l-35.328-25.649C271.323,344.495,264.747,343.979,259.2,346.809z M270.207,405.871v-37.47l25.805,18.735
	L270.207,405.871z"/>
<path d="M229.5,345c-5.522,0-10,4.478-10,10v64.272c0,5.522,4.478,10,10,10s10-4.478,10-10V355C239.5,349.478,235.022,345,229.5,345
	z"/>
<g>
</g>
<g>
</g>
<g>
</g>
<g>
</g>
<g>
</g>
<g>
</g>
<g>
</g>
<g>
</g>
<g>
</g>
<g>
</g>
<g>
</g>
<g>
</g>
<g>
</g>
<g>
</g>
<g>
</g>
</svg>
