<?xml version="1.0" encoding="iso-8859-1"?>
<!-- Generator: Adobe Illustrator 19.0.0, SVG Export Plug-In . SVG Version: 6.00 Build 0)  -->
<svg version="1.1" id="Capa_1" xmlns="http://www.w3.org/2000/svg" xmlns:xlink="http://www.w3.org/1999/xlink" x="0px" y="0px"
	 viewBox="0 0 511.999 511.999" style="enable-background:new 0 0 511.999 511.999;" xml:space="preserve">
<g>
	<path style="fill:#238FB4;" d="M68.461,30.487c0.117-1.151,0.319-2.276,0.601-3.37C68.781,28.211,68.578,29.336,68.461,30.487z"/>
	<path style="fill:#238FB4;" d="M68.344,32.82L68.344,32.82c0-0.788,0.04-1.566,0.118-2.333
		C68.383,31.254,68.344,32.032,68.344,32.82z"/>
	<path style="fill:#238FB4;" d="M69.369,26.034c0.222-0.715,0.479-1.414,0.767-2.097C69.848,24.62,69.592,25.319,69.369,26.034z"/>
	<path style="fill:#238FB4;" d="M381.133,10.464c0.743,0.152,1.472,0.34,2.187,0.562C382.605,10.804,381.876,10.616,381.133,10.464z
		"/>
	<path style="fill:#238FB4;" d="M398.635,27.117c0.281,1.094,0.484,2.219,0.601,3.37C399.119,29.336,398.917,28.211,398.635,27.117z
		"/>
	<path style="fill:#238FB4;" d="M299.44,122.73L299.44,122.73c15.123,0,27.382,12.259,27.382,27.382v63.935h49.712
		c12.603,0,22.82-10.217,22.82-22.82V32.82l-156.792,90.442c-5.393,3.111-12.034,3.111-17.427,0L68.344,32.82v158.407
		c0,12.603,10.217,22.82,22.82,22.82h180.894v-63.935C272.058,134.989,284.317,122.73,299.44,122.73z"/>
	<path style="fill:#238FB4;" d="M377.708,10.03c0.778,0.039,1.545,0.118,2.301,0.233C379.253,10.147,378.486,10.069,377.708,10.03z"
		/>
	<path style="fill:#238FB4;" d="M399.354,32.82c0-0.788-0.04-1.566-0.118-2.333C399.314,31.254,399.354,32.032,399.354,32.82
		L399.354,32.82z"/>
	<path style="fill:#238FB4;" d="M397.561,23.938c0.289,0.683,0.545,1.382,0.767,2.097C398.106,25.319,397.849,24.62,397.561,23.938z
		"/>
	<path style="fill:#238FB4;" d="M387.817,12.988c0.503,0.287,0.997,0.586,1.475,0.909C388.815,13.574,388.32,13.274,387.817,12.988z
		"/>
	<path style="fill:#238FB4;" d="M394.441,18.684c0.807,1.021,1.533,2.108,2.159,3.259C395.974,20.792,395.248,19.704,394.441,18.684
		z"/>
</g>
<path style="fill:#4CC1EB;" d="M242.562,123.262L399.354,32.82c0-0.788-0.04-1.566-0.118-2.333c-0.117-1.151-0.319-2.276-0.601-3.37
	c-0.094-0.365-0.196-0.726-0.307-1.083c-0.222-0.715-0.479-1.414-0.767-2.097c-0.289-0.683-0.61-1.348-0.961-1.995
	c-0.625-1.151-1.352-2.238-2.159-3.259c-1.233-1.56-2.66-2.958-4.254-4.15c-0.293-0.219-0.591-0.431-0.895-0.636
	c-0.478-0.323-0.972-0.623-1.475-0.909c-1.094-0.624-2.24-1.165-3.438-1.603c-0.349-0.128-0.703-0.248-1.06-0.359
	c-0.715-0.222-1.444-0.41-2.187-0.562c-0.372-0.076-0.746-0.143-1.124-0.201c-0.756-0.115-1.523-0.194-2.301-0.233
	c-0.389-0.02-0.781-0.03-1.174-0.03H91.164c-2.757,0-5.4,0.489-7.846,1.385c-1.398,0.512-2.732,1.157-3.987,1.919
	c-0.627,0.381-1.235,0.792-1.821,1.23c-1.757,1.314-3.319,2.876-4.633,4.633c-1.095,1.464-2.019,3.065-2.74,4.771
	c-0.289,0.683-0.545,1.382-0.767,2.097c-0.111,0.357-0.214,0.718-0.307,1.083c-0.281,1.094-0.484,2.219-0.601,3.37
	c-0.078,0.767-0.118,1.545-0.118,2.333l156.792,90.442C230.528,126.373,237.169,126.373,242.562,123.262z"/>
<path style="fill:#F8C55A;" d="M442.419,335.877c3.552-19.481-0.775-39.575-12.031-55.867l0,0
	c-8.737-12.645-23.126-20.194-38.496-20.194H333.97c-3.948,0-7.148-3.2-7.148-7.147v-38.622v-63.935
	c0-15.123-12.259-27.382-27.382-27.382l0,0c-15.123,0-27.382,12.259-27.382,27.382v63.935v63.194h-31.81
	c-11.915,0-21.574,9.659-21.574,21.574v99.104c0,9.077,4.634,17.526,12.289,22.404l41.094,26.188h149.572h0.615L442.419,335.877z"/>
<path style="fill:#EB5664;" d="M260.942,446.512c-2.357,0-4.269,1.911-4.269,4.269v46.951c0,2.357,1.911,4.269,4.269,4.269H421.63
	c6.648,0,12.037-5.389,12.037-12.038V458.55c0-6.648-5.389-12.038-12.037-12.038H272.058H260.942z"/>
<path d="M438.615,274.326c-10.603-15.348-28.069-24.51-46.724-24.51h-55.069v-25.77h39.712c0.565,0,1.128-0.014,1.686-0.043
	c1.117-0.057,2.22-0.17,3.305-0.336c0.492-0.075,0.98-0.162,1.464-0.259c15.016-3.007,26.364-16.294,26.364-32.183V32.82
	C409.353,14.722,394.63,0,376.534,0H91.163C73.066,0,58.344,14.723,58.344,32.82v158.406c0,15.888,11.348,29.176,26.364,32.183
	c0.484,0.097,0.973,0.183,1.464,0.259c1.085,0.167,2.188,0.279,3.305,0.336c0.559,0.028,1.121,0.043,1.686,0.043h170.895v43.194
	h-21.81c-17.41,0-31.574,14.164-31.574,31.574v99.104c0,12.559,6.323,24.086,16.915,30.838l23.113,14.729
	c-1.279,2.138-2.028,4.627-2.028,7.294v46.95c0,7.868,6.4,14.269,14.269,14.269h160.688c12.151,0,22.037-9.886,22.037-22.037V458.55
	c0-7.746-4.02-14.565-10.08-18.497l18.67-102.382C456.314,315.427,451.469,292.93,438.615,274.326z M382.72,202.449
	c-0.086,0.047-0.175,0.091-0.262,0.136c-0.25,0.131-0.505,0.254-0.764,0.369c-0.102,0.045-0.205,0.091-0.308,0.133
	c-0.312,0.128-0.63,0.246-0.953,0.35c-0.037,0.012-0.072,0.026-0.108,0.038c-0.359,0.112-0.727,0.204-1.099,0.283
	c-0.105,0.022-0.211,0.04-0.316,0.06c-0.283,0.053-0.569,0.097-0.859,0.131c-0.113,0.013-0.225,0.028-0.339,0.039
	c-0.388,0.036-0.779,0.06-1.177,0.06h-39.712v-37.346l51.444,29.674c-0.135,0.308-0.279,0.611-0.437,0.906
	c-0.038,0.07-0.08,0.137-0.119,0.207c-0.145,0.258-0.299,0.511-0.461,0.757c-0.062,0.094-0.125,0.188-0.189,0.28
	c-0.169,0.243-0.347,0.48-0.532,0.711c-0.048,0.06-0.093,0.123-0.143,0.182c-0.235,0.282-0.482,0.553-0.74,0.814
	c-0.063,0.064-0.13,0.124-0.194,0.186c-0.205,0.199-0.416,0.391-0.634,0.576c-0.085,0.072-0.17,0.144-0.258,0.214
	c-0.241,0.194-0.49,0.38-0.745,0.557c-0.051,0.035-0.099,0.074-0.151,0.108C383.359,202.079,383.043,202.27,382.72,202.449z
	 M389.354,173.914l-53.175-30.673c-3.236-17.341-18.474-30.512-36.739-30.512c-4.364,0-8.552,0.759-12.448,2.139l-4.932-2.845
	l107.295-61.891v123.782H389.354z M88.063,55.739c4.782,2.758,10.898,1.118,13.659-3.665c2.76-4.784,1.118-10.899-3.665-13.659
	L79.431,27.672c0.135-0.308,0.279-0.611,0.437-0.906c0.038-0.07,0.08-0.137,0.119-0.207c0.145-0.258,0.299-0.511,0.461-0.757
	c0.062-0.094,0.125-0.188,0.189-0.28c0.169-0.243,0.346-0.479,0.531-0.71c0.049-0.061,0.094-0.124,0.144-0.183
	c0.235-0.282,0.482-0.553,0.74-0.814c0.063-0.064,0.13-0.124,0.194-0.186c0.205-0.199,0.416-0.391,0.634-0.576
	c0.085-0.072,0.17-0.144,0.258-0.214c0.241-0.194,0.49-0.38,0.745-0.557c0.051-0.035,0.099-0.074,0.151-0.108
	c0.305-0.205,0.622-0.396,0.945-0.575c0.086-0.047,0.175-0.091,0.262-0.136c0.25-0.131,0.505-0.254,0.764-0.369
	c0.102-0.045,0.205-0.091,0.308-0.133c0.312-0.128,0.629-0.246,0.952-0.349c0.037-0.012,0.073-0.027,0.11-0.038
	c0.359-0.111,0.727-0.203,1.098-0.283c0.105-0.022,0.211-0.04,0.316-0.06c0.283-0.053,0.569-0.097,0.859-0.131
	c0.113-0.013,0.225-0.028,0.339-0.039c0.388-0.036,0.779-0.06,1.177-0.06h285.371c0.397,0,0.789,0.024,1.177,0.06
	c0.114,0.01,0.227,0.025,0.339,0.039c0.289,0.034,0.575,0.078,0.859,0.131c0.105,0.02,0.212,0.038,0.316,0.06
	c0.372,0.08,0.739,0.172,1.099,0.283c0.037,0.011,0.072,0.026,0.108,0.038c0.324,0.104,0.641,0.221,0.953,0.35
	c0.104,0.043,0.206,0.088,0.308,0.133c0.26,0.115,0.514,0.238,0.764,0.369c0.087,0.046,0.176,0.089,0.262,0.136
	c0.323,0.179,0.639,0.37,0.945,0.575c0.051,0.034,0.1,0.073,0.151,0.108c0.255,0.177,0.503,0.363,0.745,0.557
	c0.087,0.07,0.173,0.142,0.258,0.214c0.218,0.185,0.429,0.377,0.634,0.576c0.064,0.063,0.131,0.122,0.194,0.186
	c0.258,0.261,0.505,0.532,0.74,0.814c0.049,0.059,0.094,0.122,0.143,0.182c0.185,0.231,0.363,0.468,0.532,0.711
	c0.064,0.093,0.127,0.186,0.189,0.28c0.162,0.247,0.315,0.499,0.461,0.757c0.039,0.069,0.081,0.136,0.119,0.207
	c0.158,0.294,0.301,0.598,0.437,0.906L262.047,100.48l-20.013,11.544l-4.466,2.576c-2.293,1.324-5.141,1.322-7.434,0l-4.467-2.576
	l-20.013-11.544l-39.375-22.713c-4.785-2.761-10.899-1.117-13.659,3.665c-2.76,4.784-1.118,10.899,3.665,13.659l29.356,16.934
	l-107.294,61.89V50.133L88.063,55.739z M91.163,204.047c-0.397,0-0.789-0.024-1.177-0.06c-0.114-0.01-0.227-0.025-0.339-0.039
	c-0.289-0.034-0.575-0.078-0.859-0.131c-0.105-0.02-0.212-0.038-0.316-0.06c-0.372-0.08-0.739-0.172-1.098-0.283
	c-0.037-0.011-0.073-0.027-0.11-0.038c-0.323-0.104-0.641-0.221-0.952-0.349c-0.104-0.043-0.206-0.088-0.308-0.133
	c-0.26-0.115-0.514-0.238-0.764-0.369c-0.087-0.046-0.176-0.089-0.262-0.136c-0.323-0.179-0.639-0.37-0.945-0.575
	c-0.051-0.034-0.1-0.073-0.151-0.108c-0.255-0.177-0.503-0.363-0.745-0.557c-0.087-0.07-0.173-0.142-0.258-0.214
	c-0.218-0.185-0.429-0.377-0.634-0.576c-0.064-0.063-0.131-0.122-0.194-0.186c-0.258-0.261-0.505-0.532-0.74-0.814
	c-0.05-0.06-0.095-0.123-0.144-0.183c-0.185-0.23-0.362-0.467-0.531-0.71c-0.064-0.093-0.127-0.186-0.189-0.28
	c-0.162-0.247-0.315-0.499-0.461-0.757c-0.039-0.069-0.081-0.136-0.119-0.207c-0.158-0.294-0.301-0.598-0.437-0.906l126.22-72.807
	l14.486,8.356c4.229,2.439,8.97,3.659,13.711,3.659s9.482-1.22,13.711-3.659l14.486-8.356l7.396,4.266
	c-4.635,6.226-7.383,13.937-7.383,22.278v53.935L91.163,204.047L91.163,204.047z M423.667,489.963c0,1.123-0.914,2.037-2.037,2.037
	H266.674v-35.487h5.384H421.63c1.123,0,2.037,0.914,2.037,2.037L423.667,489.963L423.667,489.963z M432.581,334.083l-18.679,102.43
	h-138.93l-38.635-24.621c-4.799-3.059-7.664-8.282-7.664-13.972v-99.104c0-6.382,5.192-11.574,11.574-11.574h21.81V345
	c0,5.522,4.478,10,10,10s10-4.478,10-10v-67.759v-53.194v-20v-53.935c0-4.721,1.898-9.002,4.963-12.138
	c3.158-3.231,7.555-5.245,12.419-5.245c9.585,0,17.383,7.798,17.383,17.383v5.052v48.882v20v28.622
	c0,9.455,7.692,17.147,17.147,17.147h57.922c12.085,0,23.4,5.936,30.269,15.878C431.98,299.906,435.68,317.091,432.581,334.083z"/>
<path d="M300.357,469.92c-0.25-0.601-0.561-1.18-0.92-1.72c-0.36-0.551-0.78-1.061-1.24-1.521s-0.97-0.88-1.521-1.24
	c-0.54-0.37-1.12-0.67-1.729-0.92c-0.601-0.25-1.23-0.45-1.87-0.58c-3.24-0.649-6.7,0.42-9.021,2.74
	c-0.46,0.46-0.88,0.97-1.25,1.521c-0.359,0.54-0.67,1.119-0.92,1.72c-0.25,0.609-0.439,1.24-0.569,1.88s-0.19,1.3-0.19,1.95
	c0,0.649,0.061,1.31,0.19,1.95c0.13,0.64,0.319,1.27,0.569,1.869c0.25,0.61,0.561,1.19,0.92,1.73c0.37,0.55,0.79,1.06,1.25,1.52
	c0.461,0.46,0.971,0.881,1.521,1.24c0.54,0.36,1.12,0.67,1.72,0.92c0.61,0.25,1.24,0.44,1.88,0.57c0.641,0.13,1.301,0.2,1.95,0.2
	c0.65,0,1.311-0.07,1.95-0.2s1.27-0.32,1.87-0.57c0.609-0.25,1.189-0.56,1.729-0.92c0.551-0.359,1.061-0.78,1.521-1.24
	s0.88-0.97,1.24-1.52c0.359-0.54,0.67-1.12,0.92-1.73c0.25-0.6,0.439-1.229,0.569-1.869c0.13-0.641,0.2-1.301,0.2-1.95
	c0-0.65-0.07-1.311-0.2-1.95S300.607,470.529,300.357,469.92z"/>
<path d="M118.257,70.76c0.25,0.6,0.561,1.19,0.92,1.73c0.36,0.54,0.78,1.06,1.24,1.52s0.97,0.88,1.521,1.24
	c0.54,0.359,1.119,0.67,1.729,0.92c0.601,0.25,1.23,0.439,1.87,0.57c0.64,0.13,1.3,0.199,1.95,0.199c0.649,0,1.31-0.069,1.96-0.199
	c0.63-0.131,1.26-0.32,1.87-0.57c0.6-0.25,1.18-0.561,1.72-0.92c0.55-0.36,1.06-0.78,1.52-1.24c0.461-0.46,0.881-0.979,1.25-1.52
	c0.36-0.54,0.671-1.131,0.921-1.73s0.439-1.229,0.569-1.87c0.13-0.64,0.19-1.3,0.19-1.95c0-0.649-0.061-1.31-0.19-1.96
	c-0.13-0.63-0.319-1.26-0.569-1.87c-0.25-0.6-0.561-1.18-0.921-1.72c-0.369-0.55-0.789-1.06-1.25-1.52
	c-0.46-0.46-0.97-0.88-1.52-1.25c-0.54-0.36-1.12-0.67-1.72-0.92c-0.61-0.25-1.24-0.44-1.87-0.57c-1.29-0.26-2.62-0.26-3.91,0
	c-0.64,0.13-1.27,0.32-1.87,0.57c-0.61,0.25-1.189,0.56-1.729,0.92c-0.551,0.37-1.061,0.79-1.521,1.25s-0.88,0.97-1.24,1.52
	c-0.359,0.54-0.67,1.12-0.92,1.72c-0.25,0.61-0.439,1.23-0.569,1.87c-0.131,0.65-0.2,1.311-0.2,1.96c0,0.65,0.069,1.311,0.2,1.95
	C117.817,69.53,118.007,70.16,118.257,70.76z"/>
<g>
</g>
<g>
</g>
<g>
</g>
<g>
</g>
<g>
</g>
<g>
</g>
<g>
</g>
<g>
</g>
<g>
</g>
<g>
</g>
<g>
</g>
<g>
</g>
<g>
</g>
<g>
</g>
<g>
</g>
</svg>
