<?xml version="1.0" encoding="iso-8859-1"?>
<!-- Generator: Adobe Illustrator 19.0.0, SVG Export Plug-In . SVG Version: 6.00 Build 0)  -->
<svg version="1.1" id="Capa_1" xmlns="http://www.w3.org/2000/svg" xmlns:xlink="http://www.w3.org/1999/xlink" x="0px" y="0px"
	 viewBox="0 0 512 512" style="enable-background:new 0 0 512 512;" xml:space="preserve">
<g>
	<path style="fill:#4CC1EB;" d="M335.446,376.476h144.042V102.903c0-14.698-11.915-26.613-26.613-26.613H59.125
		c-14.698,0-26.613,11.915-26.613,26.613v273.572h148.739h154.195V376.476z M66.5,326.423v-202.5
		c0-5.596,4.536-10.132,10.132-10.132h358.735c5.596,0,10.132,4.537,10.132,10.132v202.5c0,5.596-4.536,10.132-10.132,10.132H76.632
		C71.036,336.555,66.5,332.019,66.5,326.423z"/>
	<path style="fill:#4CC1EB;" d="M489.377,376.476h-9.889H335.446v20.778c0,4.702-3.811,8.513-8.513,8.513H189.764
		c-4.702,0-8.513-3.812-8.513-8.513v-20.778H32.512h-9.889c-6.971,0-12.623,5.651-12.623,12.623v33.988
		c0,6.971,5.651,12.623,12.623,12.623h466.754c6.971,0,12.623-5.652,12.623-12.623v-33.988
		C502,382.127,496.349,376.476,489.377,376.476z"/>
</g>
<path style="fill:#238FB4;" d="M181.251,397.253c0,4.702,3.811,8.513,8.513,8.513h137.168c4.702,0,8.513-3.812,8.513-8.513v-20.778
	H181.251V397.253z"/>
<path style="fill:#E5EAED;" d="M445.5,326.423v-202.5c0-5.596-4.536-10.132-10.132-10.132H76.632
	c-5.596,0-10.132,4.537-10.132,10.132v202.5c0,5.596,4.536,10.132,10.132,10.132h358.735
	C440.964,336.555,445.5,332.019,445.5,326.423z M256,331.463c-58.702,0-106.29-47.588-106.29-106.29s47.588-106.29,106.29-106.29
	s106.29,47.587,106.29,106.29S314.702,331.463,256,331.463z"/>
<circle style="fill:#F8C55A;" cx="256" cy="225.17" r="106.29"/>
<path d="M489.488,366.479V102.903c0-20.188-16.424-36.612-36.613-36.612H59.125c-20.188,0-36.613,16.424-36.613,36.612v263.575
	C10.089,366.539,0,376.661,0,389.099v33.987c0,12.475,10.148,22.623,22.623,22.623h466.754c12.475,0,22.623-10.148,22.623-22.623
	v-33.987C512,376.661,501.911,366.539,489.488,366.479z M42.512,102.903c0-9.16,7.453-16.612,16.613-16.612h393.75
	c9.16,0,16.613,7.452,16.613,16.612v263.572H335.446H181.251H42.512V102.903z M325.446,386.476v9.291H191.251v-9.291H325.446z
	 M492,423.086c0,1.446-1.177,2.623-2.623,2.623H22.623c-1.446,0-2.623-1.177-2.623-2.623v-33.987c0-1.446,1.177-2.623,2.623-2.623
	h9.889h138.739v10.778c0,10.208,8.305,18.513,18.513,18.513h137.168c10.208,0,18.513-8.305,18.513-18.513v-10.778h134.042h9.889
	c1.446,0,2.623,1.177,2.623,2.623v33.987H492z"/>
<path d="M455.5,326.423v-202.5c0-11.101-9.031-20.132-20.132-20.132H76.632c-11.101,0-20.132,9.031-20.132,20.132v202.5
	c0,11.102,9.031,20.133,20.132,20.133h358.735C446.469,346.556,455.5,337.524,455.5,326.423z M76.632,326.556
	c-0.073,0-0.132-0.06-0.132-0.133v-202.5c0-0.072,0.06-0.132,0.132-0.132h122.384c-11.778,6.624-22.445,15.327-31.445,25.856
	c-1.726,2.019-3.401,4.12-4.982,6.248c-3.293,4.434-2.369,10.697,2.065,13.99s10.697,2.368,13.991-2.064
	c1.309-1.763,2.698-3.505,4.128-5.178c18.34-21.455,45.03-33.761,73.227-33.761c53.094,0,96.29,43.195,96.29,96.29
	s-43.195,96.29-96.29,96.29c-48.735,0-89.836-36.43-95.605-84.739c-0.655-5.484-5.632-9.397-11.115-8.744
	c-5.484,0.655-9.399,5.632-8.744,11.115c4.53,37.934,27.091,69.798,58.491,87.461L76.632,326.556L76.632,326.556z M372.29,225.173
	c0-43.462-23.971-81.426-59.383-101.382h122.461c0.073,0,0.132,0.06,0.132,0.132v202.5c0,0.073-0.06,0.133-0.132,0.133H312.905
	C348.318,306.6,372.29,268.636,372.29,225.173z"/>
<path d="M251.193,284.378c6.58,0,13.25-0.917,19.825-2.726c7.278-2.001,10.815-4.884,10.815-8.813c0-1.602-0.583-3.251-1.73-4.901
	c-1.246-1.799-2.962-2.75-4.963-2.75c-0.377,0-0.894,0-7.682,2.176c-4.217,1.35-8.896,2.033-13.905,2.033
	c-6.669,0-12.434-1.123-17.133-3.337c-4.646-2.191-8.287-5.279-10.825-9.177c-2.6-3.99-4.527-8.439-5.726-13.226
	c-1.209-4.82-1.822-10.254-1.822-16.147c0-6.313,0.703-12.119,2.088-17.256c1.376-5.1,3.577-9.875,6.542-14.192
	c2.9-4.221,7.115-7.528,12.53-9.831c5.497-2.337,12.171-3.522,19.837-3.522c25.626,0,38.083,14.178,38.083,43.345
	c0,14.259-2.688,21.488-7.99,21.488c-0.849,0-3.421,0-4.391-6.382v-27.249c0-7.369-2.733-13.165-8.125-17.226
	c-5.263-3.96-11.803-5.968-19.439-5.968c-6.011,0-11.579,1.104-16.548,3.283c-5.376,2.355-8.103,5.405-8.103,9.063
	c0,1.771,0.599,3.712,1.78,5.766c1.336,2.326,2.979,3.506,4.883,3.506c0.44,0,0.987,0,6.113-2.319
	c3.007-1.361,6.441-2.052,10.206-2.052c8.179,0,11.988,3.124,11.988,9.832v0.929h-3.747c-22.866,0-34.46,7.204-34.46,21.412
	c0,6.619,2.277,11.705,6.767,15.116c4.361,3.319,9.607,5.002,15.592,5.002c7.31,0,13.808-3.16,19.349-9.402
	c1.047,2.572,2.757,4.778,5.107,6.582c3.134,2.408,7.078,3.63,11.721,3.63c8.499,0,15.021-3.733,19.384-11.097
	c4.213-7.112,6.35-16.248,6.35-27.153c0-17.056-4.845-30.645-14.402-40.391c-9.567-9.751-23.064-14.695-40.117-14.695
	c-12.544,0-23.347,2.744-32.11,8.156c-8.774,5.422-15.268,12.64-19.302,21.455c-3.996,8.733-6.022,18.938-6.022,30.331
	c0,18.024,4.855,32.13,14.431,41.927C225.625,279.405,237.452,284.378,251.193,284.378z M268.31,234.31
	c0,2.938-1.29,5.571-3.942,8.051c-2.684,2.507-5.582,3.725-8.859,3.725c-1.852,0-3.264-0.517-4.319-1.581
	c-1.058-1.063-1.572-2.598-1.572-4.689c0-2.231,0-9.023,16.176-9.023h2.517v3.517H268.31z"/>
<path d="M144.25,200.859c0.25,0.61,0.56,1.19,0.92,1.73c0.36,0.55,0.78,1.06,1.24,1.52c0.46,0.46,0.97,0.881,1.52,1.24
	c0.54,0.36,1.12,0.67,1.73,0.92c0.6,0.25,1.23,0.45,1.87,0.58s1.3,0.19,1.95,0.19s1.31-0.061,1.95-0.19
	c0.64-0.13,1.27-0.33,1.87-0.58c0.61-0.25,1.19-0.56,1.73-0.92c0.55-0.359,1.06-0.78,1.52-1.24c0.46-0.46,0.88-0.97,1.24-1.52
	c0.36-0.54,0.67-1.12,0.92-1.73c0.25-0.6,0.45-1.229,0.57-1.869c0.13-0.641,0.2-1.301,0.2-1.95c0-0.65-0.07-1.311-0.2-1.95
	c-0.12-0.64-0.32-1.271-0.57-1.87c-0.25-0.61-0.56-1.19-0.92-1.729c-0.36-0.551-0.78-1.061-1.24-1.521s-0.97-0.88-1.52-1.24
	c-0.54-0.359-1.12-0.67-1.73-0.92c-0.6-0.25-1.23-0.45-1.87-0.58c-1.29-0.25-2.62-0.25-3.91,0c-0.63,0.13-1.26,0.33-1.87,0.58
	c-0.6,0.25-1.18,0.561-1.72,0.92c-0.55,0.36-1.06,0.78-1.52,1.24c-0.46,0.46-0.88,0.97-1.24,1.521
	c-0.36,0.539-0.67,1.119-0.92,1.729c-0.25,0.6-0.45,1.23-0.57,1.87c-0.13,0.64-0.2,1.3-0.2,1.95c0,0.649,0.07,1.31,0.2,1.95
	C143.81,199.63,144,200.26,144.25,200.859z"/>
<g>
</g>
<g>
</g>
<g>
</g>
<g>
</g>
<g>
</g>
<g>
</g>
<g>
</g>
<g>
</g>
<g>
</g>
<g>
</g>
<g>
</g>
<g>
</g>
<g>
</g>
<g>
</g>
<g>
</g>
</svg>
