<?xml version="1.0" encoding="iso-8859-1"?>
<!-- Generator: Adobe Illustrator 19.0.0, SVG Export Plug-In . SVG Version: 6.00 Build 0)  -->
<svg version="1.1" id="Capa_1" xmlns="http://www.w3.org/2000/svg" xmlns:xlink="http://www.w3.org/1999/xlink" x="0px" y="0px"
	 viewBox="0 0 512 512" style="enable-background:new 0 0 512 512;" xml:space="preserve">
<g>
	<path style="fill:#238FB4;" d="M25.551,466.049c-0.515-0.169-1.023-0.355-1.521-0.56C24.528,465.694,25.036,465.88,25.551,466.049z
		"/>
	<path style="fill:#238FB4;" d="M29.747,466.993c-0.42-0.053-0.837-0.118-1.25-0.193C28.91,466.876,29.327,466.94,29.747,466.993z"
		/>
	<path style="fill:#238FB4;" d="M10,444.564L10,444.564c0,9.342,5.665,17.36,13.747,20.809C15.665,461.924,10,453.907,10,444.564z"
		/>
	<path style="fill:#238FB4;" d="M501.108,230.389c0.177,0.737,0.327,1.482,0.452,2.233
		C501.435,231.871,501.286,231.126,501.108,230.389z"/>
	<path style="fill:#238FB4;" d="M501.908,235.576c0.055,0.763,0.092,1.529,0.092,2.3C502,237.105,501.963,236.339,501.908,235.576z"
		/>
	<path style="fill:#238FB4;" d="M91.008,159.742l-68.515,52.749c-2.422,1.865-4.533,4.046-6.3,6.458l74.815,40.246V159.742z"/>
	<path style="fill:#238FB4;" d="M495.807,218.949c-1.766-2.412-3.877-4.592-6.3-6.458l-68.516-52.749v99.452L495.807,218.949z"/>
	<path style="fill:#238FB4;" d="M500.477,228.156c0.196,0.615,0.374,1.236,0.533,1.863
		C500.852,229.392,500.673,228.771,500.477,228.156z"/>
	<path style="fill:#238FB4;" d="M499.54,225.577c0.279,0.67,0.53,1.353,0.763,2.042C500.069,226.93,499.818,226.248,499.54,225.577z
		"/>
	<path style="fill:#238FB4;" d="M284.148,54.388c-16.592-12.773-39.704-12.773-56.296,0l-46.846,36.066h149.989L284.148,54.388z"/>
	<path style="fill:#238FB4;" d="M495.807,218.949c0.468,0.64,0.908,1.298,1.326,1.969
		C496.715,220.248,496.276,219.589,495.807,218.949z"/>
	<path style="fill:#238FB4;" d="M498.519,223.372c0.354,0.696,0.686,1.402,0.988,2.122
		C499.205,224.773,498.872,224.067,498.519,223.372z"/>
	<path style="fill:#238FB4;" d="M497.343,221.266c0.343,0.565,0.667,1.141,0.975,1.725
		C498.011,222.406,497.686,221.832,497.343,221.266z"/>
	<path style="fill:#238FB4;" d="M501.635,233.139c0.089,0.596,0.161,1.196,0.217,1.799
		C501.797,234.335,501.724,233.735,501.635,233.139z"/>
</g>
<path style="fill:#4CC1EB;" d="M501.908,235.576c-0.015-0.213-0.036-0.425-0.055-0.638c-0.056-0.603-0.128-1.203-0.217-1.799
	c-0.026-0.172-0.047-0.345-0.075-0.517c-0.125-0.751-0.274-1.497-0.452-2.233c-0.03-0.124-0.067-0.246-0.098-0.37
	c-0.159-0.627-0.337-1.248-0.533-1.863c-0.057-0.179-0.115-0.358-0.175-0.536c-0.233-0.689-0.484-1.372-0.763-2.042
	c-0.011-0.028-0.021-0.056-0.033-0.084c-0.302-0.72-0.635-1.426-0.988-2.122c-0.065-0.128-0.134-0.253-0.201-0.38
	c-0.307-0.584-0.632-1.16-0.975-1.725c-0.07-0.116-0.138-0.233-0.21-0.348c-0.419-0.671-0.858-1.33-1.326-1.969l0,0l0,0
	l-74.815,40.246l0,0l-107.767,57.972c-1.004,2.749-2.435,5.404-4.331,7.864l-42.514,55.157c-5.246,6.806-15.512,6.806-20.758,0
	l-42.514-55.157c-1.896-2.46-3.327-5.115-4.331-7.864L91.008,259.194l0,0l-74.815-40.246l0,0l0,0
	c-0.468,0.64-0.908,1.298-1.326,1.969c-0.072,0.115-0.139,0.232-0.21,0.348c-0.343,0.565-0.667,1.141-0.975,1.725
	c-0.067,0.127-0.136,0.252-0.201,0.38c-0.354,0.696-0.686,1.402-0.988,2.122c-0.012,0.028-0.021,0.056-0.033,0.083
	c-0.279,0.671-0.53,1.354-0.763,2.044c-0.06,0.177-0.117,0.355-0.174,0.534c-0.196,0.615-0.374,1.237-0.533,1.865
	c-0.031,0.124-0.068,0.246-0.098,0.37c-0.177,0.737-0.327,1.482-0.452,2.233c-0.029,0.171-0.049,0.344-0.075,0.517
	c-0.089,0.596-0.161,1.196-0.217,1.799c-0.02,0.212-0.04,0.424-0.055,0.638c-0.055,0.763-0.092,1.529-0.092,2.3l0,0l0,0v206.688
	c0,9.342,5.665,17.36,13.747,20.809c0.094,0.04,0.189,0.077,0.283,0.116c0.498,0.205,1.006,0.391,1.521,0.56
	c0.956,0.314,1.939,0.565,2.946,0.751c0.413,0.076,0.83,0.14,1.25,0.193c0.94,0.119,1.896,0.188,2.869,0.188h446.768
	c12.49,0,22.616-10.125,22.616-22.616l0,0V237.876l0,0l0,0C502,237.105,501.963,236.338,501.908,235.576z"/>
<path style="fill:#E5EAED;" d="M91.008,259.194l107.767,57.972c-5.134-14.054,1.093-30.612,15.756-36.708
	c7.721-3.21,16.905-3.201,25.602,1.726L256,291.172l15.867-8.988c8.696-4.926,17.88-4.936,25.602-1.726
	c14.663,6.096,20.89,22.654,15.756,36.708l107.767-57.972l0,0v-99.452v-38.821c0-16.826-13.64-30.467-30.467-30.467h-59.531H181.006
	h-59.531c-16.826,0-30.467,13.641-30.467,30.467v38.821L91.008,259.194L91.008,259.194z"/>
<path style="fill:#EB5664;" d="M297.469,280.459c-7.721-3.21-16.905-3.201-25.602,1.726L256,291.172l-15.867-8.988
	c-8.696-4.926-17.88-4.936-25.602-1.726c-14.663,6.096-20.89,22.654-15.756,36.708c1.004,2.749,2.435,5.404,4.331,7.864
	l42.514,55.157c5.246,6.806,15.512,6.806,20.758,0l42.514-55.157c1.896-2.46,3.327-5.115,4.331-7.864
	C318.358,303.112,312.132,286.554,297.469,280.459z"/>
<path d="M511.913,235.278c-0.489-8.04-3.237-15.681-8.038-22.237c-0.184-0.252-0.379-0.493-0.582-0.723
	c-2.202-2.886-4.77-5.507-7.686-7.751l-64.615-49.747v-33.9c0-22.313-18.153-40.467-40.467-40.467h-56.127l-44.149-33.99
	c-20.166-15.523-48.332-15.523-68.498,0l-44.149,33.99h-56.127c-22.313,0-40.467,18.153-40.467,40.467v33.9l-64.614,49.746
	c-2.916,2.244-5.484,4.865-7.687,7.751c-0.203,0.23-0.397,0.471-0.582,0.723c-4.801,6.557-7.549,14.197-8.038,22.237
	c-0.007,0.117-0.015,0.233-0.021,0.351C0.027,236.375,0,237.124,0,237.876v206.688c0,17.984,14.632,32.616,32.616,32.616h446.768
	c17.984,0,32.616-14.632,32.616-32.616V237.876c0-0.752-0.027-1.501-0.066-2.247C511.928,235.512,511.92,235.395,511.913,235.278z
	 M430.992,180.062l47.712,36.732l-47.712,25.666V180.062z M425.729,268.001c0.001,0,0.002-0.001,0.003-0.002l65.635-35.307
	c0.413,1.686,0.632,3.426,0.632,5.184v205.518L340.817,313.678L425.729,268.001z M233.952,62.312
	c6.491-4.998,14.269-7.496,22.048-7.496c7.777,0,15.558,2.5,22.048,7.496l23.565,18.143h-91.226L233.952,62.312z M101.008,164.664
	v-25.241v-18.502c0-11.285,9.182-20.467,20.467-20.467h30.149h32.785h143.182h32.785h30.149c11.285,0,20.467,9.182,20.467,20.467
	v18.502v25.241v88.555l-86.668,46.622c-0.184-0.977-0.391-1.953-0.65-2.924c-3.117-11.714-11.27-21.077-22.366-25.691
	c-11.137-4.629-23.662-3.807-34.369,2.258L256,279.679l-10.938-6.196c-10.705-6.064-23.233-6.887-34.369-2.258
	c-11.097,4.614-19.249,13.978-22.366,25.691c-0.259,0.972-0.466,1.947-0.65,2.924l-86.668-46.622L101.008,164.664L101.008,164.664z
	 M304.73,310.38L304.73,310.38c-0.526,3.065-1.789,5.992-3.756,8.545l-21.313,27.651l-21.201,27.505
	c-0.812,1.053-1.889,1.21-2.459,1.21s-1.647-0.157-2.459-1.209l-21.201-27.506l-21.313-27.651c-1.968-2.553-3.231-5.48-3.757-8.545
	l0,0c-0.467-2.72-0.355-5.547,0.383-8.321c1.504-5.653,5.41-10.161,10.717-12.366c2.324-0.967,4.738-1.446,7.158-1.446
	c3.284,0,6.58,0.884,9.676,2.638l15.867,8.988c3.057,1.732,6.801,1.732,9.857,0l15.867-8.988c5.378-3.047,11.358-3.469,16.834-1.192
	c5.307,2.206,9.213,6.714,10.717,12.367C305.085,304.834,305.197,307.661,304.73,310.38z M86.271,268.001l84.912,45.677L20,443.394
	V237.876c0-1.758,0.219-3.498,0.632-5.184L86.269,268C86.27,268.001,86.27,268.001,86.271,268.001z M81.008,180.062v62.398
	l-47.711-25.666L81.008,180.062z M34.645,457.181L190.06,323.833l0.905,0.487c1.164,2.377,2.563,4.664,4.221,6.815l42.515,55.158
	c4.408,5.719,11.078,8.999,18.299,8.999s13.891-3.28,18.299-9l42.516-55.157c1.658-2.151,3.057-4.438,4.221-6.815l0.905-0.486
	l155.414,133.347H34.645z"/>
<path d="M309.43,171.444c0.25,0.6,0.561,1.18,0.92,1.72c0.37,0.55,0.79,1.06,1.25,1.52s0.97,0.88,1.521,1.24
	c0.54,0.36,1.12,0.67,1.72,0.92s1.229,0.45,1.87,0.57c0.649,0.13,1.31,0.2,1.96,0.2c0.649,0,1.31-0.07,1.95-0.2
	c0.64-0.12,1.27-0.32,1.87-0.57s1.189-0.56,1.729-0.92c0.55-0.36,1.061-0.78,1.521-1.24s0.88-0.97,1.239-1.52
	c0.36-0.54,0.67-1.12,0.92-1.72c0.25-0.61,0.44-1.24,0.57-1.881c0.13-0.64,0.2-1.3,0.2-1.949c0-0.65-0.07-1.311-0.2-1.95
	c-0.13-0.641-0.32-1.271-0.57-1.87c-0.25-0.61-0.56-1.19-0.92-1.73c-0.359-0.55-0.779-1.06-1.239-1.52s-0.971-0.88-1.521-1.24
	c-0.54-0.359-1.13-0.67-1.729-0.92c-0.601-0.25-1.23-0.45-1.87-0.57c-1.29-0.26-2.62-0.26-3.91,0c-0.641,0.12-1.271,0.32-1.87,0.57
	s-1.18,0.561-1.72,0.92c-0.551,0.36-1.061,0.78-1.521,1.24s-0.88,0.97-1.25,1.52c-0.359,0.54-0.67,1.12-0.92,1.73
	c-0.25,0.6-0.439,1.229-0.57,1.87c-0.13,0.64-0.189,1.3-0.189,1.95c0,0.649,0.06,1.31,0.189,1.949
	C308.99,170.204,309.18,170.834,309.43,171.444z"/>
<path d="M193.333,177.615h85.334c5.522,0,10-4.478,10-10s-4.478-10-10-10h-85.334c-5.522,0-10,4.478-10,10
	S187.811,177.615,193.333,177.615z"/>
<path d="M318.667,228.949c5.522,0,10-4.478,10-10s-4.478-10-10-10H193.333c-5.522,0-10,4.478-10,10s4.478,10,10,10H318.667z"/>
<g>
</g>
<g>
</g>
<g>
</g>
<g>
</g>
<g>
</g>
<g>
</g>
<g>
</g>
<g>
</g>
<g>
</g>
<g>
</g>
<g>
</g>
<g>
</g>
<g>
</g>
<g>
</g>
<g>
</g>
</svg>
