<?xml version="1.0" encoding="iso-8859-1"?>
<!-- Generator: Adobe Illustrator 19.0.0, SVG Export Plug-In . SVG Version: 6.00 Build 0)  -->
<svg version="1.1" id="Capa_1" xmlns="http://www.w3.org/2000/svg" xmlns:xlink="http://www.w3.org/1999/xlink" x="0px" y="0px"
	 viewBox="0 0 512 512" style="enable-background:new 0 0 512 512;" xml:space="preserve">
<rect x="164.069" y="444.47" style="fill:#F8C55A;" width="44.874" height="57.53"/>
<path style="fill:#4CC1EB;" d="M491.854,10.001l-98.498,1.665c-6.377,0.108-10.438,6.855-7.549,12.541l8.477,16.682
	c0.584,1.15,0.765,2.464,0.513,3.729l-4.211,21.144c-0.572,2.874,0.897,5.766,3.556,6.998l19.56,9.064
	c1.171,0.542,2.125,1.463,2.709,2.613l8.477,16.682c2.889,5.686,10.734,6.383,14.58,1.296l59.416-78.577
	C503.225,18.098,499.049,9.88,491.854,10.001z"/>
<g>
	<path style="fill:#E5EAED;" d="M350.937,437.734c-1.093,0.902-2.252,1.727-3.469,2.466
		C348.685,439.461,349.844,438.636,350.937,437.734z"/>
	<path style="fill:#E5EAED;" d="M350.937,437.734c5.829-4.811,9.78-11.817,10.586-19.753
		C360.717,425.917,356.767,432.923,350.937,437.734z"/>
	<path style="fill:#E5EAED;" d="M329.644,195.617H43.375c-17.69,0-32.031,14.341-32.031,32.031v169.184h350.332V227.648
		C361.676,209.958,347.335,195.617,329.644,195.617z M186.51,366.264c-36.288,0-65.705-29.417-65.705-65.705
		s29.417-65.705,65.705-65.705s65.705,29.417,65.705,65.705C252.214,336.847,222.797,366.264,186.51,366.264z"/>
	<path style="fill:#E5EAED;" d="M25.551,440.2c-1.217-0.739-2.376-1.564-3.469-2.466C23.175,438.636,24.334,439.461,25.551,440.2z"
		/>
	<path style="fill:#E5EAED;" d="M28.059,441.563c-0.86-0.415-1.697-0.87-2.508-1.362C26.362,440.693,27.199,441.148,28.059,441.563z
		"/>
	<path style="fill:#E5EAED;" d="M343.653,442.153c-0.883,0.373-1.787,0.705-2.711,0.992
		C341.866,442.858,342.771,442.526,343.653,442.153z"/>
	<path style="fill:#E5EAED;" d="M32.077,443.146c-0.924-0.288-1.829-0.619-2.711-0.992
		C30.249,442.526,31.153,442.858,32.077,443.146z"/>
	<path style="fill:#E5EAED;" d="M347.468,440.2c-0.811,0.493-1.648,0.948-2.508,1.362C345.82,441.148,346.657,440.693,347.468,440.2
		z"/>
	<path style="fill:#E5EAED;" d="M11.496,417.981c0.806,7.936,4.756,14.942,10.586,19.753
		C16.252,432.923,12.302,425.917,11.496,417.981z"/>
</g>
<path style="fill:#4CC1EB;" d="M11.344,414.964c0,1.019,0.052,2.025,0.152,3.017c0.806,7.936,4.756,14.942,10.586,19.753
	c1.093,0.902,2.252,1.727,3.469,2.466c0.811,0.493,1.648,0.948,2.508,1.362c0.43,0.207,0.866,0.404,1.307,0.591
	c0.883,0.373,1.787,0.705,2.711,0.992c2.772,0.862,5.719,1.327,8.775,1.327h123.221h44.874h123.221c3.056,0,6.003-0.464,8.775-1.327
	c0.924-0.288,1.829-0.619,2.711-0.992c0.441-0.187,0.877-0.384,1.307-0.591c0.86-0.415,1.697-0.87,2.508-1.362
	c1.217-0.739,2.376-1.564,3.469-2.466c5.829-4.811,9.78-11.817,10.586-19.753c0.101-0.992,0.152-1.999,0.152-3.017v-18.132H11.344
	V414.964z"/>
<circle style="fill:#93CA66;" cx="186.509" cy="300.56" r="65.7"/>
<path d="M492.009,0c-0.107,0-0.216,0.001-0.324,0.002l-98.499,1.665c-6.464,0.11-12.313,3.482-15.647,9.021
	c-3.333,5.539-3.576,12.286-0.647,18.049l7.81,15.371l-3.924,19.7c-1.479,7.429,2.288,14.84,9.159,18.023l18.226,8.445l7.811,15.372
	c2.929,5.764,8.521,9.546,14.961,10.118c0.563,0.05,1.125,0.075,1.683,0.075c5.819,0,11.27-2.691,14.828-7.396l0,0l59.417-78.577
	c4.333-5.731,5.004-13.271,1.749-19.677C505.405,3.882,499.065,0,492.009,0z M432.812,94.639l-7.485-14.731
	c-1.593-3.135-4.227-5.677-7.42-7.157l-16.952-7.855l3.649-18.324c0.687-3.449,0.188-7.075-1.406-10.211l-7.485-14.731l93.501-1.581
	L432.812,94.639z"/>
<path d="M427.502,61.412c1.524,0,3.071-0.35,4.522-1.087l26.91-13.675c4.924-2.502,6.887-8.521,4.385-13.445
	c-2.502-4.923-8.521-6.887-13.445-4.385l-26.91,13.675c-4.924,2.502-6.887,8.521-4.385,13.445
	C420.343,59.412,423.856,61.412,427.502,61.412z"/>
<path d="M108.632,117.955c2.714,0,5.42-1.099,7.393-3.263c6.069-6.657,13.768-12.214,22.885-16.515
	c4.995-2.356,7.133-8.316,4.777-13.311c-2.355-4.995-8.315-7.133-13.311-4.777c-11.492,5.422-21.292,12.53-29.131,21.128
	c-3.721,4.082-3.428,10.406,0.653,14.127C103.815,117.093,106.228,117.955,108.632,117.955z"/>
<path d="M83.259,132.903c-2.668,8.715-4.021,18.009-4.021,27.625c0,2.657,0.105,5.362,0.312,8.041
	c0.404,5.244,4.786,9.231,9.959,9.231c0.258,0,0.519-0.011,0.78-0.03c5.506-0.425,9.626-5.233,9.201-10.74
	c-0.167-2.168-0.252-4.356-0.252-6.502c0-7.63,1.058-14.955,3.145-21.771c1.617-5.28-1.354-10.872-6.635-12.489
	C90.467,124.654,84.876,127.623,83.259,132.903z"/>
<path d="M165.429,89.67c0.588,0,1.186-0.053,1.785-0.16c7.949-1.433,15.325-2.159,21.923-2.159c2.592,0,5.136,0.111,7.561,0.332
	c5.509,0.509,10.364-3.555,10.864-9.055s-3.554-10.363-9.054-10.863c-3.024-0.274-6.177-0.414-9.371-0.414
	c-7.894,0-16.225,0.81-25.47,2.476c-5.436,0.979-9.047,6.18-8.068,11.615C156.471,86.277,160.683,89.67,165.429,89.67z"/>
<path d="M282.776,133.429c7.911,3.146,17.179,4.809,26.803,4.809c1.545,0,3.126-0.043,4.699-0.128
	c5.515-0.297,9.744-5.009,9.447-10.523c-0.297-5.515-5.013-9.746-10.524-9.447c-8.501,0.457-16.522-0.704-23.03-3.292
	c-1.29-0.515-2.586-1.059-3.852-1.62c-5.05-2.238-10.957,0.041-13.194,5.091c-2.237,5.049,0.042,10.956,5.091,13.194
	C279.713,132.175,281.247,132.819,282.776,133.429z"/>
<path d="M374.442,92.145c-4.473-3.242-10.725-2.244-13.965,2.229c-4.977,6.867-11.752,12.47-20.139,16.653
	c-4.942,2.465-6.95,8.47-4.484,13.412c1.75,3.509,5.285,5.538,8.956,5.538c1.5,0,3.022-0.339,4.456-1.054
	c11.298-5.636,20.519-13.312,27.405-22.813C379.912,101.638,378.915,95.385,374.442,92.145z"/>
<path d="M242.301,109.06c2.097,1.582,4.22,3.183,6.396,4.782c1.784,1.312,3.859,1.944,5.916,1.944c3.073,0,6.105-1.412,8.065-4.078
	c3.271-4.449,2.316-10.708-2.134-13.979c-2.11-1.552-4.167-3.104-6.201-4.637c-6.686-5.042-13.599-10.256-21.268-14.559
	c-4.815-2.703-10.912-0.988-13.614,3.827c-2.702,4.816-0.989,10.912,3.828,13.614C229.781,99.617,235.862,104.204,242.301,109.06z"
	/>
<path d="M329.644,185.616H43.375c-23.176,0-42.031,18.855-42.031,42.032v169.184v18.132c0,21.785,17.723,39.509,39.508,39.509
	h113.221V492H122.47c-5.523,0-10,4.478-10,10s4.477,10,10,10h41.603h44.874h41.603c5.523,0,10-4.478,10-10s-4.477-10-10-10h-31.603
	v-37.527h113.221c21.785,0,39.508-17.724,39.508-39.509v-18.132V227.648C371.675,204.472,352.82,185.616,329.644,185.616z
	 M198.946,492h-24.874v-37.527h24.874L198.946,492L198.946,492z M351.675,414.964c0,10.757-8.751,19.509-19.508,19.509H216.933
	h-60.846H40.852c-10.757,0-19.508-8.752-19.508-19.509v-8.132h330.332v8.132H351.675z M21.344,386.832V227.648
	c0-12.148,9.883-22.032,22.031-22.032h286.269c12.148,0,22.031,9.884,22.031,22.032v159.184H21.344z"/>
<path d="M186.51,224.854c-41.563,0-75.399,33.67-75.691,75.167c-0.003,0.055-0.002,0.109-0.004,0.165
	c-0.001,0.125-0.009,0.249-0.009,0.374c0,0.118,0.008,0.234,0.009,0.353c0.002,0.058,0.001,0.116,0.004,0.174
	c0.286,41.49,34.106,75.159,75.658,75.177c0.014,0,0.028,0.003,0.042,0.003c0.021,0,0.042-0.004,0.063-0.004
	c41.711-0.039,75.633-33.983,75.633-75.702C262.214,258.815,228.253,224.854,186.51,224.854z M169.901,247.384
	c-6.438,17.015-9.679,34.902-9.724,52.797c-9.779-1.383-19.458-3.585-28.919-6.607C134.004,271.74,149.42,253.795,169.901,247.384z
	 M132.67,314.846c9.48,2.614,19.126,4.502,28.85,5.668c1.511,11.277,4.297,22.425,8.382,33.22
	C151.754,348.054,137.577,333.319,132.67,314.846z M192.543,355.932c-5.128-10.928-8.659-22.38-10.594-34.035
	c1.034,0.016,2.069,0.034,3.103,0.034c18.717,0,37.443-2.659,55.525-7.979C235.034,336.322,215.942,353.399,192.543,355.932z
	 M241.565,292.671c-19.823,6.703-40.643,9.755-61.371,9.188c-0.193-19.346,3.924-38.719,12.349-56.673
	c25.274,2.736,45.524,22.442,49.099,47.458L241.565,292.671z"/>
<path d="M122.221,242.996c3.88-3.931,3.839-10.263-0.092-14.143c-3.763-3.714-7.104-7.925-10.213-12.871
	c-2.939-4.676-9.113-6.085-13.788-3.144c-4.676,2.938-6.083,9.112-3.145,13.788c3.939,6.266,8.223,11.65,13.096,16.461
	c1.948,1.923,4.487,2.883,7.024,2.883C117.685,245.971,120.265,244.978,122.221,242.996z"/>
<path d="M177.276,424.479c0.25,0.601,0.56,1.181,0.92,1.721c0.36,0.55,0.78,1.06,1.24,1.52s0.98,0.88,1.52,1.25
	c0.54,0.36,1.13,0.67,1.73,0.91c0.6,0.25,1.23,0.45,1.87,0.57c0.049,0.01,0.099,0.013,0.148,0.022
	c0.601,0.111,1.202,0.177,1.812,0.177c0.601,0,1.201-0.065,1.802-0.177c0.049-0.009,0.098-0.013,0.148-0.022
	c0.64-0.12,1.27-0.32,1.87-0.57c0.6-0.24,1.18-0.55,1.72-0.91c0.55-0.37,1.06-0.79,1.52-1.25c0.47-0.46,0.88-0.97,1.25-1.52
	c0.36-0.54,0.67-1.12,0.92-1.721c0.25-0.609,0.44-1.239,0.57-1.87c0.13-0.649,0.2-1.31,0.2-1.96c0-0.649-0.07-1.31-0.2-1.949
	c-0.13-0.641-0.32-1.271-0.57-1.87c-0.25-0.61-0.56-1.19-0.92-1.73c-0.37-0.55-0.78-1.06-1.25-1.52c-0.46-0.46-0.97-0.88-1.52-1.24
	c-0.54-0.36-1.12-0.67-1.72-0.92s-1.23-0.44-1.87-0.57c-1.29-0.26-2.62-0.26-3.91,0c-0.64,0.13-1.27,0.32-1.87,0.57
	s-1.18,0.56-1.73,0.92c-0.54,0.36-1.06,0.78-1.52,1.24s-0.88,0.97-1.24,1.52c-0.36,0.54-0.67,1.12-0.92,1.73
	c-0.25,0.6-0.44,1.229-0.57,1.87c-0.13,0.64-0.2,1.3-0.2,1.949c0,0.65,0.07,1.311,0.2,1.96
	C176.836,423.24,177.026,423.87,177.276,424.479z"/>
<path d="M327.496,222.5c-5.523,0-10,4.478-10,10V305c0,5.522,4.477,10,10,10s10-4.478,10-10v-72.5
	C337.496,226.978,333.019,222.5,327.496,222.5z"/>
<path d="M336.726,341.17c-0.25-0.601-0.56-1.18-0.92-1.72c-0.36-0.551-0.78-1.061-1.24-1.521c-1.86-1.86-4.44-2.93-7.07-2.93
	s-5.21,1.069-7.07,2.93c-0.46,0.46-0.88,0.97-1.24,1.521c-0.36,0.54-0.67,1.119-0.92,1.72c-0.25,0.609-0.45,1.24-0.57,1.88
	c-0.13,0.64-0.2,1.3-0.2,1.95c0,0.649,0.07,1.31,0.2,1.95s0.32,1.27,0.57,1.88c0.25,0.6,0.56,1.18,0.92,1.72
	c0.36,0.55,0.78,1.06,1.24,1.52c1.86,1.86,4.44,2.931,7.07,2.931s5.21-1.07,7.07-2.931c0.46-0.46,0.88-0.97,1.24-1.52
	c0.36-0.54,0.67-1.12,0.92-1.72c0.25-0.61,0.44-1.24,0.57-1.88c0.13-0.641,0.2-1.301,0.2-1.95c0-0.65-0.07-1.311-0.2-1.95
	S336.976,341.779,336.726,341.17z"/>
<g>
</g>
<g>
</g>
<g>
</g>
<g>
</g>
<g>
</g>
<g>
</g>
<g>
</g>
<g>
</g>
<g>
</g>
<g>
</g>
<g>
</g>
<g>
</g>
<g>
</g>
<g>
</g>
<g>
</g>
</svg>
