<?xml version="1.0" encoding="iso-8859-1"?>
<!-- Generator: Adobe Illustrator 19.0.0, SVG Export Plug-In . SVG Version: 6.00 Build 0)  -->
<svg version="1.1" id="Capa_1" xmlns="http://www.w3.org/2000/svg" xmlns:xlink="http://www.w3.org/1999/xlink" x="0px" y="0px"
	 viewBox="0 0 512 512" style="enable-background:new 0 0 512 512;" xml:space="preserve">
<path style="fill:#F39E54;" d="M452.403,86v255.684c0,24.172-19.595,43.767-43.767,43.767H183.747
	c-6.349,0-12.241,3.299-15.558,8.712l-16.752,27.333c-3.044,4.967-9.765,6.119-14.289,2.449l-40.705-33.021
	c-4.365-3.541-9.814-5.473-15.435-5.473H62.425c-0.951,0-1.893-0.041-2.829-0.101v32.234c0,24.171,19.595,43.767,43.767,43.767
	h224.889c6.349,0,12.241,3.3,15.558,8.712l16.752,27.334c3.044,4.967,9.765,6.118,14.289,2.448l40.705-33.021
	c4.365-3.541,9.814-5.474,15.435-5.474h18.583c24.172,0,43.767-19.595,43.767-43.767V129.667
	C493.341,106.446,475.255,87.46,452.403,86z"/>
<path style="fill:#F8C55A;" d="M81.008,385.452c5.62,0,11.07,1.932,15.435,5.473l40.705,33.021
	c4.524,3.67,11.245,2.519,14.289-2.449l16.752-27.333c3.317-5.413,9.209-8.712,15.558-8.712h224.889
	c24.172,0,43.767-19.595,43.767-43.767V86V53.767c0-24.171-19.595-43.767-43.767-43.767H62.425
	c-24.172,0-43.767,19.595-43.767,43.767v287.918c0,23.221,18.086,42.207,40.938,43.666c0.936,0.06,1.878,0.101,2.829,0.101
	L81.008,385.452L81.008,385.452z M366.711,48.371c20.275,0,36.712,16.437,36.712,36.712c0,14.508-8.417,27.046-20.633,33.008
	c15.429,6.334,26.299,21.5,26.299,39.212v29.652c0,3.707-3.005,6.711-6.712,6.711h-71.333c-3.707,0-6.712-3.005-6.712-6.711v-29.652
	c0-17.712,10.87-32.878,26.3-39.212C338.417,112.129,330,99.591,330,85.083C330,64.808,346.436,48.371,366.711,48.371z
	 M72.907,74.657l35.245-29.574c6.991-5.866,16.555-6.648,24.2-2.741c0.095,0.049,0.185,0.111,0.28,0.161
	c0.898,0.476,1.762,1.029,2.598,1.635c0.762,0.553,1.5,1.147,2.197,1.807c0.074,0.07,0.155,0.129,0.228,0.201
	c0.534,0.519,1.046,1.07,1.535,1.653l20.947,24.963l20.947,24.964c0.157,0.187,0.288,0.388,0.438,0.579
	c0.379,0.483,0.746,0.971,1.078,1.475c6.08,9.213,4.428,21.718-4.232,28.984l-26.159,21.95c-5.018,4.21-5.672,11.691-1.462,16.709
	l68.612,81.769c4.21,5.018,11.691,5.672,16.709,1.462l26.159-21.95c6.991-5.866,16.555-6.648,24.2-2.741
	c0.096,0.049,0.185,0.111,0.28,0.161c0.898,0.476,1.762,1.029,2.598,1.635c0.762,0.552,1.5,1.146,2.197,1.807
	c0.074,0.07,0.155,0.129,0.228,0.201c0.534,0.519,1.046,1.07,1.535,1.652l10.473,12.482l31.421,37.445
	c7.821,9.321,6.605,23.217-2.716,31.039L297.2,341.958c-14.867,12.475-36.026,14.098-52.622,4.036l-6.997-4.242
	c-79.643-48.285-141.102-121.53-174.824-208.347l-2.963-7.627C52.768,107.688,58.041,87.131,72.907,74.657z"/>
<g>
	<path style="fill:#93CA66;" d="M132.632,42.503c0.898,0.476,1.762,1.029,2.598,1.635C134.394,43.532,133.53,42.979,132.632,42.503z
		"/>
	<path style="fill:#93CA66;" d="M137.427,45.945c0.074,0.07,0.155,0.129,0.228,0.201C137.582,46.075,137.501,46.016,137.427,45.945z
		"/>
	<path style="fill:#93CA66;" d="M237.581,341.752l6.997,4.242c16.595,10.062,37.755,8.438,52.622-4.036l35.245-29.574
		c9.321-7.821,10.537-21.718,2.716-31.039L303.74,243.9l31.42,37.445c7.821,9.321,6.605,23.217-2.715,31.038l-11.336,9.512
		l-70.216-83.681l11.336-9.512c6.991-5.866,16.555-6.648,24.2-2.741c-7.645-3.908-17.209-3.125-24.2,2.741l-26.159,21.95
		c-5.018,4.21-12.499,3.556-16.709-1.462l-68.612-81.769c-4.21-5.018-3.556-12.499,1.462-16.709l26.159-21.95
		c8.66-7.266,10.311-19.771,4.232-28.984c6.079,9.213,4.428,21.718-4.232,28.984l-11.336,9.512L96.816,54.595l11.336-9.512
		c6.991-5.866,16.555-6.648,24.2-2.741c-7.645-3.908-17.209-3.125-24.2,2.741L72.907,74.657
		c-14.867,12.475-20.139,33.031-13.113,51.122l2.963,7.627C96.479,220.223,157.939,293.467,237.581,341.752z"/>
	<path style="fill:#93CA66;" d="M291.503,229.566c0.074,0.07,0.155,0.129,0.228,0.201
		C291.658,229.695,291.577,229.636,291.503,229.566z"/>
	<path style="fill:#93CA66;" d="M286.708,226.124c0.898,0.476,1.762,1.029,2.598,1.635
		C288.47,227.153,287.606,226.6,286.708,226.124z"/>
	<path style="fill:#93CA66;" d="M181.084,97.726c0.157,0.188,0.288,0.388,0.438,0.579C181.372,98.114,181.241,97.913,181.084,97.726
		l-20.947-24.963L181.084,97.726z"/>
</g>
<g>
	<path style="fill:#E5EAED;" d="M108.152,45.083l-11.336,9.512l70.217,83.681l11.336-9.512c8.66-7.266,10.311-19.771,4.232-28.984
		c-0.333-0.504-0.699-0.992-1.078-1.475c-0.15-0.191-0.281-0.392-0.438-0.579l-20.947-24.963L139.19,47.799
		c-0.489-0.583-1.001-1.134-1.535-1.653c-0.073-0.071-0.154-0.13-0.228-0.201c-0.698-0.66-1.436-1.254-2.197-1.807
		c-0.836-0.606-1.699-1.159-2.598-1.635c-0.095-0.05-0.185-0.112-0.28-0.161C124.707,38.435,115.143,39.217,108.152,45.083z"/>
	<path style="fill:#E5EAED;" d="M262.228,228.704l-11.336,9.512l70.216,83.681l11.336-9.512c9.321-7.821,10.537-21.717,2.715-31.038
		l-31.42-37.445l-10.473-12.482c-0.489-0.583-1.001-1.133-1.535-1.652c-0.073-0.071-0.154-0.131-0.228-0.201
		c-0.698-0.66-1.436-1.254-2.197-1.807c-0.836-0.606-1.699-1.16-2.598-1.635c-0.095-0.05-0.185-0.112-0.28-0.161
		C278.783,222.055,269.219,222.838,262.228,228.704z"/>
</g>
<path style="fill:#ABB0B7;" d="M350.632,118.091c-15.43,6.334-26.3,21.5-26.3,39.212v29.652c0,3.707,3.005,6.711,6.712,6.711h71.333
	c3.707,0,6.712-3.005,6.712-6.711v-29.652c0-17.712-10.87-32.878-26.299-39.212c-4.856,2.37-10.311,3.704-16.079,3.704
	S355.489,120.461,350.632,118.091z"/>
<path style="fill:#E5EAED;" d="M350.632,118.091c4.856,2.37,10.311,3.704,16.079,3.704s11.222-1.333,16.079-3.704
	c12.215-5.961,20.633-18.5,20.633-33.008c0-20.275-16.436-36.712-36.712-36.712C346.436,48.371,330,64.808,330,85.083
	C330,99.591,338.417,112.129,350.632,118.091z"/>
<path d="M462.403,77.458V53.767C462.403,24.119,438.284,0,408.636,0H62.425C32.778,0,8.659,24.119,8.659,53.767v287.918
	c0,25.226,17.466,46.439,40.938,52.208v23.691c0,29.647,24.12,53.768,53.767,53.768h224.889c2.849,0,5.543,1.509,7.031,3.938
	l16.753,27.335c2.957,4.823,7.851,8.138,13.427,9.093c1.104,0.189,2.213,0.282,3.316,0.282c4.472,0,8.848-1.528,12.372-4.388
	l40.704-33.021c2.574-2.089,5.818-3.239,9.135-3.239h18.583c29.647,0,53.767-24.12,53.767-53.768V129.666
	C503.34,104.44,485.874,83.227,462.403,77.458z M483.34,417.584c0,18.619-15.147,33.768-33.767,33.768H430.99
	c-7.89,0-15.608,2.737-21.734,7.707l-40.384,32.762l-16.536-26.982c-5.099-8.318-14.327-13.486-24.084-13.486H103.363
	c-18.619,0-33.767-15.148-33.767-33.768v-22.133h11.412c3.315,0,6.56,1.15,9.135,3.239l40.705,33.021
	c3.524,2.859,7.9,4.388,12.372,4.388c1.104,0,2.213-0.093,3.317-0.282c5.577-0.956,10.47-4.271,13.427-9.094l16.752-27.334
	c1.489-2.43,4.183-3.938,7.032-3.938h224.89c29.647,0,53.767-24.119,53.767-53.767v-5.354c0-5.522-4.478-10-10-10s-10,4.478-10,10
	v5.354c0,18.619-15.147,33.767-33.767,33.767h-224.89c-9.757,0-18.986,5.168-24.084,13.487l-16.536,26.981l-40.384-32.761
	c-6.127-4.971-13.846-7.708-21.735-7.708H69.596h-7.171c-4.54,0-8.871-0.906-12.829-2.539
	c-12.274-5.061-20.938-17.149-20.938-31.228V53.767C28.659,35.147,43.806,20,62.425,20h346.211
	c18.619,0,33.767,15.147,33.767,33.767V75.9v20v160.432c0,5.522,4.478,10,10,10s10-4.478,10-10V98.438
	c12.274,5.061,20.938,17.149,20.938,31.228L483.34,417.584L483.34,417.584z"/>
<path d="M344.792,277.526c-0.261-0.383-0.534-0.76-0.813-1.133c-0.049-0.065-0.094-0.133-0.143-0.198
	c-0.327-0.432-0.666-0.858-1.017-1.276l-41.894-49.928c-2.483-2.959-5.392-5.356-8.563-7.176c-1.359-0.78-2.766-1.454-4.208-2.021
	c-0.481-0.189-0.966-0.366-1.454-0.531c-10.251-3.468-22.022-1.67-30.901,5.78l-26.16,21.95c-0.488,0.409-1.008,0.453-1.358,0.429
	c-0.35-0.031-0.853-0.17-1.262-0.658l-68.613-81.769c-0.659-0.786-0.556-1.962,0.229-2.621l26.16-21.949
	c7.61-6.386,11.5-15.585,11.427-24.82c-0.043-5.41-1.456-10.829-4.268-15.705c-0.922-1.598-1.985-3.141-3.211-4.602L175.822,75.9
	l-28.973-34.528c-5.5-6.555-13.223-10.575-21.746-11.32c-0.013-0.001-0.026-0.001-0.038-0.002
	c-8.51-0.744-16.799,1.882-23.343,7.375l-11.291,9.474l-0.045,0.038l-23.907,20.06c-17.542,14.719-24.137,38.631-16.82,60.159
	c0.255,0.751,0.524,1.499,0.813,2.244l2.963,7.627c4.832,12.439,10.237,24.601,16.16,36.481
	c15.138,30.36,33.772,58.825,55.693,84.949c30.499,36.347,66.535,67.249,107.108,91.848l6.997,4.243
	c8.865,5.374,18.788,8.019,28.671,8.018c12.709-0.001,25.35-4.376,35.563-12.946l23.909-20.061l0,0l11.336-9.512
	c0.419-0.352,0.826-0.712,1.224-1.082c0.055-0.05,0.105-0.104,0.16-0.155c0.345-0.324,0.684-0.653,1.012-0.99
	c0.01-0.01,0.019-0.021,0.029-0.031c5.118-5.267,8.246-12.073,8.894-19.488c0.649-7.411-1.249-14.653-5.369-20.726
	C344.812,277.558,344.803,277.542,344.792,277.526z M171.941,121.104l-3.676,3.084L144.529,95.9l-16.782-20l-16.842-20.072
	l3.675-3.084c0.291-0.244,0.593-0.471,0.901-0.685c0.109-0.076,0.223-0.142,0.334-0.213c0.201-0.13,0.403-0.259,0.611-0.376
	c0.142-0.08,0.287-0.151,0.432-0.225c0.183-0.094,0.366-0.186,0.553-0.27c0.161-0.072,0.325-0.138,0.489-0.203
	c0.176-0.07,0.353-0.136,0.532-0.198c0.175-0.06,0.35-0.115,0.528-0.167c0.175-0.051,0.351-0.096,0.528-0.139
	c0.183-0.044,0.365-0.086,0.55-0.122c0.181-0.035,0.364-0.061,0.546-0.087s0.364-0.054,0.547-0.072
	c0.206-0.02,0.414-0.028,0.622-0.037c0.162-0.007,0.323-0.021,0.486-0.021c0.37-0.001,0.743,0.011,1.117,0.044
	c0.002,0,0.003,0,0.005,0c3.201,0.28,6.102,1.79,8.167,4.252l18.186,21.673l16.782,20l6.926,8.254
	C177.688,109.235,177.022,116.839,171.941,121.104z M290.772,334.298c-11.592,9.725-28.07,10.99-41.009,3.146l-6.997-4.242
	C165.438,286.319,104.82,214.077,72.079,129.784l-2.076-5.345l-0.886-2.281c-5.478-14.104-1.372-30.115,10.219-39.841l2.002-1.68
	l14.246-11.954l6.091,7.259l16.746,19.957l34.524,41.144l-7.164,6.011c-9.233,7.749-10.441,21.564-2.694,30.797l68.612,81.768
	c3.753,4.474,9.024,7.219,14.841,7.728c5.813,0.509,11.483-1.279,15.957-5.032l7.162-6.01l57.362,68.36L290.772,334.298z
	 M330.268,296.557c-0.279,3.201-1.79,6.103-4.251,8.168l-3.676,3.084l-57.36-68.36l3.675-3.084c5.08-4.264,12.684-3.6,16.95,1.482
	l41.894,49.928C329.565,290.236,330.548,293.355,330.268,296.557z"/>
<path d="M400.479,117.308c5.621-5.887,9.719-13.232,11.665-21.408c0.827-3.474,1.278-7.093,1.278-10.816
	c0-3.143-0.317-6.213-0.912-9.184c-4.279-21.374-23.186-37.528-45.799-37.528s-41.521,16.155-45.8,37.528
	c-0.595,2.97-0.911,6.04-0.911,9.183c0,3.724,0.451,7.342,1.278,10.816c1.947,8.176,6.045,15.521,11.666,21.408
	c-11.371,9.616-18.611,23.973-18.611,39.996v29.651c0,9.215,7.497,16.712,16.712,16.712h71.333c9.215,0,16.712-7.497,16.712-16.712
	v-29.651C419.089,141.281,411.85,126.923,400.479,117.308z M341.626,75.899c3.753-10.218,13.581-17.528,25.085-17.528
	c11.503,0,21.331,7.31,25.084,17.528c1.052,2.865,1.627,5.958,1.627,9.184c0,3.849-0.825,7.507-2.297,10.816
	c-2.027,4.558-5.29,8.449-9.366,11.239c-4.288,2.936-9.47,4.657-15.048,4.657s-10.76-1.721-15.049-4.656
	c-4.076-2.791-7.339-6.681-9.367-11.239C340.824,92.59,340,88.932,340,85.083C340,81.858,340.574,78.764,341.626,75.899z
	 M399.089,183.667h-64.757v-26.363c0-12.126,6.705-22.711,16.599-28.258c4.932,1.776,10.244,2.75,15.78,2.75
	s10.848-0.974,15.78-2.75c9.893,5.547,16.598,16.132,16.598,28.258L399.089,183.667L399.089,183.667z"/>
<path d="M461.639,292.51c-0.25-0.61-0.56-1.19-0.92-1.73c-0.37-0.55-0.78-1.06-1.25-1.52c-2.32-2.32-5.77-3.39-9.02-2.73
	c-0.641,0.131-1.271,0.32-1.87,0.57c-0.61,0.25-1.19,0.561-1.73,0.92c-0.55,0.36-1.06,0.78-1.52,1.24s-0.88,0.97-1.24,1.52
	c-0.36,0.54-0.67,1.12-0.92,1.73c-0.25,0.6-0.44,1.23-0.57,1.87s-0.2,1.3-0.2,1.95c0,0.649,0.07,1.31,0.2,1.96
	c0.13,0.63,0.32,1.26,0.57,1.87c0.25,0.6,0.56,1.18,0.92,1.72c0.36,0.55,0.78,1.06,1.24,1.52s0.97,0.88,1.52,1.25
	c0.54,0.36,1.12,0.66,1.73,0.91c0.6,0.25,1.229,0.45,1.87,0.57c0.64,0.13,1.3,0.2,1.949,0.2c0.66,0,1.311-0.07,1.96-0.2
	c0.631-0.12,1.261-0.32,1.87-0.57c0.601-0.25,1.181-0.56,1.721-0.91c0.55-0.37,1.06-0.79,1.52-1.25c0.47-0.46,0.88-0.97,1.25-1.52
	c0.36-0.54,0.67-1.12,0.92-1.72c0.25-0.61,0.44-1.24,0.57-1.87c0.13-0.65,0.189-1.311,0.189-1.96c0-0.65-0.06-1.311-0.189-1.95
	S461.889,293.109,461.639,292.51z"/>
<g>
</g>
<g>
</g>
<g>
</g>
<g>
</g>
<g>
</g>
<g>
</g>
<g>
</g>
<g>
</g>
<g>
</g>
<g>
</g>
<g>
</g>
<g>
</g>
<g>
</g>
<g>
</g>
<g>
</g>
</svg>
