<?xml version="1.0" encoding="iso-8859-1"?>
<!-- Generator: Adobe Illustrator 19.0.0, SVG Export Plug-In . SVG Version: 6.00 Build 0)  -->
<svg version="1.1" id="Capa_1" xmlns="http://www.w3.org/2000/svg" xmlns:xlink="http://www.w3.org/1999/xlink" x="0px" y="0px"
	 viewBox="0 0 512 512" style="enable-background:new 0 0 512 512;" xml:space="preserve">
<path style="fill:#F8C55A;" d="M303.232,411.722l-87.303-50.358h-59.215V479.99c0,12.155,9.854,22.01,22.01,22.01h275.24
	c12.156,0,22.01-9.854,22.01-22.01V327.206l-146.518,84.516C321.341,416.403,311.347,416.403,303.232,411.722z"/>
<path style="fill:#F39E54;" d="M475.72,323.854c-0.056-0.364-0.12-0.726-0.193-1.083c-0.366-1.791-0.951-3.503-1.723-5.106
	c-0.155-0.321-0.317-0.637-0.486-0.949c-0.508-0.936-1.082-1.83-1.716-2.678c-0.211-0.282-0.429-0.56-0.653-0.832
	c-0.897-1.087-1.897-2.086-2.984-2.983c-3.805-3.14-8.682-5.026-14-5.026h-85.813c-1.716,31.307-27.64,56.167-59.376,56.167h-92.847
	l87.303,50.358c8.115,4.681,18.109,4.681,26.224,0l146.518-84.516c0-0.38-0.01-0.757-0.029-1.133
	C475.907,325.323,475.832,324.583,475.72,323.854z"/>
<path style="fill:#238FB4;" d="M105.75,327.184V227.38H52.43c-9.061,0-16.406,7.345-16.406,16.406v75.195
	c0,22.208,17.083,40.413,38.823,42.222C92.186,359.553,105.75,344.955,105.75,327.184z"/>
<path style="fill:#4CC1EB;" d="M308.775,361.363c31.736,0,57.66-24.86,59.376-56.167c0.06-1.095,0.096-2.196,0.096-3.305V227.38
	V29.624c0-10.838-8.786-19.624-19.624-19.624H125.374c-10.838,0-19.624,8.786-19.624,19.624V227.38v99.804
	c0,17.771-13.563,32.369-30.902,34.019c-1.079,0.103-2.171,0.16-3.277,0.16h6.836h78.307h59.215L308.775,361.363L308.775,361.363z
	 M228.795,65.143c0-5.789,4.693-10.481,10.482-10.481h74.739c5.789,0,10.482,4.692,10.482,10.481v51.953
	c0,5.789-4.693,10.481-10.482,10.481h-74.739c-5.789,0-10.482-4.693-10.482-10.481V65.143z"/>
<path style="fill:#E5EAED;" d="M239.277,127.577h74.739c5.789,0,10.482-4.693,10.482-10.481V65.143
	c0-5.789-4.693-10.481-10.482-10.481h-74.739c-5.789,0-10.482,4.692-10.482,10.481v51.953
	C228.795,122.884,233.488,127.577,239.277,127.577z"/>
<path d="M167.871,322.097c0.075-0.159,0.147-0.319,0.228-0.473c-0.082,0.154-0.166,0.308-0.241,0.466L167.871,322.097z"/>
<path d="M453.964,295.196h-75.717V227.38V29.624C378.247,13.289,364.958,0,348.623,0H125.374C109.039,0,95.75,13.289,95.75,29.624
	V217.38H52.431c-14.561,0-26.406,11.846-26.406,26.406v75.194c0,24.797,17.325,45.61,40.503,51.008
	c1.482,0.868,3.202,1.375,5.043,1.375h6.836h68.308V479.99c0,17.65,14.359,32.01,32.01,32.01h275.24
	c17.65,0,32.01-14.359,32.01-32.01V327.206C485.974,309.556,471.614,295.196,453.964,295.196z M95.75,327.184
	c0,12.259-9.172,22.41-21.014,23.966c-16.133-1.829-28.712-15.554-28.712-32.169v-75.194c0-3.532,2.874-6.406,6.406-6.406h43.319
	L95.75,327.184L95.75,327.184z M376.955,315.196h77.009c0.371,0,0.736,0.022,1.098,0.056c0.103,0.009,0.205,0.022,0.308,0.034
	c0.281,0.033,0.558,0.075,0.832,0.127c0.086,0.017,0.173,0.03,0.258,0.048c0.347,0.074,0.688,0.161,1.023,0.264
	c0.065,0.021,0.129,0.045,0.193,0.066c0.275,0.089,0.545,0.189,0.811,0.297c0.093,0.038,0.186,0.077,0.278,0.117
	c0.276,0.121,0.546,0.25,0.811,0.391c0.044,0.024,0.091,0.044,0.135,0.068c0.303,0.166,0.597,0.347,0.884,0.538
	c0.075,0.05,0.147,0.103,0.221,0.154c0.221,0.154,0.436,0.315,0.646,0.483c0.072,0.058,0.145,0.114,0.216,0.174
	c0.264,0.222,0.521,0.452,0.765,0.695c0.02,0.02,0.038,0.041,0.057,0.061c0.224,0.227,0.437,0.463,0.642,0.707
	c0.062,0.073,0.121,0.147,0.181,0.222c0.176,0.219,0.344,0.444,0.505,0.675c0.04,0.058,0.083,0.114,0.123,0.173
	c0.193,0.288,0.373,0.585,0.541,0.89c0.034,0.062,0.064,0.126,0.098,0.189c0.082,0.154,0.153,0.314,0.228,0.473l-121.277,69.957
	l-19.08,11.006c-0.319,0.184-0.644,0.356-0.972,0.517c-4.495,2.197-9.795,2.197-14.287,0c-0.328-0.161-0.653-0.332-0.972-0.516
	l-19.08-11.006l-35.869-20.69h55.495C342.531,371.363,370.728,347.158,376.955,315.196z M108.53,351.363
	c4.563-6.951,7.22-15.262,7.22-24.18V237.38v-20V29.624c0-5.307,4.317-9.624,9.624-9.624h223.249c5.307,0,9.624,4.317,9.624,9.624
	V217.38v20v57.816v6.695c0,4.609-0.647,9.068-1.832,13.305c-5.827,20.835-24.971,36.167-47.64,36.167h-90.167H178.58h-11.866h-20
	H108.53z M166.714,371.363h46.538l55.883,32.234l-102.421,59.08V371.363z M464.488,485.766c-0.166,0.301-0.345,0.595-0.535,0.88
	c-0.043,0.064-0.09,0.125-0.134,0.189c-0.157,0.225-0.321,0.445-0.493,0.658c-0.063,0.078-0.125,0.155-0.189,0.231
	c-0.201,0.239-0.41,0.471-0.63,0.693c-0.023,0.023-0.044,0.049-0.068,0.072c-0.243,0.242-0.499,0.471-0.761,0.692
	c-0.073,0.061-0.147,0.119-0.221,0.178c-0.208,0.167-0.421,0.326-0.639,0.479c-0.075,0.052-0.149,0.106-0.225,0.157
	c-0.286,0.19-0.579,0.371-0.882,0.536c-0.045,0.024-0.092,0.045-0.137,0.07c-0.263,0.14-0.533,0.269-0.807,0.389
	c-0.093,0.041-0.186,0.08-0.28,0.118c-0.265,0.108-0.534,0.207-0.808,0.296c-0.066,0.021-0.13,0.046-0.197,0.067
	c-0.335,0.103-0.676,0.19-1.022,0.264c-0.085,0.018-0.172,0.031-0.258,0.048c-0.274,0.052-0.552,0.094-0.832,0.127
	c-0.102,0.012-0.204,0.025-0.308,0.034c-0.362,0.033-0.728,0.056-1.098,0.056h-275.24c-0.371,0-0.736-0.022-1.098-0.056
	c-0.103-0.009-0.205-0.022-0.308-0.034c-0.281-0.033-0.558-0.075-0.832-0.127c-0.086-0.017-0.173-0.03-0.258-0.048
	c-0.346-0.074-0.688-0.161-1.022-0.264c-0.066-0.021-0.131-0.045-0.197-0.067c-0.274-0.089-0.543-0.188-0.807-0.296
	c-0.094-0.039-0.187-0.078-0.28-0.118c-0.274-0.12-0.544-0.25-0.807-0.389c-0.045-0.024-0.093-0.045-0.137-0.07
	c-0.303-0.166-0.596-0.346-0.882-0.536c-0.076-0.051-0.15-0.105-0.225-0.157c-0.219-0.153-0.432-0.312-0.639-0.479
	c-0.074-0.059-0.148-0.117-0.221-0.178c-0.263-0.221-0.518-0.45-0.761-0.692c-0.023-0.023-0.045-0.049-0.068-0.072
	c-0.219-0.222-0.428-0.454-0.63-0.693c-0.064-0.076-0.127-0.154-0.189-0.231c-0.172-0.213-0.336-0.433-0.493-0.658
	c-0.044-0.063-0.091-0.125-0.134-0.189c-0.191-0.285-0.369-0.579-0.536-0.88c-0.037-0.068-0.071-0.138-0.107-0.207
	c-0.079-0.151-0.15-0.307-0.222-0.461l121.278-69.957l9.087,5.242c5.585,3.222,11.847,4.832,18.108,4.832s12.523-1.61,18.109-4.832
	l9.086-5.241l121.277,69.956c-0.073,0.154-0.143,0.31-0.222,0.461C464.559,485.628,464.525,485.698,464.488,485.766z
	 M363.553,403.598l102.42-59.079v118.158L363.553,403.598z"/>
<path d="M239.277,137.577h74.738c11.294,0,20.481-9.188,20.481-20.482V65.143c0-11.294-9.188-20.481-20.481-20.481h-74.738
	c-11.294,0-20.482,9.188-20.482,20.481v51.952C218.795,128.389,227.983,137.577,239.277,137.577z M238.795,65.143
	c0-0.266,0.217-0.481,0.482-0.481h74.738c0.266,0,0.481,0.216,0.481,0.481v51.952c0,0.266-0.216,0.482-0.481,0.482h-74.738
	c-0.266,0-0.482-0.217-0.482-0.482L238.795,65.143L238.795,65.143z"/>
<path d="M150.866,78.788h31.445c5.522,0,10-4.478,10-10s-4.478-10-10-10h-31.445c-5.522,0-10,4.478-10,10
	S145.344,78.788,150.866,78.788z"/>
<path d="M150.866,133.476h31.445c5.522,0,10-4.478,10-10s-4.478-10-10-10h-31.445c-5.522,0-10,4.478-10,10
	S145.344,133.476,150.866,133.476z"/>
<path d="M150.866,195.682h173.631c5.522,0,10-4.478,10-10s-4.478-10-10-10H150.866c-5.522,0-10,4.478-10,10
	S145.344,195.682,150.866,195.682z"/>
<path d="M333.728,244.06c-0.25-0.6-0.56-1.18-0.92-1.72c-0.359-0.55-0.779-1.061-1.24-1.521c-0.46-0.46-0.97-0.88-1.52-1.25
	c-0.54-0.359-1.12-0.67-1.73-0.92c-0.6-0.25-1.229-0.439-1.869-0.569c-3.25-0.65-6.7,0.41-9.021,2.739
	c-0.47,0.46-0.88,0.971-1.25,1.521c-0.36,0.54-0.67,1.12-0.92,1.72c-0.25,0.61-0.44,1.24-0.57,1.87
	c-0.13,0.65-0.189,1.311-0.189,1.96c0,0.65,0.06,1.311,0.189,1.95s0.32,1.27,0.57,1.87c0.25,0.609,0.56,1.189,0.92,1.729
	c0.37,0.551,0.78,1.061,1.25,1.521c1.86,1.859,4.43,2.93,7.07,2.93c0.649,0,1.31-0.07,1.95-0.2s1.27-0.319,1.869-0.569
	c0.61-0.25,1.19-0.561,1.73-0.92c0.55-0.36,1.06-0.78,1.52-1.24c0.461-0.46,0.881-0.97,1.24-1.521c0.36-0.54,0.67-1.12,0.92-1.729
	c0.25-0.601,0.44-1.23,0.57-1.87s0.2-1.3,0.2-1.95c0-0.649-0.07-1.31-0.2-1.96C334.169,245.3,333.978,244.67,333.728,244.06z"/>
<path d="M150.866,257.888h133.631c5.522,0,10-4.478,10-10s-4.478-10-10-10H150.866c-5.522,0-10,4.478-10,10
	S145.344,257.888,150.866,257.888z"/>
<path d="M150.866,320.094h18.191c-0.067,0.091-0.132,0.185-0.197,0.278c0.066-0.095,0.139-0.185,0.208-0.278h155.428
	c3.656,0,6.845-1.969,8.589-4.897c0.89-1.495,1.411-3.236,1.411-5.103c0-5.522-4.478-10-10-10H161.738h-10.872
	c-5.522,0-10,4.478-10,10c0,4.394,2.839,8.118,6.779,9.46C148.657,319.898,149.738,320.094,150.866,320.094z"/>
<g>
</g>
<g>
</g>
<g>
</g>
<g>
</g>
<g>
</g>
<g>
</g>
<g>
</g>
<g>
</g>
<g>
</g>
<g>
</g>
<g>
</g>
<g>
</g>
<g>
</g>
<g>
</g>
<g>
</g>
</svg>
