<?xml version="1.0" encoding="iso-8859-1"?>
<!-- Generator: Adobe Illustrator 19.0.0, SVG Export Plug-In . SVG Version: 6.00 Build 0)  -->
<svg version="1.1" id="Capa_1" xmlns="http://www.w3.org/2000/svg" xmlns:xlink="http://www.w3.org/1999/xlink" x="0px" y="0px"
	 viewBox="0 0 512 512" style="enable-background:new 0 0 512 512;" xml:space="preserve">
<g>
	<path style="fill:#F8C55A;" d="M462.409,81.212c0.188,0.404,0.358,0.815,0.515,1.231C462.765,82.027,462.598,81.616,462.409,81.212
		z"/>
	<path style="fill:#F8C55A;" d="M386.225,11.037c0.275,0.096,0.551,0.19,0.821,0.299C386.776,11.227,386.5,11.134,386.225,11.037z"
		/>
	<path style="fill:#F8C55A;" d="M463.051,82.779c0.163,0.459,0.309,0.926,0.436,1.398C463.359,83.705,463.216,83.239,463.051,82.779
		z"/>
	<path style="fill:#F8C55A;" d="M458.309,75.569c-0.006-0.005-0.01-0.011-0.016-0.016L414.476,35.07l43.818,40.483
		C458.299,75.558,458.303,75.564,458.309,75.569z"/>
	<path style="fill:#F8C55A;" d="M461.614,79.693c0.2,0.342,0.382,0.693,0.559,1.046C461.993,80.386,461.814,80.034,461.614,79.693z"
		/>
	<path style="fill:#F8C55A;" d="M398.259,87.688c-8.248,0-14.934-6.686-14.934-14.934V10.277c-1.017-0.176-2.052-0.277-3.097-0.277
		H204.849c-12.267,0-22.212,9.945-22.212,22.212v224.125c62.518,5.878,111.442,58.499,111.442,122.554
		c0,10.451-1.307,20.597-3.759,30.286h151.605c12.268,0,22.212-9.945,22.212-22.212V88.909c0-0.975-0.102-1.937-0.255-2.887
		c0.088,0.55,0.154,1.105,0.191,1.665h-65.814V87.688z"/>
	<path style="fill:#F8C55A;" d="M390.979,13.535c0.137,0.101,0.276,0.199,0.411,0.303C391.255,13.734,391.116,13.636,390.979,13.535
		z"/>
	<path style="fill:#F8C55A;" d="M384.779,10.596c0.302,0.078,0.601,0.163,0.898,0.256C385.38,10.759,385.081,10.674,384.779,10.596z
		"/>
	<path style="fill:#F8C55A;" d="M463.542,84.384c0.13,0.509,0.24,1.023,0.326,1.544C463.781,85.407,463.672,84.894,463.542,84.384z"
		/>
	<path style="fill:#F8C55A;" d="M388.27,11.882c0.185,0.091,0.363,0.195,0.545,0.292C388.633,12.076,388.454,11.973,388.27,11.882z"
		/>
	<path style="fill:#F8C55A;" d="M389.629,12.632c0.173,0.104,0.344,0.214,0.514,0.325C389.973,12.846,389.803,12.737,389.629,12.632
		z"/>
	<path style="fill:#F8C55A;" d="M459.556,76.847c0.17,0.192,0.321,0.397,0.482,0.595C459.876,77.244,459.726,77.039,459.556,76.847z
		"/>
	<path style="fill:#F8C55A;" d="M383.326,10.277c0.328,0.057,0.653,0.131,0.977,0.205C383.979,10.408,383.655,10.334,383.326,10.277
		z"/>
	<path style="fill:#F8C55A;" d="M460.663,78.233c0.198,0.274,0.377,0.56,0.559,0.844C461.039,78.793,460.862,78.507,460.663,78.233z
		"/>
</g>
<path style="fill:#238FB4;" d="M182.637,256.337c-3.841-0.361-7.731-0.554-11.666-0.554c-67.991,0-123.108,55.117-123.108,123.108
	C47.862,446.883,102.98,502,170.971,502c57.54,0,105.854-39.477,119.35-92.822c2.451-9.69,3.759-19.835,3.759-30.286
	C294.079,314.836,245.155,262.215,182.637,256.337z M170.072,465.718c-47.457,0-85.928-38.471-85.928-85.928
	s38.471-85.928,85.928-85.928S256,332.333,256,379.79S217.529,465.718,170.072,465.718z"/>
<circle style="fill:#4CC1EB;" cx="170.07" cy="379.79" r="85.93"/>
<path style="fill:#F39E54;" d="M463.542,84.384c-0.018-0.069-0.036-0.138-0.055-0.207c-0.126-0.472-0.272-0.938-0.436-1.398
	c-0.04-0.113-0.085-0.224-0.127-0.336c-0.157-0.416-0.328-0.828-0.515-1.231c-0.074-0.16-0.157-0.315-0.236-0.473
	c-0.177-0.354-0.359-0.705-0.559-1.046c-0.123-0.21-0.26-0.411-0.392-0.616c-0.182-0.284-0.361-0.57-0.559-0.844
	c-0.197-0.272-0.413-0.529-0.625-0.791c-0.161-0.198-0.312-0.404-0.482-0.595c-0.393-0.444-0.808-0.871-1.247-1.278
	c-0.006-0.005-0.01-0.011-0.016-0.016L414.476,35.07l-21.909-20.242c-0.378-0.349-0.773-0.676-1.177-0.989
	c-0.135-0.105-0.274-0.203-0.411-0.303c-0.274-0.201-0.552-0.394-0.836-0.578c-0.17-0.111-0.34-0.22-0.514-0.325
	c-0.267-0.161-0.54-0.311-0.814-0.458c-0.182-0.097-0.36-0.201-0.545-0.292c-0.401-0.197-0.81-0.379-1.224-0.546
	c-0.27-0.109-0.546-0.203-0.821-0.299c-0.182-0.063-0.364-0.128-0.548-0.186c-0.297-0.093-0.596-0.178-0.898-0.256
	c-0.158-0.041-0.317-0.077-0.476-0.113c-0.324-0.074-0.648-0.148-0.977-0.205c0,0-0.001,0-0.002,0l0,0v62.476
	c0,8.248,6.686,14.934,14.934,14.934h65.815c-0.038-0.56-0.103-1.115-0.191-1.665c-0.005-0.031-0.01-0.063-0.015-0.094
	C463.782,85.408,463.671,84.893,463.542,84.384z"/>
<path d="M473.591,83.535c-0.053-0.276-0.116-0.549-0.177-0.822c-0.085-0.374-0.167-0.747-0.267-1.117
	c-0.176-0.658-0.371-1.31-0.593-1.952c-0.067-0.193-0.131-0.387-0.202-0.578c-0.055-0.149-0.116-0.296-0.174-0.444
	c-0.121-0.311-0.246-0.621-0.378-0.928c-0.035-0.082-0.073-0.163-0.109-0.244c-0.163-0.366-0.332-0.729-0.51-1.088
	c-0.023-0.047-0.048-0.094-0.071-0.141c-0.194-0.387-0.398-0.769-0.61-1.147c-0.018-0.032-0.037-0.064-0.055-0.096
	c-0.219-0.385-0.446-0.764-0.683-1.139c-0.02-0.032-0.04-0.063-0.06-0.094c-0.234-0.368-0.478-0.73-0.73-1.087
	c-0.027-0.039-0.054-0.078-0.082-0.117c-0.244-0.342-0.496-0.678-0.756-1.009c-0.04-0.052-0.079-0.104-0.12-0.155
	c-0.249-0.313-0.506-0.62-0.769-0.923c-0.055-0.063-0.107-0.128-0.163-0.191c-0.259-0.294-0.527-0.581-0.8-0.865
	c-0.061-0.063-0.118-0.128-0.179-0.191c-0.333-0.34-0.673-0.673-1.024-0.998l-32.863-30.362L399.353,7.482
	c-0.451-0.417-0.918-0.811-1.392-1.196c-0.096-0.078-0.193-0.156-0.29-0.233c-0.998-0.786-2.042-1.504-3.131-2.145
	c-0.032-0.019-0.064-0.039-0.096-0.057c-0.668-0.391-1.356-0.743-2.052-1.077c-0.139-0.066-0.28-0.129-0.42-0.193
	c-0.63-0.29-1.269-0.556-1.918-0.798c-0.074-0.027-0.146-0.057-0.22-0.084c-1.538-0.559-3.125-0.98-4.746-1.264
	c-0.02-0.003-0.038-0.009-0.058-0.013c-0.019-0.003-0.039-0.003-0.058-0.007C383.414,0.151,381.831,0,380.227,0H204.85
	c-17.763,0-32.213,14.45-32.213,32.212v213.592c-0.555-0.007-1.109-0.021-1.666-0.021c-73.396,0-133.108,59.712-133.108,133.108
	S97.574,512,170.971,512c59.359,0,109.76-39.059,126.871-92.822h144.084c17.762,0,32.212-14.45,32.212-32.212V88.909
	c0-1.186-0.101-2.36-0.251-3.525c-0.019-0.149-0.037-0.297-0.058-0.446C473.76,84.468,473.683,84,473.591,83.535z M445.867,77.688
	h-47.608c-2.721,0-4.935-2.213-4.935-4.934v-43.61L445.867,77.688z M282.254,399.178c-1.255,6.905-3.144,13.59-5.596,20
	C260.39,461.712,219.154,492,170.971,492c-62.368,0-113.108-50.74-113.108-113.108s50.74-113.108,113.108-113.108
	c0.557,0,1.111,0.013,1.666,0.021c6.829,0.099,13.512,0.806,20,2.07c52.038,10.137,91.442,56.059,91.442,111.018
	C284.079,385.815,283.451,392.594,282.254,399.178z M454.138,386.966c0,6.734-5.479,12.212-12.212,12.212h-139.39
	c1.016-6.616,1.543-13.391,1.543-20.286c0-66.019-48.315-120.957-111.442-131.336V32.212c0-6.734,5.479-12.212,12.213-12.212
	h168.475v52.753c0,13.749,11.186,24.934,24.935,24.934h55.879v289.279H454.138z"/>
<path d="M192.637,286.55c-6.44-1.559-13.13-2.471-20-2.653c-0.852-0.022-1.707-0.035-2.564-0.035
	c-52.895,0-95.928,43.033-95.928,95.928c0,17.422,4.72,34.486,13.65,49.347c2.845,4.734,8.986,6.266,13.722,3.42
	c4.734-2.845,6.266-8.988,3.421-13.722c-7.061-11.75-10.793-25.251-10.793-39.045c0-41.867,34.062-75.928,75.928-75.928
	c0.86,0,1.711,0.037,2.564,0.065c6.938,0.232,13.65,1.378,20,3.358C223.519,316.917,246,345.778,246,379.791
	c0,6.699-0.881,13.195-2.518,19.387c-1.884,7.128-4.773,13.851-8.519,20c-13.337,21.892-37.435,36.541-64.89,36.541
	c-3.501,0-7.019-0.24-10.453-0.713c-5.474-0.748-10.518,3.072-11.271,8.543c-0.754,5.471,3.071,10.517,8.542,11.271
	c4.336,0.597,8.771,0.899,13.182,0.899c38.865,0,72.406-23.233,87.464-56.541c2.863-6.333,5.057-13.029,6.494-20
	c1.291-6.263,1.97-12.748,1.97-19.387C266,334.666,234.679,296.725,192.637,286.55z"/>
<path d="M248.818,124.758c-5.522,0-10,4.477-10,10s4.478,10,10,10h149.228c5.522,0,10-4.477,10-10s-4.478-10-10-10
	C398.046,124.758,248.818,124.758,248.818,124.758z"/>
<path d="M368.046,198.397c0-5.523-4.478-10-10-10H248.818c-5.522,0-10,4.477-10,10s4.478,10,10,10h109.228
	C363.568,208.397,368.046,203.92,368.046,198.397z"/>
<path d="M398.046,252.036h-96.388c-5.522,0-10,4.477-10,10s4.478,10,10,10h96.388c5.522,0,10-4.477,10-10
	S403.568,252.036,398.046,252.036z"/>
<path d="M398.046,315.674h-69.658c-5.522,0-10,4.477-10,10s4.478,10,10,10h69.658c5.522,0,10-4.477,10-10
	S403.568,315.674,398.046,315.674z"/>
<path d="M170.072,389.791h2.696h20.212h10.687c5.522,0,10-4.477,10-10s-4.478-10-10-10h-11.03h-16.804l-3.196-5.513l-20.073-34.62
	c-2.771-4.777-8.887-6.405-13.668-3.635c-4.777,2.771-6.404,8.889-3.635,13.667l26.16,45.116
	C163.21,387.892,166.506,389.791,170.072,389.791z"/>
<path d="M131.17,447.16c-0.25-0.61-0.561-1.19-0.92-1.73c-0.36-0.55-0.78-1.06-1.24-1.52s-0.97-0.88-1.52-1.24
	c-0.54-0.36-1.12-0.67-1.73-0.92c-0.6-0.25-1.229-0.45-1.87-0.57c-1.29-0.26-2.62-0.26-3.91,0c-0.63,0.12-1.26,0.32-1.87,0.57
	c-0.6,0.25-1.18,0.56-1.72,0.92c-0.55,0.36-1.06,0.78-1.52,1.24c-0.471,0.46-0.88,0.97-1.25,1.52c-0.36,0.54-0.67,1.12-0.92,1.73
	c-0.25,0.6-0.44,1.23-0.57,1.87s-0.19,1.3-0.19,1.95c0,0.65,0.061,1.31,0.19,1.96c0.13,0.63,0.32,1.26,0.57,1.87
	c0.25,0.6,0.56,1.18,0.92,1.72c0.37,0.55,0.779,1.06,1.25,1.52c0.46,0.46,0.97,0.88,1.52,1.24c0.54,0.36,1.12,0.67,1.72,0.92
	c0.61,0.25,1.24,0.45,1.87,0.57c0.65,0.13,1.311,0.2,1.96,0.2c0.65,0,1.311-0.07,1.95-0.2c0.641-0.12,1.271-0.32,1.87-0.57
	c0.61-0.25,1.19-0.56,1.73-0.92c0.55-0.36,1.06-0.78,1.52-1.24s0.88-0.97,1.24-1.52c0.359-0.54,0.67-1.12,0.92-1.72
	c0.25-0.61,0.439-1.24,0.57-1.87c0.13-0.65,0.199-1.31,0.199-1.96s-0.069-1.31-0.199-1.95
	C131.609,448.39,131.42,447.76,131.17,447.16z"/>
<path d="M407.28,194.04c-0.25-0.61-0.561-1.19-0.921-1.73c-0.359-0.55-0.779-1.06-1.239-1.52c-0.46-0.46-0.971-0.88-1.521-1.24
	c-0.54-0.36-1.13-0.67-1.729-0.92c-0.601-0.25-1.23-0.44-1.87-0.57c-1.29-0.26-2.62-0.26-3.91,0c-0.64,0.13-1.271,0.32-1.87,0.57
	s-1.18,0.56-1.729,0.92c-0.54,0.36-1.051,0.78-1.511,1.24c-0.47,0.46-0.88,0.97-1.25,1.52c-0.359,0.54-0.67,1.12-0.92,1.73
	c-0.25,0.6-0.439,1.23-0.569,1.87c-0.131,0.64-0.19,1.3-0.19,1.95s0.06,1.31,0.19,1.96c0.13,0.63,0.319,1.26,0.569,1.87
	c0.25,0.6,0.561,1.18,0.92,1.72c0.37,0.55,0.78,1.06,1.25,1.52c0.46,0.46,0.971,0.88,1.511,1.25c0.55,0.36,1.13,0.67,1.729,0.92
	s1.23,0.44,1.87,0.57c0.65,0.13,1.31,0.19,1.96,0.19s1.31-0.06,1.95-0.19s1.27-0.32,1.87-0.57s1.189-0.56,1.729-0.92
	c0.55-0.37,1.061-0.79,1.521-1.25s0.88-0.97,1.239-1.52c0.36-0.54,0.671-1.12,0.921-1.72c0.25-0.61,0.439-1.24,0.569-1.87
	c0.13-0.65,0.2-1.31,0.2-1.96s-0.07-1.31-0.2-1.95C407.72,195.27,407.53,194.64,407.28,194.04z"/>
<g>
</g>
<g>
</g>
<g>
</g>
<g>
</g>
<g>
</g>
<g>
</g>
<g>
</g>
<g>
</g>
<g>
</g>
<g>
</g>
<g>
</g>
<g>
</g>
<g>
</g>
<g>
</g>
<g>
</g>
</svg>
