<?xml version="1.0" encoding="iso-8859-1"?>
<!-- Generator: Adobe Illustrator 19.0.0, SVG Export Plug-In . SVG Version: 6.00 Build 0)  -->
<svg version="1.1" id="Capa_1" xmlns="http://www.w3.org/2000/svg" xmlns:xlink="http://www.w3.org/1999/xlink" x="0px" y="0px"
	 viewBox="0 0 512 512" style="enable-background:new 0 0 512 512;" xml:space="preserve">
<path style="fill:#4CC1EB;" d="M256,502c135.862,0,246-110.138,246-246S391.862,10,256,10S10,120.138,10,256S120.138,502,256,502z
	 M128.205,243.721c0-62.536,44.921-114.572,104.253-125.623V94.972c0-13.002,10.541-23.542,23.542-23.542
	c13.001,0,23.542,10.54,23.542,23.542v23.126c59.332,11.05,104.253,63.087,104.253,125.623v112.662h-91.361v15.392
	c0,20.122-16.312,36.435-36.435,36.435l0,0c-20.122,0-36.435-16.312-36.435-36.435v-15.392h-91.361V243.721H128.205z"/>
<path style="fill:#E5EAED;" d="M219.565,371.775c0,20.122,16.312,36.435,36.435,36.435l0,0c20.122,0,36.435-16.312,36.435-36.435
	v-15.392h-72.869L219.565,371.775L219.565,371.775z"/>
<path style="fill:#EB5664;" d="M292.435,356.383h91.361V243.721c0-62.536-44.921-114.572-104.253-125.623V94.972
	c0-13.002-10.541-23.542-23.542-23.542s-23.542,10.54-23.542,23.542v23.126c-59.332,11.05-104.253,63.087-104.253,125.623v112.662
	h91.361H292.435z"/>
<path d="M256,512c68.38,0,132.667-26.628,181.02-74.981C485.371,388.667,512,324.38,512,256s-26.629-132.667-74.98-181.019
	C388.667,26.628,324.38,0,256,0S123.333,26.628,74.98,74.981C26.629,123.333,0,187.62,0,256s26.629,132.667,74.98,181.019
	C123.333,485.372,187.62,512,256,512z M256,20c130.131,0,236,105.869,236,236S386.131,492,256,492S20,386.131,20,256
	S125.869,20,256,20z"/>
<path d="M347.199,89.214c60.976,33.417,98.854,97.325,98.854,166.786c0,5.523,4.478,10,10,10s10-4.477,10-10
	c0-76.768-41.859-147.396-109.243-184.325c-4.843-2.654-10.921-0.88-13.575,3.964C340.581,80.482,342.355,86.56,347.199,89.214z"/>
<path d="M104.566,366.383h23.639h81.36v5.393c0,25.604,20.83,46.435,46.435,46.435s46.435-20.831,46.435-46.435v-5.393h81.36h23.639
	c5.522,0,10-4.477,10-10s-4.478-10-10-10h-13.639V243.721c0-63.548-43.364-118.485-104.253-133.676V94.972
	c0-18.496-15.047-33.542-33.542-33.542s-33.542,15.047-33.542,33.542v15.073c-60.889,15.19-104.253,70.127-104.253,133.676v102.662
	h-13.639c-5.522,0-10,4.477-10,10S99.044,366.383,104.566,366.383z M282.435,371.775c0,14.576-11.858,26.435-26.435,26.435
	s-26.435-11.858-26.435-26.435v-5.393h52.869v5.393H282.435z M138.205,243.721c0-56.725,40.409-105.423,96.084-115.792
	c4.735-0.882,8.169-5.014,8.169-9.831V94.972c0-7.467,6.075-13.542,13.542-13.542c7.467,0,13.542,6.075,13.542,13.542v23.126
	c0,4.817,3.434,8.949,8.169,9.831c55.675,10.369,96.084,59.066,96.084,115.792v102.662h-81.36h-72.869h-81.36L138.205,243.721
	L138.205,243.721z"/>
<path d="M459.229,294.56c-0.25-0.6-0.56-1.18-0.92-1.72c-0.359-0.55-0.779-1.06-1.24-1.52c-0.46-0.46-0.97-0.88-1.52-1.25
	c-0.54-0.36-1.12-0.67-1.73-0.92c-0.6-0.25-1.229-0.44-1.869-0.57c-3.25-0.65-6.7,0.42-9.021,2.74c-0.46,0.46-0.88,0.97-1.24,1.52
	c-0.37,0.54-0.67,1.12-0.92,1.72c-0.25,0.61-0.45,1.24-0.569,1.87c-0.131,0.65-0.2,1.31-0.2,1.96s0.069,1.31,0.2,1.95
	c0.119,0.64,0.319,1.27,0.569,1.87c0.25,0.61,0.55,1.19,0.92,1.73c0.36,0.55,0.78,1.06,1.24,1.52s0.97,0.88,1.521,1.24
	c0.54,0.36,1.119,0.67,1.729,0.92c0.601,0.25,1.23,0.44,1.87,0.57s1.3,0.2,1.95,0.2c0.649,0,1.31-0.07,1.95-0.2
	s1.27-0.32,1.869-0.57c0.61-0.25,1.19-0.56,1.73-0.92c0.55-0.36,1.06-0.78,1.52-1.24c0.461-0.46,0.881-0.97,1.24-1.52
	c0.36-0.54,0.67-1.12,0.92-1.73c0.25-0.6,0.44-1.23,0.57-1.87s0.2-1.3,0.2-1.95c0-0.65-0.07-1.31-0.2-1.96
	C459.67,295.8,459.479,295.17,459.229,294.56z"/>
<path d="M223.624,174.32c5.147-2.002,7.697-7.797,5.696-12.945c-2.002-5.147-7.8-7.698-12.944-5.695
	c-56.409,21.937-55.873,76.643-55.481,116.587c0.055,5.489,4.521,9.902,9.998,9.902c0.033,0,0.066,0,0.1,0
	c5.523-0.054,9.956-4.575,9.901-10.098C180.43,224.746,183.224,190.032,223.624,174.32z"/>
<path d="M180.069,309.18c-0.25-0.61-0.56-1.19-0.92-1.73c-0.359-0.55-0.779-1.06-1.239-1.52s-0.971-0.88-1.521-1.24
	c-0.54-0.36-1.13-0.67-1.729-0.92c-0.601-0.25-1.23-0.45-1.87-0.57c-1.29-0.26-2.62-0.26-3.91,0c-0.64,0.12-1.271,0.32-1.87,0.57
	s-1.18,0.56-1.729,0.92c-0.54,0.36-1.051,0.78-1.511,1.24c-0.47,0.46-0.88,0.97-1.25,1.52c-0.359,0.54-0.67,1.12-0.92,1.73
	c-0.25,0.6-0.439,1.23-0.569,1.87c-0.131,0.64-0.19,1.3-0.19,1.95c0,2.63,1.06,5.21,2.93,7.07c0.46,0.46,0.971,0.88,1.511,1.24
	c0.55,0.36,1.13,0.67,1.729,0.92s1.23,0.45,1.87,0.57c0.65,0.13,1.31,0.2,1.96,0.2s1.31-0.07,1.95-0.2
	c0.64-0.12,1.27-0.32,1.87-0.57c0.609-0.25,1.189-0.56,1.729-0.92c0.55-0.36,1.061-0.78,1.521-1.24c1.859-1.86,2.93-4.44,2.93-7.07
	c0-0.65-0.07-1.31-0.2-1.95S180.319,309.78,180.069,309.18z"/>
<g>
</g>
<g>
</g>
<g>
</g>
<g>
</g>
<g>
</g>
<g>
</g>
<g>
</g>
<g>
</g>
<g>
</g>
<g>
</g>
<g>
</g>
<g>
</g>
<g>
</g>
<g>
</g>
<g>
</g>
</svg>
