<?xml version="1.0" encoding="iso-8859-1"?>
<!-- Generator: Adobe Illustrator 19.0.0, SVG Export Plug-In . SVG Version: 6.00 Build 0)  -->
<svg version="1.1" id="Capa_1" xmlns="http://www.w3.org/2000/svg" xmlns:xlink="http://www.w3.org/1999/xlink" x="0px" y="0px"
	 viewBox="0 0 512.001 512.001" style="enable-background:new 0 0 512.001 512.001;" xml:space="preserve">
<path style="fill:#4CC1EB;" d="M271.71,152.178v98.227h162.518c14.145,0,25.611-11.467,25.611-25.611v-56.799
	c0-45.514-36.896-82.41-82.41-82.41H205.116C241.895,85.583,271.71,115.399,271.71,152.178z M325.174,115.593
	c11.852,0,21.459,9.608,21.459,21.459s-9.608,21.459-21.459,21.459c-11.852,0-21.459-9.607-21.459-21.459
	S313.323,115.593,325.174,115.593z"/>
<path style="fill:#E5EAED;" d="M271.71,250.404v-98.227c0-36.779-29.815-66.594-66.594-66.594l0,0
	c-36.779,0-66.594,29.815-66.594,66.594v72.615c0,14.145,11.466,25.611,25.611,25.611h40.983h66.594V250.404z"/>
<g>
	<circle style="fill:#EB5664;" cx="325.171" cy="137.05" r="21.459"/>
	<path style="fill:#EB5664;" d="M382.089,27.256l1.736-10.98c0.521-3.295-2.026-6.276-5.362-6.276h-53.289v31.896h39.779
		C373.49,41.896,380.757,35.687,382.089,27.256z"/>
</g>
<g>
	<path style="fill:#93CA66;" d="M52.161,443.016c0,32.576,26.408,58.984,58.984,58.984l0,0c32.576,0,58.984-26.408,58.984-58.984
		v-21.678H52.161V443.016z"/>
	<path style="fill:#93CA66;" d="M164.938,338.443c0.015,0.015,0.028,0.032,0.043,0.047
		C164.966,338.475,164.952,338.458,164.938,338.443z"/>
</g>
<path style="fill:#E5EAED;" d="M164.938,338.443c-1.487-1.532-3.254-2.817-5.248-3.771l-39.122-18.725
	c-1.49-0.713-3.04-1.248-4.621-1.604c-0.395-0.089-0.792-0.167-1.191-0.234c-1.195-0.2-2.404-0.301-3.612-0.301
	c-3.222,0-6.444,0.713-9.423,2.139L62.6,334.672c-5.98,2.863-9.922,8.705-10.392,15.251c-0.031,0.437-0.047,0.876-0.047,1.318
	v70.097h117.968v-70.097c0-0.442-0.016-0.882-0.047-1.318c-0.311-4.343-2.152-8.374-5.101-11.433
	C164.966,338.475,164.953,338.458,164.938,338.443z M111.144,390.166c-10.441,0-18.905-8.464-18.905-18.905
	s8.464-18.906,18.905-18.906s18.905,8.464,18.905,18.906S121.585,390.166,111.144,390.166z"/>
<circle style="fill:#ABB0B7;" cx="111.14" cy="371.26" r="18.905"/>
<path d="M226.592,148.511h-11.476h-20H177.17c-5.523,0-10,4.477-10,10s4.477,10,10,10h17.946h20h11.476c5.523,0,10-4.477,10-10
	S232.115,148.511,226.592,148.511z"/>
<path d="M318.771,473.686c18.12,0,32.862-14.742,32.862-32.862V418c0-5.523-4.477-10-10-10s-10,4.477-10,10v22.823
	c0,7.092-5.77,12.862-12.862,12.862s-12.862-5.77-12.862-12.862v-63.472c0-19.065-15.511-34.576-34.576-34.576
	s-34.576,15.511-34.576,34.576v65.513c0,5.967-4.854,10.821-10.82,10.821c-5.967,0-10.821-4.854-10.821-10.821v-129.46
	c0-20.498-16.677-37.174-37.175-37.174h-39.219c-17.722,0-32.608,12.336-36.548,28.869c-1.62,0.479-3.216,1.084-4.77,1.828
	l-39.122,18.725c-4.237,2.028-7.821,5.062-10.529,8.727c-0.03,0.041-0.065,0.08-0.095,0.121c-0.066,0.09-0.123,0.185-0.187,0.276
	c-3.374,4.733-5.31,10.473-5.31,16.466v70.097v21.678c0,38.038,30.946,68.984,68.984,68.984s68.984-30.946,68.984-68.984v-21.678
	v-70.097c0-8.775-4.136-17.015-10.891-22.329c-0.036-0.028-0.069-0.06-0.105-0.088c-0.101-0.078-0.209-0.147-0.31-0.225
	c-1.49-1.128-3.095-2.125-4.814-2.947l0,0l-39.122-18.725c-0.636-0.305-1.281-0.58-1.93-0.841c2.866-5.827,8.847-9.856,15.767-9.856
	h39.219c9.47,0,17.175,7.704,17.175,17.174v129.46c0,16.995,13.826,30.821,30.821,30.821s30.82-13.826,30.82-30.821v-65.513
	c0-8.037,6.539-14.576,14.576-14.576s14.576,6.539,14.576,14.576v63.472C285.909,458.943,300.651,473.686,318.771,473.686z
	 M111.144,380.166c-4.91,0-8.905-3.995-8.905-8.905s3.995-8.905,8.905-8.905c4.911,0,8.906,3.995,8.906,8.905
	S116.055,380.166,111.144,380.166z M62.161,351.241c0-0.4,0.029-0.797,0.086-1.187c0.176-1.212,0.624-2.359,1.282-3.37
	c0.825-1.267,1.982-2.319,3.389-2.992l34.227-16.382v16.831c-11.025,4.078-18.905,14.695-18.905,27.12s7.881,23.042,18.905,27.12
	v12.958H62.161V351.241z M160.129,443.016c0,27.01-21.974,48.984-48.984,48.984s-48.984-21.974-48.984-48.984v-11.678h97.968
	V443.016z M160.129,351.241v60.097h-38.985V398.38c11.025-4.078,18.906-14.695,18.906-27.12s-7.881-23.042-18.906-27.12v-16.832
	l34.229,16.383c2.528,1.21,4.274,3.63,4.67,6.362C160.1,350.444,160.129,350.841,160.129,351.241z"/>
<path d="M351.633,371.261c0-5.523-4.477-10-10-10s-10,4.477-10,10V387c0,5.523,4.477,10,10,10s10-4.477,10-10V371.261z"/>
<path d="M351.633,313.808c0-5.523-4.477-10-10-10s-10,4.477-10,10v15.739c0,5.523,4.477,10,10,10s10-4.477,10-10V313.808z"/>
<path d="M351.633,260.404h82.595c19.636,0,35.611-15.975,35.611-35.611V213v-45.006c0-50.956-41.455-92.411-92.41-92.411h-42.254
	V51.896h29.779c13.539,0,24.899-9.706,27.013-23.079l1.735-10.979c0.706-4.464-0.573-8.995-3.508-12.431
	C387.258,1.971,382.982,0,378.464,0h-53.289c-5.523,0-10,4.477-10,10v31.896v33.688H205.116c-42.234,0-76.594,34.36-76.594,76.594
	v72.616c0,19.636,15.975,35.611,35.611,35.611h40.983h66.594h59.923v11.69c0,5.523,4.477,10,10,10s10-4.477,10-10V260.404z
	 M335.174,20h37.937l-0.9,5.695c-0.568,3.593-3.62,6.201-7.258,6.201h-29.779L335.174,20L335.174,20z M325.174,125.593
	c6.318,0,11.459,5.141,11.459,11.459s-5.141,11.459-11.459,11.459c-6.319,0-11.459-5.141-11.459-11.459
	C313.715,130.733,318.855,125.593,325.174,125.593z M261.71,240.404h-46.594h-20h-30.983c-8.608,0-15.611-7.003-15.611-15.611
	v-72.616c0-27.793,20.144-50.954,46.594-55.691c3.249-0.582,6.587-0.903,10-0.903s6.751,0.321,10,0.903
	c26.451,4.738,46.594,27.899,46.594,55.691V240.404z M281.71,240.404v-88.227c0-22.396-9.664-42.576-25.038-56.594h58.502v11.648
	c-12.458,4.189-21.459,15.969-21.459,29.821c0,17.347,14.113,31.459,31.459,31.459s31.459-14.112,31.459-31.459
	c0-13.851-9.002-25.632-21.459-29.821V95.583h42.254c39.927,0,72.41,32.483,72.41,72.411V203H343.715c-5.523,0-10,4.477-10,10
	s4.477,10,10,10h106.124v1.793c0,8.608-7.003,15.611-15.611,15.611L281.71,240.404L281.71,240.404z"/>
<path d="M312.951,209.17c-0.25-0.6-0.56-1.18-0.92-1.72c-0.36-0.55-0.78-1.06-1.24-1.52c-1.87-1.86-4.44-2.93-7.08-2.93
	c-2.63,0-5.2,1.07-7.07,2.93c-0.46,0.46-0.88,0.97-1.24,1.52c-0.36,0.54-0.67,1.12-0.92,1.72c-0.25,0.61-0.44,1.24-0.57,1.88
	s-0.19,1.3-0.19,1.95c0,2.63,1.06,5.21,2.92,7.07c1.87,1.86,4.44,2.93,7.07,2.93c2.64,0,5.21-1.07,7.08-2.93
	c1.86-1.86,2.93-4.44,2.93-7.07c0-0.65-0.07-1.31-0.2-1.95C313.391,210.41,313.201,209.78,312.951,209.17z"/>
<g>
</g>
<g>
</g>
<g>
</g>
<g>
</g>
<g>
</g>
<g>
</g>
<g>
</g>
<g>
</g>
<g>
</g>
<g>
</g>
<g>
</g>
<g>
</g>
<g>
</g>
<g>
</g>
<g>
</g>
</svg>
