<?xml version="1.0" encoding="iso-8859-1"?>
<!-- Generator: Adobe Illustrator 19.0.0, SVG Export Plug-In . SVG Version: 6.00 Build 0)  -->
<svg version="1.1" id="Capa_1" xmlns="http://www.w3.org/2000/svg" xmlns:xlink="http://www.w3.org/1999/xlink" x="0px" y="0px"
	 viewBox="0 0 511.999 511.999" style="enable-background:new 0 0 511.999 511.999;" xml:space="preserve">
<g>
	<path style="fill:#238FB4;" d="M477.703,328.627c0.302,1.337,0.531,2.69,0.686,4.053
		C478.235,331.316,478.005,329.964,477.703,328.627z"/>
	<path style="fill:#238FB4;" d="M478.567,334.782c0.039,0.686,0.058,1.374,0.058,2.063
		C478.625,336.156,478.605,335.468,478.567,334.782z"/>
	<path style="fill:#238FB4;" d="M175.222,328.627c4.201,0,7.607,3.406,7.607,7.607v37.642c0,6.618,5.365,11.983,11.983,11.983
		h122.371c6.618,0,11.983-5.365,11.983-11.983v-37.642c0-4.201,3.406-7.607,7.607-7.607h140.929
		c-0.579-2.561-1.424-5.063-2.534-7.459L411.811,184.44c-4.203-9.071-13.292-14.876-23.289-14.876h-29.149v61.069
		c0,7.872-6.381,14.254-14.253,14.254H166.877c-7.872,0-14.253-6.382-14.253-14.254v-61.069h-29.149
		c-9.998,0-19.086,5.805-23.289,14.876L36.827,321.168c-1.692,3.652-2.775,7.545-3.222,11.527c0.155-1.368,0.384-2.726,0.688-4.068
		H175.222z"/>
	<path style="fill:#238FB4;" d="M478.392,332.708c0.07,0.619,0.119,1.241,0.158,1.864
		C478.512,333.949,478.462,333.327,478.392,332.708z"/>
	<path style="fill:#238FB4;" d="M33.444,334.594c0.039-0.631,0.089-1.26,0.159-1.886C33.534,333.334,33.483,333.963,33.444,334.594z
		"/>
	<path style="fill:#238FB4;" d="M33.371,336.845c0-0.689,0.02-1.378,0.058-2.064C33.391,335.467,33.371,336.155,33.371,336.845z"/>
</g>
<path style="fill:#4CC1EB;" d="M478.625,473.419V336.848l0,0c0-0.001,0-0.002,0-0.003c0-0.689-0.02-1.377-0.058-2.063
	c-0.004-0.07-0.013-0.14-0.017-0.21c-0.039-0.623-0.088-1.245-0.158-1.864c-0.001-0.009-0.003-0.019-0.004-0.028
	c-0.155-1.363-0.383-2.716-0.686-4.053l0,0l0,0H336.774c-4.201,0-7.607,3.406-7.607,7.607v37.642
	c0,6.618-5.365,11.983-11.983,11.983H194.812c-6.618,0-11.983-5.365-11.983-11.983v-37.642c0-4.201-3.406-7.607-7.607-7.607H34.293
	c-0.303,1.342-0.533,2.699-0.688,4.068c0,0.004-0.001,0.008-0.002,0.012c-0.071,0.626-0.121,1.256-0.159,1.886
	c-0.004,0.063-0.012,0.125-0.015,0.187c-0.039,0.686-0.058,1.375-0.058,2.064c0,0.001,0,0.002,0,0.003l0,0v136.572
	c0,15.785,12.796,28.581,28.581,28.581h388.093C465.829,502,478.625,489.204,478.625,473.419z"/>
<path style="fill:#93CA66;" d="M166.877,244.886H345.12c7.872,0,14.253-6.382,14.253-14.254v-61.069v-37.872l-84.842,48.939
	c-11.47,6.616-25.597,6.616-37.066,0l-84.842-48.939v37.872v61.069C152.623,238.505,159.005,244.886,166.877,244.886z"/>
<path style="fill:#8BCCA4;" d="M237.465,180.631c11.47,6.616,25.597,6.616,37.066,0l84.842-48.939c0-1.968-0.399-3.843-1.12-5.548
	c-0.361-0.853-0.802-1.663-1.314-2.421c-0.256-0.379-0.53-0.746-0.82-1.097c-0.581-0.704-1.228-1.351-1.932-1.932
	c-0.352-0.291-0.718-0.564-1.097-0.821c-0.758-0.512-1.568-0.953-2.421-1.314c-1.705-0.721-3.58-1.12-5.548-1.12H166.877
	c-1.968,0-3.843,0.399-5.548,1.12c-0.853,0.361-1.663,0.802-2.421,1.314c-0.379,0.256-0.745,0.53-1.097,0.821
	c-0.704,0.581-1.351,1.228-1.932,1.932c-0.29,0.352-0.564,0.718-0.82,1.097c-0.512,0.758-0.953,1.568-1.314,2.421
	c-0.721,1.705-1.12,3.58-1.12,5.548L237.465,180.631z"/>
<path d="M142.623,131.691v27.872h-19.149c-13.84,0-26.543,8.114-32.363,20.672L27.754,316.964c-1.342,2.896-2.375,5.946-3.108,9.067
	c-0.035,0.13-0.076,0.258-0.106,0.39c-0.013,0.058-0.022,0.118-0.035,0.176c-0.065,0.291-0.114,0.584-0.173,0.876
	c-0.113,0.556-0.229,1.111-0.321,1.67c-0.05,0.301-0.083,0.604-0.127,0.906c-0.08,0.55-0.166,1.099-0.227,1.65
	c-0.045,0.406-0.068,0.812-0.102,1.218c-0.038,0.45-0.087,0.9-0.111,1.35c-0.048,0.86-0.073,1.721-0.073,2.58V452.54v20.879
	c0,21.273,17.307,38.58,38.581,38.58h388.094c21.273,0,38.581-17.307,38.581-38.58V452.54V336.848c0-0.859-0.025-1.719-0.073-2.58
	c-0.025-0.458-0.075-0.916-0.113-1.374c-0.034-0.398-0.057-0.796-0.1-1.194c-0.062-0.563-0.149-1.123-0.231-1.684
	c-0.042-0.29-0.074-0.582-0.122-0.871c-0.094-0.566-0.211-1.127-0.325-1.69c-0.058-0.285-0.106-0.573-0.169-0.857
	c-0.013-0.058-0.021-0.118-0.035-0.176c-0.03-0.134-0.072-0.263-0.107-0.395c-0.733-3.12-1.766-6.169-3.107-9.064l-63.358-136.729
	c-5.819-12.558-18.522-20.672-32.363-20.672h-19.149V131.69c0-13.373-10.88-24.253-24.253-24.253H166.877
	C153.503,107.438,142.623,118.318,142.623,131.691z M180.929,159.563l34.672,20l2.772,1.599l-55.749,32.158v-33.757v-20v-10.559
	L180.929,159.563z M346.37,234.677c-0.086,0.026-0.169,0.059-0.256,0.08c-0.073,0.018-0.146,0.038-0.221,0.052
	c-0.252,0.047-0.509,0.078-0.774,0.078H166.877c-0.265,0-0.522-0.032-0.774-0.078c-0.075-0.014-0.147-0.034-0.221-0.052
	c-0.088-0.021-0.171-0.053-0.256-0.08l73.335-42.302c5.47,2.117,11.25,3.197,17.037,3.197s11.567-1.08,17.037-3.197L346.37,234.677z
	 M468.625,473.42c0,10.245-8.335,18.58-18.581,18.58H61.951c-10.246,0-18.581-8.335-18.581-18.58v-10.879h311.628
	c5.523,0,10-4.478,10-10s-4.477-10-10-10H43.371V338.627h129.458v35.249c0,12.122,9.862,21.983,21.983,21.983h122.371
	c12.122,0,21.983-9.861,21.983-21.983v-35.249h129.458v103.914h-33.626c-5.523,0-10,4.478-10,10s4.477,10,10,10h33.627V473.42z
	 M388.521,179.563c6.08,0,11.66,3.564,14.216,9.08l60.232,129.983H336.774c-9.709,0-17.607,7.898-17.607,17.607v37.642
	c0,1.094-0.89,1.983-1.983,1.983H194.812c-1.094,0-1.983-0.89-1.983-1.983v-37.642c0-9.709-7.898-17.607-17.607-17.607H49.026
	l60.232-129.983c2.556-5.516,8.136-9.08,14.216-9.08h19.149v51.069c0,13.374,10.88,24.254,24.253,24.254h178.242
	c13.374,0,24.253-10.88,24.253-24.254v-51.069H388.521z M349.373,159.563v20v33.757l-55.75-32.158l2.772-1.599l34.672-20
	l18.306-10.559V159.563z M345.892,127.517c0.076,0.014,0.15,0.034,0.224,0.052c0.087,0.021,0.169,0.053,0.253,0.079l-55.329,31.916
	l-17.431,10.055l-4.075,2.351c-8.35,4.816-18.724,4.816-27.073,0l-4.075-2.351l-17.431-10.055l-55.329-31.916
	c0.085-0.026,0.167-0.058,0.253-0.079c0.075-0.018,0.148-0.038,0.224-0.052c0.252-0.046,0.508-0.078,0.773-0.078h178.242
	C345.384,127.438,345.641,127.47,345.892,127.517z"/>
<path d="M255.998,0c-5.523,0-10,4.478-10,10v50.173l-12.473-8.862c-4.501-3.2-10.746-2.144-13.944,2.359
	c-3.199,4.502-2.143,10.745,2.36,13.943l28.265,20.083c1.734,1.232,3.763,1.849,5.792,1.849s4.058-0.616,5.792-1.849l28.265-20.083
	c4.502-3.198,5.559-9.441,2.36-13.943c-3.199-4.503-9.441-5.56-13.944-2.359l-12.473,8.862V10C265.998,4.478,261.521,0,255.998,0z"
	/>
<path d="M404.228,448.72c-0.25-0.61-0.56-1.189-0.92-1.729c-0.36-0.551-0.78-1.061-1.24-1.521s-0.97-0.88-1.52-1.24
	c-0.54-0.359-1.12-0.67-1.73-0.92c-0.6-0.25-1.23-0.45-1.87-0.569c-1.29-0.261-2.61-0.261-3.9,0c-0.64,0.119-1.27,0.319-1.88,0.569
	c-0.6,0.25-1.18,0.561-1.72,0.92c-0.55,0.36-1.06,0.78-1.52,1.24s-0.88,0.97-1.25,1.521c-0.36,0.54-0.66,1.119-0.91,1.729
	c-0.25,0.6-0.45,1.23-0.57,1.87c-0.13,0.64-0.2,1.3-0.2,1.95c0,0.649,0.07,1.31,0.2,1.96c0.12,0.63,0.32,1.26,0.57,1.87
	c0.25,0.6,0.56,1.18,0.92,1.72c0.36,0.55,0.78,1.06,1.24,1.52s0.97,0.881,1.52,1.25c0.54,0.36,1.12,0.671,1.72,0.921
	c0.61,0.239,1.24,0.439,1.88,0.569s1.3,0.19,1.95,0.19c0.65,0,1.31-0.061,1.95-0.19c0.64-0.13,1.27-0.33,1.87-0.569
	c0.61-0.25,1.19-0.561,1.73-0.921c0.55-0.369,1.06-0.79,1.52-1.25s0.88-0.97,1.24-1.52c0.36-0.54,0.67-1.12,0.92-1.72
	c0.25-0.61,0.45-1.24,0.57-1.87c0.13-0.65,0.2-1.311,0.2-1.96c0-0.65-0.07-1.311-0.2-1.95
	C404.678,449.95,404.478,449.319,404.228,448.72z"/>
<g>
</g>
<g>
</g>
<g>
</g>
<g>
</g>
<g>
</g>
<g>
</g>
<g>
</g>
<g>
</g>
<g>
</g>
<g>
</g>
<g>
</g>
<g>
</g>
<g>
</g>
<g>
</g>
<g>
</g>
</svg>
