<?xml version="1.0" encoding="iso-8859-1"?>
<!-- Generator: Adobe Illustrator 19.0.0, SVG Export Plug-In . SVG Version: 6.00 Build 0)  -->
<svg version="1.1" id="Capa_1" xmlns="http://www.w3.org/2000/svg" xmlns:xlink="http://www.w3.org/1999/xlink" x="0px" y="0px"
	 viewBox="0 0 512.001 512.001" style="enable-background:new 0 0 512.001 512.001;" xml:space="preserve">
<g>
	<path style="fill:#4CC1EB;" d="M345.344,210.688c6.277,1.52,11.764,5.322,15.39,10.667l5.959,8.782l65.328,96.282V144.262
		l-91.126,65.348L345.344,210.688z"/>
	<path style="fill:#4CC1EB;" d="M432.021,83.287L432.021,83.287c0-16.099-13.051-29.149-29.148-29.149h-0.001
		C418.97,54.138,432.021,67.188,432.021,83.287z"/>
	<path style="fill:#4CC1EB;" d="M50.919,397.155H353.8l-70.605-104.059l0,0l-8.887-13.099c-2.719-4.008-4.247-8.668-4.457-13.446
		c-0.07-1.592,0.006-3.198,0.232-4.796l0.215-1.517l-25.018,17.941c-14.456,10.366-33.912,10.366-48.367,0L10,144.142v212.093
		C10,378.835,28.32,397.155,50.919,397.155z"/>
	<path style="fill:#4CC1EB;" d="M39.15,54.138L39.15,54.138C23.051,54.138,10,67.187,10,83.286v0.001
		C10,67.188,23.051,54.138,39.15,54.138z"/>
</g>
<path style="fill:#EB5664;" d="M432.021,144.142V83.287c0-16.099-13.051-29.149-29.149-29.149h-35.854v19.564
	c0,12.392-10.046,22.438-22.437,22.438h-0.127c-12.393,0-22.438-10.045-22.438-22.438V54.138h-202.01v19.564
	c0,12.392-10.045,22.438-22.437,22.438h-0.127c-12.393,0-22.438-10.045-22.438-22.438V54.138H39.15
	C23.051,54.138,10,67.188,10,83.287v60.855h196.932H432.021z"/>
<g>
	<path style="fill:#E5EAED;" d="M97.441,96.14h0.127c12.392,0,22.437-10.045,22.437-22.438V54.138V36.573
		c0-12.392-10.045-22.438-22.437-22.438h-0.127c-12.392,0.001-22.437,10.046-22.437,22.438v17.564v19.564
		C75.004,86.094,85.049,96.14,97.441,96.14z"/>
	<path style="fill:#E5EAED;" d="M344.453,96.14h0.127c12.392,0,22.437-10.045,22.437-22.438V54.138V36.573
		c0-12.392-10.046-22.438-22.437-22.438h-0.127c-12.392,0.001-22.437,10.046-22.437,22.438v17.564v19.564
		C322.016,86.094,332.061,96.14,344.453,96.14z"/>
</g>
<path style="fill:#4CC1EB;" d="M245.279,278.178l25.018-17.941l7.699-54.266c0.852-6.004,6.693-9.967,12.588-8.54l44.086,10.674
	l6.224,1.507l91.126-65.349l0.168-0.121h-0.168H206.932H10l186.91,134.037C211.367,288.545,230.822,288.545,245.279,278.178z"/>
<g>
	<path style="fill:#F8C55A;" d="M369.621,234.454c-19.598,30.523-50.821,51.709-86.426,58.641l0,0L353.8,397.154l52.785,77.795
		l-13.21-19.469l86.426-58.641l-47.78-70.419l-65.328-96.282L369.621,234.454z"/>
	<path style="fill:#F8C55A;" d="M277.997,205.971c0.852-6.004,6.693-9.967,12.588-8.54l44.086,10.674l-44.086-10.674
		C284.69,196.004,278.849,199.967,277.997,205.971l-7.699,54.266l-0.215,1.517c-0.227,1.599-0.303,3.204-0.232,4.796
		c-0.07-1.592,0.006-3.198,0.232-4.796L277.997,205.971z"/>
</g>
<path style="fill:#EB5664;" d="M406.585,474.948c16.194,23.866,48.667,30.085,72.534,13.893l0,0
	c23.866-16.193,30.085-48.667,13.893-72.534l-13.21-19.468l0,0l-86.426,58.641L406.585,474.948z"/>
<path style="fill:#E5EAED;" d="M369.621,234.454l-2.929-4.316l-5.959-8.782c-3.626-5.344-9.112-9.146-15.39-10.667l-4.449-1.077
	l-6.224-1.507l-44.085-10.674c-5.894-1.427-11.736,2.536-12.588,8.54l-7.914,55.784c-0.227,1.598-0.303,3.204-0.232,4.796
	c0.211,4.777,1.738,9.437,4.457,13.446l8.887,13.099l0,0l0,0C318.8,286.162,350.023,264.977,369.621,234.454z"/>
<path d="M8.23,383.98c0.104,0.16,0.22,0.309,0.325,0.467c0.246,0.369,0.503,0.727,0.757,1.087c0.717,1.018,1.462,2.008,2.243,2.962
	c0.032,0.039,0.063,0.081,0.095,0.12c0.47,0.571,0.956,1.123,1.447,1.67c0.082,0.091,0.164,0.183,0.246,0.274
	c4.905,5.382,10.85,9.597,17.435,12.433c0.196,0.084,0.392,0.17,0.59,0.252c0.581,0.242,1.166,0.474,1.757,0.694
	c0.317,0.118,0.637,0.229,0.957,0.342c0.529,0.185,1.057,0.373,1.594,0.54c0.571,0.179,1.149,0.34,1.728,0.498
	c0.557,0.153,1.117,0.298,1.68,0.432c0.64,0.152,1.281,0.301,1.928,0.428c0.358,0.071,0.719,0.13,1.08,0.193
	c0.616,0.108,1.234,0.207,1.856,0.292c0.356,0.049,0.713,0.095,1.071,0.136c0.668,0.077,1.339,0.138,2.013,0.189
	c0.309,0.023,0.617,0.053,0.927,0.071c0.98,0.056,1.966,0.093,2.96,0.093h0.001h297.581l36.589,53.925
	c0.004,0.005,0.006,0.011,0.01,0.017l13.21,19.467c9.331,13.754,23.46,23.05,39.784,26.176c3.946,0.756,7.904,1.129,11.836,1.129
	c12.33,0,24.376-3.675,34.805-10.751v-0.001c28.391-19.264,35.816-58.034,16.553-86.423l-13.209-19.469
	c-0.001-0.002-0.003-0.004-0.005-0.006l-46.052-67.87V145.939c0.214-1.169,0.219-2.382,0-3.583V83.343v-0.058
	c0-21.586-17.562-39.148-39.149-39.148h-0.057h-25.797v-7.564c0-17.887-14.552-32.439-32.439-32.439h-0.127
	c-17.886,0.001-32.438,14.552-32.438,32.439v7.563H130.006v-7.563c0-17.887-14.552-32.439-32.439-32.439h-0.127
	C79.555,4.135,65.003,18.686,65.003,36.573v7.563H39.206h-0.057C17.562,44.137,0,61.699,0,83.285v0.058v60.799v0.064
	c0,0.007,0,0.013,0,0.019v212.01c0,10.04,2.933,19.404,7.97,27.3C8.056,383.684,8.135,383.835,8.23,383.98z M20.744,362.951
	c-0.481-2.164-0.743-4.409-0.743-6.715V163.62l40.257,28.869c4.488,3.218,10.736,2.189,13.955-2.3
	c3.219-4.487,2.189-10.736-2.299-13.954l-30.808-22.093h359.977l-62.292,44.67l-45.853-11.103
	c-5.544-1.342-11.432-0.275-16.153,2.929c-4.72,3.202-7.887,8.278-8.688,13.927l-5.686,40.074l-1.413,9.961l-9.538,6.84
	l-12.007,8.61c-10.979,7.875-25.732,7.872-36.712,0.001l-12.392-8.886l-17.05-12.227l-40.465-29.018
	c-4.489-3.219-10.737-2.189-13.955,2.3c-3.218,4.487-2.189,10.736,2.299,13.954l35.315,25.325L20.744,362.951z M304.111,276.448
	c-5.334,2.18-10.83,3.997-16.454,5.41l-5.074-7.478c-0.279-0.412-0.538-0.834-0.776-1.266c-1.257-2.281-1.919-4.823-1.966-7.415
	c-0.015-0.844,0.023-1.693,0.143-2.54l3.503-24.686l4.412-31.097c0.007-0.051,0.017-0.119,0.116-0.187
	c0.058-0.039,0.105-0.051,0.144-0.051c0.028,0,0.052,0.006,0.073,0.012l29.106,7.046l25.653,6.21c0.002,0,0.004,0.001,0.005,0.001
	c3.867,0.938,7.228,3.267,9.462,6.559l5.073,7.478C344.014,253.196,325.371,267.758,304.111,276.448z M50.92,387.154
	c-0.002,0-0.005,0-0.007,0c-0.496,0-0.988-0.014-1.478-0.038c-0.166-0.008-0.33-0.022-0.495-0.032
	c-0.327-0.021-0.654-0.044-0.978-0.075c-0.189-0.018-0.377-0.04-0.565-0.062c-0.304-0.034-0.607-0.072-0.908-0.116
	c-0.185-0.027-0.37-0.055-0.554-0.085c-0.312-0.051-0.623-0.107-0.932-0.167c-0.163-0.031-0.326-0.063-0.487-0.097
	c-0.362-0.077-0.722-0.161-1.08-0.25c-0.102-0.025-0.205-0.048-0.306-0.075c-4.421-1.152-8.46-3.258-11.883-6.088l142.294-106.343
	l17.542,12.58c8.975,6.436,19.494,9.653,30.011,9.653s21.036-3.218,30.011-9.654l11.118-7.972c0.98,2.542,2.252,4.985,3.808,7.278
	l8.887,13.1c0.001,0.001,0.002,0.003,0.003,0.004l60.008,88.439L50.92,387.154L50.92,387.154z M473.503,480.567L473.503,480.567
	c-9.331,6.332-20.571,8.651-31.648,6.528c-1.384-0.265-2.746-0.596-4.08-0.989c-1.846-0.545-3.637-1.219-5.372-1.999
	c-0.773-0.348-1.538-0.71-2.286-1.103c-0.069-0.036-0.135-0.077-0.204-0.114c-1.141-0.607-2.255-1.262-3.333-1.972
	c-0.152-0.1-0.298-0.21-0.449-0.312c-0.416-0.281-0.832-0.562-1.237-0.858c-0.024-0.018-0.047-0.037-0.072-0.055
	c-3.838-2.818-7.207-6.302-9.96-10.361l-6.634-9.776l-0.96-1.415l69.875-47.411l7.595,11.194
	C497.807,441.187,492.768,467.494,473.503,480.567z M465.911,394.178l-69.875,47.411l-23.364-34.435l-13.571-20.001l-59.603-87.844
	c0.379-0.116,0.755-0.241,1.133-0.36c7.408-2.339,14.598-5.271,21.494-8.76c2.505-1.267,4.97-2.609,7.394-4.019l13.586,20.022
	l35.379,52.143l5.418,7.986c1.934,2.851,5.081,4.387,8.284,4.387c0.734,0,1.47-0.082,2.196-0.246c1.186-0.268,2.343-0.757,3.41-1.48
	c4.57-3.102,5.761-9.32,2.66-13.891l-7.249-10.686L346.07,274.94c8.591-6.744,16.427-14.468,23.303-23.042l52.648,77.594
	l19.933,29.378L465.911,394.178z M369.009,215.739c-2.182-3.216-4.843-6.022-7.865-8.343l60.877-43.655v130.128L369.009,215.739z
	 M332.016,64.138V44.137v-7.564c0-6.857,5.579-12.438,12.438-12.438h0.127c6.857,0,12.438,5.579,12.438,12.438v7.563v20.001v9.563
	c0,6.857-5.579,12.438-12.438,12.438h-0.127c-6.857,0-12.438-5.579-12.438-12.438V64.138z M85.004,64.138V44.137v-7.564
	c0-6.857,5.579-12.438,12.438-12.438h0.127c6.857,0,12.438,5.579,12.438,12.438v7.563v20.001v9.563
	c0,6.857-5.579,12.438-12.438,12.438h-0.127c-6.858,0.001-12.438-5.578-12.438-12.437V64.138z M65.003,64.138v9.563
	c0,17.887,14.552,32.439,32.439,32.439h0.127c17.887,0,32.439-14.552,32.439-32.439v-9.563h182.009v9.563
	c0,17.887,14.552,32.439,32.439,32.439h0.127c17.887,0,32.439-14.552,32.439-32.439v-9.563h25.797
	c10.59,0,19.205,8.615,19.205,19.205v50.798H20.001V83.343c0-10.59,8.615-19.205,19.205-19.205
	C39.206,64.138,65.003,64.138,65.003,64.138z"/>
<path d="M106.745,203.072c-0.25-0.61-0.56-1.19-0.92-1.73c-0.37-0.55-0.78-1.06-1.25-1.52c-0.46-0.46-0.97-0.88-1.52-1.24
	c-0.54-0.36-1.12-0.67-1.72-0.92c-0.6-0.25-1.23-0.44-1.87-0.57c-1.29-0.26-2.62-0.26-3.91,0c-0.64,0.13-1.27,0.32-1.87,0.57
	c-0.6,0.25-1.19,0.56-1.73,0.92c-0.55,0.36-1.06,0.78-1.52,1.24c-0.46,0.46-0.88,0.97-1.24,1.52c-0.36,0.54-0.67,1.12-0.92,1.73
	c-0.25,0.6-0.44,1.229-0.57,1.87c-0.13,0.64-0.2,1.3-0.2,1.949c0,0.65,0.07,1.311,0.2,1.96c0.13,0.631,0.32,1.261,0.57,1.87
	c0.25,0.601,0.56,1.181,0.92,1.721c0.36,0.55,0.78,1.06,1.24,1.52c0.46,0.46,0.98,0.88,1.52,1.25c0.54,0.36,1.13,0.67,1.73,0.92
	c0.6,0.25,1.23,0.44,1.87,0.57c0.64,0.13,1.3,0.189,1.95,0.189s1.31-0.06,1.96-0.189c0.64-0.13,1.27-0.32,1.87-0.57
	c0.6-0.25,1.18-0.56,1.72-0.92c0.55-0.37,1.06-0.79,1.52-1.25c0.46-0.46,0.88-0.97,1.25-1.52c0.36-0.54,0.67-1.12,0.92-1.721
	c0.25-0.609,0.44-1.239,0.57-1.87c0.13-0.649,0.19-1.31,0.19-1.96c0-0.649-0.06-1.31-0.19-1.949
	C107.185,204.302,106.995,203.672,106.745,203.072z"/>
<path d="M422.771,388.371c-0.25-0.61-0.56-1.19-0.92-1.73c-0.36-0.55-0.78-1.06-1.24-1.52c-0.46-0.46-0.97-0.88-1.52-1.25
	c-0.54-0.351-1.12-0.66-1.72-0.91c-0.61-0.25-1.24-0.45-1.87-0.57c-1.3-0.26-2.62-0.26-3.91,0c-0.64,0.12-1.27,0.32-1.87,0.57
	c-0.61,0.25-1.19,0.56-1.73,0.91c-0.55,0.37-1.06,0.79-1.52,1.25s-0.88,0.97-1.24,1.52c-0.36,0.54-0.67,1.12-0.92,1.73
	c-0.25,0.6-0.44,1.229-0.57,1.87c-0.13,0.64-0.2,1.3-0.2,1.949c0,0.65,0.07,1.311,0.2,1.96c0.13,0.631,0.32,1.261,0.57,1.87
	c0.25,0.601,0.56,1.181,0.92,1.721c0.36,0.55,0.78,1.06,1.24,1.52c0.46,0.46,0.97,0.88,1.52,1.24c0.54,0.359,1.12,0.67,1.73,0.92
	c0.6,0.25,1.23,0.45,1.87,0.57c0.505,0.103,1.022,0.155,1.537,0.178c0.138,0.006,0.276,0.021,0.413,0.021
	c0.65,0,1.31-0.069,1.96-0.199c0.63-0.12,1.26-0.32,1.87-0.57c0.6-0.25,1.18-0.561,1.72-0.92c0.55-0.36,1.06-0.78,1.52-1.24
	c0.46-0.46,0.88-0.97,1.24-1.52c0.306-0.459,0.567-0.951,0.795-1.457c0.04-0.089,0.088-0.174,0.125-0.264
	c0.25-0.609,0.45-1.239,0.57-1.87c0.13-0.649,0.2-1.31,0.2-1.96c0-0.649-0.07-1.31-0.2-1.949
	C423.221,389.601,423.021,388.971,422.771,388.371z"/>
<g>
</g>
<g>
</g>
<g>
</g>
<g>
</g>
<g>
</g>
<g>
</g>
<g>
</g>
<g>
</g>
<g>
</g>
<g>
</g>
<g>
</g>
<g>
</g>
<g>
</g>
<g>
</g>
<g>
</g>
</svg>
