<svg height="512pt" viewBox="-34 0 512 512.00018" width="512pt" xmlns="http://www.w3.org/2000/svg"><path d="m433.546875 185.121094c-3.523437-46.792969-43.269531-82.183594-89.699219-80.804688-10.429687-49.53125-51.988281-88.71875-105.03125-93.773437-62.105468-5.917969-117.589844 37.082031-128.273437 97.464843-5.011719-.917968-10.164063-1.421874-15.441407-1.421874-47 0-85.101562 38.101562-85.101562 85.101562 0 3.648438.230469 7.242188.675781 10.769531 1.894531 14.988281 14.703125 26.203125 29.808594 26.203125h362.855469c14.953125 0 27.84375-10.964844 29.75-25.792968.742187-5.777344.914062-11.714844.457031-17.746094zm0 0" fill="#56caf4"/><g fill="#ffca49"><path d="m327.1875 343.296875c.078125.007813.160156.019531.238281.027344-.078125-.007813-.160156-.019531-.238281-.027344zm0 0"/><path d="m117.488281 501.941406c-.054687-.003906-.109375-.007812-.164062-.011718.054687.003906.109375.007812.164062.011718zm0 0"/><path d="m118.089844 501.976562c-.058594-.003906-.117188-.003906-.175782-.007812.058594.003906.117188.007812.175782.007812zm0 0"/><path d="m332.542969 500.582031c-.078125.03125-.15625.058594-.238281.089844.082031-.03125.160156-.058594.238281-.089844zm0 0"/><path d="m324.980469 343.160156c.03125 0 .066406.003906.097656.003906-.03125 0-.066406-.003906-.097656-.003906zm0 0"/><path d="m117.789062 501.960938c-.054687 0-.113281-.003907-.167968-.007813.054687.003906.109375.007813.167968.007813zm0 0"/><path d="m117.199219 501.921875c-.054688-.007813-.113281-.011719-.167969-.015625.054688.003906.113281.007812.167969.015625zm0 0"/><path d="m116.902344 501.894531c-.054688-.007812-.109375-.011719-.164063-.019531.054688.007812.109375.011719.164063.019531zm0 0"/><path d="m118.398438 343.171875c.046874-.003906.089843-.003906.136718-.003906-.046875 0-.089844 0-.136718.003906zm0 0"/><path d="m116.324219 501.828125c-.058594-.007813-.113281-.011719-.167969-.019531.054688.003906.109375.011718.167969.019531zm0 0"/><path d="m118.722656 343.164062c.03125 0 .0625 0 .09375-.003906-.03125 0-.0625.003906-.09375.003906zm0 0"/><path d="m116.613281 501.863281c-.054687-.007812-.113281-.011719-.167969-.019531.054688.007812.113282.011719.167969.019531zm0 0"/><path d="m326.179688 501.953125c-.054688.003906-.109376.007813-.167969.007813.054687 0 .113281-.003907.167969-.007813zm0 0"/><path d="m325.289062 501.992188c-.058593 0-.121093.003906-.179687.003906.058594 0 .121094 0 .179687-.003906zm0 0"/><path d="m325.59375 501.980469c-.058594.003906-.117188.003906-.175781.007812.058593 0 .117187-.003906.175781-.007812zm0 0"/><path d="m325.886719 501.96875c-.058594.003906-.121094.007812-.179688.007812.058594 0 .121094-.003906.179688-.007812zm0 0"/><path d="m116.035156 501.792969c-.054687-.007813-.113281-.015625-.167968-.023438.054687.003907.113281.011719.167968.023438zm0 0"/><path d="m325.542969 343.175781c.050781 0 .105469.003907.15625.007813-.050781-.003906-.105469-.007813-.15625-.007813zm0 0"/><path d="m325.265625 343.167969c.042969 0 .089844 0 .132813.003906-.042969-.003906-.089844-.003906-.132813-.003906zm0 0"/><path d="m118.382812 501.988281c-.058593 0-.117187-.003906-.175781-.003906.058594 0 .117188.003906.175781.003906zm0 0"/><path d="m118.691406 501.996094c-.0625 0-.121094 0-.179687-.003906.058593.003906.117187.003906.179687.003906zm0 0"/><path d="m326.476562 501.929688c-.054687.003906-.109374.007812-.164062.011718.054688-.003906.109375-.007812.164062-.011718zm0 0"/><path d="m112.035156 500.859375c-.074218-.027344-.152344-.050781-.226562-.078125.078125.027344.152344.054688.226562.078125zm0 0"/><path d="m112.308594 500.949219c-.074219-.023438-.148438-.050781-.222656-.074219.074218.023438.148437.050781.222656.074219zm0 0"/><path d="m112.84375 501.113281c-.066406-.019531-.132812-.039062-.199219-.058593.066407.019531.136719.039062.199219.058593zm0 0"/><path d="m117.21875 343.238281c.070312-.003906.136719-.011719.207031-.015625-.070312.003906-.140625.011719-.207031.015625zm0 0"/><path d="m112.574219 501.03125c-.070313-.023438-.140625-.042969-.214844-.066406.070313.023437.144531.042968.214844.066406zm0 0"/><path d="m111.761719 500.765625c-.074219-.027344-.148438-.050781-.222657-.078125.074219.027344.148438.050781.222657.078125zm0 0"/><path d="m116.089844 343.363281c.085937-.011719.167968-.023437.25-.035156-.082032.011719-.164063.019531-.25.035156zm0 0"/><path d="m116.9375 343.261719c.074219-.003907.144531-.011719.21875-.019531-.074219.007812-.144531.015624-.21875.019531zm0 0"/><path d="m116.375 343.324219c.078125-.007813.15625-.019531.234375-.027344-.078125.007813-.15625.019531-.234375.027344zm0 0"/><path d="m111.492188 500.671875c-.078126-.03125-.15625-.058594-.238282-.089844.082032.03125.160156.058594.238282.089844zm0 0"/><path d="m114.894531 501.605469c-.289062-.054688-.574219-.117188-.855469-.183594.28125.066406.566407.128906.855469.183594zm0 0"/><path d="m115.175781 501.65625c-.070312-.011719-.144531-.027344-.214843-.039062.070312.011718.144531.027343.214843.039062zm0 0"/><path d="m115.457031 501.703125c-.058593-.007813-.121093-.019531-.179687-.03125.058594.011719.121094.023437.179687.03125zm0 0"/><path d="m115.742188 501.75c-.054688-.007812-.109376-.019531-.164063-.027344.054687.007813.109375.019532.164063.027344zm0 0"/><path d="m113.128906 501.191406c-.070312-.019531-.136718-.039062-.207031-.058594.070313.019532.136719.039063.207031.058594zm0 0"/><path d="m116.65625 343.292969c.074219-.007813.148438-.015625.222656-.023438-.074218.007813-.148437.015625-.222656.023438zm0 0"/><path d="m117.8125 343.195312c.054688 0 .109375-.003906.164062-.007812-.054687.003906-.109374.007812-.164062.007812zm0 0"/><path d="m113.691406 501.339844c-.070312-.015625-.140625-.035156-.210937-.050782.070312.015626.140625.03125.210937.050782zm0 0"/><path d="m117.515625 343.214844c.0625-.003906.121094-.007813.183594-.011719-.0625.003906-.121094.007813-.183594.011719zm0 0"/><path d="m113.40625 501.265625c-.070312-.015625-.136719-.035156-.207031-.054687.070312.019531.136719.039062.207031.054687zm0 0"/><path d="m114 501.414062c-.082031-.019531-.160156-.039062-.242188-.058593.082032.019531.160157.039062.242188.058593zm0 0"/><path d="m118.097656 343.183594c.054688-.003906.105469-.007813.160156-.007813-.054687 0-.105468.003907-.160156.007813zm0 0"/><path d="m330.875 501.132812c-.066406.019532-.132812.039063-.203125.058594.070313-.019531.136719-.039062.203125-.058594zm0 0"/><path d="m326.769531 501.90625c-.054687.003906-.113281.007812-.171875.015625.058594-.007813.113282-.011719.171875-.015625zm0 0"/><path d="m330.601562 501.210938c-.070312.019531-.140624.039062-.207031.054687.066407-.015625.136719-.035156.207031-.054687zm0 0"/><path d="m326.644531 343.242188c.074219.007812.144531.015624.21875.019531-.074219-.003907-.144531-.011719-.21875-.019531zm0 0"/><path d="m330.039062 501.355469c-.078124.019531-.15625.039062-.238281.058593.082031-.019531.160157-.039062.238281-.058593zm0 0"/><path d="m330.320312 501.285156c-.070312.019532-.140624.035156-.210937.054688.070313-.019532.140625-.035156.210937-.054688zm0 0"/><path d="m326.917969 343.269531c.078125.007813.152343.015625.226562.023438-.074219-.007813-.148437-.015625-.226562-.023438zm0 0"/><path d="m331.152344 501.054688c-.066406.019531-.132813.039062-.199219.058593.066406-.019531.132813-.039062.199219-.058593zm0 0"/><path d="m331.988281 500.78125c-.074219.027344-.148437.054688-.222656.078125.074219-.023437.148437-.050781.222656-.078125zm0 0"/><path d="m332.261719 500.6875c-.074219.027344-.148438.050781-.222657.078125.074219-.027344.148438-.050781.222657-.078125zm0 0"/><path d="m331.4375 500.964844c-.070312.023437-.140625.042968-.214844.066406.074219-.023438.144532-.042969.214844-.066406zm0 0"/><path d="m331.710938 500.875c-.074219.027344-.148438.050781-.222657.074219.074219-.023438.148438-.050781.222657-.074219zm0 0"/><path d="m327.722656 343.363281c4.753906.644531 9.03125 2.789063 12.34375 5.933594l-66.878906 58.96875 68.0625 86.398437c-2.363281 2.601563-5.328125 4.644532-8.675781 5.910157 8.445312-3.183594 14.457031-11.34375 14.457031-20.90625v-114.175781c0-11.308594-8.40625-20.652344-19.308594-22.128907zm0 0"/><path d="m102.550781 494.660156 68.058594-86.394531-66.875-58.96875c3.3125-3.144531 7.589844-5.289063 12.34375-5.933594-10.902344 1.472657-19.308594 10.816407-19.308594 22.125v114.179688c0 9.5625 6.011719 17.71875 14.457031 20.902343-3.347656-1.261718-6.316406-3.304687-8.675781-5.910156zm0 0"/><path d="m327.457031 343.328125c.085938.011719.167969.019531.25.03125-.082031-.011719-.164062-.019531-.25-.03125zm0 0"/><path d="m327.929688 501.769531c-.054688.007813-.109376.015625-.164063.023438.054687-.011719.109375-.019531.164063-.023438zm0 0"/><path d="m326.097656 343.203125c.0625.003906.125.007813.1875.011719-.0625-.003906-.125-.007813-.1875-.011719zm0 0"/><path d="m327.644531 501.808594c-.054687.003906-.113281.011718-.167969.019531.054688-.007813.113282-.015625.167969-.019531zm0 0"/><path d="m328.222656 501.722656c-.054687.007813-.109375.019532-.167968.027344.058593-.007812.113281-.019531.167968-.027344zm0 0"/><path d="m325.824219 343.1875c.054687.003906.109375.007812.164062.007812-.054687 0-.109375-.003906-.164062-.007812zm0 0"/><path d="m327.0625 501.875c-.054688.007812-.109375.011719-.167969.019531.058594-.007812.113281-.011719.167969-.019531zm0 0"/><path d="m327.355469 501.84375c-.058594.007812-.113281.011719-.171875.019531.058594-.007812.113281-.011719.171875-.019531zm0 0"/><path d="m328.523438 501.675781c-.0625.007813-.121094.019531-.183594.03125.0625-.011719.121094-.023437.183594-.03125zm0 0"/><path d="m326.375 343.222656c.070312.003906.136719.011719.207031.015625-.070312-.003906-.136719-.011719-.207031-.015625zm0 0"/><path d="m328.839844 501.617188c-.070313.011718-.144532.027343-.214844.039062.070312-.011719.144531-.027344.214844-.039062zm0 0"/><path d="m329.761719 501.425781c-.285157.0625-.570313.125-.855469.179688.289062-.054688.570312-.117188.855469-.179688zm0 0"/><path d="m341.25 494.660156-68.0625-86.394531-34.988281 30.851563c-9.3125 8.210937-23.285157 8.210937-32.601563 0l-34.988281-30.851563-68.058594 86.398437c2.359375 2.601563 5.328125 4.644532 8.675781 5.910157.011719.003906.019532.007812.03125.011719.078126.027343.15625.058593.234376.085937.015624.003906.03125.011719.046874.015625.074219.027344.148438.050781.222657.078125.019531.007813.035156.011719.050781.019531.074219.023438.148438.050782.222656.074219.015625.007813.035156.011719.050782.019531.074218.023438.148437.046875.222656.070313.019531.007812.035156.011719.054687.015625.070313.023437.140625.046875.214844.066406.023437.007812.046875.015625.070313.023438.066406.019531.132812.039062.199218.058593.027344.007813.050782.015625.078125.023438.066407.019531.136719.039062.203125.058593.023438.003907.046875.011719.070313.019532.070312.019531.140625.035156.207031.054687.023438.003907.050781.011719.074219.019531.070312.015626.140625.035157.210937.050782.023438.007812.046875.011718.070313.019531.078125.019531.15625.039063.238281.058594.011719 0 .027344.003906.039062.007812.285157.066407.570313.125.855469.179688.023438.003906.042969.007812.066407.011719.070312.015624.144531.027343.214843.042968.035157.003906.070313.011719.101563.015625.0625.011719.121094.019531.183594.03125.039062.007813.078124.011719.117187.019531.054687.007813.113281.015626.167969.027344.039062.003906.082031.011719.125.015625.054687.007813.109375.015625.164062.023438.039063.007812.082032.011719.121094.015625.054688.007812.109375.015625.167969.023437.039062.003907.082031.007813.121093.015625.058594.003906.113282.011719.171876.019532.039062.003906.078124.007812.121093.011718.054688.007813.109375.011719.167969.015625.039062.003907.082031.007813.125.011719.054688.007812.113281.011719.171875.015625.039063.003906.082031.007813.121094.011719.054687.003906.109375.007812.164062.011718.046875.003907.089844.003907.132813.007813.054687.003906.113281.007813.167968.011719.042969 0 .082032.003906.125.007812.058594 0 .121094.003906.179688.007813.039062 0 .078125.003906.113281.003906.058594 0 .117188.003906.175781.003906.042969.003907.085938.003907.128907.007813.058593 0 .121093 0 .179687.003906h.113282c.097656 0 .199218.003906.296874.003906h205.597657c.097656 0 .199219-.003906.296875-.003906h.113281c.058594-.003906.121094-.003906.179687-.003906.042969-.003906.085938-.003906.128907-.007813.058593 0 .117187-.003906.175781-.003906.039062 0 .074219-.003906.113281-.003906.058594-.003907.121094-.007813.179688-.007813.042969-.003906.082031-.007812.125-.007812.054687-.003906.113281-.007813.167969-.011719.042968-.003906.089843-.003906.132812-.007813.054688-.003906.109375-.007812.164062-.011718.039063-.003906.082032-.007813.121094-.011719.058594-.003906.113282-.007813.171875-.015625.042969-.003906.085938-.007812.125-.011719.058594-.003906.113281-.007812.167969-.015625.042969-.003906.082031-.007812.121094-.011718.058594-.007813.113281-.015626.171875-.019532.039062-.007812.082031-.011718.121093-.015625.058594-.007812.113282-.015625.167969-.023437.042969-.003906.082031-.011719.121094-.015625.054687-.007813.109375-.015625.164063-.023438.042968-.003906.085937-.011719.125-.015625.058593-.011718.113281-.019531.167968-.027344.039063-.007812.078125-.011718.117188-.019531.0625-.011719.121094-.019531.183594-.03125.03125-.003906.066406-.011719.101562-.015625.070312-.015625.144531-.027344.214844-.042968.023437-.003907.042968-.007813.066406-.011719.285156-.054688.570312-.113281.855469-.179688.011719-.003906.027343-.003906.039062-.007812.082031-.019531.160157-.039063.238281-.058594.023438-.007813.046876-.011719.070313-.019531.070313-.015625.140625-.035156.210937-.050782.023438-.007812.050782-.015624.074219-.019531.066407-.019531.136719-.039062.207031-.054687.023438-.007813.046876-.015625.070313-.019532.066406-.019531.136719-.039062.203125-.058593.027344-.007813.050781-.015625.078125-.023438.066406-.019531.132813-.039062.199219-.058593.023437-.007813.046875-.011719.070312-.023438.074219-.019531.144532-.042969.214844-.066406.019531-.003906.035156-.007813.054688-.015625.070312-.023438.148437-.046875.222656-.070313.015625-.007812.035156-.011718.050781-.019531.074219-.023437.148437-.050781.222656-.074219.015625-.007812.03125-.011718.050781-.019531.074219-.023437.148438-.050781.222657-.078125.015625-.003906.03125-.011719.046875-.015625.078125-.03125.15625-.058594.234375-.085937.011719-.003907.019531-.007813.03125-.011719 3.347656-1.265625 6.3125-3.308594 8.675781-5.914063zm0 0"/></g><path d="m170.609375 408.265625 34.988281 30.847656c9.316406 8.214844 23.289063 8.214844 32.601563 0l34.988281-30.847656 66.878906-58.96875c-3.316406-3.144531-7.59375-5.289063-12.347656-5.933594-.003906 0-.007812-.003906-.011719-.003906-.082031-.011719-.164062-.023437-.25-.03125-.011719 0-.023437-.003906-.03125-.003906-.078125-.011719-.160156-.019531-.238281-.027344-.011719-.003906-.027344-.003906-.042969-.003906-.074219-.007813-.148437-.015625-.226562-.023438-.019531-.003906-.039063-.003906-.054688-.007812-.074219-.007813-.144531-.011719-.21875-.019531-.019531 0-.042969-.003907-.0625-.003907-.070312-.007812-.136719-.011719-.207031-.015625-.03125-.003906-.0625-.003906-.089844-.007812-.0625-.003906-.125-.007813-.1875-.011719-.035156-.003906-.074218-.003906-.109375-.007813-.054687 0-.109375-.003906-.164062-.007812-.039063-.003906-.082031-.003906-.125-.003906-.050781-.003906-.105469-.007813-.15625-.007813-.046875-.003906-.09375-.003906-.144531-.003906-.042969 0-.089844-.003906-.132813-.003906-.0625 0-.125-.003907-.1875-.003907-.03125 0-.0625 0-.097656-.003906-.09375 0-.1875 0-.28125 0h-205.597657c-.09375 0-.1875 0-.285156 0-.03125 0-.0625.003906-.09375.003906-.0625 0-.125 0-.1875.003907-.046875 0-.089844.003906-.136718.003906-.046876 0-.09375.003906-.140626.003906-.054687 0-.105468.003907-.160156.007813-.039062 0-.082031 0-.121094.003906-.054687.003906-.109374.007812-.164062.007812-.039062.003907-.074219.003907-.113281.007813-.0625.003906-.121094.007813-.183594.011719-.03125.003906-.058594.003906-.089844.007812-.070312.003906-.136719.011719-.207031.015625-.019531 0-.042969.003907-.0625.003907-.074219.007812-.144531.011718-.21875.019531-.019531.003906-.039062.003906-.058594.007812-.074218.007813-.148437.015625-.222656.023438-.015625 0-.03125 0-.046875.003906-.078125.007813-.15625.019531-.234375.027344-.011719 0-.019531.003906-.03125.003906-.085938.007813-.167969.019531-.253906.03125-.003906 0-.007813 0-.011719.003906-4.753906.644531-9.03125 2.785157-12.34375 5.933594zm0 0" fill="#ffe4c1"/><path d="m443.519531 184.367188c-3.714843-49.304688-43.3125-87.398438-91.804687-89.957032-6.496094-23.289062-19.6875-44.742187-37.683594-61.066406-20.695312-18.769531-46.378906-30.097656-74.265625-32.757812-32.445313-3.089844-64.5625 6.101562-90.441406 25.882812-23.175781 17.714844-39.488281 42.460938-46.609375 70.429688-2.546875-.210938-5.089844-.316407-7.609375-.316407-52.441407 0-95.105469 42.664063-95.105469 95.105469 0 4.015625.253906 8.058594.753906 12.019531 2.515625 19.925781 19.597656 34.949219 39.730469 34.949219h125.167969v61.757812c0 5.523438 4.476562 10 10 10 5.519531 0 10-4.476562 10-10v-61.757812h72.496094v43.386719l-7.796876-5.042969c-4.636718-2.996094-10.828124-1.667969-13.828124 2.96875-2.996094 4.636719-1.667969 10.828125 2.96875 13.828125l23.226562 15.015625c1.652344 1.070312 3.542969 1.605469 5.429688 1.605469 1.890624 0 3.777343-.535157 5.429687-1.605469l23.226563-15.015625c4.636718-3 5.96875-9.1875 2.96875-13.828125-3-4.636719-9.1875-5.964844-13.828126-2.96875l-7.796874 5.042969v-43.386719h125.191406c20.085937 0 37.140625-14.839844 39.667968-34.519531.839844-6.519531 1.011719-13.167969.511719-19.769531zm-20.347656 17.222656c-1.25 9.730468-9.777344 17.066406-19.832031 17.066406h-125.191406v-49.214844c0-5.523437-4.476563-10-10-10-5.523438 0-10 4.476563-10 10v49.214844h-72.496094v-30.84375l7.796875 5.042969c4.636719 2.996093 10.828125 1.667969 13.824219-2.96875 3-4.636719 1.671874-10.828125-2.964844-13.828125l-23.226563-15.015625c-3.304687-2.136719-7.554687-2.136719-10.859375 0l-23.226562 15.015625c-4.640625 3-5.96875 9.1875-2.96875 13.828125 1.914062 2.960937 5.125 4.570312 8.40625 4.570312 1.859375 0 3.742187-.519531 5.417968-1.601562l7.796876-5.042969v30.84375h-125.164063c-10.082031 0-18.632813-7.503906-19.886719-17.453125-.398437-3.136719-.597656-6.339844-.597656-9.515625 0-41.414062 33.691406-75.105469 75.101562-75.105469 4.492188 0 9.078126.421875 13.636719 1.257813 2.621094.484375 5.320313-.101563 7.507813-1.621094s3.679687-3.847656 4.144531-6.472656c4.75-26.835938 19.339844-50.769532 41.078125-67.390625 21.859375-16.710938 48.996094-24.476563 76.398438-21.859375 23.558593 2.246094 45.25 11.8125 62.726562 27.660156 16.90625 15.335938 28.792969 36.007812 33.46875 58.214844 1 4.738281 5.253906 8.078125 10.082031 7.9375 41.398438-1.261719 76.316407 30.203125 79.433594 71.5625.394531 5.25.257813 10.539062-.40625 15.71875zm0 0" fill="#231f20"/><path d="m347.316406 342.410156c-.117187-.125-.238281-.246094-.363281-.363281-5.125-4.867187-11.601563-7.875-18.53125-8.671875-.015625-.003906-.03125-.003906-.046875-.007812-.113281-.011719-.226562-.023438-.335938-.035157-.03125-.003906-.058593-.007812-.089843-.007812-.097657-.011719-.199219-.023438-.300781-.03125-.035157-.003907-.074219-.007813-.113282-.007813-.09375-.007812-.1875-.019531-.277344-.023437-.046874-.003907-.089843-.007813-.132812-.011719-.085938-.003906-.171875-.011719-.257812-.015625-.050782-.003906-.101563-.007813-.148438-.011719-.085938-.003906-.167969-.011718-.253906-.015625-.050782 0-.101563-.003906-.152344-.007812-.082031-.003907-.160156-.003907-.238281-.007813-.058594-.003906-.113281-.007812-.167969-.007812-.082031-.003906-.160156-.003906-.238281-.007813-.054688-.003906-.109375-.003906-.164063-.003906-.085937-.003906-.167968-.003906-.25-.007813-.054687 0-.105468 0-.15625 0-.132812-.003906-.265625-.003906-.402344-.003906h-205.59375c-.132812 0-.265624 0-.402343.003906-.050781 0-.101563 0-.152344 0-.085937.003907-.167969.003907-.25.007813-.054687 0-.109375 0-.167969.003906-.078125 0-.15625.003907-.234375.007813-.058593 0-.113281.003906-.171875.007812-.078125.003906-.15625.007813-.234375.007813-.050781.003906-.105469.007812-.15625.007812-.082031.003907-.167969.011719-.253906.015625-.046875.003906-.097656.003906-.148437.011719-.085938.003906-.171876.007813-.257813.015625-.042969.003906-.085937.007812-.128906.011719-.09375.003906-.1875.015625-.28125.023437-.039063 0-.074219.003906-.113281.007813-.101563.007812-.199219.019531-.300782.03125-.027344 0-.058594.003906-.089844.007812-.109374.011719-.222656.023438-.335937.035157-.015625.003906-.03125.003906-.046875.007812-6.929688.796875-13.402344 3.804688-18.53125 8.671875-.125.117187-.246094.238281-.363281.363281-5.988281 5.875-9.710938 14.050782-9.710938 23.082032v114.175781c0 8.113281 3.003907 15.542969 7.960938 21.222656.128906.167969.265625.328125.410156.484375 2.320313 2.5625 5.015625 4.707031 7.964844 6.382812 4.71875 2.699219 10.179687 4.242188 15.992187 4.242188h205.597656c5.816407 0 11.277344-1.542969 15.996094-4.242188 2.949219-1.675781 5.644532-3.820312 7.964844-6.382812.140625-.15625.277344-.320312.410156-.484375 4.953125-5.679687 7.960938-13.109375 7.960938-21.222656v-114.175781c.003906-9.03125-3.71875-17.207032-9.710938-23.082032zm-60.417968 67.101563 50.128906-44.199219c0 .058594.003906.117188.003906.179688v107.652343zm33.667968-56.351563-53.980468 47.59375c-.003907.003906-.007813.007813-.011719.011719l-34.988281 30.847656c-5.523438 4.867188-13.851563 4.871094-19.371094 0l-34.988282-30.847656c-.003906-.003906-.011718-.007813-.015624-.011719l-53.976563-47.59375zm-213.796875 119.984375v-107.652343c0-.0625 0-.121094.003907-.179688l50.125 44.195312zm12.332031 18.855469c-.097656 0-.191406 0-.285156-.003906-.019531 0-.039062 0-.0625 0-.433594-.011719-.867187-.046875-1.292968-.105469l54.464843-69.132813 27.058594 23.859376c2.511719 2.210937 5.265625 4 8.171875 5.359374.144531.070313.289062.136719.433594.203126.035156.015624.070312.03125.105468.046874 4.507813 2.019532 9.355469 3.027344 14.203126 3.027344 5.996093 0 11.996093-1.542968 17.339843-4.628906.066407-.039062.128907-.074219.195313-.113281.085937-.050781.171875-.105469.261718-.15625 1.789063-1.070313 3.503907-2.316407 5.117188-3.738281l27.0625-23.859376 54.460938 69.132813c-.425782.058594-.855469.09375-1.292969.105469-.019531 0-.039063 0-.0625 0-.09375.003906-.1875.003906-.285157.003906zm0 0" fill="#231f20"/><path d="m222.15625 39.007812c-55.074219 2.25-73.921875 54.476563-74.699219 56.695313-1.820312 5.214844.933594 10.917969 6.148438 12.738281 1.089843.378906 2.203125.558594 3.292969.558594 4.136718 0 8.003906-2.582031 9.441406-6.707031.148437-.414063 14.992187-41.601563 56.636718-43.304688 5.515626-.226562 9.808594-4.882812 9.582032-10.398437-.226563-5.515625-4.894532-9.792969-10.402344-9.582032zm0 0" fill="#231f20"/><path d="m268.46875 49.179688c-.25-.609376-.558594-1.191407-.917969-1.730469-.371093-.550781-.78125-1.0625-1.25-1.519531-1.859375-1.863282-4.441406-2.929688-7.070312-2.929688-2.628907 0-5.199219 1.066406-7.070313 2.929688-.460937.457031-.878906.96875-1.238281 1.519531-.363281.539062-.671875 1.121093-.921875 1.730469-.25.601562-.441406 1.230468-.570312 1.867187-.128907.640625-.199219 1.300781-.199219 1.953125 0 .648438.070312 1.308594.199219 1.949219.128906.640625.320312 1.269531.570312 1.867187.25.609375.558594 1.191406.921875 1.730469.359375.550781.777344 1.058594 1.238281 1.519531 1.859375 1.859375 4.441406 2.933594 7.070313 2.933594 2.640625 0 5.210937-1.070312 7.070312-2.933594.46875-.460937.878907-.96875 1.25-1.519531.359375-.539063.667969-1.121094.917969-1.730469.25-.597656.441406-1.226562.570312-1.867187.132813-.640625.191407-1.300781.191407-1.949219 0-.652344-.058594-1.3125-.191407-1.953125-.128906-.636719-.320312-1.265625-.570312-1.867187zm0 0" fill="#231f20"/></svg>