<?xml version="1.0" encoding="iso-8859-1"?>
<!-- Generator: Adobe Illustrator 19.0.0, SVG Export Plug-In . SVG Version: 6.00 Build 0)  -->
<svg version="1.1" id="Capa_1" xmlns="http://www.w3.org/2000/svg" xmlns:xlink="http://www.w3.org/1999/xlink" x="0px" y="0px"
	 viewBox="0 0 512 512" style="enable-background:new 0 0 512 512;" xml:space="preserve">
<g>
	<polygon style="fill:#34BFE0;" points="232.35,399.083 193.985,437.448 238.417,437.448 276.781,399.083 	"/>
	<polygon style="fill:#34BFE0;" points="46.766,399.083 46.766,437.448 69.304,437.448 107.668,399.083 	"/>
	<polygon style="fill:#34BFE0;" points="399.702,399.083 361.338,437.448 408.53,437.448 445.894,399.083 	"/>
</g>
<g>
	<polygon style="fill:#F25353;" points="158.877,399.083 149.947,399.083 111.582,437.448 153.86,437.448 192.225,399.083 	"/>
	<polygon style="fill:#F25353;" points="324.076,399.083 315.146,399.083 276.781,437.448 300.952,437.448 322.973,437.448 
		361.338,399.083 	"/>
	<polygon style="fill:#F25353;" points="503.599,399.083 491.846,399.083 482.915,399.083 445.551,437.448 445.894,437.448 
		482.915,437.448 493.086,437.448 503.599,426.653 	"/>
</g>
<rect x="10" y="74" style="fill:#FFFFFF;" width="492" height="326.27"/>
<polygon style="fill:#34BFE0;" points="100,74 100,138.014 301,283.453 502,138.014 502,74 "/>
<path d="M502,64H10C4.478,64,0,68.477,0,74v364c0,5.523,4.478,10,10,10h492c5.522,0,10-4.477,10-10V74C512,68.477,507.522,64,502,64
	z M492,84v305.083H20V361h79c5.522,0,10-4.477,10-10s-4.478-10-10-10H20V157.593l230.138,166.522
	c1.749,1.266,3.806,1.898,5.862,1.898s4.113-0.633,5.862-1.898l162.573-117.634c4.475-3.237,5.477-9.489,2.239-13.964
	c-3.239-4.475-9.492-5.475-13.964-2.239L256,303.671L20,132.907V84H492z M344.964,428l18.917-18.917h56.271L401.236,428H344.964z
	 M260.408,428l18.917-18.917h56.271L316.679,428H260.408z M175.852,428l18.917-18.917h56.271L232.123,428H175.852z M91.295,428
	l18.917-18.917h56.271L147.567,428H91.295z M20,409.083h61.927L63.01,428H20V409.083z M429.521,428l18.917-18.917H492V428H429.521z"
	/>
<path d="M449.89,185.72c2.63,0,5.21-1.07,7.07-2.93c1.859-1.86,2.93-4.44,2.93-7.07s-1.07-5.21-2.93-7.07s-4.44-2.93-7.07-2.93
	s-5.21,1.07-7.07,2.93c-1.859,1.86-2.93,4.44-2.93,7.07s1.07,5.21,2.93,7.07C444.68,184.65,447.26,185.72,449.89,185.72z"/>
<path d="M255.974,250H304.5c5.522,0,10-4.477,10-10s-4.478-10-10-10h-48.526c-30.875,0-55.994-25.119-55.994-55.995v-1.011
	c0-30.875,25.119-55.995,55.994-55.995c30.876,0,55.995,25.119,55.995,55.995v16.021c0,4.954-4.03,8.984-8.984,8.984
	S294,193.97,294,189.016V170.92c0-22.607-18.393-41-41-41c-23.71,0-43,19.29-43,43s19.29,43,43,43h12.437c5.522,0,10-4.477,10-10
	s-4.478-10-10-10H253c-12.683,0-23-10.318-23-23s10.317-23,23-23c11.579,0,21,9.42,21,21v18.096
	C274,204.998,287.002,218,302.984,218s28.984-13.002,28.984-28.984v-16.021c0-41.904-34.091-75.995-75.995-75.995
	c-41.903,0-75.994,34.091-75.994,75.995v1.011C179.979,215.909,214.07,250,255.974,250z"/>
<path d="M138,341c-2.63,0-5.21,1.07-7.07,2.93S128,348.37,128,351s1.069,5.21,2.93,7.07S135.37,361,138,361s5.21-1.07,7.069-2.93
	c1.86-1.86,2.931-4.44,2.931-7.07s-1.07-5.21-2.931-7.07C143.21,342.07,140.63,341,138,341z"/>
<g>
</g>
<g>
</g>
<g>
</g>
<g>
</g>
<g>
</g>
<g>
</g>
<g>
</g>
<g>
</g>
<g>
</g>
<g>
</g>
<g>
</g>
<g>
</g>
<g>
</g>
<g>
</g>
<g>
</g>
</svg>
