<?xml version="1.0" encoding="UTF-8"?>
<svg width="444px" height="512px" viewBox="0 0 444 512" version="1.1" xmlns="http://www.w3.org/2000/svg" xmlns:xlink="http://www.w3.org/1999/xlink">
    <!-- Generator: Sketch 52.2 (67145) - http://www.bohemiancoding.com/sketch -->
    <title>5</title>
    <desc>Created with Sketch.</desc>
    <g id="Page-1" stroke="none" stroke-width="1" fill="none" fill-rule="evenodd">
        <g id="5">
            <g id="Group" transform="translate(79.000000, 256.000000)" fill="#26CFAD">
                <polygon id="Path" points="354.798 9.232 251.471 94.797 354.798 180.361"></polygon>
                <polygon id="Path" points="0.08 188.965 113.797 94.797 0.08 0.628"></polygon>
            </g>
            <polygon id="Path" fill="#516787" points="98.674 502 433.798 502 266.236 363.243"></polygon>
            <polygon id="Path" fill="#ECECF0" points="270.001 335.232 394.751 231.93 394.751 10 145.251 10 145.251 231.93"></polygon>
            <g id="Group" transform="translate(10.000000, 199.000000)" fill="#2C96B2">
                <polygon id="Path" points="0.201 0.59 39.251 32.93 39.251 0.59"></polygon>
                <polygon id="Path" points="384.751 0.59 384.751 32.93 423.801 0.59"></polygon>
            </g>
            <path d="M203.627,272.869 C193.402,265.421 194.168,246.627 186.719,236.402 C179.341,226.274 161.186,221.247 157.227,209.09 C153.403,197.347 164.991,182.65 164.991,169.647 C164.991,156.644 153.403,141.948 157.227,130.204 C161.186,118.046 179.341,113.019 186.719,102.891 C194.167,92.666 193.402,73.872 203.627,66.424 C213.755,59.046 231.36,65.518 243.517,61.559 C245.826,60.807 248.08,59.592 250.313,58.13 C241.19,52.157 232.447,42.011 222.001,42.011 C208.998,42.011 198.636,57.735 186.893,61.559 C174.735,65.518 157.131,59.045 147.003,66.424 C136.778,73.872 137.543,92.666 130.095,102.891 C122.717,113.019 104.561,118.046 100.603,130.204 C96.779,141.947 108.367,156.644 108.367,169.647 C108.367,182.65 96.779,197.347 100.603,209.09 C104.562,221.248 122.717,226.274 130.095,236.402 C137.543,246.627 136.778,265.421 147.003,272.869 C157.131,280.247 174.736,273.775 186.894,277.734 C198.637,281.558 208.999,297.282 222.002,297.282 C232.449,297.282 241.191,287.136 250.315,281.163 C248.083,279.701 245.828,278.486 243.52,277.735 C231.36,273.774 213.756,280.247 203.627,272.869 Z" id="Path" fill="#FFFFFF"></path>
            <path d="M297,272.869 C307.225,265.421 306.46,246.627 313.908,236.402 C321.286,226.274 339.442,221.247 343.401,209.089 C347.225,197.346 335.637,182.649 335.637,169.646 C335.637,156.643 347.225,141.947 343.401,130.203 C339.442,118.046 321.287,113.019 313.909,102.891 C306.461,92.666 307.226,73.872 297.001,66.424 C286.873,59.046 269.268,65.518 257.11,61.559 C254.802,60.807 252.547,59.592 250.315,58.13 C248.083,59.592 245.828,60.807 243.519,61.559 C231.362,65.518 213.757,59.045 203.629,66.424 C193.404,73.872 194.169,92.666 186.721,102.891 C179.343,113.019 161.187,118.046 157.229,130.204 C153.405,141.947 164.993,156.644 164.993,169.647 C164.993,182.65 153.405,197.347 157.229,209.09 C161.188,221.248 179.343,226.274 186.721,236.402 C194.169,246.627 193.404,265.421 203.629,272.869 C213.757,280.247 231.362,273.775 243.52,277.734 C245.828,278.485 248.083,279.701 250.315,281.162 C252.547,279.7 254.802,278.485 257.111,277.733 C269.267,273.774 286.871,280.247 297,272.869 Z" id="Path" fill="#F6B244"></path>
            <path d="M222.001,307.281 C211,307.281 202.556,300.59 195.106,294.687 C191.142,291.546 187.043,288.298 183.797,287.242 C180.258,286.09 174.835,286.285 169.588,286.475 C160.258,286.812 149.684,287.194 141.114,280.95 C132.476,274.657 129.583,264.432 127.031,255.412 C125.614,250.402 124.149,245.224 122.011,242.289 C119.927,239.428 115.496,236.48 111.211,233.63 C103.352,228.402 94.443,222.477 91.093,212.187 C87.857,202.249 91.46,192.394 94.64,183.7 C96.472,178.692 98.366,173.513 98.366,169.647 C98.366,165.781 96.472,160.602 94.64,155.594 C91.46,146.9 87.857,137.045 91.093,127.107 C94.444,116.817 103.352,110.891 111.211,105.664 C115.496,102.813 119.927,99.866 122.012,97.004 C124.149,94.069 125.615,88.89 127.032,83.881 C129.584,74.86 132.476,64.636 141.115,58.342 C149.685,52.1 160.257,52.48 169.588,52.819 C174.834,53.008 180.258,53.205 183.797,52.052 C187.043,50.995 191.142,47.747 195.106,44.607 C202.557,38.704 211.001,32.013 222.002,32.013 C233.003,32.013 241.447,38.703 248.897,44.607 C252.861,47.748 256.96,50.996 260.206,52.052 C263.745,53.204 269.17,53.009 274.415,52.819 C283.746,52.48 294.317,52.1 302.889,58.342 C311.529,64.636 314.42,74.861 316.972,83.881 C318.389,88.891 319.854,94.07 321.992,97.004 C324.076,99.865 328.507,102.813 332.792,105.663 C340.651,110.892 349.559,116.817 352.91,127.107 C356.146,137.046 352.543,146.899 349.363,155.593 C347.531,160.602 345.637,165.781 345.637,169.647 C345.637,173.513 347.531,178.692 349.363,183.7 C352.543,192.394 356.146,202.248 352.91,212.186 C349.558,222.477 340.651,228.403 332.792,233.63 C328.507,236.481 324.076,239.428 321.992,242.289 C319.854,245.223 318.389,250.402 316.972,255.412 C314.42,264.432 311.529,274.657 302.889,280.951 C294.32,287.194 283.742,286.811 274.415,286.475 C269.169,286.284 263.746,286.088 260.207,287.242 C256.96,288.299 252.861,291.547 248.896,294.687 C241.445,300.591 233.001,307.281 222.001,307.281 Z M175.628,266.325 C180.445,266.325 185.29,266.694 189.989,268.224 C196.649,270.393 202.178,274.774 207.526,279.011 C212.657,283.076 217.963,287.281 222.001,287.281 C226.038,287.281 231.345,283.077 236.476,279.011 C241.824,274.774 247.354,270.393 254.013,268.224 C260.924,265.974 268.152,266.236 275.136,266.488 C281.527,266.719 288.129,266.957 291.112,264.785 C294.165,262.562 295.975,256.16 297.726,249.969 C299.622,243.268 301.581,236.338 305.825,230.514 C310.017,224.759 315.963,220.803 321.713,216.979 C327.111,213.388 332.693,209.674 333.892,205.993 C334.989,202.627 332.746,196.497 330.579,190.569 C328.263,184.235 325.637,177.055 325.637,169.647 C325.637,162.239 328.263,155.059 330.579,148.724 C332.746,142.796 334.988,136.666 333.892,133.3 C332.694,129.618 327.112,125.905 321.714,122.315 C315.964,118.49 310.018,114.534 305.825,108.779 C301.582,102.955 299.622,96.025 297.726,89.324 C295.975,83.133 294.165,76.73 291.113,74.508 C288.131,72.336 281.524,72.575 275.137,72.806 C268.149,73.06 260.924,73.321 254.012,71.07 C247.353,68.901 241.824,64.52 236.476,60.283 C231.345,56.218 226.038,52.013 222.001,52.013 C217.963,52.013 212.657,56.217 207.526,60.283 C202.178,64.52 196.649,68.901 189.989,71.07 C183.079,73.321 175.852,73.058 168.865,72.806 C162.477,72.574 155.871,72.336 152.891,74.508 C149.839,76.731 148.028,83.133 146.276,89.325 C144.381,96.026 142.421,102.955 138.178,108.779 C133.985,114.535 128.039,118.491 122.289,122.316 C116.891,125.907 111.31,129.62 110.111,133.3 C109.015,136.666 111.256,142.796 113.424,148.725 C115.741,155.059 118.366,162.239 118.366,169.647 C118.366,177.055 115.74,184.235 113.424,190.569 C111.256,196.498 109.014,202.628 110.111,205.994 C111.309,209.675 116.891,213.388 122.289,216.978 C128.04,220.803 133.985,224.758 138.178,230.514 C142.421,236.338 144.381,243.268 146.277,249.968 C148.028,256.16 149.84,262.563 152.892,264.785 C155.874,266.957 162.479,266.72 168.867,266.488 C171.102,266.407 173.362,266.325 175.628,266.325 Z" id="Shape" fill="#000000" fill-rule="nonzero"></path>
            <path d="M182.459,169.646 C182.459,131.875 208.146,100.114 243.001,90.848 C236.299,89.066 229.264,88.104 222.001,88.104 C176.967,88.104 140.459,124.611 140.459,169.646 C140.459,214.681 176.966,251.188 222.001,251.188 C229.264,251.188 236.299,250.226 243.001,248.444 C208.146,239.178 182.459,207.418 182.459,169.646 Z" id="Path" fill="#FFFFFF"></path>
            <path d="M303.543,169.646 C303.543,131.875 277.856,100.114 243.001,90.848 C208.146,100.114 182.459,131.874 182.459,169.646 C182.459,207.418 208.146,239.178 243.001,248.444 C277.855,239.178 303.543,207.418 303.543,169.646 Z" id="Path" fill="#FAD06A"></path>
            <path d="M222.001,261.188 C171.525,261.188 130.459,220.123 130.459,169.647 C130.459,119.17 171.524,78.105 222.001,78.105 C272.478,78.105 313.543,119.17 313.543,169.647 C313.543,220.122 272.478,261.188 222.001,261.188 Z M222.001,98.104 C182.553,98.104 150.459,130.198 150.459,169.646 C150.459,209.094 182.552,241.187 222.001,241.187 C261.449,241.187 293.543,209.094 293.543,169.646 C293.543,130.198 261.449,98.104 222.001,98.104 Z" id="Shape" fill="#000000" fill-rule="nonzero"></path>
            <path d="M89.71,319.546 C77.943,325.031 69.784,336.958 69.784,350.796 C69.784,364.635 77.943,376.561 89.71,382.046 C101.477,376.561 109.636,364.635 109.636,350.796 C109.636,336.957 101.477,325.031 89.71,319.546 Z" id="Path" fill="#E95542"></path>
            <path d="M75.169,395.263 C50.65,395.263 30.702,375.316 30.702,350.796 C30.702,326.276 50.65,306.328 75.169,306.328 C99.688,306.328 119.636,326.276 119.636,350.796 C119.636,375.316 99.688,395.263 75.169,395.263 Z M75.169,326.328 C61.678,326.328 50.702,337.305 50.702,350.796 C50.702,364.287 61.678,375.263 75.169,375.263 C88.66,375.263 99.636,364.287 99.636,350.796 C99.636,337.305 88.66,326.328 75.169,326.328 Z" id="Shape" fill="#000000" fill-rule="nonzero"></path>
            <path d="M320.471,476.31 C319.821,476.31 319.162,476.25 318.511,476.12 C317.881,475.99 317.251,475.8 316.641,475.55 C316.041,475.3 315.461,474.99 314.921,474.63 C314.371,474.26 313.86,473.84 313.4,473.38 C312.94,472.92 312.52,472.41 312.15,471.859 C311.791,471.319 311.48,470.74 311.23,470.139 C310.98,469.529 310.79,468.899 310.661,468.269 C310.531,467.62 310.47,466.959 310.47,466.309 C310.47,465.66 310.531,464.999 310.661,464.359 C310.791,463.719 310.98,463.089 311.23,462.49 C311.48,461.889 311.79,461.3 312.15,460.76 C312.52,460.22 312.94,459.7 313.4,459.24 C313.86,458.779 314.371,458.359 314.921,458 C315.461,457.64 316.041,457.33 316.641,457.08 C317.251,456.83 317.881,456.639 318.511,456.51 C319.801,456.25 321.131,456.25 322.421,456.51 C323.061,456.64 323.691,456.83 324.291,457.08 C324.9,457.33 325.481,457.639 326.02,458 C326.56,458.359 327.081,458.779 327.541,459.24 C328.001,459.7 328.421,460.219 328.781,460.76 C329.14,461.3 329.451,461.89 329.701,462.49 C329.951,463.09 330.14,463.719 330.27,464.359 C330.4,465 330.47,465.66 330.47,466.309 C330.47,466.959 330.4,467.619 330.27,468.269 C330.14,468.899 329.951,469.529 329.701,470.139 C329.451,470.74 329.14,471.319 328.781,471.859 C328.421,472.41 328.001,472.919 327.541,473.38 C327.081,473.84 326.561,474.26 326.02,474.63 C325.48,474.99 324.9,475.3 324.291,475.55 C323.691,475.8 323.061,475.99 322.421,476.12 C321.781,476.25 321.121,476.31 320.471,476.31 Z" id="Path" fill="#000000"></path>
            <path d="M443.209,196.2 C441.779,192.233 438.017,189.59 433.801,189.59 L404.751,189.59 L404.751,10 C404.751,4.477 400.274,0 394.751,0 L49.251,0 C43.728,0 39.251,4.477 39.251,10 L39.251,189.59 L10.201,189.59 C5.985,189.59 2.222,192.234 0.793,196.2 C0.364,197.39 0.173,198.622 0.204,199.837 L0.204,501.939 C0.201,502.434 0.235,502.932 0.306,503.428 C0.306,503.431 0.307,503.434 0.307,503.438 C0.314,503.489 0.322,503.54 0.331,503.591 C0.333,503.604 0.335,503.616 0.337,503.628 C0.344,503.672 0.352,503.716 0.36,503.76 C0.363,503.779 0.367,503.798 0.37,503.816 C0.377,503.855 0.385,503.894 0.392,503.933 C0.397,503.956 0.401,503.979 0.406,504.002 C0.413,504.038 0.421,504.075 0.429,504.111 C0.435,504.137 0.441,504.164 0.447,504.19 C0.454,504.223 0.461,504.255 0.469,504.287 C0.477,504.321 0.486,504.355 0.494,504.39 C0.5,504.414 0.506,504.439 0.512,504.463 C0.543,504.584 0.576,504.705 0.611,504.825 C0.613,504.832 0.615,504.838 0.617,504.845 C0.634,504.901 0.65,504.956 0.668,505.011 C0.67,505.019 0.673,505.026 0.675,505.034 C0.691,505.085 0.708,505.136 0.725,505.187 C0.73,505.203 0.736,505.218 0.741,505.234 C0.756,505.279 0.772,505.323 0.788,505.368 C0.791,505.375 0.793,505.382 0.795,505.389 C0.799,505.399 0.802,505.409 0.806,505.419 C0.821,505.461 0.836,505.502 0.852,505.544 C0.859,505.563 0.866,505.582 0.874,505.601 C0.889,505.639 0.904,505.677 0.919,505.715 C0.928,505.738 0.937,505.761 0.947,505.784 C0.96,505.815 0.973,505.847 0.986,505.878 C0.998,505.906 1.009,505.933 1.021,505.961 C1.029,505.981 1.038,506 1.047,506.019 C1.685,507.474 2.647,508.727 3.829,509.705 C3.833,509.708 3.836,509.711 3.84,509.715 C3.871,509.741 3.903,509.766 3.935,509.792 C3.951,509.805 3.967,509.818 3.984,509.831 C4.013,509.854 4.043,509.877 4.072,509.9 C4.091,509.914 4.109,509.929 4.128,509.943 C4.157,509.965 4.186,509.987 4.215,510.009 C4.234,510.023 4.254,510.038 4.273,510.052 C4.305,510.075 4.337,510.098 4.369,510.122 C4.385,510.133 4.401,510.145 4.417,510.156 C4.451,510.18 4.486,510.204 4.52,510.228 C4.535,510.238 4.55,510.249 4.564,510.259 C4.601,510.284 4.638,510.309 4.676,510.335 C4.687,510.342 4.698,510.349 4.709,510.357 C4.75,510.384 4.792,510.411 4.833,510.437 C4.841,510.442 4.848,510.447 4.856,510.452 C4.901,510.481 4.947,510.509 4.993,510.537 C4.996,510.538 4.998,510.54 5.001,510.542 C6.081,511.2 7.289,511.656 8.567,511.867 C8.575,511.868 8.582,511.87 8.59,511.871 C8.758,511.899 8.928,511.922 9.098,511.941 C9.114,511.943 9.131,511.944 9.147,511.946 C9.218,511.953 9.29,511.96 9.361,511.966 C9.374,511.967 9.387,511.969 9.4,511.97 C9.481,511.976 9.561,511.982 9.642,511.986 C9.662,511.987 9.683,511.988 9.703,511.989 C9.765,511.992 9.827,511.995 9.889,511.997 C9.913,511.998 9.938,511.998 9.962,511.999 C10.041,512.001 10.119,512.002 10.198,512.002 L433.805,512.002 C433.883,512.002 433.961,512.001 434.039,511.999 C434.064,511.998 434.089,511.998 434.113,511.997 C434.175,511.995 434.236,511.993 434.297,511.989 C434.318,511.988 434.339,511.987 434.36,511.986 C434.44,511.981 434.521,511.976 434.601,511.97 C434.615,511.969 434.629,511.967 434.643,511.966 C434.714,511.96 434.784,511.953 434.854,511.946 C434.871,511.944 434.888,511.942 434.905,511.941 C435.075,511.922 435.244,511.899 435.412,511.871 C435.42,511.87 435.428,511.868 435.436,511.867 C435.521,511.853 435.606,511.838 435.69,511.822 C436.749,511.618 437.757,511.246 438.68,510.729 C438.688,510.725 438.696,510.72 438.704,510.716 C438.744,510.694 438.784,510.671 438.823,510.648 C438.838,510.639 438.853,510.63 438.869,510.621 C438.904,510.601 438.938,510.58 438.972,510.559 C438.992,510.547 439.012,510.535 439.032,510.523 C439.061,510.505 439.091,510.487 439.12,510.468 C439.144,510.453 439.168,510.438 439.193,510.422 C439.219,510.405 439.245,510.389 439.27,510.372 C439.297,510.354 439.324,510.336 439.351,510.318 C439.373,510.303 439.395,510.288 439.418,510.273 C439.45,510.251 439.482,510.23 439.513,510.208 L439.564,510.172 C439.599,510.147 439.635,510.122 439.67,510.096 C439.684,510.086 439.698,510.076 439.712,510.066 C439.752,510.036 439.793,510.006 439.832,509.976 C439.84,509.97 439.848,509.964 439.856,509.958 C439.9,509.925 439.944,509.891 439.987,509.856 C439.992,509.852 439.997,509.848 440.003,509.844 C440.198,509.689 440.387,509.528 440.57,509.36 C440.582,509.35 440.593,509.339 440.605,509.328 C440.638,509.298 440.67,509.267 440.703,509.236 C440.722,509.217 440.742,509.198 440.761,509.18 C440.784,509.158 440.806,509.137 440.828,509.115 C440.855,509.089 440.881,509.062 440.907,509.035 C440.922,509.02 440.937,509.004 440.952,508.989 C440.98,508.96 441.008,508.931 441.036,508.902 C441.049,508.888 441.062,508.875 441.075,508.861 C441.105,508.829 441.135,508.796 441.165,508.764 C441.174,508.754 441.183,508.744 441.192,508.734 C441.224,508.699 441.255,508.664 441.286,508.629 C441.294,508.62 441.302,508.611 441.309,508.603 C441.342,508.565 441.375,508.527 441.407,508.489 C441.41,508.485 441.413,508.482 441.416,508.478 C441.826,507.996 442.192,507.473 442.508,506.913 C442.508,506.912 442.509,506.912 442.509,506.912 C442.537,506.861 442.565,506.811 442.592,506.761 C442.593,506.76 442.593,506.759 442.594,506.758 C442.621,506.708 442.648,506.658 442.674,506.608 L442.678,506.601 C442.755,506.453 442.828,506.302 442.898,506.149 C442.9,506.144 442.903,506.139 442.905,506.134 C442.917,506.107 442.929,506.08 442.94,506.054 C442.954,506.022 442.969,505.989 442.983,505.957 C442.992,505.937 443,505.916 443.009,505.896 C443.025,505.858 443.041,505.82 443.057,505.782 C443.065,505.762 443.073,505.743 443.081,505.723 C443.097,505.683 443.113,505.642 443.129,505.601 C443.135,505.584 443.142,505.567 443.148,505.55 C443.165,505.506 443.181,505.462 443.197,505.418 L443.206,505.392 C443.208,505.385 443.211,505.379 443.213,505.372 C443.229,505.327 443.245,505.282 443.26,505.237 L443.276,505.19 C443.293,505.139 443.31,505.088 443.326,505.037 C443.329,505.029 443.331,505.022 443.334,505.014 C443.391,504.833 443.443,504.651 443.49,504.466 C443.496,504.442 443.502,504.417 443.508,504.393 C443.516,504.359 443.525,504.324 443.533,504.29 C443.541,504.257 443.548,504.225 443.555,504.193 C443.561,504.167 443.567,504.141 443.573,504.114 C443.581,504.078 443.588,504.041 443.596,504.005 C443.601,503.982 443.605,503.959 443.61,503.936 C443.618,503.897 443.625,503.858 443.632,503.819 C443.636,503.8 443.639,503.781 443.642,503.763 C443.65,503.719 443.658,503.675 443.665,503.631 C443.667,503.619 443.669,503.606 443.671,503.594 C443.679,503.543 443.687,503.492 443.695,503.441 C443.695,503.438 443.696,503.434 443.696,503.431 C443.768,502.935 443.801,502.437 443.798,501.942 L443.798,199.842 C443.828,198.623 443.638,197.391 443.209,196.2 Z M59.251,20 L384.751,20 L384.751,227.225 L222.001,361.997 L59.251,227.225 L59.251,20 Z M20.204,220.858 L177.117,350.797 L20.204,480.735 L20.204,220.858 Z M37.959,492 L56.902,476.314 L278.95,476.314 C284.472,476.314 288.95,471.836 288.95,466.314 C288.95,460.791 284.472,456.314 278.95,456.314 L81.054,456.314 L192.797,363.781 L215.623,382.683 C217.473,384.215 219.737,384.981 222.001,384.981 C224.265,384.981 226.529,384.215 228.379,382.683 L251.205,363.781 L406.043,492 L37.959,492 Z M423.798,480.735 L266.884,350.797 L423.798,220.858 L423.798,480.735 Z" id="Shape" fill="#000000" fill-rule="nonzero"></path>
        </g>
    </g>
</svg>