<svg height="512pt" viewBox="0 0 512 512" width="512pt" xmlns="http://www.w3.org/2000/svg"><path d="m502 245.996094-65.269531 63.75-.730469-.75v-123zm0 0" fill="#fd3c65"/><path d="m436 308.996094.730469.75-63.730469 62.25-.5.5-102.359375-102.359375c-7.8125-7.808594-20.46875-7.808594-28.28125 0l-102.359375 102.359375-.5-.5-63.730469-62.25.730469-.75v-234h360zm0 0" fill="#fff"/><path d="m270.140625 15.859375 55.859375 59.136719h-140l55.859375-59.136719c7.8125-7.8125 20.46875-7.8125 28.28125 0zm0 0" fill="#fd3c65"/><path d="m281.859375 310.136719-102.359375 102.359375-.5-.5-63.730469-62.25-65.269531-63.75v216h432c5.519531 0 10.519531-2.238282 14.140625-5.859375 3.621094-3.617188 5.859375-8.617188 5.859375-14.140625v-156.929688l-25.269531 24.683594-63.730469 62.246094-.5.5-102.359375-102.359375c-7.8125-7.808594-20.46875-7.808594-28.28125 0zm0 0" fill="#fff5cd"/><path d="m76 185.996094v123l-.730469.75-65.269531-63.75zm0 0" fill="#fff"/><path d="m156 451.996094c-5.519531 0-10 4.480468-10 10 0 5.523437 4.480469 10 10 10s10-4.476563 10-10c0-5.519532-4.480469-10-10-10zm0 0"/><path d="m512 245.996094c0-.050782-.011719-.097656-.011719-.152344-.007812-.4375-.035156-.875-.097656-1.3125-.003906-.035156-.015625-.066406-.019531-.101562-.0625-.402344-.15625-.800782-.269532-1.195313-.027343-.089844-.050781-.179687-.082031-.269531-.132812-.417969-.285156-.828125-.472656-1.230469-.007813-.015625-.015625-.027344-.023437-.042969-.179688-.378906-.390626-.742187-.621094-1.097656-.046875-.078125-.097656-.152344-.148438-.230469-.433594-.632812-.933594-1.226562-1.527344-1.765625l-62.726562-57.023437v-106.578125c0-5.519532-4.476562-10-10-10h-105.691406l-52.898438-56.003906c-.066406-.070313-.132812-.136719-.199218-.207032-5.664063-5.664062-13.199219-8.785156-21.210938-8.785156s-15.546875 3.121094-21.210938 8.785156c-.066406.070313-.132812.136719-.199218.207032l-52.898438 56.003906h-105.691406c-5.523438 0-10 4.480468-10 10v106.578125l-62.726562 57.023437c-.59375.539063-1.09375 1.136719-1.527344 1.769532-.050782.074218-.101563.148437-.148438.226562-.230468.355469-.441406.722656-.621094 1.101562-.007812.015626-.015624.027344-.023437.042969-.1875.398438-.339844.808594-.472656 1.226563-.03125.089844-.054688.179687-.082031.269531-.113282.394531-.207032.792969-.269532 1.195313-.007812.035156-.015625.070312-.019531.105468-.0625.433594-.0898438.871094-.0976562 1.3125 0 .050782-.0117188.097656-.0117188.148438v236c0 8.011718 3.121094 15.542968 8.789062 21.214844 5.667969 5.667968 13.199219 8.785156 21.210938 8.785156h452c8 0 15.527344-3.113282 21.191406-8.769532.007813-.003906.011719-.011718.019532-.015624.007812-.007813.011718-.015626.019531-.019532 5.65625-5.667968 8.769531-13.191406 8.769531-21.195312zm-492 23.746094 105.28125 102.832031-105.28125 105.28125zm228.929688 7.46875c3.898437-3.898438 10.242187-3.902344 14.140624 0l214.789063 214.785156h-443.71875zm137.789062 95.363281 105.28125-102.832031v208.113281zm100.703125-126.316407-41.421875 40.460938v-78.117188zm-238.40625-223.410156c1.878906-1.835937 4.351563-2.847656 6.984375-2.847656s5.105469 1.011719 6.984375 2.847656l39.816406 42.148438h-93.601562zm176.984375 62.148438v221.257812l-53.421875 52.179688-95.367187-95.367188c-11.695313-11.695312-30.726563-11.695312-42.421876 0l-95.367187 95.367188-53.421875-52.179688v-221.257812zm-360 201.722656-41.421875-40.460938 41.421875-37.65625zm0 0"/><path d="m356 451.996094h-160c-5.523438 0-10 4.480468-10 10 0 5.523437 4.476562 10 10 10h160c5.523438 0 10-4.476563 10-10 0-5.519532-4.476562-10-10-10zm0 0"/><path d="m148.929688 183.070312c1.953124 1.949219 4.511718 2.925782 7.070312 2.925782s5.117188-.976563 7.070312-2.925782l40-40c3.90625-3.90625 3.90625-10.238281 0-14.144531-3.90625-3.902343-10.234374-3.902343-14.140624 0l-32.929688 32.929688-12.929688-12.929688c-3.90625-3.902343-10.234374-3.902343-14.140624 0-3.90625 3.90625-3.90625 10.238281 0 14.144531zm0 0"/><path d="m256 165.996094h120c5.523438 0 10-4.476563 10-10 0-5.519532-4.476562-10-10-10h-120c-5.523438 0-10 4.480468-10 10 0 5.523437 4.476562 10 10 10zm0 0"/><path d="m148.929688 263.070312c1.953124 1.949219 4.511718 2.925782 7.070312 2.925782s5.117188-.976563 7.070312-2.925782l40-40c3.90625-3.90625 3.90625-10.238281 0-14.144531-3.90625-3.902343-10.234374-3.902343-14.140624 0l-32.929688 32.929688-12.929688-12.929688c-3.90625-3.902343-10.234374-3.902343-14.140624 0-3.90625 3.90625-3.90625 10.238281 0 14.144531zm0 0"/><path d="m256 245.996094h120c5.523438 0 10-4.476563 10-10 0-5.519532-4.476562-10-10-10h-120c-5.523438 0-10 4.480468-10 10 0 5.523437 4.476562 10 10 10zm0 0"/></svg>