<?xml version="1.0" encoding="iso-8859-1"?>
<!-- Generator: Adobe Illustrator 19.0.0, SVG Export Plug-In . SVG Version: 6.00 Build 0)  -->
<svg version="1.1" id="Capa_1" xmlns="http://www.w3.org/2000/svg" xmlns:xlink="http://www.w3.org/1999/xlink" x="0px" y="0px"
	 viewBox="0 0 512 512" style="enable-background:new 0 0 512 512;" xml:space="preserve">
<path style="fill:#F25353;" d="M434,10H166c-16.569,0-30,13.431-30,30v408h260.021v54H464V40C464,23.431,450.569,10,434,10z"/>
<rect x="122.01" y="212" style="fill:#FFFFFF;" width="267.98" height="172.17"/>
<rect x="197" y="212" style="fill:#FEB756;" width="192.99" height="172.17"/>
<rect x="116" y="10" style="fill:#FFFFFF;" width="280" height="132"/>
<rect x="176.33" y="10" style="fill:#657FC9;" width="219.67" height="132"/>
<rect x="194" y="101.94" style="fill:#D0E6EF;" width="124" height="40.06"/>
<path d="M389.989,202h-50.467c-5.523,0-10,4.477-10,10s4.477,10,10,10h40.467v152.168H132.011V222h111.845c5.523,0,10-4.477,10-10
	s-4.477-10-10-10H122.011c-5.523,0-10,4.477-10,10v172.168c0,5.523,4.477,10,10,10H389.99c5.523,0,10-4.477,10-10V212
	C399.989,206.477,395.512,202,389.989,202z"/>
<path d="M291.68,222c2.63,0,5.21-1.07,7.07-2.93c1.86-1.86,2.93-4.44,2.93-7.07s-1.07-5.21-2.93-7.07s-4.44-2.93-7.07-2.93
	s-5.21,1.07-7.07,2.93c-1.86,1.86-2.93,4.44-2.93,7.07s1.07,5.21,2.93,7.07S289.05,222,291.68,222z"/>
<path d="M204.789,337c5.523,0,10-4.477,10-10v-57.416c0-4.304-2.754-8.125-6.837-9.486c-4.083-1.364-8.579,0.042-11.162,3.484
	l-13.542,18.048l-13.542-18.048c-2.583-3.442-7.08-4.844-11.162-3.484c-4.083,1.361-6.837,5.183-6.837,9.486V327
	c0,5.523,4.477,10,10,10s10-4.477,10-10v-27.427l3.542,4.721c1.889,2.517,4.852,3.998,7.999,3.998s6.11-1.481,7.999-3.998
	l3.542-4.721V327C194.789,332.523,199.266,337,204.789,337z"/>
<path d="M291.626,269.584V327c0,5.523,4.477,10,10,10s10-4.477,10-10v-57.416c0-5.523-4.477-10-10-10
	S291.626,264.062,291.626,269.584z"/>
<path d="M244.625,266.072l-21.541,57.416c-1.94,5.171,0.679,10.936,5.85,12.875c5.168,1.939,10.935-0.679,12.875-5.85l12.178-32.46
	l12.178,32.46c1.506,4.014,5.316,6.49,9.364,6.49c1.167,0,2.354-0.206,3.511-0.64c5.171-1.94,7.79-7.705,5.85-12.875l-21.541-57.416
	c-1.464-3.902-5.195-6.487-9.363-6.487S246.088,262.169,244.625,266.072z"/>
<path d="M328.751,337h21.541c5.523,0,10-4.477,10-10s-4.477-10-10-10h-11.541v-47.416c0-5.523-4.477-10-10-10s-10,4.477-10,10V327
	C318.751,332.523,323.229,337,328.751,337z"/>
<path d="M502,492h-28V40c0-22.056-17.944-40-40-40H78C55.944,0,38,17.944,38,40v452H10c-5.523,0-10,4.477-10,10s4.477,10,10,10h492
	c5.523,0,10-4.477,10-10S507.523,492,502,492z M386,20v112h-58v-30.063c0-5.523-4.477-10-10-10H194c-5.523,0-10,4.477-10,10V132h-58
	V57.667h86.946c5.523,0,10-4.477,10-10s-4.477-10-10-10H126V20H386z M308,132H204v-20.063h104V132z M386.021,492h-260v-34h260V492z
	 M406.021,492v-44c0-5.523-4.477-10-10-10h-280c-5.523,0-10,4.477-10,10v44H58V40c0-11.028,8.972-20,20-20h28v122
	c0,5.523,4.477,10,10,10h280c5.523,0,10-4.477,10-10V20h28c11.028,0,20,8.972,20,20v452H406.021z"/>
<path d="M251.95,57.67c2.63,0,5.21-1.07,7.07-2.93s2.93-4.44,2.93-7.07c0-2.64-1.07-5.21-2.93-7.07c-1.86-1.87-4.44-2.93-7.07-2.93
	c-2.64,0-5.21,1.06-7.07,2.93c-1.87,1.86-2.93,4.43-2.93,7.07c0,2.63,1.06,5.21,2.93,7.07C246.74,56.6,249.31,57.67,251.95,57.67z"
	/>
<g>
</g>
<g>
</g>
<g>
</g>
<g>
</g>
<g>
</g>
<g>
</g>
<g>
</g>
<g>
</g>
<g>
</g>
<g>
</g>
<g>
</g>
<g>
</g>
<g>
</g>
<g>
</g>
<g>
</g>
</svg>
